<?xml version="1.0" encoding="us-ascii" standalone="no"?><svg xmlns="http://www.w3.org/2000/svg" xmlns:xlink="http://www.w3.org/1999/xlink" contentStyleType="text/css" height="478px" preserveAspectRatio="none" style="width:727px;height:478px;background:#FFFFFF;" version="1.1" viewBox="0 0 727 478" width="727px" zoomAndPan="magnify"><defs/><g><rect fill="#FFFFFF" height="251.4395" style="stroke:#181818;stroke-width:1.0;" width="10" x="250.5" y="128.1094"/><rect fill="#FFFFFF" height="29.3105" style="stroke:#181818;stroke-width:1.0;" width="10" x="432.5" y="157.4199"/><rect fill="#FFFFFF" height="29.3105" style="stroke:#181818;stroke-width:1.0;" width="10" x="540.5" y="240.3516"/><rect fill="#FFFFFF" height="29.3105" style="stroke:#181818;stroke-width:1.0;" width="10" x="652" y="313.9277"/><rect fill="none" height="149.5078" style="stroke:#000000;stroke-width:1.5;" width="523" x="197" y="201.7305"/><line style="stroke:#181818;stroke-width:0.5;stroke-dasharray:5.0,5.0;" x1="39" x2="39" y1="81.4883" y2="397.5488"/><line style="stroke:#181818;stroke-width:0.5;stroke-dasharray:5.0,5.0;" x1="255" x2="255" y1="81.4883" y2="397.5488"/><line style="stroke:#181818;stroke-width:0.5;stroke-dasharray:5.0,5.0;" x1="437" x2="437" y1="81.4883" y2="397.5488"/><line style="stroke:#181818;stroke-width:0.5;stroke-dasharray:5.0,5.0;" x1="545" x2="545" y1="81.4883" y2="397.5488"/><line style="stroke:#181818;stroke-width:0.5;stroke-dasharray:5.0,5.0;" x1="657" x2="657" y1="81.4883" y2="397.5488"/><text fill="#000000" font-family="sans-serif" font-size="14" lengthAdjust="spacing" textLength="63" x="5" y="78.5352">Frontend</text><ellipse cx="39.5" cy="13.5" fill="#E2E2F0" rx="8" ry="8" style="stroke:#181818;stroke-width:0.5;"/><path d="M39.5,21.5 L39.5,48.5 M26.5,29.5 L52.5,29.5 M39.5,48.5 L26.5,63.5 M39.5,48.5 L52.5,63.5 " fill="none" style="stroke:#181818;stroke-width:0.5;"/><text fill="#000000" font-family="sans-serif" font-size="14" lengthAdjust="spacing" textLength="63" x="5" y="410.084">Frontend</text><ellipse cx="39.5" cy="421.5371" fill="#E2E2F0" rx="8" ry="8" style="stroke:#181818;stroke-width:0.5;"/><path d="M39.5,429.5371 L39.5,456.5371 M26.5,437.5371 L52.5,437.5371 M39.5,456.5371 L26.5,471.5371 M39.5,456.5371 L52.5,471.5371 " fill="none" style="stroke:#181818;stroke-width:0.5;"/><rect fill="#E2E2F0" height="30.4883" rx="2.5" ry="2.5" style="stroke:#181818;stroke-width:0.5;" width="97" x="207" y="50"/><text fill="#000000" font-family="sans-serif" font-size="14" lengthAdjust="spacing" textLength="83" x="214" y="70.5352">API Gateway</text><rect fill="#E2E2F0" height="30.4883" rx="2.5" ry="2.5" style="stroke:#181818;stroke-width:0.5;" width="97" x="207" y="396.5488"/><text fill="#000000" font-family="sans-serif" font-size="14" lengthAdjust="spacing" textLength="83" x="214" y="417.084">API Gateway</text><rect fill="#E2E2F0" height="30.4883" rx="2.5" ry="2.5" style="stroke:#181818;stroke-width:0.5;" width="99" x="388" y="50"/><text fill="#000000" font-family="sans-serif" font-size="14" lengthAdjust="spacing" textLength="85" x="395" y="70.5352">Auth Service</text><rect fill="#E2E2F0" height="30.4883" rx="2.5" ry="2.5" style="stroke:#181818;stroke-width:0.5;" width="99" x="388" y="396.5488"/><text fill="#000000" font-family="sans-serif" font-size="14" lengthAdjust="spacing" textLength="85" x="395" y="417.084">Auth Service</text><rect fill="#E2E2F0" height="30.4883" rx="2.5" ry="2.5" style="stroke:#181818;stroke-width:0.5;" width="97" x="497" y="50"/><text fill="#000000" font-family="sans-serif" font-size="14" lengthAdjust="spacing" textLength="83" x="504" y="70.5352">User Service</text><rect fill="#E2E2F0" height="30.4883" rx="2.5" ry="2.5" style="stroke:#181818;stroke-width:0.5;" width="97" x="497" y="396.5488"/><text fill="#000000" font-family="sans-serif" font-size="14" lengthAdjust="spacing" textLength="83" x="504" y="417.084">User Service</text><rect fill="#E2E2F0" height="30.4883" rx="2.5" ry="2.5" style="stroke:#181818;stroke-width:0.5;" width="106" x="604" y="50"/><text fill="#000000" font-family="sans-serif" font-size="14" lengthAdjust="spacing" textLength="92" x="611" y="70.5352">Order Service</text><rect fill="#E2E2F0" height="30.4883" rx="2.5" ry="2.5" style="stroke:#181818;stroke-width:0.5;" width="106" x="604" y="396.5488"/><text fill="#000000" font-family="sans-serif" font-size="14" lengthAdjust="spacing" textLength="92" x="611" y="417.084">Order Service</text><rect fill="#FFFFFF" height="251.4395" style="stroke:#181818;stroke-width:1.0;" width="10" x="250.5" y="128.1094"/><rect fill="#FFFFFF" height="29.3105" style="stroke:#181818;stroke-width:1.0;" width="10" x="432.5" y="157.4199"/><rect fill="#FFFFFF" height="29.3105" style="stroke:#181818;stroke-width:1.0;" width="10" x="540.5" y="240.3516"/><rect fill="#FFFFFF" height="29.3105" style="stroke:#181818;stroke-width:1.0;" width="10" x="652" y="313.9277"/><polygon fill="#181818" points="238.5,124.1094,248.5,128.1094,238.5,132.1094,242.5,128.1094" style="stroke:#181818;stroke-width:1.0;"/><line style="stroke:#181818;stroke-width:1.0;" x1="39.5" x2="244.5" y1="128.1094" y2="128.1094"/><text fill="#000000" font-family="sans-serif" font-size="13" lengthAdjust="spacing" textLength="127" x="46.5" y="108.0566">GET /api/dashboard</text><text fill="#000000" font-family="sans-serif" font-size="13" lengthAdjust="spacing" textLength="192" x="46.5" y="123.3672">Authorization: Bearer &lt;token&gt;</text><polygon fill="#181818" points="420.5,153.4199,430.5,157.4199,420.5,161.4199,424.5,157.4199" style="stroke:#181818;stroke-width:1.0;"/><line style="stroke:#181818;stroke-width:1.0;" x1="260.5" x2="426.5" y1="157.4199" y2="157.4199"/><text fill="#000000" font-family="sans-serif" font-size="13" lengthAdjust="spacing" textLength="153" x="267.5" y="152.6777">ValidateToken(&lt;token&gt;)</text><polygon fill="#181818" points="271.5,182.7305,261.5,186.7305,271.5,190.7305,267.5,186.7305" style="stroke:#181818;stroke-width:1.0;"/><line style="stroke:#181818;stroke-width:1.0;stroke-dasharray:2.0,2.0;" x1="265.5" x2="436.5" y1="186.7305" y2="186.7305"/><text fill="#000000" font-family="sans-serif" font-size="13" lengthAdjust="spacing" textLength="128" x="277.5" y="181.9883">200 OK (token valid)</text><path d="M197,201.7305 L259,201.7305 L259,209.041 L249,219.041 L197,219.041 L197,201.7305 " fill="#EEEEEE" style="stroke:#000000;stroke-width:1.5;"/><rect fill="none" height="149.5078" style="stroke:#000000;stroke-width:1.5;" width="523" x="197" y="201.7305"/><text fill="#000000" font-family="sans-serif" font-size="13" font-weight="bold" lengthAdjust="spacing" textLength="17" x="212" y="215.2988">alt</text><text fill="#000000" font-family="sans-serif" font-size="11" font-weight="bold" lengthAdjust="spacing" textLength="87" x="274" y="214.3652">[Request Users]</text><polygon fill="#181818" points="528.5,236.3516,538.5,240.3516,528.5,244.3516,532.5,240.3516" style="stroke:#181818;stroke-width:1.0;"/><line style="stroke:#181818;stroke-width:1.0;" x1="260.5" x2="534.5" y1="240.3516" y2="240.3516"/><text fill="#000000" font-family="sans-serif" font-size="13" lengthAdjust="spacing" textLength="122" x="267.5" y="235.6094">GET /api/users/{id}</text><polygon fill="#181818" points="271.5,265.6621,261.5,269.6621,271.5,273.6621,267.5,269.6621" style="stroke:#181818;stroke-width:1.0;"/><line style="stroke:#181818;stroke-width:1.0;stroke-dasharray:2.0,2.0;" x1="265.5" x2="544.5" y1="269.6621" y2="269.6621"/><text fill="#000000" font-family="sans-serif" font-size="13" lengthAdjust="spacing" textLength="116" x="277.5" y="264.9199">200 OK {user data}</text><line style="stroke:#000000;stroke-width:1.0;stroke-dasharray:2.0,2.0;" x1="197" x2="720" y1="278.6621" y2="278.6621"/><text fill="#000000" font-family="sans-serif" font-size="11" font-weight="bold" lengthAdjust="spacing" textLength="94" x="202" y="289.2969">[Request Orders]</text><polygon fill="#181818" points="640,309.9277,650,313.9277,640,317.9277,644,313.9277" style="stroke:#181818;stroke-width:1.0;"/><line style="stroke:#181818;stroke-width:1.0;" x1="260.5" x2="646" y1="313.9277" y2="313.9277"/><text fill="#000000" font-family="sans-serif" font-size="13" lengthAdjust="spacing" textLength="175" x="267.5" y="309.1855">GET /api/orders?userId={id}</text><polygon fill="#181818" points="271.5,339.2383,261.5,343.2383,271.5,347.2383,267.5,343.2383" style="stroke:#181818;stroke-width:1.0;"/><line style="stroke:#181818;stroke-width:1.0;stroke-dasharray:2.0,2.0;" x1="265.5" x2="656" y1="343.2383" y2="343.2383"/><text fill="#000000" font-family="sans-serif" font-size="13" lengthAdjust="spacing" textLength="115" x="277.5" y="338.4961">200 OK {order list}</text><polygon fill="#181818" points="50.5,375.5488,40.5,379.5488,50.5,383.5488,46.5,379.5488" style="stroke:#181818;stroke-width:1.0;"/><line style="stroke:#181818;stroke-width:1.0;stroke-dasharray:2.0,2.0;" x1="44.5" x2="254.5" y1="379.5488" y2="379.5488"/><text fill="#000000" font-family="sans-serif" font-size="13" lengthAdjust="spacing" textLength="159" x="56.5" y="374.8066">200 OK {aggregated data}</text><!--SRC=[RP9FJyCm3CNl-HJMJjjXwiHnWY6GO9eu3C602nVJM5j4rPGaBOA9xqwI_fdRjRSux_twR0TJfmtS6vqxogKeq3YLgW9p1vERnmsiqT4t_am0BVZp-cqWATq1dibKAgLQumlDkQzyiMHwob0OLMwD74XZfTMADYpCLtKaMCBwRWS95YgHQ0yV6erypqCKRTGlEgNp9TmI6i-zTFgJyfN0rAdADzTq9MfIG9uwyE1Np9JqibrmJHlpZBbPlzmvP-4k5WlOFi0qcg4An9cGDCeGc3bueg-Ih8iZiWByrwLZK-Djbq6P79NyY_8EpOSSBhXz9E8nSC3tYpM7XUGaoYnr8UDo1YdvmdXC7RNNuIyRUNKUjxVeSDC3ZGMEHCYKTMU9Ux3mkDiTUqptXauatEyDxRrHDWFW6mh6Vm00]--></g></svg>