<?xml version="1.0" encoding="us-ascii" standalone="no"?><svg xmlns="http://www.w3.org/2000/svg" xmlns:xlink="http://www.w3.org/1999/xlink" contentStyleType="text/css" height="580px" preserveAspectRatio="none" style="width:566px;height:580px;background:#FFFFFF;" version="1.1" viewBox="0 0 566 580" width="566px" zoomAndPan="magnify"><defs/><g><rect fill="#FFFFFF" height="118.5527" style="stroke:#181818;stroke-width:1.0;" width="10" x="184.5" y="171.4199"/><rect fill="#FFFFFF" height="118.5527" style="stroke:#181818;stroke-width:1.0;" width="10" x="184.5" y="362.5938"/><rect fill="#FFFFFF" height="29.3105" style="stroke:#181818;stroke-width:1.0;" width="10" x="357.5" y="216.041"/><rect fill="#FFFFFF" height="29.3105" style="stroke:#181818;stroke-width:1.0;" width="10" x="488" y="407.2148"/><line style="stroke:#181818;stroke-width:0.5;stroke-dasharray:5.0,5.0;" x1="23" x2="23" y1="81.4883" y2="499.1465"/><line style="stroke:#181818;stroke-width:0.5;stroke-dasharray:5.0,5.0;" x1="189.5" x2="189.5" y1="81.4883" y2="499.1465"/><line style="stroke:#181818;stroke-width:0.5;stroke-dasharray:5.0,5.0;" x1="362" x2="362" y1="81.4883" y2="499.1465"/><line style="stroke:#181818;stroke-width:0.5;stroke-dasharray:5.0,5.0;" x1="493" x2="493" y1="81.4883" y2="499.1465"/><text fill="#000000" font-family="sans-serif" font-size="14" lengthAdjust="spacing" textLength="31" x="5" y="78.5352">User</text><ellipse cx="23.5" cy="13.5" fill="#E2E2F0" rx="8" ry="8" style="stroke:#181818;stroke-width:0.5;"/><path d="M23.5,21.5 L23.5,48.5 M10.5,29.5 L36.5,29.5 M23.5,48.5 L10.5,63.5 M23.5,48.5 L36.5,63.5 " fill="none" style="stroke:#181818;stroke-width:0.5;"/><text fill="#000000" font-family="sans-serif" font-size="14" lengthAdjust="spacing" textLength="31" x="5" y="511.6816">User</text><ellipse cx="23.5" cy="523.1348" fill="#E2E2F0" rx="8" ry="8" style="stroke:#181818;stroke-width:0.5;"/><path d="M23.5,531.1348 L23.5,558.1348 M10.5,539.1348 L36.5,539.1348 M23.5,558.1348 L10.5,573.1348 M23.5,558.1348 L36.5,573.1348 " fill="none" style="stroke:#181818;stroke-width:0.5;"/><rect fill="#E2E2F0" height="30.4883" rx="2.5" ry="2.5" style="stroke:#181818;stroke-width:0.5;" width="106" x="136.5" y="50"/><text fill="#000000" font-family="sans-serif" font-size="14" lengthAdjust="spacing" textLength="92" x="143.5" y="70.5352">Order Service</text><rect fill="#E2E2F0" height="30.4883" rx="2.5" ry="2.5" style="stroke:#181818;stroke-width:0.5;" width="106" x="136.5" y="498.1465"/><text fill="#000000" font-family="sans-serif" font-size="14" lengthAdjust="spacing" textLength="92" x="143.5" y="518.6816">Order Service</text><text fill="#000000" font-family="sans-serif" font-size="14" lengthAdjust="spacing" textLength="113" x="303" y="78.5352">Master Database</text><path d="M344.5,29 C344.5,19 362.5,19 362.5,19 C362.5,19 380.5,19 380.5,29 L380.5,55 C380.5,65 362.5,65 362.5,65 C362.5,65 344.5,65 344.5,55 L344.5,29 " fill="#E2E2F0" style="stroke:#181818;stroke-width:1.5;"/><path d="M344.5,29 C344.5,39 362.5,39 362.5,39 C362.5,39 380.5,39 380.5,29 " fill="none" style="stroke:#181818;stroke-width:1.5;"/><text fill="#000000" font-family="sans-serif" font-size="14" lengthAdjust="spacing" textLength="113" x="303" y="511.6816">Master Database</text><path d="M344.5,524.6348 C344.5,514.6348 362.5,514.6348 362.5,514.6348 C362.5,514.6348 380.5,514.6348 380.5,524.6348 L380.5,550.6348 C380.5,560.6348 362.5,560.6348 362.5,560.6348 C362.5,560.6348 344.5,560.6348 344.5,550.6348 L344.5,524.6348 " fill="#E2E2F0" style="stroke:#181818;stroke-width:1.5;"/><path d="M344.5,524.6348 C344.5,534.6348 362.5,534.6348 362.5,534.6348 C362.5,534.6348 380.5,534.6348 380.5,524.6348 " fill="none" style="stroke:#181818;stroke-width:1.5;"/><text fill="#000000" font-family="sans-serif" font-size="14" lengthAdjust="spacing" textLength="116" x="432" y="78.5352">Replica Database</text><path d="M475,29 C475,19 493,19 493,19 C493,19 511,19 511,29 L511,55 C511,65 493,65 493,65 C493,65 475,65 475,55 L475,29 " fill="#E2E2F0" style="stroke:#181818;stroke-width:1.5;"/><path d="M475,29 C475,39 493,39 493,39 C493,39 511,39 511,29 " fill="none" style="stroke:#181818;stroke-width:1.5;"/><text fill="#000000" font-family="sans-serif" font-size="14" lengthAdjust="spacing" textLength="116" x="432" y="511.6816">Replica Database</text><path d="M475,524.6348 C475,514.6348 493,514.6348 493,514.6348 C493,514.6348 511,514.6348 511,524.6348 L511,550.6348 C511,560.6348 493,560.6348 493,560.6348 C493,560.6348 475,560.6348 475,550.6348 L475,524.6348 " fill="#E2E2F0" style="stroke:#181818;stroke-width:1.5;"/><path d="M475,524.6348 C475,534.6348 493,534.6348 493,534.6348 C493,534.6348 511,534.6348 511,524.6348 " fill="none" style="stroke:#181818;stroke-width:1.5;"/><rect fill="#FFFFFF" height="118.5527" style="stroke:#181818;stroke-width:1.0;" width="10" x="184.5" y="171.4199"/><rect fill="#FFFFFF" height="118.5527" style="stroke:#181818;stroke-width:1.0;" width="10" x="184.5" y="362.5938"/><rect fill="#FFFFFF" height="29.3105" style="stroke:#181818;stroke-width:1.0;" width="10" x="357.5" y="216.041"/><rect fill="#FFFFFF" height="29.3105" style="stroke:#181818;stroke-width:1.0;" width="10" x="488" y="407.2148"/><rect fill="#EEEEEE" height="3" style="stroke:#EEEEEE;stroke-width:1.0;" width="559" x="0" y="112.1436"/><line style="stroke:#000000;stroke-width:1.0;" x1="0" x2="559" y1="112.1436" y2="112.1436"/><line style="stroke:#000000;stroke-width:1.0;" x1="0" x2="559" y1="115.1436" y2="115.1436"/><rect fill="#EEEEEE" height="23.3105" style="stroke:#000000;stroke-width:2.0;" width="106" x="226.5" y="101.4883"/><text fill="#000000" font-family="sans-serif" font-size="13" font-weight="bold" lengthAdjust="spacing" textLength="88" x="232.5" y="118.0566">Create Order</text><polygon fill="#181818" points="172.5,167.4199,182.5,171.4199,172.5,175.4199,176.5,171.4199" style="stroke:#181818;stroke-width:1.0;"/><line style="stroke:#181818;stroke-width:1.0;" x1="23.5" x2="178.5" y1="171.4199" y2="171.4199"/><text fill="#000000" font-family="sans-serif" font-size="13" lengthAdjust="spacing" textLength="83" x="30.5" y="151.3672">POST /orders</text><text fill="#000000" font-family="sans-serif" font-size="13" lengthAdjust="spacing" textLength="137" x="30.5" y="166.6777">{ productId, quantity }</text><polygon fill="#181818" points="345.5,212.041,355.5,216.041,345.5,220.041,349.5,216.041" style="stroke:#181818;stroke-width:1.0;"/><line style="stroke:#181818;stroke-width:1.0;" x1="194.5" x2="351.5" y1="216.041" y2="216.041"/><text fill="#000000" font-family="sans-serif" font-size="13" lengthAdjust="spacing" textLength="144" x="201.5" y="195.9883">INSERT INTO orders(...)</text><text fill="#000000" font-family="sans-serif" font-size="13" lengthAdjust="spacing" textLength="129" x="201.5" y="211.2988">RETURNING order_id</text><polygon fill="#181818" points="205.5,241.3516,195.5,245.3516,205.5,249.3516,201.5,245.3516" style="stroke:#181818;stroke-width:1.0;"/><line style="stroke:#181818;stroke-width:1.0;stroke-dasharray:2.0,2.0;" x1="199.5" x2="361.5" y1="245.3516" y2="245.3516"/><text fill="#000000" font-family="sans-serif" font-size="13" lengthAdjust="spacing" textLength="52" x="211.5" y="240.6094">order_id</text><polygon fill="#181818" points="34.5,285.9727,24.5,289.9727,34.5,293.9727,30.5,289.9727" style="stroke:#181818;stroke-width:1.0;"/><line style="stroke:#181818;stroke-width:1.0;stroke-dasharray:2.0,2.0;" x1="28.5" x2="188.5" y1="289.9727" y2="289.9727"/><text fill="#000000" font-family="sans-serif" font-size="13" lengthAdjust="spacing" textLength="76" x="40.5" y="269.9199">201 Created</text><text fill="#000000" font-family="sans-serif" font-size="13" lengthAdjust="spacing" textLength="68" x="40.5" y="285.2305">{ order_id }</text><rect fill="#EEEEEE" height="3" style="stroke:#EEEEEE;stroke-width:1.0;" width="559" x="0" y="318.6279"/><line style="stroke:#000000;stroke-width:1.0;" x1="0" x2="559" y1="318.6279" y2="318.6279"/><line style="stroke:#000000;stroke-width:1.0;" x1="0" x2="559" y1="321.6279" y2="321.6279"/><rect fill="#EEEEEE" height="23.3105" style="stroke:#000000;stroke-width:2.0;" width="118" x="220.5" y="307.9727"/><text fill="#000000" font-family="sans-serif" font-size="13" font-weight="bold" lengthAdjust="spacing" textLength="100" x="226.5" y="324.541">Retrieve Order</text><polygon fill="#181818" points="172.5,358.5938,182.5,362.5938,172.5,366.5938,176.5,362.5938" style="stroke:#181818;stroke-width:1.0;"/><line style="stroke:#181818;stroke-width:1.0;" x1="23.5" x2="178.5" y1="362.5938" y2="362.5938"/><text fill="#000000" font-family="sans-serif" font-size="13" lengthAdjust="spacing" textLength="142" x="30.5" y="357.8516">GET /orders/{order_id}</text><polygon fill="#181818" points="476,403.2148,486,407.2148,476,411.2148,480,407.2148" style="stroke:#181818;stroke-width:1.0;"/><line style="stroke:#181818;stroke-width:1.0;" x1="194.5" x2="482" y1="407.2148" y2="407.2148"/><text fill="#000000" font-family="sans-serif" font-size="13" lengthAdjust="spacing" textLength="139" x="201.5" y="387.1621">SELECT * FROM orders</text><text fill="#000000" font-family="sans-serif" font-size="13" lengthAdjust="spacing" textLength="137" x="201.5" y="402.4727">WHERE id = {order_id}</text><polygon fill="#181818" points="205.5,432.5254,195.5,436.5254,205.5,440.5254,201.5,436.5254" style="stroke:#181818;stroke-width:1.0;"/><line style="stroke:#181818;stroke-width:1.0;stroke-dasharray:2.0,2.0;" x1="199.5" x2="492" y1="436.5254" y2="436.5254"/><text fill="#000000" font-family="sans-serif" font-size="13" lengthAdjust="spacing" textLength="80" x="211.5" y="431.7832">{ order data }</text><polygon fill="#181818" points="34.5,477.1465,24.5,481.1465,34.5,485.1465,30.5,481.1465" style="stroke:#181818;stroke-width:1.0;"/><line style="stroke:#181818;stroke-width:1.0;stroke-dasharray:2.0,2.0;" x1="28.5" x2="188.5" y1="481.1465" y2="481.1465"/><text fill="#000000" font-family="sans-serif" font-size="13" lengthAdjust="spacing" textLength="46" x="40.5" y="461.0938">200 OK</text><text fill="#000000" font-family="sans-serif" font-size="13" lengthAdjust="spacing" textLength="80" x="40.5" y="476.4043">{ order data }</text><!--SRC=[ZPBFIyCm7CNl_IiUFQcuRdeST0UtE8UkbRJ3oq1YaaD0jffc1Hd-xwQ_qjPDz1HuVB-VlFSInirUOvDBxMLC6yLLndO6Vgo5r4YaBXINFbYEIca4Jp33tbWkuQzPRkpaeX6gqLfRtFN6gCpU5MV3kKQqWruOOgubCxA-1s7ebQOmcWqknXJFSP9Yl2_5VBix8jDxSU1c9QxnSR3UbVd4byUuKON3jRQz0SkoMwUMkueIGbDxf35g-aKG19VR7INfXaQhQ5dBhqfqT9VKWKQdZjsQaAUBFopPxIht5BUJcwOIKSPi8JPR3pDCPqkaqcWbYxzhN1BNulZOml_TctivIqh84vcdkC8zZTTe7-RbWL02wpV4ENptz1tgJ7LDRfGVQPYyztT-Rt22-D6LTmRIt_m6]--></g></svg>