<?xml version="1.0" encoding="us-ascii" standalone="no"?><svg xmlns="http://www.w3.org/2000/svg" xmlns:xlink="http://www.w3.org/1999/xlink" contentStyleType="text/css" height="461px" preserveAspectRatio="none" style="width:846px;height:461px;background:#FFFFFF;" version="1.1" viewBox="0 0 846 461" width="846px" zoomAndPan="magnify"><defs/><g><rect fill="#FFFFFF" height="29.3105" style="stroke:#181818;stroke-width:1.0;" width="10" x="321" y="98.7988"/><rect fill="#FFFFFF" height="207.7949" style="stroke:#181818;stroke-width:1.0;" width="10" x="584" y="157.4199"/><rect fill="#FFFFFF" height="29.3105" style="stroke:#181818;stroke-width:1.0;" width="10" x="780" y="217.3516"/><rect fill="#FFFFFF" height="29.3105" style="stroke:#181818;stroke-width:1.0;" width="10" x="780" y="306.5938"/><line style="stroke:#181818;stroke-width:0.5;stroke-dasharray:5.0,5.0;" x1="58" x2="58" y1="67.4883" y2="383.2148"/><line style="stroke:#181818;stroke-width:0.5;stroke-dasharray:5.0,5.0;" x1="326" x2="326" y1="67.4883" y2="383.2148"/><line style="stroke:#181818;stroke-width:0.5;stroke-dasharray:5.0,5.0;" x1="588.5" x2="588.5" y1="67.4883" y2="383.2148"/><line style="stroke:#181818;stroke-width:0.5;stroke-dasharray:5.0,5.0;" x1="785" x2="785" y1="67.4883" y2="383.2148"/><rect fill="#E2E2F0" height="30.4883" rx="2.5" ry="2.5" style="stroke:#181818;stroke-width:0.5;" width="106" x="5" y="36"/><text fill="#000000" font-family="sans-serif" font-size="14" lengthAdjust="spacing" textLength="92" x="12" y="56.5352">Order Service</text><rect fill="#E2E2F0" height="30.4883" rx="2.5" ry="2.5" style="stroke:#181818;stroke-width:0.5;" width="106" x="5" y="382.2148"/><text fill="#000000" font-family="sans-serif" font-size="14" lengthAdjust="spacing" textLength="92" x="12" y="402.75">Order Service</text><rect fill="#E2E2F0" height="30.4883" rx="2.5" ry="2.5" style="stroke:#181818;stroke-width:0.5;" width="122" x="265" y="36"/><text fill="#000000" font-family="sans-serif" font-size="14" lengthAdjust="spacing" textLength="108" x="272" y="56.5352">Message Queue</text><rect fill="#E2E2F0" height="30.4883" rx="2.5" ry="2.5" style="stroke:#181818;stroke-width:0.5;" width="122" x="265" y="382.2148"/><text fill="#000000" font-family="sans-serif" font-size="14" lengthAdjust="spacing" textLength="108" x="272" y="402.75">Message Queue</text><rect fill="#E2E2F0" height="30.4883" rx="2.5" ry="2.5" style="stroke:#181818;stroke-width:0.5;" width="115" x="531.5" y="36"/><text fill="#000000" font-family="sans-serif" font-size="14" lengthAdjust="spacing" textLength="101" x="538.5" y="56.5352">Worker Service</text><rect fill="#E2E2F0" height="30.4883" rx="2.5" ry="2.5" style="stroke:#181818;stroke-width:0.5;" width="115" x="531.5" y="382.2148"/><text fill="#000000" font-family="sans-serif" font-size="14" lengthAdjust="spacing" textLength="101" x="538.5" y="402.75">Worker Service</text><text fill="#000000" font-family="sans-serif" font-size="14" lengthAdjust="spacing" textLength="114" x="725" y="64.5352">Orders Database</text><path d="M767,15 C767,5 785,5 785,5 C785,5 803,5 803,15 L803,41 C803,51 785,51 785,51 C785,51 767,51 767,41 L767,15 " fill="#E2E2F0" style="stroke:#181818;stroke-width:1.5;"/><path d="M767,15 C767,25 785,25 785,25 C785,25 803,25 803,15 " fill="none" style="stroke:#181818;stroke-width:1.5;"/><text fill="#000000" font-family="sans-serif" font-size="14" lengthAdjust="spacing" textLength="114" x="725" y="395.75">Orders Database</text><path d="M767,408.7031 C767,398.7031 785,398.7031 785,398.7031 C785,398.7031 803,398.7031 803,408.7031 L803,434.7031 C803,444.7031 785,444.7031 785,444.7031 C785,444.7031 767,444.7031 767,434.7031 L767,408.7031 " fill="#E2E2F0" style="stroke:#181818;stroke-width:1.5;"/><path d="M767,408.7031 C767,418.7031 785,418.7031 785,418.7031 C785,418.7031 803,418.7031 803,408.7031 " fill="none" style="stroke:#181818;stroke-width:1.5;"/><rect fill="#FFFFFF" height="29.3105" style="stroke:#181818;stroke-width:1.0;" width="10" x="321" y="98.7988"/><rect fill="#FFFFFF" height="207.7949" style="stroke:#181818;stroke-width:1.0;" width="10" x="584" y="157.4199"/><rect fill="#FFFFFF" height="29.3105" style="stroke:#181818;stroke-width:1.0;" width="10" x="780" y="217.3516"/><rect fill="#FFFFFF" height="29.3105" style="stroke:#181818;stroke-width:1.0;" width="10" x="780" y="306.5938"/><polygon fill="#181818" points="309,94.7988,319,98.7988,309,102.7988,313,98.7988" style="stroke:#181818;stroke-width:1.0;"/><line style="stroke:#181818;stroke-width:1.0;" x1="58" x2="315" y1="98.7988" y2="98.7988"/><text fill="#000000" font-family="sans-serif" font-size="13" lengthAdjust="spacing" textLength="244" x="65" y="94.0566">publish ProcessOrder(orderId, payload)</text><polygon fill="#181818" points="69,124.1094,59,128.1094,69,132.1094,65,128.1094" style="stroke:#181818;stroke-width:1.0;"/><line style="stroke:#181818;stroke-width:1.0;stroke-dasharray:2.0,2.0;" x1="63" x2="325" y1="128.1094" y2="128.1094"/><text fill="#000000" font-family="sans-serif" font-size="13" lengthAdjust="spacing" textLength="22" x="75" y="123.3672">ack</text><polygon fill="#181818" points="572,153.4199,582,157.4199,572,161.4199,576,157.4199" style="stroke:#181818;stroke-width:1.0;"/><line style="stroke:#181818;stroke-width:1.0;" x1="326" x2="578" y1="157.4199" y2="157.4199"/><text fill="#000000" font-family="sans-serif" font-size="13" lengthAdjust="spacing" textLength="239" x="333" y="152.6777">deliver ProcessOrder(orderId, payload)</text><polygon fill="#181818" points="768,213.3516,778,217.3516,768,221.3516,772,217.3516" style="stroke:#181818;stroke-width:1.0;"/><line style="stroke:#181818;stroke-width:1.0;" x1="594" x2="774" y1="217.3516" y2="217.3516"/><text fill="#000000" font-family="sans-serif" font-size="13" lengthAdjust="spacing" textLength="94" x="601" y="181.9883">UPDATE orders</text><text fill="#000000" font-family="sans-serif" font-size="13" lengthAdjust="spacing" textLength="167" x="601" y="197.2988">SET status = 'PROCESSING'</text><text fill="#000000" font-family="sans-serif" font-size="13" lengthAdjust="spacing" textLength="122" x="601" y="212.6094">WHERE id = orderId</text><polygon fill="#181818" points="605,242.6621,595,246.6621,605,250.6621,601,246.6621" style="stroke:#181818;stroke-width:1.0;"/><line style="stroke:#181818;stroke-width:1.0;stroke-dasharray:2.0,2.0;" x1="599" x2="784" y1="246.6621" y2="246.6621"/><text fill="#000000" font-family="sans-serif" font-size="13" lengthAdjust="spacing" textLength="18" x="611" y="241.9199">OK</text><polygon fill="#181818" points="768,302.5938,778,306.5938,768,310.5938,772,306.5938" style="stroke:#181818;stroke-width:1.0;"/><line style="stroke:#181818;stroke-width:1.0;" x1="594" x2="774" y1="306.5938" y2="306.5938"/><text fill="#000000" font-family="sans-serif" font-size="13" lengthAdjust="spacing" textLength="94" x="601" y="271.2305">UPDATE orders</text><text fill="#000000" font-family="sans-serif" font-size="13" lengthAdjust="spacing" textLength="165" x="601" y="286.541">SET status = 'COMPLETED'</text><text fill="#000000" font-family="sans-serif" font-size="13" lengthAdjust="spacing" textLength="122" x="601" y="301.8516">WHERE id = orderId</text><polygon fill="#181818" points="605,331.9043,595,335.9043,605,339.9043,601,335.9043" style="stroke:#181818;stroke-width:1.0;"/><line style="stroke:#181818;stroke-width:1.0;stroke-dasharray:2.0,2.0;" x1="599" x2="784" y1="335.9043" y2="335.9043"/><text fill="#000000" font-family="sans-serif" font-size="13" lengthAdjust="spacing" textLength="18" x="611" y="331.1621">OK</text><polygon fill="#181818" points="337,361.2148,327,365.2148,337,369.2148,333,365.2148" style="stroke:#181818;stroke-width:1.0;"/><line style="stroke:#181818;stroke-width:1.0;" x1="331" x2="588" y1="365.2148" y2="365.2148"/><text fill="#000000" font-family="sans-serif" font-size="13" lengthAdjust="spacing" textLength="81" x="343" y="360.4727">ack message</text><!--SRC=[hP91QiCm44NtEiMGJLgeBn1ee8b56rBNJkoIJJOJIpGYhYqasT3RTomBgdJLG3T2VBtvVpIIHkDKhJIs3cQv4T90ASsWQZa3jE2L830Tivcq5Zyax7hPJsoskoOEdRdyifia9j3X2QqCYHRI87WeNJ4MvqAo96zOWEvFZR9dA4nNKxfdxhfntOW7qFZLT2Zk6TPE3UZas13L9LH-PRS0h2zCo9Zpu3BqHuIGZHfezzUeS34M3CWgNP7DUv4-LHnyeJss9Q_0EdIzXKUO5_jypSjoy_OyFxQ75xxde0GTX9WVSne8kILnV_asli0uiLkIrtbMlFAAf_yRx1-9PWkVqz-8oOdw1W00]--></g></svg>