<?xml version="1.0" encoding="us-ascii" standalone="no"?><svg xmlns="http://www.w3.org/2000/svg" xmlns:xlink="http://www.w3.org/1999/xlink" contentStyleType="text/css" height="510px" preserveAspectRatio="none" style="width:757px;height:510px;background:#FFFFFF;" version="1.1" viewBox="0 0 757 510" width="757px" zoomAndPan="magnify"><defs/><g><rect fill="#FFFFFF" height="299.1055" style="stroke:#181818;stroke-width:1.0;" width="10" x="271.5" y="112.7988"/><rect fill="#FFFFFF" height="29.3105" style="stroke:#181818;stroke-width:1.0;" width="10" x="431.5" y="166.4199"/><rect fill="#FFFFFF" height="29.3105" style="stroke:#181818;stroke-width:1.0;" width="10" x="543" y="256.3516"/><rect fill="#FFFFFF" height="29.3105" style="stroke:#181818;stroke-width:1.0;" width="10" x="671" y="346.2832"/><rect fill="none" height="75.9316" style="stroke:#000000;stroke-width:1.5;" width="330" x="165" y="127.7988"/><rect fill="none" height="75.9316" style="stroke:#000000;stroke-width:1.5;" width="446" x="165" y="217.7305"/><rect fill="none" height="75.9316" style="stroke:#000000;stroke-width:1.5;" width="586" x="165" y="307.6621"/><line style="stroke:#181818;stroke-width:0.5;stroke-dasharray:5.0,5.0;" x1="39" x2="39" y1="81.4883" y2="429.9043"/><line style="stroke:#181818;stroke-width:0.5;stroke-dasharray:5.0,5.0;" x1="276" x2="276" y1="81.4883" y2="429.9043"/><line style="stroke:#181818;stroke-width:0.5;stroke-dasharray:5.0,5.0;" x1="436" x2="436" y1="81.4883" y2="429.9043"/><line style="stroke:#181818;stroke-width:0.5;stroke-dasharray:5.0,5.0;" x1="548" x2="548" y1="81.4883" y2="429.9043"/><line style="stroke:#181818;stroke-width:0.5;stroke-dasharray:5.0,5.0;" x1="676" x2="676" y1="81.4883" y2="429.9043"/><text fill="#000000" font-family="sans-serif" font-size="14" lengthAdjust="spacing" textLength="63" x="5" y="78.5352">Frontend</text><ellipse cx="39.5" cy="13.5" fill="#E2E2F0" rx="8" ry="8" style="stroke:#181818;stroke-width:0.5;"/><path d="M39.5,21.5 L39.5,48.5 M26.5,29.5 L52.5,29.5 M39.5,48.5 L26.5,63.5 M39.5,48.5 L52.5,63.5 " fill="none" style="stroke:#181818;stroke-width:0.5;"/><text fill="#000000" font-family="sans-serif" font-size="14" lengthAdjust="spacing" textLength="63" x="5" y="442.4395">Frontend</text><ellipse cx="39.5" cy="453.8926" fill="#E2E2F0" rx="8" ry="8" style="stroke:#181818;stroke-width:0.5;"/><path d="M39.5,461.8926 L39.5,488.8926 M26.5,469.8926 L52.5,469.8926 M39.5,488.8926 L26.5,503.8926 M39.5,488.8926 L52.5,503.8926 " fill="none" style="stroke:#181818;stroke-width:0.5;"/><rect fill="#E2E2F0" height="30.4883" rx="2.5" ry="2.5" style="stroke:#181818;stroke-width:0.5;" width="203" x="175" y="50"/><text fill="#000000" font-family="sans-serif" font-size="14" lengthAdjust="spacing" textLength="189" x="182" y="70.5352">Backend For Frontend (BFF)</text><rect fill="#E2E2F0" height="30.4883" rx="2.5" ry="2.5" style="stroke:#181818;stroke-width:0.5;" width="203" x="175" y="428.9043"/><text fill="#000000" font-family="sans-serif" font-size="14" lengthAdjust="spacing" textLength="189" x="182" y="449.4395">Backend For Frontend (BFF)</text><rect fill="#E2E2F0" height="30.4883" rx="2.5" ry="2.5" style="stroke:#181818;stroke-width:0.5;" width="97" x="388" y="50"/><text fill="#000000" font-family="sans-serif" font-size="14" lengthAdjust="spacing" textLength="83" x="395" y="70.5352">User Service</text><rect fill="#E2E2F0" height="30.4883" rx="2.5" ry="2.5" style="stroke:#181818;stroke-width:0.5;" width="97" x="388" y="428.9043"/><text fill="#000000" font-family="sans-serif" font-size="14" lengthAdjust="spacing" textLength="83" x="395" y="449.4395">User Service</text><rect fill="#E2E2F0" height="30.4883" rx="2.5" ry="2.5" style="stroke:#181818;stroke-width:0.5;" width="106" x="495" y="50"/><text fill="#000000" font-family="sans-serif" font-size="14" lengthAdjust="spacing" textLength="92" x="502" y="70.5352">Order Service</text><rect fill="#E2E2F0" height="30.4883" rx="2.5" ry="2.5" style="stroke:#181818;stroke-width:0.5;" width="106" x="495" y="428.9043"/><text fill="#000000" font-family="sans-serif" font-size="14" lengthAdjust="spacing" textLength="92" x="502" y="449.4395">Order Service</text><rect fill="#E2E2F0" height="30.4883" rx="2.5" ry="2.5" style="stroke:#181818;stroke-width:0.5;" width="130" x="611" y="50"/><text fill="#000000" font-family="sans-serif" font-size="14" lengthAdjust="spacing" textLength="116" x="618" y="70.5352">Inventory Service</text><rect fill="#E2E2F0" height="30.4883" rx="2.5" ry="2.5" style="stroke:#181818;stroke-width:0.5;" width="130" x="611" y="428.9043"/><text fill="#000000" font-family="sans-serif" font-size="14" lengthAdjust="spacing" textLength="116" x="618" y="449.4395">Inventory Service</text><rect fill="#FFFFFF" height="299.1055" style="stroke:#181818;stroke-width:1.0;" width="10" x="271.5" y="112.7988"/><rect fill="#FFFFFF" height="29.3105" style="stroke:#181818;stroke-width:1.0;" width="10" x="431.5" y="166.4199"/><rect fill="#FFFFFF" height="29.3105" style="stroke:#181818;stroke-width:1.0;" width="10" x="543" y="256.3516"/><rect fill="#FFFFFF" height="29.3105" style="stroke:#181818;stroke-width:1.0;" width="10" x="671" y="346.2832"/><polygon fill="#181818" points="259.5,108.7988,269.5,112.7988,259.5,116.7988,263.5,112.7988" style="stroke:#181818;stroke-width:1.0;"/><line style="stroke:#181818;stroke-width:1.0;" x1="39.5" x2="265.5" y1="112.7988" y2="112.7988"/><text fill="#000000" font-family="sans-serif" font-size="13" lengthAdjust="spacing" textLength="101" x="46.5" y="108.0566">GET /dashboard</text><path d="M165,127.7988 L233,127.7988 L233,135.1094 L223,145.1094 L165,145.1094 L165,127.7988 " fill="#EEEEEE" style="stroke:#000000;stroke-width:1.5;"/><rect fill="none" height="75.9316" style="stroke:#000000;stroke-width:1.5;" width="330" x="165" y="127.7988"/><text fill="#000000" font-family="sans-serif" font-size="13" font-weight="bold" lengthAdjust="spacing" textLength="23" x="180" y="141.3672">par</text><text fill="#000000" font-family="sans-serif" font-size="11" font-weight="bold" lengthAdjust="spacing" textLength="108" x="248" y="140.4336">[Fetch User Profile]</text><polygon fill="#181818" points="419.5,162.4199,429.5,166.4199,419.5,170.4199,423.5,166.4199" style="stroke:#181818;stroke-width:1.0;"/><line style="stroke:#181818;stroke-width:1.0;" x1="281.5" x2="425.5" y1="166.4199" y2="166.4199"/><text fill="#000000" font-family="sans-serif" font-size="13" lengthAdjust="spacing" textLength="123" x="288.5" y="161.6777">GET /users/{userId}</text><polygon fill="#181818" points="292.5,191.7305,282.5,195.7305,292.5,199.7305,288.5,195.7305" style="stroke:#181818;stroke-width:1.0;"/><line style="stroke:#181818;stroke-width:1.0;stroke-dasharray:2.0,2.0;" x1="286.5" x2="435.5" y1="195.7305" y2="195.7305"/><text fill="#000000" font-family="sans-serif" font-size="13" lengthAdjust="spacing" textLength="124" x="298.5" y="190.9883">200 OK { user data }</text><path d="M165,217.7305 L233,217.7305 L233,225.041 L223,235.041 L165,235.041 L165,217.7305 " fill="#EEEEEE" style="stroke:#000000;stroke-width:1.5;"/><rect fill="none" height="75.9316" style="stroke:#000000;stroke-width:1.5;" width="446" x="165" y="217.7305"/><text fill="#000000" font-family="sans-serif" font-size="13" font-weight="bold" lengthAdjust="spacing" textLength="23" x="180" y="231.2988">par</text><text fill="#000000" font-family="sans-serif" font-size="11" font-weight="bold" lengthAdjust="spacing" textLength="108" x="248" y="230.3652">[Fetch User Orders]</text><polygon fill="#181818" points="531,252.3516,541,256.3516,531,260.3516,535,256.3516" style="stroke:#181818;stroke-width:1.0;"/><line style="stroke:#181818;stroke-width:1.0;" x1="281.5" x2="537" y1="256.3516" y2="256.3516"/><text fill="#000000" font-family="sans-serif" font-size="13" lengthAdjust="spacing" textLength="176" x="288.5" y="251.6094">GET /orders?userId={userId}</text><polygon fill="#181818" points="292.5,281.6621,282.5,285.6621,292.5,289.6621,288.5,285.6621" style="stroke:#181818;stroke-width:1.0;"/><line style="stroke:#181818;stroke-width:1.0;stroke-dasharray:2.0,2.0;" x1="286.5" x2="547" y1="285.6621" y2="285.6621"/><text fill="#000000" font-family="sans-serif" font-size="13" lengthAdjust="spacing" textLength="130" x="298.5" y="280.9199">200 OK { orders list }</text><path d="M165,307.6621 L233,307.6621 L233,314.9727 L223,324.9727 L165,324.9727 L165,307.6621 " fill="#EEEEEE" style="stroke:#000000;stroke-width:1.5;"/><rect fill="none" height="75.9316" style="stroke:#000000;stroke-width:1.5;" width="586" x="165" y="307.6621"/><text fill="#000000" font-family="sans-serif" font-size="13" font-weight="bold" lengthAdjust="spacing" textLength="23" x="180" y="321.2305">par</text><text fill="#000000" font-family="sans-serif" font-size="11" font-weight="bold" lengthAdjust="spacing" textLength="131" x="248" y="320.2969">[Fetch Inventory Status]</text><polygon fill="#181818" points="659,342.2832,669,346.2832,659,350.2832,663,346.2832" style="stroke:#181818;stroke-width:1.0;"/><line style="stroke:#181818;stroke-width:1.0;" x1="281.5" x2="665" y1="346.2832" y2="346.2832"/><text fill="#000000" font-family="sans-serif" font-size="13" lengthAdjust="spacing" textLength="244" x="288.5" y="341.541">GET /inventory/status?productIds=[&#8230;]</text><polygon fill="#181818" points="292.5,371.5938,282.5,375.5938,292.5,379.5938,288.5,375.5938" style="stroke:#181818;stroke-width:1.0;"/><line style="stroke:#181818;stroke-width:1.0;stroke-dasharray:2.0,2.0;" x1="286.5" x2="675" y1="375.5938" y2="375.5938"/><text fill="#000000" font-family="sans-serif" font-size="13" lengthAdjust="spacing" textLength="154" x="298.5" y="370.8516">200 OK { inventory info }</text><polygon fill="#181818" points="50.5,407.9043,40.5,411.9043,50.5,415.9043,46.5,411.9043" style="stroke:#181818;stroke-width:1.0;"/><line style="stroke:#181818;stroke-width:1.0;stroke-dasharray:2.0,2.0;" x1="44.5" x2="275.5" y1="411.9043" y2="411.9043"/><text fill="#000000" font-family="sans-serif" font-size="13" lengthAdjust="spacing" textLength="208" x="56.5" y="407.1621">200 OK { user, orders, inventory }</text><!--SRC=[RPB1QiCm38RlUGhHKmSjAJiEkaAX6Q673hQTnWwQxLAp4WTR2OnIsDFimVOaivt6s4boYIt_-lr9CZ9I6WgjAX8LpshK99ciiIAORP5zsI0KaGBcswAucm4Qi8jK_sQ4XXUXMyc4LxZ0RPyg3veFf3uogIshLbGMyZlHXsYVamN2vQD3WmTushr2pj6SFXLgdY4ZsI893-xkW48GEtbAUDRgACyY0_kvR6iIqVTcZGsP_E9-9RzwSN2DYtK7SVeoCDslLd3OmmMS1t0aXCw7YqadDvGXg- -LYL7ZxlMiogis7UjwcZdfkZj9Z2QeErCuIqDZxiHj01vDaP2QX7uuoxu2sSTputCsjLQyOLHoitx_-_dzI8iPFGbtElAUA2hSOrT7DQvhPEnhy_3MBBoxmN0NjsOj8lzh5jbQWty0]--></g></svg>