<?xml version="1.0" encoding="us-ascii" standalone="no"?><svg xmlns="http://www.w3.org/2000/svg" xmlns:xlink="http://www.w3.org/1999/xlink" contentStyleType="text/css" height="772px" preserveAspectRatio="none" style="width:839px;height:772px;background:#FFFFFF;" version="1.1" viewBox="0 0 839 772" width="839px" zoomAndPan="magnify"><defs/><g><rect fill="#FFFFFF" height="568.2344" style="stroke:#181818;stroke-width:1.0;" width="10" x="281.5" y="112.7988"/><rect fill="#FFFFFF" height="87.9316" style="stroke:#181818;stroke-width:1.0;" width="10" x="511.5" y="166.4199"/><rect fill="#FFFFFF" height="87.9316" style="stroke:#181818;stroke-width:1.0;" width="10" x="511.5" y="419.9043"/><rect fill="#FFFFFF" height="29.3105" style="stroke:#181818;stroke-width:1.0;" width="10" x="752.5" y="195.7305"/><rect fill="#FFFFFF" height="29.3105" style="stroke:#181818;stroke-width:1.0;" width="10" x="752.5" y="449.2148"/><rect fill="none" height="239.4844" style="stroke:#000000;stroke-width:1.5;" width="619" x="213.5" y="127.7988"/><rect fill="none" height="90.9316" style="stroke:#000000;stroke-width:1.5;" width="360.5" x="223.5" y="269.3516"/><rect fill="none" height="292.75" style="stroke:#000000;stroke-width:1.5;" width="822.5" x="10" y="381.2832"/><line style="stroke:#181818;stroke-width:0.5;stroke-dasharray:5.0,5.0;" x1="38" x2="38" y1="81.4883" y2="691.0332"/><line style="stroke:#181818;stroke-width:0.5;stroke-dasharray:5.0,5.0;" x1="286.5" x2="286.5" y1="81.4883" y2="691.0332"/><line style="stroke:#181818;stroke-width:0.5;stroke-dasharray:5.0,5.0;" x1="516" x2="516" y1="81.4883" y2="691.0332"/><line style="stroke:#181818;stroke-width:0.5;stroke-dasharray:5.0,5.0;" x1="757.5" x2="757.5" y1="81.4883" y2="691.0332"/><text fill="#000000" font-family="sans-serif" font-size="14" lengthAdjust="spacing" textLength="31" x="20" y="78.5352">User</text><ellipse cx="38.5" cy="13.5" fill="#E2E2F0" rx="8" ry="8" style="stroke:#181818;stroke-width:0.5;"/><path d="M38.5,21.5 L38.5,48.5 M25.5,29.5 L51.5,29.5 M38.5,48.5 L25.5,63.5 M38.5,48.5 L51.5,63.5 " fill="none" style="stroke:#181818;stroke-width:0.5;"/><text fill="#000000" font-family="sans-serif" font-size="14" lengthAdjust="spacing" textLength="31" x="20" y="703.5684">User</text><ellipse cx="38.5" cy="715.0215" fill="#E2E2F0" rx="8" ry="8" style="stroke:#181818;stroke-width:0.5;"/><path d="M38.5,723.0215 L38.5,750.0215 M25.5,731.0215 L51.5,731.0215 M38.5,750.0215 L25.5,765.0215 M38.5,750.0215 L51.5,765.0215 " fill="none" style="stroke:#181818;stroke-width:0.5;"/><rect fill="#E2E2F0" height="30.4883" rx="2.5" ry="2.5" style="stroke:#181818;stroke-width:0.5;" width="106" x="233.5" y="50"/><text fill="#000000" font-family="sans-serif" font-size="14" lengthAdjust="spacing" textLength="92" x="240.5" y="70.5352">Order Service</text><rect fill="#E2E2F0" height="30.4883" rx="2.5" ry="2.5" style="stroke:#181818;stroke-width:0.5;" width="106" x="233.5" y="690.0332"/><text fill="#000000" font-family="sans-serif" font-size="14" lengthAdjust="spacing" textLength="92" x="240.5" y="710.5684">Order Service</text><rect fill="#E2E2F0" height="30.4883" rx="2.5" ry="2.5" style="stroke:#181818;stroke-width:0.5;" width="115" x="459" y="50"/><text fill="#000000" font-family="sans-serif" font-size="14" lengthAdjust="spacing" textLength="101" x="466" y="70.5352">Circuit Breaker</text><rect fill="#E2E2F0" height="30.4883" rx="2.5" ry="2.5" style="stroke:#181818;stroke-width:0.5;" width="115" x="459" y="690.0332"/><text fill="#000000" font-family="sans-serif" font-size="14" lengthAdjust="spacing" textLength="101" x="466" y="710.5684">Circuit Breaker</text><rect fill="#E2E2F0" height="30.4883" rx="2.5" ry="2.5" style="stroke:#181818;stroke-width:0.5;" width="130" x="692.5" y="50"/><text fill="#000000" font-family="sans-serif" font-size="14" lengthAdjust="spacing" textLength="116" x="699.5" y="70.5352">Inventory Service</text><rect fill="#E2E2F0" height="30.4883" rx="2.5" ry="2.5" style="stroke:#181818;stroke-width:0.5;" width="130" x="692.5" y="690.0332"/><text fill="#000000" font-family="sans-serif" font-size="14" lengthAdjust="spacing" textLength="116" x="699.5" y="710.5684">Inventory Service</text><rect fill="#FFFFFF" height="568.2344" style="stroke:#181818;stroke-width:1.0;" width="10" x="281.5" y="112.7988"/><rect fill="#FFFFFF" height="87.9316" style="stroke:#181818;stroke-width:1.0;" width="10" x="511.5" y="166.4199"/><rect fill="#FFFFFF" height="87.9316" style="stroke:#181818;stroke-width:1.0;" width="10" x="511.5" y="419.9043"/><rect fill="#FFFFFF" height="29.3105" style="stroke:#181818;stroke-width:1.0;" width="10" x="752.5" y="195.7305"/><rect fill="#FFFFFF" height="29.3105" style="stroke:#181818;stroke-width:1.0;" width="10" x="752.5" y="449.2148"/><polygon fill="#181818" points="269.5,108.7988,279.5,112.7988,269.5,116.7988,273.5,112.7988" style="stroke:#181818;stroke-width:1.0;"/><line style="stroke:#181818;stroke-width:1.0;" x1="38.5" x2="275.5" y1="112.7988" y2="112.7988"/><text fill="#000000" font-family="sans-serif" font-size="13" lengthAdjust="spacing" textLength="224" x="45.5" y="108.0566">POST /orders { productId, quantity }</text><path d="M213.5,127.7988 L287.5,127.7988 L287.5,135.1094 L277.5,145.1094 L213.5,145.1094 L213.5,127.7988 " fill="#EEEEEE" style="stroke:#000000;stroke-width:1.5;"/><rect fill="none" height="239.4844" style="stroke:#000000;stroke-width:1.5;" width="619" x="213.5" y="127.7988"/><text fill="#000000" font-family="sans-serif" font-size="13" font-weight="bold" lengthAdjust="spacing" textLength="29" x="228.5" y="141.3672">loop</text><text fill="#000000" font-family="sans-serif" font-size="11" font-weight="bold" lengthAdjust="spacing" textLength="116" x="302.5" y="140.4336">[Retry up to 2 times]</text><polygon fill="#181818" points="499.5,162.4199,509.5,166.4199,499.5,170.4199,503.5,166.4199" style="stroke:#181818;stroke-width:1.0;"/><line style="stroke:#181818;stroke-width:1.0;" x1="291.5" x2="505.5" y1="166.4199" y2="166.4199"/><text fill="#000000" font-family="sans-serif" font-size="13" lengthAdjust="spacing" textLength="201" x="298.5" y="161.6777">checkStock(productId, quantity)</text><polygon fill="#181818" points="740.5,191.7305,750.5,195.7305,740.5,199.7305,744.5,195.7305" style="stroke:#181818;stroke-width:1.0;"/><line style="stroke:#181818;stroke-width:1.0;" x1="521.5" x2="746.5" y1="195.7305" y2="195.7305"/><text fill="#000000" font-family="sans-serif" font-size="13" lengthAdjust="spacing" textLength="212" x="528.5" y="190.9883">GET /inventory/{productId}/stock</text><polygon fill="#181818" points="532.5,221.041,522.5,225.041,532.5,229.041,528.5,225.041" style="stroke:#181818;stroke-width:1.0;"/><line style="stroke:#181818;stroke-width:1.0;stroke-dasharray:2.0,2.0;" x1="526.5" x2="756.5" y1="225.041" y2="225.041"/><text fill="#000000" font-family="sans-serif" font-size="13" lengthAdjust="spacing" textLength="110" x="538.5" y="220.2988">500 Internal Error</text><polygon fill="#181818" points="302.5,250.3516,292.5,254.3516,302.5,258.3516,298.5,254.3516" style="stroke:#181818;stroke-width:1.0;"/><line style="stroke:#181818;stroke-width:1.0;stroke-dasharray:2.0,2.0;" x1="296.5" x2="515.5" y1="254.3516" y2="254.3516"/><text fill="#000000" font-family="sans-serif" font-size="13" lengthAdjust="spacing" textLength="30" x="308.5" y="249.6094">Error</text><path d="M223.5,269.3516 L285.5,269.3516 L285.5,276.6621 L275.5,286.6621 L223.5,286.6621 L223.5,269.3516 " fill="#EEEEEE" style="stroke:#000000;stroke-width:1.5;"/><rect fill="none" height="90.9316" style="stroke:#000000;stroke-width:1.5;" width="360.5" x="223.5" y="269.3516"/><text fill="#000000" font-family="sans-serif" font-size="13" font-weight="bold" lengthAdjust="spacing" textLength="17" x="238.5" y="282.9199">alt</text><text fill="#000000" font-family="sans-serif" font-size="11" font-weight="bold" lengthAdjust="spacing" textLength="162" x="300.5" y="281.9863">[attempts &amp;lt; MAX_RETRIES]</text><line style="stroke:#181818;stroke-width:1.0;" x1="291.5" x2="333.5" y1="307.9727" y2="307.9727"/><line style="stroke:#181818;stroke-width:1.0;" x1="333.5" x2="333.5" y1="307.9727" y2="320.9727"/><line style="stroke:#181818;stroke-width:1.0;" x1="292.5" x2="333.5" y1="320.9727" y2="320.9727"/><polygon fill="#181818" points="302.5,316.9727,292.5,320.9727,302.5,324.9727,298.5,320.9727" style="stroke:#181818;stroke-width:1.0;"/><text fill="#000000" font-family="sans-serif" font-size="13" lengthAdjust="spacing" textLength="78" x="298.5" y="303.2305">wait backoff</text><line style="stroke:#000000;stroke-width:1.0;stroke-dasharray:2.0,2.0;" x1="223.5" x2="584" y1="329.9727" y2="329.9727"/><polygon fill="#181818" points="504.5,348.2832,514.5,352.2832,504.5,356.2832,508.5,352.2832" style="stroke:#181818;stroke-width:1.0;"/><line style="stroke:#181818;stroke-width:1.0;" x1="291.5" x2="510.5" y1="352.2832" y2="352.2832"/><text fill="#000000" font-family="sans-serif" font-size="13" lengthAdjust="spacing" textLength="81" x="298.5" y="347.541">openCircuit()</text><path d="M10,381.2832 L72,381.2832 L72,388.5938 L62,398.5938 L10,398.5938 L10,381.2832 " fill="#EEEEEE" style="stroke:#000000;stroke-width:1.5;"/><rect fill="none" height="292.75" style="stroke:#000000;stroke-width:1.5;" width="822.5" x="10" y="381.2832"/><text fill="#000000" font-family="sans-serif" font-size="13" font-weight="bold" lengthAdjust="spacing" textLength="17" x="25" y="394.8516">alt</text><text fill="#000000" font-family="sans-serif" font-size="11" font-weight="bold" lengthAdjust="spacing" textLength="202" x="87" y="393.918">[Circuit Closed and Stock Available]</text><polygon fill="#181818" points="499.5,415.9043,509.5,419.9043,499.5,423.9043,503.5,419.9043" style="stroke:#181818;stroke-width:1.0;"/><line style="stroke:#181818;stroke-width:1.0;" x1="291.5" x2="505.5" y1="419.9043" y2="419.9043"/><text fill="#000000" font-family="sans-serif" font-size="13" lengthAdjust="spacing" textLength="201" x="298.5" y="415.1621">checkStock(productId, quantity)</text><polygon fill="#181818" points="740.5,445.2148,750.5,449.2148,740.5,453.2148,744.5,449.2148" style="stroke:#181818;stroke-width:1.0;"/><line style="stroke:#181818;stroke-width:1.0;" x1="521.5" x2="746.5" y1="449.2148" y2="449.2148"/><text fill="#000000" font-family="sans-serif" font-size="13" lengthAdjust="spacing" textLength="212" x="528.5" y="444.4727">GET /inventory/{productId}/stock</text><polygon fill="#181818" points="532.5,474.5254,522.5,478.5254,532.5,482.5254,528.5,478.5254" style="stroke:#181818;stroke-width:1.0;"/><line style="stroke:#181818;stroke-width:1.0;stroke-dasharray:2.0,2.0;" x1="526.5" x2="756.5" y1="478.5254" y2="478.5254"/><text fill="#000000" font-family="sans-serif" font-size="13" lengthAdjust="spacing" textLength="171" x="538.5" y="473.7832">{ available: true, stock: 10 }</text><polygon fill="#181818" points="302.5,503.8359,292.5,507.8359,302.5,511.8359,298.5,507.8359" style="stroke:#181818;stroke-width:1.0;"/><line style="stroke:#181818;stroke-width:1.0;stroke-dasharray:2.0,2.0;" x1="296.5" x2="515.5" y1="507.8359" y2="507.8359"/><text fill="#000000" font-family="sans-serif" font-size="13" lengthAdjust="spacing" textLength="60" x="308.5" y="503.0938">StockInfo</text><line style="stroke:#181818;stroke-width:1.0;" x1="291.5" x2="333.5" y1="537.1465" y2="537.1465"/><line style="stroke:#181818;stroke-width:1.0;" x1="333.5" x2="333.5" y1="537.1465" y2="550.1465"/><line style="stroke:#181818;stroke-width:1.0;" x1="292.5" x2="333.5" y1="550.1465" y2="550.1465"/><polygon fill="#181818" points="302.5,546.1465,292.5,550.1465,302.5,554.1465,298.5,550.1465" style="stroke:#181818;stroke-width:1.0;"/><text fill="#000000" font-family="sans-serif" font-size="13" lengthAdjust="spacing" textLength="81" x="298.5" y="532.4043">createOrder()</text><polygon fill="#181818" points="49.5,575.457,39.5,579.457,49.5,583.457,45.5,579.457" style="stroke:#181818;stroke-width:1.0;"/><line style="stroke:#181818;stroke-width:1.0;stroke-dasharray:2.0,2.0;" x1="43.5" x2="280.5" y1="579.457" y2="579.457"/><text fill="#000000" font-family="sans-serif" font-size="13" lengthAdjust="spacing" textLength="141" x="55.5" y="574.7148">201 Created { orderId }</text><line style="stroke:#000000;stroke-width:1.0;stroke-dasharray:2.0,2.0;" x1="10" x2="832.5" y1="588.457" y2="588.457"/><text fill="#000000" font-family="sans-serif" font-size="11" font-weight="bold" lengthAdjust="spacing" textLength="196" x="15" y="599.0918">[Circuit Open or Persistent Failure]</text><line style="stroke:#181818;stroke-width:1.0;" x1="291.5" x2="333.5" y1="623.7227" y2="623.7227"/><line style="stroke:#181818;stroke-width:1.0;" x1="333.5" x2="333.5" y1="623.7227" y2="636.7227"/><line style="stroke:#181818;stroke-width:1.0;" x1="292.5" x2="333.5" y1="636.7227" y2="636.7227"/><polygon fill="#181818" points="302.5,632.7227,292.5,636.7227,302.5,640.7227,298.5,636.7227" style="stroke:#181818;stroke-width:1.0;"/><text fill="#000000" font-family="sans-serif" font-size="13" lengthAdjust="spacing" textLength="58" x="298.5" y="618.9805">fallback()</text><polygon fill="#181818" points="49.5,662.0332,39.5,666.0332,49.5,670.0332,45.5,666.0332" style="stroke:#181818;stroke-width:1.0;"/><line style="stroke:#181818;stroke-width:1.0;stroke-dasharray:2.0,2.0;" x1="43.5" x2="280.5" y1="666.0332" y2="666.0332"/><text fill="#000000" font-family="sans-serif" font-size="13" lengthAdjust="spacing" textLength="148" x="55.5" y="661.291">503 Service Unavailable</text><!--SRC=[rLJ1Qjj04BthAnuvb1GIhAJaua8X5cxHeJZO2VHMDginNRpHggkHIZ3vzywkBU5DOr9oYq07pSvxysRUh9Hcvt7NaiyQvTbeqwYQSRBm5NcioFT6qmbKYnZP1zBSmdZT6SRCazgGZzd5BCqfwvvgAVMOS8xHLQ-pBAZ0-PUa4gQuMQnkCN4Xs6ABnhkgqrnMP_ZT2RVXHpnbIhFf5LCgCxFEDLWIIzsk0JjSWiq3jHdaIUf8tM8crVGlqfiLExqvVQ7InmWSYqcNuLk00ZziHeY-pKMr6MAJxSZsD6a3FP1o9RC89mdV-Q3lAi_bXCdNocBklRYt8wheE5KG-EzW8_evLbhQwR8CnKmF3RVuOFaplb__-BcStoxB-Ifcl3J2PnN-A5cBUwKtRhsE6B8j7GN7_bn3zNwXJdVJfhhAmfi5ISEk5TQrL47L5Q9PkEwLiUhUqlkrTWirD345-uxE4EcckCXbnTzcSkothDVkcD6lMAZbKZF5uDwF5228U6-dkCmlKCJiIbg9zxMiH7VmVFHj8VRA6MxaCfkMfGDybPuxJ_yZPgsi3UlqYfAh_DFmcy5TFGvrjqK78pZ4_mK0]--></g></svg>