<?xml version="1.0" encoding="us-ascii" standalone="no"?><svg xmlns="http://www.w3.org/2000/svg" xmlns:xlink="http://www.w3.org/1999/xlink" contentStyleType="text/css" height="682px" preserveAspectRatio="none" style="width:862px;height:682px;background:#FFFFFF;" version="1.1" viewBox="0 0 862 682" width="862px" zoomAndPan="magnify"><defs/><g><rect fill="#FFFFFF" height="454.9688" style="stroke:#181818;stroke-width:1.0;" width="10" x="153.5" y="128.1094"/><rect fill="#FFFFFF" height="29.3105" style="stroke:#181818;stroke-width:1.0;" width="10" x="404.5" y="216.041"/><rect fill="#FFFFFF" height="29.3105" style="stroke:#181818;stroke-width:1.0;" width="10" x="541.5" y="333.2832"/><rect fill="#FFFFFF" height="29.3105" style="stroke:#181818;stroke-width:1.0;" width="10" x="677" y="450.5254"/><rect fill="#FFFFFF" height="29.3105" style="stroke:#181818;stroke-width:1.0;" width="10" x="801" y="157.4199"/><rect fill="#FFFFFF" height="29.3105" style="stroke:#181818;stroke-width:1.0;" width="10" x="801" y="274.6621"/><rect fill="#FFFFFF" height="29.3105" style="stroke:#181818;stroke-width:1.0;" width="10" x="801" y="391.9043"/><rect fill="#FFFFFF" height="29.3105" style="stroke:#181818;stroke-width:1.0;" width="10" x="801" y="509.1465"/><line style="stroke:#181818;stroke-width:0.5;stroke-dasharray:5.0,5.0;" x1="39" x2="39" y1="81.4883" y2="601.0781"/><line style="stroke:#181818;stroke-width:0.5;stroke-dasharray:5.0,5.0;" x1="158.5" x2="158.5" y1="81.4883" y2="601.0781"/><line style="stroke:#181818;stroke-width:0.5;stroke-dasharray:5.0,5.0;" x1="409.5" x2="409.5" y1="81.4883" y2="601.0781"/><line style="stroke:#181818;stroke-width:0.5;stroke-dasharray:5.0,5.0;" x1="546.5" x2="546.5" y1="81.4883" y2="601.0781"/><line style="stroke:#181818;stroke-width:0.5;stroke-dasharray:5.0,5.0;" x1="681.5" x2="681.5" y1="81.4883" y2="601.0781"/><line style="stroke:#181818;stroke-width:0.5;stroke-dasharray:5.0,5.0;" x1="805.5" x2="805.5" y1="81.4883" y2="601.0781"/><text fill="#000000" font-family="sans-serif" font-size="14" lengthAdjust="spacing" textLength="63" x="5" y="78.5352">Frontend</text><ellipse cx="39.5" cy="13.5" fill="#E2E2F0" rx="8" ry="8" style="stroke:#181818;stroke-width:0.5;"/><path d="M39.5,21.5 L39.5,48.5 M26.5,29.5 L52.5,29.5 M39.5,48.5 L26.5,63.5 M39.5,48.5 L52.5,63.5 " fill="none" style="stroke:#181818;stroke-width:0.5;"/><text fill="#000000" font-family="sans-serif" font-size="14" lengthAdjust="spacing" textLength="63" x="5" y="613.6133">Frontend</text><ellipse cx="39.5" cy="625.0664" fill="#E2E2F0" rx="8" ry="8" style="stroke:#181818;stroke-width:0.5;"/><path d="M39.5,633.0664 L39.5,660.0664 M26.5,641.0664 L52.5,641.0664 M39.5,660.0664 L26.5,675.0664 M39.5,660.0664 L52.5,675.0664 " fill="none" style="stroke:#181818;stroke-width:0.5;"/><rect fill="#E2E2F0" height="30.4883" rx="2.5" ry="2.5" style="stroke:#181818;stroke-width:0.5;" width="106" x="105.5" y="50"/><text fill="#000000" font-family="sans-serif" font-size="14" lengthAdjust="spacing" textLength="92" x="112.5" y="70.5352">Order Service</text><rect fill="#E2E2F0" height="30.4883" rx="2.5" ry="2.5" style="stroke:#181818;stroke-width:0.5;" width="106" x="105.5" y="600.0781"/><text fill="#000000" font-family="sans-serif" font-size="14" lengthAdjust="spacing" textLength="92" x="112.5" y="620.6133">Order Service</text><rect fill="#E2E2F0" height="30.4883" rx="2.5" ry="2.5" style="stroke:#181818;stroke-width:0.5;" width="130" x="344.5" y="50"/><text fill="#000000" font-family="sans-serif" font-size="14" lengthAdjust="spacing" textLength="116" x="351.5" y="70.5352">Inventory Service</text><rect fill="#E2E2F0" height="30.4883" rx="2.5" ry="2.5" style="stroke:#181818;stroke-width:0.5;" width="130" x="344.5" y="600.0781"/><text fill="#000000" font-family="sans-serif" font-size="14" lengthAdjust="spacing" textLength="116" x="351.5" y="620.6133">Inventory Service</text><rect fill="#E2E2F0" height="30.4883" rx="2.5" ry="2.5" style="stroke:#181818;stroke-width:0.5;" width="124" x="484.5" y="50"/><text fill="#000000" font-family="sans-serif" font-size="14" lengthAdjust="spacing" textLength="110" x="491.5" y="70.5352">Payment Service</text><rect fill="#E2E2F0" height="30.4883" rx="2.5" ry="2.5" style="stroke:#181818;stroke-width:0.5;" width="124" x="484.5" y="600.0781"/><text fill="#000000" font-family="sans-serif" font-size="14" lengthAdjust="spacing" textLength="110" x="491.5" y="620.6133">Payment Service</text><rect fill="#E2E2F0" height="30.4883" rx="2.5" ry="2.5" style="stroke:#181818;stroke-width:0.5;" width="127" x="618.5" y="50"/><text fill="#000000" font-family="sans-serif" font-size="14" lengthAdjust="spacing" textLength="113" x="625.5" y="70.5352">Shipping Service</text><rect fill="#E2E2F0" height="30.4883" rx="2.5" ry="2.5" style="stroke:#181818;stroke-width:0.5;" width="127" x="618.5" y="600.0781"/><text fill="#000000" font-family="sans-serif" font-size="14" lengthAdjust="spacing" textLength="113" x="625.5" y="620.6133">Shipping Service</text><rect fill="#E2E2F0" height="30.4883" rx="2.5" ry="2.5" style="stroke:#181818;stroke-width:0.5;" width="101" x="755.5" y="50"/><text fill="#000000" font-family="sans-serif" font-size="14" lengthAdjust="spacing" textLength="87" x="762.5" y="70.5352">Kafka Broker</text><rect fill="#E2E2F0" height="30.4883" rx="2.5" ry="2.5" style="stroke:#181818;stroke-width:0.5;" width="101" x="755.5" y="600.0781"/><text fill="#000000" font-family="sans-serif" font-size="14" lengthAdjust="spacing" textLength="87" x="762.5" y="620.6133">Kafka Broker</text><rect fill="#FFFFFF" height="454.9688" style="stroke:#181818;stroke-width:1.0;" width="10" x="153.5" y="128.1094"/><rect fill="#FFFFFF" height="29.3105" style="stroke:#181818;stroke-width:1.0;" width="10" x="404.5" y="216.041"/><rect fill="#FFFFFF" height="29.3105" style="stroke:#181818;stroke-width:1.0;" width="10" x="541.5" y="333.2832"/><rect fill="#FFFFFF" height="29.3105" style="stroke:#181818;stroke-width:1.0;" width="10" x="677" y="450.5254"/><rect fill="#FFFFFF" height="29.3105" style="stroke:#181818;stroke-width:1.0;" width="10" x="801" y="157.4199"/><rect fill="#FFFFFF" height="29.3105" style="stroke:#181818;stroke-width:1.0;" width="10" x="801" y="274.6621"/><rect fill="#FFFFFF" height="29.3105" style="stroke:#181818;stroke-width:1.0;" width="10" x="801" y="391.9043"/><rect fill="#FFFFFF" height="29.3105" style="stroke:#181818;stroke-width:1.0;" width="10" x="801" y="509.1465"/><polygon fill="#181818" points="141.5,124.1094,151.5,128.1094,141.5,132.1094,145.5,128.1094" style="stroke:#181818;stroke-width:1.0;"/><line style="stroke:#181818;stroke-width:1.0;" x1="39.5" x2="147.5" y1="128.1094" y2="128.1094"/><text fill="#000000" font-family="sans-serif" font-size="13" lengthAdjust="spacing" textLength="83" x="46.5" y="108.0566">POST /orders</text><text fill="#000000" font-family="sans-serif" font-size="13" lengthAdjust="spacing" textLength="95" x="46.5" y="123.3672">{ order details }</text><polygon fill="#181818" points="789,153.4199,799,157.4199,789,161.4199,793,157.4199" style="stroke:#181818;stroke-width:1.0;"/><line style="stroke:#181818;stroke-width:1.0;" x1="163.5" x2="795" y1="157.4199" y2="157.4199"/><text fill="#000000" font-family="sans-serif" font-size="13" lengthAdjust="spacing" textLength="277" x="170.5" y="152.6777">publish OrderCreated(orderId, userId, items)</text><polygon fill="#181818" points="174.5,182.7305,164.5,186.7305,174.5,190.7305,170.5,186.7305" style="stroke:#181818;stroke-width:1.0;"/><line style="stroke:#181818;stroke-width:1.0;stroke-dasharray:2.0,2.0;" x1="168.5" x2="805" y1="186.7305" y2="186.7305"/><text fill="#000000" font-family="sans-serif" font-size="13" lengthAdjust="spacing" textLength="26" x="180.5" y="181.9883">ACK</text><polygon fill="#181818" points="392.5,212.041,402.5,216.041,392.5,220.041,396.5,216.041" style="stroke:#181818;stroke-width:1.0;"/><line style="stroke:#181818;stroke-width:1.0;" x1="163.5" x2="398.5" y1="216.041" y2="216.041"/><text fill="#000000" font-family="sans-serif" font-size="13" lengthAdjust="spacing" textLength="222" x="170.5" y="211.2988">checkStock(orderId, productId, qty)</text><polygon fill="#181818" points="174.5,241.3516,164.5,245.3516,174.5,249.3516,170.5,245.3516" style="stroke:#181818;stroke-width:1.0;"/><line style="stroke:#181818;stroke-width:1.0;stroke-dasharray:2.0,2.0;" x1="168.5" x2="408.5" y1="245.3516" y2="245.3516"/><text fill="#000000" font-family="sans-serif" font-size="13" lengthAdjust="spacing" textLength="104" x="180.5" y="240.6094">{ available: true }</text><polygon fill="#181818" points="789,270.6621,799,274.6621,789,278.6621,793,274.6621" style="stroke:#181818;stroke-width:1.0;"/><line style="stroke:#181818;stroke-width:1.0;" x1="163.5" x2="795" y1="274.6621" y2="274.6621"/><text fill="#000000" font-family="sans-serif" font-size="13" lengthAdjust="spacing" textLength="280" x="170.5" y="269.9199">publish InventoryChecked(orderId, available)</text><polygon fill="#181818" points="174.5,299.9727,164.5,303.9727,174.5,307.9727,170.5,303.9727" style="stroke:#181818;stroke-width:1.0;"/><line style="stroke:#181818;stroke-width:1.0;stroke-dasharray:2.0,2.0;" x1="168.5" x2="805" y1="303.9727" y2="303.9727"/><text fill="#000000" font-family="sans-serif" font-size="13" lengthAdjust="spacing" textLength="26" x="180.5" y="299.2305">ACK</text><polygon fill="#181818" points="529.5,329.2832,539.5,333.2832,529.5,337.2832,533.5,333.2832" style="stroke:#181818;stroke-width:1.0;"/><line style="stroke:#181818;stroke-width:1.0;" x1="163.5" x2="535.5" y1="333.2832" y2="333.2832"/><text fill="#000000" font-family="sans-serif" font-size="13" lengthAdjust="spacing" textLength="242" x="170.5" y="328.541">processPayment(orderId, paymentInfo)</text><polygon fill="#181818" points="174.5,358.5938,164.5,362.5938,174.5,366.5938,170.5,362.5938" style="stroke:#181818;stroke-width:1.0;"/><line style="stroke:#181818;stroke-width:1.0;stroke-dasharray:2.0,2.0;" x1="168.5" x2="545.5" y1="362.5938" y2="362.5938"/><text fill="#000000" font-family="sans-serif" font-size="13" lengthAdjust="spacing" textLength="187" x="180.5" y="357.8516">{ status: success, paymentId }</text><polygon fill="#181818" points="789,387.9043,799,391.9043,789,395.9043,793,391.9043" style="stroke:#181818;stroke-width:1.0;"/><line style="stroke:#181818;stroke-width:1.0;" x1="163.5" x2="795" y1="391.9043" y2="391.9043"/><text fill="#000000" font-family="sans-serif" font-size="13" lengthAdjust="spacing" textLength="294" x="170.5" y="387.1621">publish PaymentProcessed(orderId, paymentId)</text><polygon fill="#181818" points="174.5,417.2148,164.5,421.2148,174.5,425.2148,170.5,421.2148" style="stroke:#181818;stroke-width:1.0;"/><line style="stroke:#181818;stroke-width:1.0;stroke-dasharray:2.0,2.0;" x1="168.5" x2="805" y1="421.2148" y2="421.2148"/><text fill="#000000" font-family="sans-serif" font-size="13" lengthAdjust="spacing" textLength="26" x="180.5" y="416.4727">ACK</text><polygon fill="#181818" points="665,446.5254,675,450.5254,665,454.5254,669,450.5254" style="stroke:#181818;stroke-width:1.0;"/><line style="stroke:#181818;stroke-width:1.0;" x1="163.5" x2="671" y1="450.5254" y2="450.5254"/><text fill="#000000" font-family="sans-serif" font-size="13" lengthAdjust="spacing" textLength="221" x="170.5" y="445.7832">scheduleShipping(orderId, address)</text><polygon fill="#181818" points="174.5,475.8359,164.5,479.8359,174.5,483.8359,170.5,479.8359" style="stroke:#181818;stroke-width:1.0;"/><line style="stroke:#181818;stroke-width:1.0;stroke-dasharray:2.0,2.0;" x1="168.5" x2="681" y1="479.8359" y2="479.8359"/><text fill="#000000" font-family="sans-serif" font-size="13" lengthAdjust="spacing" textLength="206" x="180.5" y="475.0938">{ status: scheduled, shipmentId }</text><polygon fill="#181818" points="789,505.1465,799,509.1465,789,513.1465,793,509.1465" style="stroke:#181818;stroke-width:1.0;"/><line style="stroke:#181818;stroke-width:1.0;" x1="163.5" x2="795" y1="509.1465" y2="509.1465"/><text fill="#000000" font-family="sans-serif" font-size="13" lengthAdjust="spacing" textLength="268" x="170.5" y="504.4043">publish OrderShipped(orderId, shipmentId)</text><polygon fill="#181818" points="174.5,534.457,164.5,538.457,174.5,542.457,170.5,538.457" style="stroke:#181818;stroke-width:1.0;"/><line style="stroke:#181818;stroke-width:1.0;stroke-dasharray:2.0,2.0;" x1="168.5" x2="805" y1="538.457" y2="538.457"/><text fill="#000000" font-family="sans-serif" font-size="13" lengthAdjust="spacing" textLength="26" x="180.5" y="533.7148">ACK</text><polygon fill="#181818" points="50.5,579.0781,40.5,583.0781,50.5,587.0781,46.5,583.0781" style="stroke:#181818;stroke-width:1.0;"/><line style="stroke:#181818;stroke-width:1.0;stroke-dasharray:2.0,2.0;" x1="44.5" x2="157.5" y1="583.0781" y2="583.0781"/><text fill="#000000" font-family="sans-serif" font-size="13" lengthAdjust="spacing" textLength="76" x="56.5" y="563.0254">201 Created</text><text fill="#000000" font-family="sans-serif" font-size="13" lengthAdjust="spacing" textLength="61" x="56.5" y="578.3359">{ orderId }</text><!--SRC=[hPGxQyCm58Lt_ufBfnOQ-XWz5Df08MH8m1sxAD9D8-n8hYGRGkX_x_LRbatJ8LbYTFMTUtJqODnf0-z6AuTAH3apJdAPC-NWPcC46aZGb9BZ3NG_Pg6kj8Knir8bAf8yZJbY-ieijsMd8vN3RiIrbLagESWyb-ehm8ZgAhFOckrJ1cz6fsY6TLLONOcYBWzOl8pM2Z5iDya7FEXgq7wgCzHV8D0ncLduYHXticGEnnb58nLIRIp4a1UxJDf3Ctjfa4XnMskkn3qKjlcN3e_sRj1kR3OQYwd7r-Kw4XZCdbW8DuH0Va2U9axpTF2G6oqAxghFRtVoJ4msT28uO-qChAIas2x369mfa2Bph4uqBmRN4ylAknzUt-ZQmOrFPEN5Q8xMjkDUTCt0Iksrvo4uq87QR6RMCLVO66p1gqQ3iXZ75qXV3A-Tlsty- -7r3QuTNd0nYRDqwaIHOLVnTb08Gxuy2-6r3jN-JgzjHCgMkBa0G_t_tTkQyjCRvAyR7r7zqnJ3y-CJj4z6_nA52_BvNm00]--></g></svg>