<?xml version="1.0" encoding="us-ascii" standalone="no"?><svg xmlns="http://www.w3.org/2000/svg" xmlns:xlink="http://www.w3.org/1999/xlink" contentStyleType="text/css" height="710px" preserveAspectRatio="none" style="width:993px;height:710px;background:#FFFFFF;" version="1.1" viewBox="0 0 993 710" width="993px" zoomAndPan="magnify"><defs/><g><rect fill="#FFFFFF" height="498.2793" style="stroke:#181818;stroke-width:1.0;" width="10" x="240.5" y="112.7988"/><rect fill="#FFFFFF" height="87.9316" style="stroke:#181818;stroke-width:1.0;" width="10" x="438.5" y="171.4199"/><rect fill="#FFFFFF" height="87.9316" style="stroke:#181818;stroke-width:1.0;" width="10" x="575.5" y="317.9727"/><rect fill="#FFFFFF" height="87.9316" style="stroke:#181818;stroke-width:1.0;" width="10" x="711" y="464.5254"/><line style="stroke:#181818;stroke-width:0.5;stroke-dasharray:5.0,5.0;" x1="39" x2="39" y1="81.4883" y2="629.0781"/><line style="stroke:#181818;stroke-width:0.5;stroke-dasharray:5.0,5.0;" x1="245.5" x2="245.5" y1="81.4883" y2="629.0781"/><line style="stroke:#181818;stroke-width:0.5;stroke-dasharray:5.0,5.0;" x1="443.5" x2="443.5" y1="81.4883" y2="629.0781"/><line style="stroke:#181818;stroke-width:0.5;stroke-dasharray:5.0,5.0;" x1="580.5" x2="580.5" y1="81.4883" y2="629.0781"/><line style="stroke:#181818;stroke-width:0.5;stroke-dasharray:5.0,5.0;" x1="715.5" x2="715.5" y1="81.4883" y2="629.0781"/><line style="stroke:#181818;stroke-width:0.5;stroke-dasharray:5.0,5.0;" x1="916" x2="916" y1="81.4883" y2="629.0781"/><text fill="#000000" font-family="sans-serif" font-size="14" lengthAdjust="spacing" textLength="63" x="5" y="78.5352">Frontend</text><ellipse cx="39.5" cy="13.5" fill="#E2E2F0" rx="8" ry="8" style="stroke:#181818;stroke-width:0.5;"/><path d="M39.5,21.5 L39.5,48.5 M26.5,29.5 L52.5,29.5 M39.5,48.5 L26.5,63.5 M39.5,48.5 L52.5,63.5 " fill="none" style="stroke:#181818;stroke-width:0.5;"/><text fill="#000000" font-family="sans-serif" font-size="14" lengthAdjust="spacing" textLength="63" x="5" y="641.6133">Frontend</text><ellipse cx="39.5" cy="653.0664" fill="#E2E2F0" rx="8" ry="8" style="stroke:#181818;stroke-width:0.5;"/><path d="M39.5,661.0664 L39.5,688.0664 M26.5,669.0664 L52.5,669.0664 M39.5,688.0664 L26.5,703.0664 M39.5,688.0664 L52.5,703.0664 " fill="none" style="stroke:#181818;stroke-width:0.5;"/><rect fill="#E2E2F0" height="30.4883" rx="2.5" ry="2.5" style="stroke:#181818;stroke-width:0.5;" width="106" x="192.5" y="50"/><text fill="#000000" font-family="sans-serif" font-size="14" lengthAdjust="spacing" textLength="92" x="199.5" y="70.5352">Order Service</text><rect fill="#E2E2F0" height="30.4883" rx="2.5" ry="2.5" style="stroke:#181818;stroke-width:0.5;" width="106" x="192.5" y="628.0781"/><text fill="#000000" font-family="sans-serif" font-size="14" lengthAdjust="spacing" textLength="92" x="199.5" y="648.6133">Order Service</text><rect fill="#E2E2F0" height="30.4883" rx="2.5" ry="2.5" style="stroke:#181818;stroke-width:0.5;" width="130" x="378.5" y="50"/><text fill="#000000" font-family="sans-serif" font-size="14" lengthAdjust="spacing" textLength="116" x="385.5" y="70.5352">Inventory Service</text><rect fill="#E2E2F0" height="30.4883" rx="2.5" ry="2.5" style="stroke:#181818;stroke-width:0.5;" width="130" x="378.5" y="628.0781"/><text fill="#000000" font-family="sans-serif" font-size="14" lengthAdjust="spacing" textLength="116" x="385.5" y="648.6133">Inventory Service</text><rect fill="#E2E2F0" height="30.4883" rx="2.5" ry="2.5" style="stroke:#181818;stroke-width:0.5;" width="124" x="518.5" y="50"/><text fill="#000000" font-family="sans-serif" font-size="14" lengthAdjust="spacing" textLength="110" x="525.5" y="70.5352">Payment Service</text><rect fill="#E2E2F0" height="30.4883" rx="2.5" ry="2.5" style="stroke:#181818;stroke-width:0.5;" width="124" x="518.5" y="628.0781"/><text fill="#000000" font-family="sans-serif" font-size="14" lengthAdjust="spacing" textLength="110" x="525.5" y="648.6133">Payment Service</text><rect fill="#E2E2F0" height="30.4883" rx="2.5" ry="2.5" style="stroke:#181818;stroke-width:0.5;" width="127" x="652.5" y="50"/><text fill="#000000" font-family="sans-serif" font-size="14" lengthAdjust="spacing" textLength="113" x="659.5" y="70.5352">Shipping Service</text><rect fill="#E2E2F0" height="30.4883" rx="2.5" ry="2.5" style="stroke:#181818;stroke-width:0.5;" width="127" x="652.5" y="628.0781"/><text fill="#000000" font-family="sans-serif" font-size="14" lengthAdjust="spacing" textLength="113" x="659.5" y="648.6133">Shipping Service</text><rect fill="#E2E2F0" height="30.4883" rx="2.5" ry="2.5" style="stroke:#181818;stroke-width:0.5;" width="142" x="845" y="50"/><text fill="#000000" font-family="sans-serif" font-size="14" lengthAdjust="spacing" textLength="128" x="852" y="70.5352">Monitoring System</text><rect fill="#E2E2F0" height="30.4883" rx="2.5" ry="2.5" style="stroke:#181818;stroke-width:0.5;" width="142" x="845" y="628.0781"/><text fill="#000000" font-family="sans-serif" font-size="14" lengthAdjust="spacing" textLength="128" x="852" y="648.6133">Monitoring System</text><rect fill="#FFFFFF" height="498.2793" style="stroke:#181818;stroke-width:1.0;" width="10" x="240.5" y="112.7988"/><rect fill="#FFFFFF" height="87.9316" style="stroke:#181818;stroke-width:1.0;" width="10" x="438.5" y="171.4199"/><rect fill="#FFFFFF" height="87.9316" style="stroke:#181818;stroke-width:1.0;" width="10" x="575.5" y="317.9727"/><rect fill="#FFFFFF" height="87.9316" style="stroke:#181818;stroke-width:1.0;" width="10" x="711" y="464.5254"/><polygon fill="#181818" points="228.5,108.7988,238.5,112.7988,228.5,116.7988,232.5,112.7988" style="stroke:#181818;stroke-width:1.0;"/><line style="stroke:#181818;stroke-width:1.0;" x1="39.5" x2="234.5" y1="112.7988" y2="112.7988"/><text fill="#000000" font-family="sans-serif" font-size="13" lengthAdjust="spacing" textLength="182" x="46.5" y="108.0566">POST /orders { order details }</text><polygon fill="#181818" points="904,138.1094,914,142.1094,904,146.1094,908,142.1094" style="stroke:#181818;stroke-width:1.0;"/><line style="stroke:#181818;stroke-width:1.0;" x1="250.5" x2="910" y1="142.1094" y2="142.1094"/><text fill="#000000" font-family="sans-serif" font-size="13" lengthAdjust="spacing" textLength="172" x="257.5" y="137.3672">emit metric(order_received)</text><polygon fill="#181818" points="426.5,167.4199,436.5,171.4199,426.5,175.4199,430.5,171.4199" style="stroke:#181818;stroke-width:1.0;"/><line style="stroke:#181818;stroke-width:1.0;" x1="250.5" x2="432.5" y1="171.4199" y2="171.4199"/><text fill="#000000" font-family="sans-serif" font-size="13" lengthAdjust="spacing" textLength="169" x="257.5" y="166.6777">checkStock(productId, qty)</text><polygon fill="#181818" points="904,196.7305,914,200.7305,904,204.7305,908,200.7305" style="stroke:#181818;stroke-width:1.0;"/><line style="stroke:#181818;stroke-width:1.0;" x1="448.5" x2="910" y1="200.7305" y2="200.7305"/><text fill="#000000" font-family="sans-serif" font-size="13" lengthAdjust="spacing" textLength="219" x="455.5" y="195.9883">emit metric(inventory_check_start)</text><polygon fill="#181818" points="261.5,226.041,251.5,230.041,261.5,234.041,257.5,230.041" style="stroke:#181818;stroke-width:1.0;"/><line style="stroke:#181818;stroke-width:1.0;stroke-dasharray:2.0,2.0;" x1="255.5" x2="437.5" y1="230.041" y2="230.041"/><text fill="#000000" font-family="sans-serif" font-size="13" lengthAdjust="spacing" textLength="104" x="267.5" y="225.2988">{ available: true }</text><polygon fill="#181818" points="904,255.3516,914,259.3516,904,263.3516,908,259.3516" style="stroke:#181818;stroke-width:1.0;"/><line style="stroke:#181818;stroke-width:1.0;" x1="443.5" x2="910" y1="259.3516" y2="259.3516"/><text fill="#000000" font-family="sans-serif" font-size="13" lengthAdjust="spacing" textLength="213" x="450.5" y="254.6094">emit metric(inventory_check_end)</text><polygon fill="#181818" points="904,284.6621,914,288.6621,904,292.6621,908,288.6621" style="stroke:#181818;stroke-width:1.0;"/><line style="stroke:#181818;stroke-width:1.0;" x1="250.5" x2="910" y1="288.6621" y2="288.6621"/><text fill="#000000" font-family="sans-serif" font-size="13" lengthAdjust="spacing" textLength="169" x="257.5" y="283.9199">emit metric(stock_verified)</text><polygon fill="#181818" points="563.5,313.9727,573.5,317.9727,563.5,321.9727,567.5,317.9727" style="stroke:#181818;stroke-width:1.0;"/><line style="stroke:#181818;stroke-width:1.0;" x1="250.5" x2="569.5" y1="317.9727" y2="317.9727"/><text fill="#000000" font-family="sans-serif" font-size="13" lengthAdjust="spacing" textLength="242" x="257.5" y="313.2305">processPayment(orderId, paymentInfo)</text><polygon fill="#181818" points="904,343.2832,914,347.2832,904,351.2832,908,347.2832" style="stroke:#181818;stroke-width:1.0;"/><line style="stroke:#181818;stroke-width:1.0;" x1="585.5" x2="910" y1="347.2832" y2="347.2832"/><text fill="#000000" font-family="sans-serif" font-size="13" lengthAdjust="spacing" textLength="170" x="592.5" y="342.541">emit metric(payment_start)</text><polygon fill="#181818" points="261.5,372.5938,251.5,376.5938,261.5,380.5938,257.5,376.5938" style="stroke:#181818;stroke-width:1.0;"/><line style="stroke:#181818;stroke-width:1.0;stroke-dasharray:2.0,2.0;" x1="255.5" x2="574.5" y1="376.5938" y2="376.5938"/><text fill="#000000" font-family="sans-serif" font-size="13" lengthAdjust="spacing" textLength="187" x="267.5" y="371.8516">{ status: success, paymentId }</text><polygon fill="#181818" points="904,401.9043,914,405.9043,904,409.9043,908,405.9043" style="stroke:#181818;stroke-width:1.0;"/><line style="stroke:#181818;stroke-width:1.0;" x1="580.5" x2="910" y1="405.9043" y2="405.9043"/><text fill="#000000" font-family="sans-serif" font-size="13" lengthAdjust="spacing" textLength="164" x="587.5" y="401.1621">emit metric(payment_end)</text><polygon fill="#181818" points="904,431.2148,914,435.2148,904,439.2148,908,435.2148" style="stroke:#181818;stroke-width:1.0;"/><line style="stroke:#181818;stroke-width:1.0;" x1="250.5" x2="910" y1="435.2148" y2="435.2148"/><text fill="#000000" font-family="sans-serif" font-size="13" lengthAdjust="spacing" textLength="205" x="257.5" y="430.4727">emit metric(payment_processed)</text><polygon fill="#181818" points="699,460.5254,709,464.5254,699,468.5254,703,464.5254" style="stroke:#181818;stroke-width:1.0;"/><line style="stroke:#181818;stroke-width:1.0;" x1="250.5" x2="705" y1="464.5254" y2="464.5254"/><text fill="#000000" font-family="sans-serif" font-size="13" lengthAdjust="spacing" textLength="221" x="257.5" y="459.7832">scheduleShipping(orderId, address)</text><polygon fill="#181818" points="904,489.8359,914,493.8359,904,497.8359,908,493.8359" style="stroke:#181818;stroke-width:1.0;"/><line style="stroke:#181818;stroke-width:1.0;" x1="721" x2="910" y1="493.8359" y2="493.8359"/><text fill="#000000" font-family="sans-serif" font-size="13" lengthAdjust="spacing" textLength="171" x="728" y="489.0938">emit metric(shipping_start)</text><polygon fill="#181818" points="261.5,519.1465,251.5,523.1465,261.5,527.1465,257.5,523.1465" style="stroke:#181818;stroke-width:1.0;"/><line style="stroke:#181818;stroke-width:1.0;stroke-dasharray:2.0,2.0;" x1="255.5" x2="710" y1="523.1465" y2="523.1465"/><text fill="#000000" font-family="sans-serif" font-size="13" lengthAdjust="spacing" textLength="206" x="267.5" y="518.4043">{ status: scheduled, shipmentId }</text><polygon fill="#181818" points="904,548.457,914,552.457,904,556.457,908,552.457" style="stroke:#181818;stroke-width:1.0;"/><line style="stroke:#181818;stroke-width:1.0;" x1="716" x2="910" y1="552.457" y2="552.457"/><text fill="#000000" font-family="sans-serif" font-size="13" lengthAdjust="spacing" textLength="165" x="723" y="547.7148">emit metric(shipping_end)</text><polygon fill="#181818" points="904,577.7676,914,581.7676,904,585.7676,908,581.7676" style="stroke:#181818;stroke-width:1.0;"/><line style="stroke:#181818;stroke-width:1.0;" x1="250.5" x2="910" y1="581.7676" y2="581.7676"/><text fill="#000000" font-family="sans-serif" font-size="13" lengthAdjust="spacing" textLength="186" x="257.5" y="577.0254">emit metric(order_completed)</text><polygon fill="#181818" points="50.5,607.0781,40.5,611.0781,50.5,615.0781,46.5,611.0781" style="stroke:#181818;stroke-width:1.0;"/><line style="stroke:#181818;stroke-width:1.0;stroke-dasharray:2.0,2.0;" x1="44.5" x2="244.5" y1="611.0781" y2="611.0781"/><text fill="#000000" font-family="sans-serif" font-size="13" lengthAdjust="spacing" textLength="141" x="56.5" y="606.3359">201 Created { orderId }</text><!--SRC=[fPJBQiCm44Nt-eeXgnXQ-bXwqKsXa4L98DqRLPeq8dvL6Xj2wBztxDYnBHkJfba5ZUwTEqUofABCmflDKi9KYrnQCihaCYLOhAr62rkqfL6uWCjFEgXBJMKeMgKbfknvz8GikfGcXHjvJBWywiV2fZGfs-vDdflqozUnh2rDwjwpr72MMdbqX4cNioi9qPA1-vV1q132PhtzW8UiMdHmWleFQ2HfOWS_GYeofIGSiX834pRjvGW14qEG85cZbhLVP56XAL478w5Fa-LgZ-gmfKmTbhdDTA5efU_Wcuv1bsPq269aD9VAj9kZkbdaYA464nvZNYUG9REHdp66GBP0XlIltdmiWT0uCzhLi5q5BIhHcfsPWZsyWInclWgTQzRFXrN1piyBgtINzQ1x5rXuTdF96iCMjA-SminRgN0Xk49L6RjGcedVqDhdx4zpDUNMi84t1ThxPjd0yM7h8iQsqh6MMbkswN7sltZXsytUWMPlYtgadMNTfEHObSy5zqq1VE2ZiVxuYAWioMEaCM-MNXwu49uVd-3L8dVKxNjMpz1BqfV_0W00]--></g></svg>