<?xml version="1.0" encoding="us-ascii" standalone="no"?><svg xmlns="http://www.w3.org/2000/svg" xmlns:xlink="http://www.w3.org/1999/xlink" contentStyleType="text/css" height="978px" preserveAspectRatio="none" style="width:1297px;height:978px;background:#FFFFFF;" version="1.1" viewBox="0 0 1297 978" width="1297px" zoomAndPan="magnify"><defs/><g><rect fill="#FFFFFF" height="192.8184" style="stroke:#181818;stroke-width:1.0;" width="10" x="287" y="156.1094"/><rect fill="#FFFFFF" height="192.8184" style="stroke:#181818;stroke-width:1.0;" width="10" x="287" y="421.5488"/><rect fill="#FFFFFF" height="192.8184" style="stroke:#181818;stroke-width:1.0;" width="10" x="287" y="686.9883"/><rect fill="#FFFFFF" height="29.3105" style="stroke:#181818;stroke-width:1.0;" width="10" x="427" y="209.7305"/><rect fill="#FFFFFF" height="29.3105" style="stroke:#181818;stroke-width:1.0;" width="10" x="565" y="283.3066"/><rect fill="#FFFFFF" height="29.3105" style="stroke:#181818;stroke-width:1.0;" width="10" x="715" y="475.1699"/><rect fill="#FFFFFF" height="29.3105" style="stroke:#181818;stroke-width:1.0;" width="10" x="877" y="548.7461"/><rect fill="#FFFFFF" height="29.3105" style="stroke:#181818;stroke-width:1.0;" width="10" x="1036" y="740.6094"/><rect fill="#FFFFFF" height="29.3105" style="stroke:#181818;stroke-width:1.0;" width="10" x="1192" y="814.1855"/><rect fill="none" height="149.5078" style="stroke:#000000;stroke-width:1.5;" width="416.5" x="227.5" y="171.1094"/><rect fill="none" height="149.5078" style="stroke:#000000;stroke-width:1.5;" width="740.5" x="227.5" y="436.5488"/><rect fill="none" height="149.5078" style="stroke:#000000;stroke-width:1.5;" width="1052.5" x="227.5" y="701.9883"/><line style="stroke:#181818;stroke-width:0.5;stroke-dasharray:5.0,5.0;" x1="28" x2="28" y1="81.4883" y2="897.8066"/><line style="stroke:#181818;stroke-width:0.5;stroke-dasharray:5.0,5.0;" x1="291.5" x2="291.5" y1="81.4883" y2="897.8066"/><line style="stroke:#181818;stroke-width:0.5;stroke-dasharray:5.0,5.0;" x1="432" x2="432" y1="81.4883" y2="897.8066"/><line style="stroke:#181818;stroke-width:0.5;stroke-dasharray:5.0,5.0;" x1="570" x2="570" y1="81.4883" y2="897.8066"/><line style="stroke:#181818;stroke-width:0.5;stroke-dasharray:5.0,5.0;" x1="720" x2="720" y1="81.4883" y2="897.8066"/><line style="stroke:#181818;stroke-width:0.5;stroke-dasharray:5.0,5.0;" x1="882" x2="882" y1="81.4883" y2="897.8066"/><line style="stroke:#181818;stroke-width:0.5;stroke-dasharray:5.0,5.0;" x1="1041" x2="1041" y1="81.4883" y2="897.8066"/><line style="stroke:#181818;stroke-width:0.5;stroke-dasharray:5.0,5.0;" x1="1197" x2="1197" y1="81.4883" y2="897.8066"/><text fill="#000000" font-family="sans-serif" font-size="14" lengthAdjust="spacing" textLength="40" x="5" y="78.5352">Client</text><ellipse cx="28" cy="13.5" fill="#E2E2F0" rx="8" ry="8" style="stroke:#181818;stroke-width:0.5;"/><path d="M28,21.5 L28,48.5 M15,29.5 L41,29.5 M28,48.5 L15,63.5 M28,48.5 L41,63.5 " fill="none" style="stroke:#181818;stroke-width:0.5;"/><text fill="#000000" font-family="sans-serif" font-size="14" lengthAdjust="spacing" textLength="40" x="5" y="910.3418">Client</text><ellipse cx="28" cy="921.7949" fill="#E2E2F0" rx="8" ry="8" style="stroke:#181818;stroke-width:0.5;"/><path d="M28,929.7949 L28,956.7949 M15,937.7949 L41,937.7949 M28,956.7949 L15,971.7949 M28,956.7949 L41,971.7949 " fill="none" style="stroke:#181818;stroke-width:0.5;"/><rect fill="#E2E2F0" height="30.4883" rx="2.5" ry="2.5" style="stroke:#181818;stroke-width:0.5;" width="109" x="237.5" y="50"/><text fill="#000000" font-family="sans-serif" font-size="14" lengthAdjust="spacing" textLength="95" x="244.5" y="70.5352">Load Balancer</text><rect fill="#E2E2F0" height="30.4883" rx="2.5" ry="2.5" style="stroke:#181818;stroke-width:0.5;" width="109" x="237.5" y="896.8066"/><text fill="#000000" font-family="sans-serif" font-size="14" lengthAdjust="spacing" textLength="95" x="244.5" y="917.3418">Load Balancer</text><rect fill="#E2E2F0" height="30.4883" rx="2.5" ry="2.5" style="stroke:#181818;stroke-width:0.5;" width="128" x="368" y="50"/><text fill="#000000" font-family="sans-serif" font-size="14" lengthAdjust="spacing" textLength="114" x="375" y="70.5352">Order Service #1</text><rect fill="#E2E2F0" height="30.4883" rx="2.5" ry="2.5" style="stroke:#181818;stroke-width:0.5;" width="128" x="368" y="896.8066"/><text fill="#000000" font-family="sans-serif" font-size="14" lengthAdjust="spacing" textLength="114" x="375" y="917.3418">Order Service #1</text><rect fill="#E2E2F0" height="30.4883" rx="2.5" ry="2.5" style="stroke:#181818;stroke-width:0.5;" width="128" x="506" y="50"/><text fill="#000000" font-family="sans-serif" font-size="14" lengthAdjust="spacing" textLength="114" x="513" y="70.5352">Order Service #2</text><rect fill="#E2E2F0" height="30.4883" rx="2.5" ry="2.5" style="stroke:#181818;stroke-width:0.5;" width="128" x="506" y="896.8066"/><text fill="#000000" font-family="sans-serif" font-size="14" lengthAdjust="spacing" textLength="114" x="513" y="917.3418">Order Service #2</text><rect fill="#E2E2F0" height="30.4883" rx="2.5" ry="2.5" style="stroke:#181818;stroke-width:0.5;" width="152" x="644" y="50"/><text fill="#000000" font-family="sans-serif" font-size="14" lengthAdjust="spacing" textLength="138" x="651" y="70.5352">Inventory Service #1</text><rect fill="#E2E2F0" height="30.4883" rx="2.5" ry="2.5" style="stroke:#181818;stroke-width:0.5;" width="152" x="644" y="896.8066"/><text fill="#000000" font-family="sans-serif" font-size="14" lengthAdjust="spacing" textLength="138" x="651" y="917.3418">Inventory Service #1</text><rect fill="#E2E2F0" height="30.4883" rx="2.5" ry="2.5" style="stroke:#181818;stroke-width:0.5;" width="152" x="806" y="50"/><text fill="#000000" font-family="sans-serif" font-size="14" lengthAdjust="spacing" textLength="138" x="813" y="70.5352">Inventory Service #2</text><rect fill="#E2E2F0" height="30.4883" rx="2.5" ry="2.5" style="stroke:#181818;stroke-width:0.5;" width="152" x="806" y="896.8066"/><text fill="#000000" font-family="sans-serif" font-size="14" lengthAdjust="spacing" textLength="138" x="813" y="917.3418">Inventory Service #2</text><rect fill="#E2E2F0" height="30.4883" rx="2.5" ry="2.5" style="stroke:#181818;stroke-width:0.5;" width="146" x="968" y="50"/><text fill="#000000" font-family="sans-serif" font-size="14" lengthAdjust="spacing" textLength="132" x="975" y="70.5352">Payment Service #1</text><rect fill="#E2E2F0" height="30.4883" rx="2.5" ry="2.5" style="stroke:#181818;stroke-width:0.5;" width="146" x="968" y="896.8066"/><text fill="#000000" font-family="sans-serif" font-size="14" lengthAdjust="spacing" textLength="132" x="975" y="917.3418">Payment Service #1</text><rect fill="#E2E2F0" height="30.4883" rx="2.5" ry="2.5" style="stroke:#181818;stroke-width:0.5;" width="146" x="1124" y="50"/><text fill="#000000" font-family="sans-serif" font-size="14" lengthAdjust="spacing" textLength="132" x="1131" y="70.5352">Payment Service #2</text><rect fill="#E2E2F0" height="30.4883" rx="2.5" ry="2.5" style="stroke:#181818;stroke-width:0.5;" width="146" x="1124" y="896.8066"/><text fill="#000000" font-family="sans-serif" font-size="14" lengthAdjust="spacing" textLength="132" x="1131" y="917.3418">Payment Service #2</text><rect fill="#FFFFFF" height="192.8184" style="stroke:#181818;stroke-width:1.0;" width="10" x="287" y="156.1094"/><rect fill="#FFFFFF" height="192.8184" style="stroke:#181818;stroke-width:1.0;" width="10" x="287" y="421.5488"/><rect fill="#FFFFFF" height="192.8184" style="stroke:#181818;stroke-width:1.0;" width="10" x="287" y="686.9883"/><rect fill="#FFFFFF" height="29.3105" style="stroke:#181818;stroke-width:1.0;" width="10" x="427" y="209.7305"/><rect fill="#FFFFFF" height="29.3105" style="stroke:#181818;stroke-width:1.0;" width="10" x="565" y="283.3066"/><rect fill="#FFFFFF" height="29.3105" style="stroke:#181818;stroke-width:1.0;" width="10" x="715" y="475.1699"/><rect fill="#FFFFFF" height="29.3105" style="stroke:#181818;stroke-width:1.0;" width="10" x="877" y="548.7461"/><rect fill="#FFFFFF" height="29.3105" style="stroke:#181818;stroke-width:1.0;" width="10" x="1036" y="740.6094"/><rect fill="#FFFFFF" height="29.3105" style="stroke:#181818;stroke-width:1.0;" width="10" x="1192" y="814.1855"/><rect fill="#EEEEEE" height="3" style="stroke:#EEEEEE;stroke-width:1.0;" width="1290" x="0" y="112.1436"/><line style="stroke:#000000;stroke-width:1.0;" x1="0" x2="1290" y1="112.1436" y2="112.1436"/><line style="stroke:#000000;stroke-width:1.0;" x1="0" x2="1290" y1="115.1436" y2="115.1436"/><rect fill="#EEEEEE" height="23.3105" style="stroke:#000000;stroke-width:2.0;" width="117" x="586.5" y="101.4883"/><text fill="#000000" font-family="sans-serif" font-size="13" font-weight="bold" lengthAdjust="spacing" textLength="99" x="592.5" y="118.0566">Order Request</text><polygon fill="#181818" points="275,152.1094,285,156.1094,275,160.1094,279,156.1094" style="stroke:#181818;stroke-width:1.0;"/><line style="stroke:#181818;stroke-width:1.0;" x1="28" x2="281" y1="156.1094" y2="156.1094"/><text fill="#000000" font-family="sans-serif" font-size="13" lengthAdjust="spacing" textLength="101" x="35" y="151.3672">GET /api/orders</text><path d="M227.5,171.1094 L289.5,171.1094 L289.5,178.4199 L279.5,188.4199 L227.5,188.4199 L227.5,171.1094 " fill="#EEEEEE" style="stroke:#000000;stroke-width:1.5;"/><rect fill="none" height="149.5078" style="stroke:#000000;stroke-width:1.5;" width="416.5" x="227.5" y="171.1094"/><text fill="#000000" font-family="sans-serif" font-size="13" font-weight="bold" lengthAdjust="spacing" textLength="17" x="242.5" y="184.6777">alt</text><text fill="#000000" font-family="sans-serif" font-size="11" font-weight="bold" lengthAdjust="spacing" textLength="150" x="304.5" y="183.7441">[route to Order Service #1]</text><polygon fill="#181818" points="415,205.7305,425,209.7305,415,213.7305,419,209.7305" style="stroke:#181818;stroke-width:1.0;"/><line style="stroke:#181818;stroke-width:1.0;" x1="297" x2="421" y1="209.7305" y2="209.7305"/><text fill="#000000" font-family="sans-serif" font-size="13" lengthAdjust="spacing" textLength="101" x="304" y="204.9883">GET /api/orders</text><polygon fill="#181818" points="308,235.041,298,239.041,308,243.041,304,239.041" style="stroke:#181818;stroke-width:1.0;"/><line style="stroke:#181818;stroke-width:1.0;stroke-dasharray:2.0,2.0;" x1="302" x2="431" y1="239.041" y2="239.041"/><text fill="#000000" font-family="sans-serif" font-size="13" lengthAdjust="spacing" textLength="106" x="314" y="234.2988">200 OK { orders }</text><line style="stroke:#000000;stroke-width:1.0;stroke-dasharray:2.0,2.0;" x1="227.5" x2="644" y1="248.041" y2="248.041"/><text fill="#000000" font-family="sans-serif" font-size="11" font-weight="bold" lengthAdjust="spacing" textLength="150" x="232.5" y="258.6758">[route to Order Service #2]</text><polygon fill="#181818" points="553,279.3066,563,283.3066,553,287.3066,557,283.3066" style="stroke:#181818;stroke-width:1.0;"/><line style="stroke:#181818;stroke-width:1.0;" x1="297" x2="559" y1="283.3066" y2="283.3066"/><text fill="#000000" font-family="sans-serif" font-size="13" lengthAdjust="spacing" textLength="101" x="304" y="278.5645">GET /api/orders</text><polygon fill="#181818" points="308,308.6172,298,312.6172,308,316.6172,304,312.6172" style="stroke:#181818;stroke-width:1.0;"/><line style="stroke:#181818;stroke-width:1.0;stroke-dasharray:2.0,2.0;" x1="302" x2="569" y1="312.6172" y2="312.6172"/><text fill="#000000" font-family="sans-serif" font-size="13" lengthAdjust="spacing" textLength="106" x="314" y="307.875">200 OK { orders }</text><polygon fill="#181818" points="39,344.9277,29,348.9277,39,352.9277,35,348.9277" style="stroke:#181818;stroke-width:1.0;"/><line style="stroke:#181818;stroke-width:1.0;stroke-dasharray:2.0,2.0;" x1="33" x2="291" y1="348.9277" y2="348.9277"/><text fill="#000000" font-family="sans-serif" font-size="13" lengthAdjust="spacing" textLength="106" x="45" y="344.1855">200 OK { orders }</text><rect fill="#EEEEEE" height="3" style="stroke:#EEEEEE;stroke-width:1.0;" width="1290" x="0" y="377.583"/><line style="stroke:#000000;stroke-width:1.0;" x1="0" x2="1290" y1="377.583" y2="377.583"/><line style="stroke:#000000;stroke-width:1.0;" x1="0" x2="1290" y1="380.583" y2="380.583"/><rect fill="#EEEEEE" height="23.3105" style="stroke:#000000;stroke-width:2.0;" width="142" x="574" y="366.9277"/><text fill="#000000" font-family="sans-serif" font-size="13" font-weight="bold" lengthAdjust="spacing" textLength="124" x="580" y="383.4961">Inventory Request</text><polygon fill="#181818" points="275,417.5488,285,421.5488,275,425.5488,279,421.5488" style="stroke:#181818;stroke-width:1.0;"/><line style="stroke:#181818;stroke-width:1.0;" x1="28" x2="281" y1="421.5488" y2="421.5488"/><text fill="#000000" font-family="sans-serif" font-size="13" lengthAdjust="spacing" textLength="120" x="35" y="416.8066">GET /api/inventory</text><path d="M227.5,436.5488 L289.5,436.5488 L289.5,443.8594 L279.5,453.8594 L227.5,453.8594 L227.5,436.5488 " fill="#EEEEEE" style="stroke:#000000;stroke-width:1.5;"/><rect fill="none" height="149.5078" style="stroke:#000000;stroke-width:1.5;" width="740.5" x="227.5" y="436.5488"/><text fill="#000000" font-family="sans-serif" font-size="13" font-weight="bold" lengthAdjust="spacing" textLength="17" x="242.5" y="450.1172">alt</text><text fill="#000000" font-family="sans-serif" font-size="11" font-weight="bold" lengthAdjust="spacing" textLength="171" x="304.5" y="449.1836">[route to Inventory Service #1]</text><polygon fill="#181818" points="703,471.1699,713,475.1699,703,479.1699,707,475.1699" style="stroke:#181818;stroke-width:1.0;"/><line style="stroke:#181818;stroke-width:1.0;" x1="297" x2="709" y1="475.1699" y2="475.1699"/><text fill="#000000" font-family="sans-serif" font-size="13" lengthAdjust="spacing" textLength="120" x="304" y="470.4277">GET /api/inventory</text><polygon fill="#181818" points="308,500.4805,298,504.4805,308,508.4805,304,504.4805" style="stroke:#181818;stroke-width:1.0;"/><line style="stroke:#181818;stroke-width:1.0;stroke-dasharray:2.0,2.0;" x1="302" x2="719" y1="504.4805" y2="504.4805"/><text fill="#000000" font-family="sans-serif" font-size="13" lengthAdjust="spacing" textLength="125" x="314" y="499.7383">200 OK { inventory }</text><line style="stroke:#000000;stroke-width:1.0;stroke-dasharray:2.0,2.0;" x1="227.5" x2="968" y1="513.4805" y2="513.4805"/><text fill="#000000" font-family="sans-serif" font-size="11" font-weight="bold" lengthAdjust="spacing" textLength="171" x="232.5" y="524.1152">[route to Inventory Service #2]</text><polygon fill="#181818" points="865,544.7461,875,548.7461,865,552.7461,869,548.7461" style="stroke:#181818;stroke-width:1.0;"/><line style="stroke:#181818;stroke-width:1.0;" x1="297" x2="871" y1="548.7461" y2="548.7461"/><text fill="#000000" font-family="sans-serif" font-size="13" lengthAdjust="spacing" textLength="120" x="304" y="544.0039">GET /api/inventory</text><polygon fill="#181818" points="308,574.0566,298,578.0566,308,582.0566,304,578.0566" style="stroke:#181818;stroke-width:1.0;"/><line style="stroke:#181818;stroke-width:1.0;stroke-dasharray:2.0,2.0;" x1="302" x2="881" y1="578.0566" y2="578.0566"/><text fill="#000000" font-family="sans-serif" font-size="13" lengthAdjust="spacing" textLength="125" x="314" y="573.3145">200 OK { inventory }</text><polygon fill="#181818" points="39,610.3672,29,614.3672,39,618.3672,35,614.3672" style="stroke:#181818;stroke-width:1.0;"/><line style="stroke:#181818;stroke-width:1.0;stroke-dasharray:2.0,2.0;" x1="33" x2="291" y1="614.3672" y2="614.3672"/><text fill="#000000" font-family="sans-serif" font-size="13" lengthAdjust="spacing" textLength="125" x="45" y="609.625">200 OK { inventory }</text><rect fill="#EEEEEE" height="3" style="stroke:#EEEEEE;stroke-width:1.0;" width="1290" x="0" y="643.0225"/><line style="stroke:#000000;stroke-width:1.0;" x1="0" x2="1290" y1="643.0225" y2="643.0225"/><line style="stroke:#000000;stroke-width:1.0;" x1="0" x2="1290" y1="646.0225" y2="646.0225"/><rect fill="#EEEEEE" height="23.3105" style="stroke:#000000;stroke-width:2.0;" width="136" x="577" y="632.3672"/><text fill="#000000" font-family="sans-serif" font-size="13" font-weight="bold" lengthAdjust="spacing" textLength="118" x="583" y="648.9355">Payment Request</text><polygon fill="#181818" points="275,682.9883,285,686.9883,275,690.9883,279,686.9883" style="stroke:#181818;stroke-width:1.0;"/><line style="stroke:#181818;stroke-width:1.0;" x1="28" x2="281" y1="686.9883" y2="686.9883"/><text fill="#000000" font-family="sans-serif" font-size="13" lengthAdjust="spacing" textLength="130" x="35" y="682.2461">POST /api/payments</text><path d="M227.5,701.9883 L289.5,701.9883 L289.5,709.2988 L279.5,719.2988 L227.5,719.2988 L227.5,701.9883 " fill="#EEEEEE" style="stroke:#000000;stroke-width:1.5;"/><rect fill="none" height="149.5078" style="stroke:#000000;stroke-width:1.5;" width="1052.5" x="227.5" y="701.9883"/><text fill="#000000" font-family="sans-serif" font-size="13" font-weight="bold" lengthAdjust="spacing" textLength="17" x="242.5" y="715.5566">alt</text><text fill="#000000" font-family="sans-serif" font-size="11" font-weight="bold" lengthAdjust="spacing" textLength="165" x="304.5" y="714.623">[route to Payment Service #1]</text><polygon fill="#181818" points="1024,736.6094,1034,740.6094,1024,744.6094,1028,740.6094" style="stroke:#181818;stroke-width:1.0;"/><line style="stroke:#181818;stroke-width:1.0;" x1="297" x2="1030" y1="740.6094" y2="740.6094"/><text fill="#000000" font-family="sans-serif" font-size="13" lengthAdjust="spacing" textLength="130" x="304" y="735.8672">POST /api/payments</text><polygon fill="#181818" points="308,765.9199,298,769.9199,308,773.9199,304,769.9199" style="stroke:#181818;stroke-width:1.0;"/><line style="stroke:#181818;stroke-width:1.0;stroke-dasharray:2.0,2.0;" x1="302" x2="1040" y1="769.9199" y2="769.9199"/><text fill="#000000" font-family="sans-serif" font-size="13" lengthAdjust="spacing" textLength="235" x="314" y="765.1777">201 Created { payment confirmation }</text><line style="stroke:#000000;stroke-width:1.0;stroke-dasharray:2.0,2.0;" x1="227.5" x2="1280" y1="778.9199" y2="778.9199"/><text fill="#000000" font-family="sans-serif" font-size="11" font-weight="bold" lengthAdjust="spacing" textLength="165" x="232.5" y="789.5547">[route to Payment Service #2]</text><polygon fill="#181818" points="1180,810.1855,1190,814.1855,1180,818.1855,1184,814.1855" style="stroke:#181818;stroke-width:1.0;"/><line style="stroke:#181818;stroke-width:1.0;" x1="297" x2="1186" y1="814.1855" y2="814.1855"/><text fill="#000000" font-family="sans-serif" font-size="13" lengthAdjust="spacing" textLength="130" x="304" y="809.4434">POST /api/payments</text><polygon fill="#181818" points="308,839.4961,298,843.4961,308,847.4961,304,843.4961" style="stroke:#181818;stroke-width:1.0;"/><line style="stroke:#181818;stroke-width:1.0;stroke-dasharray:2.0,2.0;" x1="302" x2="1196" y1="843.4961" y2="843.4961"/><text fill="#000000" font-family="sans-serif" font-size="13" lengthAdjust="spacing" textLength="235" x="314" y="838.7539">201 Created { payment confirmation }</text><polygon fill="#181818" points="39,875.8066,29,879.8066,39,883.8066,35,879.8066" style="stroke:#181818;stroke-width:1.0;"/><line style="stroke:#181818;stroke-width:1.0;stroke-dasharray:2.0,2.0;" x1="33" x2="291" y1="879.8066" y2="879.8066"/><text fill="#000000" font-family="sans-serif" font-size="13" lengthAdjust="spacing" textLength="235" x="45" y="875.0645">201 Created { payment confirmation }</text><!--SRC=[fPFDQiCm48JlUeebFOSaUoouXuHIJ0CsJLz0s2e87CcL5KCeVVUk_nB9Fub3VJEUdHrzO_74QWExJ0fbMSwDbOdCkRAms6kUmfPdN2N2B80NiD_wYiYami11c58c0fus2w27TD5XSrE8Lo7wmb2Lb4ERi-TAoh1lEQB4LjdpZFdvI58_9mdZlkL0Y9qG6Gi2Q4xn8RvFeh0G1AoX1iiN8WFFyFRw2IkUovMkX0NZYPKbjwBYnZCBHf_enMheSsDG6P0DWHlneH2TKqKMQjcosuhhDKJly0ED6dv9a0flGcI5cDoEpdQyjnthxVZ0TcH2fQnQG2CjiB4nPuXmLRYl3Sz0BZlnDFMnV-jozj0dVxLpZX_MyCDH-9U1Fe5mm7_iptLou8mSMEV0ntBSQSAT79RHtOtfAkBeq8RE6-sD2p2yaXS0SLt4Y9a38AwBYFqYDh0pWhwcT9Ps21AjlgGvSYkrwWE91yKCxx-J2cUamZeL_Y_LL4qpdBpQ_W00]--></g></svg>