<?xml version="1.0" encoding="us-ascii" standalone="no"?><svg xmlns="http://www.w3.org/2000/svg" xmlns:xlink="http://www.w3.org/1999/xlink" contentStyleType="text/css" height="1314px" preserveAspectRatio="none" style="width:2373px;height:1314px;background:#FFFFFF;" version="1.1" viewBox="0 0 2373 1314" width="2373px" zoomAndPan="magnify"><defs/><g><rect fill="#FFFFFF" height="810.9609" style="stroke:#181818;stroke-width:1.0;" width="10" x="282.5" y="112.7988"/><rect fill="#FFFFFF" height="752.3398" style="stroke:#181818;stroke-width:1.0;" width="10" x="535.5" y="142.1094"/><rect fill="#FFFFFF" height="29.3105" style="stroke:#181818;stroke-width:1.0;" width="10" x="697.5" y="171.4199"/><rect fill="#FFFFFF" height="635.0977" style="stroke:#181818;stroke-width:1.0;" width="10" x="810" y="230.041"/><rect fill="#FFFFFF" height="296.0605" style="stroke:#181818;stroke-width:1.0;" width="10" x="1010" y="274.6621"/><rect fill="#FFFFFF" height="53.6211" style="stroke:#181818;stroke-width:1.0;" width="10" x="1260" y="303.9727"/><rect fill="#FFFFFF" height="29.3105" style="stroke:#181818;stroke-width:1.0;" width="10" x="1260" y="505.1016"/><rect fill="#FFFFFF" height="29.3105" style="stroke:#181818;stroke-width:1.0;" width="10" x="1370.5" y="446.4805"/><rect fill="#FFFFFF" height="29.3105" style="stroke:#181818;stroke-width:1.0;" width="10" x="1512" y="615.3438"/><rect fill="#FFFFFF" height="29.3105" style="stroke:#181818;stroke-width:1.0;" width="10" x="1512" y="1053.957"/><rect fill="#FFFFFF" height="29.3105" style="stroke:#181818;stroke-width:1.0;" width="10" x="1641.5" y="673.9648"/><rect fill="#FFFFFF" height="29.3105" style="stroke:#181818;stroke-width:1.0;" width="10" x="1738" y="747.8965"/><rect fill="#FFFFFF" height="29.3105" style="stroke:#181818;stroke-width:1.0;" width="10" x="1738" y="1127.8887"/><rect fill="#FFFFFF" height="206.4844" style="stroke:#181818;stroke-width:1.0;" width="10" x="2003" y="1009.3359"/><rect fill="none" height="223.4395" style="stroke:#000000;stroke-width:1.5;" width="518" x="940" y="318.9727"/><line style="stroke:#181818;stroke-width:0.5;stroke-dasharray:5.0,5.0;" x1="39" x2="39" y1="81.4883" y2="931.7598"/><line style="stroke:#A80036;stroke-width:1.0;stroke-dasharray:1.0,4.0;" x1="39" x2="39" y1="931.7598" y2="972.7148"/><line style="stroke:#181818;stroke-width:0.5;stroke-dasharray:5.0,5.0;" x1="39" x2="39" y1="972.7148" y2="1233.8203"/><line style="stroke:#181818;stroke-width:0.5;stroke-dasharray:5.0,5.0;" x1="287.5" x2="287.5" y1="81.4883" y2="931.7598"/><line style="stroke:#A80036;stroke-width:1.0;stroke-dasharray:1.0,4.0;" x1="287.5" x2="287.5" y1="931.7598" y2="972.7148"/><line style="stroke:#181818;stroke-width:0.5;stroke-dasharray:5.0,5.0;" x1="287.5" x2="287.5" y1="972.7148" y2="1233.8203"/><line style="stroke:#181818;stroke-width:0.5;stroke-dasharray:5.0,5.0;" x1="540" x2="540" y1="81.4883" y2="931.7598"/><line style="stroke:#A80036;stroke-width:1.0;stroke-dasharray:1.0,4.0;" x1="540" x2="540" y1="931.7598" y2="972.7148"/><line style="stroke:#181818;stroke-width:0.5;stroke-dasharray:5.0,5.0;" x1="540" x2="540" y1="972.7148" y2="1233.8203"/><line style="stroke:#181818;stroke-width:0.5;stroke-dasharray:5.0,5.0;" x1="702" x2="702" y1="81.4883" y2="931.7598"/><line style="stroke:#A80036;stroke-width:1.0;stroke-dasharray:1.0,4.0;" x1="702" x2="702" y1="931.7598" y2="972.7148"/><line style="stroke:#181818;stroke-width:0.5;stroke-dasharray:5.0,5.0;" x1="702" x2="702" y1="972.7148" y2="1233.8203"/><line style="stroke:#181818;stroke-width:0.5;stroke-dasharray:5.0,5.0;" x1="815" x2="815" y1="81.4883" y2="931.7598"/><line style="stroke:#A80036;stroke-width:1.0;stroke-dasharray:1.0,4.0;" x1="815" x2="815" y1="931.7598" y2="972.7148"/><line style="stroke:#181818;stroke-width:0.5;stroke-dasharray:5.0,5.0;" x1="815" x2="815" y1="972.7148" y2="1233.8203"/><line style="stroke:#181818;stroke-width:0.5;stroke-dasharray:5.0,5.0;" x1="1015" x2="1015" y1="81.4883" y2="931.7598"/><line style="stroke:#A80036;stroke-width:1.0;stroke-dasharray:1.0,4.0;" x1="1015" x2="1015" y1="931.7598" y2="972.7148"/><line style="stroke:#181818;stroke-width:0.5;stroke-dasharray:5.0,5.0;" x1="1015" x2="1015" y1="972.7148" y2="1233.8203"/><line style="stroke:#181818;stroke-width:0.5;stroke-dasharray:5.0,5.0;" x1="1265" x2="1265" y1="81.4883" y2="931.7598"/><line style="stroke:#A80036;stroke-width:1.0;stroke-dasharray:1.0,4.0;" x1="1265" x2="1265" y1="931.7598" y2="972.7148"/><line style="stroke:#181818;stroke-width:0.5;stroke-dasharray:5.0,5.0;" x1="1265" x2="1265" y1="972.7148" y2="1233.8203"/><line style="stroke:#181818;stroke-width:0.5;stroke-dasharray:5.0,5.0;" x1="1375" x2="1375" y1="81.4883" y2="931.7598"/><line style="stroke:#A80036;stroke-width:1.0;stroke-dasharray:1.0,4.0;" x1="1375" x2="1375" y1="931.7598" y2="972.7148"/><line style="stroke:#181818;stroke-width:0.5;stroke-dasharray:5.0,5.0;" x1="1375" x2="1375" y1="972.7148" y2="1233.8203"/><line style="stroke:#181818;stroke-width:0.5;stroke-dasharray:5.0,5.0;" x1="1517" x2="1517" y1="81.4883" y2="931.7598"/><line style="stroke:#A80036;stroke-width:1.0;stroke-dasharray:1.0,4.0;" x1="1517" x2="1517" y1="931.7598" y2="972.7148"/><line style="stroke:#181818;stroke-width:0.5;stroke-dasharray:5.0,5.0;" x1="1517" x2="1517" y1="972.7148" y2="1233.8203"/><line style="stroke:#181818;stroke-width:0.5;stroke-dasharray:5.0,5.0;" x1="1646" x2="1646" y1="81.4883" y2="931.7598"/><line style="stroke:#A80036;stroke-width:1.0;stroke-dasharray:1.0,4.0;" x1="1646" x2="1646" y1="931.7598" y2="972.7148"/><line style="stroke:#181818;stroke-width:0.5;stroke-dasharray:5.0,5.0;" x1="1646" x2="1646" y1="972.7148" y2="1233.8203"/><line style="stroke:#181818;stroke-width:0.5;stroke-dasharray:5.0,5.0;" x1="1743" x2="1743" y1="81.4883" y2="931.7598"/><line style="stroke:#A80036;stroke-width:1.0;stroke-dasharray:1.0,4.0;" x1="1743" x2="1743" y1="931.7598" y2="972.7148"/><line style="stroke:#181818;stroke-width:0.5;stroke-dasharray:5.0,5.0;" x1="1743" x2="1743" y1="972.7148" y2="1233.8203"/><line style="stroke:#181818;stroke-width:0.5;stroke-dasharray:5.0,5.0;" x1="2008" x2="2008" y1="81.4883" y2="931.7598"/><line style="stroke:#A80036;stroke-width:1.0;stroke-dasharray:1.0,4.0;" x1="2008" x2="2008" y1="931.7598" y2="972.7148"/><line style="stroke:#181818;stroke-width:0.5;stroke-dasharray:5.0,5.0;" x1="2008" x2="2008" y1="972.7148" y2="1233.8203"/><line style="stroke:#181818;stroke-width:0.5;stroke-dasharray:5.0,5.0;" x1="2242" x2="2242" y1="81.4883" y2="931.7598"/><line style="stroke:#A80036;stroke-width:1.0;stroke-dasharray:1.0,4.0;" x1="2242" x2="2242" y1="931.7598" y2="972.7148"/><line style="stroke:#181818;stroke-width:0.5;stroke-dasharray:5.0,5.0;" x1="2242" x2="2242" y1="972.7148" y2="1233.8203"/><line style="stroke:#181818;stroke-width:0.5;stroke-dasharray:5.0,5.0;" x1="2332" x2="2332" y1="81.4883" y2="931.7598"/><line style="stroke:#A80036;stroke-width:1.0;stroke-dasharray:1.0,4.0;" x1="2332" x2="2332" y1="931.7598" y2="972.7148"/><line style="stroke:#181818;stroke-width:0.5;stroke-dasharray:5.0,5.0;" x1="2332" x2="2332" y1="972.7148" y2="1233.8203"/><text fill="#000000" font-family="sans-serif" font-size="14" lengthAdjust="spacing" textLength="63" x="5" y="78.5352">Frontend</text><ellipse cx="39.5" cy="13.5" fill="#E2E2F0" rx="8" ry="8" style="stroke:#181818;stroke-width:0.5;"/><path d="M39.5,21.5 L39.5,48.5 M26.5,29.5 L52.5,29.5 M39.5,48.5 L26.5,63.5 M39.5,48.5 L52.5,63.5 " fill="none" style="stroke:#181818;stroke-width:0.5;"/><text fill="#000000" font-family="sans-serif" font-size="14" lengthAdjust="spacing" textLength="63" x="5" y="1246.3555">Frontend</text><ellipse cx="39.5" cy="1257.8086" fill="#E2E2F0" rx="8" ry="8" style="stroke:#181818;stroke-width:0.5;"/><path d="M39.5,1265.8086 L39.5,1292.8086 M26.5,1273.8086 L52.5,1273.8086 M39.5,1292.8086 L26.5,1307.8086 M39.5,1292.8086 L52.5,1307.8086 " fill="none" style="stroke:#181818;stroke-width:0.5;"/><rect fill="#E2E2F0" height="30.4883" rx="2.5" ry="2.5" style="stroke:#181818;stroke-width:0.5;" width="38" x="268.5" y="50"/><text fill="#000000" font-family="sans-serif" font-size="14" lengthAdjust="spacing" textLength="24" x="275.5" y="70.5352">BFF</text><rect fill="#E2E2F0" height="30.4883" rx="2.5" ry="2.5" style="stroke:#181818;stroke-width:0.5;" width="38" x="268.5" y="1232.8203"/><text fill="#000000" font-family="sans-serif" font-size="14" lengthAdjust="spacing" textLength="24" x="275.5" y="1253.3555">BFF</text><rect fill="#E2E2F0" height="30.4883" rx="2.5" ry="2.5" style="stroke:#181818;stroke-width:0.5;" width="97" x="492" y="50"/><text fill="#000000" font-family="sans-serif" font-size="14" lengthAdjust="spacing" textLength="83" x="499" y="70.5352">API Gateway</text><rect fill="#E2E2F0" height="30.4883" rx="2.5" ry="2.5" style="stroke:#181818;stroke-width:0.5;" width="97" x="492" y="1232.8203"/><text fill="#000000" font-family="sans-serif" font-size="14" lengthAdjust="spacing" textLength="83" x="499" y="1253.3555">API Gateway</text><rect fill="#E2E2F0" height="30.4883" rx="2.5" ry="2.5" style="stroke:#181818;stroke-width:0.5;" width="99" x="653" y="50"/><text fill="#000000" font-family="sans-serif" font-size="14" lengthAdjust="spacing" textLength="85" x="660" y="70.5352">Auth Service</text><rect fill="#E2E2F0" height="30.4883" rx="2.5" ry="2.5" style="stroke:#181818;stroke-width:0.5;" width="99" x="653" y="1232.8203"/><text fill="#000000" font-family="sans-serif" font-size="14" lengthAdjust="spacing" textLength="85" x="660" y="1253.3555">Auth Service</text><rect fill="#E2E2F0" height="30.4883" rx="2.5" ry="2.5" style="stroke:#181818;stroke-width:0.5;" width="106" x="762" y="50"/><text fill="#000000" font-family="sans-serif" font-size="14" lengthAdjust="spacing" textLength="92" x="769" y="70.5352">Order Service</text><rect fill="#E2E2F0" height="30.4883" rx="2.5" ry="2.5" style="stroke:#181818;stroke-width:0.5;" width="106" x="762" y="1232.8203"/><text fill="#000000" font-family="sans-serif" font-size="14" lengthAdjust="spacing" textLength="92" x="769" y="1253.3555">Order Service</text><rect fill="#E2E2F0" height="30.4883" rx="2.5" ry="2.5" style="stroke:#181818;stroke-width:0.5;" width="130" x="950" y="50"/><text fill="#000000" font-family="sans-serif" font-size="14" lengthAdjust="spacing" textLength="116" x="957" y="70.5352">Inventory Service</text><rect fill="#E2E2F0" height="30.4883" rx="2.5" ry="2.5" style="stroke:#181818;stroke-width:0.5;" width="130" x="950" y="1232.8203"/><text fill="#000000" font-family="sans-serif" font-size="14" lengthAdjust="spacing" textLength="116" x="957" y="1253.3555">Inventory Service</text><rect fill="#E2E2F0" height="30.4883" rx="2.5" ry="2.5" style="stroke:#181818;stroke-width:0.5;" width="56" x="1237" y="50"/><text fill="#000000" font-family="sans-serif" font-size="14" lengthAdjust="spacing" textLength="42" x="1244" y="70.5352">Cache</text><rect fill="#E2E2F0" height="30.4883" rx="2.5" ry="2.5" style="stroke:#181818;stroke-width:0.5;" width="56" x="1237" y="1232.8203"/><text fill="#000000" font-family="sans-serif" font-size="14" lengthAdjust="spacing" textLength="42" x="1244" y="1253.3555">Cache</text><text fill="#000000" font-family="sans-serif" font-size="14" lengthAdjust="spacing" textLength="139" x="1303" y="78.5352">Inventory Replica DB</text><path d="M1357.5,29 C1357.5,19 1375.5,19 1375.5,19 C1375.5,19 1393.5,19 1393.5,29 L1393.5,55 C1393.5,65 1375.5,65 1375.5,65 C1375.5,65 1357.5,65 1357.5,55 L1357.5,29 " fill="#E2E2F0" style="stroke:#181818;stroke-width:1.5;"/><path d="M1357.5,29 C1357.5,39 1375.5,39 1375.5,39 C1375.5,39 1393.5,39 1393.5,29 " fill="none" style="stroke:#181818;stroke-width:1.5;"/><text fill="#000000" font-family="sans-serif" font-size="14" lengthAdjust="spacing" textLength="139" x="1303" y="1246.3555">Inventory Replica DB</text><path d="M1357.5,1259.3086 C1357.5,1249.3086 1375.5,1249.3086 1375.5,1249.3086 C1375.5,1249.3086 1393.5,1249.3086 1393.5,1259.3086 L1393.5,1285.3086 C1393.5,1295.3086 1375.5,1295.3086 1375.5,1295.3086 C1375.5,1295.3086 1357.5,1295.3086 1357.5,1285.3086 L1357.5,1259.3086 " fill="#E2E2F0" style="stroke:#181818;stroke-width:1.5;"/><path d="M1357.5,1259.3086 C1357.5,1269.3086 1375.5,1269.3086 1375.5,1269.3086 C1375.5,1269.3086 1393.5,1269.3086 1393.5,1259.3086 " fill="none" style="stroke:#181818;stroke-width:1.5;"/><text fill="#000000" font-family="sans-serif" font-size="14" lengthAdjust="spacing" textLength="112" x="1458" y="78.5352">Order Master DB</text><path d="M1499,29 C1499,19 1517,19 1517,19 C1517,19 1535,19 1535,29 L1535,55 C1535,65 1517,65 1517,65 C1517,65 1499,65 1499,55 L1499,29 " fill="#E2E2F0" style="stroke:#181818;stroke-width:1.5;"/><path d="M1499,29 C1499,39 1517,39 1517,39 C1517,39 1535,39 1535,29 " fill="none" style="stroke:#181818;stroke-width:1.5;"/><text fill="#000000" font-family="sans-serif" font-size="14" lengthAdjust="spacing" textLength="112" x="1458" y="1246.3555">Order Master DB</text><path d="M1499,1259.3086 C1499,1249.3086 1517,1249.3086 1517,1249.3086 C1517,1249.3086 1535,1249.3086 1535,1259.3086 L1535,1285.3086 C1535,1295.3086 1517,1295.3086 1517,1295.3086 C1517,1295.3086 1499,1295.3086 1499,1285.3086 L1499,1259.3086 " fill="#E2E2F0" style="stroke:#181818;stroke-width:1.5;"/><path d="M1499,1259.3086 C1499,1269.3086 1517,1269.3086 1517,1269.3086 C1517,1269.3086 1535,1269.3086 1535,1259.3086 " fill="none" style="stroke:#181818;stroke-width:1.5;"/><text fill="#000000" font-family="sans-serif" font-size="14" lengthAdjust="spacing" textLength="115" x="1586" y="78.5352">Order Replica DB</text><path d="M1628.5,29 C1628.5,19 1646.5,19 1646.5,19 C1646.5,19 1664.5,19 1664.5,29 L1664.5,55 C1664.5,65 1646.5,65 1646.5,65 C1646.5,65 1628.5,65 1628.5,55 L1628.5,29 " fill="#E2E2F0" style="stroke:#181818;stroke-width:1.5;"/><path d="M1628.5,29 C1628.5,39 1646.5,39 1646.5,39 C1646.5,39 1664.5,39 1664.5,29 " fill="none" style="stroke:#181818;stroke-width:1.5;"/><text fill="#000000" font-family="sans-serif" font-size="14" lengthAdjust="spacing" textLength="115" x="1586" y="1246.3555">Order Replica DB</text><path d="M1628.5,1259.3086 C1628.5,1249.3086 1646.5,1249.3086 1646.5,1249.3086 C1646.5,1249.3086 1664.5,1249.3086 1664.5,1259.3086 L1664.5,1285.3086 C1664.5,1295.3086 1646.5,1295.3086 1646.5,1295.3086 C1646.5,1295.3086 1628.5,1295.3086 1628.5,1285.3086 L1628.5,1259.3086 " fill="#E2E2F0" style="stroke:#181818;stroke-width:1.5;"/><path d="M1628.5,1259.3086 C1628.5,1269.3086 1646.5,1269.3086 1646.5,1269.3086 C1646.5,1269.3086 1664.5,1269.3086 1664.5,1259.3086 " fill="none" style="stroke:#181818;stroke-width:1.5;"/><rect fill="#E2E2F0" height="30.4883" rx="2.5" ry="2.5" style="stroke:#181818;stroke-width:0.5;" width="52" x="1717" y="50"/><text fill="#000000" font-family="sans-serif" font-size="14" lengthAdjust="spacing" textLength="38" x="1724" y="70.5352">Kafka</text><rect fill="#E2E2F0" height="30.4883" rx="2.5" ry="2.5" style="stroke:#181818;stroke-width:0.5;" width="52" x="1717" y="1232.8203"/><text fill="#000000" font-family="sans-serif" font-size="14" lengthAdjust="spacing" textLength="38" x="1724" y="1253.3555">Kafka</text><rect fill="#E2E2F0" height="30.4883" rx="2.5" ry="2.5" style="stroke:#181818;stroke-width:0.5;" width="124" x="1946" y="50"/><text fill="#000000" font-family="sans-serif" font-size="14" lengthAdjust="spacing" textLength="110" x="1953" y="70.5352">Payment Service</text><rect fill="#E2E2F0" height="30.4883" rx="2.5" ry="2.5" style="stroke:#181818;stroke-width:0.5;" width="124" x="1946" y="1232.8203"/><text fill="#000000" font-family="sans-serif" font-size="14" lengthAdjust="spacing" textLength="110" x="1953" y="1253.3555">Payment Service</text><rect fill="#E2E2F0" height="30.4883" rx="2.5" ry="2.5" style="stroke:#181818;stroke-width:0.5;" width="90" x="2197" y="50"/><text fill="#000000" font-family="sans-serif" font-size="14" lengthAdjust="spacing" textLength="76" x="2204" y="70.5352">Monitoring</text><rect fill="#E2E2F0" height="30.4883" rx="2.5" ry="2.5" style="stroke:#181818;stroke-width:0.5;" width="90" x="2197" y="1232.8203"/><text fill="#000000" font-family="sans-serif" font-size="14" lengthAdjust="spacing" textLength="76" x="2204" y="1253.3555">Monitoring</text><rect fill="#E2E2F0" height="30.4883" rx="2.5" ry="2.5" style="stroke:#181818;stroke-width:0.5;" width="70" x="2297" y="50"/><text fill="#000000" font-family="sans-serif" font-size="14" lengthAdjust="spacing" textLength="56" x="2304" y="70.5352">Logging</text><rect fill="#E2E2F0" height="30.4883" rx="2.5" ry="2.5" style="stroke:#181818;stroke-width:0.5;" width="70" x="2297" y="1232.8203"/><text fill="#000000" font-family="sans-serif" font-size="14" lengthAdjust="spacing" textLength="56" x="2304" y="1253.3555">Logging</text><rect fill="#FFFFFF" height="810.9609" style="stroke:#181818;stroke-width:1.0;" width="10" x="282.5" y="112.7988"/><rect fill="#FFFFFF" height="752.3398" style="stroke:#181818;stroke-width:1.0;" width="10" x="535.5" y="142.1094"/><rect fill="#FFFFFF" height="29.3105" style="stroke:#181818;stroke-width:1.0;" width="10" x="697.5" y="171.4199"/><rect fill="#FFFFFF" height="635.0977" style="stroke:#181818;stroke-width:1.0;" width="10" x="810" y="230.041"/><rect fill="#FFFFFF" height="296.0605" style="stroke:#181818;stroke-width:1.0;" width="10" x="1010" y="274.6621"/><rect fill="#FFFFFF" height="53.6211" style="stroke:#181818;stroke-width:1.0;" width="10" x="1260" y="303.9727"/><rect fill="#FFFFFF" height="29.3105" style="stroke:#181818;stroke-width:1.0;" width="10" x="1260" y="505.1016"/><rect fill="#FFFFFF" height="29.3105" style="stroke:#181818;stroke-width:1.0;" width="10" x="1370.5" y="446.4805"/><rect fill="#FFFFFF" height="29.3105" style="stroke:#181818;stroke-width:1.0;" width="10" x="1512" y="615.3438"/><rect fill="#FFFFFF" height="29.3105" style="stroke:#181818;stroke-width:1.0;" width="10" x="1512" y="1053.957"/><rect fill="#FFFFFF" height="29.3105" style="stroke:#181818;stroke-width:1.0;" width="10" x="1641.5" y="673.9648"/><rect fill="#FFFFFF" height="29.3105" style="stroke:#181818;stroke-width:1.0;" width="10" x="1738" y="747.8965"/><rect fill="#FFFFFF" height="29.3105" style="stroke:#181818;stroke-width:1.0;" width="10" x="1738" y="1127.8887"/><rect fill="#FFFFFF" height="206.4844" style="stroke:#181818;stroke-width:1.0;" width="10" x="2003" y="1009.3359"/><polygon fill="#181818" points="270.5,108.7988,280.5,112.7988,270.5,116.7988,274.5,112.7988" style="stroke:#181818;stroke-width:1.0;"/><line style="stroke:#181818;stroke-width:1.0;" x1="39.5" x2="276.5" y1="112.7988" y2="112.7988"/><text fill="#000000" font-family="sans-serif" font-size="13" lengthAdjust="spacing" textLength="224" x="46.5" y="108.0566">POST /orders { token, orderDetails }</text><polygon fill="#181818" points="523.5,138.1094,533.5,142.1094,523.5,146.1094,527.5,142.1094" style="stroke:#181818;stroke-width:1.0;"/><line style="stroke:#181818;stroke-width:1.0;" x1="292.5" x2="529.5" y1="142.1094" y2="142.1094"/><text fill="#000000" font-family="sans-serif" font-size="13" lengthAdjust="spacing" textLength="224" x="299.5" y="137.3672">POST /orders { token, orderDetails }</text><polygon fill="#181818" points="685.5,167.4199,695.5,171.4199,685.5,175.4199,689.5,171.4199" style="stroke:#181818;stroke-width:1.0;"/><line style="stroke:#181818;stroke-width:1.0;" x1="545.5" x2="691.5" y1="171.4199" y2="171.4199"/><text fill="#000000" font-family="sans-serif" font-size="13" lengthAdjust="spacing" textLength="133" x="552.5" y="166.6777">ValidateToken(token)</text><polygon fill="#181818" points="556.5,196.7305,546.5,200.7305,556.5,204.7305,552.5,200.7305" style="stroke:#181818;stroke-width:1.0;"/><line style="stroke:#181818;stroke-width:1.0;stroke-dasharray:2.0,2.0;" x1="550.5" x2="701.5" y1="200.7305" y2="200.7305"/><text fill="#000000" font-family="sans-serif" font-size="13" lengthAdjust="spacing" textLength="88" x="562.5" y="195.9883">200 OK (valid)</text><polygon fill="#181818" points="798,226.041,808,230.041,798,234.041,802,230.041" style="stroke:#181818;stroke-width:1.0;"/><line style="stroke:#181818;stroke-width:1.0;" x1="545.5" x2="804" y1="230.041" y2="230.041"/><text fill="#000000" font-family="sans-serif" font-size="13" lengthAdjust="spacing" textLength="160" x="552.5" y="225.2988">CreateOrder(orderDetails)</text><polygon fill="#181818" points="998,270.6621,1008,274.6621,998,278.6621,1002,274.6621" style="stroke:#181818;stroke-width:1.0;"/><line style="stroke:#181818;stroke-width:1.0;" x1="820" x2="1004" y1="274.6621" y2="274.6621"/><text fill="#000000" font-family="sans-serif" font-size="13" lengthAdjust="spacing" textLength="171" x="827" y="254.6094">CheckStock(productId, qty)</text><text fill="#000000" font-family="sans-serif" font-size="13" lengthAdjust="spacing" textLength="40" x="827" y="269.9199">[gRPC]</text><polygon fill="#181818" points="1248,299.9727,1258,303.9727,1248,307.9727,1252,303.9727" style="stroke:#181818;stroke-width:1.0;"/><line style="stroke:#181818;stroke-width:1.0;" x1="1020" x2="1254" y1="303.9727" y2="303.9727"/><text fill="#000000" font-family="sans-serif" font-size="13" lengthAdjust="spacing" textLength="136" x="1027" y="299.2305">GET stock:{productId}</text><path d="M940,318.9727 L1002,318.9727 L1002,326.2832 L992,336.2832 L940,336.2832 L940,318.9727 " fill="#EEEEEE" style="stroke:#000000;stroke-width:1.5;"/><rect fill="none" height="223.4395" style="stroke:#000000;stroke-width:1.5;" width="518" x="940" y="318.9727"/><text fill="#000000" font-family="sans-serif" font-size="13" font-weight="bold" lengthAdjust="spacing" textLength="17" x="955" y="332.541">alt</text><text fill="#000000" font-family="sans-serif" font-size="11" font-weight="bold" lengthAdjust="spacing" textLength="62" x="1017" y="331.6074">[Cache Hit]</text><polygon fill="#181818" points="1031,353.5938,1021,357.5938,1031,361.5938,1027,357.5938" style="stroke:#181818;stroke-width:1.0;"/><line style="stroke:#181818;stroke-width:1.0;stroke-dasharray:2.0,2.0;" x1="1025" x2="1264" y1="357.5938" y2="357.5938"/><text fill="#000000" font-family="sans-serif" font-size="13" lengthAdjust="spacing" textLength="69" x="1037" y="352.8516">stockValue</text><line style="stroke:#000000;stroke-width:1.0;stroke-dasharray:2.0,2.0;" x1="940" x2="1458" y1="366.5938" y2="366.5938"/><text fill="#000000" font-family="sans-serif" font-size="11" font-weight="bold" lengthAdjust="spacing" textLength="71" x="945" y="377.2285">[Cache Miss]</text><polygon fill="#181818" points="1031,397.8594,1021,401.8594,1031,405.8594,1027,401.8594" style="stroke:#181818;stroke-width:1.0;"/><line style="stroke:#181818;stroke-width:1.0;stroke-dasharray:2.0,2.0;" x1="1025" x2="1264" y1="401.8594" y2="401.8594"/><text fill="#000000" font-family="sans-serif" font-size="13" lengthAdjust="spacing" textLength="38" x="1037" y="397.1172">(miss)</text><polygon fill="#181818" points="1358.5,442.4805,1368.5,446.4805,1358.5,450.4805,1362.5,446.4805" style="stroke:#181818;stroke-width:1.0;"/><line style="stroke:#181818;stroke-width:1.0;" x1="1020" x2="1364.5" y1="446.4805" y2="446.4805"/><text fill="#000000" font-family="sans-serif" font-size="13" lengthAdjust="spacing" textLength="187" x="1027" y="426.4277">SELECT stock FROM inventory</text><text fill="#000000" font-family="sans-serif" font-size="13" lengthAdjust="spacing" textLength="69" x="1027" y="441.7383">[JDBC/SQL]</text><polygon fill="#181818" points="1031,471.791,1021,475.791,1031,479.791,1027,475.791" style="stroke:#181818;stroke-width:1.0;"/><line style="stroke:#181818;stroke-width:1.0;stroke-dasharray:2.0,2.0;" x1="1025" x2="1374.5" y1="475.791" y2="475.791"/><text fill="#000000" font-family="sans-serif" font-size="13" lengthAdjust="spacing" textLength="69" x="1037" y="471.0488">stockValue</text><polygon fill="#181818" points="1248,501.1016,1258,505.1016,1248,509.1016,1252,505.1016" style="stroke:#181818;stroke-width:1.0;"/><line style="stroke:#181818;stroke-width:1.0;" x1="1020" x2="1254" y1="505.1016" y2="505.1016"/><text fill="#000000" font-family="sans-serif" font-size="13" lengthAdjust="spacing" textLength="221" x="1027" y="500.3594">SET stock:{productId} = stockValue</text><polygon fill="#181818" points="1031,530.4121,1021,534.4121,1031,538.4121,1027,534.4121" style="stroke:#181818;stroke-width:1.0;"/><line style="stroke:#181818;stroke-width:1.0;stroke-dasharray:2.0,2.0;" x1="1025" x2="1264" y1="534.4121" y2="534.4121"/><text fill="#000000" font-family="sans-serif" font-size="13" lengthAdjust="spacing" textLength="18" x="1037" y="529.6699">OK</text><polygon fill="#181818" points="831,566.7227,821,570.7227,831,574.7227,827,570.7227" style="stroke:#181818;stroke-width:1.0;"/><line style="stroke:#181818;stroke-width:1.0;stroke-dasharray:2.0,2.0;" x1="825" x2="1014" y1="570.7227" y2="570.7227"/><text fill="#000000" font-family="sans-serif" font-size="13" lengthAdjust="spacing" textLength="104" x="837" y="565.9805">{ available: true }</text><polygon fill="#181818" points="1500,611.3438,1510,615.3438,1500,619.3438,1504,615.3438" style="stroke:#181818;stroke-width:1.0;"/><line style="stroke:#181818;stroke-width:1.0;" x1="820" x2="1506" y1="615.3438" y2="615.3438"/><text fill="#000000" font-family="sans-serif" font-size="13" lengthAdjust="spacing" textLength="140" x="827" y="595.291">INSERT INTO orders ...</text><text fill="#000000" font-family="sans-serif" font-size="13" lengthAdjust="spacing" textLength="69" x="827" y="610.6016">[JDBC/SQL]</text><polygon fill="#181818" points="831,640.6543,821,644.6543,831,648.6543,827,644.6543" style="stroke:#181818;stroke-width:1.0;"/><line style="stroke:#181818;stroke-width:1.0;stroke-dasharray:2.0,2.0;" x1="825" x2="1516" y1="644.6543" y2="644.6543"/><text fill="#000000" font-family="sans-serif" font-size="13" lengthAdjust="spacing" textLength="45" x="837" y="639.9121">orderId</text><polygon fill="#181818" points="1629.5,669.9648,1639.5,673.9648,1629.5,677.9648,1633.5,673.9648" style="stroke:#181818;stroke-width:1.0;"/><line style="stroke:#181818;stroke-width:1.0;" x1="820" x2="1635.5" y1="673.9648" y2="673.9648"/><text fill="#000000" font-family="sans-serif" font-size="13" lengthAdjust="spacing" textLength="114" x="827" y="669.2227">stream replication</text><polygon fill="#181818" points="831,699.2754,821,703.2754,831,707.2754,827,703.2754" style="stroke:#181818;stroke-width:1.0;"/><line style="stroke:#181818;stroke-width:1.0;stroke-dasharray:2.0,2.0;" x1="825" x2="1645.5" y1="703.2754" y2="703.2754"/><text fill="#000000" font-family="sans-serif" font-size="13" lengthAdjust="spacing" textLength="22" x="837" y="698.5332">ack</text><polygon fill="#181818" points="1726,743.8965,1736,747.8965,1726,751.8965,1730,747.8965" style="stroke:#181818;stroke-width:1.0;"/><line style="stroke:#181818;stroke-width:1.0;" x1="820" x2="1732" y1="747.8965" y2="747.8965"/><text fill="#000000" font-family="sans-serif" font-size="13" lengthAdjust="spacing" textLength="203" x="827" y="727.8438">publish OrderCreated(orderId,...)</text><text fill="#000000" font-family="sans-serif" font-size="13" lengthAdjust="spacing" textLength="82" x="827" y="743.1543">[Kafka Topic]</text><polygon fill="#181818" points="831,773.207,821,777.207,831,781.207,827,777.207" style="stroke:#181818;stroke-width:1.0;"/><line style="stroke:#181818;stroke-width:1.0;stroke-dasharray:2.0,2.0;" x1="825" x2="1742" y1="777.207" y2="777.207"/><text fill="#000000" font-family="sans-serif" font-size="13" lengthAdjust="spacing" textLength="22" x="837" y="772.4648">ack</text><polygon fill="#181818" points="2230,802.5176,2240,806.5176,2230,810.5176,2234,806.5176" style="stroke:#181818;stroke-width:1.0;"/><line style="stroke:#181818;stroke-width:1.0;" x1="820" x2="2236" y1="806.5176" y2="806.5176"/><text fill="#000000" font-family="sans-serif" font-size="13" lengthAdjust="spacing" textLength="166" x="827" y="801.7754">emit metric(order_created)</text><polygon fill="#181818" points="2320,831.8281,2330,835.8281,2320,839.8281,2324,835.8281" style="stroke:#181818;stroke-width:1.0;"/><line style="stroke:#181818;stroke-width:1.0;" x1="820" x2="2326" y1="835.8281" y2="835.8281"/><text fill="#000000" font-family="sans-serif" font-size="13" lengthAdjust="spacing" textLength="174" x="827" y="831.0859">log "OrderCreated {orderId}"</text><polygon fill="#181818" points="556.5,861.1387,546.5,865.1387,556.5,869.1387,552.5,865.1387" style="stroke:#181818;stroke-width:1.0;"/><line style="stroke:#181818;stroke-width:1.0;stroke-dasharray:2.0,2.0;" x1="550.5" x2="814" y1="865.1387" y2="865.1387"/><text fill="#000000" font-family="sans-serif" font-size="13" lengthAdjust="spacing" textLength="141" x="562.5" y="860.3965">201 Created { orderId }</text><polygon fill="#181818" points="303.5,890.4492,293.5,894.4492,303.5,898.4492,299.5,894.4492" style="stroke:#181818;stroke-width:1.0;"/><line style="stroke:#181818;stroke-width:1.0;stroke-dasharray:2.0,2.0;" x1="297.5" x2="539.5" y1="894.4492" y2="894.4492"/><text fill="#000000" font-family="sans-serif" font-size="13" lengthAdjust="spacing" textLength="141" x="309.5" y="889.707">201 Created { orderId }</text><polygon fill="#181818" points="50.5,919.7598,40.5,923.7598,50.5,927.7598,46.5,923.7598" style="stroke:#181818;stroke-width:1.0;"/><line style="stroke:#181818;stroke-width:1.0;stroke-dasharray:2.0,2.0;" x1="44.5" x2="286.5" y1="923.7598" y2="923.7598"/><text fill="#000000" font-family="sans-serif" font-size="13" lengthAdjust="spacing" textLength="141" x="56.5" y="919.0176">201 Created { orderId }</text><text fill="#000000" font-family="sans-serif" font-size="11" lengthAdjust="spacing" textLength="140" x="1115.75" y="956.3945">asynchronous processing</text><polygon fill="#181818" points="1991,1005.3359,2001,1009.3359,1991,1013.3359,1995,1009.3359" style="stroke:#181818;stroke-width:1.0;"/><line style="stroke:#181818;stroke-width:1.0;" x1="1743" x2="1997" y1="1009.3359" y2="1009.3359"/><text fill="#000000" font-family="sans-serif" font-size="13" lengthAdjust="spacing" textLength="152" x="1750" y="989.2832">OrderCreated(orderId,...)</text><text fill="#000000" font-family="sans-serif" font-size="13" lengthAdjust="spacing" textLength="82" x="1750" y="1004.5938">[Kafka Topic]</text><polygon fill="#181818" points="1533,1049.957,1523,1053.957,1533,1057.957,1529,1053.957" style="stroke:#181818;stroke-width:1.0;"/><line style="stroke:#181818;stroke-width:1.0;" x1="1527" x2="2002" y1="1053.957" y2="1053.957"/><text fill="#000000" font-family="sans-serif" font-size="13" lengthAdjust="spacing" textLength="206" x="1539" y="1033.9043">UPDATE orders SET status='paid'</text><text fill="#000000" font-family="sans-serif" font-size="13" lengthAdjust="spacing" textLength="69" x="1539" y="1049.2148">[JDBC/SQL]</text><polygon fill="#181818" points="1991,1079.2676,2001,1083.2676,1991,1087.2676,1995,1083.2676" style="stroke:#181818;stroke-width:1.0;"/><line style="stroke:#181818;stroke-width:1.0;stroke-dasharray:2.0,2.0;" x1="1517" x2="1997" y1="1083.2676" y2="1083.2676"/><text fill="#000000" font-family="sans-serif" font-size="13" lengthAdjust="spacing" textLength="22" x="1524" y="1078.5254">ack</text><polygon fill="#181818" points="1759,1123.8887,1749,1127.8887,1759,1131.8887,1755,1127.8887" style="stroke:#181818;stroke-width:1.0;"/><line style="stroke:#181818;stroke-width:1.0;" x1="1753" x2="2002" y1="1127.8887" y2="1127.8887"/><text fill="#000000" font-family="sans-serif" font-size="13" lengthAdjust="spacing" textLength="236" x="1765" y="1107.8359">publish PaymentProcessed(orderId,...)</text><text fill="#000000" font-family="sans-serif" font-size="13" lengthAdjust="spacing" textLength="82" x="1765" y="1123.1465">[Kafka Topic]</text><polygon fill="#181818" points="1991,1153.1992,2001,1157.1992,1991,1161.1992,1995,1157.1992" style="stroke:#181818;stroke-width:1.0;"/><line style="stroke:#181818;stroke-width:1.0;stroke-dasharray:2.0,2.0;" x1="1743" x2="1997" y1="1157.1992" y2="1157.1992"/><text fill="#000000" font-family="sans-serif" font-size="13" lengthAdjust="spacing" textLength="22" x="1750" y="1152.457">ack</text><polygon fill="#181818" points="2230,1182.5098,2240,1186.5098,2230,1190.5098,2234,1186.5098" style="stroke:#181818;stroke-width:1.0;"/><line style="stroke:#181818;stroke-width:1.0;" x1="2013" x2="2236" y1="1186.5098" y2="1186.5098"/><text fill="#000000" font-family="sans-serif" font-size="13" lengthAdjust="spacing" textLength="205" x="2020" y="1181.7676">emit metric(payment_processed)</text><polygon fill="#181818" points="2320,1211.8203,2330,1215.8203,2320,1219.8203,2324,1215.8203" style="stroke:#181818;stroke-width:1.0;"/><line style="stroke:#181818;stroke-width:1.0;" x1="2008" x2="2326" y1="1215.8203" y2="1215.8203"/><text fill="#000000" font-family="sans-serif" font-size="13" lengthAdjust="spacing" textLength="207" x="2015" y="1211.0781">log "PaymentProcessed {orderId}"</text><!--SRC=[dLNBRjim4BphAnQvn0RoQey16Y1-fMxYshNSzj060KEnDc5PKaNAXM7atxiYAOcabI39IVPgPpIxd5qIAjCSHdcQI9P4GKPooIdFI2BXg3SQ7G4HW4_tnVLi33T4idzafnBm_yrFBwMGAmXPlkMKwHmCcFzkvZIFMEwagaYufMxUEDco1CNkdDmwwkVt2Lsn82AIF1B1RFYSPJ6d10QzYi541ZqhNykQ427nOL9LJ8TQSZrU5MoORMstvC-QkDNDo6w3-fpQJColR98c70lXoT89twNBPHaBgiE4qwlowE0IPjDm0UTfAKZ07cIwPia9gFy39WcF1Jm5X4g-nKDLnnsKGCIhatqpW_P3eC4bItFsoFM3n1nxnnObIKTHTIsivHCRTsgf-NXn0TDRw6nBfcuGiLPqy_tAK0ZjvmppLA1ZoxSKrFOBQXnos4OhULQChaEPqdKdozEee78SdS1VkUl-JdujvxF-VKFeU3HmY91O6HKPRuOB42NXvRvcj7gg_KnYuspup6K0vlVfeJx5X9qk66PP3T8qB1Rc9qou42yHTJQOq6qZ0V1BiKS9eU7mRjWtHS5eFfq0hm3Of2-3Nlyy_7PtZqHsgvgH0PVm3LKUqhIsF6nhENnoQG-gVhPLqzlMNkDQzGxTjUGUo1OjI1vZTWaoBnYEabkBvHxRaiuwGgBnrt0uN-1ZCGKpgcTdPqwhNPFNgynbylGfgd5aQtBHXw9i5mY98xU1N8SaJnDFHNDI7jRJGUZwG4E3TKIe1OkGh7YCkLZfN3twKSVKSuAzAOTLvoxIZ5EhFtf5wtSlwz2PpkUR3OtfRCCbR9ZCETMVVg1QIDV1cFMDW3XTcYl5A8QzaVnqP7_7MOWVe4wk3iorKRFLp5giRuTNWCr2LvS2ukeRvbLWTPzWi_5AsoLqXTYq4803HvaGPSduBgXQVMNTUkL8lVdWh4ipiAXQnkNxR72z65QJedS1aONuT9mH7Xs_RsuSzMsERQR6LUTRrhoTwJQzrxOloJ76TMKyQzrCfprabQ2kX_GCxEktJMo9Q3Z-0m00]--></g></svg>