<?xml version="1.0" encoding="us-ascii" standalone="no"?><svg xmlns="http://www.w3.org/2000/svg" xmlns:xlink="http://www.w3.org/1999/xlink" contentStyleType="text/css" height="403px" preserveAspectRatio="none" style="width:456px;height:403px;background:#FFFFFF;" version="1.1" viewBox="0 0 456 403" width="456px" zoomAndPan="magnify"><defs/><g><rect fill="#FFFFFF" height="176.1738" style="stroke:#181818;stroke-width:1.0;" width="10" x="223.5" y="128.1094"/><rect fill="#FFFFFF" height="29.3105" style="stroke:#181818;stroke-width:1.0;" width="10" x="398.5" y="188.041"/><line style="stroke:#181818;stroke-width:0.5;stroke-dasharray:5.0,5.0;" x1="39" x2="39" y1="81.4883" y2="322.2832"/><line style="stroke:#181818;stroke-width:0.5;stroke-dasharray:5.0,5.0;" x1="228.5" x2="228.5" y1="81.4883" y2="322.2832"/><line style="stroke:#181818;stroke-width:0.5;stroke-dasharray:5.0,5.0;" x1="403.5" x2="403.5" y1="81.4883" y2="322.2832"/><text fill="#000000" font-family="sans-serif" font-size="14" lengthAdjust="spacing" textLength="63" x="5" y="78.5352">Frontend</text><ellipse cx="39.5" cy="13.5" fill="#E2E2F0" rx="8" ry="8" style="stroke:#181818;stroke-width:0.5;"/><path d="M39.5,21.5 L39.5,48.5 M26.5,29.5 L52.5,29.5 M39.5,48.5 L26.5,63.5 M39.5,48.5 L52.5,63.5 " fill="none" style="stroke:#181818;stroke-width:0.5;"/><text fill="#000000" font-family="sans-serif" font-size="14" lengthAdjust="spacing" textLength="63" x="5" y="334.8184">Frontend</text><ellipse cx="39.5" cy="346.2715" fill="#E2E2F0" rx="8" ry="8" style="stroke:#181818;stroke-width:0.5;"/><path d="M39.5,354.2715 L39.5,381.2715 M26.5,362.2715 L52.5,362.2715 M39.5,381.2715 L26.5,396.2715 M39.5,381.2715 L52.5,396.2715 " fill="none" style="stroke:#181818;stroke-width:0.5;"/><rect fill="#E2E2F0" height="30.4883" rx="2.5" ry="2.5" style="stroke:#181818;stroke-width:0.5;" width="150" x="153.5" y="50"/><text fill="#000000" font-family="sans-serif" font-size="14" lengthAdjust="spacing" textLength="136" x="160.5" y="70.5352">Monolithic REST API</text><rect fill="#E2E2F0" height="30.4883" rx="2.5" ry="2.5" style="stroke:#181818;stroke-width:0.5;" width="150" x="153.5" y="321.2832"/><text fill="#000000" font-family="sans-serif" font-size="14" lengthAdjust="spacing" textLength="136" x="160.5" y="341.8184">Monolithic REST API</text><text fill="#000000" font-family="sans-serif" font-size="14" lengthAdjust="spacing" textLength="98" x="351.5" y="78.5352">User Database</text><path d="M385.5,29 C385.5,19 403.5,19 403.5,19 C403.5,19 421.5,19 421.5,29 L421.5,55 C421.5,65 403.5,65 403.5,65 C403.5,65 385.5,65 385.5,55 L385.5,29 " fill="#E2E2F0" style="stroke:#181818;stroke-width:1.5;"/><path d="M385.5,29 C385.5,39 403.5,39 403.5,39 C403.5,39 421.5,39 421.5,29 " fill="none" style="stroke:#181818;stroke-width:1.5;"/><text fill="#000000" font-family="sans-serif" font-size="14" lengthAdjust="spacing" textLength="98" x="351.5" y="334.8184">User Database</text><path d="M385.5,347.7715 C385.5,337.7715 403.5,337.7715 403.5,337.7715 C403.5,337.7715 421.5,337.7715 421.5,347.7715 L421.5,373.7715 C421.5,383.7715 403.5,383.7715 403.5,383.7715 C403.5,383.7715 385.5,383.7715 385.5,373.7715 L385.5,347.7715 " fill="#E2E2F0" style="stroke:#181818;stroke-width:1.5;"/><path d="M385.5,347.7715 C385.5,357.7715 403.5,357.7715 403.5,357.7715 C403.5,357.7715 421.5,357.7715 421.5,347.7715 " fill="none" style="stroke:#181818;stroke-width:1.5;"/><rect fill="#FFFFFF" height="176.1738" style="stroke:#181818;stroke-width:1.0;" width="10" x="223.5" y="128.1094"/><rect fill="#FFFFFF" height="29.3105" style="stroke:#181818;stroke-width:1.0;" width="10" x="398.5" y="188.041"/><polygon fill="#181818" points="211.5,124.1094,221.5,128.1094,211.5,132.1094,215.5,128.1094" style="stroke:#181818;stroke-width:1.0;"/><line style="stroke:#181818;stroke-width:1.0;" x1="39.5" x2="217.5" y1="128.1094" y2="128.1094"/><text fill="#000000" font-family="sans-serif" font-size="13" lengthAdjust="spacing" textLength="101" x="46.5" y="108.0566">POST /api/login</text><text fill="#000000" font-family="sans-serif" font-size="13" lengthAdjust="spacing" textLength="165" x="46.5" y="123.3672">{ "username", "password" }</text><polygon fill="#181818" points="386.5,184.041,396.5,188.041,386.5,192.041,390.5,188.041" style="stroke:#181818;stroke-width:1.0;"/><line style="stroke:#181818;stroke-width:1.0;" x1="233.5" x2="392.5" y1="188.041" y2="188.041"/><text fill="#000000" font-family="sans-serif" font-size="13" lengthAdjust="spacing" textLength="146" x="240.5" y="152.6777">SELECT password_hash</text><text fill="#000000" font-family="sans-serif" font-size="13" lengthAdjust="spacing" textLength="74" x="240.5" y="167.9883">FROM users</text><text fill="#000000" font-family="sans-serif" font-size="13" lengthAdjust="spacing" textLength="131" x="240.5" y="183.2988">WHERE username = ?</text><polygon fill="#181818" points="244.5,213.3516,234.5,217.3516,244.5,221.3516,240.5,217.3516" style="stroke:#181818;stroke-width:1.0;"/><line style="stroke:#181818;stroke-width:1.0;stroke-dasharray:2.0,2.0;" x1="238.5" x2="402.5" y1="217.3516" y2="217.3516"/><text fill="#000000" font-family="sans-serif" font-size="13" lengthAdjust="spacing" textLength="97" x="250.5" y="212.6094">password_hash</text><line style="stroke:#181818;stroke-width:1.0;" x1="233.5" x2="275.5" y1="246.6621" y2="246.6621"/><line style="stroke:#181818;stroke-width:1.0;" x1="275.5" x2="275.5" y1="246.6621" y2="259.6621"/><line style="stroke:#181818;stroke-width:1.0;" x1="234.5" x2="275.5" y1="259.6621" y2="259.6621"/><polygon fill="#181818" points="244.5,255.6621,234.5,259.6621,244.5,263.6621,240.5,259.6621" style="stroke:#181818;stroke-width:1.0;"/><text fill="#000000" font-family="sans-serif" font-size="13" lengthAdjust="spacing" textLength="122" x="240.5" y="241.9199">validate credentials</text><polygon fill="#181818" points="50.5,300.2832,40.5,304.2832,50.5,308.2832,46.5,304.2832" style="stroke:#181818;stroke-width:1.0;"/><line style="stroke:#181818;stroke-width:1.0;stroke-dasharray:2.0,2.0;" x1="44.5" x2="227.5" y1="304.2832" y2="304.2832"/><text fill="#000000" font-family="sans-serif" font-size="13" lengthAdjust="spacing" textLength="46" x="56.5" y="284.2305">200 OK</text><text fill="#000000" font-family="sans-serif" font-size="13" lengthAdjust="spacing" textLength="160" x="56.5" y="299.541">{ "token": "eyJhbGciOi..." }</text><!--SRC=[LP1FIyD04CNl-oc6FTkqU0oeM9FwjwIa5Iy1cUukPZ3EXjsr8k9tTrDCcXndUE_ttWogO1sidELWM8iMNI15BN80kRPi6merAIZpxGwkD_SIq4E_5ne3xj4RaC_UECZ-nwCeMmhHOs5sEPWWXKqHONDiQTxOD-AAVq1-HW3ZXv5d85lq_iiwBU5Ne0fqm61EeM8WHMgsZBnj_fJVxA2tlTRewufNPR663kihVhdBonpw3BY0gnCu5esKsRJYX2Mq6Qid1KQU0pQaEuroHXiEX8qVYwDwU4WAvui558_7suDzDonJaERxeTxVAYeeIPBk-b5mp_a3]--></g></svg>