<?xml version="1.0" encoding="us-ascii" standalone="no"?><svg xmlns="http://www.w3.org/2000/svg" xmlns:xlink="http://www.w3.org/1999/xlink" contentStyleType="text/css" height="404px" preserveAspectRatio="none" style="width:540px;height:404px;background:#FFFFFF;" version="1.1" viewBox="0 0 540 404" width="540px" zoomAndPan="magnify"><defs/><g><rect fill="#FFFFFF" height="192.4844" style="stroke:#181818;stroke-width:1.0;" width="10" x="173.5" y="112.7988"/><rect fill="#FFFFFF" height="118.5527" style="stroke:#181818;stroke-width:1.0;" width="10" x="317.5" y="142.1094"/><rect fill="#FFFFFF" height="29.3105" style="stroke:#181818;stroke-width:1.0;" width="10" x="499.5" y="186.7305"/><line style="stroke:#181818;stroke-width:0.5;stroke-dasharray:5.0,5.0;" x1="39" x2="39" y1="81.4883" y2="323.2832"/><line style="stroke:#181818;stroke-width:0.5;stroke-dasharray:5.0,5.0;" x1="178" x2="178" y1="81.4883" y2="323.2832"/><line style="stroke:#181818;stroke-width:0.5;stroke-dasharray:5.0,5.0;" x1="322" x2="322" y1="81.4883" y2="323.2832"/><line style="stroke:#181818;stroke-width:0.5;stroke-dasharray:5.0,5.0;" x1="504" x2="504" y1="81.4883" y2="323.2832"/><text fill="#000000" font-family="sans-serif" font-size="14" lengthAdjust="spacing" textLength="63" x="5" y="78.5352">Frontend</text><ellipse cx="39.5" cy="13.5" fill="#E2E2F0" rx="8" ry="8" style="stroke:#181818;stroke-width:0.5;"/><path d="M39.5,21.5 L39.5,48.5 M26.5,29.5 L52.5,29.5 M39.5,48.5 L26.5,63.5 M39.5,48.5 L52.5,63.5 " fill="none" style="stroke:#181818;stroke-width:0.5;"/><text fill="#000000" font-family="sans-serif" font-size="14" lengthAdjust="spacing" textLength="63" x="5" y="335.8184">Frontend</text><ellipse cx="39.5" cy="347.2715" fill="#E2E2F0" rx="8" ry="8" style="stroke:#181818;stroke-width:0.5;"/><path d="M39.5,355.2715 L39.5,382.2715 M26.5,363.2715 L52.5,363.2715 M39.5,382.2715 L26.5,397.2715 M39.5,382.2715 L52.5,397.2715 " fill="none" style="stroke:#181818;stroke-width:0.5;"/><rect fill="#E2E2F0" height="30.4883" rx="2.5" ry="2.5" style="stroke:#181818;stroke-width:0.5;" width="97" x="130" y="50"/><text fill="#000000" font-family="sans-serif" font-size="14" lengthAdjust="spacing" textLength="83" x="137" y="70.5352">API Gateway</text><rect fill="#E2E2F0" height="30.4883" rx="2.5" ry="2.5" style="stroke:#181818;stroke-width:0.5;" width="97" x="130" y="322.2832"/><text fill="#000000" font-family="sans-serif" font-size="14" lengthAdjust="spacing" textLength="83" x="137" y="342.8184">API Gateway</text><rect fill="#E2E2F0" height="30.4883" rx="2.5" ry="2.5" style="stroke:#181818;stroke-width:0.5;" width="123" x="261" y="50"/><text fill="#000000" font-family="sans-serif" font-size="14" lengthAdjust="spacing" textLength="109" x="268" y="70.5352">Backend Service</text><rect fill="#E2E2F0" height="30.4883" rx="2.5" ry="2.5" style="stroke:#181818;stroke-width:0.5;" width="123" x="261" y="322.2832"/><text fill="#000000" font-family="sans-serif" font-size="14" lengthAdjust="spacing" textLength="109" x="268" y="342.8184">Backend Service</text><text fill="#000000" font-family="sans-serif" font-size="14" lengthAdjust="spacing" textLength="63" x="470" y="78.5352">Database</text><path d="M486.5,29 C486.5,19 504.5,19 504.5,19 C504.5,19 522.5,19 522.5,29 L522.5,55 C522.5,65 504.5,65 504.5,65 C504.5,65 486.5,65 486.5,55 L486.5,29 " fill="#E2E2F0" style="stroke:#181818;stroke-width:1.5;"/><path d="M486.5,29 C486.5,39 504.5,39 504.5,39 C504.5,39 522.5,39 522.5,29 " fill="none" style="stroke:#181818;stroke-width:1.5;"/><text fill="#000000" font-family="sans-serif" font-size="14" lengthAdjust="spacing" textLength="63" x="470" y="335.8184">Database</text><path d="M486.5,348.7715 C486.5,338.7715 504.5,338.7715 504.5,338.7715 C504.5,338.7715 522.5,338.7715 522.5,348.7715 L522.5,374.7715 C522.5,384.7715 504.5,384.7715 504.5,384.7715 C504.5,384.7715 486.5,384.7715 486.5,374.7715 L486.5,348.7715 " fill="#E2E2F0" style="stroke:#181818;stroke-width:1.5;"/><path d="M486.5,348.7715 C486.5,358.7715 504.5,358.7715 504.5,358.7715 C504.5,358.7715 522.5,358.7715 522.5,348.7715 " fill="none" style="stroke:#181818;stroke-width:1.5;"/><rect fill="#FFFFFF" height="192.4844" style="stroke:#181818;stroke-width:1.0;" width="10" x="173.5" y="112.7988"/><rect fill="#FFFFFF" height="118.5527" style="stroke:#181818;stroke-width:1.0;" width="10" x="317.5" y="142.1094"/><rect fill="#FFFFFF" height="29.3105" style="stroke:#181818;stroke-width:1.0;" width="10" x="499.5" y="186.7305"/><polygon fill="#181818" points="161.5,108.7988,171.5,112.7988,161.5,116.7988,165.5,112.7988" style="stroke:#181818;stroke-width:1.0;"/><line style="stroke:#181818;stroke-width:1.0;" x1="39.5" x2="167.5" y1="112.7988" y2="112.7988"/><text fill="#000000" font-family="sans-serif" font-size="13" lengthAdjust="spacing" textLength="115" x="46.5" y="108.0566">GET /api/resource</text><polygon fill="#181818" points="305.5,138.1094,315.5,142.1094,305.5,146.1094,309.5,142.1094" style="stroke:#181818;stroke-width:1.0;"/><line style="stroke:#181818;stroke-width:1.0;" x1="183.5" x2="311.5" y1="142.1094" y2="142.1094"/><text fill="#000000" font-family="sans-serif" font-size="13" lengthAdjust="spacing" textLength="115" x="190.5" y="137.3672">GET /api/resource</text><polygon fill="#181818" points="487.5,182.7305,497.5,186.7305,487.5,190.7305,491.5,186.7305" style="stroke:#181818;stroke-width:1.0;"/><line style="stroke:#181818;stroke-width:1.0;" x1="327.5" x2="493.5" y1="186.7305" y2="186.7305"/><text fill="#000000" font-family="sans-serif" font-size="13" lengthAdjust="spacing" textLength="153" x="334.5" y="166.6777">SELECT * FROM resource</text><text fill="#000000" font-family="sans-serif" font-size="13" lengthAdjust="spacing" textLength="82" x="334.5" y="181.9883">WHERE id = ?</text><polygon fill="#181818" points="338.5,212.041,328.5,216.041,338.5,220.041,334.5,216.041" style="stroke:#181818;stroke-width:1.0;"/><line style="stroke:#181818;stroke-width:1.0;stroke-dasharray:2.0,2.0;" x1="332.5" x2="503.5" y1="216.041" y2="216.041"/><text fill="#000000" font-family="sans-serif" font-size="13" lengthAdjust="spacing" textLength="85" x="344.5" y="211.2988">resource data</text><polygon fill="#181818" points="194.5,256.6621,184.5,260.6621,194.5,264.6621,190.5,260.6621" style="stroke:#181818;stroke-width:1.0;"/><line style="stroke:#181818;stroke-width:1.0;stroke-dasharray:2.0,2.0;" x1="188.5" x2="321.5" y1="260.6621" y2="260.6621"/><text fill="#000000" font-family="sans-serif" font-size="13" lengthAdjust="spacing" textLength="46" x="200.5" y="240.6094">200 OK</text><text fill="#000000" font-family="sans-serif" font-size="13" lengthAdjust="spacing" textLength="101" x="200.5" y="255.9199">{ resource data }</text><polygon fill="#181818" points="50.5,301.2832,40.5,305.2832,50.5,309.2832,46.5,305.2832" style="stroke:#181818;stroke-width:1.0;"/><line style="stroke:#181818;stroke-width:1.0;stroke-dasharray:2.0,2.0;" x1="44.5" x2="177.5" y1="305.2832" y2="305.2832"/><text fill="#000000" font-family="sans-serif" font-size="13" lengthAdjust="spacing" textLength="46" x="56.5" y="285.2305">200 OK</text><text fill="#000000" font-family="sans-serif" font-size="13" lengthAdjust="spacing" textLength="101" x="56.5" y="300.541">{ resource data }</text><!--SRC=[ZP31Qy8m6CNl-IiUFGvAnUF0ZTN6RhZHeO8NBvzf3a58Ineh8llVzwqssbw6joJV-ttllP3obSF2LTPhMugQd3VAr6GzehVl3-JazOdE4QW1t_FjM9AIEZ27jNQjKRgJzM-Y94zxQZIYh3zruomL8lWXVhbknJDokK52jKcSRggZKrgGygPb_zvON9MC1DT_eH1313M3MShCMdxA-GPFMAoABmHmPxVlSYLXIipmUb_3SPcAHww1mLz5KUgX-6utw3QTJ50iT_OoHl4pX6-1-vxCt_xfmHKT-Gi0]--></g></svg>