<?xml version="1.0" encoding="us-ascii" standalone="no"?><svg xmlns="http://www.w3.org/2000/svg" xmlns:xlink="http://www.w3.org/1999/xlink" contentStyleType="text/css" height="523px" preserveAspectRatio="none" style="width:539px;height:523px;background:#FFFFFF;" version="1.1" viewBox="0 0 539 523" width="539px" zoomAndPan="magnify"><defs/><g><rect fill="#FFFFFF" height="311.3711" style="stroke:#181818;stroke-width:1.0;" width="10" x="174.5" y="112.7988"/><rect fill="#FFFFFF" height="53.6211" style="stroke:#181818;stroke-width:1.0;" width="10" x="410.5" y="142.1094"/><rect fill="#FFFFFF" height="29.3105" style="stroke:#181818;stroke-width:1.0;" width="10" x="410.5" y="343.2383"/><rect fill="#FFFFFF" height="29.3105" style="stroke:#181818;stroke-width:1.0;" width="10" x="483" y="284.6172"/><rect fill="none" height="223.4395" style="stroke:#000000;stroke-width:1.5;" width="424.5" x="108" y="157.1094"/><line style="stroke:#181818;stroke-width:0.5;stroke-dasharray:5.0,5.0;" x1="39" x2="39" y1="81.4883" y2="442.1699"/><line style="stroke:#181818;stroke-width:0.5;stroke-dasharray:5.0,5.0;" x1="179" x2="179" y1="81.4883" y2="442.1699"/><line style="stroke:#181818;stroke-width:0.5;stroke-dasharray:5.0,5.0;" x1="415.5" x2="415.5" y1="81.4883" y2="442.1699"/><line style="stroke:#181818;stroke-width:0.5;stroke-dasharray:5.0,5.0;" x1="487.5" x2="487.5" y1="81.4883" y2="442.1699"/><text fill="#000000" font-family="sans-serif" font-size="14" lengthAdjust="spacing" textLength="63" x="5" y="78.5352">Frontend</text><ellipse cx="39.5" cy="13.5" fill="#E2E2F0" rx="8" ry="8" style="stroke:#181818;stroke-width:0.5;"/><path d="M39.5,21.5 L39.5,48.5 M26.5,29.5 L52.5,29.5 M39.5,48.5 L26.5,63.5 M39.5,48.5 L52.5,63.5 " fill="none" style="stroke:#181818;stroke-width:0.5;"/><text fill="#000000" font-family="sans-serif" font-size="14" lengthAdjust="spacing" textLength="63" x="5" y="454.7051">Frontend</text><ellipse cx="39.5" cy="466.1582" fill="#E2E2F0" rx="8" ry="8" style="stroke:#181818;stroke-width:0.5;"/><path d="M39.5,474.1582 L39.5,501.1582 M26.5,482.1582 L52.5,482.1582 M39.5,501.1582 L26.5,516.1582 M39.5,501.1582 L52.5,516.1582 " fill="none" style="stroke:#181818;stroke-width:0.5;"/><rect fill="#E2E2F0" height="30.4883" rx="2.5" ry="2.5" style="stroke:#181818;stroke-width:0.5;" width="123" x="118" y="50"/><text fill="#000000" font-family="sans-serif" font-size="14" lengthAdjust="spacing" textLength="109" x="125" y="70.5352">Backend Service</text><rect fill="#E2E2F0" height="30.4883" rx="2.5" ry="2.5" style="stroke:#181818;stroke-width:0.5;" width="123" x="118" y="441.1699"/><text fill="#000000" font-family="sans-serif" font-size="14" lengthAdjust="spacing" textLength="109" x="125" y="461.7051">Backend Service</text><rect fill="#E2E2F0" height="30.4883" rx="2.5" ry="2.5" style="stroke:#181818;stroke-width:0.5;" width="56" x="387.5" y="50"/><text fill="#000000" font-family="sans-serif" font-size="14" lengthAdjust="spacing" textLength="42" x="394.5" y="70.5352">Cache</text><rect fill="#E2E2F0" height="30.4883" rx="2.5" ry="2.5" style="stroke:#181818;stroke-width:0.5;" width="56" x="387.5" y="441.1699"/><text fill="#000000" font-family="sans-serif" font-size="14" lengthAdjust="spacing" textLength="42" x="394.5" y="461.7051">Cache</text><text fill="#000000" font-family="sans-serif" font-size="14" lengthAdjust="spacing" textLength="63" x="453.5" y="78.5352">Database</text><path d="M470,29 C470,19 488,19 488,19 C488,19 506,19 506,29 L506,55 C506,65 488,65 488,65 C488,65 470,65 470,55 L470,29 " fill="#E2E2F0" style="stroke:#181818;stroke-width:1.5;"/><path d="M470,29 C470,39 488,39 488,39 C488,39 506,39 506,29 " fill="none" style="stroke:#181818;stroke-width:1.5;"/><text fill="#000000" font-family="sans-serif" font-size="14" lengthAdjust="spacing" textLength="63" x="453.5" y="454.7051">Database</text><path d="M470,467.6582 C470,457.6582 488,457.6582 488,457.6582 C488,457.6582 506,457.6582 506,467.6582 L506,493.6582 C506,503.6582 488,503.6582 488,503.6582 C488,503.6582 470,503.6582 470,493.6582 L470,467.6582 " fill="#E2E2F0" style="stroke:#181818;stroke-width:1.5;"/><path d="M470,467.6582 C470,477.6582 488,477.6582 488,477.6582 C488,477.6582 506,477.6582 506,467.6582 " fill="none" style="stroke:#181818;stroke-width:1.5;"/><rect fill="#FFFFFF" height="311.3711" style="stroke:#181818;stroke-width:1.0;" width="10" x="174.5" y="112.7988"/><rect fill="#FFFFFF" height="53.6211" style="stroke:#181818;stroke-width:1.0;" width="10" x="410.5" y="142.1094"/><rect fill="#FFFFFF" height="29.3105" style="stroke:#181818;stroke-width:1.0;" width="10" x="410.5" y="343.2383"/><rect fill="#FFFFFF" height="29.3105" style="stroke:#181818;stroke-width:1.0;" width="10" x="483" y="284.6172"/><polygon fill="#181818" points="162.5,108.7988,172.5,112.7988,162.5,116.7988,166.5,112.7988" style="stroke:#181818;stroke-width:1.0;"/><line style="stroke:#181818;stroke-width:1.0;" x1="39.5" x2="168.5" y1="112.7988" y2="112.7988"/><text fill="#000000" font-family="sans-serif" font-size="13" lengthAdjust="spacing" textLength="116" x="46.5" y="108.0566">GET /resource/{id}</text><polygon fill="#181818" points="398.5,138.1094,408.5,142.1094,398.5,146.1094,402.5,142.1094" style="stroke:#181818;stroke-width:1.0;"/><line style="stroke:#181818;stroke-width:1.0;" x1="184.5" x2="404.5" y1="142.1094" y2="142.1094"/><text fill="#000000" font-family="sans-serif" font-size="13" lengthAdjust="spacing" textLength="106" x="191.5" y="137.3672">GET resource:{id}</text><path d="M108,157.1094 L170,157.1094 L170,164.4199 L160,174.4199 L108,174.4199 L108,157.1094 " fill="#EEEEEE" style="stroke:#000000;stroke-width:1.5;"/><rect fill="none" height="223.4395" style="stroke:#000000;stroke-width:1.5;" width="424.5" x="108" y="157.1094"/><text fill="#000000" font-family="sans-serif" font-size="13" font-weight="bold" lengthAdjust="spacing" textLength="17" x="123" y="170.6777">alt</text><text fill="#000000" font-family="sans-serif" font-size="11" font-weight="bold" lengthAdjust="spacing" textLength="62" x="185" y="169.7441">[Cache Hit]</text><polygon fill="#181818" points="195.5,191.7305,185.5,195.7305,195.5,199.7305,191.5,195.7305" style="stroke:#181818;stroke-width:1.0;"/><line style="stroke:#181818;stroke-width:1.0;stroke-dasharray:2.0,2.0;" x1="189.5" x2="414.5" y1="195.7305" y2="195.7305"/><text fill="#000000" font-family="sans-serif" font-size="13" lengthAdjust="spacing" textLength="85" x="201.5" y="190.9883">resource data</text><line style="stroke:#000000;stroke-width:1.0;stroke-dasharray:2.0,2.0;" x1="108" x2="532.5" y1="204.7305" y2="204.7305"/><text fill="#000000" font-family="sans-serif" font-size="11" font-weight="bold" lengthAdjust="spacing" textLength="71" x="113" y="215.3652">[Cache Miss]</text><polygon fill="#181818" points="195.5,235.9961,185.5,239.9961,195.5,243.9961,191.5,239.9961" style="stroke:#181818;stroke-width:1.0;"/><line style="stroke:#181818;stroke-width:1.0;stroke-dasharray:2.0,2.0;" x1="189.5" x2="414.5" y1="239.9961" y2="239.9961"/><text fill="#000000" font-family="sans-serif" font-size="13" lengthAdjust="spacing" textLength="47" x="201.5" y="235.2539">(empty)</text><polygon fill="#181818" points="471,280.6172,481,284.6172,471,288.6172,475,284.6172" style="stroke:#181818;stroke-width:1.0;"/><line style="stroke:#181818;stroke-width:1.0;" x1="184.5" x2="477" y1="284.6172" y2="284.6172"/><text fill="#000000" font-family="sans-serif" font-size="13" lengthAdjust="spacing" textLength="153" x="191.5" y="264.5645">SELECT * FROM resource</text><text fill="#000000" font-family="sans-serif" font-size="13" lengthAdjust="spacing" textLength="97" x="191.5" y="279.875">WHERE id = {id}</text><polygon fill="#181818" points="195.5,309.9277,185.5,313.9277,195.5,317.9277,191.5,313.9277" style="stroke:#181818;stroke-width:1.0;"/><line style="stroke:#181818;stroke-width:1.0;stroke-dasharray:2.0,2.0;" x1="189.5" x2="487" y1="313.9277" y2="313.9277"/><text fill="#000000" font-family="sans-serif" font-size="13" lengthAdjust="spacing" textLength="85" x="201.5" y="309.1855">resource data</text><polygon fill="#181818" points="398.5,339.2383,408.5,343.2383,398.5,347.2383,402.5,343.2383" style="stroke:#181818;stroke-width:1.0;"/><line style="stroke:#181818;stroke-width:1.0;" x1="184.5" x2="404.5" y1="343.2383" y2="343.2383"/><text fill="#000000" font-family="sans-serif" font-size="13" lengthAdjust="spacing" textLength="207" x="191.5" y="338.4961">SET resource:{id} = resource data</text><polygon fill="#181818" points="195.5,368.5488,185.5,372.5488,195.5,376.5488,191.5,372.5488" style="stroke:#181818;stroke-width:1.0;"/><line style="stroke:#181818;stroke-width:1.0;stroke-dasharray:2.0,2.0;" x1="189.5" x2="414.5" y1="372.5488" y2="372.5488"/><text fill="#000000" font-family="sans-serif" font-size="13" lengthAdjust="spacing" textLength="18" x="201.5" y="367.8066">OK</text><polygon fill="#181818" points="50.5,420.1699,40.5,424.1699,50.5,428.1699,46.5,424.1699" style="stroke:#181818;stroke-width:1.0;"/><line style="stroke:#181818;stroke-width:1.0;stroke-dasharray:2.0,2.0;" x1="44.5" x2="178.5" y1="424.1699" y2="424.1699"/><text fill="#000000" font-family="sans-serif" font-size="13" lengthAdjust="spacing" textLength="46" x="56.5" y="404.1172">200 OK</text><text fill="#000000" font-family="sans-serif" font-size="13" lengthAdjust="spacing" textLength="93" x="56.5" y="419.4277">{resource data}</text><!--SRC=[bLB1QiCm3BtxAqHEsw2qx1ZO3cdS5RPIQ0gxzABPWfbrIR2zmYZzzpcE7UfiESmdMT9xJtes2jjeMEccjbHBrgAsIgWMQmjPWUB39Q4YVLA2Ca038PSsBb6yzsKVCOaMtz0GP6M8VB4i68jAC7kCN9334z_3N9DflhIW-Ld92qDXrGaj3OeijZkabmcu2CjJM3y97creNYlBm9t-Dala8mLqW_ikIICYEfeGmaOPCqbrGv-j_RxzcyHdhzOe2uUe-0jVxk4ELhljPXZbKB-k-Ow3al00VhCEE_0vAxkx8_Z79ft_emcYaTNOIAVwcskqpfG7s-S93vDNT93XC-HmlrWutA4-9weNTaKIa3y0]--></g></svg>