<?xml version="1.0" encoding="us-ascii" standalone="no"?><svg xmlns="http://www.w3.org/2000/svg" xmlns:xlink="http://www.w3.org/1999/xlink" contentStyleType="text/css" height="553px" preserveAspectRatio="none" style="width:1067px;height:553px;background:#FFFFFF;" version="1.1" viewBox="0 0 1067 553" width="1067px" zoomAndPan="magnify"><defs/><g><rect fill="#FFFFFF" height="341.7266" style="stroke:#181818;stroke-width:1.0;" width="10" x="194.5" y="112.7988"/><rect fill="#FFFFFF" height="87.9316" style="stroke:#181818;stroke-width:1.0;" width="10" x="345.5" y="166.4199"/><rect fill="#FFFFFF" height="29.3105" style="stroke:#181818;stroke-width:1.0;" width="10" x="593.5" y="195.7305"/><rect fill="#FFFFFF" height="87.9316" style="stroke:#181818;stroke-width:1.0;" width="10" x="708.5" y="314.9727"/><rect fill="#FFFFFF" height="29.3105" style="stroke:#181818;stroke-width:1.0;" width="10" x="989.5" y="344.2832"/><rect fill="none" height="134.5527" style="stroke:#000000;stroke-width:1.5;" width="519.5" x="141" y="127.7988"/><rect fill="none" height="134.5527" style="stroke:#000000;stroke-width:1.5;" width="920" x="141" y="276.3516"/><line style="stroke:#181818;stroke-width:0.5;stroke-dasharray:5.0,5.0;" x1="39" x2="39" y1="81.4883" y2="472.5254"/><line style="stroke:#181818;stroke-width:0.5;stroke-dasharray:5.0,5.0;" x1="199" x2="199" y1="81.4883" y2="472.5254"/><line style="stroke:#181818;stroke-width:0.5;stroke-dasharray:5.0,5.0;" x1="350" x2="350" y1="81.4883" y2="472.5254"/><line style="stroke:#181818;stroke-width:0.5;stroke-dasharray:5.0,5.0;" x1="598.5" x2="598.5" y1="81.4883" y2="472.5254"/><line style="stroke:#181818;stroke-width:0.5;stroke-dasharray:5.0,5.0;" x1="713.5" x2="713.5" y1="81.4883" y2="472.5254"/><line style="stroke:#181818;stroke-width:0.5;stroke-dasharray:5.0,5.0;" x1="994" x2="994" y1="81.4883" y2="472.5254"/><text fill="#000000" font-family="sans-serif" font-size="14" lengthAdjust="spacing" textLength="63" x="5" y="78.5352">Frontend</text><ellipse cx="39.5" cy="13.5" fill="#E2E2F0" rx="8" ry="8" style="stroke:#181818;stroke-width:0.5;"/><path d="M39.5,21.5 L39.5,48.5 M26.5,29.5 L52.5,29.5 M39.5,48.5 L26.5,63.5 M39.5,48.5 L52.5,63.5 " fill="none" style="stroke:#181818;stroke-width:0.5;"/><text fill="#000000" font-family="sans-serif" font-size="14" lengthAdjust="spacing" textLength="63" x="5" y="485.0605">Frontend</text><ellipse cx="39.5" cy="496.5137" fill="#E2E2F0" rx="8" ry="8" style="stroke:#181818;stroke-width:0.5;"/><path d="M39.5,504.5137 L39.5,531.5137 M26.5,512.5137 L52.5,512.5137 M39.5,531.5137 L26.5,546.5137 M39.5,531.5137 L52.5,546.5137 " fill="none" style="stroke:#181818;stroke-width:0.5;"/><rect fill="#E2E2F0" height="30.4883" rx="2.5" ry="2.5" style="stroke:#181818;stroke-width:0.5;" width="97" x="151" y="50"/><text fill="#000000" font-family="sans-serif" font-size="14" lengthAdjust="spacing" textLength="83" x="158" y="70.5352">API Gateway</text><rect fill="#E2E2F0" height="30.4883" rx="2.5" ry="2.5" style="stroke:#181818;stroke-width:0.5;" width="97" x="151" y="471.5254"/><text fill="#000000" font-family="sans-serif" font-size="14" lengthAdjust="spacing" textLength="83" x="158" y="492.0605">API Gateway</text><rect fill="#E2E2F0" height="30.4883" rx="2.5" ry="2.5" style="stroke:#181818;stroke-width:0.5;" width="97" x="302" y="50"/><text fill="#000000" font-family="sans-serif" font-size="14" lengthAdjust="spacing" textLength="83" x="309" y="70.5352">User Service</text><rect fill="#E2E2F0" height="30.4883" rx="2.5" ry="2.5" style="stroke:#181818;stroke-width:0.5;" width="97" x="302" y="471.5254"/><text fill="#000000" font-family="sans-serif" font-size="14" lengthAdjust="spacing" textLength="83" x="309" y="492.0605">User Service</text><text fill="#000000" font-family="sans-serif" font-size="14" lengthAdjust="spacing" textLength="98" x="546.5" y="78.5352">User Database</text><path d="M580.5,29 C580.5,19 598.5,19 598.5,19 C598.5,19 616.5,19 616.5,29 L616.5,55 C616.5,65 598.5,65 598.5,65 C598.5,65 580.5,65 580.5,55 L580.5,29 " fill="#E2E2F0" style="stroke:#181818;stroke-width:1.5;"/><path d="M580.5,29 C580.5,39 598.5,39 598.5,39 C598.5,39 616.5,39 616.5,29 " fill="none" style="stroke:#181818;stroke-width:1.5;"/><text fill="#000000" font-family="sans-serif" font-size="14" lengthAdjust="spacing" textLength="98" x="546.5" y="485.0605">User Database</text><path d="M580.5,498.0137 C580.5,488.0137 598.5,488.0137 598.5,488.0137 C598.5,488.0137 616.5,488.0137 616.5,498.0137 L616.5,524.0137 C616.5,534.0137 598.5,534.0137 598.5,534.0137 C598.5,534.0137 580.5,534.0137 580.5,524.0137 L580.5,498.0137 " fill="#E2E2F0" style="stroke:#181818;stroke-width:1.5;"/><path d="M580.5,498.0137 C580.5,508.0137 598.5,508.0137 598.5,508.0137 C598.5,508.0137 616.5,508.0137 616.5,498.0137 " fill="none" style="stroke:#181818;stroke-width:1.5;"/><rect fill="#E2E2F0" height="30.4883" rx="2.5" ry="2.5" style="stroke:#181818;stroke-width:0.5;" width="106" x="660.5" y="50"/><text fill="#000000" font-family="sans-serif" font-size="14" lengthAdjust="spacing" textLength="92" x="667.5" y="70.5352">Order Service</text><rect fill="#E2E2F0" height="30.4883" rx="2.5" ry="2.5" style="stroke:#181818;stroke-width:0.5;" width="106" x="660.5" y="471.5254"/><text fill="#000000" font-family="sans-serif" font-size="14" lengthAdjust="spacing" textLength="92" x="667.5" y="492.0605">Order Service</text><text fill="#000000" font-family="sans-serif" font-size="14" lengthAdjust="spacing" textLength="107" x="938" y="78.5352">Order Database</text><path d="M976.5,29 C976.5,19 994.5,19 994.5,19 C994.5,19 1012.5,19 1012.5,29 L1012.5,55 C1012.5,65 994.5,65 994.5,65 C994.5,65 976.5,65 976.5,55 L976.5,29 " fill="#E2E2F0" style="stroke:#181818;stroke-width:1.5;"/><path d="M976.5,29 C976.5,39 994.5,39 994.5,39 C994.5,39 1012.5,39 1012.5,29 " fill="none" style="stroke:#181818;stroke-width:1.5;"/><text fill="#000000" font-family="sans-serif" font-size="14" lengthAdjust="spacing" textLength="107" x="938" y="485.0605">Order Database</text><path d="M976.5,498.0137 C976.5,488.0137 994.5,488.0137 994.5,488.0137 C994.5,488.0137 1012.5,488.0137 1012.5,498.0137 L1012.5,524.0137 C1012.5,534.0137 994.5,534.0137 994.5,534.0137 C994.5,534.0137 976.5,534.0137 976.5,524.0137 L976.5,498.0137 " fill="#E2E2F0" style="stroke:#181818;stroke-width:1.5;"/><path d="M976.5,498.0137 C976.5,508.0137 994.5,508.0137 994.5,508.0137 C994.5,508.0137 1012.5,508.0137 1012.5,498.0137 " fill="none" style="stroke:#181818;stroke-width:1.5;"/><rect fill="#FFFFFF" height="341.7266" style="stroke:#181818;stroke-width:1.0;" width="10" x="194.5" y="112.7988"/><rect fill="#FFFFFF" height="87.9316" style="stroke:#181818;stroke-width:1.0;" width="10" x="345.5" y="166.4199"/><rect fill="#FFFFFF" height="29.3105" style="stroke:#181818;stroke-width:1.0;" width="10" x="593.5" y="195.7305"/><rect fill="#FFFFFF" height="87.9316" style="stroke:#181818;stroke-width:1.0;" width="10" x="708.5" y="314.9727"/><rect fill="#FFFFFF" height="29.3105" style="stroke:#181818;stroke-width:1.0;" width="10" x="989.5" y="344.2832"/><polygon fill="#181818" points="182.5,108.7988,192.5,112.7988,182.5,116.7988,186.5,112.7988" style="stroke:#181818;stroke-width:1.0;"/><line style="stroke:#181818;stroke-width:1.0;" x1="39.5" x2="188.5" y1="112.7988" y2="112.7988"/><text fill="#000000" font-family="sans-serif" font-size="13" lengthAdjust="spacing" textLength="127" x="46.5" y="108.0566">GET /api/dashboard</text><path d="M141,127.7988 L209,127.7988 L209,135.1094 L199,145.1094 L141,145.1094 L141,127.7988 " fill="#EEEEEE" style="stroke:#000000;stroke-width:1.5;"/><rect fill="none" height="134.5527" style="stroke:#000000;stroke-width:1.5;" width="519.5" x="141" y="127.7988"/><text fill="#000000" font-family="sans-serif" font-size="13" font-weight="bold" lengthAdjust="spacing" textLength="23" x="156" y="141.3672">par</text><text fill="#000000" font-family="sans-serif" font-size="11" font-weight="bold" lengthAdjust="spacing" textLength="108" x="224" y="140.4336">[Fetch User Profile]</text><polygon fill="#181818" points="333.5,162.4199,343.5,166.4199,333.5,170.4199,337.5,166.4199" style="stroke:#181818;stroke-width:1.0;"/><line style="stroke:#181818;stroke-width:1.0;" x1="204.5" x2="339.5" y1="166.4199" y2="166.4199"/><text fill="#000000" font-family="sans-serif" font-size="13" lengthAdjust="spacing" textLength="122" x="211.5" y="161.6777">GET /api/users/{id}</text><polygon fill="#181818" points="581.5,191.7305,591.5,195.7305,581.5,199.7305,585.5,195.7305" style="stroke:#181818;stroke-width:1.0;"/><line style="stroke:#181818;stroke-width:1.0;" x1="355.5" x2="587.5" y1="195.7305" y2="195.7305"/><text fill="#000000" font-family="sans-serif" font-size="13" lengthAdjust="spacing" textLength="219" x="362.5" y="190.9883">SELECT * FROM users WHERE id = ?</text><polygon fill="#181818" points="366.5,221.041,356.5,225.041,366.5,229.041,362.5,225.041" style="stroke:#181818;stroke-width:1.0;"/><line style="stroke:#181818;stroke-width:1.0;stroke-dasharray:2.0,2.0;" x1="360.5" x2="597.5" y1="225.041" y2="225.041"/><text fill="#000000" font-family="sans-serif" font-size="13" lengthAdjust="spacing" textLength="58" x="372.5" y="220.2988">user data</text><polygon fill="#181818" points="215.5,250.3516,205.5,254.3516,215.5,258.3516,211.5,254.3516" style="stroke:#181818;stroke-width:1.0;"/><line style="stroke:#181818;stroke-width:1.0;stroke-dasharray:2.0,2.0;" x1="209.5" x2="349.5" y1="254.3516" y2="254.3516"/><text fill="#000000" font-family="sans-serif" font-size="13" lengthAdjust="spacing" textLength="58" x="221.5" y="249.6094">user data</text><path d="M141,276.3516 L209,276.3516 L209,283.6621 L199,293.6621 L141,293.6621 L141,276.3516 " fill="#EEEEEE" style="stroke:#000000;stroke-width:1.5;"/><rect fill="none" height="134.5527" style="stroke:#000000;stroke-width:1.5;" width="920" x="141" y="276.3516"/><text fill="#000000" font-family="sans-serif" font-size="13" font-weight="bold" lengthAdjust="spacing" textLength="23" x="156" y="289.9199">par</text><text fill="#000000" font-family="sans-serif" font-size="11" font-weight="bold" lengthAdjust="spacing" textLength="108" x="224" y="288.9863">[Fetch User Orders]</text><polygon fill="#181818" points="696.5,310.9727,706.5,314.9727,696.5,318.9727,700.5,314.9727" style="stroke:#181818;stroke-width:1.0;"/><line style="stroke:#181818;stroke-width:1.0;" x1="204.5" x2="702.5" y1="314.9727" y2="314.9727"/><text fill="#000000" font-family="sans-serif" font-size="13" lengthAdjust="spacing" textLength="175" x="211.5" y="310.2305">GET /api/orders?userId={id}</text><polygon fill="#181818" points="977.5,340.2832,987.5,344.2832,977.5,348.2832,981.5,344.2832" style="stroke:#181818;stroke-width:1.0;"/><line style="stroke:#181818;stroke-width:1.0;" x1="718.5" x2="983.5" y1="344.2832" y2="344.2832"/><text fill="#000000" font-family="sans-serif" font-size="13" lengthAdjust="spacing" textLength="252" x="725.5" y="339.541">SELECT * FROM orders WHERE userId = ?</text><polygon fill="#181818" points="729.5,369.5938,719.5,373.5938,729.5,377.5938,725.5,373.5938" style="stroke:#181818;stroke-width:1.0;"/><line style="stroke:#181818;stroke-width:1.0;stroke-dasharray:2.0,2.0;" x1="723.5" x2="993.5" y1="373.5938" y2="373.5938"/><text fill="#000000" font-family="sans-serif" font-size="13" lengthAdjust="spacing" textLength="57" x="735.5" y="368.8516">order list</text><polygon fill="#181818" points="215.5,398.9043,205.5,402.9043,215.5,406.9043,211.5,402.9043" style="stroke:#181818;stroke-width:1.0;"/><line style="stroke:#181818;stroke-width:1.0;stroke-dasharray:2.0,2.0;" x1="209.5" x2="712.5" y1="402.9043" y2="402.9043"/><text fill="#000000" font-family="sans-serif" font-size="13" lengthAdjust="spacing" textLength="57" x="221.5" y="398.1621">order list</text><polygon fill="#181818" points="50.5,450.5254,40.5,454.5254,50.5,458.5254,46.5,454.5254" style="stroke:#181818;stroke-width:1.0;"/><line style="stroke:#181818;stroke-width:1.0;stroke-dasharray:2.0,2.0;" x1="44.5" x2="198.5" y1="454.5254" y2="454.5254"/><text fill="#000000" font-family="sans-serif" font-size="13" lengthAdjust="spacing" textLength="46" x="56.5" y="434.4727">200 OK</text><text fill="#000000" font-family="sans-serif" font-size="13" lengthAdjust="spacing" textLength="131" x="56.5" y="449.7832">{ userProfile, orders }</text><!--SRC=[XP9VIyCm5CNV-oakUnH7Xu-3EPpzur3fs2PxyUMkYImmsfB4YOnzTvCqBKapjM-vEVVNUqukbhBcaF6wahGYKODSif8rM4aOFQoMaAEaN_Wz0XIWpldEbxm9oc53-OcLr6XqmPuZWXBtAAYL9VROwvA53oiu6T1C9SIrGezdIWeOTLPWVDyE35F8qot4sB2Oe3ZiQ-GambAoa_9cJUb18AEoF9Z9OCNh3tQa4QYlfIYSuys5VggoYC-CN8oy9xjHw0kttTAIXG9jqfVqSGitaAsBLp0qs3sbwnGOWHdCGwhosG4LOHoCfXcWup8oGdzhxgTnilgpjxEZLsKOcNa1uIVclfyRMMsqS_sl9Pc5qNdlhcyyK0U-abuBjl6r-332RbTwi0rnCArXmP49EOmY05mByfzsBqeRcEhkrtSATvC95C_lrTaOiHjvsrcyH0xHzFy0]--></g></svg>