<?xml version="1.0" encoding="us-ascii" standalone="no"?><svg xmlns="http://www.w3.org/2000/svg" xmlns:xlink="http://www.w3.org/1999/xlink" contentStyleType="text/css" height="398px" preserveAspectRatio="none" style="width:718px;height:398px;background:#FFFFFF;" version="1.1" viewBox="0 0 718 398" width="718px" zoomAndPan="magnify"><defs/><g><rect fill="#FFFFFF" height="277.4395" style="stroke:#181818;stroke-width:1.0;" width="10" x="199.5" y="67.7988"/><rect fill="#FFFFFF" height="71.6211" style="stroke:#181818;stroke-width:1.0;" width="10" x="355.5" y="121.4199"/><rect fill="#FFFFFF" height="71.6211" style="stroke:#181818;stroke-width:1.0;" width="10" x="545.5" y="237.3066"/><rect fill="none" height="234.1289" style="stroke:#000000;stroke-width:1.5;" width="571.5" x="140" y="82.7988"/><line style="stroke:#181818;stroke-width:0.5;stroke-dasharray:5.0,5.0;" x1="53" x2="53" y1="36.4883" y2="363.2383"/><line style="stroke:#181818;stroke-width:0.5;stroke-dasharray:5.0,5.0;" x1="204" x2="204" y1="36.4883" y2="363.2383"/><line style="stroke:#181818;stroke-width:0.5;stroke-dasharray:5.0,5.0;" x1="360.5" x2="360.5" y1="36.4883" y2="363.2383"/><line style="stroke:#181818;stroke-width:0.5;stroke-dasharray:5.0,5.0;" x1="550.5" x2="550.5" y1="36.4883" y2="363.2383"/><rect fill="#E2E2F0" height="30.4883" rx="2.5" ry="2.5" style="stroke:#181818;stroke-width:0.5;" width="97" x="5" y="5"/><text fill="#000000" font-family="sans-serif" font-size="14" lengthAdjust="spacing" textLength="83" x="12" y="25.5352">API Gateway</text><rect fill="#E2E2F0" height="30.4883" rx="2.5" ry="2.5" style="stroke:#181818;stroke-width:0.5;" width="97" x="5" y="362.2383"/><text fill="#000000" font-family="sans-serif" font-size="14" lengthAdjust="spacing" textLength="83" x="12" y="382.7734">API Gateway</text><rect fill="#E2E2F0" height="30.4883" rx="2.5" ry="2.5" style="stroke:#181818;stroke-width:0.5;" width="109" x="150" y="5"/><text fill="#000000" font-family="sans-serif" font-size="14" lengthAdjust="spacing" textLength="95" x="157" y="25.5352">Load Balancer</text><rect fill="#E2E2F0" height="30.4883" rx="2.5" ry="2.5" style="stroke:#181818;stroke-width:0.5;" width="109" x="150" y="362.2383"/><text fill="#000000" font-family="sans-serif" font-size="14" lengthAdjust="spacing" textLength="95" x="157" y="382.7734">Load Balancer</text><rect fill="#E2E2F0" height="30.4883" rx="2.5" ry="2.5" style="stroke:#181818;stroke-width:0.5;" width="180" x="270.5" y="5"/><text fill="#000000" font-family="sans-serif" font-size="14" lengthAdjust="spacing" textLength="166" x="277.5" y="25.5352">Order Service Instance 1</text><rect fill="#E2E2F0" height="30.4883" rx="2.5" ry="2.5" style="stroke:#181818;stroke-width:0.5;" width="180" x="270.5" y="362.2383"/><text fill="#000000" font-family="sans-serif" font-size="14" lengthAdjust="spacing" textLength="166" x="277.5" y="382.7734">Order Service Instance 1</text><rect fill="#E2E2F0" height="30.4883" rx="2.5" ry="2.5" style="stroke:#181818;stroke-width:0.5;" width="180" x="460.5" y="5"/><text fill="#000000" font-family="sans-serif" font-size="14" lengthAdjust="spacing" textLength="166" x="467.5" y="25.5352">Order Service Instance 2</text><rect fill="#E2E2F0" height="30.4883" rx="2.5" ry="2.5" style="stroke:#181818;stroke-width:0.5;" width="180" x="460.5" y="362.2383"/><text fill="#000000" font-family="sans-serif" font-size="14" lengthAdjust="spacing" textLength="166" x="467.5" y="382.7734">Order Service Instance 2</text><rect fill="#FFFFFF" height="277.4395" style="stroke:#181818;stroke-width:1.0;" width="10" x="199.5" y="67.7988"/><rect fill="#FFFFFF" height="71.6211" style="stroke:#181818;stroke-width:1.0;" width="10" x="355.5" y="121.4199"/><rect fill="#FFFFFF" height="71.6211" style="stroke:#181818;stroke-width:1.0;" width="10" x="545.5" y="237.3066"/><polygon fill="#181818" points="187.5,63.7988,197.5,67.7988,187.5,71.7988,191.5,67.7988" style="stroke:#181818;stroke-width:1.0;"/><line style="stroke:#181818;stroke-width:1.0;" x1="53.5" x2="193.5" y1="67.7988" y2="67.7988"/><text fill="#000000" font-family="sans-serif" font-size="13" lengthAdjust="spacing" textLength="101" x="60.5" y="63.0566">GET /api/orders</text><path d="M140,82.7988 L202,82.7988 L202,90.1094 L192,100.1094 L140,100.1094 L140,82.7988 " fill="#EEEEEE" style="stroke:#000000;stroke-width:1.5;"/><rect fill="none" height="234.1289" style="stroke:#000000;stroke-width:1.5;" width="571.5" x="140" y="82.7988"/><text fill="#000000" font-family="sans-serif" font-size="13" font-weight="bold" lengthAdjust="spacing" textLength="17" x="155" y="96.3672">alt</text><text fill="#000000" font-family="sans-serif" font-size="11" font-weight="bold" lengthAdjust="spacing" textLength="116" x="217" y="95.4336">[Route to Instance 1]</text><polygon fill="#181818" points="343.5,117.4199,353.5,121.4199,343.5,125.4199,347.5,121.4199" style="stroke:#181818;stroke-width:1.0;"/><line style="stroke:#181818;stroke-width:1.0;" x1="209.5" x2="349.5" y1="121.4199" y2="121.4199"/><text fill="#000000" font-family="sans-serif" font-size="13" lengthAdjust="spacing" textLength="101" x="216.5" y="116.6777">GET /api/orders</text><line style="stroke:#181818;stroke-width:1.0;" x1="365.5" x2="407.5" y1="150.7305" y2="150.7305"/><line style="stroke:#181818;stroke-width:1.0;" x1="407.5" x2="407.5" y1="150.7305" y2="163.7305"/><line style="stroke:#181818;stroke-width:1.0;" x1="366.5" x2="407.5" y1="163.7305" y2="163.7305"/><polygon fill="#181818" points="376.5,159.7305,366.5,163.7305,376.5,167.7305,372.5,163.7305" style="stroke:#181818;stroke-width:1.0;"/><text fill="#000000" font-family="sans-serif" font-size="13" lengthAdjust="spacing" textLength="137" x="372.5" y="145.9883">process order request</text><polygon fill="#181818" points="220.5,189.041,210.5,193.041,220.5,197.041,216.5,193.041" style="stroke:#181818;stroke-width:1.0;"/><line style="stroke:#181818;stroke-width:1.0;stroke-dasharray:2.0,2.0;" x1="214.5" x2="359.5" y1="193.041" y2="193.041"/><text fill="#000000" font-family="sans-serif" font-size="13" lengthAdjust="spacing" textLength="122" x="226.5" y="188.2988">200 OK {order data}</text><line style="stroke:#000000;stroke-width:1.0;stroke-dasharray:2.0,2.0;" x1="140" x2="711.5" y1="202.041" y2="202.041"/><text fill="#000000" font-family="sans-serif" font-size="11" font-weight="bold" lengthAdjust="spacing" textLength="116" x="145" y="212.6758">[Route to Instance 2]</text><polygon fill="#181818" points="533.5,233.3066,543.5,237.3066,533.5,241.3066,537.5,237.3066" style="stroke:#181818;stroke-width:1.0;"/><line style="stroke:#181818;stroke-width:1.0;" x1="209.5" x2="539.5" y1="237.3066" y2="237.3066"/><text fill="#000000" font-family="sans-serif" font-size="13" lengthAdjust="spacing" textLength="101" x="216.5" y="232.5645">GET /api/orders</text><line style="stroke:#181818;stroke-width:1.0;" x1="555.5" x2="597.5" y1="266.6172" y2="266.6172"/><line style="stroke:#181818;stroke-width:1.0;" x1="597.5" x2="597.5" y1="266.6172" y2="279.6172"/><line style="stroke:#181818;stroke-width:1.0;" x1="556.5" x2="597.5" y1="279.6172" y2="279.6172"/><polygon fill="#181818" points="566.5,275.6172,556.5,279.6172,566.5,283.6172,562.5,279.6172" style="stroke:#181818;stroke-width:1.0;"/><text fill="#000000" font-family="sans-serif" font-size="13" lengthAdjust="spacing" textLength="137" x="562.5" y="261.875">process order request</text><polygon fill="#181818" points="220.5,304.9277,210.5,308.9277,220.5,312.9277,216.5,308.9277" style="stroke:#181818;stroke-width:1.0;"/><line style="stroke:#181818;stroke-width:1.0;stroke-dasharray:2.0,2.0;" x1="214.5" x2="549.5" y1="308.9277" y2="308.9277"/><text fill="#000000" font-family="sans-serif" font-size="13" lengthAdjust="spacing" textLength="122" x="226.5" y="304.1855">200 OK {order data}</text><polygon fill="#181818" points="64.5,341.2383,54.5,345.2383,64.5,349.2383,60.5,345.2383" style="stroke:#181818;stroke-width:1.0;"/><line style="stroke:#181818;stroke-width:1.0;stroke-dasharray:2.0,2.0;" x1="58.5" x2="203.5" y1="345.2383" y2="345.2383"/><text fill="#000000" font-family="sans-serif" font-size="13" lengthAdjust="spacing" textLength="122" x="70.5" y="340.4961">200 OK {order data}</text><!--SRC=[bP5FImCn44Vl-HG_UfUsENeGN92bkB1Y1Sz3CeV0iacJT4N4xswIhJMLnJ_7WVTc7emZ7uqoZiQ8rUt33Yr5Vg7N5IWWpUspS3NIMT9eQA1HiIzGrrmIlTViiMS_6SNOZI5c5ji2z_j9RV_4opClXIWXkBf9nt2Dzku9Qt9cRRCQ1AbeffITKmGD4O_scAPeg-i2sKqRIi724k2yPex42QqSvwtY450KU3uSESGlyBDFRZRex_4sOveYlIT8yxS3F0HUI9KNgVBtL7agaBNpKwhyPweKF6eXSbJovbyigvNODHy0]--></g></svg>