<?xml version="1.0" encoding="us-ascii" standalone="no"?><svg xmlns="http://www.w3.org/2000/svg" xmlns:xlink="http://www.w3.org/1999/xlink" contentStyleType="text/css" height="584px" preserveAspectRatio="none" style="width:809px;height:584px;background:#FFFFFF;" version="1.1" viewBox="0 0 809 584" width="809px" zoomAndPan="magnify"><defs/><g><rect fill="#FFFFFF" height="365.3027" style="stroke:#181818;stroke-width:1.0;" width="10" x="194.5" y="128.1094"/><rect fill="#FFFFFF" height="133.8633" style="stroke:#181818;stroke-width:1.0;" width="10" x="435.5" y="157.4199"/><rect fill="#FFFFFF" height="29.3105" style="stroke:#181818;stroke-width:1.0;" width="10" x="595.5" y="217.3516"/><rect fill="#FFFFFF" height="29.3105" style="stroke:#181818;stroke-width:1.0;" width="10" x="730.5" y="344.9043"/><rect fill="none" height="180.1289" style="stroke:#000000;stroke-width:1.5;" width="792" x="10" y="306.2832"/><line style="stroke:#181818;stroke-width:0.5;stroke-dasharray:5.0,5.0;" x1="38" x2="38" y1="81.4883" y2="503.4121"/><line style="stroke:#181818;stroke-width:0.5;stroke-dasharray:5.0,5.0;" x1="199.5" x2="199.5" y1="81.4883" y2="503.4121"/><line style="stroke:#181818;stroke-width:0.5;stroke-dasharray:5.0,5.0;" x1="440.5" x2="440.5" y1="81.4883" y2="503.4121"/><line style="stroke:#181818;stroke-width:0.5;stroke-dasharray:5.0,5.0;" x1="600" x2="600" y1="81.4883" y2="503.4121"/><line style="stroke:#181818;stroke-width:0.5;stroke-dasharray:5.0,5.0;" x1="735" x2="735" y1="81.4883" y2="503.4121"/><text fill="#000000" font-family="sans-serif" font-size="14" lengthAdjust="spacing" textLength="31" x="20" y="78.5352">User</text><ellipse cx="38.5" cy="13.5" fill="#E2E2F0" rx="8" ry="8" style="stroke:#181818;stroke-width:0.5;"/><path d="M38.5,21.5 L38.5,48.5 M25.5,29.5 L51.5,29.5 M38.5,48.5 L25.5,63.5 M38.5,48.5 L51.5,63.5 " fill="none" style="stroke:#181818;stroke-width:0.5;"/><text fill="#000000" font-family="sans-serif" font-size="14" lengthAdjust="spacing" textLength="31" x="20" y="515.9473">User</text><ellipse cx="38.5" cy="527.4004" fill="#E2E2F0" rx="8" ry="8" style="stroke:#181818;stroke-width:0.5;"/><path d="M38.5,535.4004 L38.5,562.4004 M25.5,543.4004 L51.5,543.4004 M38.5,562.4004 L25.5,577.4004 M38.5,562.4004 L51.5,577.4004 " fill="none" style="stroke:#181818;stroke-width:0.5;"/><rect fill="#E2E2F0" height="30.4883" rx="2.5" ry="2.5" style="stroke:#181818;stroke-width:0.5;" width="106" x="146.5" y="50"/><text fill="#000000" font-family="sans-serif" font-size="14" lengthAdjust="spacing" textLength="92" x="153.5" y="70.5352">Order Service</text><rect fill="#E2E2F0" height="30.4883" rx="2.5" ry="2.5" style="stroke:#181818;stroke-width:0.5;" width="106" x="146.5" y="502.4121"/><text fill="#000000" font-family="sans-serif" font-size="14" lengthAdjust="spacing" textLength="92" x="153.5" y="522.9473">Order Service</text><rect fill="#E2E2F0" height="30.4883" rx="2.5" ry="2.5" style="stroke:#181818;stroke-width:0.5;" width="130" x="375.5" y="50"/><text fill="#000000" font-family="sans-serif" font-size="14" lengthAdjust="spacing" textLength="116" x="382.5" y="70.5352">Inventory Service</text><rect fill="#E2E2F0" height="30.4883" rx="2.5" ry="2.5" style="stroke:#181818;stroke-width:0.5;" width="130" x="375.5" y="502.4121"/><text fill="#000000" font-family="sans-serif" font-size="14" lengthAdjust="spacing" textLength="116" x="382.5" y="522.9473">Inventory Service</text><text fill="#000000" font-family="sans-serif" font-size="14" lengthAdjust="spacing" textLength="131" x="532" y="78.5352">Inventory Database</text><path d="M582.5,29 C582.5,19 600.5,19 600.5,19 C600.5,19 618.5,19 618.5,29 L618.5,55 C618.5,65 600.5,65 600.5,65 C600.5,65 582.5,65 582.5,55 L582.5,29 " fill="#E2E2F0" style="stroke:#181818;stroke-width:1.5;"/><path d="M582.5,29 C582.5,39 600.5,39 600.5,39 C600.5,39 618.5,39 618.5,29 " fill="none" style="stroke:#181818;stroke-width:1.5;"/><text fill="#000000" font-family="sans-serif" font-size="14" lengthAdjust="spacing" textLength="131" x="532" y="515.9473">Inventory Database</text><path d="M582.5,528.9004 C582.5,518.9004 600.5,518.9004 600.5,518.9004 C600.5,518.9004 618.5,518.9004 618.5,528.9004 L618.5,554.9004 C618.5,564.9004 600.5,564.9004 600.5,564.9004 C600.5,564.9004 582.5,564.9004 582.5,554.9004 L582.5,528.9004 " fill="#E2E2F0" style="stroke:#181818;stroke-width:1.5;"/><path d="M582.5,528.9004 C582.5,538.9004 600.5,538.9004 600.5,538.9004 C600.5,538.9004 618.5,538.9004 618.5,528.9004 " fill="none" style="stroke:#181818;stroke-width:1.5;"/><text fill="#000000" font-family="sans-serif" font-size="14" lengthAdjust="spacing" textLength="107" x="679" y="78.5352">Order Database</text><path d="M717.5,29 C717.5,19 735.5,19 735.5,19 C735.5,19 753.5,19 753.5,29 L753.5,55 C753.5,65 735.5,65 735.5,65 C735.5,65 717.5,65 717.5,55 L717.5,29 " fill="#E2E2F0" style="stroke:#181818;stroke-width:1.5;"/><path d="M717.5,29 C717.5,39 735.5,39 735.5,39 C735.5,39 753.5,39 753.5,29 " fill="none" style="stroke:#181818;stroke-width:1.5;"/><text fill="#000000" font-family="sans-serif" font-size="14" lengthAdjust="spacing" textLength="107" x="679" y="515.9473">Order Database</text><path d="M717.5,528.9004 C717.5,518.9004 735.5,518.9004 735.5,518.9004 C735.5,518.9004 753.5,518.9004 753.5,528.9004 L753.5,554.9004 C753.5,564.9004 735.5,564.9004 735.5,564.9004 C735.5,564.9004 717.5,564.9004 717.5,554.9004 L717.5,528.9004 " fill="#E2E2F0" style="stroke:#181818;stroke-width:1.5;"/><path d="M717.5,528.9004 C717.5,538.9004 735.5,538.9004 735.5,538.9004 C735.5,538.9004 753.5,538.9004 753.5,528.9004 " fill="none" style="stroke:#181818;stroke-width:1.5;"/><rect fill="#FFFFFF" height="365.3027" style="stroke:#181818;stroke-width:1.0;" width="10" x="194.5" y="128.1094"/><rect fill="#FFFFFF" height="133.8633" style="stroke:#181818;stroke-width:1.0;" width="10" x="435.5" y="157.4199"/><rect fill="#FFFFFF" height="29.3105" style="stroke:#181818;stroke-width:1.0;" width="10" x="595.5" y="217.3516"/><rect fill="#FFFFFF" height="29.3105" style="stroke:#181818;stroke-width:1.0;" width="10" x="730.5" y="344.9043"/><polygon fill="#181818" points="182.5,124.1094,192.5,128.1094,182.5,132.1094,186.5,128.1094" style="stroke:#181818;stroke-width:1.0;"/><line style="stroke:#181818;stroke-width:1.0;" x1="38.5" x2="188.5" y1="128.1094" y2="128.1094"/><text fill="#000000" font-family="sans-serif" font-size="13" lengthAdjust="spacing" textLength="83" x="45.5" y="108.0566">POST /orders</text><text fill="#000000" font-family="sans-serif" font-size="13" lengthAdjust="spacing" textLength="137" x="45.5" y="123.3672">{ productId, quantity }</text><polygon fill="#181818" points="423.5,153.4199,433.5,157.4199,423.5,161.4199,427.5,157.4199" style="stroke:#181818;stroke-width:1.0;"/><line style="stroke:#181818;stroke-width:1.0;" x1="204.5" x2="429.5" y1="157.4199" y2="157.4199"/><text fill="#000000" font-family="sans-serif" font-size="13" lengthAdjust="spacing" textLength="212" x="211.5" y="152.6777">GET /inventory/{productId}/stock</text><polygon fill="#181818" points="583.5,213.3516,593.5,217.3516,583.5,221.3516,587.5,217.3516" style="stroke:#181818;stroke-width:1.0;"/><line style="stroke:#181818;stroke-width:1.0;" x1="445.5" x2="589.5" y1="217.3516" y2="217.3516"/><text fill="#000000" font-family="sans-serif" font-size="13" lengthAdjust="spacing" textLength="84" x="452.5" y="181.9883">SELECT stock</text><text fill="#000000" font-family="sans-serif" font-size="13" lengthAdjust="spacing" textLength="99" x="452.5" y="197.2988">FROM inventory</text><text fill="#000000" font-family="sans-serif" font-size="13" lengthAdjust="spacing" textLength="131" x="452.5" y="212.6094">WHERE productId = ?</text><polygon fill="#181818" points="456.5,242.6621,446.5,246.6621,456.5,250.6621,452.5,246.6621" style="stroke:#181818;stroke-width:1.0;"/><line style="stroke:#181818;stroke-width:1.0;stroke-dasharray:2.0,2.0;" x1="450.5" x2="599.5" y1="246.6621" y2="246.6621"/><text fill="#000000" font-family="sans-serif" font-size="13" lengthAdjust="spacing" textLength="75" x="462.5" y="241.9199">stock count</text><polygon fill="#181818" points="215.5,287.2832,205.5,291.2832,215.5,295.2832,211.5,291.2832" style="stroke:#181818;stroke-width:1.0;"/><line style="stroke:#181818;stroke-width:1.0;stroke-dasharray:2.0,2.0;" x1="209.5" x2="439.5" y1="291.2832" y2="291.2832"/><text fill="#000000" font-family="sans-serif" font-size="13" lengthAdjust="spacing" textLength="46" x="221.5" y="271.2305">200 OK</text><text fill="#000000" font-family="sans-serif" font-size="13" lengthAdjust="spacing" textLength="91" x="221.5" y="286.541">{ stock count }</text><path d="M10,306.2832 L72,306.2832 L72,313.5938 L62,323.5938 L10,323.5938 L10,306.2832 " fill="#EEEEEE" style="stroke:#000000;stroke-width:1.5;"/><rect fill="none" height="180.1289" style="stroke:#000000;stroke-width:1.5;" width="792" x="10" y="306.2832"/><text fill="#000000" font-family="sans-serif" font-size="13" font-weight="bold" lengthAdjust="spacing" textLength="17" x="25" y="319.8516">alt</text><text fill="#000000" font-family="sans-serif" font-size="11" font-weight="bold" lengthAdjust="spacing" textLength="118" x="87" y="318.918">[stock &gt;= requested]</text><polygon fill="#181818" points="718.5,340.9043,728.5,344.9043,718.5,348.9043,722.5,344.9043" style="stroke:#181818;stroke-width:1.0;"/><line style="stroke:#181818;stroke-width:1.0;" x1="204.5" x2="724.5" y1="344.9043" y2="344.9043"/><text fill="#000000" font-family="sans-serif" font-size="13" lengthAdjust="spacing" textLength="144" x="211.5" y="340.1621">INSERT INTO orders(...)</text><polygon fill="#181818" points="215.5,370.2148,205.5,374.2148,215.5,378.2148,211.5,374.2148" style="stroke:#181818;stroke-width:1.0;"/><line style="stroke:#181818;stroke-width:1.0;stroke-dasharray:2.0,2.0;" x1="209.5" x2="734.5" y1="374.2148" y2="374.2148"/><text fill="#000000" font-family="sans-serif" font-size="13" lengthAdjust="spacing" textLength="45" x="221.5" y="369.4727">orderId</text><polygon fill="#181818" points="49.5,414.8359,39.5,418.8359,49.5,422.8359,45.5,418.8359" style="stroke:#181818;stroke-width:1.0;"/><line style="stroke:#181818;stroke-width:1.0;stroke-dasharray:2.0,2.0;" x1="43.5" x2="193.5" y1="418.8359" y2="418.8359"/><text fill="#000000" font-family="sans-serif" font-size="13" lengthAdjust="spacing" textLength="76" x="55.5" y="398.7832">201 Created</text><text fill="#000000" font-family="sans-serif" font-size="13" lengthAdjust="spacing" textLength="61" x="55.5" y="414.0938">{ orderId }</text><line style="stroke:#000000;stroke-width:1.0;stroke-dasharray:2.0,2.0;" x1="10" x2="802" y1="427.8359" y2="427.8359"/><text fill="#000000" font-family="sans-serif" font-size="11" font-weight="bold" lengthAdjust="spacing" textLength="109" x="15" y="438.4707">[stock &lt; requested]</text><polygon fill="#181818" points="49.5,474.4121,39.5,478.4121,49.5,482.4121,45.5,478.4121" style="stroke:#181818;stroke-width:1.0;"/><line style="stroke:#181818;stroke-width:1.0;stroke-dasharray:2.0,2.0;" x1="43.5" x2="193.5" y1="478.4121" y2="478.4121"/><text fill="#000000" font-family="sans-serif" font-size="13" lengthAdjust="spacing" textLength="78" x="55.5" y="458.3594">409 Conflict</text><text fill="#000000" font-family="sans-serif" font-size="13" lengthAdjust="spacing" textLength="89" x="55.5" y="473.6699">"Out of stock"</text><!--SRC=[VP9DIyD048Rl-ok6d1JiX-95iHNQHWr-H9g8brpMtIqibasxsHHAwNztiadJR1BC9J2yyypxpYnb9jNmbGbDDbGRoUI6AWDUgBdG40czaqnuG3EmbQhWQWEr4menUqTVLqyzd1hwGpFHR5XKDRTZCMk8IoUEq9PGH0hVC9Wwtk0UFiCeXb5Q5BD47M2ZKvup4_0hsEPeMPez70bbHkwe4Muouh2GtSw1_6SVyV9K7nrg_d6KcPJzdj6T9P0EhZbYCKDwvB_vynWiAL5Fo_0Twbc9-dxnb_uv4KpWiMSSBgS97VJdi2E0fRaoX8jUIe_VxhvlncC8NujDDuYuuJvclGYwDfLyEW4jjhd8ZE04y6kVeBetJWe-8dyPuoyEeRplnN0ulBHTxZtHUusgDj1oRVk3ScB3QVsukawGOLzSaVWQvbgWdXUnAnH65cjyisMiXtzJdLctupkOfsgrbimaoWjp0-cgP7X4A4v8srq5-GC0]--></g></svg>