<?xml version="1.0" encoding="us-ascii" standalone="no"?><svg xmlns="http://www.w3.org/2000/svg" xmlns:xlink="http://www.w3.org/1999/xlink" contentStyleType="text/css" height="1361px" preserveAspectRatio="none" style="width:803px;height:1361px;background:#FFFFFF;" version="1.1" viewBox="0 0 803 1361" width="803px" zoomAndPan="magnify"><defs/><g><text fill="#000000" font-family="Verdana" font-size="22" font-weight="bold" lengthAdjust="spacing" textLength="422" x="189" y="37.1182">Token-Based Authentication Flow</text><rect fill="#FFFFFF" height="239.1938" style="stroke:#000000;stroke-width:1.0;" width="10" x="241.5" y="273.7485"/><rect fill="#FFFFFF" height="191.7959" style="stroke:#000000;stroke-width:1.0;" width="10" x="241.5" y="871.3335"/><rect fill="#FFFFFF" height="179.5952" style="stroke:#000000;stroke-width:1.0;" width="10" x="475.5" y="602.3403"/><rect fill="#FFFFFF" height="29.7993" style="stroke:#000000;stroke-width:1.0;" width="10" x="631.5" y="303.5479"/><rect fill="#FFFFFF" height="29.7993" style="stroke:#000000;stroke-width:1.0;" width="10" x="740.5" y="437.5444"/><rect fill="#FFFFFF" height="29.7993" style="stroke:#000000;stroke-width:1.0;" width="10" x="740.5" y="647.939"/><rect fill="#FFFFFF" height="29.7993" style="stroke:#000000;stroke-width:1.0;" width="10" x="740.5" y="901.1328"/><rect fill="#FFFFFF" height="29.7993" style="stroke:#000000;stroke-width:1.0;" width="10" x="740.5" y="1003.5308"/><line style="stroke:#000000;stroke-width:1.0;" x1="41" x2="41" y1="130.752" y2="1279.1226"/><line style="stroke:#000000;stroke-width:1.0;" x1="246.5" x2="246.5" y1="130.752" y2="1279.1226"/><line style="stroke:#000000;stroke-width:1.0;" x1="480" x2="480" y1="130.752" y2="1279.1226"/><line style="stroke:#000000;stroke-width:1.0;" x1="636" x2="636" y1="130.752" y2="1279.1226"/><line style="stroke:#000000;stroke-width:1.0;" x1="745" x2="745" y1="130.752" y2="1279.1226"/><text fill="#000000" font-family="Verdana" font-size="14" lengthAdjust="spacing" textLength="41" x="18" y="127.8125">Client</text><ellipse cx="41.5" cy="61.7373" fill="#FFFFFF" rx="8" ry="8" style="stroke:#000000;stroke-width:1.0;"/><path d="M41.5,69.7373 L41.5,96.7373 M28.5,77.7373 L54.5,77.7373 M41.5,96.7373 L28.5,111.7373 M41.5,96.7373 L54.5,111.7373 " fill="none" style="stroke:#000000;stroke-width:1.0;"/><text fill="#000000" font-family="Verdana" font-size="14" lengthAdjust="spacing" textLength="41" x="18" y="1292.1978">Client</text><ellipse cx="41.5" cy="1304.1372" fill="#FFFFFF" rx="8" ry="8" style="stroke:#000000;stroke-width:1.0;"/><path d="M41.5,1312.1372 L41.5,1339.1372 M28.5,1320.1372 L54.5,1320.1372 M41.5,1339.1372 L28.5,1354.1372 M41.5,1339.1372 L54.5,1354.1372 " fill="none" style="stroke:#000000;stroke-width:1.0;"/><rect fill="#FFFFFF" height="31.0146" rx="2.5" ry="2.5" style="stroke:#000000;stroke-width:1.0;" width="168" x="162.5" y="98.7373"/><text fill="#000000" font-family="Verdana" font-size="14" lengthAdjust="spacing" textLength="154" x="169.5" y="119.8125">Authentication Server</text><rect fill="#FFFFFF" height="31.0146" rx="2.5" ry="2.5" style="stroke:#000000;stroke-width:1.0;" width="168" x="162.5" y="1278.1226"/><text fill="#000000" font-family="Verdana" font-size="14" lengthAdjust="spacing" textLength="154" x="169.5" y="1299.1978">Authentication Server</text><rect fill="#FFFFFF" height="31.0146" rx="2.5" ry="2.5" style="stroke:#000000;stroke-width:1.0;" width="89" x="436" y="98.7373"/><text fill="#000000" font-family="Verdana" font-size="14" lengthAdjust="spacing" textLength="75" x="443" y="119.8125">API Server</text><rect fill="#FFFFFF" height="31.0146" rx="2.5" ry="2.5" style="stroke:#000000;stroke-width:1.0;" width="89" x="436" y="1278.1226"/><text fill="#000000" font-family="Verdana" font-size="14" lengthAdjust="spacing" textLength="75" x="443" y="1299.1978">API Server</text><text fill="#000000" font-family="Verdana" font-size="14" lengthAdjust="spacing" textLength="101" x="583" y="127.8125">User Database</text><path d="M618.5,77.7373 C618.5,67.7373 636.5,67.7373 636.5,67.7373 C636.5,67.7373 654.5,67.7373 654.5,77.7373 L654.5,103.7373 C654.5,113.7373 636.5,113.7373 636.5,113.7373 C636.5,113.7373 618.5,113.7373 618.5,103.7373 L618.5,77.7373 " fill="#FFFFFF" style="stroke:#000000;stroke-width:1.5;"/><path d="M618.5,77.7373 C618.5,87.7373 636.5,87.7373 636.5,87.7373 C636.5,87.7373 654.5,87.7373 654.5,77.7373 " fill="none" style="stroke:#000000;stroke-width:1.5;"/><text fill="#000000" font-family="Verdana" font-size="14" lengthAdjust="spacing" textLength="101" x="583" y="1292.1978">User Database</text><path d="M618.5,1305.1372 C618.5,1295.1372 636.5,1295.1372 636.5,1295.1372 C636.5,1295.1372 654.5,1295.1372 654.5,1305.1372 L654.5,1331.1372 C654.5,1341.1372 636.5,1341.1372 636.5,1341.1372 C636.5,1341.1372 618.5,1341.1372 618.5,1331.1372 L618.5,1305.1372 " fill="#FFFFFF" style="stroke:#000000;stroke-width:1.5;"/><path d="M618.5,1305.1372 C618.5,1315.1372 636.5,1315.1372 636.5,1315.1372 C636.5,1315.1372 654.5,1315.1372 654.5,1305.1372 " fill="none" style="stroke:#000000;stroke-width:1.5;"/><text fill="#000000" font-family="Verdana" font-size="14" lengthAdjust="spacing" textLength="85" x="700" y="127.8125">Token Store</text><path d="M727.5,77.7373 C727.5,67.7373 745.5,67.7373 745.5,67.7373 C745.5,67.7373 763.5,67.7373 763.5,77.7373 L763.5,103.7373 C763.5,113.7373 745.5,113.7373 745.5,113.7373 C745.5,113.7373 727.5,113.7373 727.5,103.7373 L727.5,77.7373 " fill="#FFFFFF" style="stroke:#000000;stroke-width:1.5;"/><path d="M727.5,77.7373 C727.5,87.7373 745.5,87.7373 745.5,87.7373 C745.5,87.7373 763.5,87.7373 763.5,77.7373 " fill="none" style="stroke:#000000;stroke-width:1.5;"/><text fill="#000000" font-family="Verdana" font-size="14" lengthAdjust="spacing" textLength="85" x="700" y="1292.1978">Token Store</text><path d="M727.5,1305.1372 C727.5,1295.1372 745.5,1295.1372 745.5,1295.1372 C745.5,1295.1372 763.5,1295.1372 763.5,1305.1372 L763.5,1331.1372 C763.5,1341.1372 745.5,1341.1372 745.5,1341.1372 C745.5,1341.1372 727.5,1341.1372 727.5,1331.1372 L727.5,1305.1372 " fill="#FFFFFF" style="stroke:#000000;stroke-width:1.5;"/><path d="M727.5,1305.1372 C727.5,1315.1372 745.5,1315.1372 745.5,1315.1372 C745.5,1315.1372 763.5,1315.1372 763.5,1305.1372 " fill="none" style="stroke:#000000;stroke-width:1.5;"/><rect fill="#FFFFFF" height="239.1938" style="stroke:#000000;stroke-width:1.0;" width="10" x="241.5" y="273.7485"/><rect fill="#FFFFFF" height="191.7959" style="stroke:#000000;stroke-width:1.0;" width="10" x="241.5" y="871.3335"/><rect fill="#FFFFFF" height="179.5952" style="stroke:#000000;stroke-width:1.0;" width="10" x="475.5" y="602.3403"/><rect fill="#FFFFFF" height="29.7993" style="stroke:#000000;stroke-width:1.0;" width="10" x="631.5" y="303.5479"/><rect fill="#FFFFFF" height="29.7993" style="stroke:#000000;stroke-width:1.0;" width="10" x="740.5" y="437.5444"/><rect fill="#FFFFFF" height="29.7993" style="stroke:#000000;stroke-width:1.0;" width="10" x="740.5" y="647.939"/><rect fill="#FFFFFF" height="29.7993" style="stroke:#000000;stroke-width:1.0;" width="10" x="740.5" y="901.1328"/><rect fill="#FFFFFF" height="29.7993" style="stroke:#000000;stroke-width:1.0;" width="10" x="740.5" y="1003.5308"/><path d="M10,145.752 L10,186.752 L778,186.752 L778,155.752 L768,145.752 L10,145.752 " fill="#FFFFFF" style="stroke:#000000;stroke-width:1.0;"/><path d="M768,145.752 L768,155.752 L778,155.752 L768,145.752 " fill="#FFFFFF" style="stroke:#000000;stroke-width:1.0;"/><text fill="#000000" font-family="Verdana" font-size="13" lengthAdjust="spacing" textLength="333" x="223" y="163.8218">Token-based authentication where client requests</text><text fill="#000000" font-family="Verdana" font-size="13" lengthAdjust="spacing" textLength="294" x="223" y="179.6211">a token and uses it for subsequent API calls</text><rect fill="#FFFFFF" height="3" style="stroke:#FFFFFF;stroke-width:1.0;" width="791" x="5" y="213.2502"/><line style="stroke:#000000;stroke-width:0.5;" x1="5" x2="796" y1="213.2502" y2="213.2502"/><line style="stroke:#000000;stroke-width:0.5;" x1="5" x2="796" y1="216.2502" y2="216.2502"/><rect fill="#FFFFFF" height="23.7993" style="stroke:#000000;stroke-width:1.0;" width="176" x="312.5" y="202.3506"/><text fill="#000000" font-family="Verdana" font-size="13" font-weight="bold" lengthAdjust="spacing" textLength="158" x="318.5" y="219.4204">Token Request Phase</text><polygon fill="#000000" points="229.5,269.7485,239.5,273.7485,229.5,277.7485,233.5,273.7485" style="stroke:#000000;stroke-width:1.0;"/><line style="stroke:#000000;stroke-width:1.0;" x1="41.5" x2="235.5" y1="273.7485" y2="273.7485"/><text fill="#000000" font-family="Verdana" font-size="13" lengthAdjust="spacing" textLength="108" x="48.5" y="253.2197">1. Login request</text><text fill="#000000" font-family="Verdana" font-size="13" lengthAdjust="spacing" textLength="151" x="48.5" y="269.019">(username, password)</text><polygon fill="#000000" points="619.5,299.5479,629.5,303.5479,619.5,307.5479,623.5,303.5479" style="stroke:#000000;stroke-width:1.0;"/><line style="stroke:#000000;stroke-width:1.0;" x1="251.5" x2="625.5" y1="303.5479" y2="303.5479"/><text fill="#000000" font-family="Verdana" font-size="13" lengthAdjust="spacing" textLength="150" x="258.5" y="298.8184">2. Validate credentials</text><polygon fill="#000000" points="262.5,329.3472,252.5,333.3472,262.5,337.3472,258.5,333.3472" style="stroke:#000000;stroke-width:1.0;"/><line style="stroke:#000000;stroke-width:1.0;stroke-dasharray:2.0,2.0;" x1="256.5" x2="635.5" y1="333.3472" y2="333.3472"/><text fill="#000000" font-family="Verdana" font-size="13" lengthAdjust="spacing" textLength="115" x="268.5" y="328.6177">3. User validated</text><line style="stroke:#000000;stroke-width:1.0;" x1="251.5" x2="293.5" y1="378.9458" y2="378.9458"/><line style="stroke:#000000;stroke-width:1.0;" x1="293.5" x2="293.5" y1="378.9458" y2="391.9458"/><line style="stroke:#000000;stroke-width:1.0;" x1="252.5" x2="293.5" y1="391.9458" y2="391.9458"/><polygon fill="#000000" points="262.5,387.9458,252.5,391.9458,262.5,395.9458,258.5,391.9458" style="stroke:#000000;stroke-width:1.0;"/><text fill="#000000" font-family="Verdana" font-size="13" lengthAdjust="spacing" textLength="170" x="258.5" y="358.417">4. Generate access token</text><text fill="#000000" font-family="Verdana" font-size="13" lengthAdjust="spacing" textLength="153" x="258.5" y="374.2163">(JWT or opaque token)</text><polygon fill="#000000" points="728.5,433.5444,738.5,437.5444,728.5,441.5444,732.5,437.5444" style="stroke:#000000;stroke-width:1.0;"/><line style="stroke:#000000;stroke-width:1.0;" x1="251.5" x2="734.5" y1="437.5444" y2="437.5444"/><text fill="#000000" font-family="Verdana" font-size="13" lengthAdjust="spacing" textLength="164" x="258.5" y="417.0156">5. Store token metadata</text><text fill="#000000" font-family="Verdana" font-size="13" lengthAdjust="spacing" textLength="186" x="258.5" y="432.8149">(expiration, user_id, scope)</text><polygon fill="#000000" points="262.5,463.3438,252.5,467.3438,262.5,471.3438,258.5,467.3438" style="stroke:#000000;stroke-width:1.0;"/><line style="stroke:#000000;stroke-width:1.0;stroke-dasharray:2.0,2.0;" x1="256.5" x2="744.5" y1="467.3438" y2="467.3438"/><text fill="#000000" font-family="Verdana" font-size="13" lengthAdjust="spacing" textLength="105" x="268.5" y="462.6143">6. Token stored</text><polygon fill="#000000" points="52.5,508.9424,42.5,512.9424,52.5,516.9424,48.5,512.9424" style="stroke:#000000;stroke-width:1.0;"/><line style="stroke:#000000;stroke-width:1.0;stroke-dasharray:2.0,2.0;" x1="46.5" x2="245.5" y1="512.9424" y2="512.9424"/><text fill="#000000" font-family="Verdana" font-size="13" lengthAdjust="spacing" textLength="153" x="58.5" y="492.4136">7. Return access token</text><text fill="#000000" font-family="Verdana" font-size="13" lengthAdjust="spacing" textLength="176" x="58.5" y="508.2129">+ refresh token (optional)</text><rect fill="#FFFFFF" height="3" style="stroke:#FFFFFF;stroke-width:1.0;" width="791" x="5" y="541.842"/><line style="stroke:#000000;stroke-width:0.5;" x1="5" x2="796" y1="541.842" y2="541.842"/><line style="stroke:#000000;stroke-width:0.5;" x1="5" x2="796" y1="544.842" y2="544.842"/><rect fill="#FFFFFF" height="23.7993" style="stroke:#000000;stroke-width:1.0;" width="149" x="326" y="530.9424"/><text fill="#000000" font-family="Verdana" font-size="13" font-weight="bold" lengthAdjust="spacing" textLength="131" x="332" y="548.0122">API Access Phase</text><polygon fill="#000000" points="463.5,598.3403,473.5,602.3403,463.5,606.3403,467.5,602.3403" style="stroke:#000000;stroke-width:1.0;"/><line style="stroke:#000000;stroke-width:1.0;" x1="41.5" x2="469.5" y1="602.3403" y2="602.3403"/><text fill="#000000" font-family="Verdana" font-size="13" lengthAdjust="spacing" textLength="95" x="48.5" y="581.8115">8. API request</text><text fill="#000000" font-family="Verdana" font-size="13" lengthAdjust="spacing" textLength="220" x="48.5" y="597.6108">(Authorization: Bearer &lt;token&gt;)</text><polygon fill="#000000" points="728.5,643.939,738.5,647.939,728.5,651.939,732.5,647.939" style="stroke:#000000;stroke-width:1.0;"/><line style="stroke:#000000;stroke-width:1.0;" x1="485.5" x2="734.5" y1="647.939" y2="647.939"/><text fill="#000000" font-family="Verdana" font-size="13" lengthAdjust="spacing" textLength="114" x="492.5" y="627.4102">9. Validate token</text><text fill="#000000" font-family="Verdana" font-size="13" lengthAdjust="spacing" textLength="170" x="492.5" y="643.2095">(check expiration, scope)</text><polygon fill="#000000" points="496.5,673.7383,486.5,677.7383,496.5,681.7383,492.5,677.7383" style="stroke:#000000;stroke-width:1.0;"/><line style="stroke:#000000;stroke-width:1.0;stroke-dasharray:2.0,2.0;" x1="490.5" x2="744.5" y1="677.7383" y2="677.7383"/><text fill="#000000" font-family="Verdana" font-size="13" lengthAdjust="spacing" textLength="183" x="502.5" y="673.0088">10. Token valid + user info</text><line style="stroke:#000000;stroke-width:1.0;" x1="485.5" x2="527.5" y1="723.3369" y2="723.3369"/><line style="stroke:#000000;stroke-width:1.0;" x1="527.5" x2="527.5" y1="723.3369" y2="736.3369"/><line style="stroke:#000000;stroke-width:1.0;" x1="486.5" x2="527.5" y1="736.3369" y2="736.3369"/><polygon fill="#000000" points="496.5,732.3369,486.5,736.3369,496.5,740.3369,492.5,736.3369" style="stroke:#000000;stroke-width:1.0;"/><text fill="#000000" font-family="Verdana" font-size="13" lengthAdjust="spacing" textLength="132" x="492.5" y="702.8081">11. Process request</text><text fill="#000000" font-family="Verdana" font-size="13" lengthAdjust="spacing" textLength="128" x="492.5" y="718.6074">(with user context)</text><polygon fill="#000000" points="52.5,777.9355,42.5,781.9355,52.5,785.9355,48.5,781.9355" style="stroke:#000000;stroke-width:1.0;"/><line style="stroke:#000000;stroke-width:1.0;stroke-dasharray:2.0,2.0;" x1="46.5" x2="479.5" y1="781.9355" y2="781.9355"/><text fill="#000000" font-family="Verdana" font-size="13" lengthAdjust="spacing" textLength="113" x="58.5" y="761.4067">12. API response</text><text fill="#000000" font-family="Verdana" font-size="13" lengthAdjust="spacing" textLength="112" x="58.5" y="777.2061">(requested data)</text><rect fill="#FFFFFF" height="3" style="stroke:#FFFFFF;stroke-width:1.0;" width="791" x="5" y="810.8352"/><line style="stroke:#000000;stroke-width:0.5;" x1="5" x2="796" y1="810.8352" y2="810.8352"/><line style="stroke:#000000;stroke-width:0.5;" x1="5" x2="796" y1="813.8352" y2="813.8352"/><rect fill="#FFFFFF" height="23.7993" style="stroke:#000000;stroke-width:1.0;" width="172" x="314.5" y="799.9355"/><text fill="#000000" font-family="Verdana" font-size="13" font-weight="bold" lengthAdjust="spacing" textLength="154" x="320.5" y="817.0054">Token Refresh Phase</text><polygon fill="#000000" points="229.5,867.3335,239.5,871.3335,229.5,875.3335,233.5,871.3335" style="stroke:#000000;stroke-width:1.0;"/><line style="stroke:#000000;stroke-width:1.0;" x1="41.5" x2="235.5" y1="871.3335" y2="871.3335"/><text fill="#000000" font-family="Verdana" font-size="13" lengthAdjust="spacing" textLength="174" x="48.5" y="850.8047">13. Refresh token request</text><text fill="#000000" font-family="Verdana" font-size="13" lengthAdjust="spacing" textLength="105" x="48.5" y="866.604">(refresh_token)</text><polygon fill="#000000" points="728.5,897.1328,738.5,901.1328,728.5,905.1328,732.5,901.1328" style="stroke:#000000;stroke-width:1.0;"/><line style="stroke:#000000;stroke-width:1.0;" x1="251.5" x2="734.5" y1="901.1328" y2="901.1328"/><text fill="#000000" font-family="Verdana" font-size="13" lengthAdjust="spacing" textLength="175" x="258.5" y="896.4033">14. Validate refresh token</text><polygon fill="#000000" points="262.5,926.9321,252.5,930.9321,262.5,934.9321,258.5,930.9321" style="stroke:#000000;stroke-width:1.0;"/><line style="stroke:#000000;stroke-width:1.0;stroke-dasharray:2.0,2.0;" x1="256.5" x2="744.5" y1="930.9321" y2="930.9321"/><text fill="#000000" font-family="Verdana" font-size="13" lengthAdjust="spacing" textLength="156" x="268.5" y="926.2026">15. Refresh token valid</text><line style="stroke:#000000;stroke-width:1.0;" x1="251.5" x2="293.5" y1="960.7314" y2="960.7314"/><line style="stroke:#000000;stroke-width:1.0;" x1="293.5" x2="293.5" y1="960.7314" y2="973.7314"/><line style="stroke:#000000;stroke-width:1.0;" x1="252.5" x2="293.5" y1="973.7314" y2="973.7314"/><polygon fill="#000000" points="262.5,969.7314,252.5,973.7314,262.5,977.7314,258.5,973.7314" style="stroke:#000000;stroke-width:1.0;"/><text fill="#000000" font-family="Verdana" font-size="13" lengthAdjust="spacing" textLength="210" x="258.5" y="956.002">16. Generate new access token</text><polygon fill="#000000" points="728.5,999.5308,738.5,1003.5308,728.5,1007.5308,732.5,1003.5308" style="stroke:#000000;stroke-width:1.0;"/><line style="stroke:#000000;stroke-width:1.0;" x1="251.5" x2="734.5" y1="1003.5308" y2="1003.5308"/><text fill="#000000" font-family="Verdana" font-size="13" lengthAdjust="spacing" textLength="154" x="258.5" y="998.8013">17. Update token store</text><polygon fill="#000000" points="262.5,1029.3301,252.5,1033.3301,262.5,1037.3301,258.5,1033.3301" style="stroke:#000000;stroke-width:1.0;"/><line style="stroke:#000000;stroke-width:1.0;stroke-dasharray:2.0,2.0;" x1="256.5" x2="744.5" y1="1033.3301" y2="1033.3301"/><text fill="#000000" font-family="Verdana" font-size="13" lengthAdjust="spacing" textLength="81" x="268.5" y="1028.6006">18. Updated</text><polygon fill="#000000" points="52.5,1059.1294,42.5,1063.1294,52.5,1067.1294,48.5,1063.1294" style="stroke:#000000;stroke-width:1.0;"/><line style="stroke:#000000;stroke-width:1.0;stroke-dasharray:2.0,2.0;" x1="46.5" x2="245.5" y1="1063.1294" y2="1063.1294"/><text fill="#000000" font-family="Verdana" font-size="13" lengthAdjust="spacing" textLength="146" x="58.5" y="1058.3999">19. New access token</text><path d="M251,1076.1294 L251,1164.1294 L564,1164.1294 L564,1086.1294 L554,1076.1294 L251,1076.1294 " fill="#FFFFFF" style="stroke:#000000;stroke-width:1.0;"/><path d="M554,1076.1294 L554,1086.1294 L564,1086.1294 L554,1076.1294 " fill="#FFFFFF" style="stroke:#000000;stroke-width:1.0;"/><text fill="#000000" font-family="Verdana" font-size="13" lengthAdjust="spacing" textLength="104" x="257" y="1094.1992">Token security:</text><text fill="#000000" font-family="Verdana" font-size="13" lengthAdjust="spacing" textLength="268" x="257" y="1109.9985">- Short-lived access tokens (15-60 min)</text><text fill="#000000" font-family="Verdana" font-size="13" lengthAdjust="spacing" textLength="292" x="257" y="1125.7979">- Longer-lived refresh tokens (days/weeks)</text><text fill="#000000" font-family="Verdana" font-size="13" lengthAdjust="spacing" textLength="154" x="257" y="1141.5972">- Secure token storage</text><text fill="#000000" font-family="Verdana" font-size="13" lengthAdjust="spacing" textLength="195" x="257" y="1157.3965">- Token revocation capability</text><path d="M485,1175.126 L485,1263.126 L685,1263.126 L685,1185.126 L675,1175.126 L485,1175.126 " fill="#FFFFFF" style="stroke:#000000;stroke-width:1.0;"/><path d="M675,1175.126 L675,1185.126 L685,1185.126 L675,1175.126 " fill="#FFFFFF" style="stroke:#000000;stroke-width:1.0;"/><text fill="#000000" font-family="Verdana" font-size="13" lengthAdjust="spacing" textLength="86" x="491" y="1193.1958">API benefits:</text><text fill="#000000" font-family="Verdana" font-size="13" lengthAdjust="spacing" textLength="171" x="491" y="1208.9951">- Stateless authentication</text><text fill="#000000" font-family="Verdana" font-size="13" lengthAdjust="spacing" textLength="175" x="491" y="1224.7944">- Scalable across services</text><text fill="#000000" font-family="Verdana" font-size="13" lengthAdjust="spacing" textLength="179" x="491" y="1240.5938">- Fine-grained permissions</text><text fill="#000000" font-family="Verdana" font-size="13" lengthAdjust="spacing" textLength="154" x="491" y="1256.3931">- Easy token validation</text><!--SRC=[ZLNRRXCn47ttLmnvQjHaQNgZHAHI2nI1AbIH5bwGAk_k9B6wiHVRIHg-dl5b4szeeI-vx5nyvfmptbTsXdE4kk92CYjiXN2h7b3sBxd14YuM59TM5DmA9U6gKYl6U66LXixxIb2e0zn0uN-occjA5JMN5ZexfMFKIzG-crDa9_VcSokX5gpabkU40Jft1ZLyY7zzlCoJi8SBOu8KWjRzDun9PH4KjOpeUaq4ueIvdv2tOQvcg35MWCPV2pJMbV1G3LoMi31eG5YO40jcaHkNHTbkY89NbM58IUvunaQZS1Xy2wtWPkP0ZqQCnJFwvnx240OPNAkfaCsfF-KU7QGbdsCFQcxCIkcowyWNIqwZUHQP-tGzodm8XnbyvvKeNRJGMBgnEC7Pb3ZUSkXlZZpAm9ExZ5KbAp5DtdGFwSSPV4A9sfzU56WYsOJqouzR83PKpGbxUDhTbWVYXt2I1PqYbtEqtEb8zVXO2-qLw3bwzRqeUs0ALMCoSTGlV2LZd6QHPEEQjuPep12GK4LWVGXlCfB4BhJScMIVw9zeDBE8SK_L3XMlkcdRm3s9wpI_20sULBOMGpZBVDfMLhSPIelVVjuXN2BN9C8xV-1vgZ2j0QEFbCAtYSOD-SKCYmT8ANm1SmxPuA1XpZi0zZtt8EH4FKbYW19AoQutMld9jvEj1D7iUnHAMdoqtLYLC3yuRFWmjP86gImse6rqTcWpxJX8jYXeyuyjEiesMK71BRgex7sqvpERr30zE4weRfdY_uuSdEoYy0G_xynDuMcoOn9NBNS-WP5iV5TlpH0su0NupfgwbstBW6ptTHVDN_lWRrmjfZCBQXAUGREPM2oqiEiXFUd3cEnl-vLOklitQMbWRt3IFps0kI1zNEQrabFKCRKb0kMMV6rUhn0VJ4WUkqDI9lWKVU0s6c6fuYrVy9hdeY90oLsz0v-C1zweEUan4TP4x9O6hXpazfiZ1Ed-vtdbhaUjA8KsOIbeFX-y4XBxKqqlMfgbHZqNnb1X27xaPfrQ9VJSWFi3]--></g></svg>