<?xml version="1.0" encoding="us-ascii" standalone="no"?><svg xmlns="http://www.w3.org/2000/svg" xmlns:xlink="http://www.w3.org/1999/xlink" contentStyleType="text/css" height="1646px" preserveAspectRatio="none" style="width:1308px;height:1646px;background:#FFFFFF;" version="1.1" viewBox="0 0 1308 1646" width="1308px" zoomAndPan="magnify"><defs/><g><text fill="#000000" font-family="Verdana" font-size="22" font-weight="bold" lengthAdjust="spacing" textLength="496" x="404.75" y="37.1182">Multi-Factor Authentication (MFA) Flow</text><rect fill="#FFFFFF" height="433.7891" style="stroke:#000000;stroke-width:1.0;" width="10" x="493.5" y="289.5479"/><rect fill="#FFFFFF" height="429.3584" style="stroke:#000000;stroke-width:1.0;" width="10" x="493.5" y="812.7349"/><rect fill="#FFFFFF" height="358.3911" style="stroke:#000000;stroke-width:1.0;" width="10" x="721.5" y="319.3472"/><rect fill="#FFFFFF" height="399.5591" style="stroke:#000000;stroke-width:1.0;" width="10" x="721.5" y="842.5342"/><rect fill="#FFFFFF" height="45.5986" style="stroke:#000000;stroke-width:1.0;" width="10" x="928.5" y="586.541"/><rect fill="#FFFFFF" height="29.7993" style="stroke:#000000;stroke-width:1.0;" width="10" x="1223" y="349.1465"/><rect fill="#FFFFFF" height="29.7993" style="stroke:#000000;stroke-width:1.0;" width="10" x="1223" y="467.3438"/><rect fill="#FFFFFF" height="29.7993" style="stroke:#000000;stroke-width:1.0;" width="10" x="1223" y="872.3335"/><rect fill="#FFFFFF" height="29.7993" style="stroke:#000000;stroke-width:1.0;" width="10" x="1223" y="1015.3301"/><rect fill="#FFFFFF" height="317.9604" style="stroke:#000000;stroke-width:1.0;" width="1064.5" x="227" y="917.1328"/><rect fill="#FFFFFF" height="90.7666" style="stroke:none;stroke-width:1.0;" width="1064.5" x="227" y="1144.3267"/><line style="stroke:#000000;stroke-width:1.0;" x1="255" x2="255" y1="130.752" y2="1564.8823"/><line style="stroke:#000000;stroke-width:1.0;" x1="498.5" x2="498.5" y1="130.752" y2="1564.8823"/><line style="stroke:#000000;stroke-width:1.0;" x1="726.5" x2="726.5" y1="130.752" y2="1564.8823"/><line style="stroke:#000000;stroke-width:1.0;" x1="933" x2="933" y1="130.752" y2="1564.8823"/><line style="stroke:#000000;stroke-width:1.0;" x1="1099.5" x2="1099.5" y1="130.752" y2="1564.8823"/><line style="stroke:#000000;stroke-width:1.0;" x1="1227.5" x2="1227.5" y1="130.752" y2="1564.8823"/><text fill="#000000" font-family="Verdana" font-size="14" lengthAdjust="spacing" textLength="31" x="237" y="127.8125">User</text><ellipse cx="255.5" cy="61.7373" fill="#FFFFFF" rx="8" ry="8" style="stroke:#000000;stroke-width:1.0;"/><path d="M255.5,69.7373 L255.5,96.7373 M242.5,77.7373 L268.5,77.7373 M255.5,96.7373 L242.5,111.7373 M255.5,96.7373 L268.5,111.7373 " fill="none" style="stroke:#000000;stroke-width:1.0;"/><text fill="#000000" font-family="Verdana" font-size="14" lengthAdjust="spacing" textLength="31" x="237" y="1577.9575">User</text><ellipse cx="255.5" cy="1589.897" fill="#FFFFFF" rx="8" ry="8" style="stroke:#000000;stroke-width:1.0;"/><path d="M255.5,1597.897 L255.5,1624.897 M242.5,1605.897 L268.5,1605.897 M255.5,1624.897 L242.5,1639.897 M255.5,1624.897 L268.5,1639.897 " fill="none" style="stroke:#000000;stroke-width:1.0;"/><rect fill="#FFFFFF" height="31.0146" rx="2.5" ry="2.5" style="stroke:#000000;stroke-width:1.0;" width="128" x="434.5" y="98.7373"/><text fill="#000000" font-family="Verdana" font-size="14" lengthAdjust="spacing" textLength="114" x="441.5" y="119.8125">Web Application</text><rect fill="#FFFFFF" height="31.0146" rx="2.5" ry="2.5" style="stroke:#000000;stroke-width:1.0;" width="128" x="434.5" y="1563.8823"/><text fill="#000000" font-family="Verdana" font-size="14" lengthAdjust="spacing" textLength="114" x="441.5" y="1584.9575">Web Application</text><rect fill="#FFFFFF" height="31.0146" rx="2.5" ry="2.5" style="stroke:#000000;stroke-width:1.0;" width="168" x="642.5" y="98.7373"/><text fill="#000000" font-family="Verdana" font-size="14" lengthAdjust="spacing" textLength="154" x="649.5" y="119.8125">Authentication Server</text><rect fill="#FFFFFF" height="31.0146" rx="2.5" ry="2.5" style="stroke:#000000;stroke-width:1.0;" width="168" x="642.5" y="1563.8823"/><text fill="#000000" font-family="Verdana" font-size="14" lengthAdjust="spacing" textLength="154" x="649.5" y="1584.9575">Authentication Server</text><rect fill="#FFFFFF" height="31.0146" rx="2.5" ry="2.5" style="stroke:#000000;stroke-width:1.0;" width="147" x="860" y="98.7373"/><text fill="#000000" font-family="Verdana" font-size="14" lengthAdjust="spacing" textLength="133" x="867" y="119.8125">SMS/Email Service</text><rect fill="#FFFFFF" height="31.0146" rx="2.5" ry="2.5" style="stroke:#000000;stroke-width:1.0;" width="147" x="860" y="1563.8823"/><text fill="#000000" font-family="Verdana" font-size="14" lengthAdjust="spacing" textLength="133" x="867" y="1584.9575">SMS/Email Service</text><rect fill="#FFFFFF" height="31.0146" rx="2.5" ry="2.5" style="stroke:#000000;stroke-width:1.0;" width="110" x="1044.5" y="98.7373"/><text fill="#000000" font-family="Verdana" font-size="14" lengthAdjust="spacing" textLength="96" x="1051.5" y="119.8125">Mobile Device</text><rect fill="#FFFFFF" height="31.0146" rx="2.5" ry="2.5" style="stroke:#000000;stroke-width:1.0;" width="110" x="1044.5" y="1563.8823"/><text fill="#000000" font-family="Verdana" font-size="14" lengthAdjust="spacing" textLength="96" x="1051.5" y="1584.9575">Mobile Device</text><text fill="#000000" font-family="Verdana" font-size="14" lengthAdjust="spacing" textLength="101" x="1174.5" y="127.8125">User Database</text><path d="M1210,77.7373 C1210,67.7373 1228,67.7373 1228,67.7373 C1228,67.7373 1246,67.7373 1246,77.7373 L1246,103.7373 C1246,113.7373 1228,113.7373 1228,113.7373 C1228,113.7373 1210,113.7373 1210,103.7373 L1210,77.7373 " fill="#FFFFFF" style="stroke:#000000;stroke-width:1.5;"/><path d="M1210,77.7373 C1210,87.7373 1228,87.7373 1228,87.7373 C1228,87.7373 1246,87.7373 1246,77.7373 " fill="none" style="stroke:#000000;stroke-width:1.5;"/><text fill="#000000" font-family="Verdana" font-size="14" lengthAdjust="spacing" textLength="101" x="1174.5" y="1577.9575">User Database</text><path d="M1210,1590.897 C1210,1580.897 1228,1580.897 1228,1580.897 C1228,1580.897 1246,1580.897 1246,1590.897 L1246,1616.897 C1246,1626.897 1228,1626.897 1228,1626.897 C1228,1626.897 1210,1626.897 1210,1616.897 L1210,1590.897 " fill="#FFFFFF" style="stroke:#000000;stroke-width:1.5;"/><path d="M1210,1590.897 C1210,1600.897 1228,1600.897 1228,1600.897 C1228,1600.897 1246,1600.897 1246,1590.897 " fill="none" style="stroke:#000000;stroke-width:1.5;"/><rect fill="#FFFFFF" height="433.7891" style="stroke:#000000;stroke-width:1.0;" width="10" x="493.5" y="289.5479"/><rect fill="#FFFFFF" height="429.3584" style="stroke:#000000;stroke-width:1.0;" width="10" x="493.5" y="812.7349"/><rect fill="#FFFFFF" height="358.3911" style="stroke:#000000;stroke-width:1.0;" width="10" x="721.5" y="319.3472"/><rect fill="#FFFFFF" height="399.5591" style="stroke:#000000;stroke-width:1.0;" width="10" x="721.5" y="842.5342"/><rect fill="#FFFFFF" height="45.5986" style="stroke:#000000;stroke-width:1.0;" width="10" x="928.5" y="586.541"/><rect fill="#FFFFFF" height="29.7993" style="stroke:#000000;stroke-width:1.0;" width="10" x="1223" y="349.1465"/><rect fill="#FFFFFF" height="29.7993" style="stroke:#000000;stroke-width:1.0;" width="10" x="1223" y="467.3438"/><rect fill="#FFFFFF" height="29.7993" style="stroke:#000000;stroke-width:1.0;" width="10" x="1223" y="872.3335"/><rect fill="#FFFFFF" height="29.7993" style="stroke:#000000;stroke-width:1.0;" width="10" x="1223" y="1015.3301"/><path d="M222,145.752 L222,202.752 L1261,202.752 L1261,155.752 L1251,145.752 L222,145.752 " fill="#FFFFFF" style="stroke:#000000;stroke-width:1.0;"/><path d="M1251,145.752 L1251,155.752 L1261,155.752 L1251,145.752 " fill="#FFFFFF" style="stroke:#000000;stroke-width:1.0;"/><text fill="#000000" font-family="Verdana" font-size="13" lengthAdjust="spacing" textLength="249" x="612.75" y="163.8218">Multi-factor authentication combining</text><text fill="#000000" font-family="Verdana" font-size="13" lengthAdjust="spacing" textLength="247" x="612.75" y="179.6211">something you know (password) and</text><text fill="#000000" font-family="Verdana" font-size="13" lengthAdjust="spacing" textLength="235" x="612.75" y="195.4204">something you have (phone/email)</text><rect fill="#FFFFFF" height="3" style="stroke:#FFFFFF;stroke-width:1.0;" width="1296.5" x="5" y="229.0496"/><line style="stroke:#000000;stroke-width:0.5;" x1="5" x2="1301.5" y1="229.0496" y2="229.0496"/><line style="stroke:#000000;stroke-width:0.5;" x1="5" x2="1301.5" y1="232.0496" y2="232.0496"/><rect fill="#FFFFFF" height="23.7993" style="stroke:#000000;stroke-width:1.0;" width="292" x="507.25" y="218.1499"/><text fill="#000000" font-family="Verdana" font-size="13" font-weight="bold" lengthAdjust="spacing" textLength="274" x="513.25" y="235.2197">First Factor: Password Authentication</text><polygon fill="#000000" points="481.5,285.5479,491.5,289.5479,481.5,293.5479,485.5,289.5479" style="stroke:#000000;stroke-width:1.0;"/><line style="stroke:#000000;stroke-width:1.0;" x1="255.5" x2="487.5" y1="289.5479" y2="289.5479"/><text fill="#000000" font-family="Verdana" font-size="13" lengthAdjust="spacing" textLength="110" x="262.5" y="269.019">1. Login attempt</text><text fill="#000000" font-family="Verdana" font-size="13" lengthAdjust="spacing" textLength="151" x="262.5" y="284.8184">(username, password)</text><polygon fill="#000000" points="709.5,315.3472,719.5,319.3472,709.5,323.3472,713.5,319.3472" style="stroke:#000000;stroke-width:1.0;"/><line style="stroke:#000000;stroke-width:1.0;" x1="503.5" x2="715.5" y1="319.3472" y2="319.3472"/><text fill="#000000" font-family="Verdana" font-size="13" lengthAdjust="spacing" textLength="150" x="510.5" y="314.6177">2. Validate credentials</text><polygon fill="#000000" points="1211,345.1465,1221,349.1465,1211,353.1465,1215,349.1465" style="stroke:#000000;stroke-width:1.0;"/><line style="stroke:#000000;stroke-width:1.0;" x1="731.5" x2="1217" y1="349.1465" y2="349.1465"/><text fill="#000000" font-family="Verdana" font-size="13" lengthAdjust="spacing" textLength="170" x="738.5" y="344.417">3. Check user credentials</text><polygon fill="#000000" points="742.5,374.9458,732.5,378.9458,742.5,382.9458,738.5,378.9458" style="stroke:#000000;stroke-width:1.0;"/><line style="stroke:#000000;stroke-width:1.0;stroke-dasharray:2.0,2.0;" x1="736.5" x2="1227" y1="378.9458" y2="378.9458"/><text fill="#000000" font-family="Verdana" font-size="13" lengthAdjust="spacing" textLength="201" x="748.5" y="374.2163">4. User found, password valid</text><line style="stroke:#000000;stroke-width:1.0;" x1="731.5" x2="773.5" y1="424.5444" y2="424.5444"/><line style="stroke:#000000;stroke-width:1.0;" x1="773.5" x2="773.5" y1="424.5444" y2="437.5444"/><line style="stroke:#000000;stroke-width:1.0;" x1="732.5" x2="773.5" y1="437.5444" y2="437.5444"/><polygon fill="#000000" points="742.5,433.5444,732.5,437.5444,742.5,441.5444,738.5,437.5444" style="stroke:#000000;stroke-width:1.0;"/><text fill="#000000" font-family="Verdana" font-size="13" lengthAdjust="spacing" textLength="179" x="738.5" y="404.0156">5. Generate MFA challenge</text><text fill="#000000" font-family="Verdana" font-size="13" lengthAdjust="spacing" textLength="179" x="738.5" y="419.8149">(6-digit code + expiration)</text><polygon fill="#000000" points="1211,463.3438,1221,467.3438,1211,471.3438,1215,467.3438" style="stroke:#000000;stroke-width:1.0;"/><line style="stroke:#000000;stroke-width:1.0;" x1="731.5" x2="1217" y1="467.3438" y2="467.3438"/><text fill="#000000" font-family="Verdana" font-size="13" lengthAdjust="spacing" textLength="205" x="738.5" y="462.6143">6. Store MFA code temporarily</text><polygon fill="#000000" points="742.5,493.1431,732.5,497.1431,742.5,501.1431,738.5,497.1431" style="stroke:#000000;stroke-width:1.0;"/><line style="stroke:#000000;stroke-width:1.0;stroke-dasharray:2.0,2.0;" x1="736.5" x2="1227" y1="497.1431" y2="497.1431"/><text fill="#000000" font-family="Verdana" font-size="13" lengthAdjust="spacing" textLength="98" x="748.5" y="492.4136">7. Code stored</text><rect fill="#FFFFFF" height="3" style="stroke:#FFFFFF;stroke-width:1.0;" width="1296.5" x="5" y="526.0427"/><line style="stroke:#000000;stroke-width:0.5;" x1="5" x2="1301.5" y1="526.0427" y2="526.0427"/><line style="stroke:#000000;stroke-width:0.5;" x1="5" x2="1301.5" y1="529.0427" y2="529.0427"/><rect fill="#FFFFFF" height="23.7993" style="stroke:#000000;stroke-width:1.0;" width="296" x="505.25" y="515.1431"/><text fill="#000000" font-family="Verdana" font-size="13" font-weight="bold" lengthAdjust="spacing" textLength="278" x="511.25" y="532.2129">Second Factor: SMS/Email Verification</text><polygon fill="#000000" points="916.5,582.541,926.5,586.541,916.5,590.541,920.5,586.541" style="stroke:#000000;stroke-width:1.0;"/><line style="stroke:#000000;stroke-width:1.0;" x1="731.5" x2="922.5" y1="586.541" y2="586.541"/><text fill="#000000" font-family="Verdana" font-size="13" lengthAdjust="spacing" textLength="167" x="738.5" y="566.0122">8. Send verification code</text><text fill="#000000" font-family="Verdana" font-size="13" lengthAdjust="spacing" textLength="127" x="738.5" y="581.8115">(via SMS or email)</text><polygon fill="#000000" points="1087.5,628.1396,1097.5,632.1396,1087.5,636.1396,1091.5,632.1396" style="stroke:#000000;stroke-width:1.0;"/><line style="stroke:#000000;stroke-width:1.0;" x1="933.5" x2="1093.5" y1="632.1396" y2="632.1396"/><text fill="#000000" font-family="Verdana" font-size="13" lengthAdjust="spacing" textLength="102" x="940.5" y="611.6108">9. Deliver code</text><text fill="#000000" font-family="Verdana" font-size="13" lengthAdjust="spacing" textLength="137" x="940.5" y="627.4102">"Your code: 123456"</text><polygon fill="#000000" points="514.5,673.7383,504.5,677.7383,514.5,681.7383,510.5,677.7383" style="stroke:#000000;stroke-width:1.0;"/><line style="stroke:#000000;stroke-width:1.0;stroke-dasharray:2.0,2.0;" x1="508.5" x2="725.5" y1="677.7383" y2="677.7383"/><text fill="#000000" font-family="Verdana" font-size="13" lengthAdjust="spacing" textLength="150" x="520.5" y="657.2095">10. First factor passed</text><text fill="#000000" font-family="Verdana" font-size="13" lengthAdjust="spacing" textLength="125" x="520.5" y="673.0088">Awaiting MFA code</text><polygon fill="#000000" points="266.5,719.3369,256.5,723.3369,266.5,727.3369,262.5,723.3369" style="stroke:#000000;stroke-width:1.0;"/><line style="stroke:#000000;stroke-width:1.0;stroke-dasharray:2.0,2.0;" x1="260.5" x2="497.5" y1="723.3369" y2="723.3369"/><text fill="#000000" font-family="Verdana" font-size="13" lengthAdjust="spacing" textLength="169" x="272.5" y="702.8081">11. Show MFA input form</text><text fill="#000000" font-family="Verdana" font-size="13" lengthAdjust="spacing" textLength="214" x="272.5" y="718.6074">"Enter code sent to your phone"</text><rect fill="#FFFFFF" height="3" style="stroke:#FFFFFF;stroke-width:1.0;" width="1296.5" x="5" y="752.2366"/><line style="stroke:#000000;stroke-width:0.5;" x1="5" x2="1301.5" y1="752.2366" y2="752.2366"/><line style="stroke:#000000;stroke-width:0.5;" x1="5" x2="1301.5" y1="755.2366" y2="755.2366"/><rect fill="#FFFFFF" height="23.7993" style="stroke:#000000;stroke-width:1.0;" width="175" x="565.75" y="741.3369"/><text fill="#000000" font-family="Verdana" font-size="13" font-weight="bold" lengthAdjust="spacing" textLength="157" x="571.75" y="758.4067">MFA Code Verification</text><polygon fill="#000000" points="481.5,808.7349,491.5,812.7349,481.5,816.7349,485.5,812.7349" style="stroke:#000000;stroke-width:1.0;"/><line style="stroke:#000000;stroke-width:1.0;" x1="255.5" x2="487.5" y1="812.7349" y2="812.7349"/><text fill="#000000" font-family="Verdana" font-size="13" lengthAdjust="spacing" textLength="141" x="262.5" y="792.2061">12. Submit MFA code</text><text fill="#000000" font-family="Verdana" font-size="13" lengthAdjust="spacing" textLength="60" x="262.5" y="808.0054">(123456)</text><polygon fill="#000000" points="709.5,838.5342,719.5,842.5342,709.5,846.5342,713.5,842.5342" style="stroke:#000000;stroke-width:1.0;"/><line style="stroke:#000000;stroke-width:1.0;" x1="503.5" x2="715.5" y1="842.5342" y2="842.5342"/><text fill="#000000" font-family="Verdana" font-size="13" lengthAdjust="spacing" textLength="134" x="510.5" y="837.8047">13. Verify MFA code</text><polygon fill="#000000" points="1211,868.3335,1221,872.3335,1211,876.3335,1215,872.3335" style="stroke:#000000;stroke-width:1.0;"/><line style="stroke:#000000;stroke-width:1.0;" x1="731.5" x2="1217" y1="872.3335" y2="872.3335"/><text fill="#000000" font-family="Verdana" font-size="13" lengthAdjust="spacing" textLength="149" x="738.5" y="867.604">14. Check stored code</text><polygon fill="#000000" points="742.5,898.1328,732.5,902.1328,742.5,906.1328,738.5,902.1328" style="stroke:#000000;stroke-width:1.0;"/><line style="stroke:#000000;stroke-width:1.0;stroke-dasharray:2.0,2.0;" x1="736.5" x2="1227" y1="902.1328" y2="902.1328"/><text fill="#000000" font-family="Verdana" font-size="13" lengthAdjust="spacing" textLength="191" x="748.5" y="897.4033">15. Code valid &amp; not expired</text><path d="M227,917.1328 L291,917.1328 L291,924.9321 L281,934.9321 L227,934.9321 L227,917.1328 " fill="#FFFFFF" style="stroke:#000000;stroke-width:1.0;"/><rect fill="none" height="317.9604" style="stroke:#000000;stroke-width:1.0;" width="1064.5" x="227" y="917.1328"/><text fill="#000000" font-family="Verdana" font-size="13" font-weight="bold" lengthAdjust="spacing" textLength="19" x="242" y="931.2026">alt</text><text fill="#000000" font-family="Verdana" font-size="11" font-weight="bold" lengthAdjust="spacing" textLength="108" x="306" y="930.1919">[MFA Code Valid]</text><line style="stroke:#000000;stroke-width:1.0;" x1="731.5" x2="773.5" y1="956.7314" y2="956.7314"/><line style="stroke:#000000;stroke-width:1.0;" x1="773.5" x2="773.5" y1="956.7314" y2="969.7314"/><line style="stroke:#000000;stroke-width:1.0;" x1="732.5" x2="773.5" y1="969.7314" y2="969.7314"/><polygon fill="#000000" points="742.5,965.7314,732.5,969.7314,742.5,973.7314,738.5,969.7314" style="stroke:#000000;stroke-width:1.0;"/><text fill="#000000" font-family="Verdana" font-size="13" lengthAdjust="spacing" textLength="183" x="738.5" y="952.002">16. Generate session token</text><polygon fill="#000000" points="1211,1011.3301,1221,1015.3301,1211,1019.3301,1215,1015.3301" style="stroke:#000000;stroke-width:1.0;"/><line style="stroke:#000000;stroke-width:1.0;" x1="731.5" x2="1217" y1="1015.3301" y2="1015.3301"/><text fill="#000000" font-family="Verdana" font-size="13" lengthAdjust="spacing" textLength="129" x="738.5" y="994.8013">17. Clear MFA code</text><text fill="#000000" font-family="Verdana" font-size="13" lengthAdjust="spacing" textLength="90" x="738.5" y="1010.6006">Store session</text><polygon fill="#000000" points="742.5,1041.1294,732.5,1045.1294,742.5,1049.1294,738.5,1045.1294" style="stroke:#000000;stroke-width:1.0;"/><line style="stroke:#000000;stroke-width:1.0;stroke-dasharray:2.0,2.0;" x1="736.5" x2="1227" y1="1045.1294" y2="1045.1294"/><text fill="#000000" font-family="Verdana" font-size="13" lengthAdjust="spacing" textLength="132" x="748.5" y="1040.3999">18. Session created</text><polygon fill="#000000" points="514.5,1086.728,504.5,1090.728,514.5,1094.728,510.5,1090.728" style="stroke:#000000;stroke-width:1.0;"/><line style="stroke:#000000;stroke-width:1.0;stroke-dasharray:2.0,2.0;" x1="508.5" x2="720.5" y1="1090.728" y2="1090.728"/><text fill="#000000" font-family="Verdana" font-size="13" lengthAdjust="spacing" textLength="194" x="520.5" y="1070.1992">19. Authentication successful</text><text fill="#000000" font-family="Verdana" font-size="13" lengthAdjust="spacing" textLength="103" x="520.5" y="1085.9985">(session token)</text><polygon fill="#000000" points="266.5,1132.3267,256.5,1136.3267,266.5,1140.3267,262.5,1136.3267" style="stroke:#000000;stroke-width:1.0;"/><line style="stroke:#000000;stroke-width:1.0;stroke-dasharray:2.0,2.0;" x1="260.5" x2="492.5" y1="1136.3267" y2="1136.3267"/><text fill="#000000" font-family="Verdana" font-size="13" lengthAdjust="spacing" textLength="134" x="272.5" y="1115.7979">20. Login successful</text><text fill="#000000" font-family="Verdana" font-size="13" lengthAdjust="spacing" textLength="147" x="272.5" y="1131.5972">Redirect to dashboard</text><line style="stroke:#000000;stroke-width:1.0;stroke-dasharray:2.0,2.0;" x1="227" x2="1291.5" y1="1145.3267" y2="1145.3267"/><text fill="#000000" font-family="Verdana" font-size="11" font-weight="bold" lengthAdjust="spacing" textLength="176" x="232" y="1156.3857">[MFA Code Invalid/Expired]</text><polygon fill="#000000" points="514.5,1177.4946,504.5,1181.4946,514.5,1185.4946,510.5,1181.4946" style="stroke:#000000;stroke-width:1.0;"/><line style="stroke:#000000;stroke-width:1.0;stroke-dasharray:2.0,2.0;" x1="508.5" x2="720.5" y1="1181.4946" y2="1181.4946"/><text fill="#000000" font-family="Verdana" font-size="13" lengthAdjust="spacing" textLength="175" x="520.5" y="1176.7651">19. MFA verification failed</text><polygon fill="#000000" points="266.5,1223.0933,256.5,1227.0933,266.5,1231.0933,262.5,1227.0933" style="stroke:#000000;stroke-width:1.0;"/><line style="stroke:#000000;stroke-width:1.0;stroke-dasharray:2.0,2.0;" x1="260.5" x2="492.5" y1="1227.0933" y2="1227.0933"/><text fill="#000000" font-family="Verdana" font-size="13" lengthAdjust="spacing" textLength="107" x="272.5" y="1206.5645">20. Invalid code</text><text fill="#000000" font-family="Verdana" font-size="13" lengthAdjust="spacing" textLength="108" x="272.5" y="1222.3638">Please try again</text><path d="M731,1247.0933 L731,1335.0933 L1003,1335.0933 L1003,1257.0933 L993,1247.0933 L731,1247.0933 " fill="#FFFFFF" style="stroke:#000000;stroke-width:1.0;"/><path d="M993,1247.0933 L993,1257.0933 L1003,1257.0933 L993,1247.0933 " fill="#FFFFFF" style="stroke:#000000;stroke-width:1.0;"/><text fill="#000000" font-family="Verdana" font-size="13" lengthAdjust="spacing" textLength="152" x="737" y="1265.1631">MFA Security Benefits:</text><text fill="#000000" font-family="Verdana" font-size="13" lengthAdjust="spacing" textLength="251" x="737" y="1280.9624">- Protects against password breaches</text><text fill="#000000" font-family="Verdana" font-size="13" lengthAdjust="spacing" textLength="216" x="737" y="1296.7617">- Reduces account takeover risk</text><text fill="#000000" font-family="Verdana" font-size="13" lengthAdjust="spacing" textLength="249" x="737" y="1312.561">- Compliance with security standards</text><text fill="#000000" font-family="Verdana" font-size="13" lengthAdjust="spacing" textLength="227" x="737" y="1328.3604">- Adaptive authentication possible</text><path d="M938,1346.0898 L938,1450.0898 L1146,1450.0898 L1146,1356.0898 L1136,1346.0898 L938,1346.0898 " fill="#FFFFFF" style="stroke:#000000;stroke-width:1.0;"/><path d="M1136,1346.0898 L1136,1356.0898 L1146,1356.0898 L1136,1346.0898 " fill="#FFFFFF" style="stroke:#000000;stroke-width:1.0;"/><text fill="#000000" font-family="Verdana" font-size="13" lengthAdjust="spacing" textLength="122" x="944" y="1364.1597">Delivery Methods:</text><text fill="#000000" font-family="Verdana" font-size="13" lengthAdjust="spacing" textLength="152" x="944" y="1379.959">- SMS (most common)</text><text fill="#000000" font-family="Verdana" font-size="13" lengthAdjust="spacing" textLength="48" x="944" y="1395.7583">- Email</text><text fill="#000000" font-family="Verdana" font-size="13" lengthAdjust="spacing" textLength="187" x="944" y="1411.5576">- Authenticator apps (TOTP)</text><text fill="#000000" font-family="Verdana" font-size="13" lengthAdjust="spacing" textLength="125" x="944" y="1427.3569">- Hardware tokens</text><text fill="#000000" font-family="Verdana" font-size="13" lengthAdjust="spacing" textLength="155" x="944" y="1443.1563">- Biometric verification</text><path d="M10,1460.8857 L10,1548.8857 L251,1548.8857 L251,1470.8857 L241,1460.8857 L10,1460.8857 " fill="#FFFFFF" style="stroke:#000000;stroke-width:1.0;"/><path d="M241,1460.8857 L241,1470.8857 L251,1470.8857 L241,1460.8857 " fill="#FFFFFF" style="stroke:#000000;stroke-width:1.0;"/><text fill="#000000" font-family="Verdana" font-size="13" lengthAdjust="spacing" textLength="115" x="16" y="1478.9556">User Experience:</text><text fill="#000000" font-family="Verdana" font-size="13" lengthAdjust="spacing" textLength="128" x="16" y="1494.7549">- Clear instructions</text><text fill="#000000" font-family="Verdana" font-size="13" lengthAdjust="spacing" textLength="220" x="16" y="1510.5542">- Reasonable timeout (5-10 min)</text><text fill="#000000" font-family="Verdana" font-size="13" lengthAdjust="spacing" textLength="201" x="16" y="1526.3535">- Backup verification methods</text><text fill="#000000" font-family="Verdana" font-size="13" lengthAdjust="spacing" textLength="219" x="16" y="1542.1528">- "Remember this device" option</text><!--SRC=[VLRlRzis4Fskl-Bc3uE3rKwS9jbc80EIDka6B5XGTnq6z0ibdMt24YcGbBtyztj7ohRaj0qGGpRlnxjtxtZw8QovPcegfKqMTAYOdjegwCcZAe9rTDV2m0HTgA2jeV7JuzqPFLPsbsN9OFItPpSYvQd5GzOe1sFTA1Dez0_dTDSqLUSThLJJ38rECYpORRk02YT3syNJuloXLhgAPhhWQEThFpHxihb68U_vO5B7Nx9I1PKhpmarlU- -HfCopp9Z0vD5_bZC6_cDEZwMgLmrH5lOEjT6cnNilAqvhF5CBxQbZR4x6ZVA-vrrvHafKxwoMQijmsPj3P-pb7MMiIb9K6JPxIqzQkS3fKxCwRcBTTgJszii4xWq-KtOdTDiId_QbJQaGk2w2L_CMCwDglaD7H19__HMeM1fIOQF602nvtGvfS-gqgMS5evBoQOgttEHrcJoAKvbFgUtKtgtvc8JcVkw4zWiSveSibnDARPXQLjJ7f7HLb9d9VST3xcIw_MKFh1X9wUG91LhLLLiLenQRoQbNkc0tfHCFn7_rsWNcJeR8hwPqWB4TW74MDYoJZbTlNmRzSyeL8oz-Bw2YQujkB3euhvjHyr-PgUN_QxjqK30S_e5SAJxsxwLm499Mwqa3a60dKuEIKNy-9SmIUHp-dKAwLTQP9pyH__QDZr379TlhwvlHdtS4gB3Sf3GnRHJNwTxQGwNNypTJkaW-jsJrW_KgKAKX40Y14I26XThp88uQDEq26bT3L0F9dG8oKCh5AmC1LB9F0m0He62MGaHkN_5v53_aE-YpMjeO8yI7AR2lolx6KGSGxySo_kEv6TNUyqdBPmud0fdTjqf9-gRVfGvJ-fyBIDLXLwrSHu8VyCXcDtqfi2pzy96i1isqNZW4V6AT2jMhaTBce3EENdqSCZtOGrHfIaJPXnc2TWG_adsGryWp9ExoxT5WN3BjaA71YMSzQ8C17LviR_U-iuVkGIFHLHHgVmwjyebQ1bNdeza_c4Y_USF7V5VXodcWq5SOkewwszWwW9tl3w3PwGDxeNKIdOhHZjxDIkd6e_xn-dLEf1T9XEAM72dj4w75xf7lvSw-3aE9lJiu504dt9WMWztQ8xc56lsqGpaj60AhIrmrO8ZjU6uvPpscsZnpjPOqyeKJ3iDClm-dmzONA0o1RehLGEyVBe66ulEvLYmn_KrB4Mk6DhVIfWkB45RTaN8nJQkhPSRkwvjxFo4ufMPaXvpoG9k6a_ZJtzzUavslmFSJa73KJK9vhsMDUjqCUZXARYAbn5RV6-Xj8gW2dWmU4ZOqhW8jQuj9CYUKEMjKQYOWgxPub8RNqzc5rJh3lwzAZPjCzHGdQgEvwEFUEsgSwJ4wm1UFhfN5TiCaVuF]--></g></svg>