<?xml version="1.0" encoding="us-ascii" standalone="no"?><svg xmlns="http://www.w3.org/2000/svg" xmlns:xlink="http://www.w3.org/1999/xlink" contentStyleType="text/css" height="2208px" preserveAspectRatio="none" style="width:1245px;height:2208px;background:#FFFFFF;" version="1.1" viewBox="0 0 1245 2208" width="1245px" zoomAndPan="magnify"><defs/><g><text fill="#000000" font-family="Verdana" font-size="22" font-weight="bold" lengthAdjust="spacing" textLength="444" x="399" y="37.1182">OpenID Connect (OIDC) Login Flow</text><rect fill="#FFFFFF" height="45.5986" style="stroke:#000000;stroke-width:1.0;" width="10" x="641.5" y="257.9492"/><rect fill="#FFFFFF" height="716.5815" style="stroke:#000000;stroke-width:1.0;" width="10" x="641.5" y="767.7056"/><rect fill="#FFFFFF" height="88.3979" style="stroke:#000000;stroke-width:1.0;" width="10" x="641.5" y="1557.8857"/><rect fill="#FFFFFF" height="372.9604" style="stroke:#000000;stroke-width:1.0;" width="10" x="946.5" y="349.1465"/><rect fill="#FFFFFF" height="119.9966" style="stroke:#000000;stroke-width:1.0;" width="10" x="946.5" y="872.9028"/><rect fill="#FFFFFF" height="88.3979" style="stroke:#000000;stroke-width:1.0;" width="10" x="946.5" y="1676.083"/><rect fill="#FFFFFF" height="45.5986" style="stroke:#000000;stroke-width:1.0;" width="10" x="1147.5" y="1290.6919"/><rect fill="#FFFFFF" height="194.1646" style="stroke:#000000;stroke-width:1.0;" width="912.5" x="240" y="364.1465"/><rect fill="#FFFFFF" height="58.168" style="stroke:none;stroke-width:1.0;" width="912.5" x="240" y="500.1431"/><line style="stroke:#000000;stroke-width:1.0;" x1="268" x2="268" y1="130.752" y2="2126.8687"/><line style="stroke:#000000;stroke-width:1.0;" x1="646.5" x2="646.5" y1="130.752" y2="2126.8687"/><line style="stroke:#000000;stroke-width:1.0;" x1="951.5" x2="951.5" y1="130.752" y2="2126.8687"/><line style="stroke:#000000;stroke-width:1.0;" x1="1152" x2="1152" y1="130.752" y2="2126.8687"/><text fill="#000000" font-family="Verdana" font-size="14" lengthAdjust="spacing" textLength="31" x="250" y="127.8125">User</text><ellipse cx="268.5" cy="61.7373" fill="#FFFFFF" rx="8" ry="8" style="stroke:#000000;stroke-width:1.0;"/><path d="M268.5,69.7373 L268.5,96.7373 M255.5,77.7373 L281.5,77.7373 M268.5,96.7373 L255.5,111.7373 M268.5,96.7373 L281.5,111.7373 " fill="none" style="stroke:#000000;stroke-width:1.0;"/><text fill="#000000" font-family="Verdana" font-size="14" lengthAdjust="spacing" textLength="31" x="250" y="2139.9438">User</text><ellipse cx="268.5" cy="2151.8833" fill="#FFFFFF" rx="8" ry="8" style="stroke:#000000;stroke-width:1.0;"/><path d="M268.5,2159.8833 L268.5,2186.8833 M255.5,2167.8833 L281.5,2167.8833 M268.5,2186.8833 L255.5,2201.8833 M268.5,2186.8833 L281.5,2201.8833 " fill="none" style="stroke:#000000;stroke-width:1.0;"/><rect fill="#FFFFFF" height="48.0293" rx="2.5" ry="2.5" style="stroke:#000000;stroke-width:1.0;" width="138" x="577.5" y="81.7227"/><text fill="#000000" font-family="Verdana" font-size="14" lengthAdjust="spacing" textLength="124" x="584.5" y="102.7979">Client Application</text><text fill="#000000" font-family="Verdana" font-size="14" lengthAdjust="spacing" textLength="105" x="594" y="119.8125">(Relying Party)</text><rect fill="#FFFFFF" height="48.0293" rx="2.5" ry="2.5" style="stroke:#000000;stroke-width:1.0;" width="138" x="577.5" y="2125.8687"/><text fill="#000000" font-family="Verdana" font-size="14" lengthAdjust="spacing" textLength="124" x="584.5" y="2146.9438">Client Application</text><text fill="#000000" font-family="Verdana" font-size="14" lengthAdjust="spacing" textLength="105" x="594" y="2163.9585">(Relying Party)</text><rect fill="#FFFFFF" height="48.0293" rx="2.5" ry="2.5" style="stroke:#000000;stroke-width:1.0;" width="132" x="885.5" y="81.7227"/><text fill="#000000" font-family="Verdana" font-size="14" lengthAdjust="spacing" textLength="118" x="892.5" y="102.7979">Identity Provider</text><text fill="#000000" font-family="Verdana" font-size="14" lengthAdjust="spacing" textLength="112" x="895.5" y="119.8125">(OIDC Provider)</text><rect fill="#FFFFFF" height="48.0293" rx="2.5" ry="2.5" style="stroke:#000000;stroke-width:1.0;" width="132" x="885.5" y="2125.8687"/><text fill="#000000" font-family="Verdana" font-size="14" lengthAdjust="spacing" textLength="118" x="892.5" y="2146.9438">Identity Provider</text><text fill="#000000" font-family="Verdana" font-size="14" lengthAdjust="spacing" textLength="112" x="895.5" y="2163.9585">(OIDC Provider)</text><rect fill="#FFFFFF" height="31.0146" rx="2.5" ry="2.5" style="stroke:#000000;stroke-width:1.0;" width="141" x="1082" y="98.7373"/><text fill="#000000" font-family="Verdana" font-size="14" lengthAdjust="spacing" textLength="127" x="1089" y="119.8125">UserInfo Endpoint</text><rect fill="#FFFFFF" height="31.0146" rx="2.5" ry="2.5" style="stroke:#000000;stroke-width:1.0;" width="141" x="1082" y="2125.8687"/><text fill="#000000" font-family="Verdana" font-size="14" lengthAdjust="spacing" textLength="127" x="1089" y="2146.9438">UserInfo Endpoint</text><rect fill="#FFFFFF" height="45.5986" style="stroke:#000000;stroke-width:1.0;" width="10" x="641.5" y="257.9492"/><rect fill="#FFFFFF" height="716.5815" style="stroke:#000000;stroke-width:1.0;" width="10" x="641.5" y="767.7056"/><rect fill="#FFFFFF" height="88.3979" style="stroke:#000000;stroke-width:1.0;" width="10" x="641.5" y="1557.8857"/><rect fill="#FFFFFF" height="372.9604" style="stroke:#000000;stroke-width:1.0;" width="10" x="946.5" y="349.1465"/><rect fill="#FFFFFF" height="119.9966" style="stroke:#000000;stroke-width:1.0;" width="10" x="946.5" y="872.9028"/><rect fill="#FFFFFF" height="88.3979" style="stroke:#000000;stroke-width:1.0;" width="10" x="946.5" y="1676.083"/><rect fill="#FFFFFF" height="45.5986" style="stroke:#000000;stroke-width:1.0;" width="10" x="1147.5" y="1290.6919"/><path d="M221,145.752 L221,186.752 L1199,186.752 L1199,155.752 L1189,145.752 L221,145.752 " fill="#FFFFFF" style="stroke:#000000;stroke-width:1.0;"/><path d="M1189,145.752 L1189,155.752 L1199,155.752 L1189,145.752 " fill="#FFFFFF" style="stroke:#000000;stroke-width:1.0;"/><text fill="#000000" font-family="Verdana" font-size="13" lengthAdjust="spacing" textLength="290" x="541.5" y="163.8218">OpenID Connect extends OAuth2 to provide</text><text fill="#000000" font-family="Verdana" font-size="13" lengthAdjust="spacing" textLength="328" x="541.5" y="179.6211">identity layer with standardized user information</text><rect fill="#FFFFFF" height="3" style="stroke:#FFFFFF;stroke-width:1.0;" width="1233" x="5" y="213.2502"/><line style="stroke:#000000;stroke-width:0.5;" x1="5" x2="1238" y1="213.2502" y2="213.2502"/><line style="stroke:#000000;stroke-width:0.5;" x1="5" x2="1238" y1="216.2502" y2="216.2502"/><rect fill="#FFFFFF" height="23.7993" style="stroke:#000000;stroke-width:1.0;" width="189" x="527" y="202.3506"/><text fill="#000000" font-family="Verdana" font-size="13" font-weight="bold" lengthAdjust="spacing" textLength="171" x="533" y="219.4204">Authentication Request</text><polygon fill="#000000" points="629.5,253.9492,639.5,257.9492,629.5,261.9492,633.5,257.9492" style="stroke:#000000;stroke-width:1.0;"/><line style="stroke:#000000;stroke-width:1.0;" x1="268.5" x2="635.5" y1="257.9492" y2="257.9492"/><text fill="#000000" font-family="Verdana" font-size="13" lengthAdjust="spacing" textLength="271" x="275.5" y="253.2197">1. User clicks "Login with Google/Auth0"</text><polygon fill="#000000" points="279.5,299.5479,269.5,303.5479,279.5,307.5479,275.5,303.5479" style="stroke:#000000;stroke-width:1.0;"/><line style="stroke:#000000;stroke-width:1.0;stroke-dasharray:2.0,2.0;" x1="273.5" x2="645.5" y1="303.5479" y2="303.5479"/><text fill="#000000" font-family="Verdana" font-size="13" lengthAdjust="spacing" textLength="208" x="285.5" y="283.019">2. Redirect to Identity Provider</text><text fill="#000000" font-family="Verdana" font-size="13" lengthAdjust="spacing" textLength="349" x="285.5" y="298.8184">(client_id, redirect_uri, scope=openid profile email)</text><polygon fill="#000000" points="934.5,345.1465,944.5,349.1465,934.5,353.1465,938.5,349.1465" style="stroke:#000000;stroke-width:1.0;"/><line style="stroke:#000000;stroke-width:1.0;" x1="268.5" x2="940.5" y1="349.1465" y2="349.1465"/><text fill="#000000" font-family="Verdana" font-size="13" lengthAdjust="spacing" textLength="168" x="275.5" y="328.6177">3. Authentication request</text><text fill="#000000" font-family="Verdana" font-size="13" lengthAdjust="spacing" textLength="226" x="275.5" y="344.417">(GET /authorize?scope=openid...)</text><path d="M240,364.1465 L304,364.1465 L304,371.9458 L294,381.9458 L240,381.9458 L240,364.1465 " fill="#FFFFFF" style="stroke:#000000;stroke-width:1.0;"/><rect fill="none" height="194.1646" style="stroke:#000000;stroke-width:1.0;" width="912.5" x="240" y="364.1465"/><text fill="#000000" font-family="Verdana" font-size="13" font-weight="bold" lengthAdjust="spacing" textLength="19" x="255" y="378.2163">alt</text><text fill="#000000" font-family="Verdana" font-size="11" font-weight="bold" lengthAdjust="spacing" textLength="154" x="319" y="377.2056">[User not authenticated]</text><polygon fill="#000000" points="279.5,399.7451,269.5,403.7451,279.5,407.7451,275.5,403.7451" style="stroke:#000000;stroke-width:1.0;"/><line style="stroke:#000000;stroke-width:1.0;stroke-dasharray:2.0,2.0;" x1="273.5" x2="945.5" y1="403.7451" y2="403.7451"/><text fill="#000000" font-family="Verdana" font-size="13" lengthAdjust="spacing" textLength="136" x="285.5" y="399.0156">4a. Show login page</text><polygon fill="#000000" points="934.5,445.3438,944.5,449.3438,934.5,453.3438,938.5,449.3438" style="stroke:#000000;stroke-width:1.0;"/><line style="stroke:#000000;stroke-width:1.0;" x1="268.5" x2="940.5" y1="449.3438" y2="449.3438"/><text fill="#000000" font-family="Verdana" font-size="13" lengthAdjust="spacing" textLength="135" x="275.5" y="428.8149">5a. User credentials</text><text fill="#000000" font-family="Verdana" font-size="13" lengthAdjust="spacing" textLength="151" x="275.5" y="444.6143">(username, password)</text><line style="stroke:#000000;stroke-width:1.0;" x1="956.5" x2="998.5" y1="479.1431" y2="479.1431"/><line style="stroke:#000000;stroke-width:1.0;" x1="998.5" x2="998.5" y1="479.1431" y2="492.1431"/><line style="stroke:#000000;stroke-width:1.0;" x1="957.5" x2="998.5" y1="492.1431" y2="492.1431"/><polygon fill="#000000" points="967.5,488.1431,957.5,492.1431,967.5,496.1431,963.5,492.1431" style="stroke:#000000;stroke-width:1.0;"/><text fill="#000000" font-family="Verdana" font-size="13" lengthAdjust="spacing" textLength="158" x="963.5" y="474.4136">6a. Validate credentials</text><line style="stroke:#000000;stroke-width:1.0;stroke-dasharray:2.0,2.0;" x1="240" x2="1152.5" y1="501.1431" y2="501.1431"/><text fill="#000000" font-family="Verdana" font-size="11" font-weight="bold" lengthAdjust="spacing" textLength="178" x="245" y="512.2021">[User already authenticated]</text><line style="stroke:#000000;stroke-width:1.0;" x1="956.5" x2="998.5" y1="537.311" y2="537.311"/><line style="stroke:#000000;stroke-width:1.0;" x1="998.5" x2="998.5" y1="537.311" y2="550.311"/><line style="stroke:#000000;stroke-width:1.0;" x1="957.5" x2="998.5" y1="550.311" y2="550.311"/><polygon fill="#000000" points="967.5,546.311,957.5,550.311,967.5,554.311,963.5,550.311" style="stroke:#000000;stroke-width:1.0;"/><text fill="#000000" font-family="Verdana" font-size="13" lengthAdjust="spacing" textLength="177" x="963.5" y="532.5815">4b. Check existing session</text><polygon fill="#000000" points="279.5,598.9097,269.5,602.9097,279.5,606.9097,275.5,602.9097" style="stroke:#000000;stroke-width:1.0;"/><line style="stroke:#000000;stroke-width:1.0;stroke-dasharray:2.0,2.0;" x1="273.5" x2="945.5" y1="602.9097" y2="602.9097"/><text fill="#000000" font-family="Verdana" font-size="13" lengthAdjust="spacing" textLength="147" x="285.5" y="582.3809">7. Show consent page</text><text fill="#000000" font-family="Verdana" font-size="13" lengthAdjust="spacing" textLength="225" x="285.5" y="598.1802">("Share profile info with App X?")</text><polygon fill="#000000" points="934.5,628.709,944.5,632.709,934.5,636.709,938.5,632.709" style="stroke:#000000;stroke-width:1.0;"/><line style="stroke:#000000;stroke-width:1.0;" x1="268.5" x2="940.5" y1="632.709" y2="632.709"/><text fill="#000000" font-family="Verdana" font-size="13" lengthAdjust="spacing" textLength="152" x="275.5" y="627.9795">8. User grants consent</text><rect fill="#FFFFFF" height="3" style="stroke:#FFFFFF;stroke-width:1.0;" width="1233" x="5" y="661.6086"/><line style="stroke:#000000;stroke-width:0.5;" x1="5" x2="1238" y1="661.6086" y2="661.6086"/><line style="stroke:#000000;stroke-width:0.5;" x1="5" x2="1238" y1="664.6086" y2="664.6086"/><rect fill="#FFFFFF" height="23.7993" style="stroke:#000000;stroke-width:1.0;" width="191" x="526" y="650.709"/><text fill="#000000" font-family="Verdana" font-size="13" font-weight="bold" lengthAdjust="spacing" textLength="173" x="532" y="667.7788">Authorization Response</text><polygon fill="#000000" points="279.5,718.1069,269.5,722.1069,279.5,726.1069,275.5,722.1069" style="stroke:#000000;stroke-width:1.0;"/><line style="stroke:#000000;stroke-width:1.0;stroke-dasharray:2.0,2.0;" x1="273.5" x2="950.5" y1="722.1069" y2="722.1069"/><text fill="#000000" font-family="Verdana" font-size="13" lengthAdjust="spacing" textLength="234" x="285.5" y="701.5781">9. Redirect with authorization code</text><text fill="#000000" font-family="Verdana" font-size="13" lengthAdjust="spacing" textLength="180" x="285.5" y="717.3774">(code=XYZ789&amp;state=abc)</text><polygon fill="#000000" points="629.5,763.7056,639.5,767.7056,629.5,771.7056,633.5,767.7056" style="stroke:#000000;stroke-width:1.0;"/><line style="stroke:#000000;stroke-width:1.0;" x1="268.5" x2="635.5" y1="767.7056" y2="767.7056"/><text fill="#000000" font-family="Verdana" font-size="13" lengthAdjust="spacing" textLength="150" x="275.5" y="747.1768">10. Authorization code</text><text fill="#000000" font-family="Verdana" font-size="13" lengthAdjust="spacing" textLength="122" x="275.5" y="762.9761">(via callback URL)</text><rect fill="#FFFFFF" height="3" style="stroke:#FFFFFF;stroke-width:1.0;" width="1233" x="5" y="796.6052"/><line style="stroke:#000000;stroke-width:0.5;" x1="5" x2="1238" y1="796.6052" y2="796.6052"/><line style="stroke:#000000;stroke-width:0.5;" x1="5" x2="1238" y1="799.6052" y2="799.6052"/><rect fill="#FFFFFF" height="23.7993" style="stroke:#000000;stroke-width:1.0;" width="138" x="552.5" y="785.7056"/><text fill="#000000" font-family="Verdana" font-size="13" font-weight="bold" lengthAdjust="spacing" textLength="120" x="558.5" y="802.7754">Token Exchange</text><polygon fill="#000000" points="934.5,868.9028,944.5,872.9028,934.5,876.9028,938.5,872.9028" style="stroke:#000000;stroke-width:1.0;"/><line style="stroke:#000000;stroke-width:1.0;" x1="651.5" x2="940.5" y1="872.9028" y2="872.9028"/><text fill="#000000" font-family="Verdana" font-size="13" lengthAdjust="spacing" textLength="198" x="658.5" y="836.5747">11. Exchange code for tokens</text><text fill="#000000" font-family="Verdana" font-size="13" lengthAdjust="spacing" textLength="95" x="658.5" y="852.374">(POST /token)</text><text fill="#000000" font-family="Verdana" font-size="13" lengthAdjust="spacing" textLength="204" x="658.5" y="868.1733">(code, client_id, client_secret)</text><line style="stroke:#000000;stroke-width:1.0;" x1="956.5" x2="998.5" y1="934.3008" y2="934.3008"/><line style="stroke:#000000;stroke-width:1.0;" x1="998.5" x2="998.5" y1="934.3008" y2="947.3008"/><line style="stroke:#000000;stroke-width:1.0;" x1="957.5" x2="998.5" y1="947.3008" y2="947.3008"/><polygon fill="#000000" points="967.5,943.3008,957.5,947.3008,967.5,951.3008,963.5,947.3008" style="stroke:#000000;stroke-width:1.0;"/><text fill="#000000" font-family="Verdana" font-size="13" lengthAdjust="spacing" textLength="141" x="963.5" y="897.9727">12. Validate request:</text><text fill="#000000" font-family="Verdana" font-size="13" lengthAdjust="spacing" textLength="135" x="963.5" y="913.772">- Authorization code</text><text fill="#000000" font-family="Verdana" font-size="13" lengthAdjust="spacing" textLength="127" x="963.5" y="929.5713">- Client credentials</text><polygon fill="#000000" points="662.5,988.8994,652.5,992.8994,662.5,996.8994,658.5,992.8994" style="stroke:#000000;stroke-width:1.0;"/><line style="stroke:#000000;stroke-width:1.0;stroke-dasharray:2.0,2.0;" x1="656.5" x2="950.5" y1="992.8994" y2="992.8994"/><text fill="#000000" font-family="Verdana" font-size="13" lengthAdjust="spacing" textLength="131" x="668.5" y="972.3706">13. Token response</text><text fill="#000000" font-family="Verdana" font-size="13" lengthAdjust="spacing" textLength="271" x="668.5" y="988.1699">(access_token, id_token, refresh_token)</text><rect fill="#FFFFFF" height="3" style="stroke:#FFFFFF;stroke-width:1.0;" width="1233" x="5" y="1021.7991"/><line style="stroke:#000000;stroke-width:0.5;" x1="5" x2="1238" y1="1021.7991" y2="1021.7991"/><line style="stroke:#000000;stroke-width:0.5;" x1="5" x2="1238" y1="1024.7991" y2="1024.7991"/><rect fill="#FFFFFF" height="23.7993" style="stroke:#000000;stroke-width:1.0;" width="162" x="540.5" y="1010.8994"/><text fill="#000000" font-family="Verdana" font-size="13" font-weight="bold" lengthAdjust="spacing" textLength="144" x="546.5" y="1027.9692">ID Token Validation</text><line style="stroke:#000000;stroke-width:1.0;" x1="651.5" x2="693.5" y1="1129.6953" y2="1129.6953"/><line style="stroke:#000000;stroke-width:1.0;" x1="693.5" x2="693.5" y1="1129.6953" y2="1142.6953"/><line style="stroke:#000000;stroke-width:1.0;" x1="652.5" x2="693.5" y1="1142.6953" y2="1142.6953"/><polygon fill="#000000" points="662.5,1138.6953,652.5,1142.6953,662.5,1146.6953,658.5,1142.6953" style="stroke:#000000;stroke-width:1.0;"/><text fill="#000000" font-family="Verdana" font-size="13" lengthAdjust="spacing" textLength="151" x="658.5" y="1061.7686">14. Validate ID Token:</text><text fill="#000000" font-family="Verdana" font-size="13" lengthAdjust="spacing" textLength="199" x="658.5" y="1077.5679">- Signature verification (JWT)</text><text fill="#000000" font-family="Verdana" font-size="13" lengthAdjust="spacing" textLength="122" x="658.5" y="1093.3672">- Issuer validation</text><text fill="#000000" font-family="Verdana" font-size="13" lengthAdjust="spacing" textLength="141" x="658.5" y="1109.1665">- Audience validation</text><text fill="#000000" font-family="Verdana" font-size="13" lengthAdjust="spacing" textLength="121" x="658.5" y="1124.9658">- Expiration check</text><line style="stroke:#000000;stroke-width:1.0;" x1="651.5" x2="693.5" y1="1188.2939" y2="1188.2939"/><line style="stroke:#000000;stroke-width:1.0;" x1="693.5" x2="693.5" y1="1188.2939" y2="1201.2939"/><line style="stroke:#000000;stroke-width:1.0;" x1="652.5" x2="693.5" y1="1201.2939" y2="1201.2939"/><polygon fill="#000000" points="662.5,1197.2939,652.5,1201.2939,662.5,1205.2939,658.5,1201.2939" style="stroke:#000000;stroke-width:1.0;"/><text fill="#000000" font-family="Verdana" font-size="13" lengthAdjust="spacing" textLength="155" x="658.5" y="1167.7651">15. Extract user claims</text><text fill="#000000" font-family="Verdana" font-size="13" lengthAdjust="spacing" textLength="164" x="658.5" y="1183.5645">(sub, name, email, etc.)</text><rect fill="#FFFFFF" height="3" style="stroke:#FFFFFF;stroke-width:1.0;" width="1233" x="5" y="1230.1936"/><line style="stroke:#000000;stroke-width:0.5;" x1="5" x2="1238" y1="1230.1936" y2="1230.1936"/><line style="stroke:#000000;stroke-width:0.5;" x1="5" x2="1238" y1="1233.1936" y2="1233.1936"/><rect fill="#FFFFFF" height="23.7993" style="stroke:#000000;stroke-width:1.0;" width="225" x="509" y="1219.2939"/><text fill="#000000" font-family="Verdana" font-size="13" font-weight="bold" lengthAdjust="spacing" textLength="207" x="515" y="1236.3638">UserInfo Request (Optional)</text><polygon fill="#000000" points="1135.5,1286.6919,1145.5,1290.6919,1135.5,1294.6919,1139.5,1290.6919" style="stroke:#000000;stroke-width:1.0;"/><line style="stroke:#000000;stroke-width:1.0;" x1="651.5" x2="1141.5" y1="1290.6919" y2="1290.6919"/><text fill="#000000" font-family="Verdana" font-size="13" lengthAdjust="spacing" textLength="183" x="658.5" y="1270.1631">16. Get additional user info</text><text fill="#000000" font-family="Verdana" font-size="13" lengthAdjust="spacing" textLength="272" x="658.5" y="1285.9624">(Authorization: Bearer &lt;access_token&gt;)</text><polygon fill="#000000" points="662.5,1332.2905,652.5,1336.2905,662.5,1340.2905,658.5,1336.2905" style="stroke:#000000;stroke-width:1.0;"/><line style="stroke:#000000;stroke-width:1.0;stroke-dasharray:2.0,2.0;" x1="656.5" x2="1151.5" y1="1336.2905" y2="1336.2905"/><text fill="#000000" font-family="Verdana" font-size="13" lengthAdjust="spacing" textLength="139" x="668.5" y="1315.7617">17. User profile data</text><text fill="#000000" font-family="Verdana" font-size="13" lengthAdjust="spacing" textLength="198" x="668.5" y="1331.561">(JSON with additional claims)</text><rect fill="#FFFFFF" height="3" style="stroke:#FFFFFF;stroke-width:1.0;" width="1233" x="5" y="1365.1902"/><line style="stroke:#000000;stroke-width:0.5;" x1="5" x2="1238" y1="1365.1902" y2="1365.1902"/><line style="stroke:#000000;stroke-width:0.5;" x1="5" x2="1238" y1="1368.1902" y2="1368.1902"/><rect fill="#FFFFFF" height="23.7993" style="stroke:#000000;stroke-width:1.0;" width="139" x="552" y="1354.2905"/><text fill="#000000" font-family="Verdana" font-size="13" font-weight="bold" lengthAdjust="spacing" textLength="121" x="558" y="1371.3604">Session Creation</text><line style="stroke:#000000;stroke-width:1.0;" x1="651.5" x2="693.5" y1="1425.6885" y2="1425.6885"/><line style="stroke:#000000;stroke-width:1.0;" x1="693.5" x2="693.5" y1="1425.6885" y2="1438.6885"/><line style="stroke:#000000;stroke-width:1.0;" x1="652.5" x2="693.5" y1="1438.6885" y2="1438.6885"/><polygon fill="#000000" points="662.5,1434.6885,652.5,1438.6885,662.5,1442.6885,658.5,1438.6885" style="stroke:#000000;stroke-width:1.0;"/><text fill="#000000" font-family="Verdana" font-size="13" lengthAdjust="spacing" textLength="160" x="658.5" y="1405.1597">18. Create local session</text><text fill="#000000" font-family="Verdana" font-size="13" lengthAdjust="spacing" textLength="189" x="658.5" y="1420.959">(store user info, session ID)</text><polygon fill="#000000" points="279.5,1480.2871,269.5,1484.2871,279.5,1488.2871,275.5,1484.2871" style="stroke:#000000;stroke-width:1.0;"/><line style="stroke:#000000;stroke-width:1.0;stroke-dasharray:2.0,2.0;" x1="273.5" x2="645.5" y1="1484.2871" y2="1484.2871"/><text fill="#000000" font-family="Verdana" font-size="13" lengthAdjust="spacing" textLength="134" x="285.5" y="1463.7583">19. Login successful</text><text fill="#000000" font-family="Verdana" font-size="13" lengthAdjust="spacing" textLength="159" x="285.5" y="1479.5576">(redirect to application)</text><rect fill="#FFFFFF" height="3" style="stroke:#FFFFFF;stroke-width:1.0;" width="1233" x="5" y="1513.1868"/><line style="stroke:#000000;stroke-width:0.5;" x1="5" x2="1238" y1="1513.1868" y2="1513.1868"/><line style="stroke:#000000;stroke-width:0.5;" x1="5" x2="1238" y1="1516.1868" y2="1516.1868"/><rect fill="#FFFFFF" height="23.7993" style="stroke:#000000;stroke-width:1.0;" width="106" x="568.5" y="1502.2871"/><text fill="#000000" font-family="Verdana" font-size="13" font-weight="bold" lengthAdjust="spacing" textLength="88" x="574.5" y="1519.3569">Logout Flow</text><polygon fill="#000000" points="629.5,1553.8857,639.5,1557.8857,629.5,1561.8857,633.5,1557.8857" style="stroke:#000000;stroke-width:1.0;"/><line style="stroke:#000000;stroke-width:1.0;" x1="268.5" x2="635.5" y1="1557.8857" y2="1557.8857"/><text fill="#000000" font-family="Verdana" font-size="13" lengthAdjust="spacing" textLength="145" x="275.5" y="1553.1563">20. User clicks logout</text><line style="stroke:#000000;stroke-width:1.0;" x1="651.5" x2="693.5" y1="1587.6851" y2="1587.6851"/><line style="stroke:#000000;stroke-width:1.0;" x1="693.5" x2="693.5" y1="1587.6851" y2="1600.6851"/><line style="stroke:#000000;stroke-width:1.0;" x1="652.5" x2="693.5" y1="1600.6851" y2="1600.6851"/><polygon fill="#000000" points="662.5,1596.6851,652.5,1600.6851,662.5,1604.6851,658.5,1600.6851" style="stroke:#000000;stroke-width:1.0;"/><text fill="#000000" font-family="Verdana" font-size="13" lengthAdjust="spacing" textLength="151" x="658.5" y="1582.9556">21. Clear local session</text><polygon fill="#000000" points="279.5,1642.2837,269.5,1646.2837,279.5,1650.2837,275.5,1646.2837" style="stroke:#000000;stroke-width:1.0;"/><line style="stroke:#000000;stroke-width:1.0;stroke-dasharray:2.0,2.0;" x1="273.5" x2="645.5" y1="1646.2837" y2="1646.2837"/><text fill="#000000" font-family="Verdana" font-size="13" lengthAdjust="spacing" textLength="173" x="285.5" y="1625.7549">22. Redirect to IDP logout</text><text fill="#000000" font-family="Verdana" font-size="13" lengthAdjust="spacing" textLength="158" x="285.5" y="1641.5542">(end_session_endpoint)</text><polygon fill="#000000" points="934.5,1672.083,944.5,1676.083,934.5,1680.083,938.5,1676.083" style="stroke:#000000;stroke-width:1.0;"/><line style="stroke:#000000;stroke-width:1.0;" x1="268.5" x2="940.5" y1="1676.083" y2="1676.083"/><text fill="#000000" font-family="Verdana" font-size="13" lengthAdjust="spacing" textLength="125" x="275.5" y="1671.3535">23. Logout request</text><line style="stroke:#000000;stroke-width:1.0;" x1="956.5" x2="998.5" y1="1705.8823" y2="1705.8823"/><line style="stroke:#000000;stroke-width:1.0;" x1="998.5" x2="998.5" y1="1705.8823" y2="1718.8823"/><line style="stroke:#000000;stroke-width:1.0;" x1="957.5" x2="998.5" y1="1718.8823" y2="1718.8823"/><polygon fill="#000000" points="967.5,1714.8823,957.5,1718.8823,967.5,1722.8823,963.5,1718.8823" style="stroke:#000000;stroke-width:1.0;"/><text fill="#000000" font-family="Verdana" font-size="13" lengthAdjust="spacing" textLength="143" x="963.5" y="1701.1528">24. Clear IDP session</text><polygon fill="#000000" points="279.5,1760.481,269.5,1764.481,279.5,1768.481,275.5,1764.481" style="stroke:#000000;stroke-width:1.0;"/><line style="stroke:#000000;stroke-width:1.0;stroke-dasharray:2.0,2.0;" x1="273.5" x2="950.5" y1="1764.481" y2="1764.481"/><text fill="#000000" font-family="Verdana" font-size="13" lengthAdjust="spacing" textLength="159" x="285.5" y="1743.9521">25. Logout confirmation</text><text fill="#000000" font-family="Verdana" font-size="13" lengthAdjust="spacing" textLength="159" x="285.5" y="1759.7515">(redirect back to client)</text><path d="M956,1777.481 L956,1881.481 L1232,1881.481 L1232,1787.481 L1222,1777.481 L956,1777.481 " fill="#FFFFFF" style="stroke:#000000;stroke-width:1.0;"/><path d="M1222,1777.481 L1222,1787.481 L1232,1787.481 L1222,1777.481 " fill="#FFFFFF" style="stroke:#000000;stroke-width:1.0;"/><text fill="#000000" font-family="Verdana" font-size="13" lengthAdjust="spacing" textLength="102" x="962" y="1795.5508">OIDC Features:</text><text fill="#000000" font-family="Verdana" font-size="13" lengthAdjust="spacing" textLength="201" x="962" y="1811.3501">- Standardized identity claims</text><text fill="#000000" font-family="Verdana" font-size="13" lengthAdjust="spacing" textLength="152" x="962" y="1827.1494">- JWT-based ID tokens</text><text fill="#000000" font-family="Verdana" font-size="13" lengthAdjust="spacing" textLength="236" x="962" y="1842.9487">- UserInfo endpoint for profile data</text><text fill="#000000" font-family="Verdana" font-size="13" lengthAdjust="spacing" textLength="255" x="962" y="1858.748">- Discovery endpoint for configuration</text><text fill="#000000" font-family="Verdana" font-size="13" lengthAdjust="spacing" textLength="154" x="962" y="1874.5474">- Session management</text><path d="M651,1892.2769 L651,2012.2769 L858,2012.2769 L858,1902.2769 L848,1892.2769 L651,1892.2769 " fill="#FFFFFF" style="stroke:#000000;stroke-width:1.0;"/><path d="M848,1892.2769 L848,1902.2769 L858,1902.2769 L848,1892.2769 " fill="#FFFFFF" style="stroke:#000000;stroke-width:1.0;"/><text fill="#000000" font-family="Verdana" font-size="13" lengthAdjust="spacing" textLength="116" x="657" y="1910.3467">ID Token Claims:</text><text fill="#000000" font-family="Verdana" font-size="13" lengthAdjust="spacing" textLength="163" x="657" y="1926.146">- sub (subject identifier)</text><text fill="#000000" font-family="Verdana" font-size="13" lengthAdjust="spacing" textLength="86" x="657" y="1941.9453">- iss (issuer)</text><text fill="#000000" font-family="Verdana" font-size="13" lengthAdjust="spacing" textLength="111" x="657" y="1957.7446">- aud (audience)</text><text fill="#000000" font-family="Verdana" font-size="13" lengthAdjust="spacing" textLength="119" x="657" y="1973.5439">- exp (expiration)</text><text fill="#000000" font-family="Verdana" font-size="13" lengthAdjust="spacing" textLength="105" x="657" y="1989.3433">- iat (issued at)</text><text fill="#000000" font-family="Verdana" font-size="13" lengthAdjust="spacing" textLength="186" x="657" y="2005.1426">- name, email, picture, etc.</text><path d="M10,2022.8721 L10,2110.8721 L264,2110.8721 L264,2032.8721 L254,2022.8721 L10,2022.8721 " fill="#FFFFFF" style="stroke:#000000;stroke-width:1.0;"/><path d="M254,2022.8721 L254,2032.8721 L264,2032.8721 L254,2022.8721 " fill="#FFFFFF" style="stroke:#000000;stroke-width:1.0;"/><text fill="#000000" font-family="Verdana" font-size="13" lengthAdjust="spacing" textLength="96" x="16" y="2040.9419">User Benefits:</text><text fill="#000000" font-family="Verdana" font-size="13" lengthAdjust="spacing" textLength="155" x="16" y="2056.7412">- Single Sign-On (SSO)</text><text fill="#000000" font-family="Verdana" font-size="13" lengthAdjust="spacing" textLength="189" x="16" y="2072.5405">- No password management</text><text fill="#000000" font-family="Verdana" font-size="13" lengthAdjust="spacing" textLength="195" x="16" y="2088.3398">- Consistent login experience</text><text fill="#000000" font-family="Verdana" font-size="13" lengthAdjust="spacing" textLength="233" x="16" y="2104.1392">- Centralized identity management</text><!--SRC=[XLRPRXit57sVhxZLGo41ac8hTfm8LO94TWm7GMHOJfiM0GnwXf9OZyWfoV7Ih-_XCfkif0-2999tENSvz_vYDtpBgSYPa8aLDkUqABYyEAMvafAdblgBYzFvW3whjP3qCLSFIS9IgpJrlXgkUyGCbVYH54nRaOg2IKkzUIuuljyNHIvIPeMItsN_YkTFGgxf4Y-V1buozU-wiXSPZeHzeakjxaN6DKIT3_N_82goeYldtBcGAqLdCYkKaBRsJU0qIQIodDGzr_visDpGBcJ-QBdC32tUbtOp8Qke2ARnL5JUvUm9gXw4tP2nJ6PCP-9VddcrvFJghGUUG1Kvsqaocv7Jw1I4eD0L_wVanj9ibYHUSFGsncHAXsDoaDp_zCvGBsJ06pnNQftp5qxPGS-bGzmpW8lHJC8tZQ3CAPtIP0nBcT0E7D3iYt2GkH7Pa7HyUbDgCIIJgeBFy94YSt5O2TG8tpAH3vACFxDTeK1wflHol0jO1y0mU7vsJIyORfL6tDwrpOp7uq63oYKwORaDqK0aYJKwUOQSkAmKBRX7R4pBZNgWt8UiO6lkNtLyEsPLV87NQMEvWLlkZMHRFeIOCGzAPuF6GXHz1T7VMIuo3xmHJtXkU53ASirPzlGZLwEYezinpJSylKF92MDTSnXkJAoQ9Ed2EeceKYMDow_31OzxomtJl4wDAxrG9UW- -lQkDzX9okk8UwtHDgRILbUdIqTLdAPmbxuwkwwyQHMKjyKwagdAd6VkQ_RjpxzENh_v5JrY-OpTffsgyRbzLlW7unrFehvxmIXbUNxB4B6lLvy7pqiV8AxL7PTqzfXkc5m7vwk6Y14uH6lLzquteLlH691p9N2vMA8q_Tz1H36aLd_4duOZzNQtKDlfFPoqwYHM_lIx7Er5Dw98cks2giDUnmOj5G3gc1ruoD8KLNFZFHx2TFLBynLURSBVvt57h41wGLjqqxdJ3LXj-AY5fHBpO9PYBPajKOBWLh6gEht_wO_hWRk_CAP4Wkzh2o426VIcVEVuxB4GEaR5zSLUJuvTzgm6cD3HAORNrYNEbBT32ith2GfVDWMLEAJrTAWejxyed1sM3tOGLtC1bbwDwPo3Rx9CXBSDkyDS9ujJ-i3HXff-QsVZRQiycabK_UfczYJsPTN8Y0g3bK_BnPVOOuqR0N8dfOrwe5q65g4vMEXdIGKN-2SSL8dEgjZ7nH8ZdZTmXzKLSZ_OCs4EmGXXG9dIur-LERJerjHXpJAmTtB0RMXGfVLRnjwHE3depiJSl__n06n9ekNdEJBK1RflLkuEozFBQ0TumCetKVI6npNZ_yVWvEMuWXPPu2UaCJcgF7MMQp-x_3ivhZM2lrSYxXhjY7kIXF_1e-VTxzSXBTORIshbZx07kJNh8_VTRAOuG7UtTvjw-Gdrvn-WpKUtpE0Mh10ur9_N3LV5oPDikxZzirE1oG_YUEg-ywZMPU22u4YilosJc7jR5-Lci-g2YKcWXjxctj-022n1ZYh-Tb4AY5O2MwM_5CPGNtZ62WUipAZF8bk58_vOK9_NJ1K5cOs26J4RpZfKL8ZKXJLmqgxhELzvp_qcJQ76Ft39Ly9MUS1oWBWviXqjmAxBvI8O-QBgJQKT6tU5VTPWhN3r7JOXE0sIS4Z2FMuq-BUJsdtn_Gy0]--></g></svg>