<?xml version="1.0" encoding="us-ascii" standalone="no"?><svg xmlns="http://www.w3.org/2000/svg" xmlns:xlink="http://www.w3.org/1999/xlink" contentStyleType="text/css" height="2647px" preserveAspectRatio="none" style="width:1856px;height:2647px;background:#FFFFFF;" version="1.1" viewBox="0 0 1856 2647" width="1856px" zoomAndPan="magnify"><defs/><g><text fill="#000000" font-family="Verdana" font-size="22" font-weight="bold" lengthAdjust="spacing" textLength="581" x="636" y="37.1182">Audit Logging and Compliance Review Process</text><rect fill="#FFFFFF" height="374.1904" style="stroke:#000000;stroke-width:1.0;" width="10" x="303.5" y="273.7485"/><rect fill="#FFFFFF" height="29.7993" style="stroke:#000000;stroke-width:1.0;" width="10" x="303.5" y="1797.6782"/><rect fill="#FFFFFF" height="240.1938" style="stroke:#000000;stroke-width:1.0;" width="10" x="592.5" y="362.1465"/><rect fill="#FFFFFF" height="387.5918" style="stroke:#000000;stroke-width:1.0;" width="10" x="822.5" y="572.3403"/><rect fill="#FFFFFF" height="29.7993" style="stroke:#000000;stroke-width:1.0;" width="10" x="1021.5" y="854.5342"/><rect fill="#FFFFFF" height="45.5986" style="stroke:#000000;stroke-width:1.0;" width="10" x="1021.5" y="1410.0898"/><rect fill="#FFFFFF" height="368.9604" style="stroke:#000000;stroke-width:1.0;" width="10" x="1218.5" y="929.9321"/><rect fill="#FFFFFF" height="45.5986" style="stroke:#000000;stroke-width:1.0;" width="10" x="1413" y="1164.3267"/><rect fill="#FFFFFF" height="538.9536" style="stroke:#000000;stroke-width:1.0;" width="10" x="1413" y="1364.4912"/><rect fill="#FFFFFF" height="538.9536" style="stroke:#000000;stroke-width:1.0;" width="10" x="1662" y="1364.4912"/><rect fill="#FFFFFF" height="182.9639" style="stroke:#000000;stroke-width:1.0;" width="619.5" x="1126.5" y="1108.9287"/><rect fill="#FFFFFF" height="73.9673" style="stroke:none;stroke-width:1.0;" width="619.5" x="1126.5" y="1217.9253"/><rect fill="#FFFFFF" height="199.7632" style="stroke:#000000;stroke-width:1.0;" width="1503.5" x="242.5" y="1696.6816"/><rect fill="#FFFFFF" height="60.9673" style="stroke:none;stroke-width:1.0;" width="1503.5" x="242.5" y="1835.4775"/><line style="stroke:#000000;stroke-width:1.0;" x1="50" x2="50" y1="130.752" y2="2565.2236"/><line style="stroke:#000000;stroke-width:1.0;" x1="308.5" x2="308.5" y1="130.752" y2="2565.2236"/><line style="stroke:#000000;stroke-width:1.0;" x1="597" x2="597" y1="130.752" y2="2565.2236"/><line style="stroke:#000000;stroke-width:1.0;" x1="827" x2="827" y1="130.752" y2="2565.2236"/><line style="stroke:#000000;stroke-width:1.0;" x1="1026.5" x2="1026.5" y1="130.752" y2="2565.2236"/><line style="stroke:#000000;stroke-width:1.0;" x1="1223.5" x2="1223.5" y1="130.752" y2="2565.2236"/><line style="stroke:#000000;stroke-width:1.0;" x1="1417.5" x2="1417.5" y1="130.752" y2="2565.2236"/><line style="stroke:#000000;stroke-width:1.0;" x1="1667" x2="1667" y1="130.752" y2="2565.2236"/><text fill="#000000" font-family="Verdana" font-size="14" lengthAdjust="spacing" textLength="31" x="32" y="127.8125">User</text><ellipse cx="50.5" cy="61.7373" fill="#FFFFFF" rx="8" ry="8" style="stroke:#000000;stroke-width:1.0;"/><path d="M50.5,69.7373 L50.5,96.7373 M37.5,77.7373 L63.5,77.7373 M50.5,96.7373 L37.5,111.7373 M50.5,96.7373 L63.5,111.7373 " fill="none" style="stroke:#000000;stroke-width:1.0;"/><text fill="#000000" font-family="Verdana" font-size="14" lengthAdjust="spacing" textLength="31" x="32" y="2578.2988">User</text><ellipse cx="50.5" cy="2590.2383" fill="#FFFFFF" rx="8" ry="8" style="stroke:#000000;stroke-width:1.0;"/><path d="M50.5,2598.2383 L50.5,2625.2383 M37.5,2606.2383 L63.5,2606.2383 M50.5,2625.2383 L37.5,2640.2383 M50.5,2625.2383 L63.5,2640.2383 " fill="none" style="stroke:#000000;stroke-width:1.0;"/><rect fill="#FFFFFF" height="31.0146" rx="2.5" ry="2.5" style="stroke:#000000;stroke-width:1.0;" width="92" x="262.5" y="98.7373"/><text fill="#000000" font-family="Verdana" font-size="14" lengthAdjust="spacing" textLength="78" x="269.5" y="119.8125">Application</text><rect fill="#FFFFFF" height="31.0146" rx="2.5" ry="2.5" style="stroke:#000000;stroke-width:1.0;" width="92" x="262.5" y="2564.2236"/><text fill="#000000" font-family="Verdana" font-size="14" lengthAdjust="spacing" textLength="78" x="269.5" y="2585.2988">Application</text><rect fill="#FFFFFF" height="31.0146" rx="2.5" ry="2.5" style="stroke:#000000;stroke-width:1.0;" width="105" x="545" y="98.7373"/><text fill="#000000" font-family="Verdana" font-size="14" lengthAdjust="spacing" textLength="91" x="552" y="119.8125">Audit Logger</text><rect fill="#FFFFFF" height="31.0146" rx="2.5" ry="2.5" style="stroke:#000000;stroke-width:1.0;" width="105" x="545" y="2564.2236"/><text fill="#000000" font-family="Verdana" font-size="14" lengthAdjust="spacing" textLength="91" x="552" y="2585.2988">Audit Logger</text><rect fill="#FFFFFF" height="31.0146" rx="2.5" ry="2.5" style="stroke:#000000;stroke-width:1.0;" width="123" x="766" y="98.7373"/><text fill="#000000" font-family="Verdana" font-size="14" lengthAdjust="spacing" textLength="109" x="773" y="119.8125">Log Aggregator</text><rect fill="#FFFFFF" height="31.0146" rx="2.5" ry="2.5" style="stroke:#000000;stroke-width:1.0;" width="123" x="766" y="2564.2236"/><text fill="#000000" font-family="Verdana" font-size="14" lengthAdjust="spacing" textLength="109" x="773" y="2585.2988">Log Aggregator</text><text fill="#000000" font-family="Verdana" font-size="14" lengthAdjust="spacing" textLength="134" x="956.5" y="127.8125">Secure Audit Store</text><path d="M1008.5,77.7373 C1008.5,67.7373 1026.5,67.7373 1026.5,67.7373 C1026.5,67.7373 1044.5,67.7373 1044.5,77.7373 L1044.5,103.7373 C1044.5,113.7373 1026.5,113.7373 1026.5,113.7373 C1026.5,113.7373 1008.5,113.7373 1008.5,103.7373 L1008.5,77.7373 " fill="#FFFFFF" style="stroke:#000000;stroke-width:1.5;"/><path d="M1008.5,77.7373 C1008.5,87.7373 1026.5,87.7373 1026.5,87.7373 C1026.5,87.7373 1044.5,87.7373 1044.5,77.7373 " fill="none" style="stroke:#000000;stroke-width:1.5;"/><text fill="#000000" font-family="Verdana" font-size="14" lengthAdjust="spacing" textLength="134" x="956.5" y="2578.2988">Secure Audit Store</text><path d="M1008.5,2591.2383 C1008.5,2581.2383 1026.5,2581.2383 1026.5,2581.2383 C1026.5,2581.2383 1044.5,2581.2383 1044.5,2591.2383 L1044.5,2617.2383 C1044.5,2627.2383 1026.5,2627.2383 1026.5,2627.2383 C1026.5,2627.2383 1008.5,2627.2383 1008.5,2617.2383 L1008.5,2591.2383 " fill="#FFFFFF" style="stroke:#000000;stroke-width:1.5;"/><path d="M1008.5,2591.2383 C1008.5,2601.2383 1026.5,2601.2383 1026.5,2601.2383 C1026.5,2601.2383 1044.5,2601.2383 1044.5,2591.2383 " fill="none" style="stroke:#000000;stroke-width:1.5;"/><rect fill="#FFFFFF" height="31.0146" rx="2.5" ry="2.5" style="stroke:#000000;stroke-width:1.0;" width="154" x="1146.5" y="98.7373"/><text fill="#000000" font-family="Verdana" font-size="14" lengthAdjust="spacing" textLength="140" x="1153.5" y="119.8125">Log Analysis Engine</text><rect fill="#FFFFFF" height="31.0146" rx="2.5" ry="2.5" style="stroke:#000000;stroke-width:1.0;" width="154" x="1146.5" y="2564.2236"/><text fill="#000000" font-family="Verdana" font-size="14" lengthAdjust="spacing" textLength="140" x="1153.5" y="2585.2988">Log Analysis Engine</text><rect fill="#FFFFFF" height="31.0146" rx="2.5" ry="2.5" style="stroke:#000000;stroke-width:1.0;" width="175" x="1330.5" y="98.7373"/><text fill="#000000" font-family="Verdana" font-size="14" lengthAdjust="spacing" textLength="161" x="1337.5" y="119.8125">Compliance Dashboard</text><rect fill="#FFFFFF" height="31.0146" rx="2.5" ry="2.5" style="stroke:#000000;stroke-width:1.0;" width="175" x="1330.5" y="2564.2236"/><text fill="#000000" font-family="Verdana" font-size="14" lengthAdjust="spacing" textLength="161" x="1337.5" y="2585.2988">Compliance Dashboard</text><text fill="#000000" font-family="Verdana" font-size="14" lengthAdjust="spacing" textLength="132" x="1598" y="127.8125">Compliance Officer</text><ellipse cx="1667" cy="61.7373" fill="#FFFFFF" rx="8" ry="8" style="stroke:#000000;stroke-width:1.0;"/><path d="M1667,69.7373 L1667,96.7373 M1654,77.7373 L1680,77.7373 M1667,96.7373 L1654,111.7373 M1667,96.7373 L1680,111.7373 " fill="none" style="stroke:#000000;stroke-width:1.0;"/><text fill="#000000" font-family="Verdana" font-size="14" lengthAdjust="spacing" textLength="132" x="1598" y="2578.2988">Compliance Officer</text><ellipse cx="1667" cy="2590.2383" fill="#FFFFFF" rx="8" ry="8" style="stroke:#000000;stroke-width:1.0;"/><path d="M1667,2598.2383 L1667,2625.2383 M1654,2606.2383 L1680,2606.2383 M1667,2625.2383 L1654,2640.2383 M1667,2625.2383 L1680,2640.2383 " fill="none" style="stroke:#000000;stroke-width:1.0;"/><rect fill="#FFFFFF" height="374.1904" style="stroke:#000000;stroke-width:1.0;" width="10" x="303.5" y="273.7485"/><rect fill="#FFFFFF" height="29.7993" style="stroke:#000000;stroke-width:1.0;" width="10" x="303.5" y="1797.6782"/><rect fill="#FFFFFF" height="240.1938" style="stroke:#000000;stroke-width:1.0;" width="10" x="592.5" y="362.1465"/><rect fill="#FFFFFF" height="387.5918" style="stroke:#000000;stroke-width:1.0;" width="10" x="822.5" y="572.3403"/><rect fill="#FFFFFF" height="29.7993" style="stroke:#000000;stroke-width:1.0;" width="10" x="1021.5" y="854.5342"/><rect fill="#FFFFFF" height="45.5986" style="stroke:#000000;stroke-width:1.0;" width="10" x="1021.5" y="1410.0898"/><rect fill="#FFFFFF" height="368.9604" style="stroke:#000000;stroke-width:1.0;" width="10" x="1218.5" y="929.9321"/><rect fill="#FFFFFF" height="45.5986" style="stroke:#000000;stroke-width:1.0;" width="10" x="1413" y="1164.3267"/><rect fill="#FFFFFF" height="538.9536" style="stroke:#000000;stroke-width:1.0;" width="10" x="1413" y="1364.4912"/><rect fill="#FFFFFF" height="538.9536" style="stroke:#000000;stroke-width:1.0;" width="10" x="1662" y="1364.4912"/><path d="M10,145.752 L10,186.752 L1709,186.752 L1709,155.752 L1699,145.752 L10,145.752 " fill="#FFFFFF" style="stroke:#000000;stroke-width:1.0;"/><path d="M1699,145.752 L1699,155.752 L1709,155.752 L1699,145.752 " fill="#FFFFFF" style="stroke:#000000;stroke-width:1.0;"/><text fill="#000000" font-family="Verdana" font-size="13" lengthAdjust="spacing" textLength="271" x="715.5" y="163.8218">Comprehensive audit logging system for</text><text fill="#000000" font-family="Verdana" font-size="13" lengthAdjust="spacing" textLength="279" x="715.5" y="179.6211">security compliance and forensic analysis</text><rect fill="#FFFFFF" height="3" style="stroke:#FFFFFF;stroke-width:1.0;" width="1844" x="5" y="213.2502"/><line style="stroke:#000000;stroke-width:0.5;" x1="5" x2="1849" y1="213.2502" y2="213.2502"/><line style="stroke:#000000;stroke-width:0.5;" x1="5" x2="1849" y1="216.2502" y2="216.2502"/><rect fill="#FFFFFF" height="23.7993" style="stroke:#000000;stroke-width:1.0;" width="194" x="830" y="202.3506"/><text fill="#000000" font-family="Verdana" font-size="13" font-weight="bold" lengthAdjust="spacing" textLength="176" x="836" y="219.4204">User Action and Logging</text><polygon fill="#000000" points="291.5,269.7485,301.5,273.7485,291.5,277.7485,295.5,273.7485" style="stroke:#000000;stroke-width:1.0;"/><line style="stroke:#000000;stroke-width:1.0;" x1="50.5" x2="297.5" y1="273.7485" y2="273.7485"/><text fill="#000000" font-family="Verdana" font-size="13" lengthAdjust="spacing" textLength="181" x="57.5" y="253.2197">1. Perform sensitive action</text><text fill="#000000" font-family="Verdana" font-size="13" lengthAdjust="spacing" textLength="234" x="57.5" y="269.019">(login, data access, config change)</text><line style="stroke:#000000;stroke-width:1.0;" x1="313.5" x2="355.5" y1="303.5479" y2="303.5479"/><line style="stroke:#000000;stroke-width:1.0;" x1="355.5" x2="355.5" y1="303.5479" y2="316.5479"/><line style="stroke:#000000;stroke-width:1.0;" x1="314.5" x2="355.5" y1="316.5479" y2="316.5479"/><polygon fill="#000000" points="324.5,312.5479,314.5,316.5479,324.5,320.5479,320.5,316.5479" style="stroke:#000000;stroke-width:1.0;"/><text fill="#000000" font-family="Verdana" font-size="13" lengthAdjust="spacing" textLength="158" x="320.5" y="298.8184">2. Process user request</text><polygon fill="#000000" points="580.5,358.1465,590.5,362.1465,580.5,366.1465,584.5,362.1465" style="stroke:#000000;stroke-width:1.0;"/><line style="stroke:#000000;stroke-width:1.0;" x1="313.5" x2="586.5" y1="362.1465" y2="362.1465"/><text fill="#000000" font-family="Verdana" font-size="13" lengthAdjust="spacing" textLength="159" x="320.5" y="341.6177">3. Generate audit event</text><text fill="#000000" font-family="Verdana" font-size="13" lengthAdjust="spacing" textLength="260" x="320.5" y="357.417">(user_id, action, resource, timestamp)</text><line style="stroke:#000000;stroke-width:1.0;" x1="602.5" x2="644.5" y1="455.1431" y2="455.1431"/><line style="stroke:#000000;stroke-width:1.0;" x1="644.5" x2="644.5" y1="455.1431" y2="468.1431"/><line style="stroke:#000000;stroke-width:1.0;" x1="603.5" x2="644.5" y1="468.1431" y2="468.1431"/><polygon fill="#000000" points="613.5,464.1431,603.5,468.1431,613.5,472.1431,609.5,468.1431" style="stroke:#000000;stroke-width:1.0;"/><text fill="#000000" font-family="Verdana" font-size="13" lengthAdjust="spacing" textLength="137" x="609.5" y="387.2163">4. Enrich audit data:</text><text fill="#000000" font-family="Verdana" font-size="13" lengthAdjust="spacing" textLength="81" x="609.5" y="403.0156">- IP address</text><text fill="#000000" font-family="Verdana" font-size="13" lengthAdjust="spacing" textLength="84" x="609.5" y="418.8149">- User agent</text><text fill="#000000" font-family="Verdana" font-size="13" lengthAdjust="spacing" textLength="82" x="609.5" y="434.6143">- Session ID</text><text fill="#000000" font-family="Verdana" font-size="13" lengthAdjust="spacing" textLength="80" x="609.5" y="450.4136">- Risk score</text><line style="stroke:#000000;stroke-width:1.0;" x1="602.5" x2="644.5" y1="513.7417" y2="513.7417"/><line style="stroke:#000000;stroke-width:1.0;" x1="644.5" x2="644.5" y1="513.7417" y2="526.7417"/><line style="stroke:#000000;stroke-width:1.0;" x1="603.5" x2="644.5" y1="526.7417" y2="526.7417"/><polygon fill="#000000" points="613.5,522.7417,603.5,526.7417,613.5,530.7417,609.5,526.7417" style="stroke:#000000;stroke-width:1.0;"/><text fill="#000000" font-family="Verdana" font-size="13" lengthAdjust="spacing" textLength="180" x="609.5" y="493.2129">5. Apply data classification</text><text fill="#000000" font-family="Verdana" font-size="13" lengthAdjust="spacing" textLength="206" x="609.5" y="509.0122">(PII masking, sensitivity level)</text><polygon fill="#000000" points="810.5,568.3403,820.5,572.3403,810.5,576.3403,814.5,572.3403" style="stroke:#000000;stroke-width:1.0;"/><line style="stroke:#000000;stroke-width:1.0;" x1="602.5" x2="816.5" y1="572.3403" y2="572.3403"/><text fill="#000000" font-family="Verdana" font-size="13" lengthAdjust="spacing" textLength="114" x="609.5" y="551.8115">6. Send audit log</text><text fill="#000000" font-family="Verdana" font-size="13" lengthAdjust="spacing" textLength="170" x="609.5" y="567.6108">(structured JSON format)</text><polygon fill="#000000" points="61.5,643.939,51.5,647.939,61.5,651.939,57.5,647.939" style="stroke:#000000;stroke-width:1.0;"/><line style="stroke:#000000;stroke-width:1.0;stroke-dasharray:2.0,2.0;" x1="55.5" x2="307.5" y1="647.939" y2="647.939"/><text fill="#000000" font-family="Verdana" font-size="13" lengthAdjust="spacing" textLength="133" x="67.5" y="627.4102">7. Action completed</text><text fill="#000000" font-family="Verdana" font-size="13" lengthAdjust="spacing" textLength="124" x="67.5" y="643.2095">(response to user)</text><rect fill="#FFFFFF" height="3" style="stroke:#FFFFFF;stroke-width:1.0;" width="1844" x="5" y="676.8386"/><line style="stroke:#000000;stroke-width:0.5;" x1="5" x2="1849" y1="676.8386" y2="676.8386"/><line style="stroke:#000000;stroke-width:0.5;" x1="5" x2="1849" y1="679.8386" y2="679.8386"/><rect fill="#FFFFFF" height="23.7993" style="stroke:#000000;stroke-width:1.0;" width="220" x="817" y="665.939"/><text fill="#000000" font-family="Verdana" font-size="13" font-weight="bold" lengthAdjust="spacing" textLength="202" x="823" y="683.0088">Log Processing and Storage</text><line style="stroke:#000000;stroke-width:1.0;" x1="832.5" x2="874.5" y1="737.3369" y2="737.3369"/><line style="stroke:#000000;stroke-width:1.0;" x1="874.5" x2="874.5" y1="737.3369" y2="750.3369"/><line style="stroke:#000000;stroke-width:1.0;" x1="833.5" x2="874.5" y1="750.3369" y2="750.3369"/><polygon fill="#000000" points="843.5,746.3369,833.5,750.3369,843.5,754.3369,839.5,750.3369" style="stroke:#000000;stroke-width:1.0;"/><text fill="#000000" font-family="Verdana" font-size="13" lengthAdjust="spacing" textLength="147" x="839.5" y="716.8081">8. Validate log format</text><text fill="#000000" font-family="Verdana" font-size="13" lengthAdjust="spacing" textLength="85" x="839.5" y="732.6074">and integrity</text><line style="stroke:#000000;stroke-width:1.0;" x1="832.5" x2="874.5" y1="795.9355" y2="795.9355"/><line style="stroke:#000000;stroke-width:1.0;" x1="874.5" x2="874.5" y1="795.9355" y2="808.9355"/><line style="stroke:#000000;stroke-width:1.0;" x1="833.5" x2="874.5" y1="808.9355" y2="808.9355"/><polygon fill="#000000" points="843.5,804.9355,833.5,808.9355,843.5,812.9355,839.5,808.9355" style="stroke:#000000;stroke-width:1.0;"/><text fill="#000000" font-family="Verdana" font-size="13" lengthAdjust="spacing" textLength="175" x="839.5" y="775.4067">9. Apply retention policies</text><text fill="#000000" font-family="Verdana" font-size="13" lengthAdjust="spacing" textLength="140" x="839.5" y="791.2061">(based on data type)</text><polygon fill="#000000" points="1009.5,850.5342,1019.5,854.5342,1009.5,858.5342,1013.5,854.5342" style="stroke:#000000;stroke-width:1.0;"/><line style="stroke:#000000;stroke-width:1.0;" x1="832.5" x2="1015.5" y1="854.5342" y2="854.5342"/><text fill="#000000" font-family="Verdana" font-size="13" lengthAdjust="spacing" textLength="125" x="839.5" y="834.0054">10. Store audit log</text><text fill="#000000" font-family="Verdana" font-size="13" lengthAdjust="spacing" textLength="159" x="839.5" y="849.8047">(encrypted, immutable)</text><polygon fill="#000000" points="843.5,880.3335,833.5,884.3335,843.5,888.3335,839.5,884.3335" style="stroke:#000000;stroke-width:1.0;"/><line style="stroke:#000000;stroke-width:1.0;stroke-dasharray:2.0,2.0;" x1="837.5" x2="1025.5" y1="884.3335" y2="884.3335"/><text fill="#000000" font-family="Verdana" font-size="13" lengthAdjust="spacing" textLength="165" x="849.5" y="879.604">11. Log stored with hash</text><polygon fill="#000000" points="1206.5,925.9321,1216.5,929.9321,1206.5,933.9321,1210.5,929.9321" style="stroke:#000000;stroke-width:1.0;"/><line style="stroke:#000000;stroke-width:1.0;" x1="832.5" x2="1212.5" y1="929.9321" y2="929.9321"/><text fill="#000000" font-family="Verdana" font-size="13" lengthAdjust="spacing" textLength="163" x="839.5" y="909.4033">12. Forward for analysis</text><text fill="#000000" font-family="Verdana" font-size="13" lengthAdjust="spacing" textLength="150" x="839.5" y="925.2026">(real-time processing)</text><rect fill="#FFFFFF" height="3" style="stroke:#FFFFFF;stroke-width:1.0;" width="1844" x="5" y="988.8318"/><line style="stroke:#000000;stroke-width:0.5;" x1="5" x2="1849" y1="988.8318" y2="988.8318"/><line style="stroke:#000000;stroke-width:0.5;" x1="5" x2="1849" y1="991.8318" y2="991.8318"/><rect fill="#FFFFFF" height="23.7993" style="stroke:#000000;stroke-width:1.0;" width="153" x="850.5" y="977.9321"/><text fill="#000000" font-family="Verdana" font-size="13" font-weight="bold" lengthAdjust="spacing" textLength="135" x="856.5" y="995.002">Real-time Analysis</text><line style="stroke:#000000;stroke-width:1.0;" x1="1228.5" x2="1270.5" y1="1080.9287" y2="1080.9287"/><line style="stroke:#000000;stroke-width:1.0;" x1="1270.5" x2="1270.5" y1="1080.9287" y2="1093.9287"/><line style="stroke:#000000;stroke-width:1.0;" x1="1229.5" x2="1270.5" y1="1093.9287" y2="1093.9287"/><polygon fill="#000000" points="1239.5,1089.9287,1229.5,1093.9287,1239.5,1097.9287,1235.5,1093.9287" style="stroke:#000000;stroke-width:1.0;"/><text fill="#000000" font-family="Verdana" font-size="13" lengthAdjust="spacing" textLength="139" x="1235.5" y="1028.8013">13. Pattern analysis:</text><text fill="#000000" font-family="Verdana" font-size="13" lengthAdjust="spacing" textLength="135" x="1235.5" y="1044.6006">- Anomaly detection</text><text fill="#000000" font-family="Verdana" font-size="13" lengthAdjust="spacing" textLength="122" x="1235.5" y="1060.3999">- Risk assessment</text><text fill="#000000" font-family="Verdana" font-size="13" lengthAdjust="spacing" textLength="138" x="1235.5" y="1076.1992">- Compliance checks</text><path d="M1126.5,1108.9287 L1190.5,1108.9287 L1190.5,1116.728 L1180.5,1126.728 L1126.5,1126.728 L1126.5,1108.9287 " fill="#FFFFFF" style="stroke:#000000;stroke-width:1.0;"/><rect fill="none" height="182.9639" style="stroke:#000000;stroke-width:1.0;" width="619.5" x="1126.5" y="1108.9287"/><text fill="#000000" font-family="Verdana" font-size="13" font-weight="bold" lengthAdjust="spacing" textLength="19" x="1141.5" y="1122.9985">alt</text><text fill="#000000" font-family="Verdana" font-size="11" font-weight="bold" lengthAdjust="spacing" textLength="189" x="1205.5" y="1121.9878">[Suspicious Activity Detected]</text><polygon fill="#000000" points="1401,1160.3267,1411,1164.3267,1401,1168.3267,1405,1164.3267" style="stroke:#000000;stroke-width:1.0;"/><line style="stroke:#000000;stroke-width:1.0;" x1="1228.5" x2="1407" y1="1164.3267" y2="1164.3267"/><text fill="#000000" font-family="Verdana" font-size="13" lengthAdjust="spacing" textLength="131" x="1235.5" y="1143.7979">14a. Generate alert</text><text fill="#000000" font-family="Verdana" font-size="13" lengthAdjust="spacing" textLength="125" x="1235.5" y="1159.5972">(high-risk activity)</text><polygon fill="#000000" points="1655,1205.9253,1665,1209.9253,1655,1213.9253,1659,1209.9253" style="stroke:#000000;stroke-width:1.0;"/><line style="stroke:#000000;stroke-width:1.0;" x1="1418" x2="1661" y1="1209.9253" y2="1209.9253"/><text fill="#000000" font-family="Verdana" font-size="13" lengthAdjust="spacing" textLength="146" x="1425" y="1189.3965">15a. Send notification</text><text fill="#000000" font-family="Verdana" font-size="13" lengthAdjust="spacing" textLength="120" x="1425" y="1205.1958">(email/SMS alert)</text><line style="stroke:#000000;stroke-width:1.0;stroke-dasharray:2.0,2.0;" x1="1126.5" x2="1746" y1="1218.9253" y2="1218.9253"/><text fill="#000000" font-family="Verdana" font-size="11" font-weight="bold" lengthAdjust="spacing" textLength="108" x="1131.5" y="1229.9844">[Normal Activity]</text><line style="stroke:#000000;stroke-width:1.0;" x1="1228.5" x2="1270.5" y1="1270.8926" y2="1270.8926"/><line style="stroke:#000000;stroke-width:1.0;" x1="1270.5" x2="1270.5" y1="1270.8926" y2="1283.8926"/><line style="stroke:#000000;stroke-width:1.0;" x1="1229.5" x2="1270.5" y1="1283.8926" y2="1283.8926"/><polygon fill="#000000" points="1239.5,1279.8926,1229.5,1283.8926,1239.5,1287.8926,1235.5,1283.8926" style="stroke:#000000;stroke-width:1.0;"/><text fill="#000000" font-family="Verdana" font-size="13" lengthAdjust="spacing" textLength="136" x="1235.5" y="1250.3638">14b. Update metrics</text><text fill="#000000" font-family="Verdana" font-size="13" lengthAdjust="spacing" textLength="135" x="1235.5" y="1266.1631">(compliance scores)</text><rect fill="#FFFFFF" height="3" style="stroke:#FFFFFF;stroke-width:1.0;" width="1844" x="5" y="1319.7922"/><line style="stroke:#000000;stroke-width:0.5;" x1="5" x2="1849" y1="1319.7922" y2="1319.7922"/><line style="stroke:#000000;stroke-width:0.5;" x1="5" x2="1849" y1="1322.7922" y2="1322.7922"/><rect fill="#FFFFFF" height="23.7993" style="stroke:#000000;stroke-width:1.0;" width="221" x="816.5" y="1308.8926"/><text fill="#000000" font-family="Verdana" font-size="13" font-weight="bold" lengthAdjust="spacing" textLength="203" x="822.5" y="1325.9624">Compliance Review Process</text><polygon fill="#000000" points="1434,1360.4912,1424,1364.4912,1434,1368.4912,1430,1364.4912" style="stroke:#000000;stroke-width:1.0;"/><line style="stroke:#000000;stroke-width:1.0;" x1="1428" x2="1661" y1="1364.4912" y2="1364.4912"/><text fill="#000000" font-family="Verdana" font-size="13" lengthAdjust="spacing" textLength="225" x="1440" y="1359.7617">16. Access compliance dashboard</text><polygon fill="#000000" points="1042.5,1406.0898,1032.5,1410.0898,1042.5,1414.0898,1038.5,1410.0898" style="stroke:#000000;stroke-width:1.0;"/><line style="stroke:#000000;stroke-width:1.0;" x1="1036.5" x2="1412" y1="1410.0898" y2="1410.0898"/><text fill="#000000" font-family="Verdana" font-size="13" lengthAdjust="spacing" textLength="136" x="1048.5" y="1389.561">17. Query audit logs</text><text fill="#000000" font-family="Verdana" font-size="13" lengthAdjust="spacing" textLength="134" x="1048.5" y="1405.3604">(filtered by criteria)</text><polygon fill="#000000" points="1401,1451.6885,1411,1455.6885,1401,1459.6885,1405,1455.6885" style="stroke:#000000;stroke-width:1.0;"/><line style="stroke:#000000;stroke-width:1.0;stroke-dasharray:2.0,2.0;" x1="1026.5" x2="1407" y1="1455.6885" y2="1455.6885"/><text fill="#000000" font-family="Verdana" font-size="13" lengthAdjust="spacing" textLength="126" x="1033.5" y="1435.1597">18. Audit trail data</text><text fill="#000000" font-family="Verdana" font-size="13" lengthAdjust="spacing" textLength="181" x="1033.5" y="1450.959">(user actions, timestamps)</text><line style="stroke:#000000;stroke-width:1.0;" x1="1423" x2="1465" y1="1532.8857" y2="1532.8857"/><line style="stroke:#000000;stroke-width:1.0;" x1="1465" x2="1465" y1="1532.8857" y2="1545.8857"/><line style="stroke:#000000;stroke-width:1.0;" x1="1424" x2="1465" y1="1545.8857" y2="1545.8857"/><polygon fill="#000000" points="1434,1541.8857,1424,1545.8857,1434,1549.8857,1430,1545.8857" style="stroke:#000000;stroke-width:1.0;"/><text fill="#000000" font-family="Verdana" font-size="13" lengthAdjust="spacing" textLength="146" x="1430" y="1480.7583">19. Generate reports:</text><text fill="#000000" font-family="Verdana" font-size="13" lengthAdjust="spacing" textLength="116" x="1430" y="1496.5576">- Access patterns</text><text fill="#000000" font-family="Verdana" font-size="13" lengthAdjust="spacing" textLength="119" x="1430" y="1512.3569">- Policy violations</text><text fill="#000000" font-family="Verdana" font-size="13" lengthAdjust="spacing" textLength="129" x="1430" y="1528.1563">- Risk assessments</text><polygon fill="#000000" points="1650,1587.4844,1660,1591.4844,1650,1595.4844,1654,1591.4844" style="stroke:#000000;stroke-width:1.0;"/><line style="stroke:#000000;stroke-width:1.0;stroke-dasharray:2.0,2.0;" x1="1423" x2="1656" y1="1591.4844" y2="1591.4844"/><text fill="#000000" font-family="Verdana" font-size="13" lengthAdjust="spacing" textLength="166" x="1430" y="1570.9556">20. Display audit reports</text><text fill="#000000" font-family="Verdana" font-size="13" lengthAdjust="spacing" textLength="151" x="1430" y="1586.7549">(charts, tables, alerts)</text><line style="stroke:#000000;stroke-width:1.0;" x1="1672" x2="1714" y1="1668.6816" y2="1668.6816"/><line style="stroke:#000000;stroke-width:1.0;" x1="1714" x2="1714" y1="1668.6816" y2="1681.6816"/><line style="stroke:#000000;stroke-width:1.0;" x1="1673" x2="1714" y1="1681.6816" y2="1681.6816"/><polygon fill="#000000" points="1683,1677.6816,1673,1681.6816,1683,1685.6816,1679,1681.6816" style="stroke:#000000;stroke-width:1.0;"/><text fill="#000000" font-family="Verdana" font-size="13" lengthAdjust="spacing" textLength="137" x="1679" y="1616.5542">21. Review findings:</text><text fill="#000000" font-family="Verdana" font-size="13" lengthAdjust="spacing" textLength="158" x="1679" y="1632.3535">- Investigate anomalies</text><text fill="#000000" font-family="Verdana" font-size="13" lengthAdjust="spacing" textLength="131" x="1679" y="1648.1528">- Verify compliance</text><text fill="#000000" font-family="Verdana" font-size="13" lengthAdjust="spacing" textLength="124" x="1679" y="1663.9521">- Document issues</text><path d="M242.5,1696.6816 L306.5,1696.6816 L306.5,1704.481 L296.5,1714.481 L242.5,1714.481 L242.5,1696.6816 " fill="#FFFFFF" style="stroke:#000000;stroke-width:1.0;"/><rect fill="none" height="199.7632" style="stroke:#000000;stroke-width:1.0;" width="1503.5" x="242.5" y="1696.6816"/><text fill="#000000" font-family="Verdana" font-size="13" font-weight="bold" lengthAdjust="spacing" textLength="19" x="257.5" y="1710.7515">alt</text><text fill="#000000" font-family="Verdana" font-size="11" font-weight="bold" lengthAdjust="spacing" textLength="166" x="321.5" y="1709.7407">[Compliance Issue Found]</text><polygon fill="#000000" points="1434,1748.0796,1424,1752.0796,1434,1756.0796,1430,1752.0796" style="stroke:#000000;stroke-width:1.0;"/><line style="stroke:#000000;stroke-width:1.0;" x1="1428" x2="1661" y1="1752.0796" y2="1752.0796"/><text fill="#000000" font-family="Verdana" font-size="13" lengthAdjust="spacing" textLength="135" x="1440" y="1731.5508">22a. Create incident</text><text fill="#000000" font-family="Verdana" font-size="13" lengthAdjust="spacing" textLength="118" x="1440" y="1747.3501">(violation details)</text><polygon fill="#000000" points="324.5,1793.6782,314.5,1797.6782,324.5,1801.6782,320.5,1797.6782" style="stroke:#000000;stroke-width:1.0;"/><line style="stroke:#000000;stroke-width:1.0;" x1="318.5" x2="1412" y1="1797.6782" y2="1797.6782"/><text fill="#000000" font-family="Verdana" font-size="13" lengthAdjust="spacing" textLength="167" x="330.5" y="1777.1494">23a. Trigger remediation</text><text fill="#000000" font-family="Verdana" font-size="13" lengthAdjust="spacing" textLength="202" x="330.5" y="1792.9487">(disable account, alert admin)</text><polygon fill="#000000" points="1401,1823.4775,1411,1827.4775,1401,1831.4775,1405,1827.4775" style="stroke:#000000;stroke-width:1.0;"/><line style="stroke:#000000;stroke-width:1.0;stroke-dasharray:2.0,2.0;" x1="308.5" x2="1407" y1="1827.4775" y2="1827.4775"/><text fill="#000000" font-family="Verdana" font-size="13" lengthAdjust="spacing" textLength="147" x="315.5" y="1822.748">24a. Action confirmed</text><line style="stroke:#000000;stroke-width:1.0;stroke-dasharray:2.0,2.0;" x1="242.5" x2="1746" y1="1836.4775" y2="1836.4775"/><text fill="#000000" font-family="Verdana" font-size="11" font-weight="bold" lengthAdjust="spacing" textLength="143" x="247.5" y="1847.5366">[Compliance Satisfied]</text><polygon fill="#000000" points="1434,1884.4448,1424,1888.4448,1434,1892.4448,1430,1888.4448" style="stroke:#000000;stroke-width:1.0;"/><line style="stroke:#000000;stroke-width:1.0;" x1="1428" x2="1661" y1="1888.4448" y2="1888.4448"/><text fill="#000000" font-family="Verdana" font-size="13" lengthAdjust="spacing" textLength="153" x="1440" y="1867.916">22b. Mark as reviewed</text><text fill="#000000" font-family="Verdana" font-size="13" lengthAdjust="spacing" textLength="154" x="1440" y="1883.7153">(compliance approved)</text><rect fill="#FFFFFF" height="3" style="stroke:#FFFFFF;stroke-width:1.0;" width="1844" x="5" y="1924.3445"/><line style="stroke:#000000;stroke-width:0.5;" x1="5" x2="1849" y1="1924.3445" y2="1924.3445"/><line style="stroke:#000000;stroke-width:0.5;" x1="5" x2="1849" y1="1927.3445" y2="1927.3445"/><rect fill="#FFFFFF" height="23.7993" style="stroke:#000000;stroke-width:1.0;" width="160" x="847" y="1913.4448"/><text fill="#000000" font-family="Verdana" font-size="13" font-weight="bold" lengthAdjust="spacing" textLength="142" x="853" y="1930.5146">Audit Trail Integrity</text><line style="stroke:#000000;stroke-width:1.0;" x1="1026.5" x2="1068.5" y1="1984.8428" y2="1984.8428"/><line style="stroke:#000000;stroke-width:1.0;" x1="1068.5" x2="1068.5" y1="1984.8428" y2="1997.8428"/><line style="stroke:#000000;stroke-width:1.0;" x1="1027.5" x2="1068.5" y1="1997.8428" y2="1997.8428"/><polygon fill="#000000" points="1037.5,1993.8428,1027.5,1997.8428,1037.5,2001.8428,1033.5,1997.8428" style="stroke:#000000;stroke-width:1.0;"/><text fill="#000000" font-family="Verdana" font-size="13" lengthAdjust="spacing" textLength="183" x="1033.5" y="1964.314">25. Periodic integrity check</text><text fill="#000000" font-family="Verdana" font-size="13" lengthAdjust="spacing" textLength="123" x="1033.5" y="1980.1133">(hash verification)</text><line style="stroke:#000000;stroke-width:1.0;" x1="1026.5" x2="1068.5" y1="2043.4414" y2="2043.4414"/><line style="stroke:#000000;stroke-width:1.0;" x1="1068.5" x2="1068.5" y1="2043.4414" y2="2056.4414"/><line style="stroke:#000000;stroke-width:1.0;" x1="1027.5" x2="1068.5" y1="2056.4414" y2="2056.4414"/><polygon fill="#000000" points="1037.5,2052.4414,1027.5,2056.4414,1037.5,2060.4414,1033.5,2056.4414" style="stroke:#000000;stroke-width:1.0;"/><text fill="#000000" font-family="Verdana" font-size="13" lengthAdjust="spacing" textLength="144" x="1033.5" y="2022.9126">26. Backup audit logs</text><text fill="#000000" font-family="Verdana" font-size="13" lengthAdjust="spacing" textLength="128" x="1033.5" y="2038.7119">(to secure archive)</text><path d="M602,2069.4414 L602,2189.4414 L809,2189.4414 L809,2079.4414 L799,2069.4414 L602,2069.4414 " fill="#FFFFFF" style="stroke:#000000;stroke-width:1.0;"/><path d="M799,2069.4414 L799,2079.4414 L809,2079.4414 L799,2069.4414 " fill="#FFFFFF" style="stroke:#000000;stroke-width:1.0;"/><text fill="#000000" font-family="Verdana" font-size="13" lengthAdjust="spacing" textLength="126" x="608" y="2087.5112">Audit Event Types:</text><text fill="#000000" font-family="Verdana" font-size="13" lengthAdjust="spacing" textLength="155" x="608" y="2103.3105">- Authentication events</text><text fill="#000000" font-family="Verdana" font-size="13" lengthAdjust="spacing" textLength="165" x="608" y="2119.1099">- Authorization decisions</text><text fill="#000000" font-family="Verdana" font-size="13" lengthAdjust="spacing" textLength="186" x="608" y="2134.9092">- Data access/modifications</text><text fill="#000000" font-family="Verdana" font-size="13" lengthAdjust="spacing" textLength="159" x="608" y="2150.7085">- Configuration changes</text><text fill="#000000" font-family="Verdana" font-size="13" lengthAdjust="spacing" textLength="160" x="608" y="2166.5078">- Administrative actions</text><text fill="#000000" font-family="Verdana" font-size="13" lengthAdjust="spacing" textLength="163" x="608" y="2182.3071">- System errors/failures</text><path d="M1031,2200.0366 L1031,2320.0366 L1213,2320.0366 L1213,2210.0366 L1203,2200.0366 L1031,2200.0366 " fill="#FFFFFF" style="stroke:#000000;stroke-width:1.0;"/><path d="M1203,2200.0366 L1203,2210.0366 L1213,2210.0366 L1203,2200.0366 " fill="#FFFFFF" style="stroke:#000000;stroke-width:1.0;"/><text fill="#000000" font-family="Verdana" font-size="13" lengthAdjust="spacing" textLength="123" x="1037" y="2218.1064">Security Features:</text><text fill="#000000" font-family="Verdana" font-size="13" lengthAdjust="spacing" textLength="130" x="1037" y="2233.9058">- Encryption at rest</text><text fill="#000000" font-family="Verdana" font-size="13" lengthAdjust="spacing" textLength="138" x="1037" y="2249.7051">- Immutable storage</text><text fill="#000000" font-family="Verdana" font-size="13" lengthAdjust="spacing" textLength="128" x="1037" y="2265.5044">- Digital signatures</text><text fill="#000000" font-family="Verdana" font-size="13" lengthAdjust="spacing" textLength="114" x="1037" y="2281.3037">- Access controls</text><text fill="#000000" font-family="Verdana" font-size="13" lengthAdjust="spacing" textLength="129" x="1037" y="2297.103">- Retention policies</text><text fill="#000000" font-family="Verdana" font-size="13" lengthAdjust="spacing" textLength="161" x="1037" y="2312.9023">- Geographic replication</text><path d="M1461,2330.6318 L1461,2434.6318 L1662,2434.6318 L1662,2340.6318 L1652,2330.6318 L1461,2330.6318 " fill="#FFFFFF" style="stroke:#000000;stroke-width:1.0;"/><path d="M1652,2330.6318 L1652,2340.6318 L1662,2340.6318 L1652,2330.6318 " fill="#FFFFFF" style="stroke:#000000;stroke-width:1.0;"/><text fill="#000000" font-family="Verdana" font-size="13" lengthAdjust="spacing" textLength="180" x="1467" y="2348.7017">Compliance Requirements:</text><text fill="#000000" font-family="Verdana" font-size="13" lengthAdjust="spacing" textLength="146" x="1467" y="2364.501">- SOX (financial data)</text><text fill="#000000" font-family="Verdana" font-size="13" lengthAdjust="spacing" textLength="139" x="1467" y="2380.3003">- HIPAA (healthcare)</text><text fill="#000000" font-family="Verdana" font-size="13" lengthAdjust="spacing" textLength="156" x="1467" y="2396.0996">- GDPR (personal data)</text><text fill="#000000" font-family="Verdana" font-size="13" lengthAdjust="spacing" textLength="176" x="1467" y="2411.8989">- PCI-DSS (payment data)</text><text fill="#000000" font-family="Verdana" font-size="13" lengthAdjust="spacing" textLength="180" x="1467" y="2427.6982">- SOC 2 (security controls)</text><path d="M1133,2445.4277 L1133,2549.4277 L1507,2549.4277 L1507,2455.4277 L1497,2445.4277 L1133,2445.4277 " fill="#FFFFFF" style="stroke:#000000;stroke-width:1.0;"/><path d="M1497,2445.4277 L1497,2455.4277 L1507,2455.4277 L1497,2445.4277 " fill="#FFFFFF" style="stroke:#000000;stroke-width:1.0;"/><text fill="#000000" font-family="Verdana" font-size="13" lengthAdjust="spacing" textLength="143" x="1239" y="2463.4976">Analysis Capabilities:</text><text fill="#000000" font-family="Verdana" font-size="13" lengthAdjust="spacing" textLength="153" x="1239" y="2479.2969">- Real-time monitoring</text><text fill="#000000" font-family="Verdana" font-size="13" lengthAdjust="spacing" textLength="146" x="1239" y="2495.0962">- Behavioral analytics</text><text fill="#000000" font-family="Verdana" font-size="13" lengthAdjust="spacing" textLength="120" x="1239" y="2510.8955">- Threat detection</text><text fill="#000000" font-family="Verdana" font-size="13" lengthAdjust="spacing" textLength="141" x="1239" y="2526.6948">- Compliance scoring</text><text fill="#000000" font-family="Verdana" font-size="13" lengthAdjust="spacing" textLength="149" x="1239" y="2542.4941">- Automated reporting</text><!--SRC=[XLTTRzis57tNhxZBKmmuxff-R0sG0MdSTXxMnelJOGy51aQY9Q8IfPAK2_VNxroIaYadxLxYYAGkxySvvrxzv2hPIEfgeNJcbAibNVM5SlHdMvPAboHqGTTjqzLAw5pIhTmf-PNMfisbjLacSjSQElbefJaXOQd7FradZ5EvweHsT7BLuTrSEDLgVq9qtT61yRvee_R_JWzXcwxAqiXIuC9WQ7pC2k74lR2IJZOoxyqGmmPxCfpbv-B-4PjQr7khBBtH23SUvhLlnnuaILWAMzstmXJ-U34y3Sb8JjvijogFORNX_opJhPFKxgJnsPgF6-GJRMGbjLKx6PpssU12sBrrig5jomSjXwdSdlB3NLmfxFBBUOW1SMKIgtnXbbrU4fU9hdAkXJy-5FdoCilO5phxZUjpGKyNj9O6rXfS1OFE- -DV_AHFuPBIS-AiOv61C8SZUgjAoYkXIpdZLAYTG9nSxWn_HjFdYm4zFdmoyailhHiFXUfVqBC5lPDQ6c_4PqBkf7Qudb_xLnNpwD0S9cpRcrpEoQa6jaJJ9Hv4E6NXDxtY-G9bDogluWKSqCKdVKQhDOcYW5dBJpvhelINdz46gvo_rPAVRfNzJ3P7sX-xuCM26FxxaAgy5dXr6yc0GDQh5JN2VaO9vcEUkQerGgrdgSK3s2_evG9Ee7eZFc3AEjFd3j0lw8_DpGS6GYDSMeU4BV91RdpkSGsdze9-MGmWyV2IJXQu0kdeMWsIkTQVcwM6V9c1CEPKBE-W7in2PC-3xE35SL2_BkXlKQiYUXK3-AJPWj9EbWpt7nbuDUJQm5_jlUzQA8-IAE8fgqD1MFELSFiE63qs5ZG2uFzv4QHZac6fSxFla8evgQRf8JZr1ETHOUAlpsRgtbDGYfDZsN11NvMhg89oJ98ORHmx5lK8Ha2Ujwtv2h7X18qizzKHzHd3dxen_QbxWwQbrnqWmQMx7IsCekXB5jyyyWJqN0ldfD6Z5vuwLxfj12CULOXw4La2yCEj9j8e4ScyalbdxYKr9Bkt7MhMzjP3qBDXwKt90hf7bBepAY_yUIvIlQYbOQMeL5cT6NzvD3OBHeOK7BIRbySdDXvL6QPVY4Wuw6XANza8LJ_PlD-4-uBf9By7ux86RJumekinh0VH9CbzVh-WZvtdGYCT58ehd4Yz5nmxOt7F9XKTgipr_6xNzcMDuHsdyILJtnzAhfjqkEFOngMnlqtIU60LLEMlNfhzWLKSrLRL014OSOzc1evBeyJ_q2hr5x8HUhqpA8PdT-mGiJlOf2dOsQDic_YR6d-LGCh8hZKkOZnag0luzprYpLApfvrgQmyF-mZixUIg56BdK9obifZ2Xkp4wxZi5QOGZe851xyUQuWahU3145Gc5dkhT04D21wlz0ufK6K02JFKo-8P_OryRzCnWXUNRTwpmwIiHMyEp4pWjE9b256l0syUnzBvENXp3Lt2dKhdgWZTUqmHImHgPcSFkHS6XMTu_yuetm8DfjH23SmhbELiyF019rnC2dfse_GHmxan-ONOuL87MJF6HeVnnJHHP8uQcwTl4ly6VjYjaZ-E7Xn-Bmm30DvpINmNJGUs3bAzayL37X_ObIoE_0At0-RlFEPNGtSCSZqG9Q7U-Gi_pgcsm6GuDjEWkwoIk8rs38IeRRFlc84ul1RvvxwRKXZpW0rZjp1vXKbn5cTSrAvoy7iOCoZw_OO7ERf34xONM0IXUdo6e6U7wyEWPyUTrgXl0s9onSDNs5iUviyd3M8Rt0-xrtuWxKruCyobqIR3H65Y4ibO6xOsOSYMnhJ6FjaYlGWh7QAdSGqIGhGP1lAtm3k_4m9x4uO6FsypgJ7dyl9g623yE83XACIZIkNG8QmgTJ0It1tqM3lJrc7jzi6CuvVVoROqegjGPWZ8yDbrx7ujjzxxwNV7s2g-z8hPXWg463Ot_n1a6fDOhaIGs9dV-7srlhgYqmfpWwjoOMHOVhTStz9f9urjzUJy-dfrjjnii2VsNbuEMvkRQpgdq-Ip9WGxE_RTVpODRMu-wT_Zr78jEd6lQWpJGnaEeqtJQeMKGnZzncjP2GYIWP_UA20OCdbNiN0TffW8gKa77em0er1K32XHjNbzTFi_]--></g></svg>