<?xml version="1.0" encoding="us-ascii" standalone="no"?><svg xmlns="http://www.w3.org/2000/svg" xmlns:xlink="http://www.w3.org/1999/xlink" contentStyleType="text/css" height="2701px" preserveAspectRatio="none" style="width:1430px;height:2701px;background:#FFFFFF;" version="1.1" viewBox="0 0 1430 2701" width="1430px" zoomAndPan="magnify"><defs/><g><text fill="#000000" font-family="Verdana" font-size="22" font-weight="bold" lengthAdjust="spacing" textLength="399" x="514.25" y="37.1182">Data Encryption at Rest Process</text><rect fill="#FFFFFF" height="510.7856" style="stroke:#000000;stroke-width:1.0;" width="10" x="276.5" y="273.7485"/><rect fill="#FFFFFF" height="630.1509" style="stroke:#000000;stroke-width:1.0;" width="10" x="276.5" y="873.9321"/><rect fill="#FFFFFF" height="317.5918" style="stroke:#000000;stroke-width:1.0;" width="10" x="276.5" y="1702.6782"/><rect fill="#FFFFFF" height="135.7959" style="stroke:#000000;stroke-width:1.0;" width="10" x="495.5" y="527.7417"/><rect fill="#FFFFFF" height="311.9604" style="stroke:#000000;stroke-width:1.0;" width="10" x="495.5" y="1192.1226"/><rect fill="#FFFFFF" height="29.7993" style="stroke:#000000;stroke-width:1.0;" width="10" x="495.5" y="1802.8755"/><rect fill="#FFFFFF" height="29.7993" style="stroke:#000000;stroke-width:1.0;" width="10" x="495.5" y="1862.4741"/><rect fill="#FFFFFF" height="104.1973" style="stroke:#000000;stroke-width:1.0;" width="10" x="695.5" y="377.9458"/><rect fill="#FFFFFF" height="135.7959" style="stroke:#000000;stroke-width:1.0;" width="10" x="695.5" y="1010.728"/><rect fill="#FFFFFF" height="426.7891" style="stroke:#000000;stroke-width:1.0;" width="10" x="695.5" y="1593.481"/><rect fill="#FFFFFF" height="29.7993" style="stroke:#000000;stroke-width:1.0;" width="10" x="942.5" y="709.1362"/><rect fill="#FFFFFF" height="45.5986" style="stroke:#000000;stroke-width:1.0;" width="10" x="942.5" y="919.5308"/><rect fill="#FFFFFF" height="226.3945" style="stroke:#000000;stroke-width:1.0;" width="10" x="942.5" y="1748.2769"/><rect fill="#FFFFFF" height="45.5986" style="stroke:#000000;stroke-width:1.0;" width="10" x="942.5" y="2109.668"/><rect fill="#FFFFFF" height="155.7959" style="stroke:#000000;stroke-width:1.0;" width="10" x="1175.5" y="2109.668"/><rect fill="#FFFFFF" height="199.7632" style="stroke:#000000;stroke-width:1.0;" width="570" x="23" y="1297.3198"/><rect fill="#FFFFFF" height="106.5659" style="stroke:none;stroke-width:1.0;" width="570" x="23" y="1390.5171"/><rect fill="#FFFFFF" height="182.5952" style="stroke:#000000;stroke-width:1.0;" width="815.5" x="215.5" y="1763.2769"/><line style="stroke:#000000;stroke-width:1.0;" x1="51" x2="51" y1="130.752" y2="2619.0522"/><line style="stroke:#000000;stroke-width:1.0;" x1="281.5" x2="281.5" y1="130.752" y2="2619.0522"/><line style="stroke:#000000;stroke-width:1.0;" x1="500" x2="500" y1="130.752" y2="2619.0522"/><line style="stroke:#000000;stroke-width:1.0;" x1="700.5" x2="700.5" y1="130.752" y2="2619.0522"/><line style="stroke:#000000;stroke-width:1.0;" x1="947" x2="947" y1="130.752" y2="2619.0522"/><line style="stroke:#000000;stroke-width:1.0;" x1="1180" x2="1180" y1="130.752" y2="2619.0522"/><text fill="#000000" font-family="Verdana" font-size="14" lengthAdjust="spacing" textLength="31" x="33" y="127.8125">User</text><ellipse cx="51.5" cy="61.7373" fill="#FFFFFF" rx="8" ry="8" style="stroke:#000000;stroke-width:1.0;"/><path d="M51.5,69.7373 L51.5,96.7373 M38.5,77.7373 L64.5,77.7373 M51.5,96.7373 L38.5,111.7373 M51.5,96.7373 L64.5,111.7373 " fill="none" style="stroke:#000000;stroke-width:1.0;"/><text fill="#000000" font-family="Verdana" font-size="14" lengthAdjust="spacing" textLength="31" x="33" y="2632.1274">User</text><ellipse cx="51.5" cy="2644.0669" fill="#FFFFFF" rx="8" ry="8" style="stroke:#000000;stroke-width:1.0;"/><path d="M51.5,2652.0669 L51.5,2679.0669 M38.5,2660.0669 L64.5,2660.0669 M51.5,2679.0669 L38.5,2694.0669 M51.5,2679.0669 L64.5,2694.0669 " fill="none" style="stroke:#000000;stroke-width:1.0;"/><rect fill="#FFFFFF" height="31.0146" rx="2.5" ry="2.5" style="stroke:#000000;stroke-width:1.0;" width="92" x="235.5" y="98.7373"/><text fill="#000000" font-family="Verdana" font-size="14" lengthAdjust="spacing" textLength="78" x="242.5" y="119.8125">Application</text><rect fill="#FFFFFF" height="31.0146" rx="2.5" ry="2.5" style="stroke:#000000;stroke-width:1.0;" width="92" x="235.5" y="2618.0522"/><text fill="#000000" font-family="Verdana" font-size="14" lengthAdjust="spacing" textLength="78" x="242.5" y="2639.1274">Application</text><rect fill="#FFFFFF" height="31.0146" rx="2.5" ry="2.5" style="stroke:#000000;stroke-width:1.0;" width="145" x="428" y="98.7373"/><text fill="#000000" font-family="Verdana" font-size="14" lengthAdjust="spacing" textLength="131" x="435" y="119.8125">Encryption Service</text><rect fill="#FFFFFF" height="31.0146" rx="2.5" ry="2.5" style="stroke:#000000;stroke-width:1.0;" width="145" x="428" y="2618.0522"/><text fill="#000000" font-family="Verdana" font-size="14" lengthAdjust="spacing" textLength="131" x="435" y="2639.1274">Encryption Service</text><rect fill="#FFFFFF" height="31.0146" rx="2.5" ry="2.5" style="stroke:#000000;stroke-width:1.0;" width="192" x="604.5" y="98.7373"/><text fill="#000000" font-family="Verdana" font-size="14" lengthAdjust="spacing" textLength="178" x="611.5" y="119.8125">Key Management Service</text><rect fill="#FFFFFF" height="31.0146" rx="2.5" ry="2.5" style="stroke:#000000;stroke-width:1.0;" width="192" x="604.5" y="2618.0522"/><text fill="#000000" font-family="Verdana" font-size="14" lengthAdjust="spacing" textLength="178" x="611.5" y="2639.1274">Key Management Service</text><text fill="#000000" font-family="Verdana" font-size="14" lengthAdjust="spacing" textLength="141" x="874" y="127.8125">Encrypted Database</text><path d="M929.5,77.7373 C929.5,67.7373 947.5,67.7373 947.5,67.7373 C947.5,67.7373 965.5,67.7373 965.5,77.7373 L965.5,103.7373 C965.5,113.7373 947.5,113.7373 947.5,113.7373 C947.5,113.7373 929.5,113.7373 929.5,103.7373 L929.5,77.7373 " fill="#FFFFFF" style="stroke:#000000;stroke-width:1.5;"/><path d="M929.5,77.7373 C929.5,87.7373 947.5,87.7373 947.5,87.7373 C947.5,87.7373 965.5,87.7373 965.5,77.7373 " fill="none" style="stroke:#000000;stroke-width:1.5;"/><text fill="#000000" font-family="Verdana" font-size="14" lengthAdjust="spacing" textLength="141" x="874" y="2632.1274">Encrypted Database</text><path d="M929.5,2645.0669 C929.5,2635.0669 947.5,2635.0669 947.5,2635.0669 C947.5,2635.0669 965.5,2635.0669 965.5,2645.0669 L965.5,2671.0669 C965.5,2681.0669 947.5,2681.0669 947.5,2681.0669 C947.5,2681.0669 929.5,2681.0669 929.5,2671.0669 L929.5,2645.0669 " fill="#FFFFFF" style="stroke:#000000;stroke-width:1.5;"/><path d="M929.5,2645.0669 C929.5,2655.0669 947.5,2655.0669 947.5,2655.0669 C947.5,2655.0669 965.5,2655.0669 965.5,2645.0669 " fill="none" style="stroke:#000000;stroke-width:1.5;"/><rect fill="#FFFFFF" height="31.0146" rx="2.5" ry="2.5" style="stroke:#000000;stroke-width:1.0;" width="121" x="1120" y="98.7373"/><text fill="#000000" font-family="Verdana" font-size="14" lengthAdjust="spacing" textLength="107" x="1127" y="119.8125">Backup Service</text><rect fill="#FFFFFF" height="31.0146" rx="2.5" ry="2.5" style="stroke:#000000;stroke-width:1.0;" width="121" x="1120" y="2618.0522"/><text fill="#000000" font-family="Verdana" font-size="14" lengthAdjust="spacing" textLength="107" x="1127" y="2639.1274">Backup Service</text><rect fill="#FFFFFF" height="510.7856" style="stroke:#000000;stroke-width:1.0;" width="10" x="276.5" y="273.7485"/><rect fill="#FFFFFF" height="630.1509" style="stroke:#000000;stroke-width:1.0;" width="10" x="276.5" y="873.9321"/><rect fill="#FFFFFF" height="317.5918" style="stroke:#000000;stroke-width:1.0;" width="10" x="276.5" y="1702.6782"/><rect fill="#FFFFFF" height="135.7959" style="stroke:#000000;stroke-width:1.0;" width="10" x="495.5" y="527.7417"/><rect fill="#FFFFFF" height="311.9604" style="stroke:#000000;stroke-width:1.0;" width="10" x="495.5" y="1192.1226"/><rect fill="#FFFFFF" height="29.7993" style="stroke:#000000;stroke-width:1.0;" width="10" x="495.5" y="1802.8755"/><rect fill="#FFFFFF" height="29.7993" style="stroke:#000000;stroke-width:1.0;" width="10" x="495.5" y="1862.4741"/><rect fill="#FFFFFF" height="104.1973" style="stroke:#000000;stroke-width:1.0;" width="10" x="695.5" y="377.9458"/><rect fill="#FFFFFF" height="135.7959" style="stroke:#000000;stroke-width:1.0;" width="10" x="695.5" y="1010.728"/><rect fill="#FFFFFF" height="426.7891" style="stroke:#000000;stroke-width:1.0;" width="10" x="695.5" y="1593.481"/><rect fill="#FFFFFF" height="29.7993" style="stroke:#000000;stroke-width:1.0;" width="10" x="942.5" y="709.1362"/><rect fill="#FFFFFF" height="45.5986" style="stroke:#000000;stroke-width:1.0;" width="10" x="942.5" y="919.5308"/><rect fill="#FFFFFF" height="226.3945" style="stroke:#000000;stroke-width:1.0;" width="10" x="942.5" y="1748.2769"/><rect fill="#FFFFFF" height="45.5986" style="stroke:#000000;stroke-width:1.0;" width="10" x="942.5" y="2109.668"/><rect fill="#FFFFFF" height="155.7959" style="stroke:#000000;stroke-width:1.0;" width="10" x="1175.5" y="2109.668"/><path d="M10,145.752 L10,186.752 L1223,186.752 L1223,155.752 L1213,145.752 L10,145.752 " fill="#FFFFFF" style="stroke:#000000;stroke-width:1.0;"/><path d="M1213,145.752 L1213,155.752 L1223,155.752 L1213,145.752 " fill="#FFFFFF" style="stroke:#000000;stroke-width:1.0;"/><text fill="#000000" font-family="Verdana" font-size="13" lengthAdjust="spacing" textLength="310" x="441" y="163.8218">Data encryption at rest ensures sensitive data</text><text fill="#000000" font-family="Verdana" font-size="13" lengthAdjust="spacing" textLength="342" x="441" y="179.6211">is protected even if storage media is compromised</text><rect fill="#FFFFFF" height="3" style="stroke:#FFFFFF;stroke-width:1.0;" width="1418.5" x="5" y="213.2502"/><line style="stroke:#000000;stroke-width:0.5;" x1="5" x2="1423.5" y1="213.2502" y2="213.2502"/><line style="stroke:#000000;stroke-width:0.5;" x1="5" x2="1423.5" y1="216.2502" y2="216.2502"/><rect fill="#FFFFFF" height="23.7993" style="stroke:#000000;stroke-width:1.0;" width="173" x="627.75" y="202.3506"/><text fill="#000000" font-family="Verdana" font-size="13" font-weight="bold" lengthAdjust="spacing" textLength="155" x="633.75" y="219.4204">Data Write Operation</text><polygon fill="#000000" points="264.5,269.7485,274.5,273.7485,264.5,277.7485,268.5,273.7485" style="stroke:#000000;stroke-width:1.0;"/><line style="stroke:#000000;stroke-width:1.0;" x1="51.5" x2="270.5" y1="273.7485" y2="273.7485"/><text fill="#000000" font-family="Verdana" font-size="13" lengthAdjust="spacing" textLength="163" x="58.5" y="253.2197">1. Submit sensitive data</text><text fill="#000000" font-family="Verdana" font-size="13" lengthAdjust="spacing" textLength="206" x="58.5" y="269.019">(PII, financial info, passwords)</text><line style="stroke:#000000;stroke-width:1.0;" x1="286.5" x2="328.5" y1="319.3472" y2="319.3472"/><line style="stroke:#000000;stroke-width:1.0;" x1="328.5" x2="328.5" y1="319.3472" y2="332.3472"/><line style="stroke:#000000;stroke-width:1.0;" x1="287.5" x2="328.5" y1="332.3472" y2="332.3472"/><polygon fill="#000000" points="297.5,328.3472,287.5,332.3472,297.5,336.3472,293.5,332.3472" style="stroke:#000000;stroke-width:1.0;"/><text fill="#000000" font-family="Verdana" font-size="13" lengthAdjust="spacing" textLength="157" x="293.5" y="298.8184">2. Validate and sanitize</text><text fill="#000000" font-family="Verdana" font-size="13" lengthAdjust="spacing" textLength="67" x="293.5" y="314.6177">input data</text><polygon fill="#000000" points="683.5,373.9458,693.5,377.9458,683.5,381.9458,687.5,377.9458" style="stroke:#000000;stroke-width:1.0;"/><line style="stroke:#000000;stroke-width:1.0;" x1="286.5" x2="689.5" y1="377.9458" y2="377.9458"/><text fill="#000000" font-family="Verdana" font-size="13" lengthAdjust="spacing" textLength="175" x="293.5" y="357.417">3. Request encryption key</text><text fill="#000000" font-family="Verdana" font-size="13" lengthAdjust="spacing" textLength="115" x="293.5" y="373.2163">(key_id, context)</text><line style="stroke:#000000;stroke-width:1.0;" x1="705.5" x2="747.5" y1="423.5444" y2="423.5444"/><line style="stroke:#000000;stroke-width:1.0;" x1="747.5" x2="747.5" y1="423.5444" y2="436.5444"/><line style="stroke:#000000;stroke-width:1.0;" x1="706.5" x2="747.5" y1="436.5444" y2="436.5444"/><polygon fill="#000000" points="716.5,432.5444,706.5,436.5444,716.5,440.5444,712.5,436.5444" style="stroke:#000000;stroke-width:1.0;"/><text fill="#000000" font-family="Verdana" font-size="13" lengthAdjust="spacing" textLength="168" x="712.5" y="403.0156">4. Retrieve/generate key</text><text fill="#000000" font-family="Verdana" font-size="13" lengthAdjust="spacing" textLength="172" x="712.5" y="418.8149">(AES-256 encryption key)</text><polygon fill="#000000" points="297.5,478.1431,287.5,482.1431,297.5,486.1431,293.5,482.1431" style="stroke:#000000;stroke-width:1.0;"/><line style="stroke:#000000;stroke-width:1.0;stroke-dasharray:2.0,2.0;" x1="291.5" x2="699.5" y1="482.1431" y2="482.1431"/><text fill="#000000" font-family="Verdana" font-size="13" lengthAdjust="spacing" textLength="166" x="303.5" y="461.6143">5. Return encryption key</text><text fill="#000000" font-family="Verdana" font-size="13" lengthAdjust="spacing" textLength="192" x="303.5" y="477.4136">(encrypted with master key)</text><polygon fill="#000000" points="483.5,523.7417,493.5,527.7417,483.5,531.7417,487.5,527.7417" style="stroke:#000000;stroke-width:1.0;"/><line style="stroke:#000000;stroke-width:1.0;" x1="286.5" x2="489.5" y1="527.7417" y2="527.7417"/><text fill="#000000" font-family="Verdana" font-size="13" lengthAdjust="spacing" textLength="166" x="293.5" y="507.2129">6. Encrypt sensitive data</text><text fill="#000000" font-family="Verdana" font-size="13" lengthAdjust="spacing" textLength="190" x="293.5" y="523.0122">(plaintext + encryption key)</text><line style="stroke:#000000;stroke-width:1.0;" x1="505.5" x2="547.5" y1="604.939" y2="604.939"/><line style="stroke:#000000;stroke-width:1.0;" x1="547.5" x2="547.5" y1="604.939" y2="617.939"/><line style="stroke:#000000;stroke-width:1.0;" x1="506.5" x2="547.5" y1="617.939" y2="617.939"/><polygon fill="#000000" points="516.5,613.939,506.5,617.939,516.5,621.939,512.5,617.939" style="stroke:#000000;stroke-width:1.0;"/><text fill="#000000" font-family="Verdana" font-size="13" lengthAdjust="spacing" textLength="136" x="512.5" y="552.8115">7. Apply encryption:</text><text fill="#000000" font-family="Verdana" font-size="13" lengthAdjust="spacing" textLength="103" x="512.5" y="568.6108">- AES-256-GCM</text><text fill="#000000" font-family="Verdana" font-size="13" lengthAdjust="spacing" textLength="136" x="512.5" y="584.4102">- Generate IV/nonce</text><text fill="#000000" font-family="Verdana" font-size="13" lengthAdjust="spacing" textLength="161" x="512.5" y="600.2095">- Add authentication tag</text><polygon fill="#000000" points="297.5,659.5376,287.5,663.5376,297.5,667.5376,293.5,663.5376" style="stroke:#000000;stroke-width:1.0;"/><line style="stroke:#000000;stroke-width:1.0;stroke-dasharray:2.0,2.0;" x1="291.5" x2="499.5" y1="663.5376" y2="663.5376"/><text fill="#000000" font-family="Verdana" font-size="13" lengthAdjust="spacing" textLength="167" x="303.5" y="643.0088">8. Return encrypted data</text><text fill="#000000" font-family="Verdana" font-size="13" lengthAdjust="spacing" textLength="163" x="303.5" y="658.8081">(ciphertext + metadata)</text><polygon fill="#000000" points="930.5,705.1362,940.5,709.1362,930.5,713.1362,934.5,709.1362" style="stroke:#000000;stroke-width:1.0;"/><line style="stroke:#000000;stroke-width:1.0;" x1="286.5" x2="936.5" y1="709.1362" y2="709.1362"/><text fill="#000000" font-family="Verdana" font-size="13" lengthAdjust="spacing" textLength="159" x="293.5" y="688.6074">9. Store encrypted data</text><text fill="#000000" font-family="Verdana" font-size="13" lengthAdjust="spacing" textLength="157" x="293.5" y="704.4067">(ciphertext, key_id, IV)</text><polygon fill="#000000" points="297.5,734.9355,287.5,738.9355,297.5,742.9355,293.5,738.9355" style="stroke:#000000;stroke-width:1.0;"/><line style="stroke:#000000;stroke-width:1.0;stroke-dasharray:2.0,2.0;" x1="291.5" x2="946.5" y1="738.9355" y2="738.9355"/><text fill="#000000" font-family="Verdana" font-size="13" lengthAdjust="spacing" textLength="189" x="303.5" y="734.2061">10. Data stored successfully</text><polygon fill="#000000" points="62.5,780.5342,52.5,784.5342,62.5,788.5342,58.5,784.5342" style="stroke:#000000;stroke-width:1.0;"/><line style="stroke:#000000;stroke-width:1.0;stroke-dasharray:2.0,2.0;" x1="56.5" x2="280.5" y1="784.5342" y2="784.5342"/><text fill="#000000" font-family="Verdana" font-size="13" lengthAdjust="spacing" textLength="165" x="68.5" y="764.0054">11. Operation completed</text><text fill="#000000" font-family="Verdana" font-size="13" lengthAdjust="spacing" textLength="160" x="68.5" y="779.8047">(confirmation message)</text><rect fill="#FFFFFF" height="3" style="stroke:#FFFFFF;stroke-width:1.0;" width="1418.5" x="5" y="813.4338"/><line style="stroke:#000000;stroke-width:0.5;" x1="5" x2="1423.5" y1="813.4338" y2="813.4338"/><line style="stroke:#000000;stroke-width:0.5;" x1="5" x2="1423.5" y1="816.4338" y2="816.4338"/><rect fill="#FFFFFF" height="23.7993" style="stroke:#000000;stroke-width:1.0;" width="170" x="629.25" y="802.5342"/><text fill="#000000" font-family="Verdana" font-size="13" font-weight="bold" lengthAdjust="spacing" textLength="152" x="635.25" y="819.604">Data Read Operation</text><polygon fill="#000000" points="264.5,869.9321,274.5,873.9321,264.5,877.9321,268.5,873.9321" style="stroke:#000000;stroke-width:1.0;"/><line style="stroke:#000000;stroke-width:1.0;" x1="51.5" x2="270.5" y1="873.9321" y2="873.9321"/><text fill="#000000" font-family="Verdana" font-size="13" lengthAdjust="spacing" textLength="177" x="58.5" y="853.4033">12. Request sensitive data</text><text fill="#000000" font-family="Verdana" font-size="13" lengthAdjust="spacing" textLength="137" x="58.5" y="869.2026">(user_id, data_type)</text><polygon fill="#000000" points="930.5,915.5308,940.5,919.5308,930.5,923.5308,934.5,919.5308" style="stroke:#000000;stroke-width:1.0;"/><line style="stroke:#000000;stroke-width:1.0;" x1="286.5" x2="936.5" y1="919.5308" y2="919.5308"/><text fill="#000000" font-family="Verdana" font-size="13" lengthAdjust="spacing" textLength="171" x="293.5" y="899.002">13. Query encrypted data</text><text fill="#000000" font-family="Verdana" font-size="13" lengthAdjust="spacing" textLength="142" x="293.5" y="914.8013">(WHERE user_id = ?)</text><polygon fill="#000000" points="297.5,961.1294,287.5,965.1294,297.5,969.1294,293.5,965.1294" style="stroke:#000000;stroke-width:1.0;"/><line style="stroke:#000000;stroke-width:1.0;stroke-dasharray:2.0,2.0;" x1="291.5" x2="946.5" y1="965.1294" y2="965.1294"/><text fill="#000000" font-family="Verdana" font-size="13" lengthAdjust="spacing" textLength="175" x="303.5" y="944.6006">14. Return encrypted data</text><text fill="#000000" font-family="Verdana" font-size="13" lengthAdjust="spacing" textLength="157" x="303.5" y="960.3999">(ciphertext, key_id, IV)</text><polygon fill="#000000" points="683.5,1006.728,693.5,1010.728,683.5,1014.728,687.5,1010.728" style="stroke:#000000;stroke-width:1.0;"/><line style="stroke:#000000;stroke-width:1.0;" x1="286.5" x2="689.5" y1="1010.728" y2="1010.728"/><text fill="#000000" font-family="Verdana" font-size="13" lengthAdjust="spacing" textLength="183" x="293.5" y="990.1992">15. Request decryption key</text><text fill="#000000" font-family="Verdana" font-size="13" lengthAdjust="spacing" textLength="115" x="293.5" y="1005.9985">(key_id, context)</text><line style="stroke:#000000;stroke-width:1.0;" x1="705.5" x2="747.5" y1="1087.9253" y2="1087.9253"/><line style="stroke:#000000;stroke-width:1.0;" x1="747.5" x2="747.5" y1="1087.9253" y2="1100.9253"/><line style="stroke:#000000;stroke-width:1.0;" x1="706.5" x2="747.5" y1="1100.9253" y2="1100.9253"/><polygon fill="#000000" points="716.5,1096.9253,706.5,1100.9253,716.5,1104.9253,712.5,1100.9253" style="stroke:#000000;stroke-width:1.0;"/><text fill="#000000" font-family="Verdana" font-size="13" lengthAdjust="spacing" textLength="141" x="712.5" y="1035.7979">16. Validate request:</text><text fill="#000000" font-family="Verdana" font-size="13" lengthAdjust="spacing" textLength="127" x="712.5" y="1051.5972">- User permissions</text><text fill="#000000" font-family="Verdana" font-size="13" lengthAdjust="spacing" textLength="129" x="712.5" y="1067.3965">- Key access policy</text><text fill="#000000" font-family="Verdana" font-size="13" lengthAdjust="spacing" textLength="98" x="712.5" y="1083.1958">- Audit logging</text><polygon fill="#000000" points="297.5,1142.5239,287.5,1146.5239,297.5,1150.5239,293.5,1146.5239" style="stroke:#000000;stroke-width:1.0;"/><line style="stroke:#000000;stroke-width:1.0;stroke-dasharray:2.0,2.0;" x1="291.5" x2="699.5" y1="1146.5239" y2="1146.5239"/><text fill="#000000" font-family="Verdana" font-size="13" lengthAdjust="spacing" textLength="174" x="303.5" y="1125.9951">17. Return decryption key</text><text fill="#000000" font-family="Verdana" font-size="13" lengthAdjust="spacing" textLength="96" x="303.5" y="1141.7944">(if authorized)</text><polygon fill="#000000" points="483.5,1188.1226,493.5,1192.1226,483.5,1196.1226,487.5,1192.1226" style="stroke:#000000;stroke-width:1.0;"/><line style="stroke:#000000;stroke-width:1.0;" x1="286.5" x2="489.5" y1="1192.1226" y2="1192.1226"/><text fill="#000000" font-family="Verdana" font-size="13" lengthAdjust="spacing" textLength="112" x="293.5" y="1171.5938">18. Decrypt data</text><text fill="#000000" font-family="Verdana" font-size="13" lengthAdjust="spacing" textLength="159" x="293.5" y="1187.3931">(ciphertext + key + IV)</text><line style="stroke:#000000;stroke-width:1.0;" x1="505.5" x2="547.5" y1="1269.3198" y2="1269.3198"/><line style="stroke:#000000;stroke-width:1.0;" x1="547.5" x2="547.5" y1="1269.3198" y2="1282.3198"/><line style="stroke:#000000;stroke-width:1.0;" x1="506.5" x2="547.5" y1="1282.3198" y2="1282.3198"/><polygon fill="#000000" points="516.5,1278.3198,506.5,1282.3198,516.5,1286.3198,512.5,1282.3198" style="stroke:#000000;stroke-width:1.0;"/><text fill="#000000" font-family="Verdana" font-size="13" lengthAdjust="spacing" textLength="144" x="512.5" y="1217.1924">19. Apply decryption:</text><text fill="#000000" font-family="Verdana" font-size="13" lengthAdjust="spacing" textLength="176" x="512.5" y="1232.9917">- Verify authentication tag</text><text fill="#000000" font-family="Verdana" font-size="13" lengthAdjust="spacing" textLength="157" x="512.5" y="1248.791">- Decrypt with AES-256</text><text fill="#000000" font-family="Verdana" font-size="13" lengthAdjust="spacing" textLength="126" x="512.5" y="1264.5903">- Validate integrity</text><path d="M23,1297.3198 L87,1297.3198 L87,1305.1191 L77,1315.1191 L23,1315.1191 L23,1297.3198 " fill="#FFFFFF" style="stroke:#000000;stroke-width:1.0;"/><rect fill="none" height="199.7632" style="stroke:#000000;stroke-width:1.0;" width="570" x="23" y="1297.3198"/><text fill="#000000" font-family="Verdana" font-size="13" font-weight="bold" lengthAdjust="spacing" textLength="19" x="38" y="1311.3896">alt</text><text fill="#000000" font-family="Verdana" font-size="11" font-weight="bold" lengthAdjust="spacing" textLength="149" x="102" y="1310.3789">[Decryption Successful]</text><polygon fill="#000000" points="297.5,1332.9185,287.5,1336.9185,297.5,1340.9185,293.5,1336.9185" style="stroke:#000000;stroke-width:1.0;"/><line style="stroke:#000000;stroke-width:1.0;stroke-dasharray:2.0,2.0;" x1="291.5" x2="494.5" y1="1336.9185" y2="1336.9185"/><text fill="#000000" font-family="Verdana" font-size="13" lengthAdjust="spacing" textLength="175" x="303.5" y="1332.189">20a. Return plaintext data</text><polygon fill="#000000" points="62.5,1378.5171,52.5,1382.5171,62.5,1386.5171,58.5,1382.5171" style="stroke:#000000;stroke-width:1.0;"/><line style="stroke:#000000;stroke-width:1.0;stroke-dasharray:2.0,2.0;" x1="56.5" x2="275.5" y1="1382.5171" y2="1382.5171"/><text fill="#000000" font-family="Verdana" font-size="13" lengthAdjust="spacing" textLength="188" x="68.5" y="1361.9883">21a. Display decrypted data</text><text fill="#000000" font-family="Verdana" font-size="13" lengthAdjust="spacing" textLength="134" x="68.5" y="1377.7876">(to authorized user)</text><line style="stroke:#000000;stroke-width:1.0;stroke-dasharray:2.0,2.0;" x1="23" x2="593" y1="1391.5171" y2="1391.5171"/><text fill="#000000" font-family="Verdana" font-size="11" font-weight="bold" lengthAdjust="spacing" textLength="120" x="28" y="1402.5762">[Decryption Failed]</text><polygon fill="#000000" points="297.5,1439.4844,287.5,1443.4844,297.5,1447.4844,293.5,1443.4844" style="stroke:#000000;stroke-width:1.0;"/><line style="stroke:#000000;stroke-width:1.0;stroke-dasharray:2.0,2.0;" x1="291.5" x2="494.5" y1="1443.4844" y2="1443.4844"/><text fill="#000000" font-family="Verdana" font-size="13" lengthAdjust="spacing" textLength="145" x="303.5" y="1422.9556">20b. Decryption error</text><text fill="#000000" font-family="Verdana" font-size="13" lengthAdjust="spacing" textLength="153" x="303.5" y="1438.7549">(integrity check failed)</text><polygon fill="#000000" points="62.5,1485.083,52.5,1489.083,62.5,1493.083,58.5,1489.083" style="stroke:#000000;stroke-width:1.0;"/><line style="stroke:#000000;stroke-width:1.0;stroke-dasharray:2.0,2.0;" x1="56.5" x2="275.5" y1="1489.083" y2="1489.083"/><text fill="#000000" font-family="Verdana" font-size="13" lengthAdjust="spacing" textLength="128" x="68.5" y="1468.5542">21b. Access denied</text><text fill="#000000" font-family="Verdana" font-size="13" lengthAdjust="spacing" textLength="176" x="68.5" y="1484.3535">(data corruption detected)</text><rect fill="#FFFFFF" height="3" style="stroke:#FFFFFF;stroke-width:1.0;" width="1418.5" x="5" y="1524.9827"/><line style="stroke:#000000;stroke-width:0.5;" x1="5" x2="1423.5" y1="1524.9827" y2="1524.9827"/><line style="stroke:#000000;stroke-width:0.5;" x1="5" x2="1423.5" y1="1527.9827" y2="1527.9827"/><rect fill="#FFFFFF" height="23.7993" style="stroke:#000000;stroke-width:1.0;" width="173" x="627.75" y="1514.083"/><text fill="#000000" font-family="Verdana" font-size="13" font-weight="bold" lengthAdjust="spacing" textLength="155" x="633.75" y="1531.1528">Key Rotation Process</text><line style="stroke:#000000;stroke-width:1.0;" x1="700.5" x2="747.5" y1="1580.481" y2="1580.481"/><line style="stroke:#000000;stroke-width:1.0;" x1="747.5" x2="747.5" y1="1580.481" y2="1593.481"/><line style="stroke:#000000;stroke-width:1.0;" x1="706.5" x2="747.5" y1="1593.481" y2="1593.481"/><polygon fill="#000000" points="716.5,1589.481,706.5,1593.481,716.5,1597.481,712.5,1593.481" style="stroke:#000000;stroke-width:1.0;"/><text fill="#000000" font-family="Verdana" font-size="13" lengthAdjust="spacing" textLength="180" x="712.5" y="1559.9521">22. Scheduled key rotation</text><text fill="#000000" font-family="Verdana" font-size="13" lengthAdjust="spacing" textLength="133" x="712.5" y="1575.7515">(monthly/quarterly)</text><line style="stroke:#000000;stroke-width:1.0;" x1="705.5" x2="747.5" y1="1644.0796" y2="1644.0796"/><line style="stroke:#000000;stroke-width:1.0;" x1="747.5" x2="747.5" y1="1644.0796" y2="1657.0796"/><line style="stroke:#000000;stroke-width:1.0;" x1="706.5" x2="747.5" y1="1657.0796" y2="1657.0796"/><polygon fill="#000000" points="716.5,1653.0796,706.5,1657.0796,716.5,1661.0796,712.5,1657.0796" style="stroke:#000000;stroke-width:1.0;"/><text fill="#000000" font-family="Verdana" font-size="13" lengthAdjust="spacing" textLength="223" x="712.5" y="1623.5508">23. Generate new encryption key</text><text fill="#000000" font-family="Verdana" font-size="13" lengthAdjust="spacing" textLength="223" x="712.5" y="1639.3501">(maintain old key for decryption)</text><polygon fill="#000000" points="297.5,1698.6782,287.5,1702.6782,297.5,1706.6782,293.5,1702.6782" style="stroke:#000000;stroke-width:1.0;"/><line style="stroke:#000000;stroke-width:1.0;" x1="291.5" x2="694.5" y1="1702.6782" y2="1702.6782"/><text fill="#000000" font-family="Verdana" font-size="13" lengthAdjust="spacing" textLength="152" x="303.5" y="1682.1494">24. Notify key rotation</text><text fill="#000000" font-family="Verdana" font-size="13" lengthAdjust="spacing" textLength="133" x="303.5" y="1697.9487">(new key available)</text><polygon fill="#000000" points="930.5,1744.2769,940.5,1748.2769,930.5,1752.2769,934.5,1748.2769" style="stroke:#000000;stroke-width:1.0;"/><line style="stroke:#000000;stroke-width:1.0;" x1="286.5" x2="936.5" y1="1748.2769" y2="1748.2769"/><text fill="#000000" font-family="Verdana" font-size="13" lengthAdjust="spacing" textLength="133" x="293.5" y="1727.748">25. Re-encrypt data</text><text fill="#000000" font-family="Verdana" font-size="13" lengthAdjust="spacing" textLength="244" x="293.5" y="1743.5474">(with new key, background process)</text><path d="M215.5,1763.2769 L291.5,1763.2769 L291.5,1771.0762 L281.5,1781.0762 L215.5,1781.0762 L215.5,1763.2769 " fill="#FFFFFF" style="stroke:#000000;stroke-width:1.0;"/><rect fill="none" height="182.5952" style="stroke:#000000;stroke-width:1.0;" width="815.5" x="215.5" y="1763.2769"/><text fill="#000000" font-family="Verdana" font-size="13" font-weight="bold" lengthAdjust="spacing" textLength="31" x="230.5" y="1777.3467">loop</text><text fill="#000000" font-family="Verdana" font-size="11" font-weight="bold" lengthAdjust="spacing" textLength="172" x="306.5" y="1776.3359">[For each encrypted record]</text><polygon fill="#000000" points="483.5,1798.8755,493.5,1802.8755,483.5,1806.8755,487.5,1802.8755" style="stroke:#000000;stroke-width:1.0;"/><line style="stroke:#000000;stroke-width:1.0;" x1="286.5" x2="489.5" y1="1802.8755" y2="1802.8755"/><text fill="#000000" font-family="Verdana" font-size="13" lengthAdjust="spacing" textLength="165" x="293.5" y="1798.146">26. Decrypt with old key</text><polygon fill="#000000" points="297.5,1828.6748,287.5,1832.6748,297.5,1836.6748,293.5,1832.6748" style="stroke:#000000;stroke-width:1.0;"/><line style="stroke:#000000;stroke-width:1.0;stroke-dasharray:2.0,2.0;" x1="291.5" x2="499.5" y1="1832.6748" y2="1832.6748"/><text fill="#000000" font-family="Verdana" font-size="13" lengthAdjust="spacing" textLength="118" x="303.5" y="1827.9453">27. Plaintext data</text><polygon fill="#000000" points="483.5,1858.4741,493.5,1862.4741,483.5,1866.4741,487.5,1862.4741" style="stroke:#000000;stroke-width:1.0;"/><line style="stroke:#000000;stroke-width:1.0;" x1="286.5" x2="489.5" y1="1862.4741" y2="1862.4741"/><text fill="#000000" font-family="Verdana" font-size="13" lengthAdjust="spacing" textLength="170" x="293.5" y="1857.7446">28. Encrypt with new key</text><polygon fill="#000000" points="297.5,1888.2734,287.5,1892.2734,297.5,1896.2734,293.5,1892.2734" style="stroke:#000000;stroke-width:1.0;"/><line style="stroke:#000000;stroke-width:1.0;stroke-dasharray:2.0,2.0;" x1="291.5" x2="499.5" y1="1892.2734" y2="1892.2734"/><text fill="#000000" font-family="Verdana" font-size="13" lengthAdjust="spacing" textLength="127" x="303.5" y="1887.5439">29. New ciphertext</text><polygon fill="#000000" points="930.5,1933.8721,940.5,1937.8721,930.5,1941.8721,934.5,1937.8721" style="stroke:#000000;stroke-width:1.0;"/><line style="stroke:#000000;stroke-width:1.0;" x1="286.5" x2="936.5" y1="1937.8721" y2="1937.8721"/><text fill="#000000" font-family="Verdana" font-size="13" lengthAdjust="spacing" textLength="121" x="293.5" y="1917.3433">30. Update record</text><text fill="#000000" font-family="Verdana" font-size="13" lengthAdjust="spacing" textLength="208" x="293.5" y="1933.1426">(new ciphertext + new key_id)</text><polygon fill="#000000" points="297.5,1970.6714,287.5,1974.6714,297.5,1978.6714,293.5,1974.6714" style="stroke:#000000;stroke-width:1.0;"/><line style="stroke:#000000;stroke-width:1.0;stroke-dasharray:2.0,2.0;" x1="291.5" x2="946.5" y1="1974.6714" y2="1974.6714"/><text fill="#000000" font-family="Verdana" font-size="13" lengthAdjust="spacing" textLength="193" x="303.5" y="1969.9419">31. Re-encryption completed</text><polygon fill="#000000" points="688.5,2016.27,698.5,2020.27,688.5,2024.27,692.5,2020.27" style="stroke:#000000;stroke-width:1.0;"/><line style="stroke:#000000;stroke-width:1.0;" x1="281.5" x2="694.5" y1="2020.27" y2="2020.27"/><text fill="#000000" font-family="Verdana" font-size="13" lengthAdjust="spacing" textLength="165" x="288.5" y="1999.7412">32. Confirm key rotation</text><text fill="#000000" font-family="Verdana" font-size="13" lengthAdjust="spacing" textLength="172" x="288.5" y="2015.5405">(old key can be archived)</text><rect fill="#FFFFFF" height="3" style="stroke:#FFFFFF;stroke-width:1.0;" width="1418.5" x="5" y="2049.1697"/><line style="stroke:#000000;stroke-width:0.5;" x1="5" x2="1423.5" y1="2049.1697" y2="2049.1697"/><line style="stroke:#000000;stroke-width:0.5;" x1="5" x2="1423.5" y1="2052.1697" y2="2052.1697"/><rect fill="#FFFFFF" height="23.7993" style="stroke:#000000;stroke-width:1.0;" width="153" x="637.75" y="2038.27"/><text fill="#000000" font-family="Verdana" font-size="13" font-weight="bold" lengthAdjust="spacing" textLength="135" x="643.75" y="2055.3398">Backup Encryption</text><polygon fill="#000000" points="963.5,2105.668,953.5,2109.668,963.5,2113.668,959.5,2109.668" style="stroke:#000000;stroke-width:1.0;"/><line style="stroke:#000000;stroke-width:1.0;" x1="957.5" x2="1174.5" y1="2109.668" y2="2109.668"/><text fill="#000000" font-family="Verdana" font-size="13" lengthAdjust="spacing" textLength="179" x="969.5" y="2089.1392">33. Backup encrypted data</text><text fill="#000000" font-family="Verdana" font-size="13" lengthAdjust="spacing" textLength="130" x="969.5" y="2104.9385">(scheduled backup)</text><polygon fill="#000000" points="1163.5,2151.2666,1173.5,2155.2666,1163.5,2159.2666,1167.5,2155.2666" style="stroke:#000000;stroke-width:1.0;"/><line style="stroke:#000000;stroke-width:1.0;stroke-dasharray:2.0,2.0;" x1="947.5" x2="1169.5" y1="2155.2666" y2="2155.2666"/><text fill="#000000" font-family="Verdana" font-size="13" lengthAdjust="spacing" textLength="199" x="954.5" y="2134.7378">34. Encrypted database dump</text><text fill="#000000" font-family="Verdana" font-size="13" lengthAdjust="spacing" textLength="171" x="954.5" y="2150.5371">(data remains encrypted)</text><line style="stroke:#000000;stroke-width:1.0;" x1="1185.5" x2="1227.5" y1="2200.8652" y2="2200.8652"/><line style="stroke:#000000;stroke-width:1.0;" x1="1227.5" x2="1227.5" y1="2200.8652" y2="2213.8652"/><line style="stroke:#000000;stroke-width:1.0;" x1="1186.5" x2="1227.5" y1="2213.8652" y2="2213.8652"/><polygon fill="#000000" points="1196.5,2209.8652,1186.5,2213.8652,1196.5,2217.8652,1192.5,2213.8652" style="stroke:#000000;stroke-width:1.0;"/><text fill="#000000" font-family="Verdana" font-size="13" lengthAdjust="spacing" textLength="219" x="1192.5" y="2180.3364">35. Additional backup encryption</text><text fill="#000000" font-family="Verdana" font-size="13" lengthAdjust="spacing" textLength="178" x="1192.5" y="2196.1357">(encrypt backup file itself)</text><line style="stroke:#000000;stroke-width:1.0;" x1="1185.5" x2="1227.5" y1="2264.4639" y2="2264.4639"/><line style="stroke:#000000;stroke-width:1.0;" x1="1227.5" x2="1227.5" y1="2264.4639" y2="2277.4639"/><line style="stroke:#000000;stroke-width:1.0;" x1="1180.5" x2="1227.5" y1="2277.4639" y2="2277.4639"/><polygon fill="#000000" points="1190.5,2273.4639,1180.5,2277.4639,1190.5,2281.4639,1186.5,2277.4639" style="stroke:#000000;stroke-width:1.0;"/><text fill="#000000" font-family="Verdana" font-size="13" lengthAdjust="spacing" textLength="185" x="1192.5" y="2243.9351">36. Store in secure location</text><text fill="#000000" font-family="Verdana" font-size="13" lengthAdjust="spacing" textLength="180" x="1192.5" y="2259.7344">(offsite, access-controlled)</text><path d="M505,2285.4639 L505,2373.4639 L811,2373.4639 L811,2295.4639 L801,2285.4639 L505,2285.4639 " fill="#FFFFFF" style="stroke:#000000;stroke-width:1.0;"/><path d="M801,2285.4639 L801,2295.4639 L811,2295.4639 L801,2285.4639 " fill="#FFFFFF" style="stroke:#000000;stroke-width:1.0;"/><text fill="#000000" font-family="Verdana" font-size="13" lengthAdjust="spacing" textLength="148" x="511" y="2303.5337">Encryption Standards:</text><text fill="#000000" font-family="Verdana" font-size="13" lengthAdjust="spacing" textLength="285" x="511" y="2319.333">- AES-256-GCM (authenticated encryption)</text><text fill="#000000" font-family="Verdana" font-size="13" lengthAdjust="spacing" textLength="216" x="511" y="2335.1323">- Unique IV/nonce per operation</text><text fill="#000000" font-family="Verdana" font-size="13" lengthAdjust="spacing" textLength="215" x="511" y="2350.9316">- HMAC for integrity verification</text><text fill="#000000" font-family="Verdana" font-size="13" lengthAdjust="spacing" textLength="245" x="511" y="2366.731">- Secure random number generation</text><path d="M705,2384.4604 L705,2488.4604 L968,2488.4604 L968,2394.4604 L958,2384.4604 L705,2384.4604 " fill="#FFFFFF" style="stroke:#000000;stroke-width:1.0;"/><path d="M958,2384.4604 L958,2394.4604 L968,2394.4604 L958,2384.4604 " fill="#FFFFFF" style="stroke:#000000;stroke-width:1.0;"/><text fill="#000000" font-family="Verdana" font-size="13" lengthAdjust="spacing" textLength="121" x="711" y="2402.5303">Key Management:</text><text fill="#000000" font-family="Verdana" font-size="13" lengthAdjust="spacing" textLength="242" x="711" y="2418.3296">- Hardware Security Modules (HSM)</text><text fill="#000000" font-family="Verdana" font-size="13" lengthAdjust="spacing" textLength="148" x="711" y="2434.1289">- Key rotation policies</text><text fill="#000000" font-family="Verdana" font-size="13" lengthAdjust="spacing" textLength="194" x="711" y="2449.9282">- Access control and auditing</text><text fill="#000000" font-family="Verdana" font-size="13" lengthAdjust="spacing" textLength="157" x="711" y="2465.7275">- Master key protection</text><text fill="#000000" font-family="Verdana" font-size="13" lengthAdjust="spacing" textLength="176" x="711" y="2481.5269">- Key escrow for recovery</text><path d="M676,2499.2563 L676,2603.2563 L942,2603.2563 L942,2509.2563 L932,2499.2563 L676,2499.2563 " fill="#FFFFFF" style="stroke:#000000;stroke-width:1.0;"/><path d="M932,2499.2563 L932,2509.2563 L942,2509.2563 L932,2499.2563 " fill="#FFFFFF" style="stroke:#000000;stroke-width:1.0;"/><text fill="#000000" font-family="Verdana" font-size="13" lengthAdjust="spacing" textLength="128" x="682" y="2517.3262">Database Security:</text><text fill="#000000" font-family="Verdana" font-size="13" lengthAdjust="spacing" textLength="245" x="682" y="2533.1255">- Transparent Data Encryption (TDE)</text><text fill="#000000" font-family="Verdana" font-size="13" lengthAdjust="spacing" textLength="174" x="682" y="2548.9248">- Column-level encryption</text><text fill="#000000" font-family="Verdana" font-size="13" lengthAdjust="spacing" textLength="160" x="682" y="2564.7241">- Encrypted tablespaces</text><text fill="#000000" font-family="Verdana" font-size="13" lengthAdjust="spacing" textLength="141" x="682" y="2580.5234">- Secure key storage</text><text fill="#000000" font-family="Verdana" font-size="13" lengthAdjust="spacing" textLength="109" x="682" y="2596.3228">- Access logging</text><!--SRC=[dLTjKnit4Fv-lsARJtYAdTWGaZ13EnH8O3Aa50BvafcCVBTdQxYJBfBErFtrtPLqRxP3C_s0iU-aHy- -FBkhNzmIIuIg458bJhe2uLmu0HSgDUlAIQr0EBX5w-36w1IjJHAHEctWnRr5ymA4XPg-99KmJgQo4ih1YzEgAcGgUBjV8QfgkA07VuTc9LFqw_n3FLpw4TTmBPHO44_wtL_-MDea8xPpOR75nCnRmC_yecm-nFj3f8zrDS2P-qT9ehH3q2iqtgJzvZa4b-309OPTWihMz0KiVP5EhX2O3csG5Yf3Q2dJmHKga3bOSXkP0ILcKl2IL9UqgfGMimHL1dn-afoSXFE-64bq_gpGU4V2oKcIC2yO_yOEFORf1ExgUIdTnlbVrTxDrTK-v589bKfHW5IvteTAMFkaJMP774Av4WJFaKdeemMTJU1153BpBucJ5OgG_y6lIgggTi70PWS5u1WE9fGVt-lWZzP5ZxWc7lJvJMRxPAbo-BVh7SonI-YZXJba66SaUUlb0XLRZH7bzE9kF7jzj04_YliRvgyzG6tKDWriK-D9kYMKmZhoeyV8S4WfMXOoyHYE9eqKjftiHSDcmQzRr5hGcD99-D-7VZC1ricwj_Vugnf3j7RyuUoQVtveV77ry59fbQ9VasKWQjAkSb5duCIYEwNnoTjDdv0B8dlImn9Df5-Y4_nyu8-6UdH9DZ-6TvHobCNu7Dm-D56_UkWvWdIOpJjcqrUJaEQi2eAnTShL9Q-BOjqdGTi20Th8sKyxAUyxLR262YGYp46hN9eol2W9ZTGsiCXdUwElMnJPi_AQTOcz5NjUwMtatz_Ski8VY8gzDYM9_5MZMM-xxSlbnUq5H3GuWT-VyTZXpmHpwFrTZenwcxxkpClm_-jsUjIh62O0-Zpc_W3aNgflbf0jF-DYBdoWeTBK8jO-cUkCQbYX5mkf5XkYdhvfZTuYIIMLDQ0DbQViFvKy9IsS1uYT4Y1C-Xoax8-rEttNYBTZvOr-G2FpzGvjyilcU5-4eipzfiPzN4uMLFRNnBvmpNhV9LjvK7S1sDJvx9Le_TILfTYC08O2carfyRcqjB3btwKImNPUzJj62HRKO7jitWjPKC_QpMG-wIz5OxJXO3McGRh4z15o3p7QIOyGJaEIPAYabpQJesmqfWwm6ORcEkB6cUoeMZjKpybtgrq8IPnclEpxwJmZrTyHnQmcUZufJDn2B4gImx9Ol_nUqqI1fbW_9umPgRujtWgVjjjIoO6YFz15E2gdkQfBg56B5pnB-l-a7QVN1Yq6vqTYHKuLy-AvMZJpiXz7BatGVKP6c33tB8okgVrNmKt3gfGKMbVmdiYIavUzQcIGGfHrCUq4CpkQ3DC_cXpMRiHkPrvH8RZPpkpjmFFJdGpUTgsyR-xFCo3DVw8zNTNuIGRizWDgT_TLh97if1YsGGcAZAZoDcdTA_y7qtxW1gtlkJ9_GFby5lhYPjeqMPSA1NFA59CkgSDbMnrpix2IbE8GtHlZMKTXNcvDfloFwxRwbMqL5lRqyYiEtGE3eX_2Aq8-R4CP8VqD8AlBgYaL1bbSjZjvgnTsP5jOaWODLfBjeQ5vFk0UNDR89hxBgOQ1T1QBVBGJyQYPbqZa5bEwB52VIzi0v3bD5RWVM-AOkwtHHR71Td0zCNAnTA3pBjdwTob78xkW2V-OdWycITZhjII-awYkol3IUoMfSxSp9lTjqCriv5TSNf-U-GBLLV8LDxlOu_oQks2Y8HQw15MNSuA9mpolwIuvGriuhG26DxrWmYLPyoG8qqFpeTUQ4yV2tkNTTU3-iPVMOQoGQ8C3GXU9VlNt6S731iyP_FwwlGWqrxN64iP4cnhzv6rcpPArwqqB2ioz0PHGq5uxMwx1XC_a3ajNKBwzRjwjzpwVNmGZpdHHbsfSqFMdw4N7l-jotN5r9x0q6XWTpWR4ssNVxcQaQad_2m00]--></g></svg>