<?xml version="1.0" encoding="us-ascii" standalone="no"?><svg xmlns="http://www.w3.org/2000/svg" xmlns:xlink="http://www.w3.org/1999/xlink" contentStyleType="text/css" height="1378px" preserveAspectRatio="none" style="width:839px;height:1378px;background:#FFFFFF;" version="1.1" viewBox="0 0 839 1378" width="839px" zoomAndPan="magnify"><defs/><g><text fill="#000000" font-family="Verdana" font-size="22" font-weight="bold" lengthAdjust="spacing" textLength="700" x="68" y="37.1182">HTTPS Secure Communication with SSL/TLS Handshake</text><rect fill="#FFFFFF" height="806.9795" style="stroke:#000000;stroke-width:1.0;" width="10" x="505.5" y="273.7485"/><rect fill="#FFFFFF" height="29.7993" style="stroke:#000000;stroke-width:1.0;" width="10" x="733.5" y="440.3438"/><line style="stroke:#000000;stroke-width:1.0;" x1="230" x2="230" y1="130.752" y2="1296.7212"/><line style="stroke:#000000;stroke-width:1.0;" x1="510.5" x2="510.5" y1="130.752" y2="1296.7212"/><line style="stroke:#000000;stroke-width:1.0;" x1="738" x2="738" y1="130.752" y2="1296.7212"/><text fill="#000000" font-family="Verdana" font-size="14" lengthAdjust="spacing" textLength="41" x="207" y="127.8125">Client</text><ellipse cx="230.5" cy="61.7373" fill="#FFFFFF" rx="8" ry="8" style="stroke:#000000;stroke-width:1.0;"/><path d="M230.5,69.7373 L230.5,96.7373 M217.5,77.7373 L243.5,77.7373 M230.5,96.7373 L217.5,111.7373 M230.5,96.7373 L243.5,111.7373 " fill="none" style="stroke:#000000;stroke-width:1.0;"/><text fill="#000000" font-family="Verdana" font-size="14" lengthAdjust="spacing" textLength="41" x="207" y="1309.7964">Client</text><ellipse cx="230.5" cy="1321.7358" fill="#FFFFFF" rx="8" ry="8" style="stroke:#000000;stroke-width:1.0;"/><path d="M230.5,1329.7358 L230.5,1356.7358 M217.5,1337.7358 L243.5,1337.7358 M230.5,1356.7358 L217.5,1371.7358 M230.5,1356.7358 L243.5,1371.7358 " fill="none" style="stroke:#000000;stroke-width:1.0;"/><rect fill="#FFFFFF" height="31.0146" rx="2.5" ry="2.5" style="stroke:#000000;stroke-width:1.0;" width="96" x="462.5" y="98.7373"/><text fill="#000000" font-family="Verdana" font-size="14" lengthAdjust="spacing" textLength="82" x="469.5" y="119.8125">Web Server</text><rect fill="#FFFFFF" height="31.0146" rx="2.5" ry="2.5" style="stroke:#000000;stroke-width:1.0;" width="96" x="462.5" y="1295.7212"/><text fill="#000000" font-family="Verdana" font-size="14" lengthAdjust="spacing" textLength="82" x="469.5" y="1316.7964">Web Server</text><rect fill="#FFFFFF" height="31.0146" rx="2.5" ry="2.5" style="stroke:#000000;stroke-width:1.0;" width="157" x="660" y="98.7373"/><text fill="#000000" font-family="Verdana" font-size="14" lengthAdjust="spacing" textLength="143" x="667" y="119.8125">Certificate Authority</text><rect fill="#FFFFFF" height="31.0146" rx="2.5" ry="2.5" style="stroke:#000000;stroke-width:1.0;" width="157" x="660" y="1295.7212"/><text fill="#000000" font-family="Verdana" font-size="14" lengthAdjust="spacing" textLength="143" x="667" y="1316.7964">Certificate Authority</text><rect fill="#FFFFFF" height="806.9795" style="stroke:#000000;stroke-width:1.0;" width="10" x="505.5" y="273.7485"/><rect fill="#FFFFFF" height="29.7993" style="stroke:#000000;stroke-width:1.0;" width="10" x="733.5" y="440.3438"/><path d="M177,145.752 L177,186.752 L792,186.752 L792,155.752 L782,145.752 L177,145.752 " fill="#FFFFFF" style="stroke:#000000;stroke-width:1.0;"/><path d="M782,145.752 L782,155.752 L792,155.752 L782,145.752 " fill="#FFFFFF" style="stroke:#000000;stroke-width:1.0;"/><text fill="#000000" font-family="Verdana" font-size="13" lengthAdjust="spacing" textLength="318" x="321" y="163.8218">HTTPS communication with SSL/TLS handshake</text><text fill="#000000" font-family="Verdana" font-size="13" lengthAdjust="spacing" textLength="230" x="321" y="179.6211">ensuring encrypted data exchange</text><rect fill="#FFFFFF" height="3" style="stroke:#FFFFFF;stroke-width:1.0;" width="827" x="5" y="213.2502"/><line style="stroke:#000000;stroke-width:0.5;" x1="5" x2="832" y1="213.2502" y2="213.2502"/><line style="stroke:#000000;stroke-width:0.5;" x1="5" x2="832" y1="216.2502" y2="216.2502"/><rect fill="#FFFFFF" height="23.7993" style="stroke:#000000;stroke-width:1.0;" width="165" x="336" y="202.3506"/><text fill="#000000" font-family="Verdana" font-size="13" font-weight="bold" lengthAdjust="spacing" textLength="147" x="342" y="219.4204">SSL/TLS Handshake</text><polygon fill="#000000" points="493.5,269.7485,503.5,273.7485,493.5,277.7485,497.5,273.7485" style="stroke:#000000;stroke-width:1.0;"/><line style="stroke:#000000;stroke-width:1.0;" x1="230.5" x2="499.5" y1="273.7485" y2="273.7485"/><text fill="#000000" font-family="Verdana" font-size="13" lengthAdjust="spacing" textLength="95" x="237.5" y="253.2197">1. Client Hello</text><text fill="#000000" font-family="Verdana" font-size="13" lengthAdjust="spacing" textLength="256" x="237.5" y="269.019">(supported cipher suites, TLS version)</text><polygon fill="#000000" points="241.5,315.3472,231.5,319.3472,241.5,323.3472,237.5,319.3472" style="stroke:#000000;stroke-width:1.0;"/><line style="stroke:#000000;stroke-width:1.0;stroke-dasharray:2.0,2.0;" x1="235.5" x2="504.5" y1="319.3472" y2="319.3472"/><text fill="#000000" font-family="Verdana" font-size="13" lengthAdjust="spacing" textLength="102" x="247.5" y="298.8184">2. Server Hello</text><text fill="#000000" font-family="Verdana" font-size="13" lengthAdjust="spacing" textLength="238" x="247.5" y="314.6177">(selected cipher suite, TLS version)</text><polygon fill="#000000" points="241.5,360.9458,231.5,364.9458,241.5,368.9458,237.5,364.9458" style="stroke:#000000;stroke-width:1.0;"/><line style="stroke:#000000;stroke-width:1.0;stroke-dasharray:2.0,2.0;" x1="235.5" x2="504.5" y1="364.9458" y2="364.9458"/><text fill="#000000" font-family="Verdana" font-size="13" lengthAdjust="spacing" textLength="87" x="247.5" y="344.417">3. Certificate</text><text fill="#000000" font-family="Verdana" font-size="13" lengthAdjust="spacing" textLength="167" x="247.5" y="360.2163">(server's SSL certificate)</text><polygon fill="#000000" points="241.5,390.7451,231.5,394.7451,241.5,398.7451,237.5,394.7451" style="stroke:#000000;stroke-width:1.0;"/><line style="stroke:#000000;stroke-width:1.0;stroke-dasharray:2.0,2.0;" x1="235.5" x2="504.5" y1="394.7451" y2="394.7451"/><text fill="#000000" font-family="Verdana" font-size="13" lengthAdjust="spacing" textLength="141" x="247.5" y="390.0156">4. Server Hello Done</text><polygon fill="#000000" points="721.5,436.3438,731.5,440.3438,721.5,444.3438,725.5,440.3438" style="stroke:#000000;stroke-width:1.0;"/><line style="stroke:#000000;stroke-width:1.0;" x1="230.5" x2="727.5" y1="440.3438" y2="440.3438"/><text fill="#000000" font-family="Verdana" font-size="13" lengthAdjust="spacing" textLength="130" x="237.5" y="419.8149">5. Verify certificate</text><text fill="#000000" font-family="Verdana" font-size="13" lengthAdjust="spacing" textLength="176" x="237.5" y="435.6143">(check certificate validity)</text><polygon fill="#000000" points="241.5,466.1431,231.5,470.1431,241.5,474.1431,237.5,470.1431" style="stroke:#000000;stroke-width:1.0;"/><line style="stroke:#000000;stroke-width:1.0;stroke-dasharray:2.0,2.0;" x1="235.5" x2="737.5" y1="470.1431" y2="470.1431"/><text fill="#000000" font-family="Verdana" font-size="13" lengthAdjust="spacing" textLength="124" x="247.5" y="465.4136">6. Certificate valid</text><line style="stroke:#000000;stroke-width:1.0;" x1="230.5" x2="272.5" y1="499.9424" y2="499.9424"/><line style="stroke:#000000;stroke-width:1.0;" x1="272.5" x2="272.5" y1="499.9424" y2="512.9424"/><line style="stroke:#000000;stroke-width:1.0;" x1="231.5" x2="272.5" y1="512.9424" y2="512.9424"/><polygon fill="#000000" points="241.5,508.9424,231.5,512.9424,241.5,516.9424,237.5,512.9424" style="stroke:#000000;stroke-width:1.0;"/><text fill="#000000" font-family="Verdana" font-size="13" lengthAdjust="spacing" textLength="205" x="237.5" y="495.2129">7. Generate pre-master secret</text><polygon fill="#000000" points="493.5,554.541,503.5,558.541,493.5,562.541,497.5,558.541" style="stroke:#000000;stroke-width:1.0;"/><line style="stroke:#000000;stroke-width:1.0;" x1="230.5" x2="499.5" y1="558.541" y2="558.541"/><text fill="#000000" font-family="Verdana" font-size="13" lengthAdjust="spacing" textLength="154" x="237.5" y="538.0122">8. Client Key Exchange</text><text fill="#000000" font-family="Verdana" font-size="13" lengthAdjust="spacing" textLength="204" x="237.5" y="553.8115">(encrypted pre-master secret)</text><polygon fill="#000000" points="493.5,584.3403,503.5,588.3403,493.5,592.3403,497.5,588.3403" style="stroke:#000000;stroke-width:1.0;"/><line style="stroke:#000000;stroke-width:1.0;" x1="230.5" x2="499.5" y1="588.3403" y2="588.3403"/><text fill="#000000" font-family="Verdana" font-size="13" lengthAdjust="spacing" textLength="152" x="237.5" y="583.6108">9. Change Cipher Spec</text><polygon fill="#000000" points="493.5,629.939,503.5,633.939,493.5,637.939,497.5,633.939" style="stroke:#000000;stroke-width:1.0;"/><line style="stroke:#000000;stroke-width:1.0;" x1="230.5" x2="499.5" y1="633.939" y2="633.939"/><text fill="#000000" font-family="Verdana" font-size="13" lengthAdjust="spacing" textLength="80" x="237.5" y="613.4102">10. Finished</text><text fill="#000000" font-family="Verdana" font-size="13" lengthAdjust="spacing" textLength="222" x="237.5" y="629.2095">(encrypted handshake summary)</text><line style="stroke:#000000;stroke-width:1.0;" x1="515.5" x2="557.5" y1="679.5376" y2="679.5376"/><line style="stroke:#000000;stroke-width:1.0;" x1="557.5" x2="557.5" y1="679.5376" y2="692.5376"/><line style="stroke:#000000;stroke-width:1.0;" x1="516.5" x2="557.5" y1="692.5376" y2="692.5376"/><polygon fill="#000000" points="526.5,688.5376,516.5,692.5376,526.5,696.5376,522.5,692.5376" style="stroke:#000000;stroke-width:1.0;"/><text fill="#000000" font-family="Verdana" font-size="13" lengthAdjust="spacing" textLength="204" x="522.5" y="659.0088">11. Decrypt pre-master secret</text><text fill="#000000" font-family="Verdana" font-size="13" lengthAdjust="spacing" textLength="151" x="522.5" y="674.8081">Generate session keys</text><polygon fill="#000000" points="241.5,718.3369,231.5,722.3369,241.5,726.3369,237.5,722.3369" style="stroke:#000000;stroke-width:1.0;"/><line style="stroke:#000000;stroke-width:1.0;stroke-dasharray:2.0,2.0;" x1="235.5" x2="504.5" y1="722.3369" y2="722.3369"/><text fill="#000000" font-family="Verdana" font-size="13" lengthAdjust="spacing" textLength="160" x="247.5" y="717.6074">12. Change Cipher Spec</text><polygon fill="#000000" points="241.5,763.9355,231.5,767.9355,241.5,771.9355,237.5,767.9355" style="stroke:#000000;stroke-width:1.0;"/><line style="stroke:#000000;stroke-width:1.0;stroke-dasharray:2.0,2.0;" x1="235.5" x2="504.5" y1="767.9355" y2="767.9355"/><text fill="#000000" font-family="Verdana" font-size="13" lengthAdjust="spacing" textLength="80" x="247.5" y="747.4067">13. Finished</text><text fill="#000000" font-family="Verdana" font-size="13" lengthAdjust="spacing" textLength="222" x="247.5" y="763.2061">(encrypted handshake summary)</text><rect fill="#FFFFFF" height="3" style="stroke:#FFFFFF;stroke-width:1.0;" width="827" x="5" y="796.8352"/><line style="stroke:#000000;stroke-width:0.5;" x1="5" x2="832" y1="796.8352" y2="796.8352"/><line style="stroke:#000000;stroke-width:0.5;" x1="5" x2="832" y1="799.8352" y2="799.8352"/><rect fill="#FFFFFF" height="23.7993" style="stroke:#000000;stroke-width:1.0;" width="205" x="316" y="785.9355"/><text fill="#000000" font-family="Verdana" font-size="13" font-weight="bold" lengthAdjust="spacing" textLength="187" x="322" y="803.0054">Encrypted Data Exchange</text><polygon fill="#000000" points="493.5,853.3335,503.5,857.3335,493.5,861.3335,497.5,857.3335" style="stroke:#000000;stroke-width:1.0;"/><line style="stroke:#000000;stroke-width:1.0;" x1="230.5" x2="499.5" y1="857.3335" y2="857.3335"/><text fill="#000000" font-family="Verdana" font-size="13" lengthAdjust="spacing" textLength="118" x="237.5" y="836.8047">14. HTTP Request</text><text fill="#000000" font-family="Verdana" font-size="13" lengthAdjust="spacing" textLength="194" x="237.5" y="852.604">(encrypted with session key)</text><line style="stroke:#000000;stroke-width:1.0;" x1="515.5" x2="557.5" y1="887.1328" y2="887.1328"/><line style="stroke:#000000;stroke-width:1.0;" x1="557.5" x2="557.5" y1="887.1328" y2="900.1328"/><line style="stroke:#000000;stroke-width:1.0;" x1="516.5" x2="557.5" y1="900.1328" y2="900.1328"/><polygon fill="#000000" points="526.5,896.1328,516.5,900.1328,526.5,904.1328,522.5,900.1328" style="stroke:#000000;stroke-width:1.0;"/><text fill="#000000" font-family="Verdana" font-size="13" lengthAdjust="spacing" textLength="132" x="522.5" y="882.4033">15. Process request</text><polygon fill="#000000" points="241.5,941.7314,231.5,945.7314,241.5,949.7314,237.5,945.7314" style="stroke:#000000;stroke-width:1.0;"/><line style="stroke:#000000;stroke-width:1.0;stroke-dasharray:2.0,2.0;" x1="235.5" x2="504.5" y1="945.7314" y2="945.7314"/><text fill="#000000" font-family="Verdana" font-size="13" lengthAdjust="spacing" textLength="128" x="247.5" y="925.2026">16. HTTP Response</text><text fill="#000000" font-family="Verdana" font-size="13" lengthAdjust="spacing" textLength="194" x="247.5" y="941.002">(encrypted with session key)</text><rect fill="#FFFFFF" height="3" style="stroke:#FFFFFF;stroke-width:1.0;" width="827" x="5" y="974.6311"/><line style="stroke:#000000;stroke-width:0.5;" x1="5" x2="832" y1="974.6311" y2="974.6311"/><line style="stroke:#000000;stroke-width:0.5;" x1="5" x2="832" y1="977.6311" y2="977.6311"/><rect fill="#FFFFFF" height="23.7993" style="stroke:#000000;stroke-width:1.0;" width="166" x="335.5" y="963.7314"/><text fill="#000000" font-family="Verdana" font-size="13" font-weight="bold" lengthAdjust="spacing" textLength="148" x="341.5" y="980.8013">Session Termination</text><polygon fill="#000000" points="493.5,1031.1294,503.5,1035.1294,493.5,1039.1294,497.5,1035.1294" style="stroke:#000000;stroke-width:1.0;"/><line style="stroke:#000000;stroke-width:1.0;" x1="230.5" x2="499.5" y1="1035.1294" y2="1035.1294"/><text fill="#000000" font-family="Verdana" font-size="13" lengthAdjust="spacing" textLength="107" x="237.5" y="1014.6006">17. Close Notify</text><text fill="#000000" font-family="Verdana" font-size="13" lengthAdjust="spacing" textLength="78" x="237.5" y="1030.3999">(encrypted)</text><polygon fill="#000000" points="241.5,1076.728,231.5,1080.728,241.5,1084.728,237.5,1080.728" style="stroke:#000000;stroke-width:1.0;"/><line style="stroke:#000000;stroke-width:1.0;stroke-dasharray:2.0,2.0;" x1="235.5" x2="509.5" y1="1080.728" y2="1080.728"/><text fill="#000000" font-family="Verdana" font-size="13" lengthAdjust="spacing" textLength="107" x="247.5" y="1060.1992">18. Close Notify</text><text fill="#000000" font-family="Verdana" font-size="13" lengthAdjust="spacing" textLength="78" x="247.5" y="1075.9985">(encrypted)</text><path d="M515,1093.728 L515,1181.728 L760,1181.728 L760,1103.728 L750,1093.728 L515,1093.728 " fill="#FFFFFF" style="stroke:#000000;stroke-width:1.0;"/><path d="M750,1093.728 L750,1103.728 L760,1103.728 L750,1093.728 " fill="#FFFFFF" style="stroke:#000000;stroke-width:1.0;"/><text fill="#000000" font-family="Verdana" font-size="13" lengthAdjust="spacing" textLength="119" x="521" y="1111.7979">Security benefits:</text><text fill="#000000" font-family="Verdana" font-size="13" lengthAdjust="spacing" textLength="141" x="521" y="1127.5972">- Data confidentiality</text><text fill="#000000" font-family="Verdana" font-size="13" lengthAdjust="spacing" textLength="103" x="521" y="1143.3965">- Data integrity</text><text fill="#000000" font-family="Verdana" font-size="13" lengthAdjust="spacing" textLength="155" x="521" y="1159.1958">- Server authentication</text><text fill="#000000" font-family="Verdana" font-size="13" lengthAdjust="spacing" textLength="224" x="521" y="1174.9951">- Protection against MITM attacks</text><path d="M10,1192.7246 L10,1280.7246 L226,1280.7246 L226,1202.7246 L216,1192.7246 L10,1192.7246 " fill="#FFFFFF" style="stroke:#000000;stroke-width:1.0;"/><path d="M216,1192.7246 L216,1202.7246 L226,1202.7246 L216,1192.7246 " fill="#FFFFFF" style="stroke:#000000;stroke-width:1.0;"/><text fill="#000000" font-family="Verdana" font-size="13" lengthAdjust="spacing" textLength="124" x="16" y="1210.7944">Client verification:</text><text fill="#000000" font-family="Verdana" font-size="13" lengthAdjust="spacing" textLength="190" x="16" y="1226.5938">- Certificate chain validation</text><text fill="#000000" font-family="Verdana" font-size="13" lengthAdjust="spacing" textLength="195" x="16" y="1242.3931">- Certificate expiration check</text><text fill="#000000" font-family="Verdana" font-size="13" lengthAdjust="spacing" textLength="158" x="16" y="1258.1924">- Hostname verification</text><text fill="#000000" font-family="Verdana" font-size="13" lengthAdjust="spacing" textLength="172" x="16" y="1273.9917">- Revocation status check</text><!--SRC=[bLNVRzCm47xFNt7i1P3MmZROHgKYeMvGn8QcjOANlNZEjR6Qsi6-bEM_vsodgRjb89xYdE- - - -wdNr21QuIg54fdfAX4cCxdDpEOeQmjmiIirxLMKf0o6duhAc0skteplvh1LEZS5MA5MIOa6Gi7arAXfWCG3cGuPfMmfAIgX2Ou-8dt36itQ8EA2yTzbGdopyAxG_XKKs6ieYO2YYpJXiM6ZLhuGo-5bh1ydcdHCGL0xMghz98FqZOLOGwv807u85bjYHdg7BoZB1kFdyOAut6MHUym-DZ6C8AZ8SJWOOfbQUxqArTNbR4UdcChcBAh5Q4x10_7DevPllQ9KniVR9kCB7vXmDZHomYEXstMTjXOedmC_GYv3-c4MUuI782ypaldumIvk-etVxTF12wCnZGPKepW_H1-e5MB9eLZJx90kKfbi16bohcwIHAucbBikJpTOnnjiXnJYvH0QtKsX2-eqNgDok9WBHpvDA6qI7tbE-_AzmqRk6nRWMdlckG9pki-e0yC56nX4aipgr3sDipR8NnMMha2ypq_NQzoLTThOPka5eavDzm51fkdpEvq5xr3vzi1LjYutfeU7VSpxbCz-G_AF3kNdSA57x1jLf-R8EukFyXmYxzgTBJd8Knp4aj_JhZtRgoHh0OsWlJ7STfvSfNH3l_bok-1LZ17krOwhfXduZZplMGSmdV3VTkauFrZTNJ-LukasxTB8kn1gvO5WLbifH1NDayKt7Fv5uhSY8M3c7rfz4Bbx4_n256pkr2QS6ctedQ-1QzUhnkNQRZXp18l7H-uMF9ZuGYklywlGH09kNB9sWpiIbm4Skqx0DlvslZbqE96UkbySuSe7QTyvpbLm8TAsPZ-i562mjGuqe9ViHGytDpYnhGFWYD1jMkjEh9_0000]--></g></svg>