<?xml version="1.0" encoding="us-ascii" standalone="no"?><svg xmlns="http://www.w3.org/2000/svg" xmlns:xlink="http://www.w3.org/1999/xlink" contentStyleType="text/css" height="1788px" preserveAspectRatio="none" style="width:1416px;height:1788px;background:#FFFFFF;" version="1.1" viewBox="0 0 1416 1788" width="1416px" zoomAndPan="magnify"><defs/><g><text fill="#000000" font-family="Verdana" font-size="22" font-weight="bold" lengthAdjust="spacing" textLength="408" x="502.5" y="37.1182">OAuth2 Authorization Code Flow</text><rect fill="#FFFFFF" height="45.5986" style="stroke:#000000;stroke-width:1.0;" width="10" x="567.5" y="290.7632"/><rect fill="#FFFFFF" height="539.7856" style="stroke:#000000;stroke-width:1.0;" width="10" x="567.5" y="699.3516"/><rect fill="#FFFFFF" height="45.5986" style="stroke:#000000;stroke-width:1.0;" width="10" x="567.5" y="1328.5352"/><rect fill="#FFFFFF" height="271.7925" style="stroke:#000000;stroke-width:1.0;" width="10" x="884.5" y="381.9604"/><rect fill="#FFFFFF" height="135.7959" style="stroke:#000000;stroke-width:1.0;" width="10" x="884.5" y="804.5488"/><rect fill="#FFFFFF" height="29.7993" style="stroke:#000000;stroke-width:1.0;" width="10" x="884.5" y="1075.3413"/><rect fill="#FFFFFF" height="45.5986" style="stroke:#000000;stroke-width:1.0;" width="10" x="884.5" y="1328.5352"/><rect fill="#FFFFFF" height="179.5952" style="stroke:#000000;stroke-width:1.0;" width="10" x="1132.5" y="1029.7427"/><line style="stroke:#000000;stroke-width:1.0;" x1="296" x2="296" y1="147.7666" y2="1689.1235"/><line style="stroke:#000000;stroke-width:1.0;" x1="572" x2="572" y1="147.7666" y2="1689.1235"/><line style="stroke:#000000;stroke-width:1.0;" x1="889" x2="889" y1="147.7666" y2="1689.1235"/><line style="stroke:#000000;stroke-width:1.0;" x1="1137.5" x2="1137.5" y1="147.7666" y2="1689.1235"/><text fill="#000000" font-family="Verdana" font-size="14" lengthAdjust="spacing" textLength="113" x="237" y="127.8125">Resource Owner</text><text fill="#000000" font-family="Verdana" font-size="14" lengthAdjust="spacing" textLength="43" x="272" y="144.8271">(User)</text><ellipse cx="296.5" cy="61.7373" fill="#FFFFFF" rx="8" ry="8" style="stroke:#000000;stroke-width:1.0;"/><path d="M296.5,69.7373 L296.5,96.7373 M283.5,77.7373 L309.5,77.7373 M296.5,96.7373 L283.5,111.7373 M296.5,96.7373 L309.5,111.7373 " fill="none" style="stroke:#000000;stroke-width:1.0;"/><text fill="#000000" font-family="Verdana" font-size="14" lengthAdjust="spacing" textLength="113" x="237" y="1702.1987">Resource Owner</text><text fill="#000000" font-family="Verdana" font-size="14" lengthAdjust="spacing" textLength="43" x="272" y="1719.2134">(User)</text><ellipse cx="296.5" cy="1731.1528" fill="#FFFFFF" rx="8" ry="8" style="stroke:#000000;stroke-width:1.0;"/><path d="M296.5,1739.1528 L296.5,1766.1528 M283.5,1747.1528 L309.5,1747.1528 M296.5,1766.1528 L283.5,1781.1528 M296.5,1766.1528 L309.5,1781.1528 " fill="none" style="stroke:#000000;stroke-width:1.0;"/><rect fill="#FFFFFF" height="48.0293" rx="2.5" ry="2.5" style="stroke:#000000;stroke-width:1.0;" width="139" x="503" y="98.7373"/><text fill="#000000" font-family="Verdana" font-size="14" lengthAdjust="spacing" textLength="124" x="510.5" y="119.8125">Client Application</text><text fill="#000000" font-family="Verdana" font-size="14" lengthAdjust="spacing" textLength="125" x="510" y="136.8271">(Third-party App)</text><rect fill="#FFFFFF" height="48.0293" rx="2.5" ry="2.5" style="stroke:#000000;stroke-width:1.0;" width="139" x="503" y="1688.1235"/><text fill="#000000" font-family="Verdana" font-size="14" lengthAdjust="spacing" textLength="124" x="510.5" y="1709.1987">Client Application</text><text fill="#000000" font-family="Verdana" font-size="14" lengthAdjust="spacing" textLength="125" x="510" y="1726.2134">(Third-party App)</text><rect fill="#FFFFFF" height="48.0293" rx="2.5" ry="2.5" style="stroke:#000000;stroke-width:1.0;" width="159" x="810" y="98.7373"/><text fill="#000000" font-family="Verdana" font-size="14" lengthAdjust="spacing" textLength="145" x="817" y="119.8125">Authorization Server</text><text fill="#000000" font-family="Verdana" font-size="14" lengthAdjust="spacing" textLength="119" x="830" y="136.8271">(OAuth Provider)</text><rect fill="#FFFFFF" height="48.0293" rx="2.5" ry="2.5" style="stroke:#000000;stroke-width:1.0;" width="159" x="810" y="1688.1235"/><text fill="#000000" font-family="Verdana" font-size="14" lengthAdjust="spacing" textLength="145" x="817" y="1709.1987">Authorization Server</text><text fill="#000000" font-family="Verdana" font-size="14" lengthAdjust="spacing" textLength="119" x="830" y="1726.2134">(OAuth Provider)</text><rect fill="#FFFFFF" height="48.0293" rx="2.5" ry="2.5" style="stroke:#000000;stroke-width:1.0;" width="128" x="1073.5" y="98.7373"/><text fill="#000000" font-family="Verdana" font-size="14" lengthAdjust="spacing" textLength="114" x="1080.5" y="119.8125">Resource Server</text><text fill="#000000" font-family="Verdana" font-size="14" lengthAdjust="spacing" textLength="87" x="1094" y="136.8271">(API Server)</text><rect fill="#FFFFFF" height="48.0293" rx="2.5" ry="2.5" style="stroke:#000000;stroke-width:1.0;" width="128" x="1073.5" y="1688.1235"/><text fill="#000000" font-family="Verdana" font-size="14" lengthAdjust="spacing" textLength="114" x="1080.5" y="1709.1987">Resource Server</text><text fill="#000000" font-family="Verdana" font-size="14" lengthAdjust="spacing" textLength="87" x="1094" y="1726.2134">(API Server)</text><rect fill="#FFFFFF" height="45.5986" style="stroke:#000000;stroke-width:1.0;" width="10" x="567.5" y="290.7632"/><rect fill="#FFFFFF" height="539.7856" style="stroke:#000000;stroke-width:1.0;" width="10" x="567.5" y="699.3516"/><rect fill="#FFFFFF" height="45.5986" style="stroke:#000000;stroke-width:1.0;" width="10" x="567.5" y="1328.5352"/><rect fill="#FFFFFF" height="271.7925" style="stroke:#000000;stroke-width:1.0;" width="10" x="884.5" y="381.9604"/><rect fill="#FFFFFF" height="135.7959" style="stroke:#000000;stroke-width:1.0;" width="10" x="884.5" y="804.5488"/><rect fill="#FFFFFF" height="29.7993" style="stroke:#000000;stroke-width:1.0;" width="10" x="884.5" y="1075.3413"/><rect fill="#FFFFFF" height="45.5986" style="stroke:#000000;stroke-width:1.0;" width="10" x="884.5" y="1328.5352"/><rect fill="#FFFFFF" height="179.5952" style="stroke:#000000;stroke-width:1.0;" width="10" x="1132.5" y="1029.7427"/><path d="M232,162.7666 L232,203.7666 L1201,203.7666 L1201,172.7666 L1191,162.7666 L232,162.7666 " fill="#FFFFFF" style="stroke:#000000;stroke-width:1.0;"/><path d="M1191,162.7666 L1191,172.7666 L1201,172.7666 L1191,162.7666 " fill="#FFFFFF" style="stroke:#000000;stroke-width:1.0;"/><text fill="#000000" font-family="Verdana" font-size="13" lengthAdjust="spacing" textLength="345" x="539.75" y="180.8364">OAuth2 Authorization Code Flow - most secure flow</text><text fill="#000000" font-family="Verdana" font-size="13" lengthAdjust="spacing" textLength="334" x="539.75" y="196.6357">for web applications with server-side components</text><rect fill="#FFFFFF" height="3" style="stroke:#FFFFFF;stroke-width:1.0;" width="1404" x="5" y="230.2649"/><line style="stroke:#000000;stroke-width:0.5;" x1="5" x2="1409" y1="230.2649" y2="230.2649"/><line style="stroke:#000000;stroke-width:0.5;" x1="5" x2="1409" y1="233.2649" y2="233.2649"/><rect fill="#FFFFFF" height="23.7993" style="stroke:#000000;stroke-width:1.0;" width="180" x="617" y="219.3652"/><text fill="#000000" font-family="Verdana" font-size="13" font-weight="bold" lengthAdjust="spacing" textLength="162" x="623" y="236.4351">Authorization Request</text><polygon fill="#000000" points="555.5,286.7632,565.5,290.7632,555.5,294.7632,559.5,290.7632" style="stroke:#000000;stroke-width:1.0;"/><line style="stroke:#000000;stroke-width:1.0;" x1="296.5" x2="561.5" y1="290.7632" y2="290.7632"/><text fill="#000000" font-family="Verdana" font-size="13" lengthAdjust="spacing" textLength="160" x="303.5" y="270.2344">1. User wants to access</text><text fill="#000000" font-family="Verdana" font-size="13" lengthAdjust="spacing" textLength="126" x="303.5" y="286.0337">protected resource</text><polygon fill="#000000" points="307.5,332.3618,297.5,336.3618,307.5,340.3618,303.5,336.3618" style="stroke:#000000;stroke-width:1.0;"/><line style="stroke:#000000;stroke-width:1.0;stroke-dasharray:2.0,2.0;" x1="301.5" x2="571.5" y1="336.3618" y2="336.3618"/><text fill="#000000" font-family="Verdana" font-size="13" lengthAdjust="spacing" textLength="231" x="313.5" y="315.833">2. Redirect to authorization server</text><text fill="#000000" font-family="Verdana" font-size="13" lengthAdjust="spacing" textLength="247" x="313.5" y="331.6323">(client_id, redirect_uri, scope, state)</text><polygon fill="#000000" points="872.5,377.9604,882.5,381.9604,872.5,385.9604,876.5,381.9604" style="stroke:#000000;stroke-width:1.0;"/><line style="stroke:#000000;stroke-width:1.0;" x1="296.5" x2="878.5" y1="381.9604" y2="381.9604"/><text fill="#000000" font-family="Verdana" font-size="13" lengthAdjust="spacing" textLength="161" x="303.5" y="361.4316">3. Authorization request</text><text fill="#000000" font-family="Verdana" font-size="13" lengthAdjust="spacing" textLength="273" x="303.5" y="377.231">(GET /authorize?client_id=...&amp;scope=...)</text><polygon fill="#000000" points="307.5,423.5591,297.5,427.5591,307.5,431.5591,303.5,427.5591" style="stroke:#000000;stroke-width:1.0;"/><line style="stroke:#000000;stroke-width:1.0;stroke-dasharray:2.0,2.0;" x1="301.5" x2="883.5" y1="427.5591" y2="427.5591"/><text fill="#000000" font-family="Verdana" font-size="13" lengthAdjust="spacing" textLength="128" x="313.5" y="407.0303">4. Show login page</text><text fill="#000000" font-family="Verdana" font-size="13" lengthAdjust="spacing" textLength="142" x="313.5" y="422.8296">(if not authenticated)</text><polygon fill="#000000" points="872.5,469.1577,882.5,473.1577,872.5,477.1577,876.5,473.1577" style="stroke:#000000;stroke-width:1.0;"/><line style="stroke:#000000;stroke-width:1.0;" x1="296.5" x2="878.5" y1="473.1577" y2="473.1577"/><text fill="#000000" font-family="Verdana" font-size="13" lengthAdjust="spacing" textLength="86" x="303.5" y="452.6289">5. User login</text><text fill="#000000" font-family="Verdana" font-size="13" lengthAdjust="spacing" textLength="151" x="303.5" y="468.4282">(username, password)</text><polygon fill="#000000" points="307.5,514.7563,297.5,518.7563,307.5,522.7563,303.5,518.7563" style="stroke:#000000;stroke-width:1.0;"/><line style="stroke:#000000;stroke-width:1.0;stroke-dasharray:2.0,2.0;" x1="301.5" x2="883.5" y1="518.7563" y2="518.7563"/><text fill="#000000" font-family="Verdana" font-size="13" lengthAdjust="spacing" textLength="147" x="313.5" y="498.2275">6. Show consent page</text><text fill="#000000" font-family="Verdana" font-size="13" lengthAdjust="spacing" textLength="187" x="313.5" y="514.0269">("App X wants to access Y")</text><polygon fill="#000000" points="872.5,560.355,882.5,564.355,872.5,568.355,876.5,564.355" style="stroke:#000000;stroke-width:1.0;"/><line style="stroke:#000000;stroke-width:1.0;" x1="296.5" x2="878.5" y1="564.355" y2="564.355"/><text fill="#000000" font-family="Verdana" font-size="13" lengthAdjust="spacing" textLength="174" x="303.5" y="543.8262">7. User grants permission</text><text fill="#000000" font-family="Verdana" font-size="13" lengthAdjust="spacing" textLength="104" x="303.5" y="559.6255">(approve/deny)</text><rect fill="#FFFFFF" height="3" style="stroke:#FFFFFF;stroke-width:1.0;" width="1404" x="5" y="593.2546"/><line style="stroke:#000000;stroke-width:0.5;" x1="5" x2="1409" y1="593.2546" y2="593.2546"/><line style="stroke:#000000;stroke-width:0.5;" x1="5" x2="1409" y1="596.2546" y2="596.2546"/><rect fill="#FFFFFF" height="23.7993" style="stroke:#000000;stroke-width:1.0;" width="191" x="611.5" y="582.355"/><text fill="#000000" font-family="Verdana" font-size="13" font-weight="bold" lengthAdjust="spacing" textLength="173" x="617.5" y="599.4248">Authorization Response</text><polygon fill="#000000" points="307.5,649.7529,297.5,653.7529,307.5,657.7529,303.5,653.7529" style="stroke:#000000;stroke-width:1.0;"/><line style="stroke:#000000;stroke-width:1.0;stroke-dasharray:2.0,2.0;" x1="301.5" x2="888.5" y1="653.7529" y2="653.7529"/><text fill="#000000" font-family="Verdana" font-size="13" lengthAdjust="spacing" textLength="132" x="313.5" y="633.2241">8. Redirect to client</text><text fill="#000000" font-family="Verdana" font-size="13" lengthAdjust="spacing" textLength="181" x="313.5" y="649.0234">(code=ABC123&amp;state=xyz)</text><polygon fill="#000000" points="555.5,695.3516,565.5,699.3516,555.5,703.3516,559.5,699.3516" style="stroke:#000000;stroke-width:1.0;"/><line style="stroke:#000000;stroke-width:1.0;" x1="296.5" x2="561.5" y1="699.3516" y2="699.3516"/><text fill="#000000" font-family="Verdana" font-size="13" lengthAdjust="spacing" textLength="142" x="303.5" y="678.8228">9. Authorization code</text><text fill="#000000" font-family="Verdana" font-size="13" lengthAdjust="spacing" textLength="89" x="303.5" y="694.6221">(via redirect)</text><rect fill="#FFFFFF" height="3" style="stroke:#FFFFFF;stroke-width:1.0;" width="1404" x="5" y="728.2512"/><line style="stroke:#000000;stroke-width:0.5;" x1="5" x2="1409" y1="728.2512" y2="728.2512"/><line style="stroke:#000000;stroke-width:0.5;" x1="5" x2="1409" y1="731.2512" y2="731.2512"/><rect fill="#FFFFFF" height="23.7993" style="stroke:#000000;stroke-width:1.0;" width="138" x="638" y="717.3516"/><text fill="#000000" font-family="Verdana" font-size="13" font-weight="bold" lengthAdjust="spacing" textLength="120" x="644" y="734.4214">Token Exchange</text><polygon fill="#000000" points="872.5,800.5488,882.5,804.5488,872.5,808.5488,876.5,804.5488" style="stroke:#000000;stroke-width:1.0;"/><line style="stroke:#000000;stroke-width:1.0;" x1="577.5" x2="878.5" y1="804.5488" y2="804.5488"/><text fill="#000000" font-family="Verdana" font-size="13" lengthAdjust="spacing" textLength="191" x="584.5" y="768.2207">10. Exchange code for token</text><text fill="#000000" font-family="Verdana" font-size="13" lengthAdjust="spacing" textLength="95" x="584.5" y="784.02">(POST /token)</text><text fill="#000000" font-family="Verdana" font-size="13" lengthAdjust="spacing" textLength="204" x="584.5" y="799.8193">(code, client_id, client_secret)</text><line style="stroke:#000000;stroke-width:1.0;" x1="894.5" x2="936.5" y1="881.7461" y2="881.7461"/><line style="stroke:#000000;stroke-width:1.0;" x1="936.5" x2="936.5" y1="881.7461" y2="894.7461"/><line style="stroke:#000000;stroke-width:1.0;" x1="895.5" x2="936.5" y1="894.7461" y2="894.7461"/><polygon fill="#000000" points="905.5,890.7461,895.5,894.7461,905.5,898.7461,901.5,894.7461" style="stroke:#000000;stroke-width:1.0;"/><text fill="#000000" font-family="Verdana" font-size="13" lengthAdjust="spacing" textLength="86" x="901.5" y="829.6187">11. Validate:</text><text fill="#000000" font-family="Verdana" font-size="13" lengthAdjust="spacing" textLength="135" x="901.5" y="845.418">- Authorization code</text><text fill="#000000" font-family="Verdana" font-size="13" lengthAdjust="spacing" textLength="127" x="901.5" y="861.2173">- Client credentials</text><text fill="#000000" font-family="Verdana" font-size="13" lengthAdjust="spacing" textLength="95" x="901.5" y="877.0166">- Redirect URI</text><polygon fill="#000000" points="588.5,936.3447,578.5,940.3447,588.5,944.3447,584.5,940.3447" style="stroke:#000000;stroke-width:1.0;"/><line style="stroke:#000000;stroke-width:1.0;stroke-dasharray:2.0,2.0;" x1="582.5" x2="888.5" y1="940.3447" y2="940.3447"/><text fill="#000000" font-family="Verdana" font-size="13" lengthAdjust="spacing" textLength="178" x="594.5" y="919.8159">12. Access token response</text><text fill="#000000" font-family="Verdana" font-size="13" lengthAdjust="spacing" textLength="283" x="594.5" y="935.6152">(access_token, refresh_token, expires_in)</text><rect fill="#FFFFFF" height="3" style="stroke:#FFFFFF;stroke-width:1.0;" width="1404" x="5" y="969.2444"/><line style="stroke:#000000;stroke-width:0.5;" x1="5" x2="1409" y1="969.2444" y2="969.2444"/><line style="stroke:#000000;stroke-width:0.5;" x1="5" x2="1409" y1="972.2444" y2="972.2444"/><rect fill="#FFFFFF" height="23.7993" style="stroke:#000000;stroke-width:1.0;" width="141" x="636.5" y="958.3447"/><text fill="#000000" font-family="Verdana" font-size="13" font-weight="bold" lengthAdjust="spacing" textLength="123" x="642.5" y="975.4146">Resource Access</text><polygon fill="#000000" points="1120.5,1025.7427,1130.5,1029.7427,1120.5,1033.7427,1124.5,1029.7427" style="stroke:#000000;stroke-width:1.0;"/><line style="stroke:#000000;stroke-width:1.0;" x1="577.5" x2="1126.5" y1="1029.7427" y2="1029.7427"/><text fill="#000000" font-family="Verdana" font-size="13" lengthAdjust="spacing" textLength="103" x="584.5" y="1009.2139">13. API request</text><text fill="#000000" font-family="Verdana" font-size="13" lengthAdjust="spacing" textLength="272" x="584.5" y="1025.0132">(Authorization: Bearer &lt;access_token&gt;)</text><polygon fill="#000000" points="905.5,1071.3413,895.5,1075.3413,905.5,1079.3413,901.5,1075.3413" style="stroke:#000000;stroke-width:1.0;"/><line style="stroke:#000000;stroke-width:1.0;" x1="899.5" x2="1131.5" y1="1075.3413" y2="1075.3413"/><text fill="#000000" font-family="Verdana" font-size="13" lengthAdjust="spacing" textLength="171" x="911.5" y="1054.8125">14. Validate access token</text><text fill="#000000" font-family="Verdana" font-size="13" lengthAdjust="spacing" textLength="219" x="911.5" y="1070.6118">(introspection or JWT validation)</text><polygon fill="#000000" points="1120.5,1101.1406,1130.5,1105.1406,1120.5,1109.1406,1124.5,1105.1406" style="stroke:#000000;stroke-width:1.0;"/><line style="stroke:#000000;stroke-width:1.0;stroke-dasharray:2.0,2.0;" x1="889.5" x2="1126.5" y1="1105.1406" y2="1105.1406"/><text fill="#000000" font-family="Verdana" font-size="13" lengthAdjust="spacing" textLength="192" x="896.5" y="1100.4111">15. Token valid + scope info</text><line style="stroke:#000000;stroke-width:1.0;" x1="1142.5" x2="1184.5" y1="1150.7393" y2="1150.7393"/><line style="stroke:#000000;stroke-width:1.0;" x1="1184.5" x2="1184.5" y1="1150.7393" y2="1163.7393"/><line style="stroke:#000000;stroke-width:1.0;" x1="1143.5" x2="1184.5" y1="1163.7393" y2="1163.7393"/><polygon fill="#000000" points="1153.5,1159.7393,1143.5,1163.7393,1153.5,1167.7393,1149.5,1163.7393" style="stroke:#000000;stroke-width:1.0;"/><text fill="#000000" font-family="Verdana" font-size="13" lengthAdjust="spacing" textLength="151" x="1149.5" y="1130.2104">16. Check permissions</text><text fill="#000000" font-family="Verdana" font-size="13" lengthAdjust="spacing" textLength="204" x="1149.5" y="1146.0098">(scope vs requested resource)</text><polygon fill="#000000" points="588.5,1205.3379,578.5,1209.3379,588.5,1213.3379,584.5,1209.3379" style="stroke:#000000;stroke-width:1.0;"/><line style="stroke:#000000;stroke-width:1.0;stroke-dasharray:2.0,2.0;" x1="582.5" x2="1136.5" y1="1209.3379" y2="1209.3379"/><text fill="#000000" font-family="Verdana" font-size="13" lengthAdjust="spacing" textLength="186" x="594.5" y="1188.8091">17. Protected resource data</text><text fill="#000000" font-family="Verdana" font-size="13" lengthAdjust="spacing" textLength="112" x="594.5" y="1204.6084">(JSON response)</text><polygon fill="#000000" points="307.5,1235.1372,297.5,1239.1372,307.5,1243.1372,303.5,1239.1372" style="stroke:#000000;stroke-width:1.0;"/><line style="stroke:#000000;stroke-width:1.0;stroke-dasharray:2.0,2.0;" x1="301.5" x2="571.5" y1="1239.1372" y2="1239.1372"/><text fill="#000000" font-family="Verdana" font-size="13" lengthAdjust="spacing" textLength="161" x="313.5" y="1234.4077">18. Display data to user</text><rect fill="#FFFFFF" height="3" style="stroke:#FFFFFF;stroke-width:1.0;" width="1404" x="5" y="1268.0369"/><line style="stroke:#000000;stroke-width:0.5;" x1="5" x2="1409" y1="1268.0369" y2="1268.0369"/><line style="stroke:#000000;stroke-width:0.5;" x1="5" x2="1409" y1="1271.0369" y2="1271.0369"/><rect fill="#FFFFFF" height="23.7993" style="stroke:#000000;stroke-width:1.0;" width="202" x="606" y="1257.1372"/><text fill="#000000" font-family="Verdana" font-size="13" font-weight="bold" lengthAdjust="spacing" textLength="184" x="612" y="1274.207">Token Refresh (Optional)</text><polygon fill="#000000" points="872.5,1324.5352,882.5,1328.5352,872.5,1332.5352,876.5,1328.5352" style="stroke:#000000;stroke-width:1.0;"/><line style="stroke:#000000;stroke-width:1.0;" x1="577.5" x2="878.5" y1="1328.5352" y2="1328.5352"/><text fill="#000000" font-family="Verdana" font-size="13" lengthAdjust="spacing" textLength="174" x="584.5" y="1308.0063">19. Refresh token request</text><text fill="#000000" font-family="Verdana" font-size="13" lengthAdjust="spacing" textLength="266" x="584.5" y="1323.8057">(refresh_token, client_id, client_secret)</text><polygon fill="#000000" points="583.5,1370.1338,573.5,1374.1338,583.5,1378.1338,579.5,1374.1338" style="stroke:#000000;stroke-width:1.0;"/><line style="stroke:#000000;stroke-width:1.0;stroke-dasharray:2.0,2.0;" x1="577.5" x2="888.5" y1="1374.1338" y2="1374.1338"/><text fill="#000000" font-family="Verdana" font-size="13" lengthAdjust="spacing" textLength="146" x="589.5" y="1353.605">20. New access token</text><text fill="#000000" font-family="Verdana" font-size="13" lengthAdjust="spacing" textLength="180" x="589.5" y="1369.4043">(access_token, expires_in)</text><path d="M894,1387.1338 L894,1475.1338 L1198,1475.1338 L1198,1397.1338 L1188,1387.1338 L894,1387.1338 " fill="#FFFFFF" style="stroke:#000000;stroke-width:1.0;"/><path d="M1188,1387.1338 L1188,1397.1338 L1198,1397.1338 L1188,1387.1338 " fill="#FFFFFF" style="stroke:#000000;stroke-width:1.0;"/><text fill="#000000" font-family="Verdana" font-size="13" lengthAdjust="spacing" textLength="123" x="900" y="1405.2036">Security Features:</text><text fill="#000000" font-family="Verdana" font-size="13" lengthAdjust="spacing" textLength="283" x="900" y="1421.0029">- Short-lived authorization codes (10 min)</text><text fill="#000000" font-family="Verdana" font-size="13" lengthAdjust="spacing" textLength="209" x="900" y="1436.8022">- Client authentication required</text><text fill="#000000" font-family="Verdana" font-size="13" lengthAdjust="spacing" textLength="223" x="900" y="1452.6016">- State parameter prevents CSRF</text><text fill="#000000" font-family="Verdana" font-size="13" lengthAdjust="spacing" textLength="230" x="900" y="1468.4009">- PKCE extension for public clients</text><path d="M1142,1486.1304 L1142,1574.1304 L1404,1574.1304 L1404,1496.1304 L1394,1486.1304 L1142,1486.1304 " fill="#FFFFFF" style="stroke:#000000;stroke-width:1.0;"/><path d="M1394,1486.1304 L1394,1496.1304 L1404,1496.1304 L1394,1486.1304 " fill="#FFFFFF" style="stroke:#000000;stroke-width:1.0;"/><text fill="#000000" font-family="Verdana" font-size="13" lengthAdjust="spacing" textLength="117" x="1148" y="1504.2002">Resource Server:</text><text fill="#000000" font-family="Verdana" font-size="13" lengthAdjust="spacing" textLength="170" x="1148" y="1519.9995">- Validates access tokens</text><text fill="#000000" font-family="Verdana" font-size="13" lengthAdjust="spacing" textLength="241" x="1148" y="1535.7988">- Enforces scope-based permissions</text><text fill="#000000" font-family="Verdana" font-size="13" lengthAdjust="spacing" textLength="164" x="1148" y="1551.5981">- Rate limiting per client</text><text fill="#000000" font-family="Verdana" font-size="13" lengthAdjust="spacing" textLength="165" x="1148" y="1567.3975">- Audit logging of access</text><path d="M10,1585.127 L10,1673.127 L292,1673.127 L292,1595.127 L282,1585.127 L10,1585.127 " fill="#FFFFFF" style="stroke:#000000;stroke-width:1.0;"/><path d="M282,1585.127 L282,1595.127 L292,1595.127 L282,1585.127 " fill="#FFFFFF" style="stroke:#000000;stroke-width:1.0;"/><text fill="#000000" font-family="Verdana" font-size="13" lengthAdjust="spacing" textLength="96" x="16" y="1603.1968">User Benefits:</text><text fill="#000000" font-family="Verdana" font-size="13" lengthAdjust="spacing" textLength="261" x="16" y="1618.9961">- No password sharing with third-party</text><text fill="#000000" font-family="Verdana" font-size="13" lengthAdjust="spacing" textLength="198" x="16" y="1634.7954">- Granular permission control</text><text fill="#000000" font-family="Verdana" font-size="13" lengthAdjust="spacing" textLength="195" x="16" y="1650.5947">- Can revoke access anytime</text><text fill="#000000" font-family="Verdana" font-size="13" lengthAdjust="spacing" textLength="203" x="16" y="1666.394">- Transparent consent process</text><!--SRC=[ZLPRRzis57xNhpZpGn5ZiLkdNRSQSmV7IufsG18uwIv0W82HQ9keJ6eaRSVzzVqEAIcIx5rUP9ayr-yx5ttdLt8jgSY5qebNFfTqFTturHdnqrZrLNXbDCrC9kaoDxia4QatbdfpwSp6ff3VQMdlzSbd9ss_HyBH1cz98QnNgIg4zjIRvKhYTreKkKg3HIZShPJD1YotvvkecmR9jdOxb5jfjy5X29HkhDcgh78jSDHMhkEizQOt7yi_fKwXaaGRBydWB4H_6WxfFx2W0QsDy-Hakh6I5WmFqGBexEGZBDJ9EjefXEg2qu53k9IQTM4qKdM9r1cn-oIPJ3gkvlBlZOI7oIH9E2uQl2yH6jDeI0mvxP2c8sz8fAbqxbuN5iPIBpEoPUxCcTeAP5Z2cyHV6i0UsntJsH3ECcMX66ormd0LT57jGMMdi1sb7pPMdP9BJI7nu-6adsJom64LFHiUq-jX9r4R4uMB3nTtzB9oBt-fFKw6m-6Bu8RV-iyf1SeJVZRIUJEasnKOoirIQIh4KiAqMZ3EGG4scHkPzRkX_L326ZIXnBTQh95S8PpR6Sig7MzlIsyfg6POItyzL3NzsIM8_keTEFsnTBgqGRQGTgsSYss2EaA9ovUPrFl-qHfn1ViDHT89xASsgn5CvX4bF9cUpqPdhry4pYPF-wyjtYAgtPfxr-MD3S7ULecw8Fg7rOQOxymNgUdYALq9lOonLZLOWJ1wDNmMOCEXbJmhmiNDzIqA8_phbncSKgCUorVqefN-7ygZzeJU-LtaAeF0-5uFZYOre79gmM36zI9onwSre9_d7nk0rss9Jff6eaEmt8I17wOod3-4S-wW1UvMrL_vLC2kUr3w2150i1vafVKEX8M2R-uhJBVdRcebDgPpAImO_RaPoFicM3mAyMX0zUOPggg0AqgKzjQu0bWmQk3gqnztj8t2EEcIK4CLOqMZnQ886lHzd26azC8Svb_553JHRhELJByq-WJCd4JzhQlIRmp0VccXoHDwxkPWKX925x3rwVRwgcQkpGT3T30-H-YqNvN37jq74znjOGqU6OLrDynZ0T39TS5uYRn_l2_U3MlHggGgVZirz7_xuI2cWp8-GpDUoLsNydO5_rl97aayx5YhbYjFPX6b29iOorFX4-1I2eyrwiOu7F0yjNwGgot84GVTwUXaz8hMx9U5oqPj3FPgfo2yBDhZAOV1R37AFLgWi7BBsvTcj_FB877ps-m26NcfkQ32x2asZrZXPVpDHTt997mhT3uqOXfLwxWMa2xSNQ3I8UzYuGyUXKEkZP8EGdCEErThvPLUycs59bzEDvdolAcMVCcH12VTG7Ev2766WgIuQSwbbWlbIxIlJBtToAs4PNFXayK_VwC5mGzOK9jSs4QSlFKm1_B8X63SjqYoIbZelLTh6MxleErWB4pLQbTQquxv6m00]--></g></svg>