<?xml version="1.0" encoding="us-ascii" standalone="no"?><svg xmlns="http://www.w3.org/2000/svg" xmlns:xlink="http://www.w3.org/1999/xlink" contentStyleType="text/css" height="1969px" preserveAspectRatio="none" style="width:1616px;height:1969px;background:#FFFFFF;" version="1.1" viewBox="0 0 1616 1969" width="1616px" zoomAndPan="magnify"><defs/><g><text fill="#000000" font-family="Verdana" font-size="22" font-weight="bold" lengthAdjust="spacing" textLength="530" x="541.5" y="37.1182">Role-Based Access Control (RBAC) System</text><rect fill="#FFFFFF" height="1110.5386" style="stroke:#000000;stroke-width:1.0;" width="10" x="512.5" y="273.7485"/><rect fill="#FFFFFF" height="120.9966" style="stroke:#000000;stroke-width:1.0;" width="10" x="774.5" y="303.5479"/><rect fill="#FFFFFF" height="824.7461" style="stroke:#000000;stroke-width:1.0;" width="10" x="774.5" y="559.541"/><rect fill="#FFFFFF" height="59.5986" style="stroke:#000000;stroke-width:1.0;" width="10" x="774.5" y="1465.6851"/><rect fill="#FFFFFF" height="735.3481" style="stroke:#000000;stroke-width:1.0;" width="10" x="982.5" y="648.939"/><rect fill="#FFFFFF" height="45.5986" style="stroke:#000000;stroke-width:1.0;" width="10" x="1218.5" y="333.3472"/><rect fill="#FFFFFF" height="45.5986" style="stroke:#000000;stroke-width:1.0;" width="10" x="1218.5" y="694.5376"/><rect fill="#FFFFFF" height="45.5986" style="stroke:#000000;stroke-width:1.0;" width="10" x="1335" y="785.7349"/><rect fill="#FFFFFF" height="45.5986" style="stroke:#000000;stroke-width:1.0;" width="10" x="1473.5" y="876.9321"/><rect fill="#FFFFFF" height="29.7993" style="stroke:#000000;stroke-width:1.0;" width="10" x="1473.5" y="1495.4844"/><rect fill="#FFFFFF" height="349.5591" style="stroke:#000000;stroke-width:1.0;" width="806" x="255" y="1027.728"/><rect fill="#FFFFFF" height="152.1646" style="stroke:none;stroke-width:1.0;" width="806" x="255" y="1225.1226"/><line style="stroke:#000000;stroke-width:1.0;" x1="283" x2="283" y1="130.752" y2="1887.6714"/><line style="stroke:#000000;stroke-width:1.0;" x1="517.5" x2="517.5" y1="130.752" y2="1887.6714"/><line style="stroke:#000000;stroke-width:1.0;" x1="779.5" x2="779.5" y1="130.752" y2="1887.6714"/><line style="stroke:#000000;stroke-width:1.0;" x1="987" x2="987" y1="130.752" y2="1887.6714"/><line style="stroke:#000000;stroke-width:1.0;" x1="1223" x2="1223" y1="130.752" y2="1887.6714"/><line style="stroke:#000000;stroke-width:1.0;" x1="1340" x2="1340" y1="130.752" y2="1887.6714"/><line style="stroke:#000000;stroke-width:1.0;" x1="1478" x2="1478" y1="130.752" y2="1887.6714"/><text fill="#000000" font-family="Verdana" font-size="14" lengthAdjust="spacing" textLength="31" x="265" y="127.8125">User</text><ellipse cx="283.5" cy="61.7373" fill="#FFFFFF" rx="8" ry="8" style="stroke:#000000;stroke-width:1.0;"/><path d="M283.5,69.7373 L283.5,96.7373 M270.5,77.7373 L296.5,77.7373 M283.5,96.7373 L270.5,111.7373 M283.5,96.7373 L296.5,111.7373 " fill="none" style="stroke:#000000;stroke-width:1.0;"/><text fill="#000000" font-family="Verdana" font-size="14" lengthAdjust="spacing" textLength="31" x="265" y="1900.7466">User</text><ellipse cx="283.5" cy="1912.686" fill="#FFFFFF" rx="8" ry="8" style="stroke:#000000;stroke-width:1.0;"/><path d="M283.5,1920.686 L283.5,1947.686 M270.5,1928.686 L296.5,1928.686 M283.5,1947.686 L270.5,1962.686 M283.5,1947.686 L296.5,1962.686 " fill="none" style="stroke:#000000;stroke-width:1.0;"/><rect fill="#FFFFFF" height="31.0146" rx="2.5" ry="2.5" style="stroke:#000000;stroke-width:1.0;" width="92" x="471.5" y="98.7373"/><text fill="#000000" font-family="Verdana" font-size="14" lengthAdjust="spacing" textLength="78" x="478.5" y="119.8125">Application</text><rect fill="#FFFFFF" height="31.0146" rx="2.5" ry="2.5" style="stroke:#000000;stroke-width:1.0;" width="92" x="471.5" y="1886.6714"/><text fill="#000000" font-family="Verdana" font-size="14" lengthAdjust="spacing" textLength="78" x="478.5" y="1907.7466">Application</text><rect fill="#FFFFFF" height="31.0146" rx="2.5" ry="2.5" style="stroke:#000000;stroke-width:1.0;" width="164" x="697.5" y="98.7373"/><text fill="#000000" font-family="Verdana" font-size="14" lengthAdjust="spacing" textLength="150" x="704.5" y="119.8125">Authorization Service</text><rect fill="#FFFFFF" height="31.0146" rx="2.5" ry="2.5" style="stroke:#000000;stroke-width:1.0;" width="164" x="697.5" y="1886.6714"/><text fill="#000000" font-family="Verdana" font-size="14" lengthAdjust="spacing" textLength="150" x="704.5" y="1907.7466">Authorization Service</text><rect fill="#FFFFFF" height="31.0146" rx="2.5" ry="2.5" style="stroke:#000000;stroke-width:1.0;" width="107" x="934" y="98.7373"/><text fill="#000000" font-family="Verdana" font-size="14" lengthAdjust="spacing" textLength="93" x="941" y="119.8125">RBAC Engine</text><rect fill="#FFFFFF" height="31.0146" rx="2.5" ry="2.5" style="stroke:#000000;stroke-width:1.0;" width="107" x="934" y="1886.6714"/><text fill="#000000" font-family="Verdana" font-size="14" lengthAdjust="spacing" textLength="93" x="941" y="1907.7466">RBAC Engine</text><text fill="#000000" font-family="Verdana" font-size="14" lengthAdjust="spacing" textLength="101" x="1170" y="127.8125">User Database</text><path d="M1205.5,77.7373 C1205.5,67.7373 1223.5,67.7373 1223.5,67.7373 C1223.5,67.7373 1241.5,67.7373 1241.5,77.7373 L1241.5,103.7373 C1241.5,113.7373 1223.5,113.7373 1223.5,113.7373 C1223.5,113.7373 1205.5,113.7373 1205.5,103.7373 L1205.5,77.7373 " fill="#FFFFFF" style="stroke:#000000;stroke-width:1.5;"/><path d="M1205.5,77.7373 C1205.5,87.7373 1223.5,87.7373 1223.5,87.7373 C1223.5,87.7373 1241.5,87.7373 1241.5,77.7373 " fill="none" style="stroke:#000000;stroke-width:1.5;"/><text fill="#000000" font-family="Verdana" font-size="14" lengthAdjust="spacing" textLength="101" x="1170" y="1900.7466">User Database</text><path d="M1205.5,1913.686 C1205.5,1903.686 1223.5,1903.686 1223.5,1903.686 C1223.5,1903.686 1241.5,1903.686 1241.5,1913.686 L1241.5,1939.686 C1241.5,1949.686 1223.5,1949.686 1223.5,1949.686 C1223.5,1949.686 1205.5,1949.686 1205.5,1939.686 L1205.5,1913.686 " fill="#FFFFFF" style="stroke:#000000;stroke-width:1.5;"/><path d="M1205.5,1913.686 C1205.5,1923.686 1223.5,1923.686 1223.5,1923.686 C1223.5,1923.686 1241.5,1923.686 1241.5,1913.686 " fill="none" style="stroke:#000000;stroke-width:1.5;"/><text fill="#000000" font-family="Verdana" font-size="14" lengthAdjust="spacing" textLength="100" x="1287" y="127.8125">Role Database</text><path d="M1322,77.7373 C1322,67.7373 1340,67.7373 1340,67.7373 C1340,67.7373 1358,67.7373 1358,77.7373 L1358,103.7373 C1358,113.7373 1340,113.7373 1340,113.7373 C1340,113.7373 1322,113.7373 1322,103.7373 L1322,77.7373 " fill="#FFFFFF" style="stroke:#000000;stroke-width:1.5;"/><path d="M1322,77.7373 C1322,87.7373 1340,87.7373 1340,87.7373 C1340,87.7373 1358,87.7373 1358,77.7373 " fill="none" style="stroke:#000000;stroke-width:1.5;"/><text fill="#000000" font-family="Verdana" font-size="14" lengthAdjust="spacing" textLength="100" x="1287" y="1900.7466">Role Database</text><path d="M1322,1913.686 C1322,1903.686 1340,1903.686 1340,1903.686 C1340,1903.686 1358,1903.686 1358,1913.686 L1358,1939.686 C1358,1949.686 1340,1949.686 1340,1949.686 C1340,1949.686 1322,1949.686 1322,1939.686 L1322,1913.686 " fill="#FFFFFF" style="stroke:#000000;stroke-width:1.5;"/><path d="M1322,1913.686 C1322,1923.686 1340,1923.686 1340,1923.686 C1340,1923.686 1358,1923.686 1358,1913.686 " fill="none" style="stroke:#000000;stroke-width:1.5;"/><text fill="#000000" font-family="Verdana" font-size="14" lengthAdjust="spacing" textLength="145" x="1403" y="127.8125">Permission Database</text><path d="M1460.5,77.7373 C1460.5,67.7373 1478.5,67.7373 1478.5,67.7373 C1478.5,67.7373 1496.5,67.7373 1496.5,77.7373 L1496.5,103.7373 C1496.5,113.7373 1478.5,113.7373 1478.5,113.7373 C1478.5,113.7373 1460.5,113.7373 1460.5,103.7373 L1460.5,77.7373 " fill="#FFFFFF" style="stroke:#000000;stroke-width:1.5;"/><path d="M1460.5,77.7373 C1460.5,87.7373 1478.5,87.7373 1478.5,87.7373 C1478.5,87.7373 1496.5,87.7373 1496.5,77.7373 " fill="none" style="stroke:#000000;stroke-width:1.5;"/><text fill="#000000" font-family="Verdana" font-size="14" lengthAdjust="spacing" textLength="145" x="1403" y="1900.7466">Permission Database</text><path d="M1460.5,1913.686 C1460.5,1903.686 1478.5,1903.686 1478.5,1903.686 C1478.5,1903.686 1496.5,1903.686 1496.5,1913.686 L1496.5,1939.686 C1496.5,1949.686 1478.5,1949.686 1478.5,1949.686 C1478.5,1949.686 1460.5,1949.686 1460.5,1939.686 L1460.5,1913.686 " fill="#FFFFFF" style="stroke:#000000;stroke-width:1.5;"/><path d="M1460.5,1913.686 C1460.5,1923.686 1478.5,1923.686 1478.5,1923.686 C1478.5,1923.686 1496.5,1923.686 1496.5,1913.686 " fill="none" style="stroke:#000000;stroke-width:1.5;"/><rect fill="#FFFFFF" height="1110.5386" style="stroke:#000000;stroke-width:1.0;" width="10" x="512.5" y="273.7485"/><rect fill="#FFFFFF" height="120.9966" style="stroke:#000000;stroke-width:1.0;" width="10" x="774.5" y="303.5479"/><rect fill="#FFFFFF" height="824.7461" style="stroke:#000000;stroke-width:1.0;" width="10" x="774.5" y="559.541"/><rect fill="#FFFFFF" height="59.5986" style="stroke:#000000;stroke-width:1.0;" width="10" x="774.5" y="1465.6851"/><rect fill="#FFFFFF" height="735.3481" style="stroke:#000000;stroke-width:1.0;" width="10" x="982.5" y="648.939"/><rect fill="#FFFFFF" height="45.5986" style="stroke:#000000;stroke-width:1.0;" width="10" x="1218.5" y="333.3472"/><rect fill="#FFFFFF" height="45.5986" style="stroke:#000000;stroke-width:1.0;" width="10" x="1218.5" y="694.5376"/><rect fill="#FFFFFF" height="45.5986" style="stroke:#000000;stroke-width:1.0;" width="10" x="1335" y="785.7349"/><rect fill="#FFFFFF" height="45.5986" style="stroke:#000000;stroke-width:1.0;" width="10" x="1473.5" y="876.9321"/><rect fill="#FFFFFF" height="29.7993" style="stroke:#000000;stroke-width:1.0;" width="10" x="1473.5" y="1495.4844"/><path d="M239,145.752 L239,186.752 L1523,186.752 L1523,155.752 L1513,145.752 L239,145.752 " fill="#FFFFFF" style="stroke:#000000;stroke-width:1.0;"/><path d="M1513,145.752 L1513,155.752 L1523,155.752 L1513,145.752 " fill="#FFFFFF" style="stroke:#000000;stroke-width:1.0;"/><text fill="#000000" font-family="Verdana" font-size="13" lengthAdjust="spacing" textLength="309" x="710" y="163.8218">RBAC system where users are assigned roles,</text><text fill="#000000" font-family="Verdana" font-size="13" lengthAdjust="spacing" textLength="333" x="710" y="179.6211">and roles have specific permissions for resources</text><rect fill="#FFFFFF" height="3" style="stroke:#FFFFFF;stroke-width:1.0;" width="1604" x="5" y="213.2502"/><line style="stroke:#000000;stroke-width:0.5;" x1="5" x2="1609" y1="213.2502" y2="213.2502"/><line style="stroke:#000000;stroke-width:0.5;" x1="5" x2="1609" y1="216.2502" y2="216.2502"/><rect fill="#FFFFFF" height="23.7993" style="stroke:#000000;stroke-width:1.0;" width="163" x="725.5" y="202.3506"/><text fill="#000000" font-family="Verdana" font-size="13" font-weight="bold" lengthAdjust="spacing" textLength="145" x="731.5" y="219.4204">User Authentication</text><polygon fill="#000000" points="500.5,269.7485,510.5,273.7485,500.5,277.7485,504.5,273.7485" style="stroke:#000000;stroke-width:1.0;"/><line style="stroke:#000000;stroke-width:1.0;" x1="283.5" x2="506.5" y1="273.7485" y2="273.7485"/><text fill="#000000" font-family="Verdana" font-size="13" lengthAdjust="spacing" textLength="108" x="290.5" y="253.2197">1. Login request</text><text fill="#000000" font-family="Verdana" font-size="13" lengthAdjust="spacing" textLength="151" x="290.5" y="269.019">(username, password)</text><polygon fill="#000000" points="762.5,299.5479,772.5,303.5479,762.5,307.5479,766.5,303.5479" style="stroke:#000000;stroke-width:1.0;"/><line style="stroke:#000000;stroke-width:1.0;" x1="522.5" x2="768.5" y1="303.5479" y2="303.5479"/><text fill="#000000" font-family="Verdana" font-size="13" lengthAdjust="spacing" textLength="135" x="529.5" y="298.8184">2. Authenticate user</text><polygon fill="#000000" points="1206.5,329.3472,1216.5,333.3472,1206.5,337.3472,1210.5,333.3472" style="stroke:#000000;stroke-width:1.0;"/><line style="stroke:#000000;stroke-width:1.0;" x1="784.5" x2="1212.5" y1="333.3472" y2="333.3472"/><text fill="#000000" font-family="Verdana" font-size="13" lengthAdjust="spacing" textLength="150" x="791.5" y="328.6177">3. Validate credentials</text><polygon fill="#000000" points="795.5,374.9458,785.5,378.9458,795.5,382.9458,791.5,378.9458" style="stroke:#000000;stroke-width:1.0;"/><line style="stroke:#000000;stroke-width:1.0;stroke-dasharray:2.0,2.0;" x1="789.5" x2="1222.5" y1="378.9458" y2="378.9458"/><text fill="#000000" font-family="Verdana" font-size="13" lengthAdjust="spacing" textLength="144" x="801.5" y="358.417">4. User authenticated</text><text fill="#000000" font-family="Verdana" font-size="13" lengthAdjust="spacing" textLength="149" x="801.5" y="374.2163">(user_id, active roles)</text><polygon fill="#000000" points="533.5,420.5444,523.5,424.5444,533.5,428.5444,529.5,424.5444" style="stroke:#000000;stroke-width:1.0;"/><line style="stroke:#000000;stroke-width:1.0;stroke-dasharray:2.0,2.0;" x1="527.5" x2="778.5" y1="424.5444" y2="424.5444"/><text fill="#000000" font-family="Verdana" font-size="13" lengthAdjust="spacing" textLength="186" x="539.5" y="404.0156">5. Authentication successful</text><text fill="#000000" font-family="Verdana" font-size="13" lengthAdjust="spacing" textLength="165" x="539.5" y="419.8149">(user_id, session_token)</text><rect fill="#FFFFFF" height="3" style="stroke:#FFFFFF;stroke-width:1.0;" width="1604" x="5" y="453.4441"/><line style="stroke:#000000;stroke-width:0.5;" x1="5" x2="1609" y1="453.4441" y2="453.4441"/><line style="stroke:#000000;stroke-width:0.5;" x1="5" x2="1609" y1="456.4441" y2="456.4441"/><rect fill="#FFFFFF" height="23.7993" style="stroke:#000000;stroke-width:1.0;" width="205" x="704.5" y="442.5444"/><text fill="#000000" font-family="Verdana" font-size="13" font-weight="bold" lengthAdjust="spacing" textLength="187" x="710.5" y="459.6143">Resource Access Request</text><polygon fill="#000000" points="500.5,509.9424,510.5,513.9424,500.5,517.9424,504.5,513.9424" style="stroke:#000000;stroke-width:1.0;"/><line style="stroke:#000000;stroke-width:1.0;" x1="283.5" x2="506.5" y1="513.9424" y2="513.9424"/><text fill="#000000" font-family="Verdana" font-size="13" lengthAdjust="spacing" textLength="201" x="290.5" y="493.4136">6. Request access to resource</text><text fill="#000000" font-family="Verdana" font-size="13" lengthAdjust="spacing" textLength="205" x="290.5" y="509.2129">(e.g., "view financial reports")</text><polygon fill="#000000" points="762.5,555.541,772.5,559.541,762.5,563.541,766.5,559.541" style="stroke:#000000;stroke-width:1.0;"/><line style="stroke:#000000;stroke-width:1.0;" x1="522.5" x2="768.5" y1="559.541" y2="559.541"/><text fill="#000000" font-family="Verdana" font-size="13" lengthAdjust="spacing" textLength="149" x="529.5" y="539.0122">7. Authorization check</text><text fill="#000000" font-family="Verdana" font-size="13" lengthAdjust="spacing" textLength="179" x="529.5" y="554.8115">(user_id, resource, action)</text><rect fill="#FFFFFF" height="3" style="stroke:#FFFFFF;stroke-width:1.0;" width="1604" x="5" y="588.4407"/><line style="stroke:#000000;stroke-width:0.5;" x1="5" x2="1609" y1="588.4407" y2="588.4407"/><line style="stroke:#000000;stroke-width:0.5;" x1="5" x2="1609" y1="591.4407" y2="591.4407"/><rect fill="#FFFFFF" height="23.7993" style="stroke:#000000;stroke-width:1.0;" width="190" x="712" y="577.541"/><text fill="#000000" font-family="Verdana" font-size="13" font-weight="bold" lengthAdjust="spacing" textLength="172" x="718" y="594.6108">RBAC Permission Check</text><polygon fill="#000000" points="970.5,644.939,980.5,648.939,970.5,652.939,974.5,648.939" style="stroke:#000000;stroke-width:1.0;"/><line style="stroke:#000000;stroke-width:1.0;" x1="784.5" x2="976.5" y1="648.939" y2="648.939"/><text fill="#000000" font-family="Verdana" font-size="13" lengthAdjust="spacing" textLength="177" x="791.5" y="628.4102">8. Check user permissions</text><text fill="#000000" font-family="Verdana" font-size="13" lengthAdjust="spacing" textLength="179" x="791.5" y="644.2095">(user_id, resource, action)</text><polygon fill="#000000" points="1206.5,690.5376,1216.5,694.5376,1206.5,698.5376,1210.5,694.5376" style="stroke:#000000;stroke-width:1.0;"/><line style="stroke:#000000;stroke-width:1.0;" x1="992.5" x2="1212.5" y1="694.5376" y2="694.5376"/><text fill="#000000" font-family="Verdana" font-size="13" lengthAdjust="spacing" textLength="113" x="999.5" y="674.0088">9. Get user roles</text><text fill="#000000" font-family="Verdana" font-size="13" lengthAdjust="spacing" textLength="61" x="999.5" y="689.8081">(user_id)</text><polygon fill="#000000" points="1003.5,736.1362,993.5,740.1362,1003.5,744.1362,999.5,740.1362" style="stroke:#000000;stroke-width:1.0;"/><line style="stroke:#000000;stroke-width:1.0;stroke-dasharray:2.0,2.0;" x1="997.5" x2="1222.5" y1="740.1362" y2="740.1362"/><text fill="#000000" font-family="Verdana" font-size="13" lengthAdjust="spacing" textLength="95" x="1009.5" y="719.6074">10. User roles</text><text fill="#000000" font-family="Verdana" font-size="13" lengthAdjust="spacing" textLength="202" x="1009.5" y="735.4067">(["manager", "finance_user"])</text><polygon fill="#000000" points="1323,781.7349,1333,785.7349,1323,789.7349,1327,785.7349" style="stroke:#000000;stroke-width:1.0;"/><line style="stroke:#000000;stroke-width:1.0;" x1="992.5" x2="1329" y1="785.7349" y2="785.7349"/><text fill="#000000" font-family="Verdana" font-size="13" lengthAdjust="spacing" textLength="165" x="999.5" y="765.2061">11. Get role permissions</text><text fill="#000000" font-family="Verdana" font-size="13" lengthAdjust="spacing" textLength="90" x="999.5" y="781.0054">(role_names)</text><polygon fill="#000000" points="1003.5,827.3335,993.5,831.3335,1003.5,835.3335,999.5,831.3335" style="stroke:#000000;stroke-width:1.0;"/><line style="stroke:#000000;stroke-width:1.0;stroke-dasharray:2.0,2.0;" x1="997.5" x2="1339" y1="831.3335" y2="831.3335"/><text fill="#000000" font-family="Verdana" font-size="13" lengthAdjust="spacing" textLength="129" x="1009.5" y="810.8047">12. Role definitions</text><text fill="#000000" font-family="Verdana" font-size="13" lengthAdjust="spacing" textLength="260" x="1009.5" y="826.604">(role hierarchy, inherited permissions)</text><polygon fill="#000000" points="1461.5,872.9321,1471.5,876.9321,1461.5,880.9321,1465.5,876.9321" style="stroke:#000000;stroke-width:1.0;"/><line style="stroke:#000000;stroke-width:1.0;" x1="992.5" x2="1467.5" y1="876.9321" y2="876.9321"/><text fill="#000000" font-family="Verdana" font-size="13" lengthAdjust="spacing" textLength="206" x="999.5" y="856.4033">13. Check specific permissions</text><text fill="#000000" font-family="Verdana" font-size="13" lengthAdjust="spacing" textLength="163" x="999.5" y="872.2026">(roles, resource, action)</text><polygon fill="#000000" points="1003.5,918.5308,993.5,922.5308,1003.5,926.5308,999.5,922.5308" style="stroke:#000000;stroke-width:1.0;"/><line style="stroke:#000000;stroke-width:1.0;stroke-dasharray:2.0,2.0;" x1="997.5" x2="1477.5" y1="922.5308" y2="922.5308"/><text fill="#000000" font-family="Verdana" font-size="13" lengthAdjust="spacing" textLength="142" x="1009.5" y="902.002">14. Permission result</text><text fill="#000000" font-family="Verdana" font-size="13" lengthAdjust="spacing" textLength="179" x="1009.5" y="917.8013">(allowed/denied + reason)</text><line style="stroke:#000000;stroke-width:1.0;" x1="992.5" x2="1034.5" y1="999.728" y2="999.728"/><line style="stroke:#000000;stroke-width:1.0;" x1="1034.5" x2="1034.5" y1="999.728" y2="1012.728"/><line style="stroke:#000000;stroke-width:1.0;" x1="993.5" x2="1034.5" y1="1012.728" y2="1012.728"/><polygon fill="#000000" points="1003.5,1008.728,993.5,1012.728,1003.5,1016.728,999.5,1012.728" style="stroke:#000000;stroke-width:1.0;"/><text fill="#000000" font-family="Verdana" font-size="13" lengthAdjust="spacing" textLength="148" x="999.5" y="947.6006">15. Apply RBAC rules:</text><text fill="#000000" font-family="Verdana" font-size="13" lengthAdjust="spacing" textLength="108" x="999.5" y="963.3999">- Role hierarchy</text><text fill="#000000" font-family="Verdana" font-size="13" lengthAdjust="spacing" textLength="163" x="999.5" y="979.1992">- Permission inheritance</text><text fill="#000000" font-family="Verdana" font-size="13" lengthAdjust="spacing" textLength="195" x="999.5" y="994.9985">- Constraints (time, location)</text><path d="M255,1027.728 L319,1027.728 L319,1035.5273 L309,1045.5273 L255,1045.5273 L255,1027.728 " fill="#FFFFFF" style="stroke:#000000;stroke-width:1.0;"/><rect fill="none" height="349.5591" style="stroke:#000000;stroke-width:1.0;" width="806" x="255" y="1027.728"/><text fill="#000000" font-family="Verdana" font-size="13" font-weight="bold" lengthAdjust="spacing" textLength="19" x="270" y="1041.7979">alt</text><text fill="#000000" font-family="Verdana" font-size="11" font-weight="bold" lengthAdjust="spacing" textLength="135" x="334" y="1040.7871">[Permission Granted]</text><polygon fill="#000000" points="795.5,1079.126,785.5,1083.126,795.5,1087.126,791.5,1083.126" style="stroke:#000000;stroke-width:1.0;"/><line style="stroke:#000000;stroke-width:1.0;stroke-dasharray:2.0,2.0;" x1="789.5" x2="981.5" y1="1083.126" y2="1083.126"/><text fill="#000000" font-family="Verdana" font-size="13" lengthAdjust="spacing" textLength="148" x="801.5" y="1062.5972">16a. Access ALLOWED</text><text fill="#000000" font-family="Verdana" font-size="13" lengthAdjust="spacing" textLength="134" x="801.5" y="1078.3965">(permission details)</text><polygon fill="#000000" points="533.5,1124.7246,523.5,1128.7246,533.5,1132.7246,529.5,1128.7246" style="stroke:#000000;stroke-width:1.0;"/><line style="stroke:#000000;stroke-width:1.0;stroke-dasharray:2.0,2.0;" x1="527.5" x2="773.5" y1="1128.7246" y2="1128.7246"/><text fill="#000000" font-family="Verdana" font-size="13" lengthAdjust="spacing" textLength="195" x="539.5" y="1108.1958">17a. Authorization successful</text><text fill="#000000" font-family="Verdana" font-size="13" lengthAdjust="spacing" textLength="146" x="539.5" y="1123.9951">(access token, scope)</text><line style="stroke:#000000;stroke-width:1.0;" x1="522.5" x2="564.5" y1="1158.5239" y2="1158.5239"/><line style="stroke:#000000;stroke-width:1.0;" x1="564.5" x2="564.5" y1="1158.5239" y2="1171.5239"/><line style="stroke:#000000;stroke-width:1.0;" x1="523.5" x2="564.5" y1="1171.5239" y2="1171.5239"/><polygon fill="#000000" points="533.5,1167.5239,523.5,1171.5239,533.5,1175.5239,529.5,1171.5239" style="stroke:#000000;stroke-width:1.0;"/><text fill="#000000" font-family="Verdana" font-size="13" lengthAdjust="spacing" textLength="202" x="529.5" y="1153.7944">18a. Execute requested action</text><polygon fill="#000000" points="294.5,1213.1226,284.5,1217.1226,294.5,1221.1226,290.5,1217.1226" style="stroke:#000000;stroke-width:1.0;"/><line style="stroke:#000000;stroke-width:1.0;stroke-dasharray:2.0,2.0;" x1="288.5" x2="511.5" y1="1217.1226" y2="1217.1226"/><text fill="#000000" font-family="Verdana" font-size="13" lengthAdjust="spacing" textLength="129" x="300.5" y="1196.5938">19a. Resource data</text><text fill="#000000" font-family="Verdana" font-size="13" lengthAdjust="spacing" textLength="121" x="300.5" y="1212.3931">(financial reports)</text><line style="stroke:#000000;stroke-width:1.0;stroke-dasharray:2.0,2.0;" x1="255" x2="1061" y1="1226.1226" y2="1226.1226"/><text fill="#000000" font-family="Verdana" font-size="11" font-weight="bold" lengthAdjust="spacing" textLength="129" x="260" y="1237.1816">[Permission Denied]</text><polygon fill="#000000" points="795.5,1274.0898,785.5,1278.0898,795.5,1282.0898,791.5,1278.0898" style="stroke:#000000;stroke-width:1.0;"/><line style="stroke:#000000;stroke-width:1.0;stroke-dasharray:2.0,2.0;" x1="789.5" x2="981.5" y1="1278.0898" y2="1278.0898"/><text fill="#000000" font-family="Verdana" font-size="13" lengthAdjust="spacing" textLength="135" x="801.5" y="1257.561">16b. Access DENIED</text><text fill="#000000" font-family="Verdana" font-size="13" lengthAdjust="spacing" textLength="155" x="801.5" y="1273.3604">(insufficient privileges)</text><polygon fill="#000000" points="533.5,1319.6885,523.5,1323.6885,533.5,1327.6885,529.5,1323.6885" style="stroke:#000000;stroke-width:1.0;"/><line style="stroke:#000000;stroke-width:1.0;stroke-dasharray:2.0,2.0;" x1="527.5" x2="773.5" y1="1323.6885" y2="1323.6885"/><text fill="#000000" font-family="Verdana" font-size="13" lengthAdjust="spacing" textLength="164" x="539.5" y="1303.1597">17b. Authorization failed</text><text fill="#000000" font-family="Verdana" font-size="13" lengthAdjust="spacing" textLength="106" x="539.5" y="1318.959">(403 Forbidden)</text><polygon fill="#000000" points="294.5,1365.2871,284.5,1369.2871,294.5,1373.2871,290.5,1369.2871" style="stroke:#000000;stroke-width:1.0;"/><line style="stroke:#000000;stroke-width:1.0;stroke-dasharray:2.0,2.0;" x1="288.5" x2="511.5" y1="1369.2871" y2="1369.2871"/><text fill="#000000" font-family="Verdana" font-size="13" lengthAdjust="spacing" textLength="192" x="300.5" y="1348.7583">19b. Access denied message</text><text fill="#000000" font-family="Verdana" font-size="13" lengthAdjust="spacing" textLength="200" x="300.5" y="1364.5576">("You don't have permission")</text><rect fill="#FFFFFF" height="3" style="stroke:#FFFFFF;stroke-width:1.0;" width="1604" x="5" y="1405.1868"/><line style="stroke:#000000;stroke-width:0.5;" x1="5" x2="1609" y1="1405.1868" y2="1405.1868"/><line style="stroke:#000000;stroke-width:0.5;" x1="5" x2="1609" y1="1408.1868" y2="1408.1868"/><rect fill="#FFFFFF" height="23.7993" style="stroke:#000000;stroke-width:1.0;" width="117" x="748.5" y="1394.2871"/><text fill="#000000" font-family="Verdana" font-size="13" font-weight="bold" lengthAdjust="spacing" textLength="99" x="754.5" y="1411.3569">Audit Logging</text><polygon fill="#000000" points="762.5,1461.6851,772.5,1465.6851,762.5,1469.6851,766.5,1465.6851" style="stroke:#000000;stroke-width:1.0;"/><line style="stroke:#000000;stroke-width:1.0;" x1="517.5" x2="768.5" y1="1465.6851" y2="1465.6851"/><text fill="#000000" font-family="Verdana" font-size="13" lengthAdjust="spacing" textLength="155" x="524.5" y="1445.1563">20. Log access attempt</text><text fill="#000000" font-family="Verdana" font-size="13" lengthAdjust="spacing" textLength="238" x="524.5" y="1460.9556">(user, resource, result, timestamp)</text><polygon fill="#000000" points="1461.5,1491.4844,1471.5,1495.4844,1461.5,1499.4844,1465.5,1495.4844" style="stroke:#000000;stroke-width:1.0;"/><line style="stroke:#000000;stroke-width:1.0;" x1="784.5" x2="1467.5" y1="1495.4844" y2="1495.4844"/><text fill="#000000" font-family="Verdana" font-size="13" lengthAdjust="spacing" textLength="125" x="791.5" y="1490.7549">21. Store audit log</text><polygon fill="#000000" points="790.5,1521.2837,780.5,1525.2837,790.5,1529.2837,786.5,1525.2837" style="stroke:#000000;stroke-width:1.0;"/><line style="stroke:#000000;stroke-width:1.0;stroke-dasharray:2.0,2.0;" x1="784.5" x2="1477.5" y1="1525.2837" y2="1525.2837"/><text fill="#000000" font-family="Verdana" font-size="13" lengthAdjust="spacing" textLength="96" x="796.5" y="1520.5542">22. Log stored</text><path d="M992,1538.2837 L992,1642.2837 L1325,1642.2837 L1325,1548.2837 L1315,1538.2837 L992,1538.2837 " fill="#FFFFFF" style="stroke:#000000;stroke-width:1.0;"/><path d="M1315,1538.2837 L1315,1548.2837 L1325,1548.2837 L1315,1538.2837 " fill="#FFFFFF" style="stroke:#000000;stroke-width:1.0;"/><text fill="#000000" font-family="Verdana" font-size="13" lengthAdjust="spacing" textLength="129" x="998" y="1556.3535">RBAC Components:</text><text fill="#000000" font-family="Verdana" font-size="13" lengthAdjust="spacing" textLength="188" x="998" y="1572.1528">- Users: Individual accounts</text><text fill="#000000" font-family="Verdana" font-size="13" lengthAdjust="spacing" textLength="312" x="998" y="1587.9521">- Roles: Job functions (Admin, Manager, User)</text><text fill="#000000" font-family="Verdana" font-size="13" lengthAdjust="spacing" textLength="297" x="998" y="1603.7515">- Permissions: Specific actions on resources</text><text fill="#000000" font-family="Verdana" font-size="13" lengthAdjust="spacing" textLength="286" x="998" y="1619.5508">- Role Hierarchy: Inheritance relationships</text><text fill="#000000" font-family="Verdana" font-size="13" lengthAdjust="spacing" textLength="269" x="998" y="1635.3501">- Constraints: Time, location, conditions</text><path d="M1345,1653.0796 L1345,1757.0796 L1604,1757.0796 L1604,1663.0796 L1594,1653.0796 L1345,1653.0796 " fill="#FFFFFF" style="stroke:#000000;stroke-width:1.0;"/><path d="M1594,1653.0796 L1594,1663.0796 L1604,1663.0796 L1594,1653.0796 " fill="#FFFFFF" style="stroke:#000000;stroke-width:1.0;"/><text fill="#000000" font-family="Verdana" font-size="13" lengthAdjust="spacing" textLength="104" x="1351" y="1671.1494">Example Roles:</text><text fill="#000000" font-family="Verdana" font-size="13" lengthAdjust="spacing" textLength="189" x="1351" y="1686.9487">- Admin: Full system access</text><text fill="#000000" font-family="Verdana" font-size="13" lengthAdjust="spacing" textLength="219" x="1351" y="1702.748">- Manager: Team data + reports</text><text fill="#000000" font-family="Verdana" font-size="13" lengthAdjust="spacing" textLength="238" x="1351" y="1718.5474">- Finance_User: Financial data read</text><text fill="#000000" font-family="Verdana" font-size="13" lengthAdjust="spacing" textLength="228" x="1351" y="1734.3467">- HR_User: Employee data access</text><text fill="#000000" font-family="Verdana" font-size="13" lengthAdjust="spacing" textLength="166" x="1351" y="1750.146">- Guest: Public data only</text><path d="M10,1767.8755 L10,1871.8755 L279,1871.8755 L279,1777.8755 L269,1767.8755 L10,1767.8755 " fill="#FFFFFF" style="stroke:#000000;stroke-width:1.0;"/><path d="M269,1767.8755 L269,1777.8755 L279,1777.8755 L269,1767.8755 " fill="#FFFFFF" style="stroke:#000000;stroke-width:1.0;"/><text fill="#000000" font-family="Verdana" font-size="13" lengthAdjust="spacing" textLength="101" x="16" y="1785.9453">RBAC Benefits:</text><text fill="#000000" font-family="Verdana" font-size="13" lengthAdjust="spacing" textLength="186" x="16" y="1801.7446">- Principle of least privilege</text><text fill="#000000" font-family="Verdana" font-size="13" lengthAdjust="spacing" textLength="248" x="16" y="1817.5439">- Simplified permission management</text><text fill="#000000" font-family="Verdana" font-size="13" lengthAdjust="spacing" textLength="159" x="16" y="1833.3433">- Role-based delegation</text><text fill="#000000" font-family="Verdana" font-size="13" lengthAdjust="spacing" textLength="200" x="16" y="1849.1426">- Compliance with regulations</text><text fill="#000000" font-family="Verdana" font-size="13" lengthAdjust="spacing" textLength="167" x="16" y="1864.9419">- Scalable access control</text><!--SRC=[ZLVRRkCs47tNLqpzqXYrtMIptOk15CXzjqZR8EcsABf5G4kqJInDgYBbDFlrFHnIDkLSq1Sx5eTpEJFdZFADNygLf5eBPGgll9PqOxKSdmWdApekI-aSdLhZ6wjfx-Ra-7H8jm_EorLHYDBRXWQVd6m691or-AEeHUDLgMfXF0sEwrghKdXb3Lk8kjunQFtIDkehcz2jRDQgbD4K9r_xnY4wdPk5Cj6acOcog8GNCoGRyw2pz7EJK3NBJ49fVHEK9Nicrx9PAUT2EZt36izXM1Zh9TarGWNle-uv4MVd61gwNyf6iW4AmLy23XS6W8PmRWHhOT8FMegr95VBKirLoUvYU4TpeDj8Pzi6NIWaReJWHN5qH5nh04yQdm2cewEY225f_6C0Uae74xgoG0jE_ccbyv_DNZWtOYMHDtAwjqqr36rKQu6gGdSAVB230F-KNatoAB6ax0BtgE2lS2dYFQN32VqkjAg2JTd8AbmNscqlfiR4BnfluxsUnD945hHAUT-fQaJiGaReXaKbTrrsoNGO_33PXScrFDJpLkT-dMJGxxpz8atFSIeIeD-aNdIqk8cmFWR-pMHp9gAfjvjE8ggSB2OZ6goLlAUvCiAKW0S6jMsy6mntc_0srh3bIRcKvPSy-yvtnCUQOV5K-c50i_4-3Luu-Kq30wEcz6wIphYeR2B_PqZcPH4-yw5uFw5BwQDFRj_Ms_2boOWv7UodoUYk_ZLO2ICMa1uW6K6KT-7QuEydvw9B9n8U3WzYFk7tJetXqLrWYSkBYa8Hl_B4G16MbKeY2-Kp7xHKiX5DkNmOaJAG18LXpcFr4aq1Deb6OK60mwuTJub42kLUR4ZIgFYLvmwwPGC13wqEAY6qjlUo-Xx4LSZuEvm8P_kqwFHmWslq6FW6qN-8qzQqI6twsOmZH1iymfCiS08dj32SODquts0XUKTxNWMrqZQoDt13-_pkPOFT82j8Ab7CPKkSWpTYqf7r-Ehgrp_Epr3T5Ztqp0kbqOTmcpzsvEFWhTWbNqy_DlI6Qa14IblBt5cYCNjw1q_d_ygo3RsEwW1iOwzshYJMuD9xCTdAJbXIYFb8CL94gR6_ylN5tNi6cDa6cBFpNpuoBiguTexnKX1BgXkrLbekv8lWp7R1cGDE5kpN-uTqOPkPgggWfy_MjyqZ3HjOvq1hk1ZyQLkghFdMnnsvxHia4jkmwB67tmLsLJj_49ORLF2uhPGFUn6BSH7Lhx_nzdbhTi8jFFPvtQtEd6MHBICA0-gyMDN3vnTZn-LN49rRl3G5Yv26jekNMDgbz2gcvCBDwWaIFjvM_9RIgCNIavr7SD8RogbTrTQWnMwAHsCMLJUbZwP2mwiMKuNAROjpFWwynV5FTaRprl2mWfJ7rKfXtd-E2ZnY9qEstyuVRjrsWYNInIWowOMcSqyVEba8QMoK09QQXyejLHsjCs6OqcyzOHXHQL42ssUlIZiuH8aby13zIg-w2GSkQKeNhTRTMrmS0JvDbIAg52ic8giYquyDBj86-iHpVR6XA9j2FYks-d2J3CuHtZx8oEayq6NGXIbTjpEyECTJQ_J3RabQphaYVXzBdJsH1Ykew-jrev11A19c6lgTSPeDRXLoG7TwAudYKbrXFZRz6S_uVu5Augf8QZNcETAA6tMl_18rBjhKh-Y-55hC43uHgOp_GsmB-Gy0]--></g></svg>