<?xml version="1.0" encoding="us-ascii" standalone="no"?><svg xmlns="http://www.w3.org/2000/svg" xmlns:xlink="http://www.w3.org/1999/xlink" contentStyleType="text/css" height="303px" preserveAspectRatio="none" style="width:578px;height:303px;background:#FFFFFF;" version="1.1" viewBox="0 0 578 303" width="578px" zoomAndPan="magnify"><defs/><g><text fill="#000000" font-family="sans-serif" font-size="14" font-weight="bold" lengthAdjust="spacing" textLength="244" x="160.25" y="23.5352">Basic Producer-Consumer Pattern</text><!--class Producer--><g id="elem_Producer"><rect codeLine="7" fill="#F1F1F1" height="80.9766" id="Producer" rx="2.5" ry="2.5" style="stroke:#181818;stroke-width:0.5;" width="152" x="208.5" y="44.4883"/><ellipse cx="249.6" cy="60.4883" fill="#ADD1B2" rx="11" ry="11" style="stroke:#181818;stroke-width:1.0;"/><path d="M252.0731,66.6313 Q251.4921,66.9302 250.8529,67.0796 Q250.2138,67.229 249.5082,67.229 Q247.0014,67.229 245.6815,65.5771 Q244.3617,63.9253 244.3617,60.8042 Q244.3617,57.6748 245.6815,56.0229 Q247.0014,54.3711 249.5082,54.3711 Q250.2138,54.3711 250.8612,54.5205 Q251.5087,54.6699 252.0731,54.9688 L252.0731,57.6914 Q251.4423,57.1104 250.8488,56.8406 Q250.2553,56.5708 249.6244,56.5708 Q248.2797,56.5708 247.5949,57.6375 Q246.9101,58.7041 246.9101,60.8042 Q246.9101,62.896 247.5949,63.9626 Q248.2797,65.0293 249.6244,65.0293 Q250.2553,65.0293 250.8488,64.7595 Q251.4423,64.4897 252.0731,63.9087 Z " fill="#000000"/><text fill="#000000" font-family="sans-serif" font-size="14" lengthAdjust="spacing" textLength="62" x="269.4" y="65.7793">Producer</text><line style="stroke:#181818;stroke-width:0.5;" x1="209.5" x2="359.5" y1="76.4883" y2="76.4883"/><line style="stroke:#181818;stroke-width:0.5;" x1="209.5" x2="359.5" y1="84.4883" y2="84.4883"/><ellipse cx="219.5" cy="98.2324" fill="#84BE84" rx="3" ry="3" style="stroke:#038048;stroke-width:1.0;"/><text fill="#000000" font-family="sans-serif" font-size="14" lengthAdjust="spacing" textLength="126" x="228.5" y="102.0234">produceMessage()</text><ellipse cx="219.5" cy="114.7207" fill="#84BE84" rx="3" ry="3" style="stroke:#038048;stroke-width:1.0;"/><text fill="#000000" font-family="sans-serif" font-size="14" lengthAdjust="spacing" textLength="102" x="228.5" y="118.5117">sendMessage()</text></g><!--class Consumer--><g id="elem_Consumer"><rect codeLine="12" fill="#F1F1F1" height="80.9766" id="Consumer" rx="2.5" ry="2.5" style="stroke:#181818;stroke-width:0.5;" width="148" x="210.5" y="215.4583"/><ellipse cx="245.75" cy="231.4583" fill="#ADD1B2" rx="11" ry="11" style="stroke:#181818;stroke-width:1.0;"/><path d="M248.2231,237.6013 Q247.6421,237.9002 247.0029,238.0496 Q246.3638,238.199 245.6582,238.199 Q243.1514,238.199 241.8315,236.5471 Q240.5117,234.8953 240.5117,231.7742 Q240.5117,228.6448 241.8315,226.9929 Q243.1514,225.3411 245.6582,225.3411 Q246.3638,225.3411 247.0112,225.4905 Q247.6587,225.6399 248.2231,225.9387 L248.2231,228.6614 Q247.5923,228.0804 246.9988,227.8106 Q246.4053,227.5408 245.7744,227.5408 Q244.4297,227.5408 243.7449,228.6075 Q243.0601,229.6741 243.0601,231.7742 Q243.0601,233.866 243.7449,234.9326 Q244.4297,235.9993 245.7744,235.9993 Q246.4053,235.9993 246.9988,235.7295 Q247.5923,235.4597 248.2231,234.8787 Z " fill="#000000"/><text fill="#000000" font-family="sans-serif" font-size="14" lengthAdjust="spacing" textLength="71" x="264.25" y="236.7493">Consumer</text><line style="stroke:#181818;stroke-width:0.5;" x1="211.5" x2="357.5" y1="247.4583" y2="247.4583"/><line style="stroke:#181818;stroke-width:0.5;" x1="211.5" x2="357.5" y1="255.4583" y2="255.4583"/><ellipse cx="221.5" cy="269.2024" fill="#84BE84" rx="3" ry="3" style="stroke:#038048;stroke-width:1.0;"/><text fill="#000000" font-family="sans-serif" font-size="14" lengthAdjust="spacing" textLength="117" x="230.5" y="272.9934">receiveMessage()</text><ellipse cx="221.5" cy="285.6907" fill="#84BE84" rx="3" ry="3" style="stroke:#038048;stroke-width:1.0;"/><text fill="#000000" font-family="sans-serif" font-size="14" lengthAdjust="spacing" textLength="122" x="230.5" y="289.4817">processMessage()</text></g><g id="elem_GMN5"><path d="M395.5,57.0083 L395.5,80.9783 L360.68,84.9783 L395.5,88.9783 L395.5,112.9399 A0,0 0 0 0 395.5,112.9399 L571.5,112.9399 A0,0 0 0 0 571.5,112.9399 L571.5,67.0083 L561.5,57.0083 L395.5,57.0083 A0,0 0 0 0 395.5,57.0083 " fill="#FEFFDD" style="stroke:#181818;stroke-width:0.5;"/><path d="M561.5,57.0083 L561.5,67.0083 L571.5,67.0083 L561.5,57.0083 " fill="#FEFFDD" style="stroke:#181818;stroke-width:0.5;"/><text fill="#000000" font-family="sans-serif" font-size="13" lengthAdjust="spacing" textLength="37" x="402" y="74.5766">Sends</text><text fill="#000000" font-family="sans-serif" font-size="13" lengthAdjust="spacing" textLength="4" x="439" y="74.5766">&#160;</text><text fill="#000000" font-family="sans-serif" font-size="13" lengthAdjust="spacing" textLength="62" x="443" y="74.5766">messages</text><text fill="#000000" font-family="sans-serif" font-size="13" lengthAdjust="spacing" textLength="4" x="505" y="74.5766">&#160;</text><text fill="#000000" font-family="sans-serif" font-size="13" lengthAdjust="spacing" textLength="47" x="509" y="74.5766">directly</text><text fill="#000000" font-family="sans-serif" font-size="13" lengthAdjust="spacing" textLength="13" x="401.5" y="89.8872">to</text><text fill="#000000" font-family="sans-serif" font-size="13" lengthAdjust="spacing" textLength="4" x="414.5" y="89.8872">&#160;</text><text fill="#000000" font-family="sans-serif" font-size="13" lengthAdjust="spacing" textLength="20" x="418.5" y="89.8872">the</text><text fill="#000000" font-family="sans-serif" font-size="13" lengthAdjust="spacing" textLength="4" x="438.5" y="89.8872">&#160;</text><text fill="#000000" font-family="sans-serif" font-size="13" lengthAdjust="spacing" textLength="62" x="442.5" y="89.8872">consumer</text><text fill="#000000" font-family="sans-serif" font-size="13" lengthAdjust="spacing" textLength="4" x="504.5" y="89.8872">&#160;</text><text fill="#000000" font-family="sans-serif" font-size="13" lengthAdjust="spacing" textLength="48" x="508.5" y="89.8872">without</text><text fill="#000000" font-family="sans-serif" font-size="13" lengthAdjust="spacing" textLength="22" x="404" y="105.1977">any</text><text fill="#000000" font-family="sans-serif" font-size="13" lengthAdjust="spacing" textLength="4" x="426" y="105.1977">&#160;</text><text fill="#000000" font-family="sans-serif" font-size="13" lengthAdjust="spacing" textLength="79" x="430" y="105.1977">intermediary</text><text fill="#000000" font-family="sans-serif" font-size="13" lengthAdjust="spacing" textLength="4" x="509" y="105.1977">&#160;</text><text fill="#000000" font-family="sans-serif" font-size="13" lengthAdjust="spacing" textLength="41" x="513" y="105.1977">broker</text></g><g id="elem_GMN8"><path d="M6,227.9883 L6,283.9199 A0,0 0 0 0 6,283.9199 L175,283.9199 A0,0 0 0 0 175,283.9199 L175,259.9483 L210.33,255.9483 L175,251.9483 L175,237.9883 L165,227.9883 L6,227.9883 A0,0 0 0 0 6,227.9883 " fill="#FEFFDD" style="stroke:#181818;stroke-width:0.5;"/><path d="M165,227.9883 L165,237.9883 L175,237.9883 L165,227.9883 " fill="#FEFFDD" style="stroke:#181818;stroke-width:0.5;"/><text fill="#000000" font-family="sans-serif" font-size="13" lengthAdjust="spacing" textLength="54" x="12" y="245.5566">Receives</text><text fill="#000000" font-family="sans-serif" font-size="13" lengthAdjust="spacing" textLength="4" x="66" y="245.5566">&#160;</text><text fill="#000000" font-family="sans-serif" font-size="13" lengthAdjust="spacing" textLength="23" x="70" y="245.5566">and</text><text fill="#000000" font-family="sans-serif" font-size="13" lengthAdjust="spacing" textLength="4" x="93" y="245.5566">&#160;</text><text fill="#000000" font-family="sans-serif" font-size="13" lengthAdjust="spacing" textLength="63" x="97" y="245.5566">processes</text><text fill="#000000" font-family="sans-serif" font-size="13" lengthAdjust="spacing" textLength="62" x="14.5" y="260.8672">messages</text><text fill="#000000" font-family="sans-serif" font-size="13" lengthAdjust="spacing" textLength="4" x="76.5" y="260.8672">&#160;</text><text fill="#000000" font-family="sans-serif" font-size="13" lengthAdjust="spacing" textLength="77" x="80.5" y="260.8672">immediately</text><text fill="#000000" font-family="sans-serif" font-size="13" lengthAdjust="spacing" textLength="30" x="29" y="276.1777">from</text><text fill="#000000" font-family="sans-serif" font-size="13" lengthAdjust="spacing" textLength="4" x="59" y="276.1777">&#160;</text><text fill="#000000" font-family="sans-serif" font-size="13" lengthAdjust="spacing" textLength="20" x="63" y="276.1777">the</text><text fill="#000000" font-family="sans-serif" font-size="13" lengthAdjust="spacing" textLength="4" x="83" y="276.1777">&#160;</text><text fill="#000000" font-family="sans-serif" font-size="13" lengthAdjust="spacing" textLength="56" x="87" y="276.1777">producer</text></g><!--link Producer to Consumer--><g id="link_Producer_Consumer"><path codeLine="17" d="M284.5,125.5883 C284.5,152.5183 284.5,181.9983 284.5,208.9983 " fill="none" id="Producer-to-Consumer" style="stroke:#666666;stroke-width:1.0;"/><polygon fill="#666666" points="284.5,214.9983,288.5,205.9983,284.5,209.9983,280.5,205.9983,284.5,214.9983" style="stroke:#666666;stroke-width:1.0;"/><text fill="#666666" font-family="sans-serif" font-size="12" lengthAdjust="spacing" textLength="34" x="285.5" y="168.0598">Direct</text><text fill="#666666" font-family="sans-serif" font-size="12" lengthAdjust="spacing" textLength="4" x="319.5" y="168.0598">&#160;</text><text fill="#666666" font-family="sans-serif" font-size="12" lengthAdjust="spacing" textLength="50" x="323.5" y="168.0598">Message</text><text fill="#666666" font-family="sans-serif" font-size="12" lengthAdjust="spacing" textLength="79" x="290" y="182.1927">[Synchronous]</text></g><!--SRC=[NP5FJm8n4CNl_HG39urPzkA9WuaYyGA6W9xKcDBEietziscd4cByxWwxxA8U-sRUxxr9HyOhcpL2JTIaQLb6kP_i3DLvcnD65JoXfuaAhcoiz9ITBH9fQxRbxBfO7QNdvQ9qCX56bjvdx936Ovmql2i46R88Tp8P1QiOT5OO2rvAsM64bIJsUI566YjsmNe-UxfzV5ZCGLcPaX1deNV3bm2uWgPxBZ4bkSEBorPCwFLP-Vvj7p8xUqI5vlEVdPcAXJ-48ROeRiwGAOpl3JC8Jikl_cLpyAgEmOUStiP2-408qUngWb0DxJbdmoKJkCwNGBSSU-091Q0QGVKfU_w8a8adqX_0y5z4Xzh8U81j31zCOnGSWqvn5gishU_9pdLtQ6A4xW_4n8EXW74jbB3jKCNWsXPDttZ8-040]--></g></svg>