<?xml version="1.0" encoding="us-ascii" standalone="no"?><svg xmlns="http://www.w3.org/2000/svg" xmlns:xlink="http://www.w3.org/1999/xlink" contentStyleType="text/css" height="748px" preserveAspectRatio="none" style="width:678px;height:748px;background:#FFFFFF;" version="1.1" viewBox="0 0 678 748" width="678px" zoomAndPan="magnify"><defs/><g><text fill="#000000" font-family="sans-serif" font-size="14" font-weight="bold" lengthAdjust="spacing" textLength="172" x="246" y="23.5352">Message Router Pattern</text><!--class Producer--><g id="elem_Producer"><rect codeLine="7" fill="#F1F1F1" height="80.9766" id="Producer" rx="2.5" ry="2.5" style="stroke:#181818;stroke-width:0.5;" width="152" x="61" y="44.4883"/><ellipse cx="102.1" cy="60.4883" fill="#ADD1B2" rx="11" ry="11" style="stroke:#181818;stroke-width:1.0;"/><path d="M104.5731,66.6313 Q103.9921,66.9302 103.3529,67.0796 Q102.7138,67.229 102.0082,67.229 Q99.5014,67.229 98.1815,65.5771 Q96.8617,63.9253 96.8617,60.8042 Q96.8617,57.6748 98.1815,56.0229 Q99.5014,54.3711 102.0082,54.3711 Q102.7138,54.3711 103.3612,54.5205 Q104.0087,54.6699 104.5731,54.9688 L104.5731,57.6914 Q103.9423,57.1104 103.3488,56.8406 Q102.7553,56.5708 102.1244,56.5708 Q100.7797,56.5708 100.0949,57.6375 Q99.4101,58.7041 99.4101,60.8042 Q99.4101,62.896 100.0949,63.9626 Q100.7797,65.0293 102.1244,65.0293 Q102.7553,65.0293 103.3488,64.7595 Q103.9423,64.4897 104.5731,63.9087 Z " fill="#000000"/><text fill="#000000" font-family="sans-serif" font-size="14" lengthAdjust="spacing" textLength="62" x="121.9" y="65.7793">Producer</text><line style="stroke:#181818;stroke-width:0.5;" x1="62" x2="212" y1="76.4883" y2="76.4883"/><line style="stroke:#181818;stroke-width:0.5;" x1="62" x2="212" y1="84.4883" y2="84.4883"/><ellipse cx="72" cy="98.2324" fill="#84BE84" rx="3" ry="3" style="stroke:#038048;stroke-width:1.0;"/><text fill="#000000" font-family="sans-serif" font-size="14" lengthAdjust="spacing" textLength="126" x="81" y="102.0234">produceMessage()</text><ellipse cx="72" cy="114.7207" fill="#84BE84" rx="3" ry="3" style="stroke:#038048;stroke-width:1.0;"/><text fill="#000000" font-family="sans-serif" font-size="14" lengthAdjust="spacing" textLength="107" x="81" y="118.5117">sendToRouter()</text></g><!--class MessageRouter--><g id="elem_MessageRouter"><rect codeLine="12" fill="#F1F1F1" height="97.4648" id="MessageRouter" rx="2.5" ry="2.5" style="stroke:#181818;stroke-width:0.5;" width="153" x="271.5" y="215.4683"/><ellipse cx="291.9" cy="231.4683" fill="#ADD1B2" rx="11" ry="11" style="stroke:#181818;stroke-width:1.0;"/><path d="M294.3731,237.6113 Q293.7921,237.9102 293.1529,238.0596 Q292.5138,238.209 291.8082,238.209 Q289.3014,238.209 287.9815,236.5571 Q286.6617,234.9053 286.6617,231.7842 Q286.6617,228.6548 287.9815,227.0029 Q289.3014,225.3511 291.8082,225.3511 Q292.5138,225.3511 293.1612,225.5005 Q293.8087,225.6499 294.3731,225.9488 L294.3731,228.6714 Q293.7423,228.0904 293.1488,227.8206 Q292.5553,227.5508 291.9244,227.5508 Q290.5797,227.5508 289.8949,228.6175 Q289.2101,229.6841 289.2101,231.7842 Q289.2101,233.876 289.8949,234.9426 Q290.5797,236.0093 291.9244,236.0093 Q292.5553,236.0093 293.1488,235.7395 Q293.7423,235.4697 294.3731,234.8887 Z " fill="#000000"/><text fill="#000000" font-family="sans-serif" font-size="14" lengthAdjust="spacing" textLength="59" x="307.1" y="236.7593">Message</text><text fill="#000000" font-family="sans-serif" font-size="14" lengthAdjust="spacing" textLength="4" x="366.1" y="236.7593">&#160;</text><text fill="#000000" font-family="sans-serif" font-size="14" lengthAdjust="spacing" textLength="46" x="370.1" y="236.7593">Router</text><line style="stroke:#181818;stroke-width:0.5;" x1="272.5" x2="423.5" y1="247.4683" y2="247.4683"/><line style="stroke:#181818;stroke-width:0.5;" x1="272.5" x2="423.5" y1="255.4683" y2="255.4683"/><ellipse cx="282.5" cy="269.2124" fill="#84BE84" rx="3" ry="3" style="stroke:#038048;stroke-width:1.0;"/><text fill="#000000" font-family="sans-serif" font-size="14" lengthAdjust="spacing" textLength="106" x="291.5" y="273.0034">routeMessage()</text><ellipse cx="282.5" cy="285.7007" fill="#84BE84" rx="3" ry="3" style="stroke:#038048;stroke-width:1.0;"/><text fill="#000000" font-family="sans-serif" font-size="14" lengthAdjust="spacing" textLength="84" x="291.5" y="289.4917">applyRules()</text><ellipse cx="282.5" cy="302.189" fill="#84BE84" rx="3" ry="3" style="stroke:#038048;stroke-width:1.0;"/><text fill="#000000" font-family="sans-serif" font-size="14" lengthAdjust="spacing" textLength="127" x="291.5" y="305.98">selectDestination()</text></g><!--class HighPriorityQueue--><g id="elem_HighPriorityQueue"><rect codeLine="18" fill="#F1F1F1" height="80.9766" id="HighPriorityQueue" rx="2.5" ry="2.5" style="stroke:#181818;stroke-width:0.5;" width="166" x="58" y="402.9283"/><ellipse cx="73" cy="418.9283" fill="#ADD1B2" rx="11" ry="11" style="stroke:#181818;stroke-width:1.0;"/><path d="M75.4731,425.0713 Q74.8921,425.3702 74.2529,425.5196 Q73.6138,425.669 72.9082,425.669 Q70.4014,425.669 69.0815,424.0171 Q67.7617,422.3653 67.7617,419.2442 Q67.7617,416.1148 69.0815,414.4629 Q70.4014,412.8111 72.9082,412.8111 Q73.6138,412.8111 74.2612,412.9605 Q74.9087,413.1099 75.4731,413.4088 L75.4731,416.1314 Q74.8423,415.5504 74.2488,415.2806 Q73.6553,415.0108 73.0244,415.0108 Q71.6797,415.0108 70.9949,416.0775 Q70.3101,417.1441 70.3101,419.2442 Q70.3101,421.336 70.9949,422.4026 Q71.6797,423.4693 73.0244,423.4693 Q73.6553,423.4693 74.2488,423.1995 Q74.8423,422.9297 75.4731,422.3487 Z " fill="#000000"/><text fill="#000000" font-family="sans-serif" font-size="14" lengthAdjust="spacing" textLength="32" x="87" y="424.2193">High</text><text fill="#000000" font-family="sans-serif" font-size="14" lengthAdjust="spacing" textLength="4" x="119" y="424.2193">&#160;</text><text fill="#000000" font-family="sans-serif" font-size="14" lengthAdjust="spacing" textLength="49" x="123" y="424.2193">Priority</text><text fill="#000000" font-family="sans-serif" font-size="14" lengthAdjust="spacing" textLength="4" x="172" y="424.2193">&#160;</text><text fill="#000000" font-family="sans-serif" font-size="14" lengthAdjust="spacing" textLength="45" x="176" y="424.2193">Queue</text><line style="stroke:#181818;stroke-width:0.5;" x1="59" x2="223" y1="434.9283" y2="434.9283"/><line style="stroke:#181818;stroke-width:0.5;" x1="59" x2="223" y1="442.9283" y2="442.9283"/><ellipse cx="69" cy="456.6724" fill="#84BE84" rx="3" ry="3" style="stroke:#038048;stroke-width:1.0;"/><text fill="#000000" font-family="sans-serif" font-size="14" lengthAdjust="spacing" textLength="130" x="78" y="460.4634">enqueue(message)</text><ellipse cx="69" cy="473.1607" fill="#84BE84" rx="3" ry="3" style="stroke:#038048;stroke-width:1.0;"/><text fill="#000000" font-family="sans-serif" font-size="14" lengthAdjust="spacing" textLength="70" x="78" y="476.9517">dequeue()</text></g><!--class NormalQueue--><g id="elem_NormalQueue"><rect codeLine="23" fill="#F1F1F1" height="80.9766" id="NormalQueue" rx="2.5" ry="2.5" style="stroke:#181818;stroke-width:0.5;" width="156" x="270" y="402.9283"/><ellipse cx="296.25" cy="418.9283" fill="#ADD1B2" rx="11" ry="11" style="stroke:#181818;stroke-width:1.0;"/><path d="M298.7231,425.0713 Q298.1421,425.3702 297.5029,425.5196 Q296.8638,425.669 296.1582,425.669 Q293.6514,425.669 292.3315,424.0171 Q291.0117,422.3653 291.0117,419.2442 Q291.0117,416.1148 292.3315,414.4629 Q293.6514,412.8111 296.1582,412.8111 Q296.8638,412.8111 297.5112,412.9605 Q298.1587,413.1099 298.7231,413.4088 L298.7231,416.1314 Q298.0923,415.5504 297.4988,415.2806 Q296.9053,415.0108 296.2744,415.0108 Q294.9297,415.0108 294.2449,416.0775 Q293.5601,417.1441 293.5601,419.2442 Q293.5601,421.336 294.2449,422.4026 Q294.9297,423.4693 296.2744,423.4693 Q296.9053,423.4693 297.4988,423.1995 Q298.0923,422.9297 298.7231,422.3487 Z " fill="#000000"/><text fill="#000000" font-family="sans-serif" font-size="14" lengthAdjust="spacing" textLength="50" x="312.75" y="424.2193">Normal</text><text fill="#000000" font-family="sans-serif" font-size="14" lengthAdjust="spacing" textLength="4" x="362.75" y="424.2193">&#160;</text><text fill="#000000" font-family="sans-serif" font-size="14" lengthAdjust="spacing" textLength="45" x="366.75" y="424.2193">Queue</text><line style="stroke:#181818;stroke-width:0.5;" x1="271" x2="425" y1="434.9283" y2="434.9283"/><line style="stroke:#181818;stroke-width:0.5;" x1="271" x2="425" y1="442.9283" y2="442.9283"/><ellipse cx="281" cy="456.6724" fill="#84BE84" rx="3" ry="3" style="stroke:#038048;stroke-width:1.0;"/><text fill="#000000" font-family="sans-serif" font-size="14" lengthAdjust="spacing" textLength="130" x="290" y="460.4634">enqueue(message)</text><ellipse cx="281" cy="473.1607" fill="#84BE84" rx="3" ry="3" style="stroke:#038048;stroke-width:1.0;"/><text fill="#000000" font-family="sans-serif" font-size="14" lengthAdjust="spacing" textLength="70" x="290" y="476.9517">dequeue()</text></g><!--class ErrorQueue--><g id="elem_ErrorQueue"><rect codeLine="28" fill="#F1F1F1" height="80.9766" id="ErrorQueue" rx="2.5" ry="2.5" style="stroke:#181818;stroke-width:0.5;" width="156" x="481" y="402.9283"/><ellipse cx="514" cy="418.9283" fill="#ADD1B2" rx="11" ry="11" style="stroke:#181818;stroke-width:1.0;"/><path d="M516.4731,425.0713 Q515.8921,425.3702 515.2529,425.5196 Q514.6138,425.669 513.9082,425.669 Q511.4014,425.669 510.0815,424.0171 Q508.7617,422.3653 508.7617,419.2442 Q508.7617,416.1148 510.0815,414.4629 Q511.4014,412.8111 513.9082,412.8111 Q514.6138,412.8111 515.2612,412.9605 Q515.9087,413.1099 516.4731,413.4088 L516.4731,416.1314 Q515.8423,415.5504 515.2488,415.2806 Q514.6553,415.0108 514.0244,415.0108 Q512.6797,415.0108 511.9949,416.0775 Q511.3101,417.1441 511.3101,419.2442 Q511.3101,421.336 511.9949,422.4026 Q512.6797,423.4693 514.0244,423.4693 Q514.6553,423.4693 515.2488,423.1995 Q515.8423,422.9297 516.4731,422.3487 Z " fill="#000000"/><text fill="#000000" font-family="sans-serif" font-size="14" lengthAdjust="spacing" textLength="35" x="532" y="424.2193">Error</text><text fill="#000000" font-family="sans-serif" font-size="14" lengthAdjust="spacing" textLength="4" x="567" y="424.2193">&#160;</text><text fill="#000000" font-family="sans-serif" font-size="14" lengthAdjust="spacing" textLength="45" x="571" y="424.2193">Queue</text><line style="stroke:#181818;stroke-width:0.5;" x1="482" x2="636" y1="434.9283" y2="434.9283"/><line style="stroke:#181818;stroke-width:0.5;" x1="482" x2="636" y1="442.9283" y2="442.9283"/><ellipse cx="492" cy="456.6724" fill="#84BE84" rx="3" ry="3" style="stroke:#038048;stroke-width:1.0;"/><text fill="#000000" font-family="sans-serif" font-size="14" lengthAdjust="spacing" textLength="130" x="501" y="460.4634">enqueue(message)</text><ellipse cx="492" cy="473.1607" fill="#84BE84" rx="3" ry="3" style="stroke:#038048;stroke-width:1.0;"/><text fill="#000000" font-family="sans-serif" font-size="14" lengthAdjust="spacing" textLength="70" x="501" y="476.9517">dequeue()</text></g><!--class HighPriorityConsumer--><g id="elem_HighPriorityConsumer"><rect codeLine="33" fill="#F1F1F1" height="64.4883" id="HighPriorityConsumer" rx="2.5" ry="2.5" style="stroke:#181818;stroke-width:0.5;" width="202" x="7" y="559.9083"/><ellipse cx="26.5" cy="575.9083" fill="#ADD1B2" rx="11" ry="11" style="stroke:#181818;stroke-width:1.0;"/><path d="M28.9731,582.0513 Q28.3921,582.3502 27.7529,582.4996 Q27.1138,582.649 26.4082,582.649 Q23.9014,582.649 22.5815,580.9971 Q21.2617,579.3453 21.2617,576.2242 Q21.2617,573.0948 22.5815,571.4429 Q23.9014,569.7911 26.4082,569.7911 Q27.1138,569.7911 27.7612,569.9405 Q28.4087,570.0899 28.9731,570.3888 L28.9731,573.1114 Q28.3423,572.5304 27.7488,572.2606 Q27.1553,571.9908 26.5244,571.9908 Q25.1797,571.9908 24.4949,573.0575 Q23.8101,574.1241 23.8101,576.2242 Q23.8101,578.316 24.4949,579.3826 Q25.1797,580.4493 26.5244,580.4493 Q27.1553,580.4493 27.7488,580.1795 Q28.3423,579.9097 28.9731,579.3287 Z " fill="#000000"/><text fill="#000000" font-family="sans-serif" font-size="14" lengthAdjust="spacing" textLength="32" x="41.5" y="581.1993">High</text><text fill="#000000" font-family="sans-serif" font-size="14" lengthAdjust="spacing" textLength="4" x="73.5" y="581.1993">&#160;</text><text fill="#000000" font-family="sans-serif" font-size="14" lengthAdjust="spacing" textLength="49" x="77.5" y="581.1993">Priority</text><text fill="#000000" font-family="sans-serif" font-size="14" lengthAdjust="spacing" textLength="4" x="126.5" y="581.1993">&#160;</text><text fill="#000000" font-family="sans-serif" font-size="14" lengthAdjust="spacing" textLength="71" x="130.5" y="581.1993">Consumer</text><line style="stroke:#181818;stroke-width:0.5;" x1="8" x2="208" y1="591.9083" y2="591.9083"/><line style="stroke:#181818;stroke-width:0.5;" x1="8" x2="208" y1="599.9083" y2="599.9083"/><ellipse cx="18" cy="613.6524" fill="#84BE84" rx="3" ry="3" style="stroke:#038048;stroke-width:1.0;"/><text fill="#000000" font-family="sans-serif" font-size="14" lengthAdjust="spacing" textLength="176" x="27" y="617.4434">processUrgentMessages()</text></g><!--class NormalConsumer--><g id="elem_NormalConsumer"><rect codeLine="37" fill="#F1F1F1" height="64.4883" id="NormalConsumer" rx="2.5" ry="2.5" style="stroke:#181818;stroke-width:0.5;" width="208" x="244" y="559.9083"/><ellipse cx="281.95" cy="575.9083" fill="#ADD1B2" rx="11" ry="11" style="stroke:#181818;stroke-width:1.0;"/><path d="M284.4231,582.0513 Q283.8421,582.3502 283.2029,582.4996 Q282.5638,582.649 281.8582,582.649 Q279.3514,582.649 278.0315,580.9971 Q276.7117,579.3453 276.7117,576.2242 Q276.7117,573.0948 278.0315,571.4429 Q279.3514,569.7911 281.8582,569.7911 Q282.5638,569.7911 283.2112,569.9405 Q283.8587,570.0899 284.4231,570.3888 L284.4231,573.1114 Q283.7923,572.5304 283.1988,572.2606 Q282.6053,571.9908 281.9744,571.9908 Q280.6297,571.9908 279.9449,573.0575 Q279.2601,574.1241 279.2601,576.2242 Q279.2601,578.316 279.9449,579.3826 Q280.6297,580.4493 281.9744,580.4493 Q282.6053,580.4493 283.1988,580.1795 Q283.7923,579.9097 284.4231,579.3287 Z " fill="#000000"/><text fill="#000000" font-family="sans-serif" font-size="14" lengthAdjust="spacing" textLength="50" x="301.05" y="581.1993">Normal</text><text fill="#000000" font-family="sans-serif" font-size="14" lengthAdjust="spacing" textLength="4" x="351.05" y="581.1993">&#160;</text><text fill="#000000" font-family="sans-serif" font-size="14" lengthAdjust="spacing" textLength="71" x="355.05" y="581.1993">Consumer</text><line style="stroke:#181818;stroke-width:0.5;" x1="245" x2="451" y1="591.9083" y2="591.9083"/><line style="stroke:#181818;stroke-width:0.5;" x1="245" x2="451" y1="599.9083" y2="599.9083"/><ellipse cx="255" cy="613.6524" fill="#84BE84" rx="3" ry="3" style="stroke:#038048;stroke-width:1.0;"/><text fill="#000000" font-family="sans-serif" font-size="14" lengthAdjust="spacing" textLength="182" x="264" y="617.4434">processRegularMessages()</text></g><!--class ErrorHandler--><g id="elem_ErrorHandler"><rect codeLine="41" fill="#F1F1F1" height="64.4883" id="ErrorHandler" rx="2.5" ry="2.5" style="stroke:#181818;stroke-width:0.5;" width="184" x="487" y="559.9083"/><ellipse cx="528.55" cy="575.9083" fill="#ADD1B2" rx="11" ry="11" style="stroke:#181818;stroke-width:1.0;"/><path d="M531.0231,582.0513 Q530.4421,582.3502 529.8029,582.4996 Q529.1638,582.649 528.4582,582.649 Q525.9514,582.649 524.6315,580.9971 Q523.3117,579.3453 523.3117,576.2242 Q523.3117,573.0948 524.6315,571.4429 Q525.9514,569.7911 528.4582,569.7911 Q529.1638,569.7911 529.8112,569.9405 Q530.4587,570.0899 531.0231,570.3888 L531.0231,573.1114 Q530.3923,572.5304 529.7988,572.2606 Q529.2053,571.9908 528.5744,571.9908 Q527.2297,571.9908 526.5449,573.0575 Q525.8601,574.1241 525.8601,576.2242 Q525.8601,578.316 526.5449,579.3826 Q527.2297,580.4493 528.5744,580.4493 Q529.2053,580.4493 529.7988,580.1795 Q530.3923,579.9097 531.0231,579.3287 Z " fill="#000000"/><text fill="#000000" font-family="sans-serif" font-size="14" lengthAdjust="spacing" textLength="35" x="548.45" y="581.1993">Error</text><text fill="#000000" font-family="sans-serif" font-size="14" lengthAdjust="spacing" textLength="4" x="583.45" y="581.1993">&#160;</text><text fill="#000000" font-family="sans-serif" font-size="14" lengthAdjust="spacing" textLength="54" x="587.45" y="581.1993">Handler</text><line style="stroke:#181818;stroke-width:0.5;" x1="488" x2="670" y1="591.9083" y2="591.9083"/><line style="stroke:#181818;stroke-width:0.5;" x1="488" x2="670" y1="599.9083" y2="599.9083"/><ellipse cx="498" cy="613.6524" fill="#84BE84" rx="3" ry="3" style="stroke:#038048;stroke-width:1.0;"/><text fill="#000000" font-family="sans-serif" font-size="14" lengthAdjust="spacing" textLength="158" x="507" y="617.4434">handleErrorMessages()</text></g><g id="elem_GMN17"><path d="M248.5,57.0083 L248.5,80.9783 L213.13,84.9783 L248.5,88.9783 L248.5,112.9399 A0,0 0 0 0 248.5,112.9399 L431.5,112.9399 A0,0 0 0 0 431.5,112.9399 L431.5,67.0083 L421.5,57.0083 L248.5,57.0083 A0,0 0 0 0 248.5,57.0083 " fill="#FEFFDD" style="stroke:#181818;stroke-width:0.5;"/><path d="M421.5,57.0083 L421.5,67.0083 L431.5,67.0083 L421.5,57.0083 " fill="#FEFFDD" style="stroke:#181818;stroke-width:0.5;"/><text fill="#000000" font-family="sans-serif" font-size="13" lengthAdjust="spacing" textLength="55" x="254.5" y="74.5766">Producer</text><text fill="#000000" font-family="sans-serif" font-size="13" lengthAdjust="spacing" textLength="4" x="309.5" y="74.5766">&#160;</text><text fill="#000000" font-family="sans-serif" font-size="13" lengthAdjust="spacing" textLength="37" x="313.5" y="74.5766">sends</text><text fill="#000000" font-family="sans-serif" font-size="13" lengthAdjust="spacing" textLength="4" x="350.5" y="74.5766">&#160;</text><text fill="#000000" font-family="sans-serif" font-size="13" lengthAdjust="spacing" textLength="62" x="354.5" y="74.5766">messages</text><text fill="#000000" font-family="sans-serif" font-size="13" lengthAdjust="spacing" textLength="27" x="266" y="89.8872">with</text><text fill="#000000" font-family="sans-serif" font-size="13" lengthAdjust="spacing" textLength="4" x="293" y="89.8872">&#160;</text><text fill="#000000" font-family="sans-serif" font-size="13" lengthAdjust="spacing" textLength="46" x="297" y="89.8872">routing</text><text fill="#000000" font-family="sans-serif" font-size="13" lengthAdjust="spacing" textLength="4" x="343" y="89.8872">&#160;</text><text fill="#000000" font-family="sans-serif" font-size="13" lengthAdjust="spacing" textLength="58" x="347" y="89.8872">metadata</text><text fill="#000000" font-family="sans-serif" font-size="13" lengthAdjust="spacing" textLength="54" x="275.5" y="105.1977">(priority,</text><text fill="#000000" font-family="sans-serif" font-size="13" lengthAdjust="spacing" textLength="4" x="329.5" y="105.1977">&#160;</text><text fill="#000000" font-family="sans-serif" font-size="13" lengthAdjust="spacing" textLength="31" x="333.5" y="105.1977">type,</text><text fill="#000000" font-family="sans-serif" font-size="13" lengthAdjust="spacing" textLength="4" x="364.5" y="105.1977">&#160;</text><text fill="#000000" font-family="sans-serif" font-size="13" lengthAdjust="spacing" textLength="27" x="368.5" y="105.1977">etc.)</text></g><g id="elem_GMN20"><path d="M466.5,49.3583 L466.5,120.6005 A0,0 0 0 0 466.5,120.6005 L513.31,120.6005 L405.18,215.1783 L521.31,120.6005 L651.5,120.6005 A0,0 0 0 0 651.5,120.6005 L651.5,59.3583 L641.5,49.3583 L466.5,49.3583 A0,0 0 0 0 466.5,49.3583 " fill="#FEFFDD" style="stroke:#181818;stroke-width:0.5;"/><path d="M641.5,49.3583 L641.5,59.3583 L651.5,59.3583 L641.5,49.3583 " fill="#FEFFDD" style="stroke:#181818;stroke-width:0.5;"/><text fill="#000000" font-family="sans-serif" font-size="13" lengthAdjust="spacing" textLength="41" x="472.5" y="66.9266">Router</text><text fill="#000000" font-family="sans-serif" font-size="13" lengthAdjust="spacing" textLength="4" x="513.5" y="66.9266">&#160;</text><text fill="#000000" font-family="sans-serif" font-size="13" lengthAdjust="spacing" textLength="60" x="517.5" y="66.9266">examines</text><text fill="#000000" font-family="sans-serif" font-size="13" lengthAdjust="spacing" textLength="4" x="577.5" y="66.9266">&#160;</text><text fill="#000000" font-family="sans-serif" font-size="13" lengthAdjust="spacing" textLength="55" x="581.5" y="66.9266">message</text><text fill="#000000" font-family="sans-serif" font-size="13" lengthAdjust="spacing" textLength="64" x="484.5" y="82.2372">properties</text><text fill="#000000" font-family="sans-serif" font-size="13" lengthAdjust="spacing" textLength="4" x="548.5" y="82.2372">&#160;</text><text fill="#000000" font-family="sans-serif" font-size="13" lengthAdjust="spacing" textLength="23" x="552.5" y="82.2372">and</text><text fill="#000000" font-family="sans-serif" font-size="13" lengthAdjust="spacing" textLength="4" x="575.5" y="82.2372">&#160;</text><text fill="#000000" font-family="sans-serif" font-size="13" lengthAdjust="spacing" textLength="45" x="579.5" y="82.2372">applies</text><text fill="#000000" font-family="sans-serif" font-size="13" lengthAdjust="spacing" textLength="46" x="485" y="97.5477">routing</text><text fill="#000000" font-family="sans-serif" font-size="13" lengthAdjust="spacing" textLength="4" x="531" y="97.5477">&#160;</text><text fill="#000000" font-family="sans-serif" font-size="13" lengthAdjust="spacing" textLength="31" x="535" y="97.5477">rules</text><text fill="#000000" font-family="sans-serif" font-size="13" lengthAdjust="spacing" textLength="4" x="566" y="97.5477">&#160;</text><text fill="#000000" font-family="sans-serif" font-size="13" lengthAdjust="spacing" textLength="13" x="570" y="97.5477">to</text><text fill="#000000" font-family="sans-serif" font-size="13" lengthAdjust="spacing" textLength="4" x="583" y="97.5477">&#160;</text><text fill="#000000" font-family="sans-serif" font-size="13" lengthAdjust="spacing" textLength="37" x="587" y="97.5477">select</text><text fill="#000000" font-family="sans-serif" font-size="13" lengthAdjust="spacing" textLength="72" x="481" y="112.8583">appropriate</text><text fill="#000000" font-family="sans-serif" font-size="13" lengthAdjust="spacing" textLength="4" x="553" y="112.8583">&#160;</text><text fill="#000000" font-family="sans-serif" font-size="13" lengthAdjust="spacing" textLength="71" x="557" y="112.8583">destination</text></g><g id="elem_GMN23"><path d="M10,685.3983 L10,741.3299 A0,0 0 0 0 10,741.3299 L206,741.3299 A0,0 0 0 0 206,741.3299 L206,695.3983 L196,685.3983 L112,685.3983 L108,624.7883 L104,685.3983 L10,685.3983 A0,0 0 0 0 10,685.3983 " fill="#FEFFDD" style="stroke:#181818;stroke-width:0.5;"/><path d="M196,685.3983 L196,695.3983 L206,695.3983 L196,685.3983 " fill="#FEFFDD" style="stroke:#181818;stroke-width:0.5;"/><text fill="#000000" font-family="sans-serif" font-size="13" lengthAdjust="spacing" textLength="56" x="16" y="702.9666">Different</text><text fill="#000000" font-family="sans-serif" font-size="13" lengthAdjust="spacing" textLength="4" x="72" y="702.9666">&#160;</text><text fill="#000000" font-family="sans-serif" font-size="13" lengthAdjust="spacing" textLength="69" x="76" y="702.9666">consumers</text><text fill="#000000" font-family="sans-serif" font-size="13" lengthAdjust="spacing" textLength="4" x="145" y="702.9666">&#160;</text><text fill="#000000" font-family="sans-serif" font-size="13" lengthAdjust="spacing" textLength="42" x="149" y="702.9666">handle</text><text fill="#000000" font-family="sans-serif" font-size="13" lengthAdjust="spacing" textLength="62" x="25.5" y="718.2772">messages</text><text fill="#000000" font-family="sans-serif" font-size="13" lengthAdjust="spacing" textLength="4" x="87.5" y="718.2772">&#160;</text><text fill="#000000" font-family="sans-serif" font-size="13" lengthAdjust="spacing" textLength="37" x="91.5" y="718.2772">based</text><text fill="#000000" font-family="sans-serif" font-size="13" lengthAdjust="spacing" textLength="4" x="128.5" y="718.2772">&#160;</text><text fill="#000000" font-family="sans-serif" font-size="13" lengthAdjust="spacing" textLength="16" x="132.5" y="718.2772">on</text><text fill="#000000" font-family="sans-serif" font-size="13" lengthAdjust="spacing" textLength="4" x="148.5" y="718.2772">&#160;</text><text fill="#000000" font-family="sans-serif" font-size="13" lengthAdjust="spacing" textLength="29" x="152.5" y="718.2772">their</text><text fill="#000000" font-family="sans-serif" font-size="13" lengthAdjust="spacing" textLength="46" x="43" y="733.5877">routing</text><text fill="#000000" font-family="sans-serif" font-size="13" lengthAdjust="spacing" textLength="4" x="89" y="733.5877">&#160;</text><text fill="#000000" font-family="sans-serif" font-size="13" lengthAdjust="spacing" textLength="71" x="93" y="733.5877">destination</text></g><!--link Producer to MessageRouter--><g id="link_Producer_MessageRouter"><path codeLine="45" d="M184.35,125.7483 C215.82,152.1783 252.7354,183.1896 286.0754,211.1896 " fill="none" id="Producer-to-MessageRouter" style="stroke:#666666;stroke-width:1.0;"/><polygon fill="#666666" points="290.67,215.0483,286.3506,206.1972,286.8412,211.8327,281.2056,212.3233,290.67,215.0483" style="stroke:#666666;stroke-width:1.0;"/><text fill="#666666" font-family="sans-serif" font-size="12" lengthAdjust="spacing" textLength="28" x="259.63" y="168.0698">Send</text><text fill="#666666" font-family="sans-serif" font-size="12" lengthAdjust="spacing" textLength="4" x="287.63" y="168.0698">&#160;</text><text fill="#666666" font-family="sans-serif" font-size="12" lengthAdjust="spacing" textLength="50" x="291.63" y="168.0698">Message</text><text fill="#666666" font-family="sans-serif" font-size="12" lengthAdjust="spacing" textLength="27" x="256.13" y="182.2027">[with</text><text fill="#666666" font-family="sans-serif" font-size="12" lengthAdjust="spacing" textLength="4" x="283.13" y="182.2027">&#160;</text><text fill="#666666" font-family="sans-serif" font-size="12" lengthAdjust="spacing" textLength="58" x="287.13" y="182.2027">Metadata]</text></g><!--link MessageRouter to HighPriorityQueue--><g id="link_MessageRouter_HighPriorityQueue"><path codeLine="46" d="M289.35,313.2283 C277.59,322.9883 265.36,333.2383 254,342.9283 C231.23,362.3583 210.721,380.3295 190.031,398.6595 " fill="none" id="MessageRouter-to-HighPriorityQueue" style="stroke:#666666;stroke-width:1.0;"/><polygon fill="#666666" points="185.54,402.6383,194.9291,399.6642,189.2825,399.3226,189.624,393.6761,185.54,402.6383" style="stroke:#666666;stroke-width:1.0;"/><text fill="#666666" font-family="sans-serif" font-size="12" lengthAdjust="spacing" textLength="33" x="280.5" y="355.5298">Route</text><text fill="#666666" font-family="sans-serif" font-size="12" lengthAdjust="spacing" textLength="84" x="255" y="369.6627">[Priority=High]</text></g><!--link MessageRouter to NormalQueue--><g id="link_MessageRouter_NormalQueue"><path codeLine="47" d="M348,313.1583 C348,341.1383 348,370.0383 348,396.5083 " fill="none" id="MessageRouter-to-NormalQueue" style="stroke:#666666;stroke-width:1.0;"/><polygon fill="#666666" points="348,402.5083,352,393.5083,348,397.5083,344,393.5083,348,402.5083" style="stroke:#666666;stroke-width:1.0;"/><text fill="#666666" font-family="sans-serif" font-size="12" lengthAdjust="spacing" textLength="33" x="382.5" y="355.5298">Route</text><text fill="#666666" font-family="sans-serif" font-size="12" lengthAdjust="spacing" textLength="100" x="349" y="369.6627">[Priority=Normal]</text></g><!--link MessageRouter to ErrorQueue--><g id="link_MessageRouter_ErrorQueue"><path codeLine="48" d="M419.69,313.3083 C432.72,322.7683 445.98,332.8783 458,342.9283 C480.09,361.4083 498.8808,379.4926 517.3408,398.3326 " fill="none" id="MessageRouter-to-ErrorQueue" style="stroke:#666666;stroke-width:1.0;"/><polygon fill="#666666" points="521.54,402.6183,518.0983,393.3904,518.0407,399.0469,512.3841,398.9893,521.54,402.6183" style="stroke:#666666;stroke-width:1.0;"/><text fill="#666666" font-family="sans-serif" font-size="12" lengthAdjust="spacing" textLength="33" x="526.92" y="355.5298">Route</text><text fill="#666666" font-family="sans-serif" font-size="12" lengthAdjust="spacing" textLength="41" x="490.92" y="369.6627">[Invalid</text><text fill="#666666" font-family="sans-serif" font-size="12" lengthAdjust="spacing" textLength="4" x="531.92" y="369.6627">&#160;</text><text fill="#666666" font-family="sans-serif" font-size="12" lengthAdjust="spacing" textLength="60" x="535.92" y="369.6627">Messages]</text></g><!--link HighPriorityQueue to HighPriorityConsumer--><g id="link_HighPriorityQueue_HighPriorityConsumer"><path codeLine="49" d="M132.07,484.1283 C126.73,507.8883 121.3459,531.8144 116.3759,553.9244 " fill="none" id="HighPriorityQueue-to-HighPriorityConsumer" style="stroke:#666666;stroke-width:1.0;"/><polygon fill="#666666" points="115.06,559.7783,120.9364,551.8746,116.1566,554.9,113.1312,550.1201,115.06,559.7783" style="stroke:#666666;stroke-width:1.0;"/><text fill="#666666" font-family="sans-serif" font-size="12" lengthAdjust="spacing" textLength="20" x="125.5" y="526.5098">Pull</text><text fill="#666666" font-family="sans-serif" font-size="12" lengthAdjust="spacing" textLength="4" x="145.5" y="526.5098">&#160;</text><text fill="#666666" font-family="sans-serif" font-size="12" lengthAdjust="spacing" textLength="50" x="149.5" y="526.5098">Message</text></g><!--link NormalQueue to NormalConsumer--><g id="link_NormalQueue_NormalConsumer"><path codeLine="50" d="M348,484.1283 C348,507.8883 348,531.6683 348,553.7783 " fill="none" id="NormalQueue-to-NormalConsumer" style="stroke:#666666;stroke-width:1.0;"/><polygon fill="#666666" points="348,559.7783,352,550.7783,348,554.7783,344,550.7783,348,559.7783" style="stroke:#666666;stroke-width:1.0;"/><text fill="#666666" font-family="sans-serif" font-size="12" lengthAdjust="spacing" textLength="20" x="349" y="526.5098">Pull</text><text fill="#666666" font-family="sans-serif" font-size="12" lengthAdjust="spacing" textLength="4" x="369" y="526.5098">&#160;</text><text fill="#666666" font-family="sans-serif" font-size="12" lengthAdjust="spacing" textLength="50" x="373" y="526.5098">Message</text></g><!--link ErrorQueue to ErrorHandler--><g id="link_ErrorQueue_ErrorHandler"><path codeLine="51" d="M564.41,484.1283 C567.65,507.8883 570.9006,531.7231 573.9106,553.8331 " fill="none" id="ErrorQueue-to-ErrorHandler" style="stroke:#666666;stroke-width:1.0;"/><polygon fill="#666666" points="574.72,559.7783,577.4694,550.321,574.0455,554.824,569.5425,551.4001,574.72,559.7783" style="stroke:#666666;stroke-width:1.0;"/><text fill="#666666" font-family="sans-serif" font-size="12" lengthAdjust="spacing" textLength="20" x="571.2" y="526.5098">Pull</text><text fill="#666666" font-family="sans-serif" font-size="12" lengthAdjust="spacing" textLength="4" x="591.2" y="526.5098">&#160;</text><text fill="#666666" font-family="sans-serif" font-size="12" lengthAdjust="spacing" textLength="50" x="595.2" y="526.5098">Message</text></g><!--SRC=[dLHDRzim3BthLwWvfLYJN7Ogi0536gm3sYBBsbCt38hDE09aoPEeTSMm_pxgmuwTE9UU33wIZuyYpGkf2-LBu7l4nbql5bQyp2k9Ux_r3cnXD8B6UM7gHQE4Hb-hcSDIoUrY-Nws3j3J_TsY5Wx14lHpIHb2Qh3pXc8PGuaA-3qu9ohW6-CfZgy5qaSpTb72ZeBvPhLy_FJm-Mx52oMSO-m0hAqfVK59VnddxtYJp4mulOoW0rq-caHEqBz-_cHOUyA5Q-LaDOdO1cD8Avf6lMwy0jVLKL3W3JYKMg0q-gJOhQps95aQA_6LV_NW8LOCU0j7D5S5_IjOqpeLJcLAIE0n-OEnjL0zrWIycMzbhR4zkcY_cMtOEks1ytL-xtxthUCmpuBOdsn5UvQVtvthV42Qi76w3LHU2NkMBtL-AtIfCbj4Cf2vzj6AZY5HjvApsSUZNRhcas-qZ2twNJ-_qCz49efIeFWnOSFum72w6yGI_PJUEZw4gD7q_XAC9IR_Q6fluBtCB_gtKBBhmL7ggSHZuTqSY6ZjbMgp9wolxw3tV7nFLAUn7Sn9CDC6WLiIWjpikcD1y-k658w3utc57NdYHCBlBdL5U9eCuTCcztB5yRM1AmvOp2zP66UeackXQKAbmMDISdvL-2DgEcXTFVBGIZPWKH98NSIZ8gEELe8D5uPuytaX3yLGafM2wfM7QtCiPMiGJHtKZ4s2U6xaRWUMVYnUPD3bhIPd-o9yAnoKt6YEUv2s9soqz7y0]--></g></svg>