<?xml version="1.0" encoding="us-ascii" standalone="no"?><svg xmlns="http://www.w3.org/2000/svg" xmlns:xlink="http://www.w3.org/1999/xlink" contentStyleType="text/css" height="678px" preserveAspectRatio="none" style="width:981px;height:678px;background:#FFFFFF;" version="1.1" viewBox="0 0 981 678" width="981px" zoomAndPan="magnify"><defs/><g><text fill="#000000" font-family="sans-serif" font-size="14" font-weight="bold" lengthAdjust="spacing" textLength="189" x="389.25" y="23.5352">Kafka Partitioning Pattern</text><!--class Producer--><g id="elem_Producer"><rect codeLine="7" fill="#F1F1F1" height="97.4648" id="Producer" rx="2.5" ry="2.5" style="stroke:#181818;stroke-width:0.5;" width="152" x="345.5" y="44.4883"/><ellipse cx="386.6" cy="60.4883" fill="#ADD1B2" rx="11" ry="11" style="stroke:#181818;stroke-width:1.0;"/><path d="M389.0731,66.6313 Q388.4921,66.9302 387.8529,67.0796 Q387.2138,67.229 386.5082,67.229 Q384.0014,67.229 382.6815,65.5771 Q381.3617,63.9253 381.3617,60.8042 Q381.3617,57.6748 382.6815,56.0229 Q384.0014,54.3711 386.5082,54.3711 Q387.2138,54.3711 387.8612,54.5205 Q388.5087,54.6699 389.0731,54.9688 L389.0731,57.6914 Q388.4423,57.1104 387.8488,56.8406 Q387.2553,56.5708 386.6244,56.5708 Q385.2797,56.5708 384.5949,57.6375 Q383.9101,58.7041 383.9101,60.8042 Q383.9101,62.896 384.5949,63.9626 Q385.2797,65.0293 386.6244,65.0293 Q387.2553,65.0293 387.8488,64.7595 Q388.4423,64.4897 389.0731,63.9087 Z " fill="#000000"/><text fill="#000000" font-family="sans-serif" font-size="14" lengthAdjust="spacing" textLength="62" x="406.4" y="65.7793">Producer</text><line style="stroke:#181818;stroke-width:0.5;" x1="346.5" x2="496.5" y1="76.4883" y2="76.4883"/><line style="stroke:#181818;stroke-width:0.5;" x1="346.5" x2="496.5" y1="84.4883" y2="84.4883"/><ellipse cx="356.5" cy="98.2324" fill="#84BE84" rx="3" ry="3" style="stroke:#038048;stroke-width:1.0;"/><text fill="#000000" font-family="sans-serif" font-size="14" lengthAdjust="spacing" textLength="126" x="365.5" y="102.0234">produceMessage()</text><ellipse cx="356.5" cy="114.7207" fill="#84BE84" rx="3" ry="3" style="stroke:#038048;stroke-width:1.0;"/><text fill="#000000" font-family="sans-serif" font-size="14" lengthAdjust="spacing" textLength="107" x="365.5" y="118.5117">selectPartition()</text><ellipse cx="356.5" cy="131.209" fill="#84BE84" rx="3" ry="3" style="stroke:#038048;stroke-width:1.0;"/><text fill="#000000" font-family="sans-serif" font-size="14" lengthAdjust="spacing" textLength="99" x="365.5" y="135">sendToKafka()</text></g><!--class KafkaTopic--><g id="elem_KafkaTopic"><rect codeLine="13" fill="#F1F1F1" height="97.4648" id="KafkaTopic" rx="2.5" ry="2.5" style="stroke:#181818;stroke-width:0.5;" width="164" x="566.5" y="231.9483"/><ellipse cx="604.9" cy="247.9483" fill="#ADD1B2" rx="11" ry="11" style="stroke:#181818;stroke-width:1.0;"/><path d="M607.3731,254.0913 Q606.7921,254.3902 606.1529,254.5396 Q605.5138,254.689 604.8082,254.689 Q602.3014,254.689 600.9815,253.0371 Q599.6617,251.3853 599.6617,248.2642 Q599.6617,245.1348 600.9815,243.4829 Q602.3014,241.8311 604.8082,241.8311 Q605.5138,241.8311 606.1612,241.9805 Q606.8087,242.1299 607.3731,242.4287 L607.3731,245.1514 Q606.7423,244.5704 606.1488,244.3006 Q605.5553,244.0308 604.9244,244.0308 Q603.5797,244.0308 602.8949,245.0975 Q602.2101,246.1641 602.2101,248.2642 Q602.2101,250.356 602.8949,251.4226 Q603.5797,252.4893 604.9244,252.4893 Q605.5553,252.4893 606.1488,252.2195 Q606.7423,251.9497 607.3731,251.3687 Z " fill="#000000"/><text fill="#000000" font-family="sans-serif" font-size="14" lengthAdjust="spacing" textLength="38" x="624.1" y="253.2393">Kafka</text><text fill="#000000" font-family="sans-serif" font-size="14" lengthAdjust="spacing" textLength="4" x="662.1" y="253.2393">&#160;</text><text fill="#000000" font-family="sans-serif" font-size="14" lengthAdjust="spacing" textLength="38" x="666.1" y="253.2393">Topic</text><line style="stroke:#181818;stroke-width:0.5;" x1="567.5" x2="729.5" y1="263.9483" y2="263.9483"/><ellipse cx="577.5" cy="277.6924" fill="none" rx="3" ry="3" style="stroke:#038048;stroke-width:1.0;"/><text fill="#000000" font-family="sans-serif" font-size="14" lengthAdjust="spacing" textLength="42" x="586.5" y="281.4834">name:</text><text fill="#000000" font-family="sans-serif" font-size="14" lengthAdjust="spacing" textLength="4" x="628.5" y="281.4834">&#160;</text><text fill="#000000" font-family="sans-serif" font-size="14" lengthAdjust="spacing" textLength="92" x="632.5" y="281.4834">"user-events"</text><ellipse cx="577.5" cy="294.1807" fill="none" rx="3" ry="3" style="stroke:#038048;stroke-width:1.0;"/><text fill="#000000" font-family="sans-serif" font-size="14" lengthAdjust="spacing" textLength="70" x="586.5" y="297.9717">partitions:</text><text fill="#000000" font-family="sans-serif" font-size="14" lengthAdjust="spacing" textLength="4" x="656.5" y="297.9717">&#160;</text><text fill="#000000" font-family="sans-serif" font-size="14" lengthAdjust="spacing" textLength="9" x="660.5" y="297.9717">3</text><ellipse cx="577.5" cy="310.669" fill="none" rx="3" ry="3" style="stroke:#038048;stroke-width:1.0;"/><text fill="#000000" font-family="sans-serif" font-size="14" lengthAdjust="spacing" textLength="120" x="586.5" y="314.46">replicationFactor:</text><text fill="#000000" font-family="sans-serif" font-size="14" lengthAdjust="spacing" textLength="4" x="706.5" y="314.46">&#160;</text><text fill="#000000" font-family="sans-serif" font-size="14" lengthAdjust="spacing" textLength="9" x="710.5" y="314.46">3</text><line style="stroke:#181818;stroke-width:0.5;" x1="567.5" x2="729.5" y1="321.4131" y2="321.4131"/></g><!--class Partition0--><g id="elem_Partition0"><rect codeLine="19" fill="#F1F1F1" height="80.9766" id="Partition0" rx="2.5" ry="2.5" style="stroke:#181818;stroke-width:0.5;" width="131" x="73" y="419.4183"/><ellipse cx="100.6" cy="435.4183" fill="#ADD1B2" rx="11" ry="11" style="stroke:#181818;stroke-width:1.0;"/><path d="M103.0731,441.5613 Q102.4921,441.8602 101.8529,442.0096 Q101.2138,442.159 100.5082,442.159 Q98.0014,442.159 96.6815,440.5071 Q95.3617,438.8553 95.3617,435.7342 Q95.3617,432.6048 96.6815,430.9529 Q98.0014,429.3011 100.5082,429.3011 Q101.2138,429.3011 101.8612,429.4505 Q102.5087,429.5999 103.0731,429.8988 L103.0731,432.6214 Q102.4423,432.0404 101.8488,431.7706 Q101.2553,431.5008 100.6244,431.5008 Q99.2797,431.5008 98.5949,432.5675 Q97.9101,433.6341 97.9101,435.7342 Q97.9101,437.826 98.5949,438.8926 Q99.2797,439.9593 100.6244,439.9593 Q101.2553,439.9593 101.8488,439.6895 Q102.4423,439.4197 103.0731,438.8387 Z " fill="#000000"/><text fill="#000000" font-family="sans-serif" font-size="14" lengthAdjust="spacing" textLength="58" x="117.4" y="440.7093">Partition</text><text fill="#000000" font-family="sans-serif" font-size="14" lengthAdjust="spacing" textLength="4" x="175.4" y="440.7093">&#160;</text><text fill="#000000" font-family="sans-serif" font-size="14" lengthAdjust="spacing" textLength="9" x="179.4" y="440.7093">0</text><line style="stroke:#181818;stroke-width:0.5;" x1="74" x2="203" y1="451.4183" y2="451.4183"/><ellipse cx="84" cy="465.1624" fill="none" rx="3" ry="3" style="stroke:#038048;stroke-width:1.0;"/><text fill="#000000" font-family="sans-serif" font-size="14" lengthAdjust="spacing" textLength="43" x="93" y="468.9534">offset:</text><text fill="#000000" font-family="sans-serif" font-size="14" lengthAdjust="spacing" textLength="4" x="136" y="468.9534">&#160;</text><text fill="#000000" font-family="sans-serif" font-size="14" lengthAdjust="spacing" textLength="53" x="140" y="468.9534">0-1000</text><ellipse cx="84" cy="481.6507" fill="none" rx="3" ry="3" style="stroke:#038048;stroke-width:1.0;"/><text fill="#000000" font-family="sans-serif" font-size="14" lengthAdjust="spacing" textLength="47" x="93" y="485.4417">leader:</text><text fill="#000000" font-family="sans-serif" font-size="14" lengthAdjust="spacing" textLength="4" x="140" y="485.4417">&#160;</text><text fill="#000000" font-family="sans-serif" font-size="14" lengthAdjust="spacing" textLength="54" x="144" y="485.4417">Broker1</text><line style="stroke:#181818;stroke-width:0.5;" x1="74" x2="203" y1="492.3948" y2="492.3948"/></g><!--class Partition1--><g id="elem_Partition1"><rect codeLine="24" fill="#F1F1F1" height="80.9766" id="Partition1" rx="2.5" ry="2.5" style="stroke:#181818;stroke-width:0.5;" width="131" x="749" y="419.4183"/><ellipse cx="776.6" cy="435.4183" fill="#ADD1B2" rx="11" ry="11" style="stroke:#181818;stroke-width:1.0;"/><path d="M779.0731,441.5613 Q778.4921,441.8602 777.8529,442.0096 Q777.2138,442.159 776.5082,442.159 Q774.0014,442.159 772.6815,440.5071 Q771.3617,438.8553 771.3617,435.7342 Q771.3617,432.6048 772.6815,430.9529 Q774.0014,429.3011 776.5082,429.3011 Q777.2138,429.3011 777.8612,429.4505 Q778.5087,429.5999 779.0731,429.8988 L779.0731,432.6214 Q778.4423,432.0404 777.8488,431.7706 Q777.2553,431.5008 776.6244,431.5008 Q775.2797,431.5008 774.5949,432.5675 Q773.9101,433.6341 773.9101,435.7342 Q773.9101,437.826 774.5949,438.8926 Q775.2797,439.9593 776.6244,439.9593 Q777.2553,439.9593 777.8488,439.6895 Q778.4423,439.4197 779.0731,438.8387 Z " fill="#000000"/><text fill="#000000" font-family="sans-serif" font-size="14" lengthAdjust="spacing" textLength="58" x="793.4" y="440.7093">Partition</text><text fill="#000000" font-family="sans-serif" font-size="14" lengthAdjust="spacing" textLength="4" x="851.4" y="440.7093">&#160;</text><text fill="#000000" font-family="sans-serif" font-size="14" lengthAdjust="spacing" textLength="9" x="855.4" y="440.7093">1</text><line style="stroke:#181818;stroke-width:0.5;" x1="750" x2="879" y1="451.4183" y2="451.4183"/><ellipse cx="760" cy="465.1624" fill="none" rx="3" ry="3" style="stroke:#038048;stroke-width:1.0;"/><text fill="#000000" font-family="sans-serif" font-size="14" lengthAdjust="spacing" textLength="43" x="769" y="468.9534">offset:</text><text fill="#000000" font-family="sans-serif" font-size="14" lengthAdjust="spacing" textLength="4" x="812" y="468.9534">&#160;</text><text fill="#000000" font-family="sans-serif" font-size="14" lengthAdjust="spacing" textLength="44" x="816" y="468.9534">0-800</text><ellipse cx="760" cy="481.6507" fill="none" rx="3" ry="3" style="stroke:#038048;stroke-width:1.0;"/><text fill="#000000" font-family="sans-serif" font-size="14" lengthAdjust="spacing" textLength="47" x="769" y="485.4417">leader:</text><text fill="#000000" font-family="sans-serif" font-size="14" lengthAdjust="spacing" textLength="4" x="816" y="485.4417">&#160;</text><text fill="#000000" font-family="sans-serif" font-size="14" lengthAdjust="spacing" textLength="54" x="820" y="485.4417">Broker2</text><line style="stroke:#181818;stroke-width:0.5;" x1="750" x2="879" y1="492.3948" y2="492.3948"/></g><!--class Partition2--><g id="elem_Partition2"><rect codeLine="29" fill="#F1F1F1" height="80.9766" id="Partition2" rx="2.5" ry="2.5" style="stroke:#181818;stroke-width:0.5;" width="131" x="583" y="419.4183"/><ellipse cx="610.6" cy="435.4183" fill="#ADD1B2" rx="11" ry="11" style="stroke:#181818;stroke-width:1.0;"/><path d="M613.0731,441.5613 Q612.4921,441.8602 611.8529,442.0096 Q611.2138,442.159 610.5082,442.159 Q608.0014,442.159 606.6815,440.5071 Q605.3617,438.8553 605.3617,435.7342 Q605.3617,432.6048 606.6815,430.9529 Q608.0014,429.3011 610.5082,429.3011 Q611.2138,429.3011 611.8612,429.4505 Q612.5087,429.5999 613.0731,429.8988 L613.0731,432.6214 Q612.4423,432.0404 611.8488,431.7706 Q611.2553,431.5008 610.6244,431.5008 Q609.2797,431.5008 608.5949,432.5675 Q607.9101,433.6341 607.9101,435.7342 Q607.9101,437.826 608.5949,438.8926 Q609.2797,439.9593 610.6244,439.9593 Q611.2553,439.9593 611.8488,439.6895 Q612.4423,439.4197 613.0731,438.8387 Z " fill="#000000"/><text fill="#000000" font-family="sans-serif" font-size="14" lengthAdjust="spacing" textLength="58" x="627.4" y="440.7093">Partition</text><text fill="#000000" font-family="sans-serif" font-size="14" lengthAdjust="spacing" textLength="4" x="685.4" y="440.7093">&#160;</text><text fill="#000000" font-family="sans-serif" font-size="14" lengthAdjust="spacing" textLength="9" x="689.4" y="440.7093">2</text><line style="stroke:#181818;stroke-width:0.5;" x1="584" x2="713" y1="451.4183" y2="451.4183"/><ellipse cx="594" cy="465.1624" fill="none" rx="3" ry="3" style="stroke:#038048;stroke-width:1.0;"/><text fill="#000000" font-family="sans-serif" font-size="14" lengthAdjust="spacing" textLength="43" x="603" y="468.9534">offset:</text><text fill="#000000" font-family="sans-serif" font-size="14" lengthAdjust="spacing" textLength="4" x="646" y="468.9534">&#160;</text><text fill="#000000" font-family="sans-serif" font-size="14" lengthAdjust="spacing" textLength="53" x="650" y="468.9534">0-1200</text><ellipse cx="594" cy="481.6507" fill="none" rx="3" ry="3" style="stroke:#038048;stroke-width:1.0;"/><text fill="#000000" font-family="sans-serif" font-size="14" lengthAdjust="spacing" textLength="47" x="603" y="485.4417">leader:</text><text fill="#000000" font-family="sans-serif" font-size="14" lengthAdjust="spacing" textLength="4" x="650" y="485.4417">&#160;</text><text fill="#000000" font-family="sans-serif" font-size="14" lengthAdjust="spacing" textLength="54" x="654" y="485.4417">Broker3</text><line style="stroke:#181818;stroke-width:0.5;" x1="584" x2="713" y1="492.3948" y2="492.3948"/></g><!--class ConsumerGroup--><g id="elem_ConsumerGroup"><rect codeLine="34" fill="#F1F1F1" height="80.9766" id="ConsumerGroup" rx="2.5" ry="2.5" style="stroke:#181818;stroke-width:0.5;" width="212" x="263.5" y="419.4183"/><ellipse cx="306.4" cy="435.4183" fill="#ADD1B2" rx="11" ry="11" style="stroke:#181818;stroke-width:1.0;"/><path d="M308.8731,441.5613 Q308.2921,441.8602 307.6529,442.0096 Q307.0138,442.159 306.3082,442.159 Q303.8014,442.159 302.4815,440.5071 Q301.1617,438.8553 301.1617,435.7342 Q301.1617,432.6048 302.4815,430.9529 Q303.8014,429.3011 306.3082,429.3011 Q307.0138,429.3011 307.6612,429.4505 Q308.3087,429.5999 308.8731,429.8988 L308.8731,432.6214 Q308.2423,432.0404 307.6488,431.7706 Q307.0553,431.5008 306.4244,431.5008 Q305.0797,431.5008 304.3949,432.5675 Q303.7101,433.6341 303.7101,435.7342 Q303.7101,437.826 304.3949,438.8926 Q305.0797,439.9593 306.4244,439.9593 Q307.0553,439.9593 307.6488,439.6895 Q308.2423,439.4197 308.8731,438.8387 Z " fill="#000000"/><text fill="#000000" font-family="sans-serif" font-size="14" lengthAdjust="spacing" textLength="71" x="326.6" y="440.7093">Consumer</text><text fill="#000000" font-family="sans-serif" font-size="14" lengthAdjust="spacing" textLength="4" x="397.6" y="440.7093">&#160;</text><text fill="#000000" font-family="sans-serif" font-size="14" lengthAdjust="spacing" textLength="43" x="401.6" y="440.7093">Group</text><line style="stroke:#181818;stroke-width:0.5;" x1="264.5" x2="474.5" y1="451.4183" y2="451.4183"/><ellipse cx="274.5" cy="465.1624" fill="none" rx="3" ry="3" style="stroke:#038048;stroke-width:1.0;"/><text fill="#000000" font-family="sans-serif" font-size="14" lengthAdjust="spacing" textLength="59" x="283.5" y="468.9534">groupId:</text><text fill="#000000" font-family="sans-serif" font-size="14" lengthAdjust="spacing" textLength="4" x="342.5" y="468.9534">&#160;</text><text fill="#000000" font-family="sans-serif" font-size="14" lengthAdjust="spacing" textLength="123" x="346.5" y="468.9534">"user-processors"</text><line style="stroke:#181818;stroke-width:0.5;" x1="264.5" x2="474.5" y1="475.9066" y2="475.9066"/><ellipse cx="274.5" cy="489.6507" fill="#84BE84" rx="3" ry="3" style="stroke:#038048;stroke-width:1.0;"/><text fill="#000000" font-family="sans-serif" font-size="14" lengthAdjust="spacing" textLength="128" x="283.5" y="493.4417">balancePartitions()</text></g><!--class ConsumerA--><g id="elem_ConsumerA"><rect codeLine="39" fill="#F1F1F1" height="80.9766" id="ConsumerA" rx="2.5" ry="2.5" style="stroke:#181818;stroke-width:0.5;" width="179" x="7" y="590.3883"/><ellipse cx="49.9" cy="606.3883" fill="#ADD1B2" rx="11" ry="11" style="stroke:#181818;stroke-width:1.0;"/><path d="M52.3731,612.5313 Q51.7921,612.8302 51.1529,612.9796 Q50.5138,613.129 49.8082,613.129 Q47.3014,613.129 45.9815,611.4771 Q44.6617,609.8253 44.6617,606.7042 Q44.6617,603.5748 45.9815,601.9229 Q47.3014,600.2711 49.8082,600.2711 Q50.5138,600.2711 51.1612,600.4205 Q51.8087,600.5699 52.3731,600.8688 L52.3731,603.5914 Q51.7423,603.0104 51.1488,602.7406 Q50.5553,602.4708 49.9244,602.4708 Q48.5797,602.4708 47.8949,603.5375 Q47.2101,604.6041 47.2101,606.7042 Q47.2101,608.796 47.8949,609.8626 Q48.5797,610.9293 49.9244,610.9293 Q50.5553,610.9293 51.1488,610.6595 Q51.7423,610.3897 52.3731,609.8087 Z " fill="#000000"/><text fill="#000000" font-family="sans-serif" font-size="14" lengthAdjust="spacing" textLength="71" x="70.1" y="611.6793">Consumer</text><text fill="#000000" font-family="sans-serif" font-size="14" lengthAdjust="spacing" textLength="4" x="141.1" y="611.6793">&#160;</text><text fill="#000000" font-family="sans-serif" font-size="14" lengthAdjust="spacing" textLength="10" x="145.1" y="611.6793">A</text><line style="stroke:#181818;stroke-width:0.5;" x1="8" x2="185" y1="622.3883" y2="622.3883"/><ellipse cx="18" cy="636.1324" fill="none" rx="3" ry="3" style="stroke:#038048;stroke-width:1.0;"/><text fill="#000000" font-family="sans-serif" font-size="14" lengthAdjust="spacing" textLength="130" x="27" y="639.9234">assignedPartitions:</text><text fill="#000000" font-family="sans-serif" font-size="14" lengthAdjust="spacing" textLength="4" x="157" y="639.9234">&#160;</text><text fill="#000000" font-family="sans-serif" font-size="14" lengthAdjust="spacing" textLength="19" x="161" y="639.9234">[0]</text><line style="stroke:#181818;stroke-width:0.5;" x1="8" x2="185" y1="646.8766" y2="646.8766"/><ellipse cx="18" cy="660.6207" fill="#84BE84" rx="3" ry="3" style="stroke:#038048;stroke-width:1.0;"/><text fill="#000000" font-family="sans-serif" font-size="14" lengthAdjust="spacing" textLength="129" x="27" y="664.4117">processMessages()</text></g><!--class ConsumerB--><g id="elem_ConsumerB"><rect codeLine="44" fill="#F1F1F1" height="80.9766" id="ConsumerB" rx="2.5" ry="2.5" style="stroke:#181818;stroke-width:0.5;" width="179" x="718" y="590.3883"/><ellipse cx="761.8" cy="606.3883" fill="#ADD1B2" rx="11" ry="11" style="stroke:#181818;stroke-width:1.0;"/><path d="M764.2731,612.5313 Q763.6921,612.8302 763.0529,612.9796 Q762.4138,613.129 761.7082,613.129 Q759.2014,613.129 757.8815,611.4771 Q756.5617,609.8253 756.5617,606.7042 Q756.5617,603.5748 757.8815,601.9229 Q759.2014,600.2711 761.7082,600.2711 Q762.4138,600.2711 763.0612,600.4205 Q763.7087,600.5699 764.2731,600.8688 L764.2731,603.5914 Q763.6423,603.0104 763.0488,602.7406 Q762.4553,602.4708 761.8244,602.4708 Q760.4797,602.4708 759.7949,603.5375 Q759.1101,604.6041 759.1101,606.7042 Q759.1101,608.796 759.7949,609.8626 Q760.4797,610.9293 761.8244,610.9293 Q762.4553,610.9293 763.0488,610.6595 Q763.6423,610.3897 764.2731,609.8087 Z " fill="#000000"/><text fill="#000000" font-family="sans-serif" font-size="14" lengthAdjust="spacing" textLength="71" x="782.2" y="611.6793">Consumer</text><text fill="#000000" font-family="sans-serif" font-size="14" lengthAdjust="spacing" textLength="4" x="853.2" y="611.6793">&#160;</text><text fill="#000000" font-family="sans-serif" font-size="14" lengthAdjust="spacing" textLength="8" x="857.2" y="611.6793">B</text><line style="stroke:#181818;stroke-width:0.5;" x1="719" x2="896" y1="622.3883" y2="622.3883"/><ellipse cx="729" cy="636.1324" fill="none" rx="3" ry="3" style="stroke:#038048;stroke-width:1.0;"/><text fill="#000000" font-family="sans-serif" font-size="14" lengthAdjust="spacing" textLength="130" x="738" y="639.9234">assignedPartitions:</text><text fill="#000000" font-family="sans-serif" font-size="14" lengthAdjust="spacing" textLength="4" x="868" y="639.9234">&#160;</text><text fill="#000000" font-family="sans-serif" font-size="14" lengthAdjust="spacing" textLength="19" x="872" y="639.9234">[1]</text><line style="stroke:#181818;stroke-width:0.5;" x1="719" x2="896" y1="646.8766" y2="646.8766"/><ellipse cx="729" cy="660.6207" fill="#84BE84" rx="3" ry="3" style="stroke:#038048;stroke-width:1.0;"/><text fill="#000000" font-family="sans-serif" font-size="14" lengthAdjust="spacing" textLength="129" x="738" y="664.4117">processMessages()</text></g><!--class ConsumerC--><g id="elem_ConsumerC"><rect codeLine="49" fill="#F1F1F1" height="80.9766" id="ConsumerC" rx="2.5" ry="2.5" style="stroke:#181818;stroke-width:0.5;" width="179" x="497" y="590.3883"/><ellipse cx="539.9" cy="606.3883" fill="#ADD1B2" rx="11" ry="11" style="stroke:#181818;stroke-width:1.0;"/><path d="M542.3731,612.5313 Q541.7921,612.8302 541.1529,612.9796 Q540.5138,613.129 539.8082,613.129 Q537.3014,613.129 535.9815,611.4771 Q534.6617,609.8253 534.6617,606.7042 Q534.6617,603.5748 535.9815,601.9229 Q537.3014,600.2711 539.8082,600.2711 Q540.5138,600.2711 541.1612,600.4205 Q541.8087,600.5699 542.3731,600.8688 L542.3731,603.5914 Q541.7423,603.0104 541.1488,602.7406 Q540.5553,602.4708 539.9244,602.4708 Q538.5797,602.4708 537.8949,603.5375 Q537.2101,604.6041 537.2101,606.7042 Q537.2101,608.796 537.8949,609.8626 Q538.5797,610.9293 539.9244,610.9293 Q540.5553,610.9293 541.1488,610.6595 Q541.7423,610.3897 542.3731,609.8087 Z " fill="#000000"/><text fill="#000000" font-family="sans-serif" font-size="14" lengthAdjust="spacing" textLength="71" x="560.1" y="611.6793">Consumer</text><text fill="#000000" font-family="sans-serif" font-size="14" lengthAdjust="spacing" textLength="4" x="631.1" y="611.6793">&#160;</text><text fill="#000000" font-family="sans-serif" font-size="14" lengthAdjust="spacing" textLength="10" x="635.1" y="611.6793">C</text><line style="stroke:#181818;stroke-width:0.5;" x1="498" x2="675" y1="622.3883" y2="622.3883"/><ellipse cx="508" cy="636.1324" fill="none" rx="3" ry="3" style="stroke:#038048;stroke-width:1.0;"/><text fill="#000000" font-family="sans-serif" font-size="14" lengthAdjust="spacing" textLength="130" x="517" y="639.9234">assignedPartitions:</text><text fill="#000000" font-family="sans-serif" font-size="14" lengthAdjust="spacing" textLength="4" x="647" y="639.9234">&#160;</text><text fill="#000000" font-family="sans-serif" font-size="14" lengthAdjust="spacing" textLength="19" x="651" y="639.9234">[2]</text><line style="stroke:#181818;stroke-width:0.5;" x1="498" x2="675" y1="646.8766" y2="646.8766"/><ellipse cx="508" cy="660.6207" fill="#84BE84" rx="3" ry="3" style="stroke:#038048;stroke-width:1.0;"/><text fill="#000000" font-family="sans-serif" font-size="14" lengthAdjust="spacing" textLength="129" x="517" y="664.4117">processMessages()</text></g><g id="elem_GMN21"><path d="M532,57.5983 L532,89.2183 L497.99,93.2183 L532,97.2183 L532,128.8405 A0,0 0 0 0 532,128.8405 L739,128.8405 A0,0 0 0 0 739,128.8405 L739,67.5983 L729,57.5983 L532,57.5983 A0,0 0 0 0 532,57.5983 " fill="#FEFFDD" style="stroke:#181818;stroke-width:0.5;"/><path d="M729,57.5983 L729,67.5983 L739,67.5983 L729,57.5983 " fill="#FEFFDD" style="stroke:#181818;stroke-width:0.5;"/><text fill="#000000" font-family="sans-serif" font-size="13" lengthAdjust="spacing" textLength="55" x="538" y="75.1666">Producer</text><text fill="#000000" font-family="sans-serif" font-size="13" lengthAdjust="spacing" textLength="4" x="593" y="75.1666">&#160;</text><text fill="#000000" font-family="sans-serif" font-size="13" lengthAdjust="spacing" textLength="61" x="597" y="75.1666">partitions</text><text fill="#000000" font-family="sans-serif" font-size="13" lengthAdjust="spacing" textLength="4" x="658" y="75.1666">&#160;</text><text fill="#000000" font-family="sans-serif" font-size="13" lengthAdjust="spacing" textLength="62" x="662" y="75.1666">messages</text><text fill="#000000" font-family="sans-serif" font-size="13" lengthAdjust="spacing" textLength="37" x="541" y="90.4772">based</text><text fill="#000000" font-family="sans-serif" font-size="13" lengthAdjust="spacing" textLength="4" x="578" y="90.4772">&#160;</text><text fill="#000000" font-family="sans-serif" font-size="13" lengthAdjust="spacing" textLength="16" x="582" y="90.4772">on</text><text fill="#000000" font-family="sans-serif" font-size="13" lengthAdjust="spacing" textLength="4" x="598" y="90.4772">&#160;</text><text fill="#000000" font-family="sans-serif" font-size="13" lengthAdjust="spacing" textLength="22" x="602" y="90.4772">key</text><text fill="#000000" font-family="sans-serif" font-size="13" lengthAdjust="spacing" textLength="4" x="624" y="90.4772">&#160;</text><text fill="#000000" font-family="sans-serif" font-size="13" lengthAdjust="spacing" textLength="30" x="628" y="90.4772">hash</text><text fill="#000000" font-family="sans-serif" font-size="13" lengthAdjust="spacing" textLength="4" x="658" y="90.4772">&#160;</text><text fill="#000000" font-family="sans-serif" font-size="13" lengthAdjust="spacing" textLength="13" x="662" y="90.4772">to</text><text fill="#000000" font-family="sans-serif" font-size="13" lengthAdjust="spacing" textLength="4" x="675" y="90.4772">&#160;</text><text fill="#000000" font-family="sans-serif" font-size="13" lengthAdjust="spacing" textLength="42" x="679" y="90.4772">ensure</text><text fill="#000000" font-family="sans-serif" font-size="13" lengthAdjust="spacing" textLength="43" x="558" y="105.7877">related</text><text fill="#000000" font-family="sans-serif" font-size="13" lengthAdjust="spacing" textLength="4" x="601" y="105.7877">&#160;</text><text fill="#000000" font-family="sans-serif" font-size="13" lengthAdjust="spacing" textLength="62" x="605" y="105.7877">messages</text><text fill="#000000" font-family="sans-serif" font-size="13" lengthAdjust="spacing" textLength="4" x="667" y="105.7877">&#160;</text><text fill="#000000" font-family="sans-serif" font-size="13" lengthAdjust="spacing" textLength="16" x="671" y="105.7877">go</text><text fill="#000000" font-family="sans-serif" font-size="13" lengthAdjust="spacing" textLength="4" x="687" y="105.7877">&#160;</text><text fill="#000000" font-family="sans-serif" font-size="13" lengthAdjust="spacing" textLength="13" x="691" y="105.7877">to</text><text fill="#000000" font-family="sans-serif" font-size="13" lengthAdjust="spacing" textLength="33" x="585.5" y="121.0983">same</text><text fill="#000000" font-family="sans-serif" font-size="13" lengthAdjust="spacing" textLength="4" x="618.5" y="121.0983">&#160;</text><text fill="#000000" font-family="sans-serif" font-size="13" lengthAdjust="spacing" textLength="54" x="622.5" y="121.0983">partition</text></g><g id="elem_GMN24"><path d="M774.5,57.5983 L774.5,128.8405 A0,0 0 0 0 774.5,128.8405 L827.73,128.8405 L706.89,231.7683 L835.73,128.8405 L974.5,128.8405 A0,0 0 0 0 974.5,128.8405 L974.5,67.5983 L964.5,57.5983 L774.5,57.5983 A0,0 0 0 0 774.5,57.5983 " fill="#FEFFDD" style="stroke:#181818;stroke-width:0.5;"/><path d="M964.5,57.5983 L964.5,67.5983 L974.5,67.5983 L964.5,57.5983 " fill="#FEFFDD" style="stroke:#181818;stroke-width:0.5;"/><text fill="#000000" font-family="sans-serif" font-size="13" lengthAdjust="spacing" textLength="35" x="780.5" y="75.1666">Kafka</text><text fill="#000000" font-family="sans-serif" font-size="13" lengthAdjust="spacing" textLength="4" x="815.5" y="75.1666">&#160;</text><text fill="#000000" font-family="sans-serif" font-size="13" lengthAdjust="spacing" textLength="32" x="819.5" y="75.1666">topic</text><text fill="#000000" font-family="sans-serif" font-size="13" lengthAdjust="spacing" textLength="4" x="851.5" y="75.1666">&#160;</text><text fill="#000000" font-family="sans-serif" font-size="13" lengthAdjust="spacing" textLength="27" x="855.5" y="75.1666">with</text><text fill="#000000" font-family="sans-serif" font-size="13" lengthAdjust="spacing" textLength="4" x="882.5" y="75.1666">&#160;</text><text fill="#000000" font-family="sans-serif" font-size="13" lengthAdjust="spacing" textLength="8" x="886.5" y="75.1666">3</text><text fill="#000000" font-family="sans-serif" font-size="13" lengthAdjust="spacing" textLength="4" x="894.5" y="75.1666">&#160;</text><text fill="#000000" font-family="sans-serif" font-size="13" lengthAdjust="spacing" textLength="61" x="898.5" y="75.1666">partitions</text><text fill="#000000" font-family="sans-serif" font-size="13" lengthAdjust="spacing" textLength="48" x="784.5" y="90.4772">enables</text><text fill="#000000" font-family="sans-serif" font-size="13" lengthAdjust="spacing" textLength="4" x="832.5" y="90.4772">&#160;</text><text fill="#000000" font-family="sans-serif" font-size="13" lengthAdjust="spacing" textLength="46" x="836.5" y="90.4772">parallel</text><text fill="#000000" font-family="sans-serif" font-size="13" lengthAdjust="spacing" textLength="4" x="882.5" y="90.4772">&#160;</text><text fill="#000000" font-family="sans-serif" font-size="13" lengthAdjust="spacing" textLength="69" x="886.5" y="90.4772">processing</text><text fill="#000000" font-family="sans-serif" font-size="13" lengthAdjust="spacing" textLength="33" x="795.5" y="105.7877">while</text><text fill="#000000" font-family="sans-serif" font-size="13" lengthAdjust="spacing" textLength="4" x="828.5" y="105.7877">&#160;</text><text fill="#000000" font-family="sans-serif" font-size="13" lengthAdjust="spacing" textLength="75" x="832.5" y="105.7877">maintaining</text><text fill="#000000" font-family="sans-serif" font-size="13" lengthAdjust="spacing" textLength="4" x="907.5" y="105.7877">&#160;</text><text fill="#000000" font-family="sans-serif" font-size="13" lengthAdjust="spacing" textLength="33" x="911.5" y="105.7877">order</text><text fill="#000000" font-family="sans-serif" font-size="13" lengthAdjust="spacing" textLength="39" x="805" y="121.0983">within</text><text fill="#000000" font-family="sans-serif" font-size="13" lengthAdjust="spacing" textLength="4" x="844" y="121.0983">&#160;</text><text fill="#000000" font-family="sans-serif" font-size="13" lengthAdjust="spacing" textLength="29" x="848" y="121.0983">each</text><text fill="#000000" font-family="sans-serif" font-size="13" lengthAdjust="spacing" textLength="4" x="877" y="121.0983">&#160;</text><text fill="#000000" font-family="sans-serif" font-size="13" lengthAdjust="spacing" textLength="54" x="881" y="121.0983">partition</text></g><g id="elem_GMN27"><path d="M233,602.9183 L233,658.8499 A0,0 0 0 0 233,658.8499 L448,658.8499 A0,0 0 0 0 448,658.8499 L448,612.9183 L438,602.9183 L349.18,602.9183 L362.7,500.5183 L341.18,602.9183 L233,602.9183 A0,0 0 0 0 233,602.9183 " fill="#FEFFDD" style="stroke:#181818;stroke-width:0.5;"/><path d="M438,602.9183 L438,612.9183 L448,612.9183 L438,602.9183 " fill="#FEFFDD" style="stroke:#181818;stroke-width:0.5;"/><text fill="#000000" font-family="sans-serif" font-size="13" lengthAdjust="spacing" textLength="64" x="239" y="620.4866">Consumer</text><text fill="#000000" font-family="sans-serif" font-size="13" lengthAdjust="spacing" textLength="4" x="303" y="620.4866">&#160;</text><text fill="#000000" font-family="sans-serif" font-size="13" lengthAdjust="spacing" textLength="37" x="307" y="620.4866">group</text><text fill="#000000" font-family="sans-serif" font-size="13" lengthAdjust="spacing" textLength="4" x="344" y="620.4866">&#160;</text><text fill="#000000" font-family="sans-serif" font-size="13" lengthAdjust="spacing" textLength="85" x="348" y="620.4866">automatically</text><text fill="#000000" font-family="sans-serif" font-size="13" lengthAdjust="spacing" textLength="55" x="241" y="635.7972">balances</text><text fill="#000000" font-family="sans-serif" font-size="13" lengthAdjust="spacing" textLength="4" x="296" y="635.7972">&#160;</text><text fill="#000000" font-family="sans-serif" font-size="13" lengthAdjust="spacing" textLength="54" x="300" y="635.7972">partition</text><text fill="#000000" font-family="sans-serif" font-size="13" lengthAdjust="spacing" textLength="4" x="354" y="635.7972">&#160;</text><text fill="#000000" font-family="sans-serif" font-size="13" lengthAdjust="spacing" textLength="73" x="358" y="635.7972">assignment</text><text fill="#000000" font-family="sans-serif" font-size="13" lengthAdjust="spacing" textLength="43" x="248.5" y="651.1077">among</text><text fill="#000000" font-family="sans-serif" font-size="13" lengthAdjust="spacing" textLength="4" x="291.5" y="651.1077">&#160;</text><text fill="#000000" font-family="sans-serif" font-size="13" lengthAdjust="spacing" textLength="55" x="295.5" y="651.1077">available</text><text fill="#000000" font-family="sans-serif" font-size="13" lengthAdjust="spacing" textLength="4" x="350.5" y="651.1077">&#160;</text><text fill="#000000" font-family="sans-serif" font-size="13" lengthAdjust="spacing" textLength="69" x="354.5" y="651.1077">consumers</text></g><!--link Producer to KafkaTopic--><g id="link_Producer_KafkaTopic"><path codeLine="54" d="M480.25,142.2183 C513.88,169.6983 551.2936,200.2622 584.9536,227.7622 " fill="none" id="Producer-to-KafkaTopic" style="stroke:#666666;stroke-width:1.0;"/><polygon fill="#666666" points="589.6,231.5583,585.1611,222.7665,585.728,228.3948,580.0996,228.9617,589.6,231.5583" style="stroke:#666666;stroke-width:1.0;"/><text fill="#666666" font-family="sans-serif" font-size="12" lengthAdjust="spacing" textLength="41" x="555.59" y="184.5498">Publish</text><text fill="#666666" font-family="sans-serif" font-size="12" lengthAdjust="spacing" textLength="4" x="596.59" y="184.5498">&#160;</text><text fill="#666666" font-family="sans-serif" font-size="12" lengthAdjust="spacing" textLength="56" x="600.59" y="184.5498">Messages</text><text fill="#666666" font-family="sans-serif" font-size="12" lengthAdjust="spacing" textLength="66" x="549.59" y="198.6827">[Partitioned</text><text fill="#666666" font-family="sans-serif" font-size="12" lengthAdjust="spacing" textLength="4" x="615.59" y="198.6827">&#160;</text><text fill="#666666" font-family="sans-serif" font-size="12" lengthAdjust="spacing" textLength="14" x="619.59" y="198.6827">by</text><text fill="#666666" font-family="sans-serif" font-size="12" lengthAdjust="spacing" textLength="4" x="633.59" y="198.6827">&#160;</text><text fill="#666666" font-family="sans-serif" font-size="12" lengthAdjust="spacing" textLength="25" x="637.59" y="198.6827">Key]</text></g><!--link KafkaTopic to Partition0--><g id="link_KafkaTopic_Partition0"><path codeLine="55" d="M566.33,309.2883 C484.97,336.7483 356.9,380.3283 246.5,419.4183 C232.86,424.2483 223.9176,427.4546 210.0276,432.5146 " fill="none" id="KafkaTopic-to-Partition0" style="stroke:#666666;stroke-width:1.0;"/><polygon fill="#666666" points="204.39,434.5683,214.2155,435.2461,209.088,432.8569,211.4772,427.7293,204.39,434.5683" style="stroke:#666666;stroke-width:1.0;"/><text fill="#666666" font-family="sans-serif" font-size="12" lengthAdjust="spacing" textLength="56" x="440.84" y="372.0198">Messages</text><text fill="#666666" font-family="sans-serif" font-size="12" lengthAdjust="spacing" textLength="25" x="412.84" y="386.1527">[Key</text><text fill="#666666" font-family="sans-serif" font-size="12" lengthAdjust="spacing" textLength="4" x="437.84" y="386.1527">&#160;</text><text fill="#666666" font-family="sans-serif" font-size="12" lengthAdjust="spacing" textLength="29" x="441.84" y="386.1527">Hash</text><text fill="#666666" font-family="sans-serif" font-size="12" lengthAdjust="spacing" textLength="4" x="470.84" y="386.1527">&#160;</text><text fill="#666666" font-family="sans-serif" font-size="12" lengthAdjust="spacing" textLength="8" x="474.84" y="386.1527">%</text><text fill="#666666" font-family="sans-serif" font-size="12" lengthAdjust="spacing" textLength="4" x="482.84" y="386.1527">&#160;</text><text fill="#666666" font-family="sans-serif" font-size="12" lengthAdjust="spacing" textLength="8" x="486.84" y="386.1527">3</text><text fill="#666666" font-family="sans-serif" font-size="12" lengthAdjust="spacing" textLength="4" x="494.84" y="386.1527">&#160;</text><text fill="#666666" font-family="sans-serif" font-size="12" lengthAdjust="spacing" textLength="10" x="498.84" y="386.1527">=</text><text fill="#666666" font-family="sans-serif" font-size="12" lengthAdjust="spacing" textLength="4" x="508.84" y="386.1527">&#160;</text><text fill="#666666" font-family="sans-serif" font-size="12" lengthAdjust="spacing" textLength="12" x="512.84" y="386.1527">0]</text></g><!--link KafkaTopic to Partition1--><g id="link_KafkaTopic_Partition1"><path codeLine="56" d="M730.78,325.3083 C744.87,335.2283 758.49,346.6583 769.5,359.4183 C784.37,376.6283 793.0774,393.9488 800.3774,413.4588 " fill="none" id="KafkaTopic-to-Partition1" style="stroke:#666666;stroke-width:1.0;"/><polygon fill="#666666" points="802.48,419.0783,803.0724,409.2473,800.7278,414.3954,795.5797,412.0508,802.48,419.0783" style="stroke:#666666;stroke-width:1.0;"/><text fill="#666666" font-family="sans-serif" font-size="12" lengthAdjust="spacing" textLength="56" x="818.22" y="372.0198">Messages</text><text fill="#666666" font-family="sans-serif" font-size="12" lengthAdjust="spacing" textLength="25" x="790.22" y="386.1527">[Key</text><text fill="#666666" font-family="sans-serif" font-size="12" lengthAdjust="spacing" textLength="4" x="815.22" y="386.1527">&#160;</text><text fill="#666666" font-family="sans-serif" font-size="12" lengthAdjust="spacing" textLength="29" x="819.22" y="386.1527">Hash</text><text fill="#666666" font-family="sans-serif" font-size="12" lengthAdjust="spacing" textLength="4" x="848.22" y="386.1527">&#160;</text><text fill="#666666" font-family="sans-serif" font-size="12" lengthAdjust="spacing" textLength="8" x="852.22" y="386.1527">%</text><text fill="#666666" font-family="sans-serif" font-size="12" lengthAdjust="spacing" textLength="4" x="860.22" y="386.1527">&#160;</text><text fill="#666666" font-family="sans-serif" font-size="12" lengthAdjust="spacing" textLength="8" x="864.22" y="386.1527">3</text><text fill="#666666" font-family="sans-serif" font-size="12" lengthAdjust="spacing" textLength="4" x="872.22" y="386.1527">&#160;</text><text fill="#666666" font-family="sans-serif" font-size="12" lengthAdjust="spacing" textLength="10" x="876.22" y="386.1527">=</text><text fill="#666666" font-family="sans-serif" font-size="12" lengthAdjust="spacing" textLength="4" x="886.22" y="386.1527">&#160;</text><text fill="#666666" font-family="sans-serif" font-size="12" lengthAdjust="spacing" textLength="12" x="890.22" y="386.1527">1]</text></g><!--link KafkaTopic to Partition2--><g id="link_KafkaTopic_Partition2"><path codeLine="57" d="M648.5,329.6383 C648.5,357.6283 648.5,386.5183 648.5,412.9983 " fill="none" id="KafkaTopic-to-Partition2" style="stroke:#666666;stroke-width:1.0;"/><polygon fill="#666666" points="648.5,418.9983,652.5,409.9983,648.5,413.9983,644.5,409.9983,648.5,418.9983" style="stroke:#666666;stroke-width:1.0;"/><text fill="#666666" font-family="sans-serif" font-size="12" lengthAdjust="spacing" textLength="56" x="677.5" y="372.0198">Messages</text><text fill="#666666" font-family="sans-serif" font-size="12" lengthAdjust="spacing" textLength="25" x="649.5" y="386.1527">[Key</text><text fill="#666666" font-family="sans-serif" font-size="12" lengthAdjust="spacing" textLength="4" x="674.5" y="386.1527">&#160;</text><text fill="#666666" font-family="sans-serif" font-size="12" lengthAdjust="spacing" textLength="29" x="678.5" y="386.1527">Hash</text><text fill="#666666" font-family="sans-serif" font-size="12" lengthAdjust="spacing" textLength="4" x="707.5" y="386.1527">&#160;</text><text fill="#666666" font-family="sans-serif" font-size="12" lengthAdjust="spacing" textLength="8" x="711.5" y="386.1527">%</text><text fill="#666666" font-family="sans-serif" font-size="12" lengthAdjust="spacing" textLength="4" x="719.5" y="386.1527">&#160;</text><text fill="#666666" font-family="sans-serif" font-size="12" lengthAdjust="spacing" textLength="8" x="723.5" y="386.1527">3</text><text fill="#666666" font-family="sans-serif" font-size="12" lengthAdjust="spacing" textLength="4" x="731.5" y="386.1527">&#160;</text><text fill="#666666" font-family="sans-serif" font-size="12" lengthAdjust="spacing" textLength="10" x="735.5" y="386.1527">=</text><text fill="#666666" font-family="sans-serif" font-size="12" lengthAdjust="spacing" textLength="4" x="745.5" y="386.1527">&#160;</text><text fill="#666666" font-family="sans-serif" font-size="12" lengthAdjust="spacing" textLength="12" x="749.5" y="386.1527">2]</text></g><!--link ConsumerGroup to ConsumerA--><g id="link_ConsumerGroup_ConsumerA"><path codeLine="58" d="M294.57,500.7683 C277.61,510.1883 259.8,520.4083 243.5,530.3883 C213.02,549.0583 184.9062,567.8275 157.8862,586.4975 " fill="none" id="ConsumerGroup-to-ConsumerA" style="stroke:#666666;stroke-width:1.0;"/><polygon fill="#666666" points="152.95,589.9083,162.6282,588.0829,157.0635,587.066,158.0805,581.5013,152.95,589.9083" style="stroke:#666666;stroke-width:1.0;"/><text fill="#666666" font-family="sans-serif" font-size="12" lengthAdjust="spacing" textLength="37" x="244.5" y="549.9898">Assign</text><text fill="#666666" font-family="sans-serif" font-size="12" lengthAdjust="spacing" textLength="4" x="281.5" y="549.9898">&#160;</text><text fill="#666666" font-family="sans-serif" font-size="12" lengthAdjust="spacing" textLength="47" x="285.5" y="549.9898">Partition</text><text fill="#666666" font-family="sans-serif" font-size="12" lengthAdjust="spacing" textLength="4" x="332.5" y="549.9898">&#160;</text><text fill="#666666" font-family="sans-serif" font-size="12" lengthAdjust="spacing" textLength="8" x="336.5" y="549.9898">0</text></g><!--link ConsumerGroup to ConsumerB--><g id="link_ConsumerGroup_ConsumerB"><path codeLine="59" d="M453.56,500.7983 C469.94,509.7683 486.63,519.7983 501.5,530.3883 C517.38,541.6983 516.11,551.5783 533.5,560.3883 C598.03,593.1083 623.57,571.8383 693.5,590.3883 C701.4,592.4883 703.7996,593.0799 711.9196,595.5999 " fill="none" id="ConsumerGroup-to-ConsumerB" style="stroke:#666666;stroke-width:1.0;"/><polygon fill="#666666" points="717.65,597.3783,710.24,590.8904,712.8747,595.8963,707.8688,598.5309,717.65,597.3783" style="stroke:#666666;stroke-width:1.0;"/><text fill="#666666" font-family="sans-serif" font-size="12" lengthAdjust="spacing" textLength="37" x="534.5" y="549.9898">Assign</text><text fill="#666666" font-family="sans-serif" font-size="12" lengthAdjust="spacing" textLength="4" x="571.5" y="549.9898">&#160;</text><text fill="#666666" font-family="sans-serif" font-size="12" lengthAdjust="spacing" textLength="47" x="575.5" y="549.9898">Partition</text><text fill="#666666" font-family="sans-serif" font-size="12" lengthAdjust="spacing" textLength="4" x="622.5" y="549.9898">&#160;</text><text fill="#666666" font-family="sans-serif" font-size="12" lengthAdjust="spacing" textLength="8" x="626.5" y="549.9898">1</text></g><!--link ConsumerGroup to ConsumerC--><g id="link_ConsumerGroup_ConsumerC"><path codeLine="60" d="M371.29,500.4183 C374.13,520.5583 380.71,544.1583 395.5,560.3883 C399.38,564.6483 443.2639,580.6448 490.9239,597.2448 " fill="none" id="ConsumerGroup-to-ConsumerC" style="stroke:#666666;stroke-width:1.0;"/><polygon fill="#666666" points="496.59,599.2183,489.4065,592.4806,491.8682,597.5737,486.7751,600.0354,496.59,599.2183" style="stroke:#666666;stroke-width:1.0;"/><text fill="#666666" font-family="sans-serif" font-size="12" lengthAdjust="spacing" textLength="37" x="396.5" y="549.9898">Assign</text><text fill="#666666" font-family="sans-serif" font-size="12" lengthAdjust="spacing" textLength="4" x="433.5" y="549.9898">&#160;</text><text fill="#666666" font-family="sans-serif" font-size="12" lengthAdjust="spacing" textLength="47" x="437.5" y="549.9898">Partition</text><text fill="#666666" font-family="sans-serif" font-size="12" lengthAdjust="spacing" textLength="4" x="484.5" y="549.9898">&#160;</text><text fill="#666666" font-family="sans-serif" font-size="12" lengthAdjust="spacing" textLength="8" x="488.5" y="549.9898">2</text></g><!--link Partition0 to ConsumerA--><g id="link_Partition0_ConsumerA"><path codeLine="61" d="M97.37,500.8883 C90.46,509.8883 84.3,519.8983 80.5,530.3883 C73.58,549.4683 74.6762,565.8903 79.6262,584.4803 " fill="none" id="Partition0-to-ConsumerA" style="stroke:#666666;stroke-width:1.0;"/><polygon fill="#666666" points="81.17,590.2783,82.7196,580.5521,79.8835,585.4466,74.9889,582.6105,81.17,590.2783" style="stroke:#666666;stroke-width:1.0;"/><text fill="#666666" font-family="sans-serif" font-size="12" lengthAdjust="spacing" textLength="30" x="81.5" y="542.9898">Read</text><text fill="#666666" font-family="sans-serif" font-size="12" lengthAdjust="spacing" textLength="4" x="111.5" y="542.9898">&#160;</text><text fill="#666666" font-family="sans-serif" font-size="12" lengthAdjust="spacing" textLength="56" x="115.5" y="542.9898">Messages</text><text fill="#666666" font-family="sans-serif" font-size="12" lengthAdjust="spacing" textLength="67" x="93" y="557.1227">[Sequential]</text></g><!--link Partition1 to ConsumerB--><g id="link_Partition1_ConsumerB"><path codeLine="62" d="M812.86,500.5183 C811.74,527.4483 810.5165,556.9333 809.4065,583.9333 " fill="none" id="Partition1-to-ConsumerB" style="stroke:#666666;stroke-width:1.0;"/><polygon fill="#666666" points="809.16,589.9283,813.5263,581.1002,809.3654,584.9325,805.5331,580.7716,809.16,589.9283" style="stroke:#666666;stroke-width:1.0;"/><text fill="#666666" font-family="sans-serif" font-size="12" lengthAdjust="spacing" textLength="30" x="812.42" y="542.9898">Read</text><text fill="#666666" font-family="sans-serif" font-size="12" lengthAdjust="spacing" textLength="4" x="842.42" y="542.9898">&#160;</text><text fill="#666666" font-family="sans-serif" font-size="12" lengthAdjust="spacing" textLength="56" x="846.42" y="542.9898">Messages</text><text fill="#666666" font-family="sans-serif" font-size="12" lengthAdjust="spacing" textLength="67" x="823.92" y="557.1227">[Sequential]</text></g><!--link Partition2 to ConsumerC--><g id="link_Partition2_ConsumerC"><path codeLine="63" d="M652.13,500.8283 C652.43,519.4983 650.73,541.6783 643.5,560.3883 C639.45,570.8683 636.8102,576.1787 629.8802,585.2587 " fill="none" id="Partition2-to-ConsumerC" style="stroke:#666666;stroke-width:1.0;"/><polygon fill="#666666" points="626.24,590.0283,634.88,585.3007,629.2735,586.0536,628.5206,580.4471,626.24,590.0283" style="stroke:#666666;stroke-width:1.0;"/><text fill="#666666" font-family="sans-serif" font-size="12" lengthAdjust="spacing" textLength="30" x="651.52" y="542.9898">Read</text><text fill="#666666" font-family="sans-serif" font-size="12" lengthAdjust="spacing" textLength="4" x="681.52" y="542.9898">&#160;</text><text fill="#666666" font-family="sans-serif" font-size="12" lengthAdjust="spacing" textLength="56" x="685.52" y="542.9898">Messages</text><text fill="#666666" font-family="sans-serif" font-size="12" lengthAdjust="spacing" textLength="67" x="663.02" y="557.1227">[Sequential]</text></g><!--SRC=[bLNVRzCm47xFNt6hX0H2NPF00we4KbkDWRQXQeodCI4dkIRM73lOpgO9yRzpTlEJTX6ynNVvlljyTxuxuJ8LTOPGM5kPvMAXsUDfpcrH9xL1dIffKThJL9MBIZ1fwrBCZSq4JnQRj_EjCtsxkboKp5ZKPFgn8GJZ4lLfHVy6WULM85omtJs3BTDqv4focTF14aG6mKc6EmB0zTdcPlNb_F8CKi6C2OBUiDKggrFKy2i0U0tL_dY5nh0SNxxoHeC2Kzk5wAmokr4-F5b-3qbdUr4tgkBf39ZPY_J79eva9IvXvX8nnmVAWvdjuxT1p1BUU8l6Il2KETj7bbgbdMCShLC6eO_MdSCccjhj3DebXFCe34Dl4iWo9AwrLlUeesSPep5ZTC3uxYXX_2nXF2QC3oN6Hnd_lZHrWwbBAjovLdNbILkJjpIykVl-dBMvflgcL5kbctmdZFeinKwEEIXb5sSrYh5g-AcTU2unsmuATnlUjStaWZNDD46z7b6lfwYZ_wJUZAWtKzJn17NtJERp3yDkfhnkwqHmKq0B-2vlErhC87c22towcmK3b2CPD2cH3C3qDtnYHFW2ti1x22UWqJGqce36qz2OeEDsSkY- -0HU-Hp2yF5DGDP78T4KP7CK4i-2GUeEL5tJencMuYl-h6cyS2Rk1i3eKDk_0UD3XPF0G2gBe7bUM7hYtRIbHkiwgXzvK3Oiv4wOeUQX-zvJOGfN6Ai0AQn6yceKp9A_1K2ko4yEGtErPmneH8DJqEYmgd8g-fuWn7vKMzyXZxITgFoz8lAZP8cW26HaGg1etmSj6l8-5fnsK4bhoQqcjtoKplpz71UNW2mjdXUKA6jLwJIDse3WtGFs0mnOJV_H4aX9mvDFZvzRfgTktdH9gIS_AnLfOG-C2oSVqeREz0h-0000]--></g></svg>