<?xml version="1.0" encoding="us-ascii" standalone="no"?><svg xmlns="http://www.w3.org/2000/svg" xmlns:xlink="http://www.w3.org/1999/xlink" contentStyleType="text/css" height="694px" preserveAspectRatio="none" style="width:687px;height:694px;background:#FFFFFF;" version="1.1" viewBox="0 0 687 694" width="687px" zoomAndPan="magnify"><defs/><g><text fill="#000000" font-family="sans-serif" font-size="14" font-weight="bold" lengthAdjust="spacing" textLength="255" x="209.005" y="23.5352">Event-Driven Microservices Pattern</text><!--class MicroserviceA--><g id="elem_MicroserviceA"><rect codeLine="7" fill="#F1F1F1" height="97.4648" id="MicroserviceA" rx="2.5" ry="2.5" style="stroke:#181818;stroke-width:0.5;" width="131" x="31.5" y="44.4883"/><ellipse cx="46.5" cy="60.4883" fill="#ADD1B2" rx="11" ry="11" style="stroke:#181818;stroke-width:1.0;"/><path d="M48.9731,66.6313 Q48.3921,66.9302 47.7529,67.0796 Q47.1138,67.229 46.4082,67.229 Q43.9014,67.229 42.5815,65.5771 Q41.2617,63.9253 41.2617,60.8042 Q41.2617,57.6748 42.5815,56.0229 Q43.9014,54.3711 46.4082,54.3711 Q47.1138,54.3711 47.7612,54.5205 Q48.4087,54.6699 48.9731,54.9688 L48.9731,57.6914 Q48.3423,57.1104 47.7488,56.8406 Q47.1553,56.5708 46.5244,56.5708 Q45.1797,56.5708 44.4949,57.6375 Q43.8101,58.7041 43.8101,60.8042 Q43.8101,62.896 44.4949,63.9626 Q45.1797,65.0293 46.5244,65.0293 Q47.1553,65.0293 47.7488,64.7595 Q48.3423,64.4897 48.9731,63.9087 Z " fill="#000000"/><text fill="#000000" font-family="sans-serif" font-size="14" lengthAdjust="spacing" textLength="85" x="60.5" y="65.7793">Microservice</text><text fill="#000000" font-family="sans-serif" font-size="14" lengthAdjust="spacing" textLength="4" x="145.5" y="65.7793">&#160;</text><text fill="#000000" font-family="sans-serif" font-size="14" lengthAdjust="spacing" textLength="10" x="149.5" y="65.7793">A</text><line style="stroke:#181818;stroke-width:0.5;" x1="32.5" x2="161.5" y1="76.4883" y2="76.4883"/><line style="stroke:#181818;stroke-width:0.5;" x1="32.5" x2="161.5" y1="84.4883" y2="84.4883"/><ellipse cx="42.5" cy="98.2324" fill="#84BE84" rx="3" ry="3" style="stroke:#038048;stroke-width:1.0;"/><text fill="#000000" font-family="sans-serif" font-size="14" lengthAdjust="spacing" textLength="103" x="51.5" y="102.0234">processOrder()</text><ellipse cx="42.5" cy="114.7207" fill="#84BE84" rx="3" ry="3" style="stroke:#038048;stroke-width:1.0;"/><text fill="#000000" font-family="sans-serif" font-size="14" lengthAdjust="spacing" textLength="98" x="51.5" y="118.5117">publishEvent()</text><ellipse cx="42.5" cy="131.209" fill="#84BE84" rx="3" ry="3" style="stroke:#038048;stroke-width:1.0;"/><text fill="#000000" font-family="sans-serif" font-size="14" lengthAdjust="spacing" textLength="102" x="51.5" y="135">orderCreated()</text></g><!--class EventTopic--><g id="elem_EventTopic"><rect codeLine="13" fill="#F1F1F1" height="97.4648" id="EventTopic" rx="2.5" ry="2.5" style="stroke:#181818;stroke-width:0.5;" width="172" x="242" y="231.9483"/><ellipse cx="284.45" cy="247.9483" fill="#ADD1B2" rx="11" ry="11" style="stroke:#181818;stroke-width:1.0;"/><path d="M286.9231,254.0913 Q286.3421,254.3902 285.7029,254.5396 Q285.0638,254.689 284.3582,254.689 Q281.8514,254.689 280.5315,253.0371 Q279.2117,251.3853 279.2117,248.2642 Q279.2117,245.1348 280.5315,243.4829 Q281.8514,241.8311 284.3582,241.8311 Q285.0638,241.8311 285.7112,241.9805 Q286.3587,242.1299 286.9231,242.4287 L286.9231,245.1514 Q286.2923,244.5704 285.6988,244.3006 Q285.1053,244.0308 284.4744,244.0308 Q283.1297,244.0308 282.4449,245.0975 Q281.7601,246.1641 281.7601,248.2642 Q281.7601,250.356 282.4449,251.4226 Q283.1297,252.4893 284.4744,252.4893 Q285.1053,252.4893 285.6988,252.2195 Q286.2923,251.9497 286.9231,251.3687 Z " fill="#000000"/><text fill="#000000" font-family="sans-serif" font-size="14" lengthAdjust="spacing" textLength="37" x="304.55" y="253.2393">Event</text><text fill="#000000" font-family="sans-serif" font-size="14" lengthAdjust="spacing" textLength="4" x="341.55" y="253.2393">&#160;</text><text fill="#000000" font-family="sans-serif" font-size="14" lengthAdjust="spacing" textLength="38" x="345.55" y="253.2393">Topic</text><line style="stroke:#181818;stroke-width:0.5;" x1="243" x2="413" y1="263.9483" y2="263.9483"/><ellipse cx="253" cy="277.6924" fill="none" rx="3" ry="3" style="stroke:#038048;stroke-width:1.0;"/><text fill="#000000" font-family="sans-serif" font-size="14" lengthAdjust="spacing" textLength="42" x="262" y="281.4834">name:</text><text fill="#000000" font-family="sans-serif" font-size="14" lengthAdjust="spacing" textLength="4" x="304" y="281.4834">&#160;</text><text fill="#000000" font-family="sans-serif" font-size="14" lengthAdjust="spacing" textLength="100" x="308" y="281.4834">"order-events"</text><line style="stroke:#181818;stroke-width:0.5;" x1="243" x2="413" y1="288.4366" y2="288.4366"/><ellipse cx="253" cy="302.1807" fill="#84BE84" rx="3" ry="3" style="stroke:#038048;stroke-width:1.0;"/><text fill="#000000" font-family="sans-serif" font-size="14" lengthAdjust="spacing" textLength="98" x="262" y="305.9717">publish(event)</text><ellipse cx="253" cy="318.669" fill="#84BE84" rx="3" ry="3" style="stroke:#038048;stroke-width:1.0;"/><text fill="#000000" font-family="sans-serif" font-size="14" lengthAdjust="spacing" textLength="123" x="262" y="322.46">subscribe(service)</text></g><!--class MicroserviceB--><g id="elem_MicroserviceB"><rect codeLine="19" fill="#F1F1F1" height="97.4648" id="MicroserviceB" rx="2.5" ry="2.5" style="stroke:#181818;stroke-width:0.5;" width="164" x="7" y="419.4183"/><ellipse cx="37.75" cy="435.4183" fill="#ADD1B2" rx="11" ry="11" style="stroke:#181818;stroke-width:1.0;"/><path d="M40.2231,441.5613 Q39.6421,441.8602 39.0029,442.0096 Q38.3638,442.159 37.6582,442.159 Q35.1514,442.159 33.8315,440.5071 Q32.5117,438.8553 32.5117,435.7342 Q32.5117,432.6048 33.8315,430.9529 Q35.1514,429.3011 37.6582,429.3011 Q38.3638,429.3011 39.0112,429.4505 Q39.6587,429.5999 40.2231,429.8988 L40.2231,432.6214 Q39.5923,432.0404 38.9988,431.7706 Q38.4053,431.5008 37.7744,431.5008 Q36.4297,431.5008 35.7449,432.5675 Q35.0601,433.6341 35.0601,435.7342 Q35.0601,437.826 35.7449,438.8926 Q36.4297,439.9593 37.7744,439.9593 Q38.4053,439.9593 38.9988,439.6895 Q39.5923,439.4197 40.2231,438.8387 Z " fill="#000000"/><text fill="#000000" font-family="sans-serif" font-size="14" lengthAdjust="spacing" textLength="85" x="55.25" y="440.7093">Microservice</text><text fill="#000000" font-family="sans-serif" font-size="14" lengthAdjust="spacing" textLength="4" x="140.25" y="440.7093">&#160;</text><text fill="#000000" font-family="sans-serif" font-size="14" lengthAdjust="spacing" textLength="8" x="144.25" y="440.7093">B</text><line style="stroke:#181818;stroke-width:0.5;" x1="8" x2="170" y1="451.4183" y2="451.4183"/><line style="stroke:#181818;stroke-width:0.5;" x1="8" x2="170" y1="459.4183" y2="459.4183"/><ellipse cx="18" cy="473.1624" fill="#84BE84" rx="3" ry="3" style="stroke:#038048;stroke-width:1.0;"/><text fill="#000000" font-family="sans-serif" font-size="14" lengthAdjust="spacing" textLength="138" x="27" y="476.9534">subscribeToEvents()</text><ellipse cx="18" cy="489.6507" fill="#84BE84" rx="3" ry="3" style="stroke:#038048;stroke-width:1.0;"/><text fill="#000000" font-family="sans-serif" font-size="14" lengthAdjust="spacing" textLength="122" x="27" y="493.4417">updateInventory()</text><ellipse cx="18" cy="506.139" fill="#84BE84" rx="3" ry="3" style="stroke:#038048;stroke-width:1.0;"/><text fill="#000000" font-family="sans-serif" font-size="14" lengthAdjust="spacing" textLength="122" x="27" y="509.93">onOrderCreated()</text></g><!--class MicroserviceC--><g id="elem_MicroserviceC"><rect codeLine="25" fill="#F1F1F1" height="97.4648" id="MicroserviceC" rx="2.5" ry="2.5" style="stroke:#181818;stroke-width:0.5;" width="164" x="413" y="419.4183"/><ellipse cx="442.85" cy="435.4183" fill="#ADD1B2" rx="11" ry="11" style="stroke:#181818;stroke-width:1.0;"/><path d="M445.3231,441.5613 Q444.7421,441.8602 444.1029,442.0096 Q443.4638,442.159 442.7582,442.159 Q440.2514,442.159 438.9315,440.5071 Q437.6117,438.8553 437.6117,435.7342 Q437.6117,432.6048 438.9315,430.9529 Q440.2514,429.3011 442.7582,429.3011 Q443.4638,429.3011 444.1112,429.4505 Q444.7587,429.5999 445.3231,429.8988 L445.3231,432.6214 Q444.6923,432.0404 444.0988,431.7706 Q443.5053,431.5008 442.8744,431.5008 Q441.5297,431.5008 440.8449,432.5675 Q440.1601,433.6341 440.1601,435.7342 Q440.1601,437.826 440.8449,438.8926 Q441.5297,439.9593 442.8744,439.9593 Q443.5053,439.9593 444.0988,439.6895 Q444.6923,439.4197 445.3231,438.8387 Z " fill="#000000"/><text fill="#000000" font-family="sans-serif" font-size="14" lengthAdjust="spacing" textLength="85" x="460.15" y="440.7093">Microservice</text><text fill="#000000" font-family="sans-serif" font-size="14" lengthAdjust="spacing" textLength="4" x="545.15" y="440.7093">&#160;</text><text fill="#000000" font-family="sans-serif" font-size="14" lengthAdjust="spacing" textLength="10" x="549.15" y="440.7093">C</text><line style="stroke:#181818;stroke-width:0.5;" x1="414" x2="576" y1="451.4183" y2="451.4183"/><line style="stroke:#181818;stroke-width:0.5;" x1="414" x2="576" y1="459.4183" y2="459.4183"/><ellipse cx="424" cy="473.1624" fill="#84BE84" rx="3" ry="3" style="stroke:#038048;stroke-width:1.0;"/><text fill="#000000" font-family="sans-serif" font-size="14" lengthAdjust="spacing" textLength="138" x="433" y="476.9534">subscribeToEvents()</text><ellipse cx="424" cy="489.6507" fill="#84BE84" rx="3" ry="3" style="stroke:#038048;stroke-width:1.0;"/><text fill="#000000" font-family="sans-serif" font-size="14" lengthAdjust="spacing" textLength="122" x="433" y="493.4417">sendNotification()</text><ellipse cx="424" cy="506.139" fill="#84BE84" rx="3" ry="3" style="stroke:#038048;stroke-width:1.0;"/><text fill="#000000" font-family="sans-serif" font-size="14" lengthAdjust="spacing" textLength="122" x="433" y="509.93">onOrderCreated()</text></g><!--class DatabaseA--><g id="elem_DatabaseA"><rect codeLine="31" fill="#F1F1F1" height="80.9766" id="DatabaseA" rx="2.5" ry="2.5" style="stroke:#181818;stroke-width:0.5;" width="109" x="42.5" y="240.1983"/><ellipse cx="57.5" cy="256.1983" fill="#ADD1B2" rx="11" ry="11" style="stroke:#181818;stroke-width:1.0;"/><path d="M59.9731,262.3413 Q59.3921,262.6402 58.7529,262.7896 Q58.1138,262.939 57.4082,262.939 Q54.9014,262.939 53.5815,261.2871 Q52.2617,259.6353 52.2617,256.5142 Q52.2617,253.3848 53.5815,251.7329 Q54.9014,250.0811 57.4082,250.0811 Q58.1138,250.0811 58.7612,250.2305 Q59.4087,250.3799 59.9731,250.6787 L59.9731,253.4014 Q59.3423,252.8204 58.7488,252.5506 Q58.1553,252.2808 57.5244,252.2808 Q56.1797,252.2808 55.4949,253.3475 Q54.8101,254.4141 54.8101,256.5142 Q54.8101,258.606 55.4949,259.6726 Q56.1797,260.7393 57.5244,260.7393 Q58.1553,260.7393 58.7488,260.4695 Q59.3423,260.1997 59.9731,259.6187 Z " fill="#000000"/><text fill="#000000" font-family="sans-serif" font-size="14" lengthAdjust="spacing" textLength="63" x="71.5" y="261.4893">Database</text><text fill="#000000" font-family="sans-serif" font-size="14" lengthAdjust="spacing" textLength="4" x="134.5" y="261.4893">&#160;</text><text fill="#000000" font-family="sans-serif" font-size="14" lengthAdjust="spacing" textLength="10" x="138.5" y="261.4893">A</text><line style="stroke:#181818;stroke-width:0.5;" x1="43.5" x2="150.5" y1="272.1983" y2="272.1983"/><ellipse cx="53.5" cy="285.9424" fill="none" rx="3" ry="3" style="stroke:#038048;stroke-width:1.0;"/><text fill="#000000" font-family="sans-serif" font-size="14" lengthAdjust="spacing" textLength="45" x="62.5" y="289.7334">orders</text><ellipse cx="53.5" cy="302.4307" fill="none" rx="3" ry="3" style="stroke:#038048;stroke-width:1.0;"/><text fill="#000000" font-family="sans-serif" font-size="14" lengthAdjust="spacing" textLength="75" x="62.5" y="306.2217">orderItems</text><line style="stroke:#181818;stroke-width:0.5;" x1="43.5" x2="150.5" y1="313.1748" y2="313.1748"/></g><!--class DatabaseB--><g id="elem_DatabaseB"><rect codeLine="36" fill="#F1F1F1" height="80.9766" id="DatabaseB" rx="2.5" ry="2.5" style="stroke:#181818;stroke-width:0.5;" width="107" x="35.5" y="606.8783"/><ellipse cx="50.5" cy="622.8783" fill="#ADD1B2" rx="11" ry="11" style="stroke:#181818;stroke-width:1.0;"/><path d="M52.9731,629.0213 Q52.3921,629.3202 51.7529,629.4696 Q51.1138,629.619 50.4082,629.619 Q47.9014,629.619 46.5815,627.9671 Q45.2617,626.3153 45.2617,623.1942 Q45.2617,620.0648 46.5815,618.4129 Q47.9014,616.7611 50.4082,616.7611 Q51.1138,616.7611 51.7612,616.9105 Q52.4087,617.0599 52.9731,617.3588 L52.9731,620.0814 Q52.3423,619.5004 51.7488,619.2306 Q51.1553,618.9608 50.5244,618.9608 Q49.1797,618.9608 48.4949,620.0275 Q47.8101,621.0941 47.8101,623.1942 Q47.8101,625.286 48.4949,626.3526 Q49.1797,627.4193 50.5244,627.4193 Q51.1553,627.4193 51.7488,627.1495 Q52.3423,626.8797 52.9731,626.2987 Z " fill="#000000"/><text fill="#000000" font-family="sans-serif" font-size="14" lengthAdjust="spacing" textLength="63" x="64.5" y="628.1693">Database</text><text fill="#000000" font-family="sans-serif" font-size="14" lengthAdjust="spacing" textLength="4" x="127.5" y="628.1693">&#160;</text><text fill="#000000" font-family="sans-serif" font-size="14" lengthAdjust="spacing" textLength="8" x="131.5" y="628.1693">B</text><line style="stroke:#181818;stroke-width:0.5;" x1="36.5" x2="141.5" y1="638.8783" y2="638.8783"/><ellipse cx="46.5" cy="652.6224" fill="none" rx="3" ry="3" style="stroke:#038048;stroke-width:1.0;"/><text fill="#000000" font-family="sans-serif" font-size="14" lengthAdjust="spacing" textLength="64" x="55.5" y="656.4134">inventory</text><ellipse cx="46.5" cy="669.1107" fill="none" rx="3" ry="3" style="stroke:#038048;stroke-width:1.0;"/><text fill="#000000" font-family="sans-serif" font-size="14" lengthAdjust="spacing" textLength="61" x="55.5" y="672.9017">products</text><line style="stroke:#181818;stroke-width:0.5;" x1="36.5" x2="141.5" y1="679.8548" y2="679.8548"/></g><!--class DatabaseC--><g id="elem_DatabaseC"><rect codeLine="41" fill="#F1F1F1" height="80.9766" id="DatabaseC" rx="2.5" ry="2.5" style="stroke:#181818;stroke-width:0.5;" width="111" x="534.5" y="606.8783"/><ellipse cx="550.4" cy="622.8783" fill="#ADD1B2" rx="11" ry="11" style="stroke:#181818;stroke-width:1.0;"/><path d="M552.8731,629.0213 Q552.2921,629.3202 551.6529,629.4696 Q551.0138,629.619 550.3082,629.619 Q547.8014,629.619 546.4815,627.9671 Q545.1617,626.3153 545.1617,623.1942 Q545.1617,620.0648 546.4815,618.4129 Q547.8014,616.7611 550.3082,616.7611 Q551.0138,616.7611 551.6612,616.9105 Q552.3087,617.0599 552.8731,617.3588 L552.8731,620.0814 Q552.2423,619.5004 551.6488,619.2306 Q551.0553,618.9608 550.4244,618.9608 Q549.0797,618.9608 548.3949,620.0275 Q547.7101,621.0941 547.7101,623.1942 Q547.7101,625.286 548.3949,626.3526 Q549.0797,627.4193 550.4244,627.4193 Q551.0553,627.4193 551.6488,627.1495 Q552.2423,626.8797 552.8731,626.2987 Z " fill="#000000"/><text fill="#000000" font-family="sans-serif" font-size="14" lengthAdjust="spacing" textLength="63" x="564.6" y="628.1693">Database</text><text fill="#000000" font-family="sans-serif" font-size="14" lengthAdjust="spacing" textLength="4" x="627.6" y="628.1693">&#160;</text><text fill="#000000" font-family="sans-serif" font-size="14" lengthAdjust="spacing" textLength="10" x="631.6" y="628.1693">C</text><line style="stroke:#181818;stroke-width:0.5;" x1="535.5" x2="644.5" y1="638.8783" y2="638.8783"/><ellipse cx="545.5" cy="652.6224" fill="none" rx="3" ry="3" style="stroke:#038048;stroke-width:1.0;"/><text fill="#000000" font-family="sans-serif" font-size="14" lengthAdjust="spacing" textLength="85" x="554.5" y="656.4134">notifications</text><ellipse cx="545.5" cy="669.1107" fill="none" rx="3" ry="3" style="stroke:#038048;stroke-width:1.0;"/><text fill="#000000" font-family="sans-serif" font-size="14" lengthAdjust="spacing" textLength="37" x="554.5" y="672.9017">users</text><line style="stroke:#181818;stroke-width:0.5;" x1="535.5" x2="644.5" y1="679.8548" y2="679.8548"/></g><g id="elem_GMN15"><path d="M197,65.2583 L197,89.2183 L162.79,93.2183 L197,97.2183 L197,121.1899 A0,0 0 0 0 197,121.1899 L391,121.1899 A0,0 0 0 0 391,121.1899 L391,75.2583 L381,65.2583 L197,65.2583 A0,0 0 0 0 197,65.2583 " fill="#FEFFDD" style="stroke:#181818;stroke-width:0.5;"/><path d="M381,65.2583 L381,75.2583 L391,75.2583 L381,65.2583 " fill="#FEFFDD" style="stroke:#181818;stroke-width:0.5;"/><text fill="#000000" font-family="sans-serif" font-size="13" lengthAdjust="spacing" textLength="44" x="203" y="82.8266">Service</text><text fill="#000000" font-family="sans-serif" font-size="13" lengthAdjust="spacing" textLength="4" x="247" y="82.8266">&#160;</text><text fill="#000000" font-family="sans-serif" font-size="13" lengthAdjust="spacing" textLength="9" x="251" y="82.8266">A</text><text fill="#000000" font-family="sans-serif" font-size="13" lengthAdjust="spacing" textLength="4" x="260" y="82.8266">&#160;</text><text fill="#000000" font-family="sans-serif" font-size="13" lengthAdjust="spacing" textLength="61" x="264" y="82.8266">publishes</text><text fill="#000000" font-family="sans-serif" font-size="13" lengthAdjust="spacing" textLength="4" x="325" y="82.8266">&#160;</text><text fill="#000000" font-family="sans-serif" font-size="13" lengthAdjust="spacing" textLength="47" x="329" y="82.8266">domain</text><text fill="#000000" font-family="sans-serif" font-size="13" lengthAdjust="spacing" textLength="41" x="217" y="98.1372">events</text><text fill="#000000" font-family="sans-serif" font-size="13" lengthAdjust="spacing" textLength="4" x="258" y="98.1372">&#160;</text><text fill="#000000" font-family="sans-serif" font-size="13" lengthAdjust="spacing" textLength="29" x="262" y="98.1372">after</text><text fill="#000000" font-family="sans-serif" font-size="13" lengthAdjust="spacing" textLength="4" x="291" y="98.1372">&#160;</text><text fill="#000000" font-family="sans-serif" font-size="13" lengthAdjust="spacing" textLength="67" x="295" y="98.1372">successful</text><text fill="#000000" font-family="sans-serif" font-size="13" lengthAdjust="spacing" textLength="56" x="226" y="113.4477">business</text><text fill="#000000" font-family="sans-serif" font-size="13" lengthAdjust="spacing" textLength="4" x="282" y="113.4477">&#160;</text><text fill="#000000" font-family="sans-serif" font-size="13" lengthAdjust="spacing" textLength="67" x="286" y="113.4477">operations</text></g><g id="elem_GMN18"><path d="M425.5,65.2583 L425.5,121.1899 L612.5,121.1899 L612.5,75.2583 L602.5,65.2583 L425.5,65.2583 " fill="#FEFFDD" style="stroke:#181818;stroke-width:0.5;"/><path d="M602.5,65.2583 L602.5,75.2583 L612.5,75.2583 L602.5,65.2583 " fill="#FEFFDD" style="stroke:#181818;stroke-width:1.0;"/><text fill="#000000" font-family="sans-serif" font-size="13" lengthAdjust="spacing" textLength="34" x="445.5" y="82.8266">Event</text><text fill="#000000" font-family="sans-serif" font-size="13" lengthAdjust="spacing" textLength="4" x="479.5" y="82.8266">&#160;</text><text fill="#000000" font-family="sans-serif" font-size="13" lengthAdjust="spacing" textLength="32" x="483.5" y="82.8266">topic</text><text fill="#000000" font-family="sans-serif" font-size="13" lengthAdjust="spacing" textLength="4" x="515.5" y="82.8266">&#160;</text><text fill="#000000" font-family="sans-serif" font-size="13" lengthAdjust="spacing" textLength="64" x="519.5" y="82.8266">decouples</text><text fill="#000000" font-family="sans-serif" font-size="13" lengthAdjust="spacing" textLength="87" x="431.5" y="98.1372">microservices</text><text fill="#000000" font-family="sans-serif" font-size="13" lengthAdjust="spacing" textLength="4" x="518.5" y="98.1372">&#160;</text><text fill="#000000" font-family="sans-serif" font-size="13" lengthAdjust="spacing" textLength="23" x="522.5" y="98.1372">and</text><text fill="#000000" font-family="sans-serif" font-size="13" lengthAdjust="spacing" textLength="4" x="545.5" y="98.1372">&#160;</text><text fill="#000000" font-family="sans-serif" font-size="13" lengthAdjust="spacing" textLength="48" x="549.5" y="98.1372">enables</text><text fill="#000000" font-family="sans-serif" font-size="13" lengthAdjust="spacing" textLength="34" x="468" y="113.4477">loose</text><text fill="#000000" font-family="sans-serif" font-size="13" lengthAdjust="spacing" textLength="4" x="502" y="113.4477">&#160;</text><text fill="#000000" font-family="sans-serif" font-size="13" lengthAdjust="spacing" textLength="55" x="506" y="113.4477">coupling</text></g><g id="elem_GMN21"><path d="M206,440.1883 L206,464.1483 L171.47,468.1483 L206,472.1483 L206,496.1199 A0,0 0 0 0 206,496.1199 L378,496.1199 A0,0 0 0 0 378,496.1199 L378,450.1883 L368,440.1883 L206,440.1883 A0,0 0 0 0 206,440.1883 " fill="#FEFFDD" style="stroke:#181818;stroke-width:0.5;"/><path d="M368,440.1883 L368,450.1883 L378,450.1883 L368,440.1883 " fill="#FEFFDD" style="stroke:#181818;stroke-width:0.5;"/><text fill="#000000" font-family="sans-serif" font-size="13" lengthAdjust="spacing" textLength="51" x="219" y="457.7566">Services</text><text fill="#000000" font-family="sans-serif" font-size="13" lengthAdjust="spacing" textLength="4" x="270" y="457.7566">&#160;</text><text fill="#000000" font-family="sans-serif" font-size="13" lengthAdjust="spacing" textLength="7" x="274" y="457.7566">B</text><text fill="#000000" font-family="sans-serif" font-size="13" lengthAdjust="spacing" textLength="4" x="281" y="457.7566">&#160;</text><text fill="#000000" font-family="sans-serif" font-size="13" lengthAdjust="spacing" textLength="23" x="285" y="457.7566">and</text><text fill="#000000" font-family="sans-serif" font-size="13" lengthAdjust="spacing" textLength="4" x="308" y="457.7566">&#160;</text><text fill="#000000" font-family="sans-serif" font-size="13" lengthAdjust="spacing" textLength="9" x="312" y="457.7566">C</text><text fill="#000000" font-family="sans-serif" font-size="13" lengthAdjust="spacing" textLength="4" x="321" y="457.7566">&#160;</text><text fill="#000000" font-family="sans-serif" font-size="13" lengthAdjust="spacing" textLength="31" x="325" y="457.7566">react</text><text fill="#000000" font-family="sans-serif" font-size="13" lengthAdjust="spacing" textLength="13" x="212" y="473.0672">to</text><text fill="#000000" font-family="sans-serif" font-size="13" lengthAdjust="spacing" textLength="4" x="225" y="473.0672">&#160;</text><text fill="#000000" font-family="sans-serif" font-size="13" lengthAdjust="spacing" textLength="41" x="229" y="473.0672">events</text><text fill="#000000" font-family="sans-serif" font-size="13" lengthAdjust="spacing" textLength="4" x="270" y="473.0672">&#160;</text><text fill="#000000" font-family="sans-serif" font-size="13" lengthAdjust="spacing" textLength="89" x="274" y="473.0672">independently</text><text fill="#000000" font-family="sans-serif" font-size="13" lengthAdjust="spacing" textLength="48" x="214" y="488.3777">without</text><text fill="#000000" font-family="sans-serif" font-size="13" lengthAdjust="spacing" textLength="4" x="262" y="488.3777">&#160;</text><text fill="#000000" font-family="sans-serif" font-size="13" lengthAdjust="spacing" textLength="36" x="266" y="488.3777">direct</text><text fill="#000000" font-family="sans-serif" font-size="13" lengthAdjust="spacing" textLength="4" x="302" y="488.3777">&#160;</text><text fill="#000000" font-family="sans-serif" font-size="13" lengthAdjust="spacing" textLength="55" x="306" y="488.3777">coupling</text></g><g id="elem_GMN24"><path d="M299,611.7483 L299,682.9905 A0,0 0 0 0 299,682.9905 L499,682.9905 A0,0 0 0 0 499,682.9905 L499,621.7483 L489,611.7483 L421.99,611.7483 L469.02,517.1083 L413.99,611.7483 L299,611.7483 A0,0 0 0 0 299,611.7483 " fill="#FEFFDD" style="stroke:#181818;stroke-width:0.5;"/><path d="M489,611.7483 L489,621.7483 L499,621.7483 L489,611.7483 " fill="#FEFFDD" style="stroke:#181818;stroke-width:0.5;"/><text fill="#000000" font-family="sans-serif" font-size="13" lengthAdjust="spacing" textLength="29" x="305" y="629.3166">Each</text><text fill="#000000" font-family="sans-serif" font-size="13" lengthAdjust="spacing" textLength="4" x="334" y="629.3166">&#160;</text><text fill="#000000" font-family="sans-serif" font-size="13" lengthAdjust="spacing" textLength="80" x="338" y="629.3166">microservice</text><text fill="#000000" font-family="sans-serif" font-size="13" lengthAdjust="spacing" textLength="4" x="418" y="629.3166">&#160;</text><text fill="#000000" font-family="sans-serif" font-size="13" lengthAdjust="spacing" textLength="62" x="422" y="629.3166">maintains</text><text fill="#000000" font-family="sans-serif" font-size="13" lengthAdjust="spacing" textLength="16" x="328" y="644.6272">its</text><text fill="#000000" font-family="sans-serif" font-size="13" lengthAdjust="spacing" textLength="4" x="344" y="644.6272">&#160;</text><text fill="#000000" font-family="sans-serif" font-size="13" lengthAdjust="spacing" textLength="26" x="348" y="644.6272">own</text><text fill="#000000" font-family="sans-serif" font-size="13" lengthAdjust="spacing" textLength="4" x="374" y="644.6272">&#160;</text><text fill="#000000" font-family="sans-serif" font-size="13" lengthAdjust="spacing" textLength="56" x="378" y="644.6272">database</text><text fill="#000000" font-family="sans-serif" font-size="13" lengthAdjust="spacing" textLength="4" x="434" y="644.6272">&#160;</text><text fill="#000000" font-family="sans-serif" font-size="13" lengthAdjust="spacing" textLength="23" x="438" y="644.6272">and</text><text fill="#000000" font-family="sans-serif" font-size="13" lengthAdjust="spacing" textLength="63" x="340.5" y="659.9377">processes</text><text fill="#000000" font-family="sans-serif" font-size="13" lengthAdjust="spacing" textLength="4" x="403.5" y="659.9377">&#160;</text><text fill="#000000" font-family="sans-serif" font-size="13" lengthAdjust="spacing" textLength="41" x="407.5" y="659.9377">events</text><text fill="#000000" font-family="sans-serif" font-size="13" lengthAdjust="spacing" textLength="99" x="345" y="675.2483">asynchronously</text></g><!--link MicroserviceA to DatabaseA--><g id="link_MicroserviceA_DatabaseA"><path codeLine="46" d="M97,141.9783 C97,172.3583 97,205.2183 97,233.9183 " fill="none" id="MicroserviceA-to-DatabaseA" style="stroke:#666666;stroke-width:1.0;"/><polygon fill="#666666" points="97,239.9183,101,230.9183,97,234.9183,93,230.9183,97,239.9183" style="stroke:#666666;stroke-width:1.0;"/><text fill="#666666" font-family="sans-serif" font-size="12" lengthAdjust="spacing" textLength="29" x="118" y="184.5498">Store</text><text fill="#666666" font-family="sans-serif" font-size="12" lengthAdjust="spacing" textLength="4" x="147" y="184.5498">&#160;</text><text fill="#666666" font-family="sans-serif" font-size="12" lengthAdjust="spacing" textLength="34" x="151" y="184.5498">Order</text><text fill="#666666" font-family="sans-serif" font-size="12" lengthAdjust="spacing" textLength="32" x="98" y="198.6827">[ACID</text><text fill="#666666" font-family="sans-serif" font-size="12" lengthAdjust="spacing" textLength="4" x="130" y="198.6827">&#160;</text><text fill="#666666" font-family="sans-serif" font-size="12" lengthAdjust="spacing" textLength="71" x="134" y="198.6827">Transaction]</text></g><!--link MicroserviceA to EventTopic--><g id="link_MicroserviceA_EventTopic"><path codeLine="47" d="M162.76,135.0683 C179.86,146.4483 197.97,159.1983 214,171.9483 C237.02,190.2583 256.6073,208.1066 276.5273,227.4666 " fill="none" id="MicroserviceA-to-EventTopic" style="stroke:#666666;stroke-width:1.0;"/><polygon fill="#666666" points="280.83,231.6483,277.1638,222.5072,277.2444,228.1635,271.5881,228.2441,280.83,231.6483" style="stroke:#666666;stroke-width:1.0;"/><text fill="#666666" font-family="sans-serif" font-size="12" lengthAdjust="spacing" textLength="41" x="288.81" y="184.5498">Publish</text><text fill="#666666" font-family="sans-serif" font-size="12" lengthAdjust="spacing" textLength="84" x="247.81" y="198.6827">[OrderCreated</text><text fill="#666666" font-family="sans-serif" font-size="12" lengthAdjust="spacing" textLength="4" x="331.81" y="198.6827">&#160;</text><text fill="#666666" font-family="sans-serif" font-size="12" lengthAdjust="spacing" textLength="35" x="335.81" y="198.6827">Event]</text></g><!--link EventTopic to MicroserviceB--><g id="link_EventTopic_MicroserviceB"><path codeLine="48" d="M266.14,329.6883 C230.73,357.1683 191.1903,387.85 155.7503,415.35 " fill="none" id="EventTopic-to-MicroserviceB" style="stroke:#666666;stroke-width:1.0;"/><polygon fill="#666666" points="151.01,419.0283,160.5726,416.6711,154.9602,415.9631,155.6683,410.3507,151.01,419.0283" style="stroke:#666666;stroke-width:1.0;"/><text fill="#666666" font-family="sans-serif" font-size="12" lengthAdjust="spacing" textLength="33" x="245.31" y="372.0198">Notify</text><text fill="#666666" font-family="sans-serif" font-size="12" lengthAdjust="spacing" textLength="37" x="223.81" y="386.1527">[Async</text><text fill="#666666" font-family="sans-serif" font-size="12" lengthAdjust="spacing" textLength="4" x="260.81" y="386.1527">&#160;</text><text fill="#666666" font-family="sans-serif" font-size="12" lengthAdjust="spacing" textLength="35" x="264.81" y="386.1527">Event]</text></g><!--link EventTopic to MicroserviceC--><g id="link_EventTopic_MicroserviceC"><path codeLine="49" d="M371.01,329.4483 C395.84,357.0283 422.9752,387.1594 447.8352,414.7694 " fill="none" id="EventTopic-to-MicroserviceC" style="stroke:#666666;stroke-width:1.0;"/><polygon fill="#666666" points="451.85,419.2283,448.8004,409.8634,448.5044,415.5125,442.8553,415.2165,451.85,419.2283" style="stroke:#666666;stroke-width:1.0;"/><text fill="#666666" font-family="sans-serif" font-size="12" lengthAdjust="spacing" textLength="33" x="444" y="372.0198">Notify</text><text fill="#666666" font-family="sans-serif" font-size="12" lengthAdjust="spacing" textLength="37" x="422.5" y="386.1527">[Async</text><text fill="#666666" font-family="sans-serif" font-size="12" lengthAdjust="spacing" textLength="4" x="459.5" y="386.1527">&#160;</text><text fill="#666666" font-family="sans-serif" font-size="12" lengthAdjust="spacing" textLength="35" x="463.5" y="386.1527">Event]</text></g><!--link MicroserviceB to DatabaseB--><g id="link_MicroserviceB_DatabaseB"><path codeLine="50" d="M89,517.1083 C89,545.0883 89,573.9883 89,600.4583 " fill="none" id="MicroserviceB-to-DatabaseB" style="stroke:#666666;stroke-width:1.0;"/><polygon fill="#666666" points="89,606.4583,93,597.4583,89,601.4583,85,597.4583,89,606.4583" style="stroke:#666666;stroke-width:1.0;"/><text fill="#666666" font-family="sans-serif" font-size="12" lengthAdjust="spacing" textLength="42" x="104.5" y="559.4798">Update</text><text fill="#666666" font-family="sans-serif" font-size="12" lengthAdjust="spacing" textLength="4" x="146.5" y="559.4798">&#160;</text><text fill="#666666" font-family="sans-serif" font-size="12" lengthAdjust="spacing" textLength="52" x="150.5" y="559.4798">Inventory</text><text fill="#666666" font-family="sans-serif" font-size="12" lengthAdjust="spacing" textLength="52" x="90" y="573.6127">[Eventual</text><text fill="#666666" font-family="sans-serif" font-size="12" lengthAdjust="spacing" textLength="4" x="142" y="573.6127">&#160;</text><text fill="#666666" font-family="sans-serif" font-size="12" lengthAdjust="spacing" textLength="71" x="146" y="573.6127">Consistency]</text></g><!--link MicroserviceC to DatabaseC--><g id="link_MicroserviceC_DatabaseC"><path codeLine="51" d="M520.71,517.1083 C535.71,545.0883 551.5736,574.701 565.7736,601.171 " fill="none" id="MicroserviceC-to-DatabaseC" style="stroke:#666666;stroke-width:1.0;"/><polygon fill="#666666" points="568.61,606.4583,567.8803,596.6365,566.2464,602.0522,560.8306,600.4183,568.61,606.4583" style="stroke:#666666;stroke-width:1.0;"/><text fill="#666666" font-family="sans-serif" font-size="12" lengthAdjust="spacing" textLength="29" x="567.01" y="559.4798">Store</text><text fill="#666666" font-family="sans-serif" font-size="12" lengthAdjust="spacing" textLength="4" x="596.01" y="559.4798">&#160;</text><text fill="#666666" font-family="sans-serif" font-size="12" lengthAdjust="spacing" textLength="64" x="600.01" y="559.4798">Notification</text><text fill="#666666" font-family="sans-serif" font-size="12" lengthAdjust="spacing" textLength="52" x="552.01" y="573.6127">[Eventual</text><text fill="#666666" font-family="sans-serif" font-size="12" lengthAdjust="spacing" textLength="4" x="604.01" y="573.6127">&#160;</text><text fill="#666666" font-family="sans-serif" font-size="12" lengthAdjust="spacing" textLength="71" x="608.01" y="573.6127">Consistency]</text></g><!--link GMN18 to EventTopic--><g id="link_GMN18_EventTopic"><path d="M505.33,121.2383 C492.67,144.4883 472.17,177.9683 448,201.9483 C437.25,212.6183 424.81,222.6083 412.1,231.6483 " fill="none" id="GMN18-EventTopic" style="stroke:#666666;stroke-width:1.0;stroke-dasharray:7.0,7.0;"/></g><!--SRC=[ZLHDRniX4BtlhvZwbAfoVEafXqesYQf8-LBZdDggOW77I2oiO4XaLVtl7TWbNfmwpSdU6UQzUSDZFcWhJ9GAjeXzE5iiF7y-VTIuZMqCoWjdKLay5QvRz8PRZ9sP1vH6jmlsUNwNGW_NLukE1rIUGhyOLN1jbJ_jwMpJe4QZuEA9KERdNjClN6lX7O4_QQ42t76aKjiq7wJQK25yks3hvStNgmiGXeVGDFl0R5eAondmKA4juNS3y0bwxmWwt7gf_Cd78HHReyCsDpA6N4ephpWgIQ4_5LC-26lNQv5fydV-73aixzGPp3B8NALic4sPJd9iO0gn3SBhLfsCZHwoLRfMhtIjHiuNdBNB_OHHIUmbYRYqAURyhkYpjsyfh3ZPAqxs7ywWhBnng3TQSDJEle_qd2DlUIYNLpxBnULfXltVIrHTE0QngY3AZ7IPGd62Z0AFOh0AesYs4rr3D-anP93QRlFvbua6iiCzCIl88_XXlo_PvJciFRU1YuJrS_QF-ecp2E1kS0yLJ-Su7ABooU5KMvk4olEDx19rs5dndZBsHbaDFnMRoHwoxU35TrIVAoCtG7iWQ5eALkmEW5W5nFPJcxhfE5H3bwF0wySjWjlKpv-kwhuiX_8EQSL8rz5AekJmJ85lQEEGiKLQ4fjeA4FRZdPF2E1wvSTx9uCd9wYH4bsV2FUZfB9XIs0Uh5J2nTweP9YkMd6SW9JbxP0pZZAGpshxUCXYrEQLhjLULu1LXcD0nX182NH5bhPIzGH77oQv_vdMk8i8Kdiby2XZwn1TTyZ9aZekjfKKI7DCwptfq4JfdYt8yfQeBmgFkvSwBTDEbjfwPrqCrDSB-ry0]--></g></svg>