<?xml version="1.0" encoding="us-ascii" standalone="no"?><svg xmlns="http://www.w3.org/2000/svg" xmlns:xlink="http://www.w3.org/1999/xlink" contentStyleType="text/css" height="727px" preserveAspectRatio="none" style="width:934px;height:727px;background:#FFFFFF;" version="1.1" viewBox="0 0 934 727" width="934px" zoomAndPan="magnify"><defs/><g><text fill="#000000" font-family="sans-serif" font-size="14" font-weight="bold" lengthAdjust="spacing" textLength="162" x="379.285" y="23.5352">Message Filter Pattern</text><!--class Producer--><g id="elem_Producer"><rect codeLine="7" fill="#F1F1F1" height="97.4648" id="Producer" rx="2.5" ry="2.5" style="stroke:#181818;stroke-width:0.5;" width="152" x="267.5" y="44.4883"/><ellipse cx="308.6" cy="60.4883" fill="#ADD1B2" rx="11" ry="11" style="stroke:#181818;stroke-width:1.0;"/><path d="M311.0731,66.6313 Q310.4921,66.9302 309.8529,67.0796 Q309.2138,67.229 308.5082,67.229 Q306.0014,67.229 304.6815,65.5771 Q303.3617,63.9253 303.3617,60.8042 Q303.3617,57.6748 304.6815,56.0229 Q306.0014,54.3711 308.5082,54.3711 Q309.2138,54.3711 309.8612,54.5205 Q310.5087,54.6699 311.0731,54.9688 L311.0731,57.6914 Q310.4423,57.1104 309.8488,56.8406 Q309.2553,56.5708 308.6244,56.5708 Q307.2797,56.5708 306.5949,57.6375 Q305.9101,58.7041 305.9101,60.8042 Q305.9101,62.896 306.5949,63.9626 Q307.2797,65.0293 308.6244,65.0293 Q309.2553,65.0293 309.8488,64.7595 Q310.4423,64.4897 311.0731,63.9087 Z " fill="#000000"/><text fill="#000000" font-family="sans-serif" font-size="14" lengthAdjust="spacing" textLength="62" x="328.4" y="65.7793">Producer</text><line style="stroke:#181818;stroke-width:0.5;" x1="268.5" x2="418.5" y1="76.4883" y2="76.4883"/><line style="stroke:#181818;stroke-width:0.5;" x1="268.5" x2="418.5" y1="84.4883" y2="84.4883"/><ellipse cx="278.5" cy="98.2324" fill="#84BE84" rx="3" ry="3" style="stroke:#038048;stroke-width:1.0;"/><text fill="#000000" font-family="sans-serif" font-size="14" lengthAdjust="spacing" textLength="126" x="287.5" y="102.0234">produceMessage()</text><ellipse cx="278.5" cy="114.7207" fill="#84BE84" rx="3" ry="3" style="stroke:#038048;stroke-width:1.0;"/><text fill="#000000" font-family="sans-serif" font-size="14" lengthAdjust="spacing" textLength="122" x="287.5" y="118.5117">setMessageType()</text><ellipse cx="278.5" cy="131.209" fill="#84BE84" rx="3" ry="3" style="stroke:#038048;stroke-width:1.0;"/><text fill="#000000" font-family="sans-serif" font-size="14" lengthAdjust="spacing" textLength="117" x="287.5" y="135">publishToTopic()</text></g><!--class Topic--><g id="elem_Topic"><rect codeLine="13" fill="#F1F1F1" height="113.9531" id="Topic" rx="2.5" ry="2.5" style="stroke:#181818;stroke-width:0.5;" width="190" x="479.5" y="231.9583"/><ellipse cx="551.25" cy="247.9583" fill="#ADD1B2" rx="11" ry="11" style="stroke:#181818;stroke-width:1.0;"/><path d="M553.7231,254.1013 Q553.1421,254.4002 552.5029,254.5496 Q551.8638,254.699 551.1582,254.699 Q548.6514,254.699 547.3315,253.0471 Q546.0117,251.3953 546.0117,248.2742 Q546.0117,245.1448 547.3315,243.4929 Q548.6514,241.8411 551.1582,241.8411 Q551.8638,241.8411 552.5112,241.9905 Q553.1587,242.1399 553.7231,242.4388 L553.7231,245.1614 Q553.0923,244.5804 552.4988,244.3106 Q551.9053,244.0408 551.2744,244.0408 Q549.9297,244.0408 549.2449,245.1075 Q548.5601,246.1741 548.5601,248.2742 Q548.5601,250.366 549.2449,251.4326 Q549.9297,252.4993 551.2744,252.4993 Q551.9053,252.4993 552.4988,252.2295 Q553.0923,251.9597 553.7231,251.3787 Z " fill="#000000"/><text fill="#000000" font-family="sans-serif" font-size="14" lengthAdjust="spacing" textLength="38" x="571.75" y="253.2493">Topic</text><line style="stroke:#181818;stroke-width:0.5;" x1="480.5" x2="668.5" y1="263.9583" y2="263.9583"/><ellipse cx="490.5" cy="285.9466" fill="none" rx="3" ry="3" style="stroke:#038048;stroke-width:1.0;"/><text fill="#000000" font-family="sans-serif" font-size="14" lengthAdjust="spacing" textLength="104" x="499.5" y="281.4934">messageTypes:</text><text fill="#000000" font-family="sans-serif" font-size="14" lengthAdjust="spacing" textLength="4" x="603.5" y="281.4934">&#160;</text><text fill="#000000" font-family="sans-serif" font-size="14" lengthAdjust="spacing" textLength="56" x="607.5" y="281.4934">[ORDER,</text><text fill="#000000" font-family="sans-serif" font-size="14" lengthAdjust="spacing" textLength="83" x="499.5" y="297.9817">INVENTORY,</text><text fill="#000000" font-family="sans-serif" font-size="14" lengthAdjust="spacing" textLength="4" x="582.5" y="297.9817">&#160;</text><text fill="#000000" font-family="sans-serif" font-size="14" lengthAdjust="spacing" textLength="40" x="586.5" y="297.9817">USER]</text><line style="stroke:#181818;stroke-width:0.5;" x1="480.5" x2="668.5" y1="304.9348" y2="304.9348"/><ellipse cx="490.5" cy="318.679" fill="#84BE84" rx="3" ry="3" style="stroke:#038048;stroke-width:1.0;"/><text fill="#000000" font-family="sans-serif" font-size="14" lengthAdjust="spacing" textLength="121" x="499.5" y="322.47">publish(message)</text><ellipse cx="490.5" cy="335.1673" fill="#84BE84" rx="3" ry="3" style="stroke:#038048;stroke-width:1.0;"/><text fill="#000000" font-family="sans-serif" font-size="14" lengthAdjust="spacing" textLength="78" x="499.5" y="338.9583">broadcast()</text></g><!--class SubscriberA--><g id="elem_SubscriberA"><rect codeLine="19" fill="#F1F1F1" height="97.4648" id="SubscriberA" rx="2.5" ry="2.5" style="stroke:#181818;stroke-width:0.5;" width="195" x="7" y="623.3783"/><ellipse cx="56.75" cy="639.3783" fill="#ADD1B2" rx="11" ry="11" style="stroke:#181818;stroke-width:1.0;"/><path d="M59.2231,645.5213 Q58.6421,645.8202 58.0029,645.9696 Q57.3638,646.119 56.6582,646.119 Q54.1514,646.119 52.8315,644.4671 Q51.5117,642.8153 51.5117,639.6942 Q51.5117,636.5648 52.8315,634.9129 Q54.1514,633.2611 56.6582,633.2611 Q57.3638,633.2611 58.0112,633.4105 Q58.6587,633.5599 59.2231,633.8588 L59.2231,636.5814 Q58.5923,636.0004 57.9988,635.7306 Q57.4053,635.4608 56.7744,635.4608 Q55.4297,635.4608 54.7449,636.5275 Q54.0601,637.5941 54.0601,639.6942 Q54.0601,641.786 54.7449,642.8526 Q55.4297,643.9193 56.7744,643.9193 Q57.4053,643.9193 57.9988,643.6495 Q58.5923,643.3797 59.2231,642.7987 Z " fill="#000000"/><text fill="#000000" font-family="sans-serif" font-size="14" lengthAdjust="spacing" textLength="73" x="77.25" y="644.6693">Subscriber</text><text fill="#000000" font-family="sans-serif" font-size="14" lengthAdjust="spacing" textLength="4" x="150.25" y="644.6693">&#160;</text><text fill="#000000" font-family="sans-serif" font-size="14" lengthAdjust="spacing" textLength="10" x="154.25" y="644.6693">A</text><line style="stroke:#181818;stroke-width:0.5;" x1="8" x2="201" y1="655.3783" y2="655.3783"/><ellipse cx="18" cy="669.1224" fill="none" rx="3" ry="3" style="stroke:#038048;stroke-width:1.0;"/><text fill="#000000" font-family="sans-serif" font-size="14" lengthAdjust="spacing" textLength="99" x="27" y="672.9134">messageFilter:</text><text fill="#000000" font-family="sans-serif" font-size="14" lengthAdjust="spacing" textLength="4" x="126" y="672.9134">&#160;</text><text fill="#000000" font-family="sans-serif" font-size="14" lengthAdjust="spacing" textLength="57" x="130" y="672.9134">"ORDER"</text><line style="stroke:#181818;stroke-width:0.5;" x1="8" x2="201" y1="679.8666" y2="679.8666"/><ellipse cx="18" cy="693.6107" fill="#84BE84" rx="3" ry="3" style="stroke:#038048;stroke-width:1.0;"/><text fill="#000000" font-family="sans-serif" font-size="14" lengthAdjust="spacing" textLength="87" x="27" y="697.4017">onMessage()</text><ellipse cx="18" cy="710.099" fill="#84BE84" rx="3" ry="3" style="stroke:#038048;stroke-width:1.0;"/><text fill="#000000" font-family="sans-serif" font-size="14" lengthAdjust="spacing" textLength="169" x="27" y="713.89">processOrderMessages()</text></g><!--class SubscriberB--><g id="elem_SubscriberB"><rect codeLine="25" fill="#F1F1F1" height="97.4648" id="SubscriberB" rx="2.5" ry="2.5" style="stroke:#181818;stroke-width:0.5;" width="219" x="465" y="623.3783"/><ellipse cx="527.75" cy="639.3783" fill="#ADD1B2" rx="11" ry="11" style="stroke:#181818;stroke-width:1.0;"/><path d="M530.2231,645.5213 Q529.6421,645.8202 529.0029,645.9696 Q528.3638,646.119 527.6582,646.119 Q525.1514,646.119 523.8315,644.4671 Q522.5117,642.8153 522.5117,639.6942 Q522.5117,636.5648 523.8315,634.9129 Q525.1514,633.2611 527.6582,633.2611 Q528.3638,633.2611 529.0112,633.4105 Q529.6587,633.5599 530.2231,633.8588 L530.2231,636.5814 Q529.5923,636.0004 528.9988,635.7306 Q528.4053,635.4608 527.7744,635.4608 Q526.4297,635.4608 525.7449,636.5275 Q525.0601,637.5941 525.0601,639.6942 Q525.0601,641.786 525.7449,642.8526 Q526.4297,643.9193 527.7744,643.9193 Q528.4053,643.9193 528.9988,643.6495 Q529.5923,643.3797 530.2231,642.7987 Z " fill="#000000"/><text fill="#000000" font-family="sans-serif" font-size="14" lengthAdjust="spacing" textLength="73" x="548.25" y="644.6693">Subscriber</text><text fill="#000000" font-family="sans-serif" font-size="14" lengthAdjust="spacing" textLength="4" x="621.25" y="644.6693">&#160;</text><text fill="#000000" font-family="sans-serif" font-size="14" lengthAdjust="spacing" textLength="8" x="625.25" y="644.6693">B</text><line style="stroke:#181818;stroke-width:0.5;" x1="466" x2="683" y1="655.3783" y2="655.3783"/><ellipse cx="476" cy="669.1224" fill="none" rx="3" ry="3" style="stroke:#038048;stroke-width:1.0;"/><text fill="#000000" font-family="sans-serif" font-size="14" lengthAdjust="spacing" textLength="99" x="485" y="672.9134">messageFilter:</text><text fill="#000000" font-family="sans-serif" font-size="14" lengthAdjust="spacing" textLength="4" x="584" y="672.9134">&#160;</text><text fill="#000000" font-family="sans-serif" font-size="14" lengthAdjust="spacing" textLength="89" x="588" y="672.9134">"INVENTORY"</text><line style="stroke:#181818;stroke-width:0.5;" x1="466" x2="683" y1="679.8666" y2="679.8666"/><ellipse cx="476" cy="693.6107" fill="#84BE84" rx="3" ry="3" style="stroke:#038048;stroke-width:1.0;"/><text fill="#000000" font-family="sans-serif" font-size="14" lengthAdjust="spacing" textLength="87" x="485" y="697.4017">onMessage()</text><ellipse cx="476" cy="710.099" fill="#84BE84" rx="3" ry="3" style="stroke:#038048;stroke-width:1.0;"/><text fill="#000000" font-family="sans-serif" font-size="14" lengthAdjust="spacing" textLength="193" x="485" y="713.89">processInventoryMessages()</text></g><!--class SubscriberC--><g id="elem_SubscriberC"><rect codeLine="31" fill="#F1F1F1" height="97.4648" id="SubscriberC" rx="2.5" ry="2.5" style="stroke:#181818;stroke-width:0.5;" width="186" x="719.5" y="623.3783"/><ellipse cx="764.75" cy="639.3783" fill="#ADD1B2" rx="11" ry="11" style="stroke:#181818;stroke-width:1.0;"/><path d="M767.2231,645.5213 Q766.6421,645.8202 766.0029,645.9696 Q765.3638,646.119 764.6582,646.119 Q762.1514,646.119 760.8315,644.4671 Q759.5117,642.8153 759.5117,639.6942 Q759.5117,636.5648 760.8315,634.9129 Q762.1514,633.2611 764.6582,633.2611 Q765.3638,633.2611 766.0112,633.4105 Q766.6587,633.5599 767.2231,633.8588 L767.2231,636.5814 Q766.5923,636.0004 765.9988,635.7306 Q765.4053,635.4608 764.7744,635.4608 Q763.4297,635.4608 762.7449,636.5275 Q762.0601,637.5941 762.0601,639.6942 Q762.0601,641.786 762.7449,642.8526 Q763.4297,643.9193 764.7744,643.9193 Q765.4053,643.9193 765.9988,643.6495 Q766.5923,643.3797 767.2231,642.7987 Z " fill="#000000"/><text fill="#000000" font-family="sans-serif" font-size="14" lengthAdjust="spacing" textLength="73" x="785.25" y="644.6693">Subscriber</text><text fill="#000000" font-family="sans-serif" font-size="14" lengthAdjust="spacing" textLength="4" x="858.25" y="644.6693">&#160;</text><text fill="#000000" font-family="sans-serif" font-size="14" lengthAdjust="spacing" textLength="10" x="862.25" y="644.6693">C</text><line style="stroke:#181818;stroke-width:0.5;" x1="720.5" x2="904.5" y1="655.3783" y2="655.3783"/><ellipse cx="730.5" cy="669.1224" fill="none" rx="3" ry="3" style="stroke:#038048;stroke-width:1.0;"/><text fill="#000000" font-family="sans-serif" font-size="14" lengthAdjust="spacing" textLength="99" x="739.5" y="672.9134">messageFilter:</text><text fill="#000000" font-family="sans-serif" font-size="14" lengthAdjust="spacing" textLength="4" x="838.5" y="672.9134">&#160;</text><text fill="#000000" font-family="sans-serif" font-size="14" lengthAdjust="spacing" textLength="45" x="842.5" y="672.9134">"USER"</text><line style="stroke:#181818;stroke-width:0.5;" x1="720.5" x2="904.5" y1="679.8666" y2="679.8666"/><ellipse cx="730.5" cy="693.6107" fill="#84BE84" rx="3" ry="3" style="stroke:#038048;stroke-width:1.0;"/><text fill="#000000" font-family="sans-serif" font-size="14" lengthAdjust="spacing" textLength="87" x="739.5" y="697.4017">onMessage()</text><ellipse cx="730.5" cy="710.099" fill="#84BE84" rx="3" ry="3" style="stroke:#038048;stroke-width:1.0;"/><text fill="#000000" font-family="sans-serif" font-size="14" lengthAdjust="spacing" textLength="160" x="739.5" y="713.89">processUserMessages()</text></g><!--class FilterA--><g id="elem_FilterA"><rect codeLine="37" fill="#F1F1F1" height="80.9766" id="FilterA" rx="2.5" ry="2.5" style="stroke:#181818;stroke-width:0.5;" width="214" x="226.5" y="430.1483"/><ellipse cx="273.25" cy="446.1483" fill="#ADD1B2" rx="11" ry="11" style="stroke:#181818;stroke-width:1.0;"/><path d="M275.7231,452.2913 Q275.1421,452.5902 274.5029,452.7396 Q273.8638,452.889 273.1582,452.889 Q270.6514,452.889 269.3315,451.2371 Q268.0117,449.5853 268.0117,446.4642 Q268.0117,443.3348 269.3315,441.6829 Q270.6514,440.0311 273.1582,440.0311 Q273.8638,440.0311 274.5112,440.1805 Q275.1587,440.3299 275.7231,440.6288 L275.7231,443.3514 Q275.0923,442.7704 274.4988,442.5006 Q273.9053,442.2308 273.2744,442.2308 Q271.9297,442.2308 271.2449,443.2975 Q270.5601,444.3641 270.5601,446.4642 Q270.5601,448.556 271.2449,449.6226 Q271.9297,450.6893 273.2744,450.6893 Q273.9053,450.6893 274.4988,450.4195 Q275.0923,450.1497 275.7231,449.5687 Z " fill="#000000"/><text fill="#000000" font-family="sans-serif" font-size="14" lengthAdjust="spacing" textLength="59" x="293.75" y="451.4393">Message</text><text fill="#000000" font-family="sans-serif" font-size="14" lengthAdjust="spacing" textLength="4" x="352.75" y="451.4393">&#160;</text><text fill="#000000" font-family="sans-serif" font-size="14" lengthAdjust="spacing" textLength="35" x="356.75" y="451.4393">Filter</text><text fill="#000000" font-family="sans-serif" font-size="14" lengthAdjust="spacing" textLength="4" x="391.75" y="451.4393">&#160;</text><text fill="#000000" font-family="sans-serif" font-size="14" lengthAdjust="spacing" textLength="10" x="395.75" y="451.4393">A</text><line style="stroke:#181818;stroke-width:0.5;" x1="227.5" x2="439.5" y1="462.1483" y2="462.1483"/><ellipse cx="237.5" cy="475.8924" fill="none" rx="3" ry="3" style="stroke:#038048;stroke-width:1.0;"/><text fill="#000000" font-family="sans-serif" font-size="14" lengthAdjust="spacing" textLength="87" x="246.5" y="479.6834">filterCriteria:</text><text fill="#000000" font-family="sans-serif" font-size="14" lengthAdjust="spacing" textLength="4" x="333.5" y="479.6834">&#160;</text><text fill="#000000" font-family="sans-serif" font-size="14" lengthAdjust="spacing" textLength="97" x="337.5" y="479.6834">"type=ORDER"</text><line style="stroke:#181818;stroke-width:0.5;" x1="227.5" x2="439.5" y1="486.6366" y2="486.6366"/><ellipse cx="237.5" cy="500.3807" fill="#84BE84" rx="3" ry="3" style="stroke:#038048;stroke-width:1.0;"/><text fill="#000000" font-family="sans-serif" font-size="14" lengthAdjust="spacing" textLength="127" x="246.5" y="504.1717">evaluate(message)</text></g><!--class FilterB--><g id="elem_FilterB"><rect codeLine="42" fill="#F1F1F1" height="97.4648" id="FilterB" rx="2.5" ry="2.5" style="stroke:#181818;stroke-width:0.5;" width="155" x="497" y="421.9083"/><ellipse cx="517.85" cy="437.9083" fill="#ADD1B2" rx="11" ry="11" style="stroke:#181818;stroke-width:1.0;"/><path d="M520.3231,444.0513 Q519.7421,444.3502 519.1029,444.4996 Q518.4638,444.649 517.7582,444.649 Q515.2514,444.649 513.9315,442.9971 Q512.6117,441.3453 512.6117,438.2242 Q512.6117,435.0948 513.9315,433.4429 Q515.2514,431.7911 517.7582,431.7911 Q518.4638,431.7911 519.1112,431.9405 Q519.7587,432.0899 520.3231,432.3888 L520.3231,435.1114 Q519.6923,434.5304 519.0988,434.2606 Q518.5053,433.9908 517.8744,433.9908 Q516.5297,433.9908 515.8449,435.0575 Q515.1601,436.1241 515.1601,438.2242 Q515.1601,440.316 515.8449,441.3826 Q516.5297,442.4493 517.8744,442.4493 Q518.5053,442.4493 519.0988,442.1795 Q519.6923,441.9097 520.3231,441.3287 Z " fill="#000000"/><text fill="#000000" font-family="sans-serif" font-size="14" lengthAdjust="spacing" textLength="59" x="533.15" y="443.1993">Message</text><text fill="#000000" font-family="sans-serif" font-size="14" lengthAdjust="spacing" textLength="4" x="592.15" y="443.1993">&#160;</text><text fill="#000000" font-family="sans-serif" font-size="14" lengthAdjust="spacing" textLength="35" x="596.15" y="443.1993">Filter</text><text fill="#000000" font-family="sans-serif" font-size="14" lengthAdjust="spacing" textLength="4" x="631.15" y="443.1993">&#160;</text><text fill="#000000" font-family="sans-serif" font-size="14" lengthAdjust="spacing" textLength="8" x="635.15" y="443.1993">B</text><line style="stroke:#181818;stroke-width:0.5;" x1="498" x2="651" y1="453.9083" y2="453.9083"/><ellipse cx="508" cy="475.8966" fill="none" rx="3" ry="3" style="stroke:#038048;stroke-width:1.0;"/><text fill="#000000" font-family="sans-serif" font-size="14" lengthAdjust="spacing" textLength="87" x="517" y="471.4434">filterCriteria:</text><text fill="#000000" font-family="sans-serif" font-size="14" lengthAdjust="spacing" textLength="129" x="517" y="487.9317">"type=INVENTORY"</text><line style="stroke:#181818;stroke-width:0.5;" x1="498" x2="651" y1="494.8848" y2="494.8848"/><ellipse cx="508" cy="508.629" fill="#84BE84" rx="3" ry="3" style="stroke:#038048;stroke-width:1.0;"/><text fill="#000000" font-family="sans-serif" font-size="14" lengthAdjust="spacing" textLength="127" x="517" y="512.42">evaluate(message)</text></g><!--class FilterC--><g id="elem_FilterC"><rect codeLine="47" fill="#F1F1F1" height="80.9766" id="FilterC" rx="2.5" ry="2.5" style="stroke:#181818;stroke-width:0.5;" width="202" x="699.5" y="430.1483"/><ellipse cx="740.6" cy="446.1483" fill="#ADD1B2" rx="11" ry="11" style="stroke:#181818;stroke-width:1.0;"/><path d="M743.0731,452.2913 Q742.4921,452.5902 741.8529,452.7396 Q741.2138,452.889 740.5082,452.889 Q738.0014,452.889 736.6815,451.2371 Q735.3617,449.5853 735.3617,446.4642 Q735.3617,443.3348 736.6815,441.6829 Q738.0014,440.0311 740.5082,440.0311 Q741.2138,440.0311 741.8612,440.1805 Q742.5087,440.3299 743.0731,440.6288 L743.0731,443.3514 Q742.4423,442.7704 741.8488,442.5006 Q741.2553,442.2308 740.6244,442.2308 Q739.2797,442.2308 738.5949,443.2975 Q737.9101,444.3641 737.9101,446.4642 Q737.9101,448.556 738.5949,449.6226 Q739.2797,450.6893 740.6244,450.6893 Q741.2553,450.6893 741.8488,450.4195 Q742.4423,450.1497 743.0731,449.5687 Z " fill="#000000"/><text fill="#000000" font-family="sans-serif" font-size="14" lengthAdjust="spacing" textLength="59" x="760.4" y="451.4393">Message</text><text fill="#000000" font-family="sans-serif" font-size="14" lengthAdjust="spacing" textLength="4" x="819.4" y="451.4393">&#160;</text><text fill="#000000" font-family="sans-serif" font-size="14" lengthAdjust="spacing" textLength="35" x="823.4" y="451.4393">Filter</text><text fill="#000000" font-family="sans-serif" font-size="14" lengthAdjust="spacing" textLength="4" x="858.4" y="451.4393">&#160;</text><text fill="#000000" font-family="sans-serif" font-size="14" lengthAdjust="spacing" textLength="10" x="862.4" y="451.4393">C</text><line style="stroke:#181818;stroke-width:0.5;" x1="700.5" x2="900.5" y1="462.1483" y2="462.1483"/><ellipse cx="710.5" cy="475.8924" fill="none" rx="3" ry="3" style="stroke:#038048;stroke-width:1.0;"/><text fill="#000000" font-family="sans-serif" font-size="14" lengthAdjust="spacing" textLength="87" x="719.5" y="479.6834">filterCriteria:</text><text fill="#000000" font-family="sans-serif" font-size="14" lengthAdjust="spacing" textLength="4" x="806.5" y="479.6834">&#160;</text><text fill="#000000" font-family="sans-serif" font-size="14" lengthAdjust="spacing" textLength="85" x="810.5" y="479.6834">"type=USER"</text><line style="stroke:#181818;stroke-width:0.5;" x1="700.5" x2="900.5" y1="486.6366" y2="486.6366"/><ellipse cx="710.5" cy="500.3807" fill="#84BE84" rx="3" ry="3" style="stroke:#038048;stroke-width:1.0;"/><text fill="#000000" font-family="sans-serif" font-size="14" lengthAdjust="spacing" textLength="127" x="719.5" y="504.1717">evaluate(message)</text></g><g id="elem_GMN17"><path d="M454,65.2583 L454,89.2183 L419.99,93.2183 L454,97.2183 L454,121.1899 A0,0 0 0 0 454,121.1899 L661,121.1899 A0,0 0 0 0 661,121.1899 L661,75.2583 L651,65.2583 L454,65.2583 A0,0 0 0 0 454,65.2583 " fill="#FEFFDD" style="stroke:#181818;stroke-width:0.5;"/><path d="M651,65.2583 L651,75.2583 L661,75.2583 L651,65.2583 " fill="#FEFFDD" style="stroke:#181818;stroke-width:0.5;"/><text fill="#000000" font-family="sans-serif" font-size="13" lengthAdjust="spacing" textLength="55" x="460" y="82.8266">Producer</text><text fill="#000000" font-family="sans-serif" font-size="13" lengthAdjust="spacing" textLength="4" x="515" y="82.8266">&#160;</text><text fill="#000000" font-family="sans-serif" font-size="13" lengthAdjust="spacing" textLength="61" x="519" y="82.8266">publishes</text><text fill="#000000" font-family="sans-serif" font-size="13" lengthAdjust="spacing" textLength="4" x="580" y="82.8266">&#160;</text><text fill="#000000" font-family="sans-serif" font-size="13" lengthAdjust="spacing" textLength="62" x="584" y="82.8266">messages</text><text fill="#000000" font-family="sans-serif" font-size="13" lengthAdjust="spacing" textLength="27" x="478" y="98.1372">with</text><text fill="#000000" font-family="sans-serif" font-size="13" lengthAdjust="spacing" textLength="4" x="505" y="98.1372">&#160;</text><text fill="#000000" font-family="sans-serif" font-size="13" lengthAdjust="spacing" textLength="54" x="509" y="98.1372">different</text><text fill="#000000" font-family="sans-serif" font-size="13" lengthAdjust="spacing" textLength="4" x="563" y="98.1372">&#160;</text><text fill="#000000" font-family="sans-serif" font-size="13" lengthAdjust="spacing" textLength="34" x="567" y="98.1372">types</text><text fill="#000000" font-family="sans-serif" font-size="13" lengthAdjust="spacing" textLength="4" x="601" y="98.1372">&#160;</text><text fill="#000000" font-family="sans-serif" font-size="13" lengthAdjust="spacing" textLength="23" x="605" y="98.1372">and</text><text fill="#000000" font-family="sans-serif" font-size="13" lengthAdjust="spacing" textLength="58" x="486" y="113.4477">metadata</text><text fill="#000000" font-family="sans-serif" font-size="13" lengthAdjust="spacing" textLength="4" x="544" y="113.4477">&#160;</text><text fill="#000000" font-family="sans-serif" font-size="13" lengthAdjust="spacing" textLength="18" x="548" y="113.4477">for</text><text fill="#000000" font-family="sans-serif" font-size="13" lengthAdjust="spacing" textLength="4" x="566" y="113.4477">&#160;</text><text fill="#000000" font-family="sans-serif" font-size="13" lengthAdjust="spacing" textLength="50" x="570" y="113.4477">filtering</text></g><g id="elem_GMN20"><path d="M696,65.2583 L696,121.1899 A0,0 0 0 0 696,121.1899 L768.03,121.1899 L641.35,231.6383 L776.03,121.1899 L913,121.1899 A0,0 0 0 0 913,121.1899 L913,75.2583 L903,65.2583 L696,65.2583 A0,0 0 0 0 696,65.2583 " fill="#FEFFDD" style="stroke:#181818;stroke-width:0.5;"/><path d="M903,65.2583 L903,75.2583 L913,75.2583 L903,65.2583 " fill="#FEFFDD" style="stroke:#181818;stroke-width:0.5;"/><text fill="#000000" font-family="sans-serif" font-size="13" lengthAdjust="spacing" textLength="35" x="703.5" y="82.8266">Topic</text><text fill="#000000" font-family="sans-serif" font-size="13" lengthAdjust="spacing" textLength="4" x="738.5" y="82.8266">&#160;</text><text fill="#000000" font-family="sans-serif" font-size="13" lengthAdjust="spacing" textLength="69" x="742.5" y="82.8266">broadcasts</text><text fill="#000000" font-family="sans-serif" font-size="13" lengthAdjust="spacing" textLength="4" x="811.5" y="82.8266">&#160;</text><text fill="#000000" font-family="sans-serif" font-size="13" lengthAdjust="spacing" textLength="15" x="815.5" y="82.8266">all</text><text fill="#000000" font-family="sans-serif" font-size="13" lengthAdjust="spacing" textLength="4" x="830.5" y="82.8266">&#160;</text><text fill="#000000" font-family="sans-serif" font-size="13" lengthAdjust="spacing" textLength="62" x="834.5" y="82.8266">messages</text><text fill="#000000" font-family="sans-serif" font-size="13" lengthAdjust="spacing" textLength="13" x="720" y="98.1372">to</text><text fill="#000000" font-family="sans-serif" font-size="13" lengthAdjust="spacing" textLength="4" x="733" y="98.1372">&#160;</text><text fill="#000000" font-family="sans-serif" font-size="13" lengthAdjust="spacing" textLength="77" x="737" y="98.1372">subscribers,</text><text fill="#000000" font-family="sans-serif" font-size="13" lengthAdjust="spacing" textLength="4" x="814" y="98.1372">&#160;</text><text fill="#000000" font-family="sans-serif" font-size="13" lengthAdjust="spacing" textLength="21" x="818" y="98.1372">but</text><text fill="#000000" font-family="sans-serif" font-size="13" lengthAdjust="spacing" textLength="4" x="839" y="98.1372">&#160;</text><text fill="#000000" font-family="sans-serif" font-size="13" lengthAdjust="spacing" textLength="37" x="843" y="98.1372">filters</text><text fill="#000000" font-family="sans-serif" font-size="13" lengthAdjust="spacing" textLength="63" x="702" y="113.4477">determine</text><text fill="#000000" font-family="sans-serif" font-size="13" lengthAdjust="spacing" textLength="4" x="765" y="113.4477">&#160;</text><text fill="#000000" font-family="sans-serif" font-size="13" lengthAdjust="spacing" textLength="30" x="769" y="113.4477">what</text><text fill="#000000" font-family="sans-serif" font-size="13" lengthAdjust="spacing" textLength="4" x="799" y="113.4477">&#160;</text><text fill="#000000" font-family="sans-serif" font-size="13" lengthAdjust="spacing" textLength="27" x="803" y="113.4477">gets</text><text fill="#000000" font-family="sans-serif" font-size="13" lengthAdjust="spacing" textLength="4" x="830" y="113.4477">&#160;</text><text fill="#000000" font-family="sans-serif" font-size="13" lengthAdjust="spacing" textLength="64" x="834" y="113.4477">processed</text></g><g id="elem_GMN23"><path d="M237,636.4883 L237,707.7305 A0,0 0 0 0 237,707.7305 L430,707.7305 A0,0 0 0 0 430,707.7305 L430,646.4883 L420,636.4883 L337.5,636.4883 L333.5,511.5283 L329.5,636.4883 L237,636.4883 A0,0 0 0 0 237,636.4883 " fill="#FEFFDD" style="stroke:#181818;stroke-width:0.5;"/><path d="M420,636.4883 L420,646.4883 L430,646.4883 L420,636.4883 " fill="#FEFFDD" style="stroke:#181818;stroke-width:0.5;"/><text fill="#000000" font-family="sans-serif" font-size="13" lengthAdjust="spacing" textLength="29" x="266" y="654.0566">Each</text><text fill="#000000" font-family="sans-serif" font-size="13" lengthAdjust="spacing" textLength="4" x="295" y="654.0566">&#160;</text><text fill="#000000" font-family="sans-serif" font-size="13" lengthAdjust="spacing" textLength="30" x="299" y="654.0566">filter</text><text fill="#000000" font-family="sans-serif" font-size="13" lengthAdjust="spacing" textLength="4" x="329" y="654.0566">&#160;</text><text fill="#000000" font-family="sans-serif" font-size="13" lengthAdjust="spacing" textLength="59" x="333" y="654.0566">evaluates</text><text fill="#000000" font-family="sans-serif" font-size="13" lengthAdjust="spacing" textLength="55" x="248.5" y="669.3672">message</text><text fill="#000000" font-family="sans-serif" font-size="13" lengthAdjust="spacing" textLength="4" x="303.5" y="669.3672">&#160;</text><text fill="#000000" font-family="sans-serif" font-size="13" lengthAdjust="spacing" textLength="44" x="307.5" y="669.3672">criteria</text><text fill="#000000" font-family="sans-serif" font-size="13" lengthAdjust="spacing" textLength="4" x="351.5" y="669.3672">&#160;</text><text fill="#000000" font-family="sans-serif" font-size="13" lengthAdjust="spacing" textLength="23" x="355.5" y="669.3672">and</text><text fill="#000000" font-family="sans-serif" font-size="13" lengthAdjust="spacing" textLength="4" x="378.5" y="669.3672">&#160;</text><text fill="#000000" font-family="sans-serif" font-size="13" lengthAdjust="spacing" textLength="27" x="382.5" y="669.3672">only</text><text fill="#000000" font-family="sans-serif" font-size="13" lengthAdjust="spacing" textLength="43" x="243" y="684.6777">passes</text><text fill="#000000" font-family="sans-serif" font-size="13" lengthAdjust="spacing" textLength="4" x="286" y="684.6777">&#160;</text><text fill="#000000" font-family="sans-serif" font-size="13" lengthAdjust="spacing" textLength="59" x="290" y="684.6777">matching</text><text fill="#000000" font-family="sans-serif" font-size="13" lengthAdjust="spacing" textLength="4" x="349" y="684.6777">&#160;</text><text fill="#000000" font-family="sans-serif" font-size="13" lengthAdjust="spacing" textLength="62" x="353" y="684.6777">messages</text><text fill="#000000" font-family="sans-serif" font-size="13" lengthAdjust="spacing" textLength="13" x="277.5" y="699.9883">to</text><text fill="#000000" font-family="sans-serif" font-size="13" lengthAdjust="spacing" textLength="4" x="290.5" y="699.9883">&#160;</text><text fill="#000000" font-family="sans-serif" font-size="13" lengthAdjust="spacing" textLength="16" x="294.5" y="699.9883">its</text><text fill="#000000" font-family="sans-serif" font-size="13" lengthAdjust="spacing" textLength="4" x="310.5" y="699.9883">&#160;</text><text fill="#000000" font-family="sans-serif" font-size="13" lengthAdjust="spacing" textLength="66" x="314.5" y="699.9883">subscriber</text></g><!--link Producer to Topic--><g id="link_Producer_Topic"><path codeLine="52" d="M400.9,142.3583 C433.23,169.4683 469.1926,199.6229 502.9626,227.9429 " fill="none" id="Producer-to-Topic" style="stroke:#666666;stroke-width:1.0;"/><polygon fill="#666666" points="507.56,231.7983,503.2342,222.9502,503.7289,228.5854,498.0937,229.0801,507.56,231.7983" style="stroke:#666666;stroke-width:1.0;"/><text fill="#666666" font-family="sans-serif" font-size="12" lengthAdjust="spacing" textLength="41" x="466.93" y="184.5598">Publish</text><text fill="#666666" font-family="sans-serif" font-size="12" lengthAdjust="spacing" textLength="4" x="507.93" y="184.5598">&#160;</text><text fill="#666666" font-family="sans-serif" font-size="12" lengthAdjust="spacing" textLength="14" x="511.93" y="184.5598">All</text><text fill="#666666" font-family="sans-serif" font-size="12" lengthAdjust="spacing" textLength="4" x="525.93" y="184.5598">&#160;</text><text fill="#666666" font-family="sans-serif" font-size="12" lengthAdjust="spacing" textLength="56" x="529.93" y="184.5598">Messages</text><text fill="#666666" font-family="sans-serif" font-size="12" lengthAdjust="spacing" textLength="39" x="485.43" y="198.6927">[Mixed</text><text fill="#666666" font-family="sans-serif" font-size="12" lengthAdjust="spacing" textLength="4" x="524.43" y="198.6927">&#160;</text><text fill="#666666" font-family="sans-serif" font-size="12" lengthAdjust="spacing" textLength="39" x="528.43" y="198.6927">Types]</text></g><!--link Topic to FilterA--><g id="link_Topic_FilterA"><path codeLine="53" d="M498.91,346.2983 C462.6,373.3683 424.7602,401.5919 391.8602,426.1219 " fill="none" id="Topic-to-FilterA" style="stroke:#666666;stroke-width:1.0;"/><polygon fill="#666666" points="387.05,429.7083,396.6562,427.5354,391.0585,426.7196,391.8743,421.1219,387.05,429.7083" style="stroke:#666666;stroke-width:1.0;"/><text fill="#666666" font-family="sans-serif" font-size="12" lengthAdjust="spacing" textLength="14" x="455" y="388.5098">All</text><text fill="#666666" font-family="sans-serif" font-size="12" lengthAdjust="spacing" textLength="4" x="469" y="388.5098">&#160;</text><text fill="#666666" font-family="sans-serif" font-size="12" lengthAdjust="spacing" textLength="56" x="473" y="388.5098">Messages</text></g><!--link Topic to FilterB--><g id="link_Topic_FilterB"><path codeLine="54" d="M574.5,346.2983 C574.5,370.4883 574.5,392.4583 574.5,415.6383 " fill="none" id="Topic-to-FilterB" style="stroke:#666666;stroke-width:1.0;"/><polygon fill="#666666" points="574.5,421.6383,578.5,412.6383,574.5,416.6383,570.5,412.6383,574.5,421.6383" style="stroke:#666666;stroke-width:1.0;"/><text fill="#666666" font-family="sans-serif" font-size="12" lengthAdjust="spacing" textLength="14" x="575.5" y="388.5098">All</text><text fill="#666666" font-family="sans-serif" font-size="12" lengthAdjust="spacing" textLength="4" x="589.5" y="388.5098">&#160;</text><text fill="#666666" font-family="sans-serif" font-size="12" lengthAdjust="spacing" textLength="56" x="593.5" y="388.5098">Messages</text></g><!--link Topic to FilterC--><g id="link_Topic_FilterC"><path codeLine="55" d="M645.39,346.2983 C679.43,373.3683 714.7337,401.4441 745.5837,425.9741 " fill="none" id="Topic-to-FilterC" style="stroke:#666666;stroke-width:1.0;"/><polygon fill="#666666" points="750.28,429.7083,745.725,420.976,746.3664,426.5964,740.746,427.2378,750.28,429.7083" style="stroke:#666666;stroke-width:1.0;"/><text fill="#666666" font-family="sans-serif" font-size="12" lengthAdjust="spacing" textLength="14" x="702.03" y="388.5098">All</text><text fill="#666666" font-family="sans-serif" font-size="12" lengthAdjust="spacing" textLength="4" x="716.03" y="388.5098">&#160;</text><text fill="#666666" font-family="sans-serif" font-size="12" lengthAdjust="spacing" textLength="56" x="720.03" y="388.5098">Messages</text></g><!--link FilterA to SubscriberA--><g id="link_FilterA_SubscriberA"><path codeLine="56" d="M247.78,511.5183 C228.86,522.3683 209.65,535.1183 193.5,549.3783 C169.65,570.4283 151.6695,593.8839 135.9195,618.0139 " fill="none" id="FilterA-to-SubscriberA" style="stroke:#666666;stroke-width:1.0;"/><polygon fill="#666666" points="132.64,623.0383,140.9089,617.688,135.3729,618.8513,134.2097,613.3153,132.64,623.0383" style="stroke:#666666;stroke-width:1.0;"/><text fill="#666666" font-family="sans-serif" font-size="12" lengthAdjust="spacing" textLength="41" x="194.5" y="568.9798">ORDER</text><text fill="#666666" font-family="sans-serif" font-size="12" lengthAdjust="spacing" textLength="4" x="235.5" y="568.9798">&#160;</text><text fill="#666666" font-family="sans-serif" font-size="12" lengthAdjust="spacing" textLength="56" x="239.5" y="568.9798">Messages</text><text fill="#666666" font-family="sans-serif" font-size="12" lengthAdjust="spacing" textLength="4" x="295.5" y="568.9798">&#160;</text><text fill="#666666" font-family="sans-serif" font-size="12" lengthAdjust="spacing" textLength="25" x="299.5" y="568.9798">Only</text><text fill="#666666" font-family="sans-serif" font-size="12" lengthAdjust="spacing" textLength="51" x="234" y="583.1127">[Filtered]</text></g><!--link FilterB to SubscriberB--><g id="link_FilterB_SubscriberB"><path codeLine="57" d="M574.5,519.6683 C574.5,551.0283 574.5,585.8083 574.5,617.1483 " fill="none" id="FilterB-to-SubscriberB" style="stroke:#666666;stroke-width:1.0;"/><polygon fill="#666666" points="574.5,623.1483,578.5,614.1483,574.5,618.1483,570.5,614.1483,574.5,623.1483" style="stroke:#666666;stroke-width:1.0;"/><text fill="#666666" font-family="sans-serif" font-size="12" lengthAdjust="spacing" textLength="68" x="575.5" y="561.9798">INVENTORY</text><text fill="#666666" font-family="sans-serif" font-size="12" lengthAdjust="spacing" textLength="4" x="643.5" y="561.9798">&#160;</text><text fill="#666666" font-family="sans-serif" font-size="12" lengthAdjust="spacing" textLength="56" x="647.5" y="561.9798">Messages</text><text fill="#666666" font-family="sans-serif" font-size="12" lengthAdjust="spacing" textLength="25" x="627" y="576.1127">Only</text><text fill="#666666" font-family="sans-serif" font-size="12" lengthAdjust="spacing" textLength="51" x="614" y="590.2455">[Filtered]</text></g><!--link FilterC to SubscriberC--><g id="link_FilterC_SubscriberC"><path codeLine="58" d="M802.9,511.5283 C804.84,543.6983 807.1986,583.0692 809.2586,617.2092 " fill="none" id="FilterC-to-SubscriberC" style="stroke:#666666;stroke-width:1.0;"/><polygon fill="#666666" points="809.62,623.1983,813.0707,613.9737,809.3188,618.2074,805.0852,614.4555,809.62,623.1983" style="stroke:#666666;stroke-width:1.0;"/><text fill="#666666" font-family="sans-serif" font-size="12" lengthAdjust="spacing" textLength="29" x="808.57" y="568.9798">USER</text><text fill="#666666" font-family="sans-serif" font-size="12" lengthAdjust="spacing" textLength="4" x="837.57" y="568.9798">&#160;</text><text fill="#666666" font-family="sans-serif" font-size="12" lengthAdjust="spacing" textLength="56" x="841.57" y="568.9798">Messages</text><text fill="#666666" font-family="sans-serif" font-size="12" lengthAdjust="spacing" textLength="4" x="897.57" y="568.9798">&#160;</text><text fill="#666666" font-family="sans-serif" font-size="12" lengthAdjust="spacing" textLength="25" x="901.57" y="568.9798">Only</text><text fill="#666666" font-family="sans-serif" font-size="12" lengthAdjust="spacing" textLength="51" x="842.07" y="583.1127">[Filtered]</text></g><!--SRC=[bLHDRzim3BtxLx0vTLZJN7Ogi069bmq5sYP8am93LmoofSG2PCcGw7R1iFy-ofO_wgxkTcbgYkyzyf7IYTIfAhc03B5m5xEPPK_d1ubPcPHEsDHe51hFKvFF2iKqbhcQEkHA9hFumtJjGxlhgrdE70fBeHyn8PZKmfuNb1j5A549k1REiOE0Br9H7gmPqe-EeXCkzfGCcsMydTzylLf2gfXpKTG5rjRmCYNGhmZWFHJrPo0yVLS5dS0Gs1wB9bYKYP8ksvgjAMHAmTzzsYhOSDQPftdDKSCJQnXFgQz0btS2xWBkLvlFoyqPNDxSBM-sgystCzZTBZSFpqKcjsNYKYiJAdy-0UQW2yo3UE2jdRc0IKKygOwCVjuczPvIO6MviE743VlgIou6aejN9DicHcKlzIEjWh77Vv6E1zBnAzBUj57LdHlfTR1MjSNrHsFlllgAhQI_af4YqW0_zamMZqoL34Kt_L6DHKzZCQenSFK_TUAUJZogqrduLuds_aoddyBM4t9ThppCbMekf_kkxw_bJy6Xsl67ILHdUrpZAI7xY9SfYxTJufSf3RrFwj-GvZgqgR3IwaXrrW317nhiOe2jwcWdy3O-7k2h8hspOz186nHWvI53CFlsfQ9PjAQ7fuNWOIQEJf_eVGKkztlYqGX-YWwOvdIK2sIS8OEziM7UKXyYeJbuiI29fl22bRC4gXrk7opY8dTxUcZ0jPsvCqXA3Dp-b0lw9_Uly5F640w22CBb4toed1X4atlnC3CYMB8q2tpj2hggbtgZqx2mlaMwvkf8PmMzyjuKXcb63GwgbLH2Lt5Nmny0]--></g></svg>