<?xml version="1.0" encoding="us-ascii" standalone="no"?><svg xmlns="http://www.w3.org/2000/svg" xmlns:xlink="http://www.w3.org/1999/xlink" contentStyleType="text/css" height="1097px" preserveAspectRatio="none" style="width:643px;height:1097px;background:#FFFFFF;" version="1.1" viewBox="0 0 643 1097" width="643px" zoomAndPan="magnify"><defs/><g><text fill="#000000" font-family="sans-serif" font-size="14" font-weight="bold" lengthAdjust="spacing" textLength="162" x="233.5" y="23.5352">Priority Queue Pattern</text><!--class Producer--><g id="elem_Producer"><rect codeLine="7" fill="#F1F1F1" height="97.4648" id="Producer" rx="2.5" ry="2.5" style="stroke:#181818;stroke-width:0.5;" width="181" x="19" y="44.4883"/><ellipse cx="74.25" cy="60.4883" fill="#ADD1B2" rx="11" ry="11" style="stroke:#181818;stroke-width:1.0;"/><path d="M76.7231,66.6313 Q76.1421,66.9302 75.5029,67.0796 Q74.8638,67.229 74.1582,67.229 Q71.6514,67.229 70.3315,65.5771 Q69.0117,63.9253 69.0117,60.8042 Q69.0117,57.6748 70.3315,56.0229 Q71.6514,54.3711 74.1582,54.3711 Q74.8638,54.3711 75.5112,54.5205 Q76.1587,54.6699 76.7231,54.9688 L76.7231,57.6914 Q76.0923,57.1104 75.4988,56.8406 Q74.9053,56.5708 74.2744,56.5708 Q72.9297,56.5708 72.2449,57.6375 Q71.5601,58.7041 71.5601,60.8042 Q71.5601,62.896 72.2449,63.9626 Q72.9297,65.0293 74.2744,65.0293 Q74.9053,65.0293 75.4988,64.7595 Q76.0923,64.4897 76.7231,63.9087 Z " fill="#000000"/><text fill="#000000" font-family="sans-serif" font-size="14" lengthAdjust="spacing" textLength="62" x="94.75" y="65.7793">Producer</text><line style="stroke:#181818;stroke-width:0.5;" x1="20" x2="199" y1="76.4883" y2="76.4883"/><line style="stroke:#181818;stroke-width:0.5;" x1="20" x2="199" y1="84.4883" y2="84.4883"/><ellipse cx="30" cy="98.2324" fill="#84BE84" rx="3" ry="3" style="stroke:#038048;stroke-width:1.0;"/><text fill="#000000" font-family="sans-serif" font-size="14" lengthAdjust="spacing" textLength="126" x="39" y="102.0234">produceMessage()</text><ellipse cx="30" cy="114.7207" fill="#84BE84" rx="3" ry="3" style="stroke:#038048;stroke-width:1.0;"/><text fill="#000000" font-family="sans-serif" font-size="14" lengthAdjust="spacing" textLength="79" x="39" y="118.5117">setPriority()</text><ellipse cx="30" cy="131.209" fill="#84BE84" rx="3" ry="3" style="stroke:#038048;stroke-width:1.0;"/><text fill="#000000" font-family="sans-serif" font-size="14" lengthAdjust="spacing" textLength="155" x="39" y="135">sendToPriorityQueue()</text></g><!--class PriorityQueue--><g id="elem_PriorityQueue"><rect codeLine="13" fill="#F1F1F1" height="130.4414" id="PriorityQueue" rx="2.5" ry="2.5" style="stroke:#181818;stroke-width:0.5;" width="214" x="221.5" y="231.9583"/><ellipse cx="275.25" cy="247.9583" fill="#ADD1B2" rx="11" ry="11" style="stroke:#181818;stroke-width:1.0;"/><path d="M277.7231,254.1013 Q277.1421,254.4002 276.5029,254.5496 Q275.8638,254.699 275.1582,254.699 Q272.6514,254.699 271.3315,253.0471 Q270.0117,251.3953 270.0117,248.2742 Q270.0117,245.1448 271.3315,243.4929 Q272.6514,241.8411 275.1582,241.8411 Q275.8638,241.8411 276.5112,241.9905 Q277.1587,242.1399 277.7231,242.4388 L277.7231,245.1614 Q277.0923,244.5804 276.4988,244.3106 Q275.9053,244.0408 275.2744,244.0408 Q273.9297,244.0408 273.2449,245.1075 Q272.5601,246.1741 272.5601,248.2742 Q272.5601,250.366 273.2449,251.4326 Q273.9297,252.4993 275.2744,252.4993 Q275.9053,252.4993 276.4988,252.2295 Q277.0923,251.9597 277.7231,251.3787 Z " fill="#000000"/><text fill="#000000" font-family="sans-serif" font-size="14" lengthAdjust="spacing" textLength="49" x="295.75" y="253.2493">Priority</text><text fill="#000000" font-family="sans-serif" font-size="14" lengthAdjust="spacing" textLength="4" x="344.75" y="253.2493">&#160;</text><text fill="#000000" font-family="sans-serif" font-size="14" lengthAdjust="spacing" textLength="45" x="348.75" y="253.2493">Queue</text><line style="stroke:#181818;stroke-width:0.5;" x1="222.5" x2="434.5" y1="263.9583" y2="263.9583"/><ellipse cx="232.5" cy="285.9466" fill="none" rx="3" ry="3" style="stroke:#038048;stroke-width:1.0;"/><text fill="#000000" font-family="sans-serif" font-size="14" lengthAdjust="spacing" textLength="66" x="241.5" y="281.4934">priorities:</text><text fill="#000000" font-family="sans-serif" font-size="14" lengthAdjust="spacing" textLength="4" x="307.5" y="281.4934">&#160;</text><text fill="#000000" font-family="sans-serif" font-size="14" lengthAdjust="spacing" textLength="72" x="311.5" y="281.4934">[CRITICAL,</text><text fill="#000000" font-family="sans-serif" font-size="14" lengthAdjust="spacing" textLength="4" x="383.5" y="281.4934">&#160;</text><text fill="#000000" font-family="sans-serif" font-size="14" lengthAdjust="spacing" textLength="38" x="387.5" y="281.4934">HIGH,</text><text fill="#000000" font-family="sans-serif" font-size="14" lengthAdjust="spacing" textLength="63" x="241.5" y="297.9817">NORMAL,</text><text fill="#000000" font-family="sans-serif" font-size="14" lengthAdjust="spacing" textLength="4" x="304.5" y="297.9817">&#160;</text><text fill="#000000" font-family="sans-serif" font-size="14" lengthAdjust="spacing" textLength="35" x="308.5" y="297.9817">LOW]</text><line style="stroke:#181818;stroke-width:0.5;" x1="222.5" x2="434.5" y1="304.9348" y2="304.9348"/><ellipse cx="232.5" cy="318.679" fill="#84BE84" rx="3" ry="3" style="stroke:#038048;stroke-width:1.0;"/><text fill="#000000" font-family="sans-serif" font-size="14" lengthAdjust="spacing" textLength="129" x="241.5" y="322.47">enqueue(message,</text><text fill="#000000" font-family="sans-serif" font-size="14" lengthAdjust="spacing" textLength="4" x="370.5" y="322.47">&#160;</text><text fill="#000000" font-family="sans-serif" font-size="14" lengthAdjust="spacing" textLength="55" x="374.5" y="322.47">priority)</text><ellipse cx="232.5" cy="335.1673" fill="#84BE84" rx="3" ry="3" style="stroke:#038048;stroke-width:1.0;"/><text fill="#000000" font-family="sans-serif" font-size="14" lengthAdjust="spacing" textLength="70" x="241.5" y="338.9583">dequeue()</text><ellipse cx="232.5" cy="351.6555" fill="#84BE84" rx="3" ry="3" style="stroke:#038048;stroke-width:1.0;"/><text fill="#000000" font-family="sans-serif" font-size="14" lengthAdjust="spacing" textLength="101" x="241.5" y="355.4466">sortByPriority()</text></g><!--class QueueStructure--><g id="elem_QueueStructure"><rect codeLine="20" fill="#F1F1F1" height="113.9531" id="QueueStructure" rx="2.5" ry="2.5" style="stroke:#181818;stroke-width:0.5;" width="201" x="228" y="452.3983"/><ellipse cx="243" cy="468.3983" fill="#ADD1B2" rx="11" ry="11" style="stroke:#181818;stroke-width:1.0;"/><path d="M245.4731,474.5413 Q244.8921,474.8402 244.2529,474.9896 Q243.6138,475.139 242.9082,475.139 Q240.4014,475.139 239.0815,473.4871 Q237.7617,471.8353 237.7617,468.7142 Q237.7617,465.5848 239.0815,463.9329 Q240.4014,462.2811 242.9082,462.2811 Q243.6138,462.2811 244.2612,462.4305 Q244.9087,462.5799 245.4731,462.8787 L245.4731,465.6014 Q244.8423,465.0204 244.2488,464.7506 Q243.6553,464.4808 243.0244,464.4808 Q241.6797,464.4808 240.9949,465.5475 Q240.3101,466.6141 240.3101,468.7142 Q240.3101,470.806 240.9949,471.8726 Q241.6797,472.9393 243.0244,472.9393 Q243.6553,472.9393 244.2488,472.6695 Q244.8423,472.3997 245.4731,471.8187 Z " fill="#000000"/><text fill="#000000" font-family="sans-serif" font-size="14" lengthAdjust="spacing" textLength="45" x="257" y="473.6893">Queue</text><text fill="#000000" font-family="sans-serif" font-size="14" lengthAdjust="spacing" textLength="4" x="302" y="473.6893">&#160;</text><text fill="#000000" font-family="sans-serif" font-size="14" lengthAdjust="spacing" textLength="53" x="306" y="473.6893">Internal</text><text fill="#000000" font-family="sans-serif" font-size="14" lengthAdjust="spacing" textLength="4" x="359" y="473.6893">&#160;</text><text fill="#000000" font-family="sans-serif" font-size="14" lengthAdjust="spacing" textLength="63" x="363" y="473.6893">Structure</text><line style="stroke:#181818;stroke-width:0.5;" x1="229" x2="428" y1="484.3983" y2="484.3983"/><ellipse cx="239" cy="498.1424" fill="none" rx="3" ry="3" style="stroke:#038048;stroke-width:1.0;"/><text fill="#000000" font-family="sans-serif" font-size="14" lengthAdjust="spacing" textLength="115" x="248" y="501.9334">criticalMessages:</text><text fill="#000000" font-family="sans-serif" font-size="14" lengthAdjust="spacing" textLength="4" x="363" y="501.9334">&#160;</text><text fill="#000000" font-family="sans-serif" font-size="14" lengthAdjust="spacing" textLength="10" x="367" y="501.9334">[]</text><ellipse cx="239" cy="514.6307" fill="none" rx="3" ry="3" style="stroke:#038048;stroke-width:1.0;"/><text fill="#000000" font-family="sans-serif" font-size="14" lengthAdjust="spacing" textLength="101" x="248" y="518.4217">highMessages:</text><text fill="#000000" font-family="sans-serif" font-size="14" lengthAdjust="spacing" textLength="4" x="349" y="518.4217">&#160;</text><text fill="#000000" font-family="sans-serif" font-size="14" lengthAdjust="spacing" textLength="10" x="353" y="518.4217">[]</text><ellipse cx="239" cy="531.119" fill="none" rx="3" ry="3" style="stroke:#038048;stroke-width:1.0;"/><text fill="#000000" font-family="sans-serif" font-size="14" lengthAdjust="spacing" textLength="119" x="248" y="534.91">normalMessages:</text><text fill="#000000" font-family="sans-serif" font-size="14" lengthAdjust="spacing" textLength="4" x="367" y="534.91">&#160;</text><text fill="#000000" font-family="sans-serif" font-size="14" lengthAdjust="spacing" textLength="10" x="371" y="534.91">[]</text><ellipse cx="239" cy="547.6073" fill="none" rx="3" ry="3" style="stroke:#038048;stroke-width:1.0;"/><text fill="#000000" font-family="sans-serif" font-size="14" lengthAdjust="spacing" textLength="94" x="248" y="551.3983">lowMessages:</text><text fill="#000000" font-family="sans-serif" font-size="14" lengthAdjust="spacing" textLength="4" x="342" y="551.3983">&#160;</text><text fill="#000000" font-family="sans-serif" font-size="14" lengthAdjust="spacing" textLength="10" x="346" y="551.3983">[]</text><line style="stroke:#181818;stroke-width:0.5;" x1="229" x2="428" y1="558.3514" y2="558.3514"/></g><!--class Consumer--><g id="elem_Consumer"><rect codeLine="27" fill="#F1F1F1" height="97.4648" id="Consumer" rx="2.5" ry="2.5" style="stroke:#181818;stroke-width:0.5;" width="148" x="254.5" y="656.3483"/><ellipse cx="289.75" cy="672.3483" fill="#ADD1B2" rx="11" ry="11" style="stroke:#181818;stroke-width:1.0;"/><path d="M292.2231,678.4913 Q291.6421,678.7902 291.0029,678.9396 Q290.3638,679.089 289.6582,679.089 Q287.1514,679.089 285.8315,677.4371 Q284.5117,675.7853 284.5117,672.6642 Q284.5117,669.5348 285.8315,667.8829 Q287.1514,666.2311 289.6582,666.2311 Q290.3638,666.2311 291.0112,666.3805 Q291.6587,666.5299 292.2231,666.8287 L292.2231,669.5514 Q291.5923,668.9704 290.9988,668.7006 Q290.4053,668.4308 289.7744,668.4308 Q288.4297,668.4308 287.7449,669.4975 Q287.0601,670.5641 287.0601,672.6642 Q287.0601,674.756 287.7449,675.8226 Q288.4297,676.8893 289.7744,676.8893 Q290.4053,676.8893 290.9988,676.6195 Q291.5923,676.3497 292.2231,675.7687 Z " fill="#000000"/><text fill="#000000" font-family="sans-serif" font-size="14" lengthAdjust="spacing" textLength="71" x="308.25" y="677.6393">Consumer</text><line style="stroke:#181818;stroke-width:0.5;" x1="255.5" x2="401.5" y1="688.3483" y2="688.3483"/><line style="stroke:#181818;stroke-width:0.5;" x1="255.5" x2="401.5" y1="696.3483" y2="696.3483"/><ellipse cx="265.5" cy="710.0924" fill="#84BE84" rx="3" ry="3" style="stroke:#038048;stroke-width:1.0;"/><text fill="#000000" font-family="sans-serif" font-size="14" lengthAdjust="spacing" textLength="117" x="274.5" y="713.8834">pullFromQueue()</text><ellipse cx="265.5" cy="726.5807" fill="#84BE84" rx="3" ry="3" style="stroke:#038048;stroke-width:1.0;"/><text fill="#000000" font-family="sans-serif" font-size="14" lengthAdjust="spacing" textLength="122" x="274.5" y="730.3717">processMessage()</text><ellipse cx="265.5" cy="743.069" fill="#84BE84" rx="3" ry="3" style="stroke:#038048;stroke-width:1.0;"/><text fill="#000000" font-family="sans-serif" font-size="14" lengthAdjust="spacing" textLength="121" x="274.5" y="746.86">handleByPriority()</text></g><!--class ProcessingOrder--><g id="elem_ProcessingOrder"><rect codeLine="33" fill="#F1F1F1" height="113.9531" id="ProcessingOrder" rx="2.5" ry="2.5" style="stroke:#181818;stroke-width:0.5;" width="182" x="237.5" y="843.8083"/><ellipse cx="266.9" cy="859.8083" fill="#ADD1B2" rx="11" ry="11" style="stroke:#181818;stroke-width:1.0;"/><path d="M269.3731,865.9513 Q268.7921,866.2502 268.1529,866.3996 Q267.5138,866.549 266.8082,866.549 Q264.3014,866.549 262.9815,864.8971 Q261.6617,863.2453 261.6617,860.1242 Q261.6617,856.9948 262.9815,855.3429 Q264.3014,853.6911 266.8082,853.6911 Q267.5138,853.6911 268.1612,853.8405 Q268.8087,853.9899 269.3731,854.2887 L269.3731,857.0114 Q268.7423,856.4304 268.1488,856.1606 Q267.5553,855.8908 266.9244,855.8908 Q265.5797,855.8908 264.8949,856.9575 Q264.2101,858.0241 264.2101,860.1242 Q264.2101,862.216 264.8949,863.2826 Q265.5797,864.3493 266.9244,864.3493 Q267.5553,864.3493 268.1488,864.0795 Q268.7423,863.8097 269.3731,863.2287 Z " fill="#000000"/><text fill="#000000" font-family="sans-serif" font-size="14" lengthAdjust="spacing" textLength="74" x="284.1" y="865.0993">Processing</text><text fill="#000000" font-family="sans-serif" font-size="14" lengthAdjust="spacing" textLength="4" x="358.1" y="865.0993">&#160;</text><text fill="#000000" font-family="sans-serif" font-size="14" lengthAdjust="spacing" textLength="40" x="362.1" y="865.0993">Order</text><line style="stroke:#181818;stroke-width:0.5;" x1="238.5" x2="418.5" y1="875.8083" y2="875.8083"/><line style="stroke:#181818;stroke-width:0.5;" x1="238.5" x2="418.5" y1="883.8083" y2="883.8083"/><ellipse cx="248.5" cy="897.5524" fill="#84BE84" rx="3" ry="3" style="stroke:#038048;stroke-width:1.0;"/><text fill="#000000" font-family="sans-serif" font-size="14" lengthAdjust="spacing" textLength="13" x="257.5" y="901.3434">1.</text><text fill="#000000" font-family="sans-serif" font-size="14" lengthAdjust="spacing" textLength="4" x="270.5" y="901.3434">&#160;</text><text fill="#000000" font-family="sans-serif" font-size="14" lengthAdjust="spacing" textLength="63" x="274.5" y="901.3434">CRITICAL</text><text fill="#000000" font-family="sans-serif" font-size="14" lengthAdjust="spacing" textLength="4" x="337.5" y="901.3434">&#160;</text><text fill="#000000" font-family="sans-serif" font-size="14" lengthAdjust="spacing" textLength="54" x="341.5" y="901.3434">(Priority</text><text fill="#000000" font-family="sans-serif" font-size="14" lengthAdjust="spacing" textLength="4" x="395.5" y="901.3434">&#160;</text><text fill="#000000" font-family="sans-serif" font-size="14" lengthAdjust="spacing" textLength="14" x="399.5" y="901.3434">1)</text><ellipse cx="248.5" cy="914.0407" fill="#84BE84" rx="3" ry="3" style="stroke:#038048;stroke-width:1.0;"/><text fill="#000000" font-family="sans-serif" font-size="14" lengthAdjust="spacing" textLength="13" x="257.5" y="917.8317">2.</text><text fill="#000000" font-family="sans-serif" font-size="14" lengthAdjust="spacing" textLength="4" x="270.5" y="917.8317">&#160;</text><text fill="#000000" font-family="sans-serif" font-size="14" lengthAdjust="spacing" textLength="34" x="274.5" y="917.8317">HIGH</text><text fill="#000000" font-family="sans-serif" font-size="14" lengthAdjust="spacing" textLength="4" x="308.5" y="917.8317">&#160;</text><text fill="#000000" font-family="sans-serif" font-size="14" lengthAdjust="spacing" textLength="54" x="312.5" y="917.8317">(Priority</text><text fill="#000000" font-family="sans-serif" font-size="14" lengthAdjust="spacing" textLength="4" x="366.5" y="917.8317">&#160;</text><text fill="#000000" font-family="sans-serif" font-size="14" lengthAdjust="spacing" textLength="14" x="370.5" y="917.8317">2)</text><ellipse cx="248.5" cy="930.529" fill="#84BE84" rx="3" ry="3" style="stroke:#038048;stroke-width:1.0;"/><text fill="#000000" font-family="sans-serif" font-size="14" lengthAdjust="spacing" textLength="13" x="257.5" y="934.32">3.</text><text fill="#000000" font-family="sans-serif" font-size="14" lengthAdjust="spacing" textLength="4" x="270.5" y="934.32">&#160;</text><text fill="#000000" font-family="sans-serif" font-size="14" lengthAdjust="spacing" textLength="59" x="274.5" y="934.32">NORMAL</text><text fill="#000000" font-family="sans-serif" font-size="14" lengthAdjust="spacing" textLength="4" x="333.5" y="934.32">&#160;</text><text fill="#000000" font-family="sans-serif" font-size="14" lengthAdjust="spacing" textLength="54" x="337.5" y="934.32">(Priority</text><text fill="#000000" font-family="sans-serif" font-size="14" lengthAdjust="spacing" textLength="4" x="391.5" y="934.32">&#160;</text><text fill="#000000" font-family="sans-serif" font-size="14" lengthAdjust="spacing" textLength="14" x="395.5" y="934.32">3)</text><ellipse cx="248.5" cy="947.0173" fill="#84BE84" rx="3" ry="3" style="stroke:#038048;stroke-width:1.0;"/><text fill="#000000" font-family="sans-serif" font-size="14" lengthAdjust="spacing" textLength="13" x="257.5" y="950.8083">4.</text><text fill="#000000" font-family="sans-serif" font-size="14" lengthAdjust="spacing" textLength="4" x="270.5" y="950.8083">&#160;</text><text fill="#000000" font-family="sans-serif" font-size="14" lengthAdjust="spacing" textLength="30" x="274.5" y="950.8083">LOW</text><text fill="#000000" font-family="sans-serif" font-size="14" lengthAdjust="spacing" textLength="4" x="304.5" y="950.8083">&#160;</text><text fill="#000000" font-family="sans-serif" font-size="14" lengthAdjust="spacing" textLength="54" x="308.5" y="950.8083">(Priority</text><text fill="#000000" font-family="sans-serif" font-size="14" lengthAdjust="spacing" textLength="4" x="362.5" y="950.8083">&#160;</text><text fill="#000000" font-family="sans-serif" font-size="14" lengthAdjust="spacing" textLength="14" x="366.5" y="950.8083">4)</text></g><g id="elem_GMN11"><path d="M235,49.9483 L235,89.2183 L200.14,93.2183 L235,97.2183 L235,136.501 A0,0 0 0 0 235,136.501 L426,136.501 A0,0 0 0 0 426,136.501 L426,59.9483 L416,49.9483 L235,49.9483 A0,0 0 0 0 235,49.9483 " fill="#FEFFDD" style="stroke:#181818;stroke-width:0.5;"/><path d="M416,49.9483 L416,59.9483 L426,59.9483 L416,49.9483 " fill="#FEFFDD" style="stroke:#181818;stroke-width:0.5;"/><text fill="#000000" font-family="sans-serif" font-size="13" lengthAdjust="spacing" textLength="55" x="247.5" y="67.5166">Producer</text><text fill="#000000" font-family="sans-serif" font-size="13" lengthAdjust="spacing" textLength="4" x="302.5" y="67.5166">&#160;</text><text fill="#000000" font-family="sans-serif" font-size="13" lengthAdjust="spacing" textLength="48" x="306.5" y="67.5166">assigns</text><text fill="#000000" font-family="sans-serif" font-size="13" lengthAdjust="spacing" textLength="4" x="354.5" y="67.5166">&#160;</text><text fill="#000000" font-family="sans-serif" font-size="13" lengthAdjust="spacing" textLength="46" x="358.5" y="67.5166">priority</text><text fill="#000000" font-family="sans-serif" font-size="13" lengthAdjust="spacing" textLength="36" x="246" y="82.8272">levels</text><text fill="#000000" font-family="sans-serif" font-size="13" lengthAdjust="spacing" textLength="4" x="282" y="82.8272">&#160;</text><text fill="#000000" font-family="sans-serif" font-size="13" lengthAdjust="spacing" textLength="13" x="286" y="82.8272">to</text><text fill="#000000" font-family="sans-serif" font-size="13" lengthAdjust="spacing" textLength="4" x="299" y="82.8272">&#160;</text><text fill="#000000" font-family="sans-serif" font-size="13" lengthAdjust="spacing" textLength="62" x="303" y="82.8272">messages</text><text fill="#000000" font-family="sans-serif" font-size="13" lengthAdjust="spacing" textLength="4" x="365" y="82.8272">&#160;</text><text fill="#000000" font-family="sans-serif" font-size="13" lengthAdjust="spacing" textLength="37" x="369" y="82.8272">based</text><text fill="#000000" font-family="sans-serif" font-size="13" lengthAdjust="spacing" textLength="16" x="250.5" y="98.1377">on</text><text fill="#000000" font-family="sans-serif" font-size="13" lengthAdjust="spacing" textLength="4" x="266.5" y="98.1377">&#160;</text><text fill="#000000" font-family="sans-serif" font-size="13" lengthAdjust="spacing" textLength="56" x="270.5" y="98.1377">business</text><text fill="#000000" font-family="sans-serif" font-size="13" lengthAdjust="spacing" textLength="4" x="326.5" y="98.1377">&#160;</text><text fill="#000000" font-family="sans-serif" font-size="13" lengthAdjust="spacing" textLength="71" x="330.5" y="98.1377">importance</text><text fill="#000000" font-family="sans-serif" font-size="13" lengthAdjust="spacing" textLength="66" x="241" y="113.4483">(CRITICAL,</text><text fill="#000000" font-family="sans-serif" font-size="13" lengthAdjust="spacing" textLength="4" x="307" y="113.4483">&#160;</text><text fill="#000000" font-family="sans-serif" font-size="13" lengthAdjust="spacing" textLength="37" x="311" y="113.4483">HIGH,</text><text fill="#000000" font-family="sans-serif" font-size="13" lengthAdjust="spacing" textLength="4" x="348" y="113.4483">&#160;</text><text fill="#000000" font-family="sans-serif" font-size="13" lengthAdjust="spacing" textLength="59" x="352" y="113.4483">NORMAL,</text><text fill="#000000" font-family="sans-serif" font-size="13" lengthAdjust="spacing" textLength="32" x="310" y="128.7588">LOW)</text></g><g id="elem_GMN14"><path d="M461,65.2583 L461,121.1899 A0,0 0 0 0 461,121.1899 L514.83,121.1899 L398.81,231.6383 L522.83,121.1899 L636,121.1899 A0,0 0 0 0 636,121.1899 L636,75.2583 L626,65.2583 L461,65.2583 A0,0 0 0 0 461,65.2583 " fill="#FEFFDD" style="stroke:#181818;stroke-width:0.5;"/><path d="M626,65.2583 L626,75.2583 L636,75.2583 L626,65.2583 " fill="#FEFFDD" style="stroke:#181818;stroke-width:0.5;"/><text fill="#000000" font-family="sans-serif" font-size="13" lengthAdjust="spacing" textLength="45" x="467.5" y="82.8266">Priority</text><text fill="#000000" font-family="sans-serif" font-size="13" lengthAdjust="spacing" textLength="4" x="512.5" y="82.8266">&#160;</text><text fill="#000000" font-family="sans-serif" font-size="13" lengthAdjust="spacing" textLength="38" x="516.5" y="82.8266">queue</text><text fill="#000000" font-family="sans-serif" font-size="13" lengthAdjust="spacing" textLength="4" x="554.5" y="82.8266">&#160;</text><text fill="#000000" font-family="sans-serif" font-size="13" lengthAdjust="spacing" textLength="62" x="558.5" y="82.8266">maintains</text><text fill="#000000" font-family="sans-serif" font-size="13" lengthAdjust="spacing" textLength="53" x="467" y="98.1372">separate</text><text fill="#000000" font-family="sans-serif" font-size="13" lengthAdjust="spacing" textLength="4" x="520" y="98.1372">&#160;</text><text fill="#000000" font-family="sans-serif" font-size="13" lengthAdjust="spacing" textLength="48" x="524" y="98.1372">internal</text><text fill="#000000" font-family="sans-serif" font-size="13" lengthAdjust="spacing" textLength="4" x="572" y="98.1372">&#160;</text><text fill="#000000" font-family="sans-serif" font-size="13" lengthAdjust="spacing" textLength="45" x="576" y="98.1372">queues</text><text fill="#000000" font-family="sans-serif" font-size="13" lengthAdjust="spacing" textLength="18" x="477" y="113.4477">for</text><text fill="#000000" font-family="sans-serif" font-size="13" lengthAdjust="spacing" textLength="4" x="495" y="113.4477">&#160;</text><text fill="#000000" font-family="sans-serif" font-size="13" lengthAdjust="spacing" textLength="29" x="499" y="113.4477">each</text><text fill="#000000" font-family="sans-serif" font-size="13" lengthAdjust="spacing" textLength="4" x="528" y="113.4477">&#160;</text><text fill="#000000" font-family="sans-serif" font-size="13" lengthAdjust="spacing" textLength="46" x="532" y="113.4477">priority</text><text fill="#000000" font-family="sans-serif" font-size="13" lengthAdjust="spacing" textLength="4" x="578" y="113.4477">&#160;</text><text fill="#000000" font-family="sans-serif" font-size="13" lengthAdjust="spacing" textLength="29" x="582" y="113.4477">level</text></g><g id="elem_GMN17"><path d="M6,669.4583 L6,740.7005 A0,0 0 0 0 6,740.7005 L219,740.7005 A0,0 0 0 0 219,740.7005 L219,709.0783 L254.23,705.0783 L219,701.0783 L219,679.4583 L209,669.4583 L6,669.4583 A0,0 0 0 0 6,669.4583 " fill="#FEFFDD" style="stroke:#181818;stroke-width:0.5;"/><path d="M209,669.4583 L209,679.4583 L219,679.4583 L209,669.4583 " fill="#FEFFDD" style="stroke:#181818;stroke-width:0.5;"/><text fill="#000000" font-family="sans-serif" font-size="13" lengthAdjust="spacing" textLength="64" x="19.5" y="687.0266">Consumer</text><text fill="#000000" font-family="sans-serif" font-size="13" lengthAdjust="spacing" textLength="4" x="83.5" y="687.0266">&#160;</text><text fill="#000000" font-family="sans-serif" font-size="13" lengthAdjust="spacing" textLength="42" x="87.5" y="687.0266">always</text><text fill="#000000" font-family="sans-serif" font-size="13" lengthAdjust="spacing" textLength="4" x="129.5" y="687.0266">&#160;</text><text fill="#000000" font-family="sans-serif" font-size="13" lengthAdjust="spacing" textLength="63" x="133.5" y="687.0266">processes</text><text fill="#000000" font-family="sans-serif" font-size="13" lengthAdjust="spacing" textLength="47" x="26.5" y="702.3372">highest</text><text fill="#000000" font-family="sans-serif" font-size="13" lengthAdjust="spacing" textLength="4" x="73.5" y="702.3372">&#160;</text><text fill="#000000" font-family="sans-serif" font-size="13" lengthAdjust="spacing" textLength="46" x="77.5" y="702.3372">priority</text><text fill="#000000" font-family="sans-serif" font-size="13" lengthAdjust="spacing" textLength="4" x="123.5" y="702.3372">&#160;</text><text fill="#000000" font-family="sans-serif" font-size="13" lengthAdjust="spacing" textLength="62" x="127.5" y="702.3372">messages</text><text fill="#000000" font-family="sans-serif" font-size="13" lengthAdjust="spacing" textLength="30" x="40" y="717.6477">first,</text><text fill="#000000" font-family="sans-serif" font-size="13" lengthAdjust="spacing" textLength="4" x="70" y="717.6477">&#160;</text><text fill="#000000" font-family="sans-serif" font-size="13" lengthAdjust="spacing" textLength="55" x="74" y="717.6477">ensuring</text><text fill="#000000" font-family="sans-serif" font-size="13" lengthAdjust="spacing" textLength="4" x="129" y="717.6477">&#160;</text><text fill="#000000" font-family="sans-serif" font-size="13" lengthAdjust="spacing" textLength="43" x="133" y="717.6477">critical</text><text fill="#000000" font-family="sans-serif" font-size="13" lengthAdjust="spacing" textLength="34" x="12" y="732.9583">tasks</text><text fill="#000000" font-family="sans-serif" font-size="13" lengthAdjust="spacing" textLength="4" x="46" y="732.9583">&#160;</text><text fill="#000000" font-family="sans-serif" font-size="13" lengthAdjust="spacing" textLength="19" x="50" y="732.9583">are</text><text fill="#000000" font-family="sans-serif" font-size="13" lengthAdjust="spacing" textLength="4" x="69" y="732.9583">&#160;</text><text fill="#000000" font-family="sans-serif" font-size="13" lengthAdjust="spacing" textLength="50" x="73" y="732.9583">handled</text><text fill="#000000" font-family="sans-serif" font-size="13" lengthAdjust="spacing" textLength="4" x="123" y="732.9583">&#160;</text><text fill="#000000" font-family="sans-serif" font-size="13" lengthAdjust="spacing" textLength="77" x="127" y="732.9583">immediately</text></g><g id="elem_GMN20"><path d="M231.5,1018.7683 L231.5,1090.0105 A0,0 0 0 0 231.5,1090.0105 L425.5,1090.0105 A0,0 0 0 0 425.5,1090.0105 L425.5,1028.7683 L415.5,1018.7683 L332.5,1018.7683 L328.5,958.2383 L324.5,1018.7683 L231.5,1018.7683 A0,0 0 0 0 231.5,1018.7683 " fill="#FEFFDD" style="stroke:#181818;stroke-width:0.5;"/><path d="M415.5,1018.7683 L415.5,1028.7683 L425.5,1028.7683 L415.5,1018.7683 " fill="#FEFFDD" style="stroke:#181818;stroke-width:0.5;"/><text fill="#000000" font-family="sans-serif" font-size="13" lengthAdjust="spacing" textLength="68" x="245" y="1036.3366">Processing</text><text fill="#000000" font-family="sans-serif" font-size="13" lengthAdjust="spacing" textLength="4" x="313" y="1036.3366">&#160;</text><text fill="#000000" font-family="sans-serif" font-size="13" lengthAdjust="spacing" textLength="33" x="317" y="1036.3366">order</text><text fill="#000000" font-family="sans-serif" font-size="13" lengthAdjust="spacing" textLength="4" x="350" y="1036.3366">&#160;</text><text fill="#000000" font-family="sans-serif" font-size="13" lengthAdjust="spacing" textLength="49" x="354" y="1036.3366">ensures</text><text fill="#000000" font-family="sans-serif" font-size="13" lengthAdjust="spacing" textLength="107" x="237.5" y="1051.6472">business-critical</text><text fill="#000000" font-family="sans-serif" font-size="13" lengthAdjust="spacing" textLength="4" x="344.5" y="1051.6472">&#160;</text><text fill="#000000" font-family="sans-serif" font-size="13" lengthAdjust="spacing" textLength="62" x="348.5" y="1051.6472">messages</text><text fill="#000000" font-family="sans-serif" font-size="13" lengthAdjust="spacing" textLength="19" x="260" y="1066.9577">are</text><text fill="#000000" font-family="sans-serif" font-size="13" lengthAdjust="spacing" textLength="4" x="279" y="1066.9577">&#160;</text><text fill="#000000" font-family="sans-serif" font-size="13" lengthAdjust="spacing" textLength="34" x="283" y="1066.9577">never</text><text fill="#000000" font-family="sans-serif" font-size="13" lengthAdjust="spacing" textLength="4" x="317" y="1066.9577">&#160;</text><text fill="#000000" font-family="sans-serif" font-size="13" lengthAdjust="spacing" textLength="48" x="321" y="1066.9577">delayed</text><text fill="#000000" font-family="sans-serif" font-size="13" lengthAdjust="spacing" textLength="4" x="369" y="1066.9577">&#160;</text><text fill="#000000" font-family="sans-serif" font-size="13" lengthAdjust="spacing" textLength="15" x="373" y="1066.9577">by</text><text fill="#000000" font-family="sans-serif" font-size="13" lengthAdjust="spacing" textLength="34" x="261" y="1082.2683">lower</text><text fill="#000000" font-family="sans-serif" font-size="13" lengthAdjust="spacing" textLength="4" x="295" y="1082.2683">&#160;</text><text fill="#000000" font-family="sans-serif" font-size="13" lengthAdjust="spacing" textLength="46" x="299" y="1082.2683">priority</text><text fill="#000000" font-family="sans-serif" font-size="13" lengthAdjust="spacing" textLength="4" x="345" y="1082.2683">&#160;</text><text fill="#000000" font-family="sans-serif" font-size="13" lengthAdjust="spacing" textLength="38" x="349" y="1082.2683">traffic</text></g><!--link Producer to PriorityQueue--><g id="link_Producer_PriorityQueue"><path codeLine="40" d="M161.68,142.3383 C190.65,169.0583 222.6689,198.5811 254.0889,227.5511 " fill="none" id="Producer-to-PriorityQueue" style="stroke:#666666;stroke-width:1.0;"/><polygon fill="#666666" points="258.5,231.6183,254.5947,222.5768,254.8241,228.229,249.1718,228.4583,258.5,231.6183" style="stroke:#666666;stroke-width:1.0;"/><text fill="#666666" font-family="sans-serif" font-size="12" lengthAdjust="spacing" textLength="28" x="236.57" y="184.5598">Send</text><text fill="#666666" font-family="sans-serif" font-size="12" lengthAdjust="spacing" textLength="4" x="264.57" y="184.5598">&#160;</text><text fill="#666666" font-family="sans-serif" font-size="12" lengthAdjust="spacing" textLength="56" x="268.57" y="184.5598">Messages</text><text fill="#666666" font-family="sans-serif" font-size="12" lengthAdjust="spacing" textLength="27" x="226.57" y="198.6927">[with</text><text fill="#666666" font-family="sans-serif" font-size="12" lengthAdjust="spacing" textLength="4" x="253.57" y="198.6927">&#160;</text><text fill="#666666" font-family="sans-serif" font-size="12" lengthAdjust="spacing" textLength="40" x="257.57" y="198.6927">Priority</text><text fill="#666666" font-family="sans-serif" font-size="12" lengthAdjust="spacing" textLength="4" x="297.57" y="198.6927">&#160;</text><text fill="#666666" font-family="sans-serif" font-size="12" lengthAdjust="spacing" textLength="33" x="301.57" y="198.6927">Level]</text></g><!--link PriorityQueue to QueueStructure--><g id="link_PriorityQueue_QueueStructure"><path codeLine="41" d="M328.5,362.6683 C328.5,391.2683 328.5,418.6083 328.5,446.1783 " fill="none" id="PriorityQueue-to-QueueStructure" style="stroke:#666666;stroke-width:1.0;"/><polygon fill="#666666" points="328.5,452.1783,332.5,443.1783,328.5,447.1783,324.5,443.1783,328.5,452.1783" style="stroke:#666666;stroke-width:1.0;"/><text fill="#666666" font-family="sans-serif" font-size="12" lengthAdjust="spacing" textLength="52" x="336.5" y="404.9998">Organize</text><text fill="#666666" font-family="sans-serif" font-size="12" lengthAdjust="spacing" textLength="18" x="329.5" y="419.1327">[by</text><text fill="#666666" font-family="sans-serif" font-size="12" lengthAdjust="spacing" textLength="4" x="347.5" y="419.1327">&#160;</text><text fill="#666666" font-family="sans-serif" font-size="12" lengthAdjust="spacing" textLength="44" x="351.5" y="419.1327">Priority]</text></g><!--link QueueStructure to Consumer--><g id="link_QueueStructure_Consumer"><path codeLine="42" d="M328.5,566.6583 C328.5,594.9183 328.5,622.8083 328.5,649.8583 " fill="none" id="QueueStructure-to-Consumer" style="stroke:#666666;stroke-width:1.0;"/><polygon fill="#666666" points="328.5,655.8583,332.5,646.8583,328.5,650.8583,324.5,646.8583,328.5,655.8583" style="stroke:#666666;stroke-width:1.0;"/><text fill="#666666" font-family="sans-serif" font-size="12" lengthAdjust="spacing" textLength="52" x="365" y="608.9498">Dequeue</text><text fill="#666666" font-family="sans-serif" font-size="12" lengthAdjust="spacing" textLength="47" x="329.5" y="623.0827">[Highest</text><text fill="#666666" font-family="sans-serif" font-size="12" lengthAdjust="spacing" textLength="4" x="376.5" y="623.0827">&#160;</text><text fill="#666666" font-family="sans-serif" font-size="12" lengthAdjust="spacing" textLength="40" x="380.5" y="623.0827">Priority</text><text fill="#666666" font-family="sans-serif" font-size="12" lengthAdjust="spacing" textLength="4" x="420.5" y="623.0827">&#160;</text><text fill="#666666" font-family="sans-serif" font-size="12" lengthAdjust="spacing" textLength="28" x="424.5" y="623.0827">First]</text></g><!--link Consumer to ProcessingOrder--><g id="link_Consumer_ProcessingOrder"><path codeLine="43" d="M328.5,753.9683 C328.5,781.0783 328.5,809.1383 328.5,837.5183 " fill="none" id="Consumer-to-ProcessingOrder" style="stroke:#666666;stroke-width:1.0;"/><polygon fill="#666666" points="328.5,843.5183,332.5,834.5183,328.5,838.5183,324.5,834.5183,328.5,843.5183" style="stroke:#666666;stroke-width:1.0;"/><text fill="#666666" font-family="sans-serif" font-size="12" lengthAdjust="spacing" textLength="44" x="350.5" y="796.4098">Process</text><text fill="#666666" font-family="sans-serif" font-size="12" lengthAdjust="spacing" textLength="44" x="329.5" y="810.5427">[Priority</text><text fill="#666666" font-family="sans-serif" font-size="12" lengthAdjust="spacing" textLength="4" x="373.5" y="810.5427">&#160;</text><text fill="#666666" font-family="sans-serif" font-size="12" lengthAdjust="spacing" textLength="38" x="377.5" y="810.5427">Order]</text></g><!--SRC=[VLJ9Rjim4BthAwO-9QWj8yl9XmAfcyM04sShUaY3WfR65b6AL4YgXblqtpia9LfIYnuvstjyZyDtN6QYpX4AQoipcqurswLRRejwNHlKcP8MfKqpLKuhmQIjIp4nDXTyFPsVJ-vTwFFjSbeoOr5JwDkSEXYNgDEAQfF4SYiGxZLNcjizFDHOqv5PAfT9yYx73HN3u-Ny-UBkUda9cM369CaXSAzLNcUeuLS2y1wgSBn5OzWMZuvzqA1j4M94vi-g3NfKolpk3XxrIOs06UWrD8Wettnx6I37H24K1QGStvhf7bTf-t4_8DCqS3GpU9a_BfuNyulb66uMrpTZk5izthhJSlNbTK0mi5X8fnKJy6HrdTbQ1we-6KCDryp1P4mqyZYyLvye-BRuAoYLBlzHAzIk5-kH8dzDNHxig8Muqgfyw6X05cNKtxUeO38Ns9Dcw8Rlud8BAvsZRlneWpxMW9waqAe8Hz75am1qcdfXEudJa3XB6wqxgREGEa-T_9tukMSNdzvayc7mD6OmUg8d1grGN-NBZhRcyD2N-0F5woZfjxb10-DeqaflcUG_aOQizt44DGzANNVKd_e-XQT7RJTaBnfxWB_YsbYQ4Cl35VfgpgBgD2As-Xor9b9P14sJBQXDt4CIBEf2gygtqiIDe9nmzpPW5JJxOc3D3EQKKXBeKw5rDmPuMT6cC9aX9Ox-inF7YPFPKMa8MLK5EXrTFQU6lfS4Ilg3t3zaA6MmOffHAsytoTUur4PfG9OLyGQ1_n1JuCPhqAf9dL5O9dPiRzf7xwSMZHjnQ2k5GtJ6ZEbJCRLsRxtTM4fPPhuRO6HqM9QSL2envqHTx8UKrifQLJR6T5qD_hIhfBpH7it3jmPCMjmkDmSjwVwQFZN1zaHWxIrLEmh5orZDDXkU7GZz0G00]--></g></svg>