<?xml version="1.0" encoding="us-ascii" standalone="no"?><svg xmlns="http://www.w3.org/2000/svg" xmlns:xlink="http://www.w3.org/1999/xlink" contentStyleType="text/css" height="893px" preserveAspectRatio="none" style="width:1030px;height:893px;background:#FFFFFF;" version="1.1" viewBox="0 0 1030 893" width="1030px" zoomAndPan="magnify"><defs/><g><text fill="#000000" font-family="sans-serif" font-size="14" font-weight="bold" lengthAdjust="spacing" textLength="191" x="412.5" y="23.5352">Retry with Backoff Pattern</text><!--class MainQueue--><g id="elem_MainQueue"><rect codeLine="7" fill="#F1F1F1" height="80.9766" id="MainQueue" rx="2.5" ry="2.5" style="stroke:#181818;stroke-width:0.5;" width="156" x="620.5" y="44.4883"/><ellipse cx="654.4" cy="60.4883" fill="#ADD1B2" rx="11" ry="11" style="stroke:#181818;stroke-width:1.0;"/><path d="M656.8731,66.6313 Q656.2921,66.9302 655.6529,67.0796 Q655.0138,67.229 654.3082,67.229 Q651.8014,67.229 650.4815,65.5771 Q649.1617,63.9253 649.1617,60.8042 Q649.1617,57.6748 650.4815,56.0229 Q651.8014,54.3711 654.3082,54.3711 Q655.0138,54.3711 655.6612,54.5205 Q656.3087,54.6699 656.8731,54.9688 L656.8731,57.6914 Q656.2423,57.1104 655.6488,56.8406 Q655.0553,56.5708 654.4244,56.5708 Q653.0797,56.5708 652.3949,57.6375 Q651.7101,58.7041 651.7101,60.8042 Q651.7101,62.896 652.3949,63.9626 Q653.0797,65.0293 654.4244,65.0293 Q655.0553,65.0293 655.6488,64.7595 Q656.2423,64.4897 656.8731,63.9087 Z " fill="#000000"/><text fill="#000000" font-family="sans-serif" font-size="14" lengthAdjust="spacing" textLength="33" x="672.6" y="65.7793">Main</text><text fill="#000000" font-family="sans-serif" font-size="14" lengthAdjust="spacing" textLength="4" x="705.6" y="65.7793">&#160;</text><text fill="#000000" font-family="sans-serif" font-size="14" lengthAdjust="spacing" textLength="45" x="709.6" y="65.7793">Queue</text><line style="stroke:#181818;stroke-width:0.5;" x1="621.5" x2="775.5" y1="76.4883" y2="76.4883"/><line style="stroke:#181818;stroke-width:0.5;" x1="621.5" x2="775.5" y1="84.4883" y2="84.4883"/><ellipse cx="631.5" cy="98.2324" fill="#84BE84" rx="3" ry="3" style="stroke:#038048;stroke-width:1.0;"/><text fill="#000000" font-family="sans-serif" font-size="14" lengthAdjust="spacing" textLength="130" x="640.5" y="102.0234">enqueue(message)</text><ellipse cx="631.5" cy="114.7207" fill="#84BE84" rx="3" ry="3" style="stroke:#038048;stroke-width:1.0;"/><text fill="#000000" font-family="sans-serif" font-size="14" lengthAdjust="spacing" textLength="70" x="640.5" y="118.5117">dequeue()</text></g><!--class Consumer--><g id="elem_Consumer"><rect codeLine="12" fill="#F1F1F1" height="113.9531" id="Consumer" rx="2.5" ry="2.5" style="stroke:#181818;stroke-width:0.5;" width="148" x="624.5" y="215.4683"/><ellipse cx="659.75" cy="231.4683" fill="#ADD1B2" rx="11" ry="11" style="stroke:#181818;stroke-width:1.0;"/><path d="M662.2231,237.6113 Q661.6421,237.9102 661.0029,238.0596 Q660.3638,238.209 659.6582,238.209 Q657.1514,238.209 655.8315,236.5571 Q654.5117,234.9053 654.5117,231.7842 Q654.5117,228.6548 655.8315,227.0029 Q657.1514,225.3511 659.6582,225.3511 Q660.3638,225.3511 661.0112,225.5005 Q661.6587,225.6499 662.2231,225.9488 L662.2231,228.6714 Q661.5923,228.0904 660.9988,227.8206 Q660.4053,227.5508 659.7744,227.5508 Q658.4297,227.5508 657.7449,228.6175 Q657.0601,229.6841 657.0601,231.7842 Q657.0601,233.876 657.7449,234.9426 Q658.4297,236.0093 659.7744,236.0093 Q660.4053,236.0093 660.9988,235.7395 Q661.5923,235.4697 662.2231,234.8887 Z " fill="#000000"/><text fill="#000000" font-family="sans-serif" font-size="14" lengthAdjust="spacing" textLength="71" x="678.25" y="236.7593">Consumer</text><line style="stroke:#181818;stroke-width:0.5;" x1="625.5" x2="771.5" y1="247.4683" y2="247.4683"/><line style="stroke:#181818;stroke-width:0.5;" x1="625.5" x2="771.5" y1="255.4683" y2="255.4683"/><ellipse cx="635.5" cy="269.2124" fill="#84BE84" rx="3" ry="3" style="stroke:#038048;stroke-width:1.0;"/><text fill="#000000" font-family="sans-serif" font-size="14" lengthAdjust="spacing" textLength="117" x="644.5" y="273.0034">pullFromQueue()</text><ellipse cx="635.5" cy="285.7007" fill="#84BE84" rx="3" ry="3" style="stroke:#038048;stroke-width:1.0;"/><text fill="#000000" font-family="sans-serif" font-size="14" lengthAdjust="spacing" textLength="122" x="644.5" y="289.4917">processMessage()</text><ellipse cx="635.5" cy="302.189" fill="#84BE84" rx="3" ry="3" style="stroke:#038048;stroke-width:1.0;"/><text fill="#000000" font-family="sans-serif" font-size="14" lengthAdjust="spacing" textLength="104" x="644.5" y="305.98">handleFailure()</text><ellipse cx="635.5" cy="318.6773" fill="#84BE84" rx="3" ry="3" style="stroke:#038048;stroke-width:1.0;"/><text fill="#000000" font-family="sans-serif" font-size="14" lengthAdjust="spacing" textLength="78" x="644.5" y="322.4683">retryLogic()</text></g><!--class RetryHandler--><g id="elem_RetryHandler"><rect codeLine="19" fill="#F1F1F1" height="113.9531" id="RetryHandler" rx="2.5" ry="2.5" style="stroke:#181818;stroke-width:0.5;" width="146" x="356.5" y="419.4183"/><ellipse cx="380.95" cy="435.4183" fill="#ADD1B2" rx="11" ry="11" style="stroke:#181818;stroke-width:1.0;"/><path d="M383.4231,441.5613 Q382.8421,441.8602 382.2029,442.0096 Q381.5638,442.159 380.8582,442.159 Q378.3514,442.159 377.0315,440.5071 Q375.7117,438.8553 375.7117,435.7342 Q375.7117,432.6048 377.0315,430.9529 Q378.3514,429.3011 380.8582,429.3011 Q381.5638,429.3011 382.2112,429.4505 Q382.8587,429.5999 383.4231,429.8988 L383.4231,432.6214 Q382.7923,432.0404 382.1988,431.7706 Q381.6053,431.5008 380.9744,431.5008 Q379.6297,431.5008 378.9449,432.5675 Q378.2601,433.6341 378.2601,435.7342 Q378.2601,437.826 378.9449,438.8926 Q379.6297,439.9593 380.9744,439.9593 Q381.6053,439.9593 382.1988,439.6895 Q382.7923,439.4197 383.4231,438.8387 Z " fill="#000000"/><text fill="#000000" font-family="sans-serif" font-size="14" lengthAdjust="spacing" textLength="35" x="397.05" y="440.7093">Retry</text><text fill="#000000" font-family="sans-serif" font-size="14" lengthAdjust="spacing" textLength="4" x="432.05" y="440.7093">&#160;</text><text fill="#000000" font-family="sans-serif" font-size="14" lengthAdjust="spacing" textLength="54" x="436.05" y="440.7093">Handler</text><line style="stroke:#181818;stroke-width:0.5;" x1="357.5" x2="501.5" y1="451.4183" y2="451.4183"/><ellipse cx="367.5" cy="465.1624" fill="none" rx="3" ry="3" style="stroke:#038048;stroke-width:1.0;"/><text fill="#000000" font-family="sans-serif" font-size="14" lengthAdjust="spacing" textLength="81" x="376.5" y="468.9534">maxRetries:</text><text fill="#000000" font-family="sans-serif" font-size="14" lengthAdjust="spacing" textLength="4" x="457.5" y="468.9534">&#160;</text><text fill="#000000" font-family="sans-serif" font-size="14" lengthAdjust="spacing" textLength="9" x="461.5" y="468.9534">3</text><line style="stroke:#181818;stroke-width:0.5;" x1="357.5" x2="501.5" y1="475.9066" y2="475.9066"/><ellipse cx="367.5" cy="489.6507" fill="#84BE84" rx="3" ry="3" style="stroke:#038048;stroke-width:1.0;"/><text fill="#000000" font-family="sans-serif" font-size="14" lengthAdjust="spacing" textLength="120" x="376.5" y="493.4417">calculateBackoff()</text><ellipse cx="367.5" cy="506.139" fill="#84BE84" rx="3" ry="3" style="stroke:#038048;stroke-width:1.0;"/><text fill="#000000" font-family="sans-serif" font-size="14" lengthAdjust="spacing" textLength="106" x="376.5" y="509.93">scheduleRetry()</text><ellipse cx="367.5" cy="522.6273" fill="#84BE84" rx="3" ry="3" style="stroke:#038048;stroke-width:1.0;"/><text fill="#000000" font-family="sans-serif" font-size="14" lengthAdjust="spacing" textLength="106" x="376.5" y="526.4183">trackAttempts()</text></g><!--class RetryQueue--><g id="elem_RetryQueue"><rect codeLine="26" fill="#F1F1F1" height="97.4648" id="RetryQueue" rx="2.5" ry="2.5" style="stroke:#181818;stroke-width:0.5;" width="217" x="696" y="639.8583"/><ellipse cx="758.25" cy="655.8583" fill="#ADD1B2" rx="11" ry="11" style="stroke:#181818;stroke-width:1.0;"/><path d="M760.7231,662.0013 Q760.1421,662.3002 759.5029,662.4496 Q758.8638,662.599 758.1582,662.599 Q755.6514,662.599 754.3315,660.9471 Q753.0117,659.2953 753.0117,656.1742 Q753.0117,653.0448 754.3315,651.3929 Q755.6514,649.7411 758.1582,649.7411 Q758.8638,649.7411 759.5112,649.8905 Q760.1587,650.0399 760.7231,650.3388 L760.7231,653.0614 Q760.0923,652.4804 759.4988,652.2106 Q758.9053,651.9408 758.2744,651.9408 Q756.9297,651.9408 756.2449,653.0075 Q755.5601,654.0741 755.5601,656.1742 Q755.5601,658.266 756.2449,659.3326 Q756.9297,660.3993 758.2744,660.3993 Q758.9053,660.3993 759.4988,660.1295 Q760.0923,659.8597 760.7231,659.2787 Z " fill="#000000"/><text fill="#000000" font-family="sans-serif" font-size="14" lengthAdjust="spacing" textLength="35" x="778.75" y="661.1493">Retry</text><text fill="#000000" font-family="sans-serif" font-size="14" lengthAdjust="spacing" textLength="4" x="813.75" y="661.1493">&#160;</text><text fill="#000000" font-family="sans-serif" font-size="14" lengthAdjust="spacing" textLength="45" x="817.75" y="661.1493">Queue</text><line style="stroke:#181818;stroke-width:0.5;" x1="697" x2="912" y1="671.8583" y2="671.8583"/><ellipse cx="707" cy="685.6024" fill="none" rx="3" ry="3" style="stroke:#038048;stroke-width:1.0;"/><text fill="#000000" font-family="sans-serif" font-size="14" lengthAdjust="spacing" textLength="113" x="716" y="689.3934">backoffIntervals:</text><text fill="#000000" font-family="sans-serif" font-size="14" lengthAdjust="spacing" textLength="4" x="829" y="689.3934">&#160;</text><text fill="#000000" font-family="sans-serif" font-size="14" lengthAdjust="spacing" textLength="25" x="833" y="689.3934">[1s,</text><text fill="#000000" font-family="sans-serif" font-size="14" lengthAdjust="spacing" textLength="4" x="858" y="689.3934">&#160;</text><text fill="#000000" font-family="sans-serif" font-size="14" lengthAdjust="spacing" textLength="20" x="862" y="689.3934">2s,</text><text fill="#000000" font-family="sans-serif" font-size="14" lengthAdjust="spacing" textLength="4" x="882" y="689.3934">&#160;</text><text fill="#000000" font-family="sans-serif" font-size="14" lengthAdjust="spacing" textLength="21" x="886" y="689.3934">4s]</text><line style="stroke:#181818;stroke-width:0.5;" x1="697" x2="912" y1="696.3466" y2="696.3466"/><ellipse cx="707" cy="710.0907" fill="#84BE84" rx="3" ry="3" style="stroke:#038048;stroke-width:1.0;"/><text fill="#000000" font-family="sans-serif" font-size="14" lengthAdjust="spacing" textLength="123" x="716" y="713.8817">delayedEnqueue()</text><ellipse cx="707" cy="726.579" fill="#84BE84" rx="3" ry="3" style="stroke:#038048;stroke-width:1.0;"/><text fill="#000000" font-family="sans-serif" font-size="14" lengthAdjust="spacing" textLength="125" x="716" y="730.37">scheduleDelivery()</text></g><!--class DLQ--><g id="elem_DLQ"><rect codeLine="32" fill="#F1F1F1" height="80.9766" id="DLQ" rx="2.5" ry="2.5" style="stroke:#181818;stroke-width:0.5;" width="172" x="8.5" y="648.1083"/><ellipse cx="29.35" cy="664.1083" fill="#ADD1B2" rx="11" ry="11" style="stroke:#181818;stroke-width:1.0;"/><path d="M31.8231,670.2513 Q31.2421,670.5502 30.6029,670.6996 Q29.9638,670.849 29.2582,670.849 Q26.7514,670.849 25.4315,669.1971 Q24.1117,667.5453 24.1117,664.4242 Q24.1117,661.2948 25.4315,659.6429 Q26.7514,657.9911 29.2582,657.9911 Q29.9638,657.9911 30.6112,658.1405 Q31.2587,658.2899 31.8231,658.5888 L31.8231,661.3114 Q31.1923,660.7304 30.5988,660.4606 Q30.0053,660.1908 29.3744,660.1908 Q28.0297,660.1908 27.3449,661.2575 Q26.6601,662.3241 26.6601,664.4242 Q26.6601,666.516 27.3449,667.5826 Q28.0297,668.6493 29.3744,668.6493 Q30.0053,668.6493 30.5988,668.3795 Q31.1923,668.1097 31.8231,667.5287 Z " fill="#000000"/><text fill="#000000" font-family="sans-serif" font-size="14" lengthAdjust="spacing" textLength="35" x="44.65" y="669.3993">Dead</text><text fill="#000000" font-family="sans-serif" font-size="14" lengthAdjust="spacing" textLength="4" x="79.65" y="669.3993">&#160;</text><text fill="#000000" font-family="sans-serif" font-size="14" lengthAdjust="spacing" textLength="39" x="83.65" y="669.3993">Letter</text><text fill="#000000" font-family="sans-serif" font-size="14" lengthAdjust="spacing" textLength="4" x="122.65" y="669.3993">&#160;</text><text fill="#000000" font-family="sans-serif" font-size="14" lengthAdjust="spacing" textLength="45" x="126.65" y="669.3993">Queue</text><line style="stroke:#181818;stroke-width:0.5;" x1="9.5" x2="179.5" y1="680.1083" y2="680.1083"/><line style="stroke:#181818;stroke-width:0.5;" x1="9.5" x2="179.5" y1="688.1083" y2="688.1083"/><ellipse cx="19.5" cy="701.8524" fill="#84BE84" rx="3" ry="3" style="stroke:#038048;stroke-width:1.0;"/><text fill="#000000" font-family="sans-serif" font-size="14" lengthAdjust="spacing" textLength="146" x="28.5" y="705.6434">storeFailed(message)</text><ellipse cx="19.5" cy="718.3407" fill="#84BE84" rx="3" ry="3" style="stroke:#038048;stroke-width:1.0;"/><text fill="#000000" font-family="sans-serif" font-size="14" lengthAdjust="spacing" textLength="118" x="28.5" y="722.1317">finalDestination()</text></g><!--class BackoffStrategy--><g id="elem_BackoffStrategy"><rect codeLine="37" fill="#F1F1F1" height="130.4414" id="BackoffStrategy" rx="2.5" ry="2.5" style="stroke:#181818;stroke-width:0.5;" width="211" x="216" y="623.3783"/><ellipse cx="262.25" cy="639.3783" fill="#ADD1B2" rx="11" ry="11" style="stroke:#181818;stroke-width:1.0;"/><path d="M264.7231,645.5213 Q264.1421,645.8202 263.5029,645.9696 Q262.8638,646.119 262.1582,646.119 Q259.6514,646.119 258.3315,644.4671 Q257.0117,642.8153 257.0117,639.6942 Q257.0117,636.5648 258.3315,634.9129 Q259.6514,633.2611 262.1582,633.2611 Q262.8638,633.2611 263.5112,633.4105 Q264.1587,633.5599 264.7231,633.8588 L264.7231,636.5814 Q264.0923,636.0004 263.4988,635.7306 Q262.9053,635.4608 262.2744,635.4608 Q260.9297,635.4608 260.2449,636.5275 Q259.5601,637.5941 259.5601,639.6942 Q259.5601,641.786 260.2449,642.8526 Q260.9297,643.9193 262.2744,643.9193 Q262.9053,643.9193 263.4988,643.6495 Q264.0923,643.3797 264.7231,642.7987 Z " fill="#000000"/><text fill="#000000" font-family="sans-serif" font-size="14" lengthAdjust="spacing" textLength="50" x="282.75" y="644.6693">Backoff</text><text fill="#000000" font-family="sans-serif" font-size="14" lengthAdjust="spacing" textLength="4" x="332.75" y="644.6693">&#160;</text><text fill="#000000" font-family="sans-serif" font-size="14" lengthAdjust="spacing" textLength="56" x="336.75" y="644.6693">Strategy</text><line style="stroke:#181818;stroke-width:0.5;" x1="217" x2="426" y1="655.3783" y2="655.3783"/><ellipse cx="227" cy="669.1224" fill="none" rx="3" ry="3" style="stroke:#038048;stroke-width:1.0;"/><text fill="#000000" font-family="sans-serif" font-size="14" lengthAdjust="spacing" textLength="55" x="236" y="672.9134">Attempt</text><text fill="#000000" font-family="sans-serif" font-size="14" lengthAdjust="spacing" textLength="4" x="291" y="672.9134">&#160;</text><text fill="#000000" font-family="sans-serif" font-size="14" lengthAdjust="spacing" textLength="13" x="295" y="672.9134">1:</text><text fill="#000000" font-family="sans-serif" font-size="14" lengthAdjust="spacing" textLength="4" x="308" y="672.9134">&#160;</text><text fill="#000000" font-family="sans-serif" font-size="14" lengthAdjust="spacing" textLength="9" x="312" y="672.9134">1</text><text fill="#000000" font-family="sans-serif" font-size="14" lengthAdjust="spacing" textLength="4" x="321" y="672.9134">&#160;</text><text fill="#000000" font-family="sans-serif" font-size="14" lengthAdjust="spacing" textLength="49" x="325" y="672.9134">second</text><text fill="#000000" font-family="sans-serif" font-size="14" lengthAdjust="spacing" textLength="4" x="374" y="672.9134">&#160;</text><text fill="#000000" font-family="sans-serif" font-size="14" lengthAdjust="spacing" textLength="36" x="378" y="672.9134">delay</text><ellipse cx="227" cy="685.6107" fill="none" rx="3" ry="3" style="stroke:#038048;stroke-width:1.0;"/><text fill="#000000" font-family="sans-serif" font-size="14" lengthAdjust="spacing" textLength="55" x="236" y="689.4017">Attempt</text><text fill="#000000" font-family="sans-serif" font-size="14" lengthAdjust="spacing" textLength="4" x="291" y="689.4017">&#160;</text><text fill="#000000" font-family="sans-serif" font-size="14" lengthAdjust="spacing" textLength="13" x="295" y="689.4017">2:</text><text fill="#000000" font-family="sans-serif" font-size="14" lengthAdjust="spacing" textLength="4" x="308" y="689.4017">&#160;</text><text fill="#000000" font-family="sans-serif" font-size="14" lengthAdjust="spacing" textLength="9" x="312" y="689.4017">2</text><text fill="#000000" font-family="sans-serif" font-size="14" lengthAdjust="spacing" textLength="4" x="321" y="689.4017">&#160;</text><text fill="#000000" font-family="sans-serif" font-size="14" lengthAdjust="spacing" textLength="56" x="325" y="689.4017">seconds</text><text fill="#000000" font-family="sans-serif" font-size="14" lengthAdjust="spacing" textLength="4" x="381" y="689.4017">&#160;</text><text fill="#000000" font-family="sans-serif" font-size="14" lengthAdjust="spacing" textLength="36" x="385" y="689.4017">delay</text><ellipse cx="227" cy="702.099" fill="none" rx="3" ry="3" style="stroke:#038048;stroke-width:1.0;"/><text fill="#000000" font-family="sans-serif" font-size="14" lengthAdjust="spacing" textLength="55" x="236" y="705.89">Attempt</text><text fill="#000000" font-family="sans-serif" font-size="14" lengthAdjust="spacing" textLength="4" x="291" y="705.89">&#160;</text><text fill="#000000" font-family="sans-serif" font-size="14" lengthAdjust="spacing" textLength="13" x="295" y="705.89">3:</text><text fill="#000000" font-family="sans-serif" font-size="14" lengthAdjust="spacing" textLength="4" x="308" y="705.89">&#160;</text><text fill="#000000" font-family="sans-serif" font-size="14" lengthAdjust="spacing" textLength="9" x="312" y="705.89">4</text><text fill="#000000" font-family="sans-serif" font-size="14" lengthAdjust="spacing" textLength="4" x="321" y="705.89">&#160;</text><text fill="#000000" font-family="sans-serif" font-size="14" lengthAdjust="spacing" textLength="56" x="325" y="705.89">seconds</text><text fill="#000000" font-family="sans-serif" font-size="14" lengthAdjust="spacing" textLength="4" x="381" y="705.89">&#160;</text><text fill="#000000" font-family="sans-serif" font-size="14" lengthAdjust="spacing" textLength="36" x="385" y="705.89">delay</text><ellipse cx="227" cy="726.8314" fill="none" rx="3" ry="3" style="stroke:#038048;stroke-width:1.0;"/><text fill="#000000" font-family="sans-serif" font-size="14" lengthAdjust="spacing" textLength="34" x="236" y="722.3783">After</text><text fill="#000000" font-family="sans-serif" font-size="14" lengthAdjust="spacing" textLength="4" x="270" y="722.3783">&#160;</text><text fill="#000000" font-family="sans-serif" font-size="14" lengthAdjust="spacing" textLength="9" x="274" y="722.3783">3</text><text fill="#000000" font-family="sans-serif" font-size="14" lengthAdjust="spacing" textLength="4" x="283" y="722.3783">&#160;</text><text fill="#000000" font-family="sans-serif" font-size="14" lengthAdjust="spacing" textLength="64" x="287" y="722.3783">attempts:</text><text fill="#000000" font-family="sans-serif" font-size="14" lengthAdjust="spacing" textLength="4" x="351" y="722.3783">&#160;</text><text fill="#000000" font-family="sans-serif" font-size="14" lengthAdjust="spacing" textLength="34" x="355" y="722.3783">Send</text><text fill="#000000" font-family="sans-serif" font-size="14" lengthAdjust="spacing" textLength="4" x="389" y="722.3783">&#160;</text><text fill="#000000" font-family="sans-serif" font-size="14" lengthAdjust="spacing" textLength="14" x="393" y="722.3783">to</text><text fill="#000000" font-family="sans-serif" font-size="14" lengthAdjust="spacing" textLength="28" x="236" y="738.8666">DLQ</text><line style="stroke:#181818;stroke-width:0.5;" x1="217" x2="426" y1="745.8197" y2="745.8197"/></g><g id="elem_GMN14"><path d="M808,244.4783 L808,268.4483 L772.67,272.4483 L808,276.4483 L808,300.4099 A0,0 0 0 0 808,300.4099 L1023,300.4099 A0,0 0 0 0 1023,300.4099 L1023,254.4783 L1013,244.4783 L808,244.4783 A0,0 0 0 0 808,244.4783 " fill="#FEFFDD" style="stroke:#181818;stroke-width:0.5;"/><path d="M1013,244.4783 L1013,254.4783 L1023,254.4783 L1013,244.4783 " fill="#FEFFDD" style="stroke:#181818;stroke-width:0.5;"/><text fill="#000000" font-family="sans-serif" font-size="13" lengthAdjust="spacing" textLength="64" x="814" y="262.0466">Consumer</text><text fill="#000000" font-family="sans-serif" font-size="13" lengthAdjust="spacing" textLength="4" x="878" y="262.0466">&#160;</text><text fill="#000000" font-family="sans-serif" font-size="13" lengthAdjust="spacing" textLength="56" x="882" y="262.0466">attempts</text><text fill="#000000" font-family="sans-serif" font-size="13" lengthAdjust="spacing" textLength="4" x="938" y="262.0466">&#160;</text><text fill="#000000" font-family="sans-serif" font-size="13" lengthAdjust="spacing" textLength="13" x="942" y="262.0466">to</text><text fill="#000000" font-family="sans-serif" font-size="13" lengthAdjust="spacing" textLength="4" x="955" y="262.0466">&#160;</text><text fill="#000000" font-family="sans-serif" font-size="13" lengthAdjust="spacing" textLength="49" x="959" y="262.0466">process</text><text fill="#000000" font-family="sans-serif" font-size="13" lengthAdjust="spacing" textLength="55" x="827" y="277.3572">message</text><text fill="#000000" font-family="sans-serif" font-size="13" lengthAdjust="spacing" textLength="4" x="882" y="277.3572">&#160;</text><text fill="#000000" font-family="sans-serif" font-size="13" lengthAdjust="spacing" textLength="23" x="886" y="277.3572">and</text><text fill="#000000" font-family="sans-serif" font-size="13" lengthAdjust="spacing" textLength="4" x="909" y="277.3572">&#160;</text><text fill="#000000" font-family="sans-serif" font-size="13" lengthAdjust="spacing" textLength="49" x="913" y="277.3572">triggers</text><text fill="#000000" font-family="sans-serif" font-size="13" lengthAdjust="spacing" textLength="4" x="962" y="277.3572">&#160;</text><text fill="#000000" font-family="sans-serif" font-size="13" lengthAdjust="spacing" textLength="29" x="966" y="277.3572">retry</text><text fill="#000000" font-family="sans-serif" font-size="13" lengthAdjust="spacing" textLength="72" x="843" y="292.6677">mechanism</text><text fill="#000000" font-family="sans-serif" font-size="13" lengthAdjust="spacing" textLength="4" x="915" y="292.6677">&#160;</text><text fill="#000000" font-family="sans-serif" font-size="13" lengthAdjust="spacing" textLength="16" x="919" y="292.6677">on</text><text fill="#000000" font-family="sans-serif" font-size="13" lengthAdjust="spacing" textLength="4" x="935" y="292.6677">&#160;</text><text fill="#000000" font-family="sans-serif" font-size="13" lengthAdjust="spacing" textLength="40" x="939" y="292.6677">failure</text></g><g id="elem_GMN17"><path d="M328.5,236.8283 L328.5,308.0705 A0,0 0 0 0 328.5,308.0705 L425.5,308.0705 L429.5,419.0383 L433.5,308.0705 L530.5,308.0705 A0,0 0 0 0 530.5,308.0705 L530.5,246.8283 L520.5,236.8283 L328.5,236.8283 A0,0 0 0 0 328.5,236.8283 " fill="#FEFFDD" style="stroke:#181818;stroke-width:0.5;"/><path d="M520.5,236.8283 L520.5,246.8283 L530.5,246.8283 L520.5,236.8283 " fill="#FEFFDD" style="stroke:#181818;stroke-width:0.5;"/><text fill="#000000" font-family="sans-serif" font-size="13" lengthAdjust="spacing" textLength="32" x="344.5" y="254.3966">Retry</text><text fill="#000000" font-family="sans-serif" font-size="13" lengthAdjust="spacing" textLength="4" x="376.5" y="254.3966">&#160;</text><text fill="#000000" font-family="sans-serif" font-size="13" lengthAdjust="spacing" textLength="47" x="380.5" y="254.3966">handler</text><text fill="#000000" font-family="sans-serif" font-size="13" lengthAdjust="spacing" textLength="4" x="427.5" y="254.3966">&#160;</text><text fill="#000000" font-family="sans-serif" font-size="13" lengthAdjust="spacing" textLength="74" x="431.5" y="254.3966">implements</text><text fill="#000000" font-family="sans-serif" font-size="13" lengthAdjust="spacing" textLength="74" x="334.5" y="269.7072">exponential</text><text fill="#000000" font-family="sans-serif" font-size="13" lengthAdjust="spacing" textLength="4" x="408.5" y="269.7072">&#160;</text><text fill="#000000" font-family="sans-serif" font-size="13" lengthAdjust="spacing" textLength="48" x="412.5" y="269.7072">backoff</text><text fill="#000000" font-family="sans-serif" font-size="13" lengthAdjust="spacing" textLength="4" x="460.5" y="269.7072">&#160;</text><text fill="#000000" font-family="sans-serif" font-size="13" lengthAdjust="spacing" textLength="51" x="464.5" y="269.7072">strategy</text><text fill="#000000" font-family="sans-serif" font-size="13" lengthAdjust="spacing" textLength="13" x="353.5" y="285.0177">to</text><text fill="#000000" font-family="sans-serif" font-size="13" lengthAdjust="spacing" textLength="4" x="366.5" y="285.0177">&#160;</text><text fill="#000000" font-family="sans-serif" font-size="13" lengthAdjust="spacing" textLength="34" x="370.5" y="285.0177">avoid</text><text fill="#000000" font-family="sans-serif" font-size="13" lengthAdjust="spacing" textLength="4" x="404.5" y="285.0177">&#160;</text><text fill="#000000" font-family="sans-serif" font-size="13" lengthAdjust="spacing" textLength="88" x="408.5" y="285.0177">overwhelming</text><text fill="#000000" font-family="sans-serif" font-size="13" lengthAdjust="spacing" textLength="40" x="377.5" y="300.3283">failing</text><text fill="#000000" font-family="sans-serif" font-size="13" lengthAdjust="spacing" textLength="4" x="417.5" y="300.3283">&#160;</text><text fill="#000000" font-family="sans-serif" font-size="13" lengthAdjust="spacing" textLength="51" x="421.5" y="300.3283">services</text></g><g id="elem_GMN20"><path d="M462.5,660.6283 L462.5,716.5599 A0,0 0 0 0 462.5,716.5599 L660.5,716.5599 A0,0 0 0 0 660.5,716.5599 L660.5,692.5983 L695.52,688.5983 L660.5,684.5983 L660.5,670.6283 L650.5,660.6283 L462.5,660.6283 A0,0 0 0 0 462.5,660.6283 " fill="#FEFFDD" style="stroke:#181818;stroke-width:0.5;"/><path d="M650.5,660.6283 L650.5,670.6283 L660.5,670.6283 L650.5,660.6283 " fill="#FEFFDD" style="stroke:#181818;stroke-width:0.5;"/><text fill="#000000" font-family="sans-serif" font-size="13" lengthAdjust="spacing" textLength="32" x="468.5" y="678.1966">Retry</text><text fill="#000000" font-family="sans-serif" font-size="13" lengthAdjust="spacing" textLength="4" x="500.5" y="678.1966">&#160;</text><text fill="#000000" font-family="sans-serif" font-size="13" lengthAdjust="spacing" textLength="38" x="504.5" y="678.1966">queue</text><text fill="#000000" font-family="sans-serif" font-size="13" lengthAdjust="spacing" textLength="4" x="542.5" y="678.1966">&#160;</text><text fill="#000000" font-family="sans-serif" font-size="13" lengthAdjust="spacing" textLength="40" x="546.5" y="678.1966">delays</text><text fill="#000000" font-family="sans-serif" font-size="13" lengthAdjust="spacing" textLength="4" x="586.5" y="678.1966">&#160;</text><text fill="#000000" font-family="sans-serif" font-size="13" lengthAdjust="spacing" textLength="55" x="590.5" y="678.1966">message</text><text fill="#000000" font-family="sans-serif" font-size="13" lengthAdjust="spacing" textLength="61" x="496" y="693.5072">redelivery</text><text fill="#000000" font-family="sans-serif" font-size="13" lengthAdjust="spacing" textLength="4" x="557" y="693.5072">&#160;</text><text fill="#000000" font-family="sans-serif" font-size="13" lengthAdjust="spacing" textLength="37" x="561" y="693.5072">based</text><text fill="#000000" font-family="sans-serif" font-size="13" lengthAdjust="spacing" textLength="4" x="598" y="693.5072">&#160;</text><text fill="#000000" font-family="sans-serif" font-size="13" lengthAdjust="spacing" textLength="16" x="602" y="693.5072">on</text><text fill="#000000" font-family="sans-serif" font-size="13" lengthAdjust="spacing" textLength="48" x="496.5" y="708.8177">backoff</text><text fill="#000000" font-family="sans-serif" font-size="13" lengthAdjust="spacing" textLength="4" x="544.5" y="708.8177">&#160;</text><text fill="#000000" font-family="sans-serif" font-size="13" lengthAdjust="spacing" textLength="69" x="548.5" y="708.8177">calculation</text></g><g id="elem_GMN23"><path d="M6,814.8183 L6,886.0605 A0,0 0 0 0 6,886.0605 L183,886.0605 A0,0 0 0 0 183,886.0605 L183,824.8183 L173,814.8183 L98.5,814.8183 L94.5,729.5183 L90.5,814.8183 L6,814.8183 A0,0 0 0 0 6,814.8183 " fill="#FEFFDD" style="stroke:#181818;stroke-width:0.5;"/><path d="M173,814.8183 L173,824.8183 L183,824.8183 L173,814.8183 " fill="#FEFFDD" style="stroke:#181818;stroke-width:0.5;"/><text fill="#000000" font-family="sans-serif" font-size="13" lengthAdjust="spacing" textLength="61" x="16.5" y="832.3866">Messages</text><text fill="#000000" font-family="sans-serif" font-size="13" lengthAdjust="spacing" textLength="4" x="77.5" y="832.3866">&#160;</text><text fill="#000000" font-family="sans-serif" font-size="13" lengthAdjust="spacing" textLength="25" x="81.5" y="832.3866">that</text><text fill="#000000" font-family="sans-serif" font-size="13" lengthAdjust="spacing" textLength="4" x="106.5" y="832.3866">&#160;</text><text fill="#000000" font-family="sans-serif" font-size="13" lengthAdjust="spacing" textLength="20" x="110.5" y="832.3866">fail</text><text fill="#000000" font-family="sans-serif" font-size="13" lengthAdjust="spacing" textLength="4" x="130.5" y="832.3866">&#160;</text><text fill="#000000" font-family="sans-serif" font-size="13" lengthAdjust="spacing" textLength="29" x="134.5" y="832.3866">after</text><text fill="#000000" font-family="sans-serif" font-size="13" lengthAdjust="spacing" textLength="63" x="12" y="847.6972">maximum</text><text fill="#000000" font-family="sans-serif" font-size="13" lengthAdjust="spacing" textLength="4" x="75" y="847.6972">&#160;</text><text fill="#000000" font-family="sans-serif" font-size="13" lengthAdjust="spacing" textLength="29" x="79" y="847.6972">retry</text><text fill="#000000" font-family="sans-serif" font-size="13" lengthAdjust="spacing" textLength="4" x="108" y="847.6972">&#160;</text><text fill="#000000" font-family="sans-serif" font-size="13" lengthAdjust="spacing" textLength="56" x="112" y="847.6972">attempts</text><text fill="#000000" font-family="sans-serif" font-size="13" lengthAdjust="spacing" textLength="19" x="30" y="863.0077">are</text><text fill="#000000" font-family="sans-serif" font-size="13" lengthAdjust="spacing" textLength="4" x="49" y="863.0077">&#160;</text><text fill="#000000" font-family="sans-serif" font-size="13" lengthAdjust="spacing" textLength="27" x="53" y="863.0077">sent</text><text fill="#000000" font-family="sans-serif" font-size="13" lengthAdjust="spacing" textLength="4" x="80" y="863.0077">&#160;</text><text fill="#000000" font-family="sans-serif" font-size="13" lengthAdjust="spacing" textLength="13" x="84" y="863.0077">to</text><text fill="#000000" font-family="sans-serif" font-size="13" lengthAdjust="spacing" textLength="4" x="97" y="863.0077">&#160;</text><text fill="#000000" font-family="sans-serif" font-size="13" lengthAdjust="spacing" textLength="27" x="101" y="863.0077">DLQ</text><text fill="#000000" font-family="sans-serif" font-size="13" lengthAdjust="spacing" textLength="4" x="128" y="863.0077">&#160;</text><text fill="#000000" font-family="sans-serif" font-size="13" lengthAdjust="spacing" textLength="18" x="132" y="863.0077">for</text><text fill="#000000" font-family="sans-serif" font-size="13" lengthAdjust="spacing" textLength="46" x="24" y="878.3183">manual</text><text fill="#000000" font-family="sans-serif" font-size="13" lengthAdjust="spacing" textLength="4" x="70" y="878.3183">&#160;</text><text fill="#000000" font-family="sans-serif" font-size="13" lengthAdjust="spacing" textLength="82" x="74" y="878.3183">investigation</text></g><!--link MainQueue to Consumer--><g id="link_MainQueue_Consumer"><path codeLine="44" d="M698.5,125.7683 C698.5,151.8483 698.5,180.3183 698.5,209.1883 " fill="none" id="MainQueue-to-Consumer" style="stroke:#666666;stroke-width:1.0;"/><polygon fill="#666666" points="698.5,215.1883,702.5,206.1883,698.5,210.1883,694.5,206.1883,698.5,215.1883" style="stroke:#666666;stroke-width:1.0;"/><text fill="#666666" font-family="sans-serif" font-size="12" lengthAdjust="spacing" textLength="20" x="706.5" y="168.0698">Pull</text><text fill="#666666" font-family="sans-serif" font-size="12" lengthAdjust="spacing" textLength="4" x="726.5" y="168.0698">&#160;</text><text fill="#666666" font-family="sans-serif" font-size="12" lengthAdjust="spacing" textLength="50" x="730.5" y="168.0698">Message</text><text fill="#666666" font-family="sans-serif" font-size="12" lengthAdjust="spacing" textLength="34" x="699.5" y="182.2027">[Initial</text><text fill="#666666" font-family="sans-serif" font-size="12" lengthAdjust="spacing" textLength="4" x="733.5" y="182.2027">&#160;</text><text fill="#666666" font-family="sans-serif" font-size="12" lengthAdjust="spacing" textLength="50" x="737.5" y="182.2027">Attempt]</text></g><!--link Consumer to RetryHandler--><g id="link_Consumer_RetryHandler"><path codeLine="45" d="M624.28,329.1683 C586.34,357.6483 545.1185,388.5962 507.3385,416.9562 " fill="none" id="Consumer-to-RetryHandler" style="stroke:#666666;stroke-width:1.0;"/><polygon fill="#666666" points="502.54,420.5583,512.1391,418.3542,506.5387,417.5566,507.3364,411.9562,502.54,420.5583" style="stroke:#666666;stroke-width:1.0;"/><text fill="#666666" font-family="sans-serif" font-size="12" lengthAdjust="spacing" textLength="41" x="590.61" y="372.0198">Handle</text><text fill="#666666" font-family="sans-serif" font-size="12" lengthAdjust="spacing" textLength="4" x="631.61" y="372.0198">&#160;</text><text fill="#666666" font-family="sans-serif" font-size="12" lengthAdjust="spacing" textLength="38" x="635.61" y="372.0198">Failure</text><text fill="#666666" font-family="sans-serif" font-size="12" lengthAdjust="spacing" textLength="65" x="581.11" y="386.1527">[Processing</text><text fill="#666666" font-family="sans-serif" font-size="12" lengthAdjust="spacing" textLength="4" x="646.11" y="386.1527">&#160;</text><text fill="#666666" font-family="sans-serif" font-size="12" lengthAdjust="spacing" textLength="33" x="650.11" y="386.1527">Error]</text></g><!--link RetryHandler to RetryQueue--><g id="link_RetryHandler_RetryQueue"><path codeLine="46" d="M492.69,533.5883 C518.79,554.5983 550.22,577.2583 581.5,593.3783 C621.61,614.0483 636.69,606.3983 678.5,623.3783 C690.33,628.1783 697.1364,631.0913 709.1064,636.8113 " fill="none" id="RetryHandler-to-RetryQueue" style="stroke:#666666;stroke-width:1.0;"/><polygon fill="#666666" points="714.52,639.3983,708.1242,631.9087,710.0086,637.2425,704.6749,639.1269,714.52,639.3983" style="stroke:#666666;stroke-width:1.0;"/><text fill="#666666" font-family="sans-serif" font-size="12" lengthAdjust="spacing" textLength="51" x="614" y="575.9798">Schedule</text><text fill="#666666" font-family="sans-serif" font-size="12" lengthAdjust="spacing" textLength="4" x="665" y="575.9798">&#160;</text><text fill="#666666" font-family="sans-serif" font-size="12" lengthAdjust="spacing" textLength="30" x="669" y="575.9798">Retry</text><text fill="#666666" font-family="sans-serif" font-size="12" lengthAdjust="spacing" textLength="27" x="582.5" y="590.1127">[with</text><text fill="#666666" font-family="sans-serif" font-size="12" lengthAdjust="spacing" textLength="4" x="609.5" y="590.1127">&#160;</text><text fill="#666666" font-family="sans-serif" font-size="12" lengthAdjust="spacing" textLength="67" x="613.5" y="590.1127">Exponential</text><text fill="#666666" font-family="sans-serif" font-size="12" lengthAdjust="spacing" textLength="4" x="680.5" y="590.1127">&#160;</text><text fill="#666666" font-family="sans-serif" font-size="12" lengthAdjust="spacing" textLength="46" x="684.5" y="590.1127">Backoff]</text></g><!--link RetryQueue to Consumer--><g id="link_RetryQueue_Consumer"><path codeLine="47" d="M792.18,639.4783 C772.46,562.4183 735.3676,417.481 714.3976,335.541 " fill="none" id="RetryQueue-to-Consumer" style="stroke:#666666;stroke-width:1.0;"/><polygon fill="#666666" points="712.91,329.7283,711.2662,339.439,714.1496,334.5722,719.0165,337.4556,712.91,329.7283" style="stroke:#666666;stroke-width:1.0;"/><text fill="#666666" font-family="sans-serif" font-size="12" lengthAdjust="spacing" textLength="30" x="764.77" y="473.9998">Retry</text><text fill="#666666" font-family="sans-serif" font-size="12" lengthAdjust="spacing" textLength="4" x="794.77" y="473.9998">&#160;</text><text fill="#666666" font-family="sans-serif" font-size="12" lengthAdjust="spacing" textLength="50" x="798.77" y="473.9998">Message</text><text fill="#666666" font-family="sans-serif" font-size="12" lengthAdjust="spacing" textLength="32" x="770.77" y="488.1327">[After</text><text fill="#666666" font-family="sans-serif" font-size="12" lengthAdjust="spacing" textLength="4" x="802.77" y="488.1327">&#160;</text><text fill="#666666" font-family="sans-serif" font-size="12" lengthAdjust="spacing" textLength="36" x="806.77" y="488.1327">Delay]</text></g><!--link RetryHandler to DLQ--><g id="link_RetryHandler_DLQ"><path codeLine="48" d="M356.2,509.3383 C324.17,524.3183 286.65,543.2883 254.5,563.3783 C214.09,588.6183 176.2446,618.1135 145.2346,643.8835 " fill="none" id="RetryHandler-to-DLQ" style="stroke:#666666;stroke-width:1.0;"/><polygon fill="#666666" points="140.62,647.7183,150.0984,645.0424,144.4655,644.5226,144.9853,638.8897,140.62,647.7183" style="stroke:#666666;stroke-width:1.0;"/><text fill="#666666" font-family="sans-serif" font-size="12" lengthAdjust="spacing" textLength="28" x="274" y="575.9798">Send</text><text fill="#666666" font-family="sans-serif" font-size="12" lengthAdjust="spacing" textLength="4" x="302" y="575.9798">&#160;</text><text fill="#666666" font-family="sans-serif" font-size="12" lengthAdjust="spacing" textLength="11" x="306" y="575.9798">to</text><text fill="#666666" font-family="sans-serif" font-size="12" lengthAdjust="spacing" textLength="4" x="317" y="575.9798">&#160;</text><text fill="#666666" font-family="sans-serif" font-size="12" lengthAdjust="spacing" textLength="24" x="321" y="575.9798">DLQ</text><text fill="#666666" font-family="sans-serif" font-size="12" lengthAdjust="spacing" textLength="32" x="255.5" y="590.1127">[After</text><text fill="#666666" font-family="sans-serif" font-size="12" lengthAdjust="spacing" textLength="4" x="287.5" y="590.1127">&#160;</text><text fill="#666666" font-family="sans-serif" font-size="12" lengthAdjust="spacing" textLength="24" x="291.5" y="590.1127">Max</text><text fill="#666666" font-family="sans-serif" font-size="12" lengthAdjust="spacing" textLength="4" x="315.5" y="590.1127">&#160;</text><text fill="#666666" font-family="sans-serif" font-size="12" lengthAdjust="spacing" textLength="44" x="319.5" y="590.1127">Retries]</text></g><!--link RetryHandler to BackoffStrategy--><g id="link_RetryHandler_BackoffStrategy"><path codeLine="49" d="M400.56,533.7283 C386.44,561.2083 372.1215,589.0712 357.4715,617.5912 " fill="none" id="RetryHandler-to-BackoffStrategy" style="stroke:#666666;stroke-width:1.0;"/><polygon fill="#666666" points="354.73,622.9283,362.4003,616.7504,357.0146,618.4807,355.2842,613.095,354.73,622.9283" style="stroke:#666666;stroke-width:1.0;"/><text fill="#666666" font-family="sans-serif" font-size="12" lengthAdjust="spacing" textLength="33" x="386.17" y="582.9798">Apply</text><text fill="#666666" font-family="sans-serif" font-size="12" lengthAdjust="spacing" textLength="4" x="419.17" y="582.9798">&#160;</text><text fill="#666666" font-family="sans-serif" font-size="12" lengthAdjust="spacing" textLength="46" x="423.17" y="582.9798">Strategy</text></g><!--SRC=[RLJ9Rjim4BthAwO-DMWT8yj9Xm9fxBG1xC99sbCQ5BGqaeXoKKZAiL7qtpjS92_r8N0uvCnxy-QDtd5LYAv4Q9nhRJwP6FPsNdFNTAlEeYcqSgZSUQ7bf1LCkKwAiNMbuAl9xVLuwKC_5lE9PDQXeT2lMyfWNA4vR-bjbZdk1C8ZEhE5DweBdrdnMrSLB9cZ59LbxqgiA04UPxVVRxvzcS-W4CpQBDi5HWig2GyTTZW2Pi4Vmmd-P00V0DMhFxsNQ2shyIm4Iup1i-plVYqYQ3k99gMsdH1tHik7z3R4Z2weqY9MIy66gLBW7UEYCttC-BRckkR5CSeeTlmr99b0EaHI884NJ1ITO0wJAAciBHeiEu4X8yMSeISt99bidKqnoJR-2KURmzL9_9rauRolMOc2RR6SgTUzpdlaAGg-nW5y5UdTandCcWc2Uxwm7-6I_gxjon7o55a9S_JJtSEVpXyIi7NQ11snF1mOkO29ALf7luvhzP-clNMUI0o7zJOKJi4-ba2IKd2HmmLO91-NiUE3syiSBjEjFN5zbSFrgUlAjtO5B4qZXoUayaxx9ZtbdJt7uqyxm-KmMfBR8Fdgftg-Lznn9dh0br4sFFQP1uwXxFWl90zI_Z8QbQiQPiPeGmKESeOYaGsLU4e3Zc4g4NPojccreZttN9AUVQdJVKHtxHg9aaozHASu-E5xy9rCGyw2RI2P-5JcyNIfoatRYktE0rccj4Cml6uSw6gWIQCQ6FUJyk1fkUawcG-OPqNvDHeRLpfS5hJnt4hG2ggeUERvUxI4wNJh4VT9KsRKfabDSDaAbAIjHyGzdTDEqJh4HkYQsB6rvYLeshst1eMaoLBSm_iPqmTvpOdyCG-1bHk8X84DDC9oH-_Qlc6wD5Yc3ISU5WbHKRIdr7-MQ0UFeLRQEIqzcFSwz1OWPHlc0b5WVgvUGRRXifDHqM44TC4CKYlA9Ij0fUDprP4iNAtz5w0-Gly7]--></g></svg>