<?xml version="1.0" encoding="us-ascii" standalone="no"?><svg xmlns="http://www.w3.org/2000/svg" xmlns:xlink="http://www.w3.org/1999/xlink" contentStyleType="text/css" height="589px" preserveAspectRatio="none" style="width:1359px;height:589px;background:#FFFFFF;" version="1.1" viewBox="0 0 1359 589" width="1359px" zoomAndPan="magnify"><defs/><g><text fill="#000000" font-family="sans-serif" font-size="14" font-weight="bold" lengthAdjust="spacing" textLength="194" x="575.57" y="23.5352">Saga Orchestration Pattern</text><!--class SagaOrchestrator--><g id="elem_SagaOrchestrator"><rect codeLine="7" fill="#F1F1F1" height="113.9531" id="SagaOrchestrator" rx="2.5" ry="2.5" style="stroke:#181818;stroke-width:0.5;" width="190" x="471.5" y="44.4883"/><ellipse cx="501.8" cy="60.4883" fill="#ADD1B2" rx="11" ry="11" style="stroke:#181818;stroke-width:1.0;"/><path d="M504.2731,66.6313 Q503.6921,66.9302 503.0529,67.0796 Q502.4138,67.229 501.7082,67.229 Q499.2014,67.229 497.8815,65.5771 Q496.5617,63.9253 496.5617,60.8042 Q496.5617,57.6748 497.8815,56.0229 Q499.2014,54.3711 501.7082,54.3711 Q502.4138,54.3711 503.0612,54.5205 Q503.7087,54.6699 504.2731,54.9688 L504.2731,57.6914 Q503.6423,57.1104 503.0488,56.8406 Q502.4553,56.5708 501.8244,56.5708 Q500.4797,56.5708 499.7949,57.6375 Q499.1101,58.7041 499.1101,60.8042 Q499.1101,62.896 499.7949,63.9626 Q500.4797,65.0293 501.8244,65.0293 Q502.4553,65.0293 503.0488,64.7595 Q503.6423,64.4897 504.2731,63.9087 Z " fill="#000000"/><text fill="#000000" font-family="sans-serif" font-size="14" lengthAdjust="spacing" textLength="33" x="519.2" y="65.7793">Saga</text><text fill="#000000" font-family="sans-serif" font-size="14" lengthAdjust="spacing" textLength="4" x="552.2" y="65.7793">&#160;</text><text fill="#000000" font-family="sans-serif" font-size="14" lengthAdjust="spacing" textLength="87" x="556.2" y="65.7793">Orchestrator</text><line style="stroke:#181818;stroke-width:0.5;" x1="472.5" x2="660.5" y1="76.4883" y2="76.4883"/><ellipse cx="482.5" cy="90.2324" fill="none" rx="3" ry="3" style="stroke:#038048;stroke-width:1.0;"/><text fill="#000000" font-family="sans-serif" font-size="14" lengthAdjust="spacing" textLength="70" x="491.5" y="94.0234">sagaState:</text><text fill="#000000" font-family="sans-serif" font-size="14" lengthAdjust="spacing" textLength="4" x="561.5" y="94.0234">&#160;</text><text fill="#000000" font-family="sans-serif" font-size="14" lengthAdjust="spacing" textLength="50" x="565.5" y="94.0234">ACTIVE</text><line style="stroke:#181818;stroke-width:0.5;" x1="472.5" x2="660.5" y1="100.9766" y2="100.9766"/><ellipse cx="482.5" cy="114.7207" fill="#84BE84" rx="3" ry="3" style="stroke:#038048;stroke-width:1.0;"/><text fill="#000000" font-family="sans-serif" font-size="14" lengthAdjust="spacing" textLength="74" x="491.5" y="118.5117">startSaga()</text><ellipse cx="482.5" cy="131.209" fill="#84BE84" rx="3" ry="3" style="stroke:#038048;stroke-width:1.0;"/><text fill="#000000" font-family="sans-serif" font-size="14" lengthAdjust="spacing" textLength="123" x="491.5" y="135">handleResponse()</text><ellipse cx="482.5" cy="147.6973" fill="#84BE84" rx="3" ry="3" style="stroke:#038048;stroke-width:1.0;"/><text fill="#000000" font-family="sans-serif" font-size="14" lengthAdjust="spacing" textLength="164" x="491.5" y="151.4883">executeCompensation()</text></g><!--class ServiceA--><g id="elem_ServiceA"><rect codeLine="14" fill="#F1F1F1" height="97.4648" id="ServiceA" rx="2.5" ry="2.5" style="stroke:#181818;stroke-width:0.5;" width="174" x="1108.5" y="485.3783"/><ellipse cx="1160.25" cy="501.3783" fill="#ADD1B2" rx="11" ry="11" style="stroke:#181818;stroke-width:1.0;"/><path d="M1162.7231,507.5213 Q1162.1421,507.8202 1161.5029,507.9696 Q1160.8638,508.119 1160.1582,508.119 Q1157.6514,508.119 1156.3315,506.4671 Q1155.0117,504.8153 1155.0117,501.6942 Q1155.0117,498.5648 1156.3315,496.9129 Q1157.6514,495.2611 1160.1582,495.2611 Q1160.8638,495.2611 1161.5112,495.4105 Q1162.1587,495.5599 1162.7231,495.8588 L1162.7231,498.5814 Q1162.0923,498.0004 1161.4988,497.7306 Q1160.9053,497.4608 1160.2744,497.4608 Q1158.9297,497.4608 1158.2449,498.5275 Q1157.5601,499.5941 1157.5601,501.6942 Q1157.5601,503.786 1158.2449,504.8526 Q1158.9297,505.9193 1160.2744,505.9193 Q1160.9053,505.9193 1161.4988,505.6495 Q1162.0923,505.3797 1162.7231,504.7987 Z " fill="#000000"/><text fill="#000000" font-family="sans-serif" font-size="14" lengthAdjust="spacing" textLength="48" x="1180.75" y="506.6693">Service</text><text fill="#000000" font-family="sans-serif" font-size="14" lengthAdjust="spacing" textLength="4" x="1228.75" y="506.6693">&#160;</text><text fill="#000000" font-family="sans-serif" font-size="14" lengthAdjust="spacing" textLength="10" x="1232.75" y="506.6693">A</text><line style="stroke:#181818;stroke-width:0.5;" x1="1109.5" x2="1281.5" y1="517.3783" y2="517.3783"/><ellipse cx="1119.5" cy="531.1224" fill="none" rx="3" ry="3" style="stroke:#038048;stroke-width:1.0;"/><text fill="#000000" font-family="sans-serif" font-size="14" lengthAdjust="spacing" textLength="84" x="1128.5" y="534.9134">orderStatus:</text><text fill="#000000" font-family="sans-serif" font-size="14" lengthAdjust="spacing" textLength="4" x="1212.5" y="534.9134">&#160;</text><text fill="#000000" font-family="sans-serif" font-size="14" lengthAdjust="spacing" textLength="60" x="1216.5" y="534.9134">PENDING</text><line style="stroke:#181818;stroke-width:0.5;" x1="1109.5" x2="1281.5" y1="541.8666" y2="541.8666"/><ellipse cx="1119.5" cy="555.6107" fill="#84BE84" rx="3" ry="3" style="stroke:#038048;stroke-width:1.0;"/><text fill="#000000" font-family="sans-serif" font-size="14" lengthAdjust="spacing" textLength="103" x="1128.5" y="559.4017">processOrder()</text><ellipse cx="1119.5" cy="572.099" fill="#84BE84" rx="3" ry="3" style="stroke:#038048;stroke-width:1.0;"/><text fill="#000000" font-family="sans-serif" font-size="14" lengthAdjust="spacing" textLength="133" x="1128.5" y="575.89">compensateOrder()</text></g><!--class ServiceB--><g id="elem_ServiceB"><rect codeLine="20" fill="#F1F1F1" height="97.4648" id="ServiceB" rx="2.5" ry="2.5" style="stroke:#181818;stroke-width:0.5;" width="209" x="244" y="485.3783"/><ellipse cx="314.25" cy="501.3783" fill="#ADD1B2" rx="11" ry="11" style="stroke:#181818;stroke-width:1.0;"/><path d="M316.7231,507.5213 Q316.1421,507.8202 315.5029,507.9696 Q314.8638,508.119 314.1582,508.119 Q311.6514,508.119 310.3315,506.4671 Q309.0117,504.8153 309.0117,501.6942 Q309.0117,498.5648 310.3315,496.9129 Q311.6514,495.2611 314.1582,495.2611 Q314.8638,495.2611 315.5112,495.4105 Q316.1587,495.5599 316.7231,495.8588 L316.7231,498.5814 Q316.0923,498.0004 315.4988,497.7306 Q314.9053,497.4608 314.2744,497.4608 Q312.9297,497.4608 312.2449,498.5275 Q311.5601,499.5941 311.5601,501.6942 Q311.5601,503.786 312.2449,504.8526 Q312.9297,505.9193 314.2744,505.9193 Q314.9053,505.9193 315.4988,505.6495 Q316.0923,505.3797 316.7231,504.7987 Z " fill="#000000"/><text fill="#000000" font-family="sans-serif" font-size="14" lengthAdjust="spacing" textLength="48" x="334.75" y="506.6693">Service</text><text fill="#000000" font-family="sans-serif" font-size="14" lengthAdjust="spacing" textLength="4" x="382.75" y="506.6693">&#160;</text><text fill="#000000" font-family="sans-serif" font-size="14" lengthAdjust="spacing" textLength="8" x="386.75" y="506.6693">B</text><line style="stroke:#181818;stroke-width:0.5;" x1="245" x2="452" y1="517.3783" y2="517.3783"/><ellipse cx="255" cy="531.1224" fill="none" rx="3" ry="3" style="stroke:#038048;stroke-width:1.0;"/><text fill="#000000" font-family="sans-serif" font-size="14" lengthAdjust="spacing" textLength="110" x="264" y="534.9134">inventoryStatus:</text><text fill="#000000" font-family="sans-serif" font-size="14" lengthAdjust="spacing" textLength="4" x="374" y="534.9134">&#160;</text><text fill="#000000" font-family="sans-serif" font-size="14" lengthAdjust="spacing" textLength="69" x="378" y="534.9134">RESERVED</text><line style="stroke:#181818;stroke-width:0.5;" x1="245" x2="452" y1="541.8666" y2="541.8666"/><ellipse cx="255" cy="555.6107" fill="#84BE84" rx="3" ry="3" style="stroke:#038048;stroke-width:1.0;"/><text fill="#000000" font-family="sans-serif" font-size="14" lengthAdjust="spacing" textLength="124" x="264" y="559.4017">reserveInventory()</text><ellipse cx="255" cy="572.099" fill="#84BE84" rx="3" ry="3" style="stroke:#038048;stroke-width:1.0;"/><text fill="#000000" font-family="sans-serif" font-size="14" lengthAdjust="spacing" textLength="123" x="264" y="575.89">releaseInventory()</text></g><!--class ServiceC--><g id="elem_ServiceC"><rect codeLine="26" fill="#F1F1F1" height="97.4648" id="ServiceC" rx="2.5" ry="2.5" style="stroke:#181818;stroke-width:0.5;" width="202" x="659.5" y="485.3783"/><ellipse cx="725.25" cy="501.3783" fill="#ADD1B2" rx="11" ry="11" style="stroke:#181818;stroke-width:1.0;"/><path d="M727.7231,507.5213 Q727.1421,507.8202 726.5029,507.9696 Q725.8638,508.119 725.1582,508.119 Q722.6514,508.119 721.3315,506.4671 Q720.0117,504.8153 720.0117,501.6942 Q720.0117,498.5648 721.3315,496.9129 Q722.6514,495.2611 725.1582,495.2611 Q725.8638,495.2611 726.5112,495.4105 Q727.1587,495.5599 727.7231,495.8588 L727.7231,498.5814 Q727.0923,498.0004 726.4988,497.7306 Q725.9053,497.4608 725.2744,497.4608 Q723.9297,497.4608 723.2449,498.5275 Q722.5601,499.5941 722.5601,501.6942 Q722.5601,503.786 723.2449,504.8526 Q723.9297,505.9193 725.2744,505.9193 Q725.9053,505.9193 726.4988,505.6495 Q727.0923,505.3797 727.7231,504.7987 Z " fill="#000000"/><text fill="#000000" font-family="sans-serif" font-size="14" lengthAdjust="spacing" textLength="48" x="745.75" y="506.6693">Service</text><text fill="#000000" font-family="sans-serif" font-size="14" lengthAdjust="spacing" textLength="4" x="793.75" y="506.6693">&#160;</text><text fill="#000000" font-family="sans-serif" font-size="14" lengthAdjust="spacing" textLength="10" x="797.75" y="506.6693">C</text><line style="stroke:#181818;stroke-width:0.5;" x1="660.5" x2="860.5" y1="517.3783" y2="517.3783"/><ellipse cx="670.5" cy="531.1224" fill="none" rx="3" ry="3" style="stroke:#038048;stroke-width:1.0;"/><text fill="#000000" font-family="sans-serif" font-size="14" lengthAdjust="spacing" textLength="105" x="679.5" y="534.9134">paymentStatus:</text><text fill="#000000" font-family="sans-serif" font-size="14" lengthAdjust="spacing" textLength="4" x="784.5" y="534.9134">&#160;</text><text fill="#000000" font-family="sans-serif" font-size="14" lengthAdjust="spacing" textLength="67" x="788.5" y="534.9134">CHARGED</text><line style="stroke:#181818;stroke-width:0.5;" x1="660.5" x2="860.5" y1="541.8666" y2="541.8666"/><ellipse cx="670.5" cy="555.6107" fill="#84BE84" rx="3" ry="3" style="stroke:#038048;stroke-width:1.0;"/><text fill="#000000" font-family="sans-serif" font-size="14" lengthAdjust="spacing" textLength="121" x="679.5" y="559.4017">processPayment()</text><ellipse cx="670.5" cy="572.099" fill="#84BE84" rx="3" ry="3" style="stroke:#038048;stroke-width:1.0;"/><text fill="#000000" font-family="sans-serif" font-size="14" lengthAdjust="spacing" textLength="114" x="679.5" y="575.89">refundPayment()</text></g><!--class MessageQueue--><g id="elem_MessageQueue"><rect codeLine="32" fill="#F1F1F1" height="80.9766" id="MessageQueue" rx="2.5" ry="2.5" style="stroke:#181818;stroke-width:0.5;" width="160" x="680.5" y="281.4183"/><ellipse cx="704.5" cy="297.4183" fill="#ADD1B2" rx="11" ry="11" style="stroke:#181818;stroke-width:1.0;"/><path d="M706.9731,303.5613 Q706.3921,303.8602 705.7529,304.0096 Q705.1138,304.159 704.4082,304.159 Q701.9014,304.159 700.5815,302.5071 Q699.2617,300.8553 699.2617,297.7342 Q699.2617,294.6048 700.5815,292.9529 Q701.9014,291.3011 704.4082,291.3011 Q705.1138,291.3011 705.7612,291.4505 Q706.4087,291.5999 706.9731,291.8988 L706.9731,294.6214 Q706.3423,294.0404 705.7488,293.7706 Q705.1553,293.5008 704.5244,293.5008 Q703.1797,293.5008 702.4949,294.5675 Q701.8101,295.6341 701.8101,297.7342 Q701.8101,299.826 702.4949,300.8926 Q703.1797,301.9593 704.5244,301.9593 Q705.1553,301.9593 705.7488,301.6895 Q706.3423,301.4197 706.9731,300.8387 Z " fill="#000000"/><text fill="#000000" font-family="sans-serif" font-size="14" lengthAdjust="spacing" textLength="59" x="720.5" y="302.7093">Message</text><text fill="#000000" font-family="sans-serif" font-size="14" lengthAdjust="spacing" textLength="4" x="779.5" y="302.7093">&#160;</text><text fill="#000000" font-family="sans-serif" font-size="14" lengthAdjust="spacing" textLength="45" x="783.5" y="302.7093">Queue</text><line style="stroke:#181818;stroke-width:0.5;" x1="681.5" x2="839.5" y1="313.4183" y2="313.4183"/><line style="stroke:#181818;stroke-width:0.5;" x1="681.5" x2="839.5" y1="321.4183" y2="321.4183"/><ellipse cx="691.5" cy="335.1624" fill="#84BE84" rx="3" ry="3" style="stroke:#038048;stroke-width:1.0;"/><text fill="#000000" font-family="sans-serif" font-size="14" lengthAdjust="spacing" textLength="113" x="700.5" y="338.9534">routeMessages()</text><ellipse cx="691.5" cy="351.6507" fill="#84BE84" rx="3" ry="3" style="stroke:#038048;stroke-width:1.0;"/><text fill="#000000" font-family="sans-serif" font-size="14" lengthAdjust="spacing" textLength="134" x="700.5" y="355.4417">handleSagaEvents()</text></g><!--class CompensationFlow--><g id="elem_CompensationFlow"><rect codeLine="37" fill="#F1F1F1" height="146.9297" id="CompensationFlow" rx="2.5" ry="2.5" style="stroke:#181818;stroke-width:0.5;" width="224" x="360.5" y="248.4483"/><ellipse cx="400.7" cy="264.4483" fill="#ADD1B2" rx="11" ry="11" style="stroke:#181818;stroke-width:1.0;"/><path d="M403.1731,270.5913 Q402.5921,270.8902 401.9529,271.0396 Q401.3138,271.189 400.6082,271.189 Q398.1014,271.189 396.7815,269.5371 Q395.4617,267.8853 395.4617,264.7642 Q395.4617,261.6348 396.7815,259.9829 Q398.1014,258.3311 400.6082,258.3311 Q401.3138,258.3311 401.9612,258.4805 Q402.6087,258.6299 403.1731,258.9288 L403.1731,261.6514 Q402.5423,261.0704 401.9488,260.8006 Q401.3553,260.5308 400.7244,260.5308 Q399.3797,260.5308 398.6949,261.5975 Q398.0101,262.6641 398.0101,264.7642 Q398.0101,266.856 398.6949,267.9226 Q399.3797,268.9893 400.7244,268.9893 Q401.3553,268.9893 401.9488,268.7195 Q402.5423,268.4497 403.1731,267.8687 Z " fill="#000000"/><text fill="#000000" font-family="sans-serif" font-size="14" lengthAdjust="spacing" textLength="100" x="420.3" y="269.7393">Compensation</text><text fill="#000000" font-family="sans-serif" font-size="14" lengthAdjust="spacing" textLength="4" x="520.3" y="269.7393">&#160;</text><text fill="#000000" font-family="sans-serif" font-size="14" lengthAdjust="spacing" textLength="32" x="524.3" y="269.7393">Flow</text><line style="stroke:#181818;stroke-width:0.5;" x1="361.5" x2="583.5" y1="280.4483" y2="280.4483"/><line style="stroke:#181818;stroke-width:0.5;" x1="361.5" x2="583.5" y1="288.4483" y2="288.4483"/><ellipse cx="371.5" cy="310.4366" fill="#84BE84" rx="3" ry="3" style="stroke:#038048;stroke-width:1.0;"/><text fill="#000000" font-family="sans-serif" font-size="14" lengthAdjust="spacing" textLength="30" x="380.5" y="305.9834">Step</text><text fill="#000000" font-family="sans-serif" font-size="14" lengthAdjust="spacing" textLength="4" x="410.5" y="305.9834">&#160;</text><text fill="#000000" font-family="sans-serif" font-size="14" lengthAdjust="spacing" textLength="13" x="414.5" y="305.9834">1:</text><text fill="#000000" font-family="sans-serif" font-size="14" lengthAdjust="spacing" textLength="4" x="427.5" y="305.9834">&#160;</text><text fill="#000000" font-family="sans-serif" font-size="14" lengthAdjust="spacing" textLength="49" x="431.5" y="305.9834">Refund</text><text fill="#000000" font-family="sans-serif" font-size="14" lengthAdjust="spacing" textLength="4" x="480.5" y="305.9834">&#160;</text><text fill="#000000" font-family="sans-serif" font-size="14" lengthAdjust="spacing" textLength="58" x="484.5" y="305.9834">Payment</text><text fill="#000000" font-family="sans-serif" font-size="14" lengthAdjust="spacing" textLength="53" x="380.5" y="322.4717">(Service</text><text fill="#000000" font-family="sans-serif" font-size="14" lengthAdjust="spacing" textLength="4" x="433.5" y="322.4717">&#160;</text><text fill="#000000" font-family="sans-serif" font-size="14" lengthAdjust="spacing" textLength="15" x="437.5" y="322.4717">C)</text><ellipse cx="371.5" cy="343.4131" fill="#84BE84" rx="3" ry="3" style="stroke:#038048;stroke-width:1.0;"/><text fill="#000000" font-family="sans-serif" font-size="14" lengthAdjust="spacing" textLength="30" x="380.5" y="338.96">Step</text><text fill="#000000" font-family="sans-serif" font-size="14" lengthAdjust="spacing" textLength="4" x="410.5" y="338.96">&#160;</text><text fill="#000000" font-family="sans-serif" font-size="14" lengthAdjust="spacing" textLength="13" x="414.5" y="338.96">2:</text><text fill="#000000" font-family="sans-serif" font-size="14" lengthAdjust="spacing" textLength="4" x="427.5" y="338.96">&#160;</text><text fill="#000000" font-family="sans-serif" font-size="14" lengthAdjust="spacing" textLength="52" x="431.5" y="338.96">Release</text><text fill="#000000" font-family="sans-serif" font-size="14" lengthAdjust="spacing" textLength="4" x="483.5" y="338.96">&#160;</text><text fill="#000000" font-family="sans-serif" font-size="14" lengthAdjust="spacing" textLength="64" x="487.5" y="338.96">Inventory</text><text fill="#000000" font-family="sans-serif" font-size="14" lengthAdjust="spacing" textLength="53" x="380.5" y="355.4483">(Service</text><text fill="#000000" font-family="sans-serif" font-size="14" lengthAdjust="spacing" textLength="4" x="433.5" y="355.4483">&#160;</text><text fill="#000000" font-family="sans-serif" font-size="14" lengthAdjust="spacing" textLength="13" x="437.5" y="355.4483">B)</text><ellipse cx="371.5" cy="376.3897" fill="#84BE84" rx="3" ry="3" style="stroke:#038048;stroke-width:1.0;"/><text fill="#000000" font-family="sans-serif" font-size="14" lengthAdjust="spacing" textLength="30" x="380.5" y="371.9366">Step</text><text fill="#000000" font-family="sans-serif" font-size="14" lengthAdjust="spacing" textLength="4" x="410.5" y="371.9366">&#160;</text><text fill="#000000" font-family="sans-serif" font-size="14" lengthAdjust="spacing" textLength="13" x="414.5" y="371.9366">3:</text><text fill="#000000" font-family="sans-serif" font-size="14" lengthAdjust="spacing" textLength="4" x="427.5" y="371.9366">&#160;</text><text fill="#000000" font-family="sans-serif" font-size="14" lengthAdjust="spacing" textLength="46" x="431.5" y="371.9366">Cancel</text><text fill="#000000" font-family="sans-serif" font-size="14" lengthAdjust="spacing" textLength="4" x="477.5" y="371.9366">&#160;</text><text fill="#000000" font-family="sans-serif" font-size="14" lengthAdjust="spacing" textLength="40" x="481.5" y="371.9366">Order</text><text fill="#000000" font-family="sans-serif" font-size="14" lengthAdjust="spacing" textLength="4" x="521.5" y="371.9366">&#160;</text><text fill="#000000" font-family="sans-serif" font-size="14" lengthAdjust="spacing" textLength="53" x="525.5" y="371.9366">(Service</text><text fill="#000000" font-family="sans-serif" font-size="14" lengthAdjust="spacing" textLength="15" x="380.5" y="388.4248">A)</text></g><g id="elem_GMN20"><path d="M696.5,65.8483 L696.5,97.4683 L661.89,101.4683 L696.5,105.4683 L696.5,137.0905 A0,0 0 0 0 696.5,137.0905 L880.5,137.0905 A0,0 0 0 0 880.5,137.0905 L880.5,75.8483 L870.5,65.8483 L696.5,65.8483 A0,0 0 0 0 696.5,65.8483 " fill="#FEFFDD" style="stroke:#181818;stroke-width:0.5;"/><path d="M870.5,65.8483 L870.5,75.8483 L880.5,75.8483 L870.5,65.8483 " fill="#FEFFDD" style="stroke:#181818;stroke-width:0.5;"/><text fill="#000000" font-family="sans-serif" font-size="13" lengthAdjust="spacing" textLength="79" x="702.5" y="83.4166">Orchestrator</text><text fill="#000000" font-family="sans-serif" font-size="13" lengthAdjust="spacing" textLength="4" x="781.5" y="83.4166">&#160;</text><text fill="#000000" font-family="sans-serif" font-size="13" lengthAdjust="spacing" textLength="56" x="785.5" y="83.4166">manages</text><text fill="#000000" font-family="sans-serif" font-size="13" lengthAdjust="spacing" textLength="4" x="841.5" y="83.4166">&#160;</text><text fill="#000000" font-family="sans-serif" font-size="13" lengthAdjust="spacing" textLength="20" x="845.5" y="83.4166">the</text><text fill="#000000" font-family="sans-serif" font-size="13" lengthAdjust="spacing" textLength="36" x="705" y="98.7272">entire</text><text fill="#000000" font-family="sans-serif" font-size="13" lengthAdjust="spacing" textLength="4" x="741" y="98.7272">&#160;</text><text fill="#000000" font-family="sans-serif" font-size="13" lengthAdjust="spacing" textLength="29" x="745" y="98.7272">saga</text><text fill="#000000" font-family="sans-serif" font-size="13" lengthAdjust="spacing" textLength="4" x="774" y="98.7272">&#160;</text><text fill="#000000" font-family="sans-serif" font-size="13" lengthAdjust="spacing" textLength="58" x="778" y="98.7272">workflow</text><text fill="#000000" font-family="sans-serif" font-size="13" lengthAdjust="spacing" textLength="4" x="836" y="98.7272">&#160;</text><text fill="#000000" font-family="sans-serif" font-size="13" lengthAdjust="spacing" textLength="23" x="840" y="98.7272">and</text><text fill="#000000" font-family="sans-serif" font-size="13" lengthAdjust="spacing" textLength="49" x="702.5" y="114.0377">handles</text><text fill="#000000" font-family="sans-serif" font-size="13" lengthAdjust="spacing" textLength="4" x="751.5" y="114.0377">&#160;</text><text fill="#000000" font-family="sans-serif" font-size="13" lengthAdjust="spacing" textLength="29" x="755.5" y="114.0377">both</text><text fill="#000000" font-family="sans-serif" font-size="13" lengthAdjust="spacing" textLength="4" x="784.5" y="114.0377">&#160;</text><text fill="#000000" font-family="sans-serif" font-size="13" lengthAdjust="spacing" textLength="50" x="788.5" y="114.0377">success</text><text fill="#000000" font-family="sans-serif" font-size="13" lengthAdjust="spacing" textLength="4" x="838.5" y="114.0377">&#160;</text><text fill="#000000" font-family="sans-serif" font-size="13" lengthAdjust="spacing" textLength="23" x="842.5" y="114.0377">and</text><text fill="#000000" font-family="sans-serif" font-size="13" lengthAdjust="spacing" textLength="40" x="732" y="129.3483">failure</text><text fill="#000000" font-family="sans-serif" font-size="13" lengthAdjust="spacing" textLength="4" x="772" y="129.3483">&#160;</text><text fill="#000000" font-family="sans-serif" font-size="13" lengthAdjust="spacing" textLength="60" x="776" y="129.3483">scenarios</text></g><g id="elem_GMN23"><path d="M916,73.4983 L916,129.4299 A0,0 0 0 0 916,129.4299 L984.71,129.4299 L807.96,281.1883 L992.71,129.4299 L1127,129.4299 A0,0 0 0 0 1127,129.4299 L1127,83.4983 L1117,73.4983 L916,73.4983 A0,0 0 0 0 916,73.4983 " fill="#FEFFDD" style="stroke:#181818;stroke-width:0.5;"/><path d="M1117,73.4983 L1117,83.4983 L1127,83.4983 L1117,73.4983 " fill="#FEFFDD" style="stroke:#181818;stroke-width:0.5;"/><text fill="#000000" font-family="sans-serif" font-size="13" lengthAdjust="spacing" textLength="54" x="943" y="91.0666">Message</text><text fill="#000000" font-family="sans-serif" font-size="13" lengthAdjust="spacing" textLength="4" x="997" y="91.0666">&#160;</text><text fill="#000000" font-family="sans-serif" font-size="13" lengthAdjust="spacing" textLength="38" x="1001" y="91.0666">queue</text><text fill="#000000" font-family="sans-serif" font-size="13" lengthAdjust="spacing" textLength="4" x="1039" y="91.0666">&#160;</text><text fill="#000000" font-family="sans-serif" font-size="13" lengthAdjust="spacing" textLength="48" x="1043" y="91.0666">enables</text><text fill="#000000" font-family="sans-serif" font-size="13" lengthAdjust="spacing" textLength="88" x="922" y="106.3772">asynchronous</text><text fill="#000000" font-family="sans-serif" font-size="13" lengthAdjust="spacing" textLength="4" x="1010" y="106.3772">&#160;</text><text fill="#000000" font-family="sans-serif" font-size="13" lengthAdjust="spacing" textLength="98" x="1014" y="106.3772">communication</text><text fill="#000000" font-family="sans-serif" font-size="13" lengthAdjust="spacing" textLength="52" x="935" y="121.6877">between</text><text fill="#000000" font-family="sans-serif" font-size="13" lengthAdjust="spacing" textLength="4" x="987" y="121.6877">&#160;</text><text fill="#000000" font-family="sans-serif" font-size="13" lengthAdjust="spacing" textLength="29" x="991" y="121.6877">saga</text><text fill="#000000" font-family="sans-serif" font-size="13" lengthAdjust="spacing" textLength="4" x="1020" y="121.6877">&#160;</text><text fill="#000000" font-family="sans-serif" font-size="13" lengthAdjust="spacing" textLength="75" x="1024" y="121.6877">participants</text></g><g id="elem_GMN26"><path d="M6,506.1383 L6,562.0699 L209,562.0699 L209,516.1383 L199,506.1383 L6,506.1383 " fill="#FEFFDD" style="stroke:#181818;stroke-width:0.5;"/><path d="M199,506.1383 L199,516.1383 L209,516.1383 L199,506.1383 " fill="#FEFFDD" style="stroke:#181818;stroke-width:1.0;"/><text fill="#000000" font-family="sans-serif" font-size="13" lengthAdjust="spacing" textLength="91" x="21" y="523.7066">Compensation</text><text fill="#000000" font-family="sans-serif" font-size="13" lengthAdjust="spacing" textLength="4" x="112" y="523.7066">&#160;</text><text fill="#000000" font-family="sans-serif" font-size="13" lengthAdjust="spacing" textLength="46" x="116" y="523.7066">actions</text><text fill="#000000" font-family="sans-serif" font-size="13" lengthAdjust="spacing" textLength="4" x="162" y="523.7066">&#160;</text><text fill="#000000" font-family="sans-serif" font-size="13" lengthAdjust="spacing" textLength="19" x="166" y="523.7066">are</text><text fill="#000000" font-family="sans-serif" font-size="13" lengthAdjust="spacing" textLength="57" x="23.5" y="539.0172">executed</text><text fill="#000000" font-family="sans-serif" font-size="13" lengthAdjust="spacing" textLength="4" x="80.5" y="539.0172">&#160;</text><text fill="#000000" font-family="sans-serif" font-size="13" lengthAdjust="spacing" textLength="12" x="84.5" y="539.0172">in</text><text fill="#000000" font-family="sans-serif" font-size="13" lengthAdjust="spacing" textLength="4" x="96.5" y="539.0172">&#160;</text><text fill="#000000" font-family="sans-serif" font-size="13" lengthAdjust="spacing" textLength="45" x="100.5" y="539.0172">reverse</text><text fill="#000000" font-family="sans-serif" font-size="13" lengthAdjust="spacing" textLength="4" x="145.5" y="539.0172">&#160;</text><text fill="#000000" font-family="sans-serif" font-size="13" lengthAdjust="spacing" textLength="33" x="149.5" y="539.0172">order</text><text fill="#000000" font-family="sans-serif" font-size="13" lengthAdjust="spacing" textLength="13" x="12" y="554.3277">to</text><text fill="#000000" font-family="sans-serif" font-size="13" lengthAdjust="spacing" textLength="4" x="25" y="554.3277">&#160;</text><text fill="#000000" font-family="sans-serif" font-size="13" lengthAdjust="spacing" textLength="55" x="29" y="554.3277">maintain</text><text fill="#000000" font-family="sans-serif" font-size="13" lengthAdjust="spacing" textLength="4" x="84" y="554.3277">&#160;</text><text fill="#000000" font-family="sans-serif" font-size="13" lengthAdjust="spacing" textLength="27" x="88" y="554.3277">data</text><text fill="#000000" font-family="sans-serif" font-size="13" lengthAdjust="spacing" textLength="4" x="115" y="554.3277">&#160;</text><text fill="#000000" font-family="sans-serif" font-size="13" lengthAdjust="spacing" textLength="75" x="119" y="554.3277">consistency</text></g><!--link SagaOrchestrator to MessageQueue--><g id="link_SagaOrchestrator_MessageQueue"><path codeLine="43" d="M661.94,150.1783 C686.16,163.7983 707.81,177.8183 716.5,188.4483 C738.21,214.9883 748.1909,246.7733 753.8309,275.1633 " fill="none" id="SagaOrchestrator-to-MessageQueue" style="stroke:#666666;stroke-width:1.0;"/><polygon fill="#666666" points="755,281.0483,757.1696,271.4414,754.0257,276.1441,749.323,273.0002,755,281.0483" style="stroke:#666666;stroke-width:1.0;"/><text fill="#666666" font-family="sans-serif" font-size="12" lengthAdjust="spacing" textLength="28" x="742.52" y="201.0498">Send</text><text fill="#666666" font-family="sans-serif" font-size="12" lengthAdjust="spacing" textLength="4" x="770.52" y="201.0498">&#160;</text><text fill="#666666" font-family="sans-serif" font-size="12" lengthAdjust="spacing" textLength="59" x="774.52" y="201.0498">Command</text><text fill="#666666" font-family="sans-serif" font-size="12" lengthAdjust="spacing" textLength="30" x="735.52" y="215.1827">[Start</text><text fill="#666666" font-family="sans-serif" font-size="12" lengthAdjust="spacing" textLength="4" x="765.52" y="215.1827">&#160;</text><text fill="#666666" font-family="sans-serif" font-size="12" lengthAdjust="spacing" textLength="71" x="769.52" y="215.1827">Transaction]</text></g><!--link MessageQueue to SagaOrchestrator--><g id="link_MessageQueue_SagaOrchestrator"><path codeLine="50" d="M702.19,281.0783 C679.11,263.5583 653.39,241.6883 633.5,218.4483 C618.23,200.5983 607.4707,184.046 596.5407,164.166 " fill="none" id="MessageQueue-to-SagaOrchestrator" style="stroke:#666666;stroke-width:1.0;"/><polygon fill="#666666" points="593.65,158.9083,594.4809,168.722,596.0589,163.2897,601.4912,164.8678,593.65,158.9083" style="stroke:#666666;stroke-width:1.0;"/><text fill="#666666" font-family="sans-serif" font-size="12" lengthAdjust="spacing" textLength="38" x="634.5" y="208.0498">Failure</text><text fill="#666666" font-family="sans-serif" font-size="12" lengthAdjust="spacing" textLength="4" x="672.5" y="208.0498">&#160;</text><text fill="#666666" font-family="sans-serif" font-size="12" lengthAdjust="spacing" textLength="31" x="676.5" y="208.0498">Event</text></g><!--link MessageQueue to ServiceA--><g id="link_MessageQueue_ServiceA"><path codeLine="44" d="M840.69,327.1883 C922.31,335.2883 1048.71,358.5783 1134.5,425.3783 C1154,440.5583 1165.7503,458.4023 1175.5803,479.4423 " fill="none" id="MessageQueue-to-ServiceA" style="stroke:#666666;stroke-width:1.0;"/><polygon fill="#666666" points="1178.12,484.8783,1177.9344,475.0312,1176.0036,480.3483,1170.6864,478.4175,1178.12,484.8783" style="stroke:#666666;stroke-width:1.0;"/><text fill="#666666" font-family="sans-serif" font-size="12" lengthAdjust="spacing" textLength="44" x="1162.41" y="437.9798">Process</text><text fill="#666666" font-family="sans-serif" font-size="12" lengthAdjust="spacing" textLength="4" x="1206.41" y="437.9798">&#160;</text><text fill="#666666" font-family="sans-serif" font-size="12" lengthAdjust="spacing" textLength="34" x="1210.41" y="437.9798">Order</text><text fill="#666666" font-family="sans-serif" font-size="12" lengthAdjust="spacing" textLength="29" x="1180.91" y="452.1127">[Step</text><text fill="#666666" font-family="sans-serif" font-size="12" lengthAdjust="spacing" textLength="4" x="1209.91" y="452.1127">&#160;</text><text fill="#666666" font-family="sans-serif" font-size="12" lengthAdjust="spacing" textLength="12" x="1213.91" y="452.1127">1]</text></g><!--link ServiceA to MessageQueue--><g id="link_ServiceA_MessageQueue"><path codeLine="45" d="M1245.36,485.0983 C1259.77,465.5283 1268.11,443.3383 1253.5,425.3783 C1202.4,362.5583 973.0837,337.4408 846.9237,328.1108 " fill="none" id="ServiceA-to-MessageQueue" style="stroke:#666666;stroke-width:1.0;"/><polygon fill="#666666" points="840.94,327.6683,849.6205,332.3212,845.9264,328.037,850.2105,324.3429,840.94,327.6683" style="stroke:#666666;stroke-width:1.0;"/><text fill="#666666" font-family="sans-serif" font-size="12" lengthAdjust="spacing" textLength="34" x="1265.64" y="437.9798">Order</text><text fill="#666666" font-family="sans-serif" font-size="12" lengthAdjust="spacing" textLength="4" x="1299.64" y="437.9798">&#160;</text><text fill="#666666" font-family="sans-serif" font-size="12" lengthAdjust="spacing" textLength="44" x="1303.64" y="437.9798">Success</text><text fill="#666666" font-family="sans-serif" font-size="12" lengthAdjust="spacing" textLength="54" x="1262.14" y="452.1127">[Continue</text><text fill="#666666" font-family="sans-serif" font-size="12" lengthAdjust="spacing" textLength="4" x="1316.14" y="452.1127">&#160;</text><text fill="#666666" font-family="sans-serif" font-size="12" lengthAdjust="spacing" textLength="31" x="1320.14" y="452.1127">Saga]</text></g><!--link MessageQueue to ServiceB--><g id="link_MessageQueue_ServiceB"><path codeLine="46" d="M685.89,362.7083 C659.84,375.0283 629.99,387.4283 601.5,395.3783 C546.11,410.8183 382.73,382.4183 344.5,425.3783 C330.38,441.2383 328.5662,458.3012 332.0362,478.9612 " fill="none" id="MessageQueue-to-ServiceB" style="stroke:#666666;stroke-width:1.0;"/><polygon fill="#666666" points="333.03,484.8783,335.484,475.3401,332.2018,479.9473,327.5945,476.6652,333.03,484.8783" style="stroke:#666666;stroke-width:1.0;"/><text fill="#666666" font-family="sans-serif" font-size="12" lengthAdjust="spacing" textLength="46" x="345.5" y="437.9798">Reserve</text><text fill="#666666" font-family="sans-serif" font-size="12" lengthAdjust="spacing" textLength="4" x="391.5" y="437.9798">&#160;</text><text fill="#666666" font-family="sans-serif" font-size="12" lengthAdjust="spacing" textLength="52" x="395.5" y="437.9798">Inventory</text><text fill="#666666" font-family="sans-serif" font-size="12" lengthAdjust="spacing" textLength="29" x="374" y="452.1127">[Step</text><text fill="#666666" font-family="sans-serif" font-size="12" lengthAdjust="spacing" textLength="4" x="403" y="452.1127">&#160;</text><text fill="#666666" font-family="sans-serif" font-size="12" lengthAdjust="spacing" textLength="12" x="407" y="452.1127">2]</text></g><!--link ServiceB to MessageQueue--><g id="link_ServiceB_MessageQueue"><path codeLine="47" d="M453.49,502.5883 C491.01,490.0283 533.01,474.0183 569.5,455.3783 C620.53,429.3083 668.9503,395.0514 706.2003,366.4614 " fill="none" id="ServiceB-to-MessageQueue" style="stroke:#666666;stroke-width:1.0;"/><polygon fill="#666666" points="710.96,362.8083,701.385,365.1149,706.9936,365.8526,706.2559,371.4611,710.96,362.8083" style="stroke:#666666;stroke-width:1.0;"/><text fill="#666666" font-family="sans-serif" font-size="12" lengthAdjust="spacing" textLength="52" x="620.24" y="437.9798">Inventory</text><text fill="#666666" font-family="sans-serif" font-size="12" lengthAdjust="spacing" textLength="4" x="672.24" y="437.9798">&#160;</text><text fill="#666666" font-family="sans-serif" font-size="12" lengthAdjust="spacing" textLength="54" x="676.24" y="437.9798">Reserved</text><text fill="#666666" font-family="sans-serif" font-size="12" lengthAdjust="spacing" textLength="54" x="630.74" y="452.1127">[Continue</text><text fill="#666666" font-family="sans-serif" font-size="12" lengthAdjust="spacing" textLength="4" x="684.74" y="452.1127">&#160;</text><text fill="#666666" font-family="sans-serif" font-size="12" lengthAdjust="spacing" textLength="31" x="688.74" y="452.1127">Saga]</text></g><!--link MessageQueue to ServiceC--><g id="link_MessageQueue_ServiceC"><path codeLine="48" d="M758.73,362.6083 C757.77,388.9283 756.9,424.2083 757.5,455.3783 C757.68,464.9583 757.7861,469.2121 758.1361,479.0221 " fill="none" id="MessageQueue-to-ServiceC" style="stroke:#666666;stroke-width:1.0;"/><polygon fill="#666666" points="758.35,485.0183,762.0266,475.8814,758.1717,480.0215,754.0316,476.1666,758.35,485.0183" style="stroke:#666666;stroke-width:1.0;"/><text fill="#666666" font-family="sans-serif" font-size="12" lengthAdjust="spacing" textLength="44" x="758.5" y="437.9798">Process</text><text fill="#666666" font-family="sans-serif" font-size="12" lengthAdjust="spacing" textLength="4" x="802.5" y="437.9798">&#160;</text><text fill="#666666" font-family="sans-serif" font-size="12" lengthAdjust="spacing" textLength="49" x="806.5" y="437.9798">Payment</text><text fill="#666666" font-family="sans-serif" font-size="12" lengthAdjust="spacing" textLength="29" x="784.5" y="452.1127">[Step</text><text fill="#666666" font-family="sans-serif" font-size="12" lengthAdjust="spacing" textLength="4" x="813.5" y="452.1127">&#160;</text><text fill="#666666" font-family="sans-serif" font-size="12" lengthAdjust="spacing" textLength="12" x="817.5" y="452.1127">3]</text></g><!--link ServiceC to MessageQueue--><g id="link_ServiceC_MessageQueue"><path codeLine="49" d="M861.81,522.7083 C905.18,512.6583 951.87,493.1383 978.5,455.3783 C1020.35,396.0183 924.9332,359.7942 846.7632,340.3842 " fill="none" id="ServiceC-to-MessageQueue" style="stroke:#666666;stroke-width:1.0;"/><polygon fill="#666666" points="840.94,338.9383,848.7108,344.9893,845.7926,340.1432,850.6387,337.2251,840.94,338.9383" style="stroke:#666666;stroke-width:1.0;"/><text fill="#666666" font-family="sans-serif" font-size="12" lengthAdjust="spacing" textLength="49" x="1013.77" y="437.9798">Payment</text><text fill="#666666" font-family="sans-serif" font-size="12" lengthAdjust="spacing" textLength="4" x="1062.77" y="437.9798">&#160;</text><text fill="#666666" font-family="sans-serif" font-size="12" lengthAdjust="spacing" textLength="34" x="1066.77" y="437.9798">Failed</text><text fill="#666666" font-family="sans-serif" font-size="12" lengthAdjust="spacing" textLength="46" x="989.27" y="452.1127">[Trigger</text><text fill="#666666" font-family="sans-serif" font-size="12" lengthAdjust="spacing" textLength="4" x="1035.27" y="452.1127">&#160;</text><text fill="#666666" font-family="sans-serif" font-size="12" lengthAdjust="spacing" textLength="86" x="1039.27" y="452.1127">Compensation]</text></g><!--link SagaOrchestrator to CompensationFlow--><g id="link_SagaOrchestrator_CompensationFlow"><path codeLine="51" d="M508.7,158.8383 C501.62,168.1283 495.23,178.1183 490.5,188.4483 C482.04,206.9083 478.05,222.2792 475.42,242.3392 " fill="none" id="SagaOrchestrator-to-CompensationFlow" style="stroke:#666666;stroke-width:1.0;"/><polygon fill="#666666" points="474.64,248.2883,479.776,239.8846,475.29,243.3307,471.8439,238.8447,474.64,248.2883" style="stroke:#666666;stroke-width:1.0;"/><text fill="#666666" font-family="sans-serif" font-size="12" lengthAdjust="spacing" textLength="45" x="491.5" y="201.0498">Execute</text><text fill="#666666" font-family="sans-serif" font-size="12" lengthAdjust="spacing" textLength="4" x="536.5" y="201.0498">&#160;</text><text fill="#666666" font-family="sans-serif" font-size="12" lengthAdjust="spacing" textLength="49" x="540.5" y="201.0498">Rollback</text><text fill="#666666" font-family="sans-serif" font-size="12" lengthAdjust="spacing" textLength="50" x="494.5" y="215.1827">[Reverse</text><text fill="#666666" font-family="sans-serif" font-size="12" lengthAdjust="spacing" textLength="4" x="544.5" y="215.1827">&#160;</text><text fill="#666666" font-family="sans-serif" font-size="12" lengthAdjust="spacing" textLength="38" x="548.5" y="215.1827">Order]</text></g><!--link CompensationFlow to ServiceC--><g id="link_CompensationFlow_ServiceC"><path codeLine="52" d="M454.51,395.6783 C453.37,416.7583 456.61,438.5883 469.5,455.3783 C492.83,485.7483 578.8425,505.8269 653.2125,518.2869 " fill="none" id="CompensationFlow-to-ServiceC" style="stroke:#666666;stroke-width:1.0;"/><polygon fill="#666666" points="659.13,519.2783,650.9147,513.8461,654.1987,518.4521,649.5928,521.7362,659.13,519.2783" style="stroke:#666666;stroke-width:1.0;"/><text fill="#666666" font-family="sans-serif" font-size="12" lengthAdjust="spacing" textLength="41" x="470.5" y="444.9798">Refund</text><text fill="#666666" font-family="sans-serif" font-size="12" lengthAdjust="spacing" textLength="4" x="511.5" y="444.9798">&#160;</text><text fill="#666666" font-family="sans-serif" font-size="12" lengthAdjust="spacing" textLength="49" x="515.5" y="444.9798">Payment</text></g><!--link CompensationFlow to ServiceB--><g id="link_CompensationFlow_ServiceB"><path codeLine="53" d="M360.03,331.7483 C296.74,343.1583 222.58,368.6983 182.5,425.3783 C174.8,436.2583 175.35,444.1183 182.5,455.3783 C186.79,462.1183 207.8322,473.0779 238.4422,486.9079 " fill="none" id="CompensationFlow-to-ServiceB" style="stroke:#666666;stroke-width:1.0;"/><polygon fill="#666666" points="243.91,489.3783,237.3552,482.0274,239.3535,487.3196,234.0613,489.3178,243.91,489.3783" style="stroke:#666666;stroke-width:1.0;"/><text fill="#666666" font-family="sans-serif" font-size="12" lengthAdjust="spacing" textLength="45" x="183.5" y="444.9798">Release</text><text fill="#666666" font-family="sans-serif" font-size="12" lengthAdjust="spacing" textLength="4" x="228.5" y="444.9798">&#160;</text><text fill="#666666" font-family="sans-serif" font-size="12" lengthAdjust="spacing" textLength="52" x="232.5" y="444.9798">Inventory</text></g><!--link CompensationFlow to ServiceA--><g id="link_CompensationFlow_ServiceA"><path codeLine="54" d="M584.84,370.0383 C610.37,379.4783 637.6,388.5683 663.5,395.3783 C749.16,417.8783 780.83,386.6783 860.5,425.3783 C878.04,433.8883 875.41,445.9883 892.5,455.3783 C959.86,492.3583 1039.4094,511.2352 1102.3794,521.5852 " fill="none" id="CompensationFlow-to-ServiceA" style="stroke:#666666;stroke-width:1.0;"/><polygon fill="#666666" points="1108.3,522.5583,1100.0679,517.1516,1103.3662,521.7473,1098.7704,525.0456,1108.3,522.5583" style="stroke:#666666;stroke-width:1.0;"/><text fill="#666666" font-family="sans-serif" font-size="12" lengthAdjust="spacing" textLength="38" x="893.5" y="444.9798">Cancel</text><text fill="#666666" font-family="sans-serif" font-size="12" lengthAdjust="spacing" textLength="4" x="931.5" y="444.9798">&#160;</text><text fill="#666666" font-family="sans-serif" font-size="12" lengthAdjust="spacing" textLength="34" x="935.5" y="444.9798">Order</text></g><!--link CompensationFlow to GMN26--><g id="link_CompensationFlow_GMN26"><path d="M360.26,340.4283 C298.28,354.7583 223.04,380.3283 168.5,425.3783 C142.81,446.5883 125.87,481.6083 116.5,505.9383 " fill="none" id="CompensationFlow-GMN26" style="stroke:#666666;stroke-width:1.0;stroke-dasharray:7.0,7.0;"/></g><!--SRC=[bLNBRjim4BphArYV4XIEqQGd7mhOYf86oCELtLpQeg2fjKL48bMIiciK_VSk7x8asmdGcxJaxCpkBCbtNB2Ype3anbHwF1efkhrOSvFNorg3Ob8O4EQ2oN9K5LIOkYo6scG5NuxYZyEP3Nrzk1-LL1jG6FeP8u9o0UgYmhrHPBWfWCpfcf8dnNBGHb73fI0pQX0YekXT1Yi4a3I95vF7s_k4i89g7KLjO720bsf0g7PPkq7o9oBaFT66AcFNpixTVqv5La0Akf92GmZ2Rs2rWLYM5GZj98KLZSYveGR6P18lxfwJw6zV2wWDPq0cNeF_cmJkIaa6MZ-f35J8nneAw4Qb_ROqjHwJMV9uVVTu-mhHj4iq3KGAq9uDt8aD-YFLBgHLK03LHs7U_3UCQJ9FqkVa-XNAk4iPzskRqLs9oVQ4grfa_LZb_ngk-FCalJsYUi1KT0taImqrEBeGSO6cIeaUXRZksMdzJMnHDjpFtFMKt1Howx9tepOO6EO6Al816-Bg8A4GShRln7cxxT9kS_qb-mQtEwUTdLTODHKC2k8yRpTDdDYZmHqEF_NB7rilK0-gBh7Ux-BRt4urMIYADJ1Rn8z1r8FO7FjfHFpCs-KLk0IsKaJjDvrYzNhdDRDOHDdpp4NjZ_0Rb5CBJlrGjjrfQ2zRskb9shQV8KVs7znnjzpWOCDyrJB79vaRnsyeBnphGl7r6dlG7PYJv8ScOZARf5P0t6GEJljyD8Y8I_njH59P54lANb162XjGE6dE4EG_WXqse3_1RmE2MmUp_3R63LLtgWTH92IAndxbXiZLKKVmFFIgnqcsvvYO7709EJcsobwtP2lLoyhouQpZaZ_YcYoboOdsinYMLg73ce6WYaiTsMDYTGGrHbPMIzSkX3MtpIzd7qANc1_ZLEy4ovKKijRsfYvhmPah7nUNOBO0makiyFXnnYjyyOuuKQUHfQKzR21cwLr7_kXYCSgrmDkUuVsC5wdtspqCk6OazekxnvHar51K9pJ7PrQmNSl_3m00]--></g></svg>