<?xml version="1.0" encoding="us-ascii" standalone="no"?><svg xmlns="http://www.w3.org/2000/svg" xmlns:xlink="http://www.w3.org/1999/xlink" contentStyleType="text/css" height="1065px" preserveAspectRatio="none" style="width:706px;height:1065px;background:#FFFFFF;" version="1.1" viewBox="0 0 706 1065" width="706px" zoomAndPan="magnify"><defs/><g><text fill="#000000" font-family="sans-serif" font-size="14" font-weight="bold" lengthAdjust="spacing" textLength="163" x="264.75" y="23.5352">Event Sourcing Pattern</text><!--class CommandHandler--><g id="elem_CommandHandler"><rect codeLine="7" fill="#F1F1F1" height="97.4648" id="CommandHandler" rx="2.5" ry="2.5" style="stroke:#181818;stroke-width:0.5;" width="161" x="7" y="44.4883"/><ellipse cx="22" cy="60.4883" fill="#ADD1B2" rx="11" ry="11" style="stroke:#181818;stroke-width:1.0;"/><path d="M24.4731,66.6313 Q23.8921,66.9302 23.2529,67.0796 Q22.6138,67.229 21.9082,67.229 Q19.4014,67.229 18.0815,65.5771 Q16.7617,63.9253 16.7617,60.8042 Q16.7617,57.6748 18.0815,56.0229 Q19.4014,54.3711 21.9082,54.3711 Q22.6138,54.3711 23.2612,54.5205 Q23.9087,54.6699 24.4731,54.9688 L24.4731,57.6914 Q23.8423,57.1104 23.2488,56.8406 Q22.6553,56.5708 22.0244,56.5708 Q20.6797,56.5708 19.9949,57.6375 Q19.3101,58.7041 19.3101,60.8042 Q19.3101,62.896 19.9949,63.9626 Q20.6797,65.0293 22.0244,65.0293 Q22.6553,65.0293 23.2488,64.7595 Q23.8423,64.4897 24.4731,63.9087 Z " fill="#000000"/><text fill="#000000" font-family="sans-serif" font-size="14" lengthAdjust="spacing" textLength="71" x="36" y="65.7793">Command</text><text fill="#000000" font-family="sans-serif" font-size="14" lengthAdjust="spacing" textLength="4" x="107" y="65.7793">&#160;</text><text fill="#000000" font-family="sans-serif" font-size="14" lengthAdjust="spacing" textLength="54" x="111" y="65.7793">Handler</text><line style="stroke:#181818;stroke-width:0.5;" x1="8" x2="167" y1="76.4883" y2="76.4883"/><line style="stroke:#181818;stroke-width:0.5;" x1="8" x2="167" y1="84.4883" y2="84.4883"/><ellipse cx="18" cy="98.2324" fill="#84BE84" rx="3" ry="3" style="stroke:#038048;stroke-width:1.0;"/><text fill="#000000" font-family="sans-serif" font-size="14" lengthAdjust="spacing" textLength="128" x="27" y="102.0234">handleCommand()</text><ellipse cx="18" cy="114.7207" fill="#84BE84" rx="3" ry="3" style="stroke:#038048;stroke-width:1.0;"/><text fill="#000000" font-family="sans-serif" font-size="14" lengthAdjust="spacing" textLength="134" x="27" y="118.5117">validateCommand()</text><ellipse cx="18" cy="131.209" fill="#84BE84" rx="3" ry="3" style="stroke:#038048;stroke-width:1.0;"/><text fill="#000000" font-family="sans-serif" font-size="14" lengthAdjust="spacing" textLength="115" x="27" y="135">generateEvents()</text></g><!--class EventStore--><g id="elem_EventStore"><rect codeLine="13" fill="#F1F1F1" height="113.9531" id="EventStore" rx="2.5" ry="2.5" style="stroke:#181818;stroke-width:0.5;" width="160" x="311.5" y="231.9483"/><ellipse cx="349.45" cy="247.9483" fill="#ADD1B2" rx="11" ry="11" style="stroke:#181818;stroke-width:1.0;"/><path d="M351.9231,254.0913 Q351.3421,254.3902 350.7029,254.5396 Q350.0638,254.689 349.3582,254.689 Q346.8514,254.689 345.5315,253.0371 Q344.2117,251.3853 344.2117,248.2642 Q344.2117,245.1348 345.5315,243.4829 Q346.8514,241.8311 349.3582,241.8311 Q350.0638,241.8311 350.7112,241.9805 Q351.3587,242.1299 351.9231,242.4288 L351.9231,245.1514 Q351.2923,244.5704 350.6988,244.3006 Q350.1053,244.0308 349.4744,244.0308 Q348.1297,244.0308 347.4449,245.0975 Q346.7601,246.1641 346.7601,248.2642 Q346.7601,250.356 347.4449,251.4226 Q348.1297,252.4893 349.4744,252.4893 Q350.1053,252.4893 350.6988,252.2195 Q351.2923,251.9497 351.9231,251.3687 Z " fill="#000000"/><text fill="#000000" font-family="sans-serif" font-size="14" lengthAdjust="spacing" textLength="37" x="368.55" y="253.2393">Event</text><text fill="#000000" font-family="sans-serif" font-size="14" lengthAdjust="spacing" textLength="4" x="405.55" y="253.2393">&#160;</text><text fill="#000000" font-family="sans-serif" font-size="14" lengthAdjust="spacing" textLength="36" x="409.55" y="253.2393">Store</text><line style="stroke:#181818;stroke-width:0.5;" x1="312.5" x2="470.5" y1="263.9483" y2="263.9483"/><ellipse cx="322.5" cy="277.6924" fill="none" rx="3" ry="3" style="stroke:#038048;stroke-width:1.0;"/><text fill="#000000" font-family="sans-serif" font-size="14" lengthAdjust="spacing" textLength="89" x="331.5" y="281.4834">eventStream:</text><text fill="#000000" font-family="sans-serif" font-size="14" lengthAdjust="spacing" textLength="4" x="420.5" y="281.4834">&#160;</text><text fill="#000000" font-family="sans-serif" font-size="14" lengthAdjust="spacing" textLength="10" x="424.5" y="281.4834">[]</text><ellipse cx="322.5" cy="294.1807" fill="none" rx="3" ry="3" style="stroke:#038048;stroke-width:1.0;"/><text fill="#000000" font-family="sans-serif" font-size="14" lengthAdjust="spacing" textLength="102" x="331.5" y="297.9717">immutableLog:</text><text fill="#000000" font-family="sans-serif" font-size="14" lengthAdjust="spacing" textLength="4" x="433.5" y="297.9717">&#160;</text><text fill="#000000" font-family="sans-serif" font-size="14" lengthAdjust="spacing" textLength="28" x="437.5" y="297.9717">true</text><line style="stroke:#181818;stroke-width:0.5;" x1="312.5" x2="470.5" y1="304.9248" y2="304.9248"/><ellipse cx="322.5" cy="318.669" fill="#84BE84" rx="3" ry="3" style="stroke:#038048;stroke-width:1.0;"/><text fill="#000000" font-family="sans-serif" font-size="14" lengthAdjust="spacing" textLength="99" x="331.5" y="322.46">appendEvent()</text><ellipse cx="322.5" cy="335.1573" fill="#84BE84" rx="3" ry="3" style="stroke:#038048;stroke-width:1.0;"/><text fill="#000000" font-family="sans-serif" font-size="14" lengthAdjust="spacing" textLength="76" x="331.5" y="338.9483">getEvents()</text></g><!--class EventStream--><g id="elem_EventStream"><rect codeLine="20" fill="#F1F1F1" height="113.9531" id="EventStream" rx="2.5" ry="2.5" style="stroke:#181818;stroke-width:0.5;" width="183" x="300" y="435.9083"/><ellipse cx="342.9" cy="451.9083" fill="#ADD1B2" rx="11" ry="11" style="stroke:#181818;stroke-width:1.0;"/><path d="M345.3731,458.0513 Q344.7921,458.3502 344.1529,458.4996 Q343.5138,458.649 342.8082,458.649 Q340.3014,458.649 338.9815,456.9971 Q337.6617,455.3453 337.6617,452.2242 Q337.6617,449.0948 338.9815,447.4429 Q340.3014,445.7911 342.8082,445.7911 Q343.5138,445.7911 344.1612,445.9405 Q344.8087,446.0899 345.3731,446.3888 L345.3731,449.1114 Q344.7423,448.5304 344.1488,448.2606 Q343.5553,447.9908 342.9244,447.9908 Q341.5797,447.9908 340.8949,449.0575 Q340.2101,450.1241 340.2101,452.2242 Q340.2101,454.316 340.8949,455.3826 Q341.5797,456.4493 342.9244,456.4493 Q343.5553,456.4493 344.1488,456.1795 Q344.7423,455.9097 345.3731,455.3287 Z " fill="#000000"/><text fill="#000000" font-family="sans-serif" font-size="14" lengthAdjust="spacing" textLength="37" x="363.1" y="457.1993">Event</text><text fill="#000000" font-family="sans-serif" font-size="14" lengthAdjust="spacing" textLength="4" x="400.1" y="457.1993">&#160;</text><text fill="#000000" font-family="sans-serif" font-size="14" lengthAdjust="spacing" textLength="48" x="404.1" y="457.1993">Stream</text><line style="stroke:#181818;stroke-width:0.5;" x1="301" x2="482" y1="467.9083" y2="467.9083"/><line style="stroke:#181818;stroke-width:0.5;" x1="301" x2="482" y1="475.9083" y2="475.9083"/><ellipse cx="311" cy="489.6524" fill="#84BE84" rx="3" ry="3" style="stroke:#038048;stroke-width:1.0;"/><text fill="#000000" font-family="sans-serif" font-size="14" lengthAdjust="spacing" textLength="94" x="320" y="493.4434">OrderCreated</text><text fill="#000000" font-family="sans-serif" font-size="14" lengthAdjust="spacing" textLength="4" x="414" y="493.4434">&#160;</text><text fill="#000000" font-family="sans-serif" font-size="14" lengthAdjust="spacing" textLength="26" x="418" y="493.4434">(v1)</text><ellipse cx="311" cy="506.1407" fill="#84BE84" rx="3" ry="3" style="stroke:#038048;stroke-width:1.0;"/><text fill="#000000" font-family="sans-serif" font-size="14" lengthAdjust="spacing" textLength="126" x="320" y="509.9317">InventoryReserved</text><text fill="#000000" font-family="sans-serif" font-size="14" lengthAdjust="spacing" textLength="4" x="446" y="509.9317">&#160;</text><text fill="#000000" font-family="sans-serif" font-size="14" lengthAdjust="spacing" textLength="26" x="450" y="509.9317">(v2)</text><ellipse cx="311" cy="522.629" fill="#84BE84" rx="3" ry="3" style="stroke:#038048;stroke-width:1.0;"/><text fill="#000000" font-family="sans-serif" font-size="14" lengthAdjust="spacing" textLength="127" x="320" y="526.42">PaymentProcessed</text><text fill="#000000" font-family="sans-serif" font-size="14" lengthAdjust="spacing" textLength="4" x="447" y="526.42">&#160;</text><text fill="#000000" font-family="sans-serif" font-size="14" lengthAdjust="spacing" textLength="26" x="451" y="526.42">(v3)</text><ellipse cx="311" cy="539.1173" fill="#84BE84" rx="3" ry="3" style="stroke:#038048;stroke-width:1.0;"/><text fill="#000000" font-family="sans-serif" font-size="14" lengthAdjust="spacing" textLength="96" x="320" y="542.9083">OrderShipped</text><text fill="#000000" font-family="sans-serif" font-size="14" lengthAdjust="spacing" textLength="4" x="416" y="542.9083">&#160;</text><text fill="#000000" font-family="sans-serif" font-size="14" lengthAdjust="spacing" textLength="26" x="420" y="542.9083">(v4)</text></g><!--class ProjectionA--><g id="elem_ProjectionA"><rect codeLine="27" fill="#F1F1F1" height="113.9531" id="ProjectionA" rx="2.5" ry="2.5" style="stroke:#181818;stroke-width:0.5;" width="167" x="94" y="639.8583"/><ellipse cx="109" cy="655.8583" fill="#ADD1B2" rx="11" ry="11" style="stroke:#181818;stroke-width:1.0;"/><path d="M111.4731,662.0013 Q110.8921,662.3002 110.2529,662.4496 Q109.6138,662.599 108.9082,662.599 Q106.4014,662.599 105.0815,660.9471 Q103.7617,659.2953 103.7617,656.1742 Q103.7617,653.0448 105.0815,651.3929 Q106.4014,649.7411 108.9082,649.7411 Q109.6138,649.7411 110.2612,649.8905 Q110.9087,650.0399 111.4731,650.3388 L111.4731,653.0614 Q110.8423,652.4804 110.2488,652.2106 Q109.6553,651.9408 109.0244,651.9408 Q107.6797,651.9408 106.9949,653.0075 Q106.3101,654.0741 106.3101,656.1742 Q106.3101,658.266 106.9949,659.3326 Q107.6797,660.3993 109.0244,660.3993 Q109.6553,660.3993 110.2488,660.1295 Q110.8423,659.8597 111.4731,659.2787 Z " fill="#000000"/><text fill="#000000" font-family="sans-serif" font-size="14" lengthAdjust="spacing" textLength="69" x="123" y="661.1493">Projection</text><text fill="#000000" font-family="sans-serif" font-size="14" lengthAdjust="spacing" textLength="4" x="192" y="661.1493">&#160;</text><text fill="#000000" font-family="sans-serif" font-size="14" lengthAdjust="spacing" textLength="48" x="196" y="661.1493">Service</text><text fill="#000000" font-family="sans-serif" font-size="14" lengthAdjust="spacing" textLength="4" x="244" y="661.1493">&#160;</text><text fill="#000000" font-family="sans-serif" font-size="14" lengthAdjust="spacing" textLength="10" x="248" y="661.1493">A</text><line style="stroke:#181818;stroke-width:0.5;" x1="95" x2="260" y1="671.8583" y2="671.8583"/><ellipse cx="105" cy="693.8466" fill="none" rx="3" ry="3" style="stroke:#038048;stroke-width:1.0;"/><text fill="#000000" font-family="sans-serif" font-size="14" lengthAdjust="spacing" textLength="88" x="114" y="689.3934">currentState:</text><text fill="#000000" font-family="sans-serif" font-size="14" lengthAdjust="spacing" textLength="110" x="114" y="705.8817">ORDER_SHIPPED</text><line style="stroke:#181818;stroke-width:0.5;" x1="95" x2="260" y1="712.8348" y2="712.8348"/><ellipse cx="105" cy="726.579" fill="#84BE84" rx="3" ry="3" style="stroke:#038048;stroke-width:1.0;"/><text fill="#000000" font-family="sans-serif" font-size="14" lengthAdjust="spacing" textLength="96" x="114" y="730.37">replayEvents()</text><ellipse cx="105" cy="743.0673" fill="#84BE84" rx="3" ry="3" style="stroke:#038048;stroke-width:1.0;"/><text fill="#000000" font-family="sans-serif" font-size="14" lengthAdjust="spacing" textLength="117" x="114" y="746.8583">buildOrderView()</text></g><!--class ProjectionB--><g id="elem_ProjectionB"><rect codeLine="33" fill="#F1F1F1" height="113.9531" id="ProjectionB" rx="2.5" ry="2.5" style="stroke:#181818;stroke-width:0.5;" width="177" x="518" y="639.8583"/><ellipse cx="538.4" cy="655.8583" fill="#ADD1B2" rx="11" ry="11" style="stroke:#181818;stroke-width:1.0;"/><path d="M540.8731,662.0013 Q540.2921,662.3002 539.6529,662.4496 Q539.0138,662.599 538.3082,662.599 Q535.8014,662.599 534.4815,660.9471 Q533.1617,659.2953 533.1617,656.1742 Q533.1617,653.0448 534.4815,651.3929 Q535.8014,649.7411 538.3082,649.7411 Q539.0138,649.7411 539.6612,649.8905 Q540.3087,650.0399 540.8731,650.3388 L540.8731,653.0614 Q540.2423,652.4804 539.6488,652.2106 Q539.0553,651.9408 538.4244,651.9408 Q537.0797,651.9408 536.3949,653.0075 Q535.7101,654.0741 535.7101,656.1742 Q535.7101,658.266 536.3949,659.3326 Q537.0797,660.3993 538.4244,660.3993 Q539.0553,660.3993 539.6488,660.1295 Q540.2423,659.8597 540.8731,659.2787 Z " fill="#000000"/><text fill="#000000" font-family="sans-serif" font-size="14" lengthAdjust="spacing" textLength="69" x="553.6" y="661.1493">Projection</text><text fill="#000000" font-family="sans-serif" font-size="14" lengthAdjust="spacing" textLength="4" x="622.6" y="661.1493">&#160;</text><text fill="#000000" font-family="sans-serif" font-size="14" lengthAdjust="spacing" textLength="48" x="626.6" y="661.1493">Service</text><text fill="#000000" font-family="sans-serif" font-size="14" lengthAdjust="spacing" textLength="4" x="674.6" y="661.1493">&#160;</text><text fill="#000000" font-family="sans-serif" font-size="14" lengthAdjust="spacing" textLength="8" x="678.6" y="661.1493">B</text><line style="stroke:#181818;stroke-width:0.5;" x1="519" x2="694" y1="671.8583" y2="671.8583"/><ellipse cx="529" cy="693.8466" fill="none" rx="3" ry="3" style="stroke:#038048;stroke-width:1.0;"/><text fill="#000000" font-family="sans-serif" font-size="14" lengthAdjust="spacing" textLength="88" x="538" y="689.3934">currentState:</text><text fill="#000000" font-family="sans-serif" font-size="14" lengthAdjust="spacing" textLength="151" x="538" y="705.8817">INVENTORY_UPDATED</text><line style="stroke:#181818;stroke-width:0.5;" x1="519" x2="694" y1="712.8348" y2="712.8348"/><ellipse cx="529" cy="726.579" fill="#84BE84" rx="3" ry="3" style="stroke:#038048;stroke-width:1.0;"/><text fill="#000000" font-family="sans-serif" font-size="14" lengthAdjust="spacing" textLength="96" x="538" y="730.37">replayEvents()</text><ellipse cx="529" cy="743.0673" fill="#84BE84" rx="3" ry="3" style="stroke:#038048;stroke-width:1.0;"/><text fill="#000000" font-family="sans-serif" font-size="14" lengthAdjust="spacing" textLength="141" x="538" y="746.8583">buildInventoryView()</text></g><!--class ReadModelA--><g id="elem_ReadModelA"><rect codeLine="39" fill="#F1F1F1" height="97.4648" id="ReadModelA" rx="2.5" ry="2.5" style="stroke:#181818;stroke-width:0.5;" width="171" x="92" y="843.8083"/><ellipse cx="127.25" cy="859.8083" fill="#ADD1B2" rx="11" ry="11" style="stroke:#181818;stroke-width:1.0;"/><path d="M129.7231,865.9513 Q129.1421,866.2502 128.5029,866.3996 Q127.8638,866.549 127.1582,866.549 Q124.6514,866.549 123.3315,864.8971 Q122.0117,863.2453 122.0117,860.1242 Q122.0117,856.9948 123.3315,855.3429 Q124.6514,853.6911 127.1582,853.6911 Q127.8638,853.6911 128.5112,853.8405 Q129.1587,853.9899 129.7231,854.2888 L129.7231,857.0114 Q129.0923,856.4304 128.4988,856.1606 Q127.9053,855.8908 127.2744,855.8908 Q125.9297,855.8908 125.2449,856.9575 Q124.5601,858.0241 124.5601,860.1242 Q124.5601,862.216 125.2449,863.2826 Q125.9297,864.3493 127.2744,864.3493 Q127.9053,864.3493 128.4988,864.0795 Q129.0923,863.8097 129.7231,863.2287 Z " fill="#000000"/><text fill="#000000" font-family="sans-serif" font-size="14" lengthAdjust="spacing" textLength="34" x="145.75" y="865.0993">Read</text><text fill="#000000" font-family="sans-serif" font-size="14" lengthAdjust="spacing" textLength="4" x="179.75" y="865.0993">&#160;</text><text fill="#000000" font-family="sans-serif" font-size="14" lengthAdjust="spacing" textLength="42" x="183.75" y="865.0993">Model</text><text fill="#000000" font-family="sans-serif" font-size="14" lengthAdjust="spacing" textLength="4" x="225.75" y="865.0993">&#160;</text><text fill="#000000" font-family="sans-serif" font-size="14" lengthAdjust="spacing" textLength="10" x="229.75" y="865.0993">A</text><line style="stroke:#181818;stroke-width:0.5;" x1="93" x2="262" y1="875.8083" y2="875.8083"/><ellipse cx="103" cy="889.5524" fill="none" rx="3" ry="3" style="stroke:#038048;stroke-width:1.0;"/><text fill="#000000" font-family="sans-serif" font-size="14" lengthAdjust="spacing" textLength="102" x="112" y="893.3434">orderSummary</text><ellipse cx="103" cy="906.0407" fill="none" rx="3" ry="3" style="stroke:#038048;stroke-width:1.0;"/><text fill="#000000" font-family="sans-serif" font-size="14" lengthAdjust="spacing" textLength="86" x="112" y="909.8317">orderHistory</text><ellipse cx="103" cy="922.529" fill="none" rx="3" ry="3" style="stroke:#038048;stroke-width:1.0;"/><text fill="#000000" font-family="sans-serif" font-size="14" lengthAdjust="spacing" textLength="145" x="112" y="926.32">optimizedForQueries</text><line style="stroke:#181818;stroke-width:0.5;" x1="93" x2="262" y1="933.2731" y2="933.2731"/></g><!--class ReadModelB--><g id="elem_ReadModelB"><rect codeLine="45" fill="#F1F1F1" height="97.4648" id="ReadModelB" rx="2.5" ry="2.5" style="stroke:#181818;stroke-width:0.5;" width="171" x="521" y="843.8083"/><ellipse cx="557.15" cy="859.8083" fill="#ADD1B2" rx="11" ry="11" style="stroke:#181818;stroke-width:1.0;"/><path d="M559.6231,865.9513 Q559.0421,866.2502 558.4029,866.3996 Q557.7638,866.549 557.0582,866.549 Q554.5514,866.549 553.2315,864.8971 Q551.9117,863.2453 551.9117,860.1242 Q551.9117,856.9948 553.2315,855.3429 Q554.5514,853.6911 557.0582,853.6911 Q557.7638,853.6911 558.4112,853.8405 Q559.0587,853.9899 559.6231,854.2888 L559.6231,857.0114 Q558.9923,856.4304 558.3988,856.1606 Q557.8053,855.8908 557.1744,855.8908 Q555.8297,855.8908 555.1449,856.9575 Q554.4601,858.0241 554.4601,860.1242 Q554.4601,862.216 555.1449,863.2826 Q555.8297,864.3493 557.1744,864.3493 Q557.8053,864.3493 558.3988,864.0795 Q558.9923,863.8097 559.6231,863.2287 Z " fill="#000000"/><text fill="#000000" font-family="sans-serif" font-size="14" lengthAdjust="spacing" textLength="34" x="575.85" y="865.0993">Read</text><text fill="#000000" font-family="sans-serif" font-size="14" lengthAdjust="spacing" textLength="4" x="609.85" y="865.0993">&#160;</text><text fill="#000000" font-family="sans-serif" font-size="14" lengthAdjust="spacing" textLength="42" x="613.85" y="865.0993">Model</text><text fill="#000000" font-family="sans-serif" font-size="14" lengthAdjust="spacing" textLength="4" x="655.85" y="865.0993">&#160;</text><text fill="#000000" font-family="sans-serif" font-size="14" lengthAdjust="spacing" textLength="8" x="659.85" y="865.0993">B</text><line style="stroke:#181818;stroke-width:0.5;" x1="522" x2="691" y1="875.8083" y2="875.8083"/><ellipse cx="532" cy="889.5524" fill="none" rx="3" ry="3" style="stroke:#038048;stroke-width:1.0;"/><text fill="#000000" font-family="sans-serif" font-size="14" lengthAdjust="spacing" textLength="105" x="541" y="893.3434">inventoryLevels</text><ellipse cx="532" cy="906.0407" fill="none" rx="3" ry="3" style="stroke:#038048;stroke-width:1.0;"/><text fill="#000000" font-family="sans-serif" font-size="14" lengthAdjust="spacing" textLength="84" x="541" y="909.8317">reservations</text><ellipse cx="532" cy="922.529" fill="none" rx="3" ry="3" style="stroke:#038048;stroke-width:1.0;"/><text fill="#000000" font-family="sans-serif" font-size="14" lengthAdjust="spacing" textLength="145" x="541" y="926.32">optimizedForReports</text><line style="stroke:#181818;stroke-width:0.5;" x1="522" x2="691" y1="933.2731" y2="933.2731"/></g><g id="elem_GMN15"><path d="M203,65.2583 L203,89.2183 L168.08,93.2183 L203,97.2183 L203,121.1899 A0,0 0 0 0 203,121.1899 L404,121.1899 A0,0 0 0 0 404,121.1899 L404,75.2583 L394,65.2583 L203,65.2583 A0,0 0 0 0 203,65.2583 " fill="#FEFFDD" style="stroke:#181818;stroke-width:0.5;"/><path d="M394,65.2583 L394,75.2583 L404,75.2583 L394,65.2583 " fill="#FEFFDD" style="stroke:#181818;stroke-width:0.5;"/><text fill="#000000" font-family="sans-serif" font-size="13" lengthAdjust="spacing" textLength="71" x="209" y="82.8266">Commands</text><text fill="#000000" font-family="sans-serif" font-size="13" lengthAdjust="spacing" textLength="4" x="280" y="82.8266">&#160;</text><text fill="#000000" font-family="sans-serif" font-size="13" lengthAdjust="spacing" textLength="54" x="284" y="82.8266">generate</text><text fill="#000000" font-family="sans-serif" font-size="13" lengthAdjust="spacing" textLength="4" x="338" y="82.8266">&#160;</text><text fill="#000000" font-family="sans-serif" font-size="13" lengthAdjust="spacing" textLength="47" x="342" y="82.8266">domain</text><text fill="#000000" font-family="sans-serif" font-size="13" lengthAdjust="spacing" textLength="41" x="232.5" y="98.1372">events</text><text fill="#000000" font-family="sans-serif" font-size="13" lengthAdjust="spacing" textLength="4" x="273.5" y="98.1372">&#160;</text><text fill="#000000" font-family="sans-serif" font-size="13" lengthAdjust="spacing" textLength="25" x="277.5" y="98.1372">that</text><text fill="#000000" font-family="sans-serif" font-size="13" lengthAdjust="spacing" textLength="4" x="302.5" y="98.1372">&#160;</text><text fill="#000000" font-family="sans-serif" font-size="13" lengthAdjust="spacing" textLength="59" x="306.5" y="98.1372">represent</text><text fill="#000000" font-family="sans-serif" font-size="13" lengthAdjust="spacing" textLength="31" x="211" y="113.4477">state</text><text fill="#000000" font-family="sans-serif" font-size="13" lengthAdjust="spacing" textLength="4" x="242" y="113.4477">&#160;</text><text fill="#000000" font-family="sans-serif" font-size="13" lengthAdjust="spacing" textLength="52" x="246" y="113.4477">changes</text><text fill="#000000" font-family="sans-serif" font-size="13" lengthAdjust="spacing" textLength="4" x="298" y="113.4477">&#160;</text><text fill="#000000" font-family="sans-serif" font-size="13" lengthAdjust="spacing" textLength="12" x="302" y="113.4477">in</text><text fill="#000000" font-family="sans-serif" font-size="13" lengthAdjust="spacing" textLength="4" x="314" y="113.4477">&#160;</text><text fill="#000000" font-family="sans-serif" font-size="13" lengthAdjust="spacing" textLength="20" x="318" y="113.4477">the</text><text fill="#000000" font-family="sans-serif" font-size="13" lengthAdjust="spacing" textLength="4" x="338" y="113.4477">&#160;</text><text fill="#000000" font-family="sans-serif" font-size="13" lengthAdjust="spacing" textLength="45" x="342" y="113.4477">system</text></g><g id="elem_GMN18"><path d="M439,57.5983 L439,128.8405 A0,0 0 0 0 439,128.8405 L502.97,128.8405 L432.61,231.4583 L510.97,128.8405 L626,128.8405 A0,0 0 0 0 626,128.8405 L626,67.5983 L616,57.5983 L439,57.5983 A0,0 0 0 0 439,57.5983 " fill="#FEFFDD" style="stroke:#181818;stroke-width:0.5;"/><path d="M616,57.5983 L616,67.5983 L626,67.5983 L616,57.5983 " fill="#FEFFDD" style="stroke:#181818;stroke-width:0.5;"/><text fill="#000000" font-family="sans-serif" font-size="13" lengthAdjust="spacing" textLength="34" x="452.5" y="75.1666">Event</text><text fill="#000000" font-family="sans-serif" font-size="13" lengthAdjust="spacing" textLength="4" x="486.5" y="75.1666">&#160;</text><text fill="#000000" font-family="sans-serif" font-size="13" lengthAdjust="spacing" textLength="32" x="490.5" y="75.1666">store</text><text fill="#000000" font-family="sans-serif" font-size="13" lengthAdjust="spacing" textLength="4" x="522.5" y="75.1666">&#160;</text><text fill="#000000" font-family="sans-serif" font-size="13" lengthAdjust="spacing" textLength="11" x="526.5" y="75.1666">is</text><text fill="#000000" font-family="sans-serif" font-size="13" lengthAdjust="spacing" textLength="4" x="537.5" y="75.1666">&#160;</text><text fill="#000000" font-family="sans-serif" font-size="13" lengthAdjust="spacing" textLength="20" x="541.5" y="75.1666">the</text><text fill="#000000" font-family="sans-serif" font-size="13" lengthAdjust="spacing" textLength="4" x="561.5" y="75.1666">&#160;</text><text fill="#000000" font-family="sans-serif" font-size="13" lengthAdjust="spacing" textLength="38" x="565.5" y="75.1666">single</text><text fill="#000000" font-family="sans-serif" font-size="13" lengthAdjust="spacing" textLength="42" x="454.5" y="90.4772">source</text><text fill="#000000" font-family="sans-serif" font-size="13" lengthAdjust="spacing" textLength="4" x="496.5" y="90.4772">&#160;</text><text fill="#000000" font-family="sans-serif" font-size="13" lengthAdjust="spacing" textLength="13" x="500.5" y="90.4772">of</text><text fill="#000000" font-family="sans-serif" font-size="13" lengthAdjust="spacing" textLength="4" x="513.5" y="90.4772">&#160;</text><text fill="#000000" font-family="sans-serif" font-size="13" lengthAdjust="spacing" textLength="35" x="517.5" y="90.4772">truth,</text><text fill="#000000" font-family="sans-serif" font-size="13" lengthAdjust="spacing" textLength="4" x="552.5" y="90.4772">&#160;</text><text fill="#000000" font-family="sans-serif" font-size="13" lengthAdjust="spacing" textLength="45" x="556.5" y="90.4772">storing</text><text fill="#000000" font-family="sans-serif" font-size="13" lengthAdjust="spacing" textLength="15" x="445" y="105.7877">all</text><text fill="#000000" font-family="sans-serif" font-size="13" lengthAdjust="spacing" textLength="4" x="460" y="105.7877">&#160;</text><text fill="#000000" font-family="sans-serif" font-size="13" lengthAdjust="spacing" textLength="41" x="464" y="105.7877">events</text><text fill="#000000" font-family="sans-serif" font-size="13" lengthAdjust="spacing" textLength="4" x="505" y="105.7877">&#160;</text><text fill="#000000" font-family="sans-serif" font-size="13" lengthAdjust="spacing" textLength="12" x="509" y="105.7877">in</text><text fill="#000000" font-family="sans-serif" font-size="13" lengthAdjust="spacing" textLength="4" x="521" y="105.7877">&#160;</text><text fill="#000000" font-family="sans-serif" font-size="13" lengthAdjust="spacing" textLength="86" x="525" y="105.7877">chronological</text><text fill="#000000" font-family="sans-serif" font-size="13" lengthAdjust="spacing" textLength="33" x="455" y="121.0983">order</text><text fill="#000000" font-family="sans-serif" font-size="13" lengthAdjust="spacing" textLength="4" x="488" y="121.0983">&#160;</text><text fill="#000000" font-family="sans-serif" font-size="13" lengthAdjust="spacing" textLength="14" x="492" y="121.0983">as</text><text fill="#000000" font-family="sans-serif" font-size="13" lengthAdjust="spacing" textLength="4" x="506" y="121.0983">&#160;</text><text fill="#000000" font-family="sans-serif" font-size="13" lengthAdjust="spacing" textLength="67" x="510" y="121.0983">immutable</text><text fill="#000000" font-family="sans-serif" font-size="13" lengthAdjust="spacing" textLength="4" x="577" y="121.0983">&#160;</text><text fill="#000000" font-family="sans-serif" font-size="13" lengthAdjust="spacing" textLength="20" x="581" y="121.0983">log</text></g><g id="elem_GMN21"><path d="M295.5,661.2183 L295.5,692.8383 L261.14,696.8383 L295.5,700.8383 L295.5,732.4605 A0,0 0 0 0 295.5,732.4605 L483.5,732.4605 A0,0 0 0 0 483.5,732.4605 L483.5,671.2183 L473.5,661.2183 L295.5,661.2183 A0,0 0 0 0 295.5,661.2183 " fill="#FEFFDD" style="stroke:#181818;stroke-width:0.5;"/><path d="M473.5,661.2183 L473.5,671.2183 L483.5,671.2183 L473.5,661.2183 " fill="#FEFFDD" style="stroke:#181818;stroke-width:0.5;"/><text fill="#000000" font-family="sans-serif" font-size="13" lengthAdjust="spacing" textLength="63" x="305" y="678.7866">Projection</text><text fill="#000000" font-family="sans-serif" font-size="13" lengthAdjust="spacing" textLength="4" x="368" y="678.7866">&#160;</text><text fill="#000000" font-family="sans-serif" font-size="13" lengthAdjust="spacing" textLength="51" x="372" y="678.7866">services</text><text fill="#000000" font-family="sans-serif" font-size="13" lengthAdjust="spacing" textLength="4" x="423" y="678.7866">&#160;</text><text fill="#000000" font-family="sans-serif" font-size="13" lengthAdjust="spacing" textLength="38" x="427" y="678.7866">replay</text><text fill="#000000" font-family="sans-serif" font-size="13" lengthAdjust="spacing" textLength="41" x="307.5" y="694.0972">events</text><text fill="#000000" font-family="sans-serif" font-size="13" lengthAdjust="spacing" textLength="4" x="348.5" y="694.0972">&#160;</text><text fill="#000000" font-family="sans-serif" font-size="13" lengthAdjust="spacing" textLength="13" x="352.5" y="694.0972">to</text><text fill="#000000" font-family="sans-serif" font-size="13" lengthAdjust="spacing" textLength="4" x="365.5" y="694.0972">&#160;</text><text fill="#000000" font-family="sans-serif" font-size="13" lengthAdjust="spacing" textLength="44" x="369.5" y="694.0972">rebuild</text><text fill="#000000" font-family="sans-serif" font-size="13" lengthAdjust="spacing" textLength="4" x="413.5" y="694.0972">&#160;</text><text fill="#000000" font-family="sans-serif" font-size="13" lengthAdjust="spacing" textLength="45" x="417.5" y="694.0972">current</text><text fill="#000000" font-family="sans-serif" font-size="13" lengthAdjust="spacing" textLength="31" x="301.5" y="709.4077">state</text><text fill="#000000" font-family="sans-serif" font-size="13" lengthAdjust="spacing" textLength="4" x="332.5" y="709.4077">&#160;</text><text fill="#000000" font-family="sans-serif" font-size="13" lengthAdjust="spacing" textLength="23" x="336.5" y="709.4077">and</text><text fill="#000000" font-family="sans-serif" font-size="13" lengthAdjust="spacing" textLength="4" x="359.5" y="709.4077">&#160;</text><text fill="#000000" font-family="sans-serif" font-size="13" lengthAdjust="spacing" textLength="38" x="363.5" y="709.4077">create</text><text fill="#000000" font-family="sans-serif" font-size="13" lengthAdjust="spacing" textLength="4" x="401.5" y="709.4077">&#160;</text><text fill="#000000" font-family="sans-serif" font-size="13" lengthAdjust="spacing" textLength="63" x="405.5" y="709.4077">optimized</text><text fill="#000000" font-family="sans-serif" font-size="13" lengthAdjust="spacing" textLength="27" x="310.5" y="724.7183">read</text><text fill="#000000" font-family="sans-serif" font-size="13" lengthAdjust="spacing" textLength="4" x="337.5" y="724.7183">&#160;</text><text fill="#000000" font-family="sans-serif" font-size="13" lengthAdjust="spacing" textLength="46" x="341.5" y="724.7183">models</text><text fill="#000000" font-family="sans-serif" font-size="13" lengthAdjust="spacing" textLength="4" x="387.5" y="724.7183">&#160;</text><text fill="#000000" font-family="sans-serif" font-size="13" lengthAdjust="spacing" textLength="18" x="391.5" y="724.7183">for</text><text fill="#000000" font-family="sans-serif" font-size="13" lengthAdjust="spacing" textLength="4" x="409.5" y="724.7183">&#160;</text><text fill="#000000" font-family="sans-serif" font-size="13" lengthAdjust="spacing" textLength="46" x="413.5" y="724.7183">queries</text></g><g id="elem_GMN24"><path d="M82.5,1002.2783 L82.5,1058.2099 A0,0 0 0 0 82.5,1058.2099 L272.5,1058.2099 A0,0 0 0 0 272.5,1058.2099 L272.5,1012.2783 L262.5,1002.2783 L181.5,1002.2783 L177.5,941.7683 L173.5,1002.2783 L82.5,1002.2783 A0,0 0 0 0 82.5,1002.2783 " fill="#FEFFDD" style="stroke:#181818;stroke-width:0.5;"/><path d="M262.5,1002.2783 L262.5,1012.2783 L272.5,1012.2783 L262.5,1002.2783 " fill="#FEFFDD" style="stroke:#181818;stroke-width:0.5;"/><text fill="#000000" font-family="sans-serif" font-size="13" lengthAdjust="spacing" textLength="30" x="96.5" y="1019.8466">Read</text><text fill="#000000" font-family="sans-serif" font-size="13" lengthAdjust="spacing" textLength="4" x="126.5" y="1019.8466">&#160;</text><text fill="#000000" font-family="sans-serif" font-size="13" lengthAdjust="spacing" textLength="46" x="130.5" y="1019.8466">models</text><text fill="#000000" font-family="sans-serif" font-size="13" lengthAdjust="spacing" textLength="4" x="176.5" y="1019.8466">&#160;</text><text fill="#000000" font-family="sans-serif" font-size="13" lengthAdjust="spacing" textLength="19" x="180.5" y="1019.8466">are</text><text fill="#000000" font-family="sans-serif" font-size="13" lengthAdjust="spacing" textLength="4" x="199.5" y="1019.8466">&#160;</text><text fill="#000000" font-family="sans-serif" font-size="13" lengthAdjust="spacing" textLength="46" x="203.5" y="1019.8466">derived</text><text fill="#000000" font-family="sans-serif" font-size="13" lengthAdjust="spacing" textLength="30" x="88.5" y="1035.1572">from</text><text fill="#000000" font-family="sans-serif" font-size="13" lengthAdjust="spacing" textLength="4" x="118.5" y="1035.1572">&#160;</text><text fill="#000000" font-family="sans-serif" font-size="13" lengthAdjust="spacing" textLength="41" x="122.5" y="1035.1572">events</text><text fill="#000000" font-family="sans-serif" font-size="13" lengthAdjust="spacing" textLength="4" x="163.5" y="1035.1572">&#160;</text><text fill="#000000" font-family="sans-serif" font-size="13" lengthAdjust="spacing" textLength="23" x="167.5" y="1035.1572">and</text><text fill="#000000" font-family="sans-serif" font-size="13" lengthAdjust="spacing" textLength="4" x="190.5" y="1035.1572">&#160;</text><text fill="#000000" font-family="sans-serif" font-size="13" lengthAdjust="spacing" textLength="63" x="194.5" y="1035.1572">optimized</text><text fill="#000000" font-family="sans-serif" font-size="13" lengthAdjust="spacing" textLength="18" x="90" y="1050.4677">for</text><text fill="#000000" font-family="sans-serif" font-size="13" lengthAdjust="spacing" textLength="4" x="108" y="1050.4677">&#160;</text><text fill="#000000" font-family="sans-serif" font-size="13" lengthAdjust="spacing" textLength="49" x="112" y="1050.4677">specific</text><text fill="#000000" font-family="sans-serif" font-size="13" lengthAdjust="spacing" textLength="4" x="161" y="1050.4677">&#160;</text><text fill="#000000" font-family="sans-serif" font-size="13" lengthAdjust="spacing" textLength="35" x="165" y="1050.4677">query</text><text fill="#000000" font-family="sans-serif" font-size="13" lengthAdjust="spacing" textLength="4" x="200" y="1050.4677">&#160;</text><text fill="#000000" font-family="sans-serif" font-size="13" lengthAdjust="spacing" textLength="52" x="204" y="1050.4677">patterns</text></g><!--link CommandHandler to EventStore--><g id="link_CommandHandler_EventStore"><path codeLine="51" d="M163.04,142.3483 C208.05,171.0383 260.1103,204.2034 305.9703,233.4334 " fill="none" id="CommandHandler-to-EventStore" style="stroke:#666666;stroke-width:1.0;"/><polygon fill="#666666" points="311.03,236.6583,305.5905,228.4478,306.8136,233.9709,301.2906,235.194,311.03,236.6583" style="stroke:#666666;stroke-width:1.0;"/><text fill="#666666" font-family="sans-serif" font-size="12" lengthAdjust="spacing" textLength="46" x="252.62" y="184.5498">Append</text><text fill="#666666" font-family="sans-serif" font-size="12" lengthAdjust="spacing" textLength="4" x="298.62" y="184.5498">&#160;</text><text fill="#666666" font-family="sans-serif" font-size="12" lengthAdjust="spacing" textLength="37" x="302.62" y="184.5498">Events</text><text fill="#666666" font-family="sans-serif" font-size="12" lengthAdjust="spacing" textLength="65" x="249.62" y="198.6827">[Immutable</text><text fill="#666666" font-family="sans-serif" font-size="12" lengthAdjust="spacing" textLength="4" x="314.62" y="198.6827">&#160;</text><text fill="#666666" font-family="sans-serif" font-size="12" lengthAdjust="spacing" textLength="24" x="318.62" y="198.6827">Log]</text></g><!--link EventStore to EventStream--><g id="link_EventStore_EventStream"><path codeLine="52" d="M391.5,346.1883 C391.5,374.0783 391.5,401.6783 391.5,429.5783 " fill="none" id="EventStore-to-EventStream" style="stroke:#666666;stroke-width:1.0;"/><polygon fill="#666666" points="391.5,435.5783,395.5,426.5783,391.5,430.5783,387.5,426.5783,391.5,435.5783" style="stroke:#666666;stroke-width:1.0;"/><text fill="#666666" font-family="sans-serif" font-size="12" lengthAdjust="spacing" textLength="29" x="432" y="388.5098">Store</text><text fill="#666666" font-family="sans-serif" font-size="12" lengthAdjust="spacing" textLength="63" x="392.5" y="402.6427">[Sequential</text><text fill="#666666" font-family="sans-serif" font-size="12" lengthAdjust="spacing" textLength="4" x="455.5" y="402.6427">&#160;</text><text fill="#666666" font-family="sans-serif" font-size="12" lengthAdjust="spacing" textLength="41" x="459.5" y="402.6427">Events]</text></g><!--link EventStream to ProjectionA--><g id="link_EventStream_ProjectionA"><path codeLine="53" d="M331.89,550.1383 C302.33,578.0283 271.0941,607.5107 241.5241,635.4107 " fill="none" id="EventStream-to-ProjectionA" style="stroke:#666666;stroke-width:1.0;"/><polygon fill="#666666" points="237.16,639.5283,246.4512,636.2612,240.7967,636.0969,240.961,630.4425,237.16,639.5283" style="stroke:#666666;stroke-width:1.0;"/><text fill="#666666" font-family="sans-serif" font-size="12" lengthAdjust="spacing" textLength="39" x="300.31" y="592.4598">Replay</text><text fill="#666666" font-family="sans-serif" font-size="12" lengthAdjust="spacing" textLength="4" x="339.31" y="592.4598">&#160;</text><text fill="#666666" font-family="sans-serif" font-size="12" lengthAdjust="spacing" textLength="37" x="343.31" y="592.4598">Events</text><text fill="#666666" font-family="sans-serif" font-size="12" lengthAdjust="spacing" textLength="48" x="298.31" y="606.5927">[Rebuild</text><text fill="#666666" font-family="sans-serif" font-size="12" lengthAdjust="spacing" textLength="4" x="346.31" y="606.5927">&#160;</text><text fill="#666666" font-family="sans-serif" font-size="12" lengthAdjust="spacing" textLength="32" x="350.31" y="606.5927">State]</text></g><!--link EventStream to ProjectionB--><g id="link_EventStream_ProjectionB"><path codeLine="54" d="M451.39,550.1383 C481.09,578.0283 512.4869,607.5202 542.1869,635.4202 " fill="none" id="EventStream-to-ProjectionB" style="stroke:#666666;stroke-width:1.0;"/><polygon fill="#666666" points="546.56,639.5283,542.7391,630.4508,542.9158,636.1049,537.2617,636.2816,546.56,639.5283" style="stroke:#666666;stroke-width:1.0;"/><text fill="#666666" font-family="sans-serif" font-size="12" lengthAdjust="spacing" textLength="39" x="514.87" y="592.4598">Replay</text><text fill="#666666" font-family="sans-serif" font-size="12" lengthAdjust="spacing" textLength="4" x="553.87" y="592.4598">&#160;</text><text fill="#666666" font-family="sans-serif" font-size="12" lengthAdjust="spacing" textLength="37" x="557.87" y="592.4598">Events</text><text fill="#666666" font-family="sans-serif" font-size="12" lengthAdjust="spacing" textLength="48" x="512.87" y="606.5927">[Rebuild</text><text fill="#666666" font-family="sans-serif" font-size="12" lengthAdjust="spacing" textLength="4" x="560.87" y="606.5927">&#160;</text><text fill="#666666" font-family="sans-serif" font-size="12" lengthAdjust="spacing" textLength="32" x="564.87" y="606.5927">State]</text></g><!--link ProjectionA to ReadModelA--><g id="link_ProjectionA_ReadModelA"><path codeLine="55" d="M177.5,754.1283 C177.5,782.3883 177.5,810.2683 177.5,837.3183 " fill="none" id="ProjectionA-to-ReadModelA" style="stroke:#666666;stroke-width:1.0;"/><polygon fill="#666666" points="177.5,843.3183,181.5,834.3183,177.5,838.3183,173.5,834.3183,177.5,843.3183" style="stroke:#666666;stroke-width:1.0;"/><text fill="#666666" font-family="sans-serif" font-size="12" lengthAdjust="spacing" textLength="42" x="194" y="796.4098">Update</text><text fill="#666666" font-family="sans-serif" font-size="12" lengthAdjust="spacing" textLength="38" x="178.5" y="810.5427">[Order</text><text fill="#666666" font-family="sans-serif" font-size="12" lengthAdjust="spacing" textLength="4" x="216.5" y="810.5427">&#160;</text><text fill="#666666" font-family="sans-serif" font-size="12" lengthAdjust="spacing" textLength="31" x="220.5" y="810.5427">View]</text></g><!--link ProjectionB to ReadModelB--><g id="link_ProjectionB_ReadModelB"><path codeLine="56" d="M606.5,754.1283 C606.5,782.3883 606.5,810.2683 606.5,837.3183 " fill="none" id="ProjectionB-to-ReadModelB" style="stroke:#666666;stroke-width:1.0;"/><polygon fill="#666666" points="606.5,843.3183,610.5,834.3183,606.5,838.3183,602.5,834.3183,606.5,843.3183" style="stroke:#666666;stroke-width:1.0;"/><text fill="#666666" font-family="sans-serif" font-size="12" lengthAdjust="spacing" textLength="42" x="632" y="796.4098">Update</text><text fill="#666666" font-family="sans-serif" font-size="12" lengthAdjust="spacing" textLength="56" x="607.5" y="810.5427">[Inventory</text><text fill="#666666" font-family="sans-serif" font-size="12" lengthAdjust="spacing" textLength="4" x="663.5" y="810.5427">&#160;</text><text fill="#666666" font-family="sans-serif" font-size="12" lengthAdjust="spacing" textLength="31" x="667.5" y="810.5427">View]</text></g><!--SRC=[ZLNVJzim47xFNt7q2RILQXjFVPZKbcvKAj2bW3GnXDpasdXouc0xHTsq_trtZjkaHOozHF9tz_cxNxuSoI9HLOgGELVQVgzdnFFfIhgiMbGMJQ8BXuKxJNJUAvKeN9MhhdMfaelUwAmxO-ZsSjhBXNLe27eS4KF80irfIRvHvAHJ2ECrtG9pNPb45YkO2KVkHHGTfRWaPuZ7evl1rTVf618bh8sY1kYCT9wB8eKB-YWq7H0M0XOW-1q1l8FCduBf-CHZQw5aAjm1ka8Aa50VbYNmpvvYYDPfWrxDd_qnA8con2BryEv6jxkCprXJ38gy3_SF7fDvNZcnK3ZLgpuuK-4hking2_CvA5-R5Cs808Sf7Ay_r6gJWXsrsSH8JLjxqyVQD1ERd6mpenEqrbi-dJHNpJD9kJ1wTbW5elp4n4bTm9mkbGd2m4VL60OXAeCq79kz0YmggL8lSIVnEO19POpFYCBlmtLyFeuVvnUJsMny_hRuy41y-8RuhYYl1Z2vkXjVtLp7tnzlP-U3cnT1n2XIkDGfgf0v0_wyJLpx6bOqMsRJ01VIicuDb4xcyXUcNxJvLg6HQ5zN6UwhR3EKsqocD5RAXgovqu8BOLy8nLXguxpGmKlfTZ-tnxaFdO6VvHgqFuhxoNPAWSRqeHErl5jaFvB4zWPYpV6f8eCKAjpKCBqhKzjpq-UykM-DS8o-RU2Ryq_wy7_eRJMcjtf7xDkIjmBH_8W2ZyWUPxZF6UvnTfErvKM5TWX6hZ87UdcmdQWx0R2xnGEfpcbBaial2Wik4uudcTjQEC8jfm49xRGLMfe0ya2m6rgpUSJzOiMWwtJ9gasZY5wl4klR9crDfishs6Pv3IDJQ0UvxBrt8oEPX5BRY4WooOmkjD8hcGX5LZ_SFA6xJGPaF0n7uT9NeTK0uhOUjAqVj0qljrK4JL3TnV1GTuNW7q3Yrrupw6Gq_7Poxf25fJRm55xOGKWBxPpEEQXc2eWTjzY22aNPoRM_Tsd8FKJ5qcrDrh4b9d8f4o-uWRB-dxLq_m80]--></g></svg>