<?xml version="1.0" encoding="us-ascii" standalone="no"?><svg xmlns="http://www.w3.org/2000/svg" xmlns:xlink="http://www.w3.org/1999/xlink" contentStyleType="text/css" height="1257px" preserveAspectRatio="none" style="width:826px;height:1257px;background:#FFFFFF;" version="1.1" viewBox="0 0 826 1257" width="826px" zoomAndPan="magnify"><defs/><g><text fill="#000000" font-family="sans-serif" font-size="14" font-weight="bold" lengthAdjust="spacing" textLength="216" x="298.25" y="23.5352">CQRS with Messaging Pattern</text><!--class Client--><g id="elem_Client"><rect codeLine="7" fill="#F1F1F1" height="80.9766" id="Client" rx="2.5" ry="2.5" style="stroke:#181818;stroke-width:0.5;" width="154" x="336.5" y="44.4883"/><ellipse cx="351.5" cy="60.4883" fill="#ADD1B2" rx="11" ry="11" style="stroke:#181818;stroke-width:1.0;"/><path d="M353.9731,66.6313 Q353.3921,66.9302 352.7529,67.0796 Q352.1138,67.229 351.4082,67.229 Q348.9014,67.229 347.5815,65.5771 Q346.2617,63.9253 346.2617,60.8042 Q346.2617,57.6748 347.5815,56.0229 Q348.9014,54.3711 351.4082,54.3711 Q352.1138,54.3711 352.7612,54.5205 Q353.4087,54.6699 353.9731,54.9688 L353.9731,57.6914 Q353.3423,57.1104 352.7488,56.8406 Q352.1553,56.5708 351.5244,56.5708 Q350.1797,56.5708 349.4949,57.6375 Q348.8101,58.7041 348.8101,60.8042 Q348.8101,62.896 349.4949,63.9626 Q350.1797,65.0293 351.5244,65.0293 Q352.1553,65.0293 352.7488,64.7595 Q353.3423,64.4897 353.9731,63.9087 Z " fill="#000000"/><text fill="#000000" font-family="sans-serif" font-size="14" lengthAdjust="spacing" textLength="40" x="365.5" y="65.7793">Client</text><text fill="#000000" font-family="sans-serif" font-size="14" lengthAdjust="spacing" textLength="4" x="405.5" y="65.7793">&#160;</text><text fill="#000000" font-family="sans-serif" font-size="14" lengthAdjust="spacing" textLength="78" x="409.5" y="65.7793">Application</text><line style="stroke:#181818;stroke-width:0.5;" x1="337.5" x2="489.5" y1="76.4883" y2="76.4883"/><line style="stroke:#181818;stroke-width:0.5;" x1="337.5" x2="489.5" y1="84.4883" y2="84.4883"/><ellipse cx="347.5" cy="98.2324" fill="#84BE84" rx="3" ry="3" style="stroke:#038048;stroke-width:1.0;"/><text fill="#000000" font-family="sans-serif" font-size="14" lengthAdjust="spacing" textLength="114" x="356.5" y="102.0234">sendCommand()</text><ellipse cx="347.5" cy="114.7207" fill="#84BE84" rx="3" ry="3" style="stroke:#038048;stroke-width:1.0;"/><text fill="#000000" font-family="sans-serif" font-size="14" lengthAdjust="spacing" textLength="105" x="356.5" y="118.5117">executeQuery()</text></g><!--class CommandService--><g id="elem_CommandService"><rect codeLine="12" fill="#F1F1F1" height="97.4648" id="CommandService" rx="2.5" ry="2.5" style="stroke:#181818;stroke-width:0.5;" width="184" x="252.5" y="402.9383"/><ellipse cx="280.55" cy="418.9383" fill="#ADD1B2" rx="11" ry="11" style="stroke:#181818;stroke-width:1.0;"/><path d="M283.0231,425.0813 Q282.4421,425.3802 281.8029,425.5296 Q281.1638,425.679 280.4582,425.679 Q277.9514,425.679 276.6315,424.0271 Q275.3117,422.3753 275.3117,419.2542 Q275.3117,416.1248 276.6315,414.4729 Q277.9514,412.8211 280.4582,412.8211 Q281.1638,412.8211 281.8112,412.9705 Q282.4587,413.1199 283.0231,413.4187 L283.0231,416.1414 Q282.3923,415.5604 281.7988,415.2906 Q281.2053,415.0208 280.5744,415.0208 Q279.2297,415.0208 278.5449,416.0875 Q277.8601,417.1541 277.8601,419.2542 Q277.8601,421.346 278.5449,422.4126 Q279.2297,423.4793 280.5744,423.4793 Q281.2053,423.4793 281.7988,423.2095 Q282.3923,422.9397 283.0231,422.3587 Z " fill="#000000"/><text fill="#000000" font-family="sans-serif" font-size="14" lengthAdjust="spacing" textLength="71" x="297.45" y="424.2293">Command</text><text fill="#000000" font-family="sans-serif" font-size="14" lengthAdjust="spacing" textLength="4" x="368.45" y="424.2293">&#160;</text><text fill="#000000" font-family="sans-serif" font-size="14" lengthAdjust="spacing" textLength="48" x="372.45" y="424.2293">Service</text><line style="stroke:#181818;stroke-width:0.5;" x1="253.5" x2="435.5" y1="434.9383" y2="434.9383"/><line style="stroke:#181818;stroke-width:0.5;" x1="253.5" x2="435.5" y1="442.9383" y2="442.9383"/><ellipse cx="263.5" cy="456.6824" fill="#84BE84" rx="3" ry="3" style="stroke:#038048;stroke-width:1.0;"/><text fill="#000000" font-family="sans-serif" font-size="14" lengthAdjust="spacing" textLength="128" x="272.5" y="460.4734">handleCommand()</text><ellipse cx="263.5" cy="473.1707" fill="#84BE84" rx="3" ry="3" style="stroke:#038048;stroke-width:1.0;"/><text fill="#000000" font-family="sans-serif" font-size="14" lengthAdjust="spacing" textLength="134" x="272.5" y="476.9617">validateCommand()</text><ellipse cx="263.5" cy="489.659" fill="#84BE84" rx="3" ry="3" style="stroke:#038048;stroke-width:1.0;"/><text fill="#000000" font-family="sans-serif" font-size="14" lengthAdjust="spacing" textLength="158" x="272.5" y="493.45">processBusinessLogic()</text></g><!--class CommandQueue--><g id="elem_CommandQueue"><rect codeLine="18" fill="#F1F1F1" height="97.4648" id="CommandQueue" rx="2.5" ry="2.5" style="stroke:#181818;stroke-width:0.5;" width="164" x="655.5" y="215.4683"/><ellipse cx="675.9" cy="231.4683" fill="#ADD1B2" rx="11" ry="11" style="stroke:#181818;stroke-width:1.0;"/><path d="M678.3731,237.6113 Q677.7921,237.9102 677.1529,238.0596 Q676.5138,238.209 675.8082,238.209 Q673.3014,238.209 671.9815,236.5571 Q670.6617,234.9053 670.6617,231.7842 Q670.6617,228.6548 671.9815,227.0029 Q673.3014,225.3511 675.8082,225.3511 Q676.5138,225.3511 677.1612,225.5005 Q677.8087,225.6499 678.3731,225.9488 L678.3731,228.6714 Q677.7423,228.0904 677.1488,227.8206 Q676.5553,227.5508 675.9244,227.5508 Q674.5797,227.5508 673.8949,228.6175 Q673.2101,229.6841 673.2101,231.7842 Q673.2101,233.876 673.8949,234.9426 Q674.5797,236.0093 675.9244,236.0093 Q676.5553,236.0093 677.1488,235.7395 Q677.7423,235.4697 678.3731,234.8887 Z " fill="#000000"/><text fill="#000000" font-family="sans-serif" font-size="14" lengthAdjust="spacing" textLength="71" x="691.1" y="236.7593">Command</text><text fill="#000000" font-family="sans-serif" font-size="14" lengthAdjust="spacing" textLength="4" x="762.1" y="236.7593">&#160;</text><text fill="#000000" font-family="sans-serif" font-size="14" lengthAdjust="spacing" textLength="45" x="766.1" y="236.7593">Queue</text><line style="stroke:#181818;stroke-width:0.5;" x1="656.5" x2="818.5" y1="247.4683" y2="247.4683"/><line style="stroke:#181818;stroke-width:0.5;" x1="656.5" x2="818.5" y1="255.4683" y2="255.4683"/><ellipse cx="666.5" cy="269.2124" fill="#84BE84" rx="3" ry="3" style="stroke:#038048;stroke-width:1.0;"/><text fill="#000000" font-family="sans-serif" font-size="14" lengthAdjust="spacing" textLength="138" x="675.5" y="273.0034">enqueue(command)</text><ellipse cx="666.5" cy="285.7007" fill="#84BE84" rx="3" ry="3" style="stroke:#038048;stroke-width:1.0;"/><text fill="#000000" font-family="sans-serif" font-size="14" lengthAdjust="spacing" textLength="70" x="675.5" y="289.4917">dequeue()</text><ellipse cx="666.5" cy="302.189" fill="#84BE84" rx="3" ry="3" style="stroke:#038048;stroke-width:1.0;"/><text fill="#000000" font-family="sans-serif" font-size="14" lengthAdjust="spacing" textLength="134" x="675.5" y="305.98">guaranteeDelivery()</text></g><!--class EventStore--><g id="elem_EventStore"><rect codeLine="24" fill="#F1F1F1" height="97.4648" id="EventStore" rx="2.5" ry="2.5" style="stroke:#181818;stroke-width:0.5;" width="161" x="264" y="590.3983"/><ellipse cx="302.4" cy="606.3983" fill="#ADD1B2" rx="11" ry="11" style="stroke:#181818;stroke-width:1.0;"/><path d="M304.8731,612.5413 Q304.2921,612.8402 303.6529,612.9896 Q303.0138,613.139 302.3082,613.139 Q299.8014,613.139 298.4815,611.4871 Q297.1617,609.8353 297.1617,606.7142 Q297.1617,603.5848 298.4815,601.9329 Q299.8014,600.2811 302.3082,600.2811 Q303.0138,600.2811 303.6612,600.4305 Q304.3087,600.5799 304.8731,600.8788 L304.8731,603.6014 Q304.2423,603.0204 303.6488,602.7506 Q303.0553,602.4808 302.4244,602.4808 Q301.0797,602.4808 300.3949,603.5475 Q299.7101,604.6141 299.7101,606.7142 Q299.7101,608.806 300.3949,609.8726 Q301.0797,610.9393 302.4244,610.9393 Q303.0553,610.9393 303.6488,610.6695 Q304.2423,610.3997 304.8731,609.8187 Z " fill="#000000"/><text fill="#000000" font-family="sans-serif" font-size="14" lengthAdjust="spacing" textLength="37" x="321.6" y="611.6893">Event</text><text fill="#000000" font-family="sans-serif" font-size="14" lengthAdjust="spacing" textLength="4" x="358.6" y="611.6893">&#160;</text><text fill="#000000" font-family="sans-serif" font-size="14" lengthAdjust="spacing" textLength="36" x="362.6" y="611.6893">Store</text><line style="stroke:#181818;stroke-width:0.5;" x1="265" x2="424" y1="622.3983" y2="622.3983"/><ellipse cx="275" cy="636.1424" fill="none" rx="3" ry="3" style="stroke:#038048;stroke-width:1.0;"/><text fill="#000000" font-family="sans-serif" font-size="14" lengthAdjust="spacing" textLength="121" x="284" y="639.9334">immutableEvents:</text><text fill="#000000" font-family="sans-serif" font-size="14" lengthAdjust="spacing" textLength="4" x="405" y="639.9334">&#160;</text><text fill="#000000" font-family="sans-serif" font-size="14" lengthAdjust="spacing" textLength="10" x="409" y="639.9334">[]</text><line style="stroke:#181818;stroke-width:0.5;" x1="265" x2="424" y1="646.8866" y2="646.8866"/><ellipse cx="275" cy="660.6307" fill="#84BE84" rx="3" ry="3" style="stroke:#038048;stroke-width:1.0;"/><text fill="#000000" font-family="sans-serif" font-size="14" lengthAdjust="spacing" textLength="99" x="284" y="664.4217">appendEvent()</text><ellipse cx="275" cy="677.119" fill="#84BE84" rx="3" ry="3" style="stroke:#038048;stroke-width:1.0;"/><text fill="#000000" font-family="sans-serif" font-size="14" lengthAdjust="spacing" textLength="117" x="284" y="680.91">getEventStream()</text></g><!--class EventBus--><g id="elem_EventBus"><rect codeLine="30" fill="#F1F1F1" height="97.4648" id="EventBus" rx="2.5" ry="2.5" style="stroke:#181818;stroke-width:0.5;" width="164" x="262.5" y="777.8683"/><ellipse cx="307.75" cy="793.8683" fill="#ADD1B2" rx="11" ry="11" style="stroke:#181818;stroke-width:1.0;"/><path d="M310.2231,800.0113 Q309.6421,800.3102 309.0029,800.4596 Q308.3638,800.609 307.6582,800.609 Q305.1514,800.609 303.8315,798.9571 Q302.5117,797.3053 302.5117,794.1842 Q302.5117,791.0548 303.8315,789.4029 Q305.1514,787.7511 307.6582,787.7511 Q308.3638,787.7511 309.0112,787.9005 Q309.6587,788.0499 310.2231,788.3488 L310.2231,791.0714 Q309.5923,790.4904 308.9988,790.2206 Q308.4053,789.9508 307.7744,789.9508 Q306.4297,789.9508 305.7449,791.0175 Q305.0601,792.0841 305.0601,794.1842 Q305.0601,796.276 305.7449,797.3426 Q306.4297,798.4093 307.7744,798.4093 Q308.4053,798.4093 308.9988,798.1395 Q309.5923,797.8697 310.2231,797.2887 Z " fill="#000000"/><text fill="#000000" font-family="sans-serif" font-size="14" lengthAdjust="spacing" textLength="37" x="328.25" y="799.1593">Event</text><text fill="#000000" font-family="sans-serif" font-size="14" lengthAdjust="spacing" textLength="4" x="365.25" y="799.1593">&#160;</text><text fill="#000000" font-family="sans-serif" font-size="14" lengthAdjust="spacing" textLength="24" x="369.25" y="799.1593">Bus</text><line style="stroke:#181818;stroke-width:0.5;" x1="263.5" x2="425.5" y1="809.8683" y2="809.8683"/><line style="stroke:#181818;stroke-width:0.5;" x1="263.5" x2="425.5" y1="817.8683" y2="817.8683"/><ellipse cx="273.5" cy="831.6124" fill="#84BE84" rx="3" ry="3" style="stroke:#038048;stroke-width:1.0;"/><text fill="#000000" font-family="sans-serif" font-size="14" lengthAdjust="spacing" textLength="98" x="282.5" y="835.4034">publishEvent()</text><ellipse cx="273.5" cy="848.1007" fill="#84BE84" rx="3" ry="3" style="stroke:#038048;stroke-width:1.0;"/><text fill="#000000" font-family="sans-serif" font-size="14" lengthAdjust="spacing" textLength="138" x="282.5" y="851.8917">subscribeToEvents()</text><ellipse cx="273.5" cy="864.589" fill="#84BE84" rx="3" ry="3" style="stroke:#038048;stroke-width:1.0;"/><text fill="#000000" font-family="sans-serif" font-size="14" lengthAdjust="spacing" textLength="91" x="282.5" y="868.38">routeEvents()</text></g><!--class QueryService--><g id="elem_QueryService"><rect codeLine="36" fill="#F1F1F1" height="97.4648" id="QueryService" rx="2.5" ry="2.5" style="stroke:#181818;stroke-width:0.5;" width="169" x="7" y="215.4683"/><ellipse cx="41.8" cy="231.4683" fill="#ADD1B2" rx="11" ry="11" style="stroke:#181818;stroke-width:1.0;"/><path d="M44.2731,237.6113 Q43.6921,237.9102 43.0529,238.0596 Q42.4138,238.209 41.7082,238.209 Q39.2014,238.209 37.8815,236.5571 Q36.5617,234.9053 36.5617,231.7842 Q36.5617,228.6548 37.8815,227.0029 Q39.2014,225.3511 41.7082,225.3511 Q42.4138,225.3511 43.0612,225.5005 Q43.7087,225.6499 44.2731,225.9488 L44.2731,228.6714 Q43.6423,228.0904 43.0488,227.8206 Q42.4553,227.5508 41.8244,227.5508 Q40.4797,227.5508 39.7949,228.6175 Q39.1101,229.6841 39.1101,231.7842 Q39.1101,233.876 39.7949,234.9426 Q40.4797,236.0093 41.8244,236.0093 Q42.4553,236.0093 43.0488,235.7395 Q43.6423,235.4697 44.2731,234.8887 Z " fill="#000000"/><text fill="#000000" font-family="sans-serif" font-size="14" lengthAdjust="spacing" textLength="41" x="60.2" y="236.7593">Query</text><text fill="#000000" font-family="sans-serif" font-size="14" lengthAdjust="spacing" textLength="4" x="101.2" y="236.7593">&#160;</text><text fill="#000000" font-family="sans-serif" font-size="14" lengthAdjust="spacing" textLength="48" x="105.2" y="236.7593">Service</text><line style="stroke:#181818;stroke-width:0.5;" x1="8" x2="175" y1="247.4683" y2="247.4683"/><line style="stroke:#181818;stroke-width:0.5;" x1="8" x2="175" y1="255.4683" y2="255.4683"/><ellipse cx="18" cy="269.2124" fill="#84BE84" rx="3" ry="3" style="stroke:#038048;stroke-width:1.0;"/><text fill="#000000" font-family="sans-serif" font-size="14" lengthAdjust="spacing" textLength="98" x="27" y="273.0034">handleQuery()</text><ellipse cx="18" cy="285.7007" fill="#84BE84" rx="3" ry="3" style="stroke:#038048;stroke-width:1.0;"/><text fill="#000000" font-family="sans-serif" font-size="14" lengthAdjust="spacing" textLength="119" x="27" y="289.4917">readFromModel()</text><ellipse cx="18" cy="302.189" fill="#84BE84" rx="3" ry="3" style="stroke:#038048;stroke-width:1.0;"/><text fill="#000000" font-family="sans-serif" font-size="14" lengthAdjust="spacing" textLength="143" x="27" y="305.98">optimizedForReads()</text></g><!--class ReadDatabase--><g id="elem_ReadDatabase"><rect codeLine="42" fill="#F1F1F1" height="97.4648" id="ReadDatabase" rx="2.5" ry="2.5" style="stroke:#181818;stroke-width:0.5;" width="172" x="34.5" y="1152.7983"/><ellipse cx="67.05" cy="1168.7983" fill="#ADD1B2" rx="11" ry="11" style="stroke:#181818;stroke-width:1.0;"/><path d="M69.5231,1174.9413 Q68.9421,1175.2402 68.3029,1175.3896 Q67.6638,1175.539 66.9582,1175.539 Q64.4514,1175.539 63.1315,1173.8871 Q61.8117,1172.2353 61.8117,1169.1142 Q61.8117,1165.9848 63.1315,1164.3329 Q64.4514,1162.6811 66.9582,1162.6811 Q67.6638,1162.6811 68.3112,1162.8305 Q68.9587,1162.9799 69.5231,1163.2788 L69.5231,1166.0014 Q68.8923,1165.4204 68.2988,1165.1506 Q67.7053,1164.8808 67.0744,1164.8808 Q65.7297,1164.8808 65.0449,1165.9475 Q64.3601,1167.0141 64.3601,1169.1142 Q64.3601,1171.206 65.0449,1172.2726 Q65.7297,1173.3393 67.0744,1173.3393 Q67.7053,1173.3393 68.2988,1173.0695 Q68.8923,1172.7997 69.5231,1172.2187 Z " fill="#000000"/><text fill="#000000" font-family="sans-serif" font-size="14" lengthAdjust="spacing" textLength="34" x="84.95" y="1174.0893">Read</text><text fill="#000000" font-family="sans-serif" font-size="14" lengthAdjust="spacing" textLength="4" x="118.95" y="1174.0893">&#160;</text><text fill="#000000" font-family="sans-serif" font-size="14" lengthAdjust="spacing" textLength="63" x="122.95" y="1174.0893">Database</text><line style="stroke:#181818;stroke-width:0.5;" x1="35.5" x2="205.5" y1="1184.7983" y2="1184.7983"/><ellipse cx="45.5" cy="1198.5424" fill="none" rx="3" ry="3" style="stroke:#038048;stroke-width:1.0;"/><text fill="#000000" font-family="sans-serif" font-size="14" lengthAdjust="spacing" textLength="126" x="54.5" y="1202.3334">denormalizedData</text><ellipse cx="45.5" cy="1215.0307" fill="none" rx="3" ry="3" style="stroke:#038048;stroke-width:1.0;"/><text fill="#000000" font-family="sans-serif" font-size="14" lengthAdjust="spacing" textLength="123" x="54.5" y="1218.8217">optimizedIndexes</text><ellipse cx="45.5" cy="1231.519" fill="none" rx="3" ry="3" style="stroke:#038048;stroke-width:1.0;"/><text fill="#000000" font-family="sans-serif" font-size="14" lengthAdjust="spacing" textLength="114" x="54.5" y="1235.31">queryOptimized:</text><text fill="#000000" font-family="sans-serif" font-size="14" lengthAdjust="spacing" textLength="4" x="168.5" y="1235.31">&#160;</text><text fill="#000000" font-family="sans-serif" font-size="14" lengthAdjust="spacing" textLength="28" x="172.5" y="1235.31">true</text><line style="stroke:#181818;stroke-width:0.5;" x1="35.5" x2="205.5" y1="1242.2631" y2="1242.2631"/></g><!--class ProjectionHandler--><g id="elem_ProjectionHandler"><rect codeLine="48" fill="#F1F1F1" height="97.4648" id="ProjectionHandler" rx="2.5" ry="2.5" style="stroke:#181818;stroke-width:0.5;" width="178" x="377.5" y="965.3283"/><ellipse cx="401.05" cy="981.3283" fill="#ADD1B2" rx="11" ry="11" style="stroke:#181818;stroke-width:1.0;"/><path d="M403.5231,987.4713 Q402.9421,987.7702 402.3029,987.9196 Q401.6638,988.069 400.9582,988.069 Q398.4514,988.069 397.1315,986.4171 Q395.8117,984.7653 395.8117,981.6442 Q395.8117,978.5148 397.1315,976.8629 Q398.4514,975.2111 400.9582,975.2111 Q401.6638,975.2111 402.3112,975.3605 Q402.9587,975.5099 403.5231,975.8087 L403.5231,978.5314 Q402.8923,977.9504 402.2988,977.6806 Q401.7053,977.4108 401.0744,977.4108 Q399.7297,977.4108 399.0449,978.4775 Q398.3601,979.5441 398.3601,981.6442 Q398.3601,983.736 399.0449,984.8026 Q399.7297,985.8693 401.0744,985.8693 Q401.7053,985.8693 402.2988,985.5995 Q402.8923,985.3297 403.5231,984.7487 Z " fill="#000000"/><text fill="#000000" font-family="sans-serif" font-size="14" lengthAdjust="spacing" textLength="69" x="416.95" y="986.6193">Projection</text><text fill="#000000" font-family="sans-serif" font-size="14" lengthAdjust="spacing" textLength="4" x="485.95" y="986.6193">&#160;</text><text fill="#000000" font-family="sans-serif" font-size="14" lengthAdjust="spacing" textLength="54" x="489.95" y="986.6193">Handler</text><line style="stroke:#181818;stroke-width:0.5;" x1="378.5" x2="554.5" y1="997.3283" y2="997.3283"/><line style="stroke:#181818;stroke-width:0.5;" x1="378.5" x2="554.5" y1="1005.3283" y2="1005.3283"/><ellipse cx="388.5" cy="1019.0724" fill="#84BE84" rx="3" ry="3" style="stroke:#038048;stroke-width:1.0;"/><text fill="#000000" font-family="sans-serif" font-size="14" lengthAdjust="spacing" textLength="94" x="397.5" y="1022.8634">handleEvent()</text><ellipse cx="388.5" cy="1035.5607" fill="#84BE84" rx="3" ry="3" style="stroke:#038048;stroke-width:1.0;"/><text fill="#000000" font-family="sans-serif" font-size="14" lengthAdjust="spacing" textLength="134" x="397.5" y="1039.3517">updateReadModel()</text><ellipse cx="388.5" cy="1052.049" fill="#84BE84" rx="3" ry="3" style="stroke:#038048;stroke-width:1.0;"/><text fill="#000000" font-family="sans-serif" font-size="14" lengthAdjust="spacing" textLength="152" x="397.5" y="1055.84">maintainConsistency()</text></g><g id="elem_GMN18"><path d="M525,57.0183 L525,80.9783 L490.88,84.9783 L525,88.9783 L525,112.9499 A0,0 0 0 0 525,112.9499 L728,112.9499 A0,0 0 0 0 728,112.9499 L728,67.0183 L718,57.0183 L525,57.0183 A0,0 0 0 0 525,57.0183 " fill="#FEFFDD" style="stroke:#181818;stroke-width:0.5;"/><path d="M718,57.0183 L718,67.0183 L728,67.0183 L718,57.0183 " fill="#FEFFDD" style="stroke:#181818;stroke-width:0.5;"/><text fill="#000000" font-family="sans-serif" font-size="13" lengthAdjust="spacing" textLength="37" x="554" y="74.5866">Client</text><text fill="#000000" font-family="sans-serif" font-size="13" lengthAdjust="spacing" textLength="4" x="591" y="74.5866">&#160;</text><text fill="#000000" font-family="sans-serif" font-size="13" lengthAdjust="spacing" textLength="60" x="595" y="74.5866">separates</text><text fill="#000000" font-family="sans-serif" font-size="13" lengthAdjust="spacing" textLength="4" x="655" y="74.5866">&#160;</text><text fill="#000000" font-family="sans-serif" font-size="13" lengthAdjust="spacing" textLength="31" x="659" y="74.5866">write</text><text fill="#000000" font-family="sans-serif" font-size="13" lengthAdjust="spacing" textLength="67" x="531" y="89.8972">operations</text><text fill="#000000" font-family="sans-serif" font-size="13" lengthAdjust="spacing" textLength="4" x="598" y="89.8972">&#160;</text><text fill="#000000" font-family="sans-serif" font-size="13" lengthAdjust="spacing" textLength="77" x="602" y="89.8972">(commands)</text><text fill="#000000" font-family="sans-serif" font-size="13" lengthAdjust="spacing" textLength="4" x="679" y="89.8972">&#160;</text><text fill="#000000" font-family="sans-serif" font-size="13" lengthAdjust="spacing" textLength="30" x="683" y="89.8972">from</text><text fill="#000000" font-family="sans-serif" font-size="13" lengthAdjust="spacing" textLength="27" x="544" y="105.2077">read</text><text fill="#000000" font-family="sans-serif" font-size="13" lengthAdjust="spacing" textLength="4" x="571" y="105.2077">&#160;</text><text fill="#000000" font-family="sans-serif" font-size="13" lengthAdjust="spacing" textLength="67" x="575" y="105.2077">operations</text><text fill="#000000" font-family="sans-serif" font-size="13" lengthAdjust="spacing" textLength="4" x="642" y="105.2077">&#160;</text><text fill="#000000" font-family="sans-serif" font-size="13" lengthAdjust="spacing" textLength="54" x="646" y="105.2077">(queries)</text></g><g id="elem_GMN21"><path d="M211,236.2383 L211,292.1699 A0,0 0 0 0 211,292.1699 L306.4,292.1699 L334.15,402.6583 L314.4,292.1699 L398,292.1699 A0,0 0 0 0 398,292.1699 L398,246.2383 L388,236.2383 L211,236.2383 A0,0 0 0 0 211,236.2383 " fill="#FEFFDD" style="stroke:#181818;stroke-width:0.5;"/><path d="M388,236.2383 L388,246.2383 L398,246.2383 L388,236.2383 " fill="#FEFFDD" style="stroke:#181818;stroke-width:0.5;"/><text fill="#000000" font-family="sans-serif" font-size="13" lengthAdjust="spacing" textLength="64" x="217" y="253.8066">Command</text><text fill="#000000" font-family="sans-serif" font-size="13" lengthAdjust="spacing" textLength="4" x="281" y="253.8066">&#160;</text><text fill="#000000" font-family="sans-serif" font-size="13" lengthAdjust="spacing" textLength="26" x="285" y="253.8066">side</text><text fill="#000000" font-family="sans-serif" font-size="13" lengthAdjust="spacing" textLength="4" x="311" y="253.8066">&#160;</text><text fill="#000000" font-family="sans-serif" font-size="13" lengthAdjust="spacing" textLength="49" x="315" y="253.8066">handles</text><text fill="#000000" font-family="sans-serif" font-size="13" lengthAdjust="spacing" textLength="4" x="364" y="253.8066">&#160;</text><text fill="#000000" font-family="sans-serif" font-size="13" lengthAdjust="spacing" textLength="15" x="368" y="253.8066">all</text><text fill="#000000" font-family="sans-serif" font-size="13" lengthAdjust="spacing" textLength="31" x="235.5" y="269.1172">write</text><text fill="#000000" font-family="sans-serif" font-size="13" lengthAdjust="spacing" textLength="4" x="266.5" y="269.1172">&#160;</text><text fill="#000000" font-family="sans-serif" font-size="13" lengthAdjust="spacing" textLength="67" x="270.5" y="269.1172">operations</text><text fill="#000000" font-family="sans-serif" font-size="13" lengthAdjust="spacing" textLength="4" x="337.5" y="269.1172">&#160;</text><text fill="#000000" font-family="sans-serif" font-size="13" lengthAdjust="spacing" textLength="23" x="341.5" y="269.1172">and</text><text fill="#000000" font-family="sans-serif" font-size="13" lengthAdjust="spacing" textLength="56" x="221.5" y="284.4277">business</text><text fill="#000000" font-family="sans-serif" font-size="13" lengthAdjust="spacing" textLength="4" x="277.5" y="284.4277">&#160;</text><text fill="#000000" font-family="sans-serif" font-size="13" lengthAdjust="spacing" textLength="31" x="281.5" y="284.4277">logic</text><text fill="#000000" font-family="sans-serif" font-size="13" lengthAdjust="spacing" textLength="4" x="312.5" y="284.4277">&#160;</text><text fill="#000000" font-family="sans-serif" font-size="13" lengthAdjust="spacing" textLength="62" x="316.5" y="284.4277">validation</text></g><g id="elem_GMN24"><path d="M433,236.2383 L433,292.1699 L620,292.1699 L620,246.2383 L610,236.2383 L433,236.2383 " fill="#FEFFDD" style="stroke:#181818;stroke-width:0.5;"/><path d="M610,236.2383 L610,246.2383 L620,246.2383 L610,236.2383 " fill="#FEFFDD" style="stroke:#181818;stroke-width:1.0;"/><text fill="#000000" font-family="sans-serif" font-size="13" lengthAdjust="spacing" textLength="37" x="447.5" y="253.8066">Query</text><text fill="#000000" font-family="sans-serif" font-size="13" lengthAdjust="spacing" textLength="4" x="484.5" y="253.8066">&#160;</text><text fill="#000000" font-family="sans-serif" font-size="13" lengthAdjust="spacing" textLength="26" x="488.5" y="253.8066">side</text><text fill="#000000" font-family="sans-serif" font-size="13" lengthAdjust="spacing" textLength="4" x="514.5" y="253.8066">&#160;</text><text fill="#000000" font-family="sans-serif" font-size="13" lengthAdjust="spacing" textLength="11" x="518.5" y="253.8066">is</text><text fill="#000000" font-family="sans-serif" font-size="13" lengthAdjust="spacing" textLength="4" x="529.5" y="253.8066">&#160;</text><text fill="#000000" font-family="sans-serif" font-size="13" lengthAdjust="spacing" textLength="63" x="533.5" y="253.8066">optimized</text><text fill="#000000" font-family="sans-serif" font-size="13" lengthAdjust="spacing" textLength="18" x="446.5" y="269.1172">for</text><text fill="#000000" font-family="sans-serif" font-size="13" lengthAdjust="spacing" textLength="4" x="464.5" y="269.1172">&#160;</text><text fill="#000000" font-family="sans-serif" font-size="13" lengthAdjust="spacing" textLength="27" x="468.5" y="269.1172">read</text><text fill="#000000" font-family="sans-serif" font-size="13" lengthAdjust="spacing" textLength="4" x="495.5" y="269.1172">&#160;</text><text fill="#000000" font-family="sans-serif" font-size="13" lengthAdjust="spacing" textLength="67" x="499.5" y="269.1172">operations</text><text fill="#000000" font-family="sans-serif" font-size="13" lengthAdjust="spacing" textLength="4" x="566.5" y="269.1172">&#160;</text><text fill="#000000" font-family="sans-serif" font-size="13" lengthAdjust="spacing" textLength="27" x="570.5" y="269.1172">with</text><text fill="#000000" font-family="sans-serif" font-size="13" lengthAdjust="spacing" textLength="85" x="439" y="284.4277">denormalized</text><text fill="#000000" font-family="sans-serif" font-size="13" lengthAdjust="spacing" textLength="4" x="524" y="284.4277">&#160;</text><text fill="#000000" font-family="sans-serif" font-size="13" lengthAdjust="spacing" textLength="27" x="528" y="284.4277">data</text><text fill="#000000" font-family="sans-serif" font-size="13" lengthAdjust="spacing" textLength="4" x="555" y="284.4277">&#160;</text><text fill="#000000" font-family="sans-serif" font-size="13" lengthAdjust="spacing" textLength="46" x="559" y="284.4277">models</text></g><g id="elem_GMN27"><path d="M144.5,978.4383 L144.5,1049.6805 A0,0 0 0 0 144.5,1049.6805 L342.5,1049.6805 A0,0 0 0 0 342.5,1049.6805 L342.5,988.4383 L332.5,978.4383 L266.56,978.4383 L318.49,875.3583 L258.56,978.4383 L144.5,978.4383 A0,0 0 0 0 144.5,978.4383 " fill="#FEFFDD" style="stroke:#181818;stroke-width:0.5;"/><path d="M332.5,978.4383 L332.5,988.4383 L342.5,988.4383 L332.5,978.4383 " fill="#FEFFDD" style="stroke:#181818;stroke-width:0.5;"/><text fill="#000000" font-family="sans-serif" font-size="13" lengthAdjust="spacing" textLength="34" x="163.5" y="996.0066">Event</text><text fill="#000000" font-family="sans-serif" font-size="13" lengthAdjust="spacing" textLength="4" x="197.5" y="996.0066">&#160;</text><text fill="#000000" font-family="sans-serif" font-size="13" lengthAdjust="spacing" textLength="23" x="201.5" y="996.0066">bus</text><text fill="#000000" font-family="sans-serif" font-size="13" lengthAdjust="spacing" textLength="4" x="224.5" y="996.0066">&#160;</text><text fill="#000000" font-family="sans-serif" font-size="13" lengthAdjust="spacing" textLength="48" x="228.5" y="996.0066">enables</text><text fill="#000000" font-family="sans-serif" font-size="13" lengthAdjust="spacing" textLength="4" x="276.5" y="996.0066">&#160;</text><text fill="#000000" font-family="sans-serif" font-size="13" lengthAdjust="spacing" textLength="34" x="280.5" y="996.0066">loose</text><text fill="#000000" font-family="sans-serif" font-size="13" lengthAdjust="spacing" textLength="55" x="150.5" y="1011.3172">coupling</text><text fill="#000000" font-family="sans-serif" font-size="13" lengthAdjust="spacing" textLength="4" x="205.5" y="1011.3172">&#160;</text><text fill="#000000" font-family="sans-serif" font-size="13" lengthAdjust="spacing" textLength="52" x="209.5" y="1011.3172">between</text><text fill="#000000" font-family="sans-serif" font-size="13" lengthAdjust="spacing" textLength="4" x="261.5" y="1011.3172">&#160;</text><text fill="#000000" font-family="sans-serif" font-size="13" lengthAdjust="spacing" textLength="62" x="265.5" y="1011.3172">command</text><text fill="#000000" font-family="sans-serif" font-size="13" lengthAdjust="spacing" textLength="23" x="162.5" y="1026.6277">and</text><text fill="#000000" font-family="sans-serif" font-size="13" lengthAdjust="spacing" textLength="4" x="185.5" y="1026.6277">&#160;</text><text fill="#000000" font-family="sans-serif" font-size="13" lengthAdjust="spacing" textLength="35" x="189.5" y="1026.6277">query</text><text fill="#000000" font-family="sans-serif" font-size="13" lengthAdjust="spacing" textLength="4" x="224.5" y="1026.6277">&#160;</text><text fill="#000000" font-family="sans-serif" font-size="13" lengthAdjust="spacing" textLength="33" x="228.5" y="1026.6277">sides</text><text fill="#000000" font-family="sans-serif" font-size="13" lengthAdjust="spacing" textLength="4" x="261.5" y="1026.6277">&#160;</text><text fill="#000000" font-family="sans-serif" font-size="13" lengthAdjust="spacing" textLength="50" x="265.5" y="1026.6277">through</text><text fill="#000000" font-family="sans-serif" font-size="13" lengthAdjust="spacing" textLength="88" x="159" y="1041.9383">asynchronous</text><text fill="#000000" font-family="sans-serif" font-size="13" lengthAdjust="spacing" textLength="4" x="247" y="1041.9383">&#160;</text><text fill="#000000" font-family="sans-serif" font-size="13" lengthAdjust="spacing" textLength="68" x="251" y="1041.9383">messaging</text></g><!--link Client to CommandQueue--><g id="link_Client_CommandQueue"><path codeLine="54" d="M486.21,125.7483 C536.31,153.1583 597.706,186.7391 649.776,215.2191 " fill="none" id="Client-to-CommandQueue" style="stroke:#666666;stroke-width:1.0;"/><polygon fill="#666666" points="655.04,218.0983,649.0634,210.2701,650.6533,215.6989,645.2245,217.2888,655.04,218.0983" style="stroke:#666666;stroke-width:1.0;"/><text fill="#666666" font-family="sans-serif" font-size="12" lengthAdjust="spacing" textLength="28" x="599.4" y="168.0698">Send</text><text fill="#666666" font-family="sans-serif" font-size="12" lengthAdjust="spacing" textLength="4" x="627.4" y="168.0698">&#160;</text><text fill="#666666" font-family="sans-serif" font-size="12" lengthAdjust="spacing" textLength="65" x="631.4" y="168.0698">Commands</text><text fill="#666666" font-family="sans-serif" font-size="12" lengthAdjust="spacing" textLength="33" x="595.9" y="182.2027">[Write</text><text fill="#666666" font-family="sans-serif" font-size="12" lengthAdjust="spacing" textLength="4" x="628.9" y="182.2027">&#160;</text><text fill="#666666" font-family="sans-serif" font-size="12" lengthAdjust="spacing" textLength="67" x="632.9" y="182.2027">Operations]</text></g><!--link CommandQueue to CommandService--><g id="link_CommandQueue_CommandService"><path codeLine="55" d="M655.12,304.5683 C649.16,307.4083 643.24,310.2183 637.5,312.9383 C570.45,344.6983 500.0719,377.7699 442.3719,404.8399 " fill="none" id="CommandQueue-to-CommandService" style="stroke:#666666;stroke-width:1.0;"/><polygon fill="#666666" points="436.94,407.3883,446.7868,407.187,441.4666,405.2646,443.3889,399.9444,436.94,407.3883" style="stroke:#666666;stroke-width:1.0;"/><text fill="#666666" font-family="sans-serif" font-size="12" lengthAdjust="spacing" textLength="44" x="574.35" y="355.5398">Process</text><text fill="#666666" font-family="sans-serif" font-size="12" lengthAdjust="spacing" textLength="4" x="618.35" y="355.5398">&#160;</text><text fill="#666666" font-family="sans-serif" font-size="12" lengthAdjust="spacing" textLength="65" x="622.35" y="355.5398">Commands</text><text fill="#666666" font-family="sans-serif" font-size="12" lengthAdjust="spacing" textLength="41" x="610.35" y="369.6727">[Async]</text></g><!--link CommandService to EventStore--><g id="link_CommandService_EventStore"><path codeLine="56" d="M344.5,500.4283 C344.5,528.0083 344.5,556.5983 344.5,584.2083 " fill="none" id="CommandService-to-EventStore" style="stroke:#666666;stroke-width:1.0;"/><polygon fill="#666666" points="344.5,590.2083,348.5,581.2083,344.5,585.2083,340.5,581.2083,344.5,590.2083" style="stroke:#666666;stroke-width:1.0;"/><text fill="#666666" font-family="sans-serif" font-size="12" lengthAdjust="spacing" textLength="29" x="345.5" y="542.9998">Store</text><text fill="#666666" font-family="sans-serif" font-size="12" lengthAdjust="spacing" textLength="4" x="374.5" y="542.9998">&#160;</text><text fill="#666666" font-family="sans-serif" font-size="12" lengthAdjust="spacing" textLength="37" x="378.5" y="542.9998">Events</text><text fill="#666666" font-family="sans-serif" font-size="12" lengthAdjust="spacing" textLength="33" x="348" y="557.1327">[Write</text><text fill="#666666" font-family="sans-serif" font-size="12" lengthAdjust="spacing" textLength="4" x="381" y="557.1327">&#160;</text><text fill="#666666" font-family="sans-serif" font-size="12" lengthAdjust="spacing" textLength="28" x="385" y="557.1327">Side]</text></g><!--link EventStore to EventBus--><g id="link_EventStore_EventBus"><path codeLine="57" d="M344.5,687.8883 C344.5,715.4783 344.5,744.0683 344.5,771.6783 " fill="none" id="EventStore-to-EventBus" style="stroke:#666666;stroke-width:1.0;"/><polygon fill="#666666" points="344.5,777.6783,348.5,768.6783,344.5,772.6783,340.5,768.6783,344.5,777.6783" style="stroke:#666666;stroke-width:1.0;"/><text fill="#666666" font-family="sans-serif" font-size="12" lengthAdjust="spacing" textLength="41" x="358" y="730.4698">Publish</text><text fill="#666666" font-family="sans-serif" font-size="12" lengthAdjust="spacing" textLength="4" x="399" y="730.4698">&#160;</text><text fill="#666666" font-family="sans-serif" font-size="12" lengthAdjust="spacing" textLength="37" x="403" y="730.4698">Events</text><text fill="#666666" font-family="sans-serif" font-size="12" lengthAdjust="spacing" textLength="35" x="345.5" y="744.6027">[Event</text><text fill="#666666" font-family="sans-serif" font-size="12" lengthAdjust="spacing" textLength="4" x="380.5" y="744.6027">&#160;</text><text fill="#666666" font-family="sans-serif" font-size="12" lengthAdjust="spacing" textLength="68" x="384.5" y="744.6027">Notification]</text></g><!--link EventBus to ProjectionHandler--><g id="link_EventBus_ProjectionHandler"><path codeLine="58" d="M375.92,875.3583 C394.06,902.9383 413.5116,932.5162 431.6816,960.1262 " fill="none" id="EventBus-to-ProjectionHandler" style="stroke:#666666;stroke-width:1.0;"/><polygon fill="#666666" points="434.98,965.1383,433.3738,955.4213,432.2313,960.9616,426.691,959.8192,434.98,965.1383" style="stroke:#666666;stroke-width:1.0;"/><text fill="#666666" font-family="sans-serif" font-size="12" lengthAdjust="spacing" textLength="41" x="431.3" y="917.9298">Handle</text><text fill="#666666" font-family="sans-serif" font-size="12" lengthAdjust="spacing" textLength="4" x="472.3" y="917.9298">&#160;</text><text fill="#666666" font-family="sans-serif" font-size="12" lengthAdjust="spacing" textLength="37" x="476.3" y="917.9298">Events</text><text fill="#666666" font-family="sans-serif" font-size="12" lengthAdjust="spacing" textLength="46" x="413.8" y="932.0627">[Update</text><text fill="#666666" font-family="sans-serif" font-size="12" lengthAdjust="spacing" textLength="4" x="459.8" y="932.0627">&#160;</text><text fill="#666666" font-family="sans-serif" font-size="12" lengthAdjust="spacing" textLength="67" x="463.8" y="932.0627">Projections]</text></g><!--link ProjectionHandler to ReadDatabase--><g id="link_ProjectionHandler_ReadDatabase"><path codeLine="59" d="M377.4,1062.8183 C324.94,1090.9383 264.1881,1123.5035 212.1981,1151.3735 " fill="none" id="ProjectionHandler-to-ReadDatabase" style="stroke:#666666;stroke-width:1.0;"/><polygon fill="#666666" points="206.91,1154.2083,216.732,1153.4815,211.3168,1151.846,212.9523,1146.4307,206.91,1154.2083" style="stroke:#666666;stroke-width:1.0;"/><text fill="#666666" font-family="sans-serif" font-size="12" lengthAdjust="spacing" textLength="42" x="318.22" y="1105.3998">Update</text><text fill="#666666" font-family="sans-serif" font-size="12" lengthAdjust="spacing" textLength="4" x="360.22" y="1105.3998">&#160;</text><text fill="#666666" font-family="sans-serif" font-size="12" lengthAdjust="spacing" textLength="30" x="364.22" y="1105.3998">Read</text><text fill="#666666" font-family="sans-serif" font-size="12" lengthAdjust="spacing" textLength="4" x="394.22" y="1105.3998">&#160;</text><text fill="#666666" font-family="sans-serif" font-size="12" lengthAdjust="spacing" textLength="41" x="398.22" y="1105.3998">Models</text><text fill="#666666" font-family="sans-serif" font-size="12" lengthAdjust="spacing" textLength="52" x="315.22" y="1119.5327">[Eventual</text><text fill="#666666" font-family="sans-serif" font-size="12" lengthAdjust="spacing" textLength="4" x="367.22" y="1119.5327">&#160;</text><text fill="#666666" font-family="sans-serif" font-size="12" lengthAdjust="spacing" textLength="71" x="371.22" y="1119.5327">Consistency]</text></g><!--link Client to QueryService--><g id="link_Client_QueryService"><path codeLine="60" d="M341.24,125.7483 C292.38,152.6483 232.9165,185.3652 181.6065,213.6052 " fill="none" id="Client-to-QueryService" style="stroke:#666666;stroke-width:1.0;"/><polygon fill="#666666" points="176.35,216.4983,186.1634,215.663,180.7304,214.0874,182.306,208.6544,176.35,216.4983" style="stroke:#666666;stroke-width:1.0;"/><text fill="#666666" font-family="sans-serif" font-size="12" lengthAdjust="spacing" textLength="45" x="288.34" y="168.0698">Execute</text><text fill="#666666" font-family="sans-serif" font-size="12" lengthAdjust="spacing" textLength="4" x="333.34" y="168.0698">&#160;</text><text fill="#666666" font-family="sans-serif" font-size="12" lengthAdjust="spacing" textLength="44" x="337.34" y="168.0698">Queries</text><text fill="#666666" font-family="sans-serif" font-size="12" lengthAdjust="spacing" textLength="34" x="282.34" y="182.2027">[Read</text><text fill="#666666" font-family="sans-serif" font-size="12" lengthAdjust="spacing" textLength="4" x="316.34" y="182.2027">&#160;</text><text fill="#666666" font-family="sans-serif" font-size="12" lengthAdjust="spacing" textLength="67" x="320.34" y="182.2027">Operations]</text></g><!--link QueryService to ReadDatabase--><g id="link_QueryService_ReadDatabase"><path codeLine="61" d="M91.5,313.2383 C91.5,350.6783 91.5,403.9783 91.5,450.6683 C91.5,450.6683 91.5,450.6683 91.5,1015.0583 C91.5,1062.1583 99.4726,1109.3137 107.5226,1146.5637 " fill="none" id="QueryService-to-ReadDatabase" style="stroke:#666666;stroke-width:1.0;"/><polygon fill="#666666" points="108.79,1152.4283,110.7987,1142.7864,107.7338,1147.5411,102.9792,1144.4763,108.79,1152.4283" style="stroke:#666666;stroke-width:1.0;"/><text fill="#666666" font-family="sans-serif" font-size="12" lengthAdjust="spacing" textLength="30" x="120" y="730.4698">Read</text><text fill="#666666" font-family="sans-serif" font-size="12" lengthAdjust="spacing" textLength="4" x="150" y="730.4698">&#160;</text><text fill="#666666" font-family="sans-serif" font-size="12" lengthAdjust="spacing" textLength="27" x="154" y="730.4698">Data</text><text fill="#666666" font-family="sans-serif" font-size="12" lengthAdjust="spacing" textLength="64" x="92.5" y="744.6027">[Optimized</text><text fill="#666666" font-family="sans-serif" font-size="12" lengthAdjust="spacing" textLength="4" x="156.5" y="744.6027">&#160;</text><text fill="#666666" font-family="sans-serif" font-size="12" lengthAdjust="spacing" textLength="48" x="160.5" y="744.6027">Queries]</text></g><!--link GMN24 to QueryService--><g id="link_GMN24_QueryService"><path d="M498.91,235.8983 C474.73,213.2783 437.38,183.3083 398,170.4683 C318.98,144.7083 289.56,143.3383 211,170.4683 C184.46,179.6383 159.32,197.3983 139.01,215.0183 " fill="none" id="GMN24-QueryService" style="stroke:#666666;stroke-width:1.0;stroke-dasharray:7.0,7.0;"/></g><!--SRC=[TLN9Rjim4BthAnYV4XIEBptvK21rdBP0TYVe8GqAIXhRB2XIvc8tBVBldI6fpNPluXlEUxDnT29K8Nq9RErSRQUJYU6xyvLmQvzx2wRGoe5ovuMk9hNaolbAZgqhfSWdiu_ZUuAURwud5RSE348_P-Z1XG9pNkFTB7F2IM2pXyS5so4jkm5h-Kge5Rld3drKbfsKi4GFzZYVFLtSVhcUiq9oQxEi0qOpAJ0ETb7NKXJS2Qr6Z5kMuByPOn-O1LNET5LnLPwU1GH-G-4TF7WmRmYz3odZLRO0inK5HBw89IZnhX6HC6JUSYbAxlRGskW2y_liBUPZxRLUYUA_kXYL7wW686c2sj3fj8YcI5z21EDfvRd1yWDSWXJROndEjrISXTCcweHpE2OLNjTOim0tfE3IBGEyIg2eAkzuBY6Ox9Izl1vLmhmx7JmabThdKjXrNyRwt1P6vF2a8sV2ZSPsjSXG8tHnqAs07EjLq_102RoyChgwqIN8XEdQYKhyWV9AcqUq7ueHoYuvPirj52Ea0P9O2KgR2YS1cSWqvFwcIfm_6y0D1NJNMARC6GzxYlT6_uA29fjz3KcO8Dl12Hqasg-fhsaWASn-gXK-HdgG-2wjm4UgYZGdwUcCnv-6ypTbemKEHGFQ7-hbkn4Es5qD9hmy-phA1YuzZgORqv0GFOO-qOLzKqNdtLmc_zviKWJX8mv26y12b83ElPkj8mqRISP9wnpZNDvg9vPfRJG4v47kX_L5dlZPqJo7qlRkKWaEFOblC2P8bLp3F8M-j65vBbclArIMhYM3qKQQUTna0HT0785nq9E1px5Osg56ztOO6qeao9H62IDMQyVqCYrNdA8KbuKQDuu3otRK3pJeLfurcygUiIM-DZJImnlSs4IXiup6YwIIeDDra1iC1SccHMa5_Pz2ZItZKg8f1D0dHol2ULgyJDBcRPOqNjYNbB0CAVPBXlvnnGGzORkNZ9QbDWS9qVyCJVqjm52EiohqULypryxfYbIR0KJdEA0ODsvysh0KkhOKIw4z_klmFvc3sm4ebWgC9YhAfWtLChV6lRcYM3WzC3mfZOnLywlj8la7]--></g></svg>