<?xml version="1.0" encoding="us-ascii" standalone="no"?><svg xmlns="http://www.w3.org/2000/svg" xmlns:xlink="http://www.w3.org/1999/xlink" contentStyleType="text/css" height="747px" preserveAspectRatio="none" style="width:1070px;height:747px;background:#FFFFFF;" version="1.1" viewBox="0 0 1070 747" width="1070px" zoomAndPan="magnify"><defs/><g><text fill="#000000" font-family="sans-serif" font-size="14" font-weight="bold" lengthAdjust="spacing" textLength="218" x="419" y="23.5352">Hybrid Kafka + Queue Pattern</text><!--class Producer--><g id="elem_Producer"><rect codeLine="7" fill="#F1F1F1" height="97.4648" id="Producer" rx="2.5" ry="2.5" style="stroke:#181818;stroke-width:0.5;" width="152" x="252" y="45.6783"/><ellipse cx="269.7" cy="61.6783" fill="#ADD1B2" rx="11" ry="11" style="stroke:#181818;stroke-width:1.0;"/><path d="M272.1731,67.8213 Q271.5921,68.1202 270.9529,68.2696 Q270.3138,68.419 269.6082,68.419 Q267.1014,68.419 265.7815,66.7671 Q264.4617,65.1153 264.4617,61.9942 Q264.4617,58.8648 265.7815,57.2129 Q267.1014,55.5611 269.6082,55.5611 Q270.3138,55.5611 270.9612,55.7105 Q271.6087,55.8599 272.1731,56.1588 L272.1731,58.8814 Q271.5423,58.3004 270.9488,58.0306 Q270.3553,57.7608 269.7244,57.7608 Q268.3797,57.7608 267.6949,58.8275 Q267.0101,59.8941 267.0101,61.9942 Q267.0101,64.086 267.6949,65.1526 Q268.3797,66.2193 269.7244,66.2193 Q270.3553,66.2193 270.9488,65.9495 Q271.5423,65.6797 272.1731,65.0987 Z " fill="#000000"/><text fill="#000000" font-family="sans-serif" font-size="14" lengthAdjust="spacing" textLength="62" x="284.3" y="66.9693">Producer</text><text fill="#000000" font-family="sans-serif" font-size="14" lengthAdjust="spacing" textLength="4" x="346.3" y="66.9693">&#160;</text><text fill="#000000" font-family="sans-serif" font-size="14" lengthAdjust="spacing" textLength="48" x="350.3" y="66.9693">Service</text><line style="stroke:#181818;stroke-width:0.5;" x1="253" x2="403" y1="77.6783" y2="77.6783"/><line style="stroke:#181818;stroke-width:0.5;" x1="253" x2="403" y1="85.6783" y2="85.6783"/><ellipse cx="263" cy="99.4224" fill="#84BE84" rx="3" ry="3" style="stroke:#038048;stroke-width:1.0;"/><text fill="#000000" font-family="sans-serif" font-size="14" lengthAdjust="spacing" textLength="126" x="272" y="103.2134">produceMessage()</text><ellipse cx="263" cy="115.9107" fill="#84BE84" rx="3" ry="3" style="stroke:#038048;stroke-width:1.0;"/><text fill="#000000" font-family="sans-serif" font-size="14" lengthAdjust="spacing" textLength="103" x="272" y="119.7017">routeToKafka()</text><ellipse cx="263" cy="132.399" fill="#84BE84" rx="3" ry="3" style="stroke:#038048;stroke-width:1.0;"/><text fill="#000000" font-family="sans-serif" font-size="14" lengthAdjust="spacing" textLength="110" x="272" y="136.19">routeToQueue()</text></g><!--class KafkaCluster--><g id="elem_KafkaCluster"><rect codeLine="13" fill="#F1F1F1" height="113.9531" id="KafkaCluster" rx="2.5" ry="2.5" style="stroke:#181818;stroke-width:0.5;" width="183" x="679.5" y="235.3483"/><ellipse cx="721.5" cy="251.3483" fill="#ADD1B2" rx="11" ry="11" style="stroke:#181818;stroke-width:1.0;"/><path d="M723.9731,257.4913 Q723.3921,257.7902 722.7529,257.9396 Q722.1138,258.089 721.4082,258.089 Q718.9014,258.089 717.5815,256.4371 Q716.2617,254.7853 716.2617,251.6642 Q716.2617,248.5348 717.5815,246.8829 Q718.9014,245.2311 721.4082,245.2311 Q722.1138,245.2311 722.7612,245.3805 Q723.4087,245.5299 723.9731,245.8288 L723.9731,248.5514 Q723.3423,247.9704 722.7488,247.7006 Q722.1553,247.4308 721.5244,247.4308 Q720.1797,247.4308 719.4949,248.4975 Q718.8101,249.5641 718.8101,251.6642 Q718.8101,253.756 719.4949,254.8226 Q720.1797,255.8893 721.5244,255.8893 Q722.1553,255.8893 722.7488,255.6195 Q723.3423,255.3497 723.9731,254.7687 Z " fill="#000000"/><text fill="#000000" font-family="sans-serif" font-size="14" lengthAdjust="spacing" textLength="38" x="741.5" y="256.6393">Kafka</text><text fill="#000000" font-family="sans-serif" font-size="14" lengthAdjust="spacing" textLength="4" x="779.5" y="256.6393">&#160;</text><text fill="#000000" font-family="sans-serif" font-size="14" lengthAdjust="spacing" textLength="49" x="783.5" y="256.6393">Cluster</text><line style="stroke:#181818;stroke-width:0.5;" x1="680.5" x2="861.5" y1="267.3483" y2="267.3483"/><ellipse cx="690.5" cy="289.3366" fill="none" rx="3" ry="3" style="stroke:#038048;stroke-width:1.0;"/><text fill="#000000" font-family="sans-serif" font-size="14" lengthAdjust="spacing" textLength="45" x="699.5" y="284.8834">topics:</text><text fill="#000000" font-family="sans-serif" font-size="14" lengthAdjust="spacing" textLength="4" x="744.5" y="284.8834">&#160;</text><text fill="#000000" font-family="sans-serif" font-size="14" lengthAdjust="spacing" textLength="101" x="748.5" y="284.8834">["user-events",</text><text fill="#000000" font-family="sans-serif" font-size="14" lengthAdjust="spacing" textLength="74" x="699.5" y="301.3717">"analytics"]</text><ellipse cx="690.5" cy="314.069" fill="none" rx="3" ry="3" style="stroke:#038048;stroke-width:1.0;"/><text fill="#000000" font-family="sans-serif" font-size="14" lengthAdjust="spacing" textLength="70" x="699.5" y="317.86">partitions:</text><text fill="#000000" font-family="sans-serif" font-size="14" lengthAdjust="spacing" textLength="4" x="769.5" y="317.86">&#160;</text><text fill="#000000" font-family="sans-serif" font-size="14" lengthAdjust="spacing" textLength="9" x="773.5" y="317.86">3</text><ellipse cx="690.5" cy="330.5573" fill="none" rx="3" ry="3" style="stroke:#038048;stroke-width:1.0;"/><text fill="#000000" font-family="sans-serif" font-size="14" lengthAdjust="spacing" textLength="125" x="699.5" y="334.3483">streamProcessing:</text><text fill="#000000" font-family="sans-serif" font-size="14" lengthAdjust="spacing" textLength="4" x="824.5" y="334.3483">&#160;</text><text fill="#000000" font-family="sans-serif" font-size="14" lengthAdjust="spacing" textLength="28" x="828.5" y="334.3483">true</text><line style="stroke:#181818;stroke-width:0.5;" x1="680.5" x2="861.5" y1="341.3014" y2="341.3014"/></g><!--class MessageQueue--><g id="elem_MessageQueue"><rect codeLine="19" fill="#F1F1F1" height="97.4648" id="MessageQueue" rx="2.5" ry="2.5" style="stroke:#181818;stroke-width:0.5;" width="195" x="230.5" y="243.5883"/><ellipse cx="270.25" cy="259.5883" fill="#ADD1B2" rx="11" ry="11" style="stroke:#181818;stroke-width:1.0;"/><path d="M272.7231,265.7313 Q272.1421,266.0302 271.5029,266.1796 Q270.8638,266.329 270.1582,266.329 Q267.6514,266.329 266.3315,264.6771 Q265.0117,263.0253 265.0117,259.9042 Q265.0117,256.7748 266.3315,255.1229 Q267.6514,253.4711 270.1582,253.4711 Q270.8638,253.4711 271.5112,253.6205 Q272.1587,253.7699 272.7231,254.0688 L272.7231,256.7914 Q272.0923,256.2104 271.4988,255.9406 Q270.9053,255.6708 270.2744,255.6708 Q268.9297,255.6708 268.2449,256.7375 Q267.5601,257.8041 267.5601,259.9042 Q267.5601,261.996 268.2449,263.0626 Q268.9297,264.1293 270.2744,264.1293 Q270.9053,264.1293 271.4988,263.8595 Q272.0923,263.5897 272.7231,263.0087 Z " fill="#000000"/><text fill="#000000" font-family="sans-serif" font-size="14" lengthAdjust="spacing" textLength="59" x="289.75" y="264.8793">Message</text><text fill="#000000" font-family="sans-serif" font-size="14" lengthAdjust="spacing" textLength="4" x="348.75" y="264.8793">&#160;</text><text fill="#000000" font-family="sans-serif" font-size="14" lengthAdjust="spacing" textLength="45" x="352.75" y="264.8793">Queue</text><line style="stroke:#181818;stroke-width:0.5;" x1="231.5" x2="424.5" y1="275.5883" y2="275.5883"/><ellipse cx="241.5" cy="289.3324" fill="none" rx="3" ry="3" style="stroke:#038048;stroke-width:1.0;"/><text fill="#000000" font-family="sans-serif" font-size="14" lengthAdjust="spacing" textLength="134" x="250.5" y="293.1234">transactionalQueue</text><ellipse cx="241.5" cy="305.8207" fill="none" rx="3" ry="3" style="stroke:#038048;stroke-width:1.0;"/><text fill="#000000" font-family="sans-serif" font-size="14" lengthAdjust="spacing" textLength="137" x="250.5" y="309.6117">guaranteedDelivery:</text><text fill="#000000" font-family="sans-serif" font-size="14" lengthAdjust="spacing" textLength="4" x="387.5" y="309.6117">&#160;</text><text fill="#000000" font-family="sans-serif" font-size="14" lengthAdjust="spacing" textLength="28" x="391.5" y="309.6117">true</text><ellipse cx="241.5" cy="322.309" fill="none" rx="3" ry="3" style="stroke:#038048;stroke-width:1.0;"/><text fill="#000000" font-family="sans-serif" font-size="14" lengthAdjust="spacing" textLength="38" x="250.5" y="326.1">ACID:</text><text fill="#000000" font-family="sans-serif" font-size="14" lengthAdjust="spacing" textLength="4" x="288.5" y="326.1">&#160;</text><text fill="#000000" font-family="sans-serif" font-size="14" lengthAdjust="spacing" textLength="28" x="292.5" y="326.1">true</text><line style="stroke:#181818;stroke-width:0.5;" x1="231.5" x2="424.5" y1="333.0531" y2="333.0531"/></g><!--class StreamProcessor--><g id="elem_StreamProcessor"><rect codeLine="25" fill="#F1F1F1" height="97.4648" id="StreamProcessor" rx="2.5" ry="2.5" style="stroke:#181818;stroke-width:0.5;" width="157" x="692.5" y="439.2983"/><ellipse cx="710.2" cy="455.2983" fill="#ADD1B2" rx="11" ry="11" style="stroke:#181818;stroke-width:1.0;"/><path d="M712.6731,461.4413 Q712.0921,461.7402 711.4529,461.8896 Q710.8138,462.039 710.1082,462.039 Q707.6014,462.039 706.2815,460.3871 Q704.9617,458.7353 704.9617,455.6142 Q704.9617,452.4848 706.2815,450.8329 Q707.6014,449.1811 710.1082,449.1811 Q710.8138,449.1811 711.4612,449.3305 Q712.1087,449.4799 712.6731,449.7788 L712.6731,452.5014 Q712.0423,451.9204 711.4488,451.6506 Q710.8553,451.3808 710.2244,451.3808 Q708.8797,451.3808 708.1949,452.4475 Q707.5101,453.5141 707.5101,455.6142 Q707.5101,457.706 708.1949,458.7726 Q708.8797,459.8393 710.2244,459.8393 Q710.8553,459.8393 711.4488,459.5695 Q712.0423,459.2997 712.6731,458.7187 Z " fill="#000000"/><text fill="#000000" font-family="sans-serif" font-size="14" lengthAdjust="spacing" textLength="48" x="724.8" y="460.5893">Stream</text><text fill="#000000" font-family="sans-serif" font-size="14" lengthAdjust="spacing" textLength="4" x="772.8" y="460.5893">&#160;</text><text fill="#000000" font-family="sans-serif" font-size="14" lengthAdjust="spacing" textLength="67" x="776.8" y="460.5893">Processor</text><line style="stroke:#181818;stroke-width:0.5;" x1="693.5" x2="848.5" y1="471.2983" y2="471.2983"/><line style="stroke:#181818;stroke-width:0.5;" x1="693.5" x2="848.5" y1="479.2983" y2="479.2983"/><ellipse cx="703.5" cy="493.0424" fill="#84BE84" rx="3" ry="3" style="stroke:#038048;stroke-width:1.0;"/><text fill="#000000" font-family="sans-serif" font-size="14" lengthAdjust="spacing" textLength="111" x="712.5" y="496.8334">processStream()</text><ellipse cx="703.5" cy="509.5307" fill="#84BE84" rx="3" ry="3" style="stroke:#038048;stroke-width:1.0;"/><text fill="#000000" font-family="sans-serif" font-size="14" lengthAdjust="spacing" textLength="111" x="712.5" y="513.3217">aggregateData()</text><ellipse cx="703.5" cy="526.019" fill="#84BE84" rx="3" ry="3" style="stroke:#038048;stroke-width:1.0;"/><text fill="#000000" font-family="sans-serif" font-size="14" lengthAdjust="spacing" textLength="131" x="712.5" y="529.81">realTimeAnalytics()</text></g><!--class AnalyticsService--><g id="elem_AnalyticsService"><rect codeLine="31" fill="#F1F1F1" height="97.4648" id="AnalyticsService" rx="2.5" ry="2.5" style="stroke:#181818;stroke-width:0.5;" width="162" x="901" y="635.0083"/><ellipse cx="923.65" cy="651.0083" fill="#ADD1B2" rx="11" ry="11" style="stroke:#181818;stroke-width:1.0;"/><path d="M926.1231,657.1513 Q925.5421,657.4502 924.9029,657.5996 Q924.2638,657.749 923.5582,657.749 Q921.0514,657.749 919.7315,656.0971 Q918.4117,654.4453 918.4117,651.3242 Q918.4117,648.1948 919.7315,646.5429 Q921.0514,644.8911 923.5582,644.8911 Q924.2638,644.8911 924.9112,645.0405 Q925.5587,645.1899 926.1231,645.4888 L926.1231,648.2114 Q925.4923,647.6304 924.8988,647.3606 Q924.3053,647.0908 923.6744,647.0908 Q922.3297,647.0908 921.6449,648.1575 Q920.9601,649.2241 920.9601,651.3242 Q920.9601,653.416 921.6449,654.4826 Q922.3297,655.5493 923.6744,655.5493 Q924.3053,655.5493 924.8988,655.2795 Q925.4923,655.0097 926.1231,654.4287 Z " fill="#000000"/><text fill="#000000" font-family="sans-serif" font-size="14" lengthAdjust="spacing" textLength="61" x="939.35" y="656.2993">Analytics</text><text fill="#000000" font-family="sans-serif" font-size="14" lengthAdjust="spacing" textLength="4" x="1000.35" y="656.2993">&#160;</text><text fill="#000000" font-family="sans-serif" font-size="14" lengthAdjust="spacing" textLength="48" x="1004.35" y="656.2993">Service</text><line style="stroke:#181818;stroke-width:0.5;" x1="902" x2="1062" y1="667.0083" y2="667.0083"/><ellipse cx="912" cy="680.7524" fill="none" rx="3" ry="3" style="stroke:#038048;stroke-width:1.0;"/><text fill="#000000" font-family="sans-serif" font-size="14" lengthAdjust="spacing" textLength="104" x="921" y="684.5434">streamingData:</text><text fill="#000000" font-family="sans-serif" font-size="14" lengthAdjust="spacing" textLength="4" x="1025" y="684.5434">&#160;</text><text fill="#000000" font-family="sans-serif" font-size="14" lengthAdjust="spacing" textLength="28" x="1029" y="684.5434">true</text><line style="stroke:#181818;stroke-width:0.5;" x1="902" x2="1062" y1="691.4966" y2="691.4966"/><ellipse cx="912" cy="705.2407" fill="#84BE84" rx="3" ry="3" style="stroke:#038048;stroke-width:1.0;"/><text fill="#000000" font-family="sans-serif" font-size="14" lengthAdjust="spacing" textLength="124" x="921" y="709.0317">generateReports()</text><ellipse cx="912" cy="721.729" fill="#84BE84" rx="3" ry="3" style="stroke:#038048;stroke-width:1.0;"/><text fill="#000000" font-family="sans-serif" font-size="14" lengthAdjust="spacing" textLength="112" x="921" y="725.52">processMetrics()</text></g><!--class TransactionProcessor--><g id="elem_TransactionProcessor"><rect codeLine="37" fill="#F1F1F1" height="97.4648" id="TransactionProcessor" rx="2.5" ry="2.5" style="stroke:#181818;stroke-width:0.5;" width="184" x="236" y="439.2983"/><ellipse cx="251" cy="455.2983" fill="#ADD1B2" rx="11" ry="11" style="stroke:#181818;stroke-width:1.0;"/><path d="M253.4731,461.4413 Q252.8921,461.7402 252.2529,461.8896 Q251.6138,462.039 250.9082,462.039 Q248.4014,462.039 247.0815,460.3871 Q245.7617,458.7353 245.7617,455.6142 Q245.7617,452.4848 247.0815,450.8329 Q248.4014,449.1811 250.9082,449.1811 Q251.6138,449.1811 252.2612,449.3305 Q252.9087,449.4799 253.4731,449.7788 L253.4731,452.5014 Q252.8423,451.9204 252.2488,451.6506 Q251.6553,451.3808 251.0244,451.3808 Q249.6797,451.3808 248.9949,452.4475 Q248.3101,453.5141 248.3101,455.6142 Q248.3101,457.706 248.9949,458.7726 Q249.6797,459.8393 251.0244,459.8393 Q251.6553,459.8393 252.2488,459.5695 Q252.8423,459.2997 253.4731,458.7187 Z " fill="#000000"/><text fill="#000000" font-family="sans-serif" font-size="14" lengthAdjust="spacing" textLength="81" x="265" y="460.5893">Transaction</text><text fill="#000000" font-family="sans-serif" font-size="14" lengthAdjust="spacing" textLength="4" x="346" y="460.5893">&#160;</text><text fill="#000000" font-family="sans-serif" font-size="14" lengthAdjust="spacing" textLength="67" x="350" y="460.5893">Processor</text><line style="stroke:#181818;stroke-width:0.5;" x1="237" x2="419" y1="471.2983" y2="471.2983"/><line style="stroke:#181818;stroke-width:0.5;" x1="237" x2="419" y1="479.2983" y2="479.2983"/><ellipse cx="247" cy="493.0424" fill="#84BE84" rx="3" ry="3" style="stroke:#038048;stroke-width:1.0;"/><text fill="#000000" font-family="sans-serif" font-size="14" lengthAdjust="spacing" textLength="144" x="256" y="496.8334">processTransaction()</text><ellipse cx="247" cy="509.5307" fill="#84BE84" rx="3" ry="3" style="stroke:#038048;stroke-width:1.0;"/><text fill="#000000" font-family="sans-serif" font-size="14" lengthAdjust="spacing" textLength="91" x="256" y="513.3217">ensureACID()</text><ellipse cx="247" cy="526.019" fill="#84BE84" rx="3" ry="3" style="stroke:#038048;stroke-width:1.0;"/><text fill="#000000" font-family="sans-serif" font-size="14" lengthAdjust="spacing" textLength="111" x="256" y="529.81">handleFailures()</text></g><!--class PaymentService--><g id="elem_PaymentService"><rect codeLine="43" fill="#F1F1F1" height="113.9531" id="PaymentService" rx="2.5" ry="2.5" style="stroke:#181818;stroke-width:0.5;" width="197" x="229.5" y="626.7683"/><ellipse cx="269.25" cy="642.7683" fill="#ADD1B2" rx="11" ry="11" style="stroke:#181818;stroke-width:1.0;"/><path d="M271.7231,648.9113 Q271.1421,649.2102 270.5029,649.3596 Q269.8638,649.509 269.1582,649.509 Q266.6514,649.509 265.3315,647.8571 Q264.0117,646.2053 264.0117,643.0842 Q264.0117,639.9548 265.3315,638.3029 Q266.6514,636.6511 269.1582,636.6511 Q269.8638,636.6511 270.5112,636.8005 Q271.1587,636.9499 271.7231,637.2488 L271.7231,639.9714 Q271.0923,639.3904 270.4988,639.1206 Q269.9053,638.8508 269.2744,638.8508 Q267.9297,638.8508 267.2449,639.9175 Q266.5601,640.9841 266.5601,643.0842 Q266.5601,645.176 267.2449,646.2426 Q267.9297,647.3093 269.2744,647.3093 Q269.9053,647.3093 270.4988,647.0395 Q271.0923,646.7697 271.7231,646.1887 Z " fill="#000000"/><text fill="#000000" font-family="sans-serif" font-size="14" lengthAdjust="spacing" textLength="58" x="288.75" y="648.0593">Payment</text><text fill="#000000" font-family="sans-serif" font-size="14" lengthAdjust="spacing" textLength="4" x="346.75" y="648.0593">&#160;</text><text fill="#000000" font-family="sans-serif" font-size="14" lengthAdjust="spacing" textLength="48" x="350.75" y="648.0593">Service</text><line style="stroke:#181818;stroke-width:0.5;" x1="230.5" x2="425.5" y1="658.7683" y2="658.7683"/><ellipse cx="240.5" cy="680.7566" fill="none" rx="3" ry="3" style="stroke:#038048;stroke-width:1.0;"/><text fill="#000000" font-family="sans-serif" font-size="14" lengthAdjust="spacing" textLength="171" x="249.5" y="676.3034">transactionalGuarantees:</text><text fill="#000000" font-family="sans-serif" font-size="14" lengthAdjust="spacing" textLength="28" x="249.5" y="692.7917">true</text><ellipse cx="240.5" cy="705.489" fill="none" rx="3" ry="3" style="stroke:#038048;stroke-width:1.0;"/><text fill="#000000" font-family="sans-serif" font-size="14" lengthAdjust="spacing" textLength="125" x="249.5" y="709.28">criticalOperations:</text><text fill="#000000" font-family="sans-serif" font-size="14" lengthAdjust="spacing" textLength="4" x="374.5" y="709.28">&#160;</text><text fill="#000000" font-family="sans-serif" font-size="14" lengthAdjust="spacing" textLength="28" x="378.5" y="709.28">true</text><line style="stroke:#181818;stroke-width:0.5;" x1="230.5" x2="425.5" y1="716.2331" y2="716.2331"/><ellipse cx="240.5" cy="729.9773" fill="#84BE84" rx="3" ry="3" style="stroke:#038048;stroke-width:1.0;"/><text fill="#000000" font-family="sans-serif" font-size="14" lengthAdjust="spacing" textLength="121" x="249.5" y="733.7683">processPayment()</text></g><!--class DataLake--><g id="elem_DataLake"><rect codeLine="49" fill="#F1F1F1" height="97.4648" id="DataLake" rx="2.5" ry="2.5" style="stroke:#181818;stroke-width:0.5;" width="146" x="495" y="635.0083"/><ellipse cx="531.6" cy="651.0083" fill="#ADD1B2" rx="11" ry="11" style="stroke:#181818;stroke-width:1.0;"/><path d="M534.0731,657.1513 Q533.4921,657.4502 532.8529,657.5996 Q532.2138,657.749 531.5082,657.749 Q529.0014,657.749 527.6815,656.0971 Q526.3617,654.4453 526.3617,651.3242 Q526.3617,648.1948 527.6815,646.5429 Q529.0014,644.8911 531.5082,644.8911 Q532.2138,644.8911 532.8612,645.0405 Q533.5087,645.1899 534.0731,645.4888 L534.0731,648.2114 Q533.4423,647.6304 532.8488,647.3606 Q532.2553,647.0908 531.6244,647.0908 Q530.2797,647.0908 529.5949,648.1575 Q528.9101,649.2241 528.9101,651.3242 Q528.9101,653.416 529.5949,654.4826 Q530.2797,655.5493 531.6244,655.5493 Q532.2553,655.5493 532.8488,655.2795 Q533.4423,655.0097 534.0731,654.4287 Z " fill="#000000"/><text fill="#000000" font-family="sans-serif" font-size="14" lengthAdjust="spacing" textLength="31" x="550.4" y="656.2993">Data</text><text fill="#000000" font-family="sans-serif" font-size="14" lengthAdjust="spacing" textLength="4" x="581.4" y="656.2993">&#160;</text><text fill="#000000" font-family="sans-serif" font-size="14" lengthAdjust="spacing" textLength="31" x="585.4" y="656.2993">Lake</text><line style="stroke:#181818;stroke-width:0.5;" x1="496" x2="640" y1="667.0083" y2="667.0083"/><ellipse cx="506" cy="680.7524" fill="none" rx="3" ry="3" style="stroke:#038048;stroke-width:1.0;"/><text fill="#000000" font-family="sans-serif" font-size="14" lengthAdjust="spacing" textLength="94" x="515" y="684.5434">historicalData</text><ellipse cx="506" cy="697.2407" fill="none" rx="3" ry="3" style="stroke:#038048;stroke-width:1.0;"/><text fill="#000000" font-family="sans-serif" font-size="14" lengthAdjust="spacing" textLength="112" x="515" y="701.0317">batchProcessing</text><ellipse cx="506" cy="713.729" fill="none" rx="3" ry="3" style="stroke:#038048;stroke-width:1.0;"/><text fill="#000000" font-family="sans-serif" font-size="14" lengthAdjust="spacing" textLength="120" x="515" y="717.52">longTermStorage</text><line style="stroke:#181818;stroke-width:0.5;" x1="496" x2="640" y1="724.4731" y2="724.4731"/></g><g id="elem_GMN17"><path d="M439,43.4883 L439,90.4183 L404.4,94.4183 L439,98.4183 L439,145.3516 A0,0 0 0 0 439,145.3516 L659,145.3516 A0,0 0 0 0 659,145.3516 L659,53.4883 L649,43.4883 L439,43.4883 A0,0 0 0 0 439,43.4883 " fill="#FEFFDD" style="stroke:#181818;stroke-width:0.5;"/><path d="M649,43.4883 L649,53.4883 L659,53.4883 L649,43.4883 " fill="#FEFFDD" style="stroke:#181818;stroke-width:0.5;"/><text fill="#000000" font-family="sans-serif" font-size="13" lengthAdjust="spacing" textLength="55" x="455.5" y="61.0566">Producer</text><text fill="#000000" font-family="sans-serif" font-size="13" lengthAdjust="spacing" textLength="4" x="510.5" y="61.0566">&#160;</text><text fill="#000000" font-family="sans-serif" font-size="13" lengthAdjust="spacing" textLength="75" x="514.5" y="61.0566">intelligently</text><text fill="#000000" font-family="sans-serif" font-size="13" lengthAdjust="spacing" textLength="4" x="589.5" y="61.0566">&#160;</text><text fill="#000000" font-family="sans-serif" font-size="13" lengthAdjust="spacing" textLength="40" x="593.5" y="61.0566">routes</text><text fill="#000000" font-family="sans-serif" font-size="13" lengthAdjust="spacing" textLength="62" x="483" y="76.3672">messages</text><text fill="#000000" font-family="sans-serif" font-size="13" lengthAdjust="spacing" textLength="4" x="545" y="76.3672">&#160;</text><text fill="#000000" font-family="sans-serif" font-size="13" lengthAdjust="spacing" textLength="37" x="549" y="76.3672">based</text><text fill="#000000" font-family="sans-serif" font-size="13" lengthAdjust="spacing" textLength="4" x="586" y="76.3672">&#160;</text><text fill="#000000" font-family="sans-serif" font-size="13" lengthAdjust="spacing" textLength="16" x="590" y="76.3672">on</text><text fill="#000000" font-family="sans-serif" font-size="13" lengthAdjust="spacing" textLength="87" x="501" y="91.6777">requirements:</text><text fill="#000000" font-family="sans-serif" font-size="13" lengthAdjust="spacing" textLength="8" x="445" y="106.9883">-</text><text fill="#000000" font-family="sans-serif" font-size="13" lengthAdjust="spacing" textLength="4" x="453" y="106.9883">&#160;</text><text fill="#000000" font-family="sans-serif" font-size="13" lengthAdjust="spacing" textLength="35" x="457" y="106.9883">Kafka</text><text fill="#000000" font-family="sans-serif" font-size="13" lengthAdjust="spacing" textLength="4" x="492" y="106.9883">&#160;</text><text fill="#000000" font-family="sans-serif" font-size="13" lengthAdjust="spacing" textLength="18" x="496" y="106.9883">for</text><text fill="#000000" font-family="sans-serif" font-size="13" lengthAdjust="spacing" textLength="4" x="514" y="106.9883">&#160;</text><text fill="#000000" font-family="sans-serif" font-size="13" lengthAdjust="spacing" textLength="126" x="518" y="106.9883">streaming/analytics</text><text fill="#000000" font-family="sans-serif" font-size="13" lengthAdjust="spacing" textLength="8" x="464.5" y="122.2988">-</text><text fill="#000000" font-family="sans-serif" font-size="13" lengthAdjust="spacing" textLength="4" x="472.5" y="122.2988">&#160;</text><text fill="#000000" font-family="sans-serif" font-size="13" lengthAdjust="spacing" textLength="40" x="476.5" y="122.2988">Queue</text><text fill="#000000" font-family="sans-serif" font-size="13" lengthAdjust="spacing" textLength="4" x="516.5" y="122.2988">&#160;</text><text fill="#000000" font-family="sans-serif" font-size="13" lengthAdjust="spacing" textLength="18" x="520.5" y="122.2988">for</text><text fill="#000000" font-family="sans-serif" font-size="13" lengthAdjust="spacing" textLength="4" x="538.5" y="122.2988">&#160;</text><text fill="#000000" font-family="sans-serif" font-size="13" lengthAdjust="spacing" textLength="82" x="542.5" y="122.2988">transactional</text><text fill="#000000" font-family="sans-serif" font-size="13" lengthAdjust="spacing" textLength="69" x="510" y="137.6094">processing</text></g><g id="elem_GMN20"><path d="M694,66.4483 L694,122.3799 A0,0 0 0 0 694,122.3799 L795.41,122.3799 L780.5,234.9483 L803.41,122.3799 L914,122.3799 A0,0 0 0 0 914,122.3799 L914,76.4483 L904,66.4483 L694,66.4483 A0,0 0 0 0 694,66.4483 " fill="#FEFFDD" style="stroke:#181818;stroke-width:0.5;"/><path d="M904,66.4483 L904,76.4483 L914,76.4483 L904,66.4483 " fill="#FEFFDD" style="stroke:#181818;stroke-width:0.5;"/><text fill="#000000" font-family="sans-serif" font-size="13" lengthAdjust="spacing" textLength="35" x="700" y="84.0166">Kafka</text><text fill="#000000" font-family="sans-serif" font-size="13" lengthAdjust="spacing" textLength="4" x="735" y="84.0166">&#160;</text><text fill="#000000" font-family="sans-serif" font-size="13" lengthAdjust="spacing" textLength="49" x="739" y="84.0166">handles</text><text fill="#000000" font-family="sans-serif" font-size="13" lengthAdjust="spacing" textLength="4" x="788" y="84.0166">&#160;</text><text fill="#000000" font-family="sans-serif" font-size="13" lengthAdjust="spacing" textLength="107" x="792" y="84.0166">high-throughput</text><text fill="#000000" font-family="sans-serif" font-size="13" lengthAdjust="spacing" textLength="63" x="710" y="99.3272">streaming</text><text fill="#000000" font-family="sans-serif" font-size="13" lengthAdjust="spacing" textLength="4" x="773" y="99.3272">&#160;</text><text fill="#000000" font-family="sans-serif" font-size="13" lengthAdjust="spacing" textLength="27" x="777" y="99.3272">data</text><text fill="#000000" font-family="sans-serif" font-size="13" lengthAdjust="spacing" textLength="4" x="804" y="99.3272">&#160;</text><text fill="#000000" font-family="sans-serif" font-size="13" lengthAdjust="spacing" textLength="18" x="808" y="99.3272">for</text><text fill="#000000" font-family="sans-serif" font-size="13" lengthAdjust="spacing" textLength="4" x="826" y="99.3272">&#160;</text><text fill="#000000" font-family="sans-serif" font-size="13" lengthAdjust="spacing" textLength="59" x="830" y="99.3272">real-time</text><text fill="#000000" font-family="sans-serif" font-size="13" lengthAdjust="spacing" textLength="56" x="702.5" y="114.6377">analytics</text><text fill="#000000" font-family="sans-serif" font-size="13" lengthAdjust="spacing" textLength="4" x="758.5" y="114.6377">&#160;</text><text fill="#000000" font-family="sans-serif" font-size="13" lengthAdjust="spacing" textLength="23" x="762.5" y="114.6377">and</text><text fill="#000000" font-family="sans-serif" font-size="13" lengthAdjust="spacing" textLength="4" x="785.5" y="114.6377">&#160;</text><text fill="#000000" font-family="sans-serif" font-size="13" lengthAdjust="spacing" textLength="34" x="789.5" y="114.6377">event</text><text fill="#000000" font-family="sans-serif" font-size="13" lengthAdjust="spacing" textLength="4" x="823.5" y="114.6377">&#160;</text><text fill="#000000" font-family="sans-serif" font-size="13" lengthAdjust="spacing" textLength="69" x="827.5" y="114.6377">processing</text></g><g id="elem_GMN23"><path d="M6,264.3583 L6,320.2899 A0,0 0 0 0 6,320.2899 L196,320.2899 A0,0 0 0 0 196,320.2899 L196,296.3283 L230.01,292.3283 L196,288.3283 L196,274.3583 L186,264.3583 L6,264.3583 A0,0 0 0 0 6,264.3583 " fill="#FEFFDD" style="stroke:#181818;stroke-width:0.5;"/><path d="M186,264.3583 L186,274.3583 L196,274.3583 L186,264.3583 " fill="#FEFFDD" style="stroke:#181818;stroke-width:0.5;"/><text fill="#000000" font-family="sans-serif" font-size="13" lengthAdjust="spacing" textLength="68" x="15" y="281.9266">Traditional</text><text fill="#000000" font-family="sans-serif" font-size="13" lengthAdjust="spacing" textLength="4" x="83" y="281.9266">&#160;</text><text fill="#000000" font-family="sans-serif" font-size="13" lengthAdjust="spacing" textLength="38" x="87" y="281.9266">queue</text><text fill="#000000" font-family="sans-serif" font-size="13" lengthAdjust="spacing" textLength="4" x="125" y="281.9266">&#160;</text><text fill="#000000" font-family="sans-serif" font-size="13" lengthAdjust="spacing" textLength="49" x="129" y="281.9266">ensures</text><text fill="#000000" font-family="sans-serif" font-size="13" lengthAdjust="spacing" textLength="32" x="12" y="297.2372">ACID</text><text fill="#000000" font-family="sans-serif" font-size="13" lengthAdjust="spacing" textLength="4" x="44" y="297.2372">&#160;</text><text fill="#000000" font-family="sans-serif" font-size="13" lengthAdjust="spacing" textLength="64" x="48" y="297.2372">properties</text><text fill="#000000" font-family="sans-serif" font-size="13" lengthAdjust="spacing" textLength="4" x="112" y="297.2372">&#160;</text><text fill="#000000" font-family="sans-serif" font-size="13" lengthAdjust="spacing" textLength="18" x="116" y="297.2372">for</text><text fill="#000000" font-family="sans-serif" font-size="13" lengthAdjust="spacing" textLength="4" x="134" y="297.2372">&#160;</text><text fill="#000000" font-family="sans-serif" font-size="13" lengthAdjust="spacing" textLength="43" x="138" y="297.2372">critical</text><text fill="#000000" font-family="sans-serif" font-size="13" lengthAdjust="spacing" textLength="56" x="27.5" y="312.5477">business</text><text fill="#000000" font-family="sans-serif" font-size="13" lengthAdjust="spacing" textLength="4" x="83.5" y="312.5477">&#160;</text><text fill="#000000" font-family="sans-serif" font-size="13" lengthAdjust="spacing" textLength="78" x="87.5" y="312.5477">transactions</text></g><g id="elem_GMN26"><path d="M676,648.1183 L676,719.3605 A0,0 0 0 0 676,719.3605 L866,719.3605 A0,0 0 0 0 866,719.3605 L866,658.1183 L856,648.1183 L775,648.1183 L771,536.9183 L767,648.1183 L676,648.1183 A0,0 0 0 0 676,648.1183 " fill="#FEFFDD" style="stroke:#181818;stroke-width:0.5;"/><path d="M856,648.1183 L856,658.1183 L866,658.1183 L856,648.1183 " fill="#FEFFDD" style="stroke:#181818;stroke-width:0.5;"/><text fill="#000000" font-family="sans-serif" font-size="13" lengthAdjust="spacing" textLength="42" x="682" y="665.6866">Hybrid</text><text fill="#000000" font-family="sans-serif" font-size="13" lengthAdjust="spacing" textLength="4" x="724" y="665.6866">&#160;</text><text fill="#000000" font-family="sans-serif" font-size="13" lengthAdjust="spacing" textLength="58" x="728" y="665.6866">approach</text><text fill="#000000" font-family="sans-serif" font-size="13" lengthAdjust="spacing" textLength="4" x="786" y="665.6866">&#160;</text><text fill="#000000" font-family="sans-serif" font-size="13" lengthAdjust="spacing" textLength="61" x="790" y="665.6866">combines</text><text fill="#000000" font-family="sans-serif" font-size="13" lengthAdjust="spacing" textLength="51" x="686" y="680.9972">benefits</text><text fill="#000000" font-family="sans-serif" font-size="13" lengthAdjust="spacing" textLength="4" x="737" y="680.9972">&#160;</text><text fill="#000000" font-family="sans-serif" font-size="13" lengthAdjust="spacing" textLength="13" x="741" y="680.9972">of</text><text fill="#000000" font-family="sans-serif" font-size="13" lengthAdjust="spacing" textLength="4" x="754" y="680.9972">&#160;</text><text fill="#000000" font-family="sans-serif" font-size="13" lengthAdjust="spacing" textLength="29" x="758" y="680.9972">both</text><text fill="#000000" font-family="sans-serif" font-size="13" lengthAdjust="spacing" textLength="4" x="787" y="680.9972">&#160;</text><text fill="#000000" font-family="sans-serif" font-size="13" lengthAdjust="spacing" textLength="56" x="791" y="680.9972">systems:</text><text fill="#000000" font-family="sans-serif" font-size="13" lengthAdjust="spacing" textLength="63" x="686.5" y="696.3077">streaming</text><text fill="#000000" font-family="sans-serif" font-size="13" lengthAdjust="spacing" textLength="4" x="749.5" y="696.3077">&#160;</text><text fill="#000000" font-family="sans-serif" font-size="13" lengthAdjust="spacing" textLength="79" x="753.5" y="696.3077">performance</text><text fill="#000000" font-family="sans-serif" font-size="13" lengthAdjust="spacing" textLength="4" x="832.5" y="696.3077">&#160;</text><text fill="#000000" font-family="sans-serif" font-size="13" lengthAdjust="spacing" textLength="10" x="836.5" y="696.3077">+</text><text fill="#000000" font-family="sans-serif" font-size="13" lengthAdjust="spacing" textLength="82" x="689" y="711.6183">transactional</text><text fill="#000000" font-family="sans-serif" font-size="13" lengthAdjust="spacing" textLength="4" x="771" y="711.6183">&#160;</text><text fill="#000000" font-family="sans-serif" font-size="13" lengthAdjust="spacing" textLength="69" x="775" y="711.6183">guarantees</text></g><!--link Producer to KafkaCluster--><g id="link_Producer_KafkaCluster"><path codeLine="55" d="M404.33,137.1583 C409.94,139.9883 415.54,142.7483 421,145.3483 C507.21,186.3483 602.4708,225.531 673.7008,253.711 " fill="none" id="Producer-to-KafkaCluster" style="stroke:#666666;stroke-width:1.0;"/><polygon fill="#666666" points="679.28,255.9183,672.3826,248.8879,674.6306,254.0789,669.4396,256.3269,679.28,255.9183" style="stroke:#666666;stroke-width:1.0;"/><text fill="#666666" font-family="sans-serif" font-size="12" lengthAdjust="spacing" textLength="40" x="567.23" y="187.9498">Stream</text><text fill="#666666" font-family="sans-serif" font-size="12" lengthAdjust="spacing" textLength="4" x="607.23" y="187.9498">&#160;</text><text fill="#666666" font-family="sans-serif" font-size="12" lengthAdjust="spacing" textLength="37" x="611.23" y="187.9498">Events</text><text fill="#666666" font-family="sans-serif" font-size="12" lengthAdjust="spacing" textLength="30" x="555.23" y="202.0827">[High</text><text fill="#666666" font-family="sans-serif" font-size="12" lengthAdjust="spacing" textLength="4" x="585.23" y="202.0827">&#160;</text><text fill="#666666" font-family="sans-serif" font-size="12" lengthAdjust="spacing" textLength="71" x="589.23" y="202.0827">Throughput]</text></g><!--link Producer to MessageQueue--><g id="link_Producer_MessageQueue"><path codeLine="56" d="M328,143.5883 C328,173.9583 328,207.0083 328,237.3383 " fill="none" id="Producer-to-MessageQueue" style="stroke:#666666;stroke-width:1.0;"/><polygon fill="#666666" points="328,243.3383,332,234.3383,328,238.3383,324,234.3383,328,243.3383" style="stroke:#666666;stroke-width:1.0;"/><text fill="#666666" font-family="sans-serif" font-size="12" lengthAdjust="spacing" textLength="77" x="329" y="187.9498">Transactional</text><text fill="#666666" font-family="sans-serif" font-size="12" lengthAdjust="spacing" textLength="4" x="406" y="187.9498">&#160;</text><text fill="#666666" font-family="sans-serif" font-size="12" lengthAdjust="spacing" textLength="56" x="410" y="187.9498">Messages</text><text fill="#666666" font-family="sans-serif" font-size="12" lengthAdjust="spacing" textLength="32" x="344.5" y="202.0827">[ACID</text><text fill="#666666" font-family="sans-serif" font-size="12" lengthAdjust="spacing" textLength="4" x="376.5" y="202.0827">&#160;</text><text fill="#666666" font-family="sans-serif" font-size="12" lengthAdjust="spacing" textLength="70" x="380.5" y="202.0827">Guarantees]</text></g><!--link KafkaCluster to StreamProcessor--><g id="link_KafkaCluster_StreamProcessor"><path codeLine="57" d="M771,349.6083 C771,377.8783 771,405.7583 771,432.8083 " fill="none" id="KafkaCluster-to-StreamProcessor" style="stroke:#666666;stroke-width:1.0;"/><polygon fill="#666666" points="771,438.8083,775,429.8083,771,433.8083,767,429.8083,771,438.8083" style="stroke:#666666;stroke-width:1.0;"/><text fill="#666666" font-family="sans-serif" font-size="12" lengthAdjust="spacing" textLength="57" x="772" y="391.8998">Real-time</text><text fill="#666666" font-family="sans-serif" font-size="12" lengthAdjust="spacing" textLength="4" x="829" y="391.8998">&#160;</text><text fill="#666666" font-family="sans-serif" font-size="12" lengthAdjust="spacing" textLength="40" x="833" y="391.8998">Stream</text><text fill="#666666" font-family="sans-serif" font-size="12" lengthAdjust="spacing" textLength="26" x="784" y="406.0327">[Low</text><text fill="#666666" font-family="sans-serif" font-size="12" lengthAdjust="spacing" textLength="4" x="810" y="406.0327">&#160;</text><text fill="#666666" font-family="sans-serif" font-size="12" lengthAdjust="spacing" textLength="47" x="814" y="406.0327">Latency]</text></g><!--link StreamProcessor to AnalyticsService--><g id="link_StreamProcessor_AnalyticsService"><path codeLine="58" d="M823.43,537.1683 C855.77,566.8583 892.6896,600.7512 925.0596,630.4612 " fill="none" id="StreamProcessor-to-AnalyticsService" style="stroke:#666666;stroke-width:1.0;"/><polygon fill="#666666" points="929.48,634.5183,925.5542,625.4857,925.7964,631.1373,920.1447,631.3795,929.48,634.5183" style="stroke:#666666;stroke-width:1.0;"/><text fill="#666666" font-family="sans-serif" font-size="12" lengthAdjust="spacing" textLength="59" x="883.83" y="579.3698">Processed</text><text fill="#666666" font-family="sans-serif" font-size="12" lengthAdjust="spacing" textLength="4" x="942.83" y="579.3698">&#160;</text><text fill="#666666" font-family="sans-serif" font-size="12" lengthAdjust="spacing" textLength="27" x="946.83" y="579.3698">Data</text><text fill="#666666" font-family="sans-serif" font-size="12" lengthAdjust="spacing" textLength="58" x="899.83" y="593.5027">[Analytics]</text></g><!--link StreamProcessor to DataLake--><g id="link_StreamProcessor_DataLake"><path codeLine="59" d="M708.93,537.0883 C697.4,546.6283 685.64,556.7883 675,566.7683 C652.32,588.0283 632.7142,608.7699 613.4742,630.2399 " fill="none" id="StreamProcessor-to-DataLake" style="stroke:#666666;stroke-width:1.0;"/><polygon fill="#666666" points="609.47,634.7083,618.4552,630.6753,612.8069,630.9847,612.4975,625.3363,609.47,634.7083" style="stroke:#666666;stroke-width:1.0;"/><text fill="#666666" font-family="sans-serif" font-size="12" lengthAdjust="spacing" textLength="42" x="682.5" y="579.3698">Archive</text><text fill="#666666" font-family="sans-serif" font-size="12" lengthAdjust="spacing" textLength="4" x="724.5" y="579.3698">&#160;</text><text fill="#666666" font-family="sans-serif" font-size="12" lengthAdjust="spacing" textLength="27" x="728.5" y="579.3698">Data</text><text fill="#666666" font-family="sans-serif" font-size="12" lengthAdjust="spacing" textLength="35" x="676" y="593.5027">[Batch</text><text fill="#666666" font-family="sans-serif" font-size="12" lengthAdjust="spacing" textLength="4" x="711" y="593.5027">&#160;</text><text fill="#666666" font-family="sans-serif" font-size="12" lengthAdjust="spacing" textLength="47" x="715" y="593.5027">Storage]</text></g><!--link MessageQueue to TransactionProcessor--><g id="link_MessageQueue_TransactionProcessor"><path codeLine="60" d="M328,341.2083 C328,371.0083 328,403.2083 328,433.0283 " fill="none" id="MessageQueue-to-TransactionProcessor" style="stroke:#666666;stroke-width:1.0;"/><polygon fill="#666666" points="328,439.0283,332,430.0283,328,434.0283,324,430.0283,328,439.0283" style="stroke:#666666;stroke-width:1.0;"/><text fill="#666666" font-family="sans-serif" font-size="12" lengthAdjust="spacing" textLength="39" x="342.5" y="391.8998">Critical</text><text fill="#666666" font-family="sans-serif" font-size="12" lengthAdjust="spacing" textLength="4" x="381.5" y="391.8998">&#160;</text><text fill="#666666" font-family="sans-serif" font-size="12" lengthAdjust="spacing" textLength="56" x="385.5" y="391.8998">Messages</text><text fill="#666666" font-family="sans-serif" font-size="12" lengthAdjust="spacing" textLength="72" x="329" y="406.0327">[Guaranteed</text><text fill="#666666" font-family="sans-serif" font-size="12" lengthAdjust="spacing" textLength="4" x="401" y="406.0327">&#160;</text><text fill="#666666" font-family="sans-serif" font-size="12" lengthAdjust="spacing" textLength="50" x="405" y="406.0327">Delivery]</text></g><!--link TransactionProcessor to PaymentService--><g id="link_TransactionProcessor_PaymentService"><path codeLine="61" d="M328,536.9183 C328,564.0283 328,592.0883 328,620.4683 " fill="none" id="TransactionProcessor-to-PaymentService" style="stroke:#666666;stroke-width:1.0;"/><polygon fill="#666666" points="328,626.4683,332,617.4683,328,621.4683,324,617.4683,328,626.4683" style="stroke:#666666;stroke-width:1.0;"/><text fill="#666666" font-family="sans-serif" font-size="12" lengthAdjust="spacing" textLength="49" x="329" y="579.3698">Payment</text><text fill="#666666" font-family="sans-serif" font-size="12" lengthAdjust="spacing" textLength="4" x="378" y="579.3698">&#160;</text><text fill="#666666" font-family="sans-serif" font-size="12" lengthAdjust="spacing" textLength="61" x="382" y="579.3698">Processing</text><text fill="#666666" font-family="sans-serif" font-size="12" lengthAdjust="spacing" textLength="85" x="343.5" y="593.5027">[Transactional]</text></g><!--SRC=[VLLDRziu4BtxLx0-jUWwFkoUV2YGEka7cdJJn3rrYmKjZIMY5AcIenJ6el-zRoXQbXntRz8C-URnpHlocN65xKfIDNCRLyjbq3ykAiDrj-qYXS8x9iSNXM-MhTMEkyOk8fVMR9VhlnPt4lfyUxDiT6GA2FsxnWvj78MB5cjdCpPiIRtRRuCfrGUz-wRLI_MfeuxKdMPiShFPiv9ssABkhzURouzlRwvLONMCizanCByBlkmA2kg1mgCfQAvqL4Fmlva2RDl_tbACkgBdBr8m-8vfurFfQIYnGEZdf53FSMqxEL6gaY8va2knRqqHL-hBN5HQq2D4YlC_r5mxRVUCtFnhJqa7A62ym-8_KoHo8Ds0UG6QnbKhnQ6Z4nBv2BrGYKIEzCfb4a6xg0j1rpObKhZgD19CL5wHDOyKzhc492_Nxw_ELdn8j5JcvVkJFuov-f7CyjydiwIwgW9LckbAyo0pQRin3LqUD7cYzP2PT7M8vc0kMn5SXGhtrFh0CHV9P6w9Gr_Xg3745JPdZxivQdTovb7cDmSVhSZroCKka6YR0xLsfQKtsbZ4dvxxJkyRE6RgvJusFNEkc7CPVDBtjuTknr6NYm3F5Th-tOfYlVlEY23gg1lzhISWV_AJIzSciW-28eaKscekwgDpKynwLsqeD0zO37zAXM4g5ujNq-5P3JwxJXFpZ_lopbIrsjGOoQfkE_uwdswVs7urwPksXwpWYFZgA0Pm9fK5wzJDWBk7HHSCZ-OaW6xy3sY2Mw_O0-HqZ-0yyUSgNK-oWieae_0vBFeDoA0sDb-6eiQW7hQ-5fbL5XJR9nh8thCM1Suwjtsioo09cENh091d4GJwn8MherUFVGVgf0t0cpdFf09woShlXdiP3XcwQK32MeCfPhllh-28V9EfmboY7iOnqFVE19AYSOKLY_nix41n6EpbSD6c5Rqsic8o78Vv4REIAvMmp5nnWmlJiKc0r5VgfpTY1AfwmOCtaH_ggr9cHmg6WuMG7aZXgrJfLVWV2fPsIQrnVm42RKkJ-NzFv-gl5pbfSZaGCTTim50878OTQRpPU4TZ7AiGJyjkFRDlfF29Bm6GtsdTeeQ62V7kRmLHi77zxWn7sGY8MiKzH6jIYuwoW1WuDTh1F2-HcRPZU9f6f7u1]--></g></svg>