<?xml version="1.0" encoding="us-ascii" standalone="no"?><svg xmlns="http://www.w3.org/2000/svg" xmlns:xlink="http://www.w3.org/1999/xlink" contentStyleType="text/css" height="490px" preserveAspectRatio="none" style="width:628px;height:490px;background:#FFFFFF;" version="1.1" viewBox="0 0 628 490" width="628px" zoomAndPan="magnify"><defs/><g><text fill="#000000" font-family="sans-serif" font-size="14" font-weight="bold" lengthAdjust="spacing" textLength="208" x="203.25" y="23.5352">Producer with Queue Pattern</text><!--class Producer--><g id="elem_Producer"><rect codeLine="7" fill="#F1F1F1" height="80.9766" id="Producer" rx="2.5" ry="2.5" style="stroke:#181818;stroke-width:0.5;" width="152" x="20.5" y="44.4883"/><ellipse cx="61.6" cy="60.4883" fill="#ADD1B2" rx="11" ry="11" style="stroke:#181818;stroke-width:1.0;"/><path d="M64.0731,66.6313 Q63.4921,66.9302 62.8529,67.0796 Q62.2138,67.229 61.5082,67.229 Q59.0014,67.229 57.6815,65.5771 Q56.3617,63.9253 56.3617,60.8042 Q56.3617,57.6748 57.6815,56.0229 Q59.0014,54.3711 61.5082,54.3711 Q62.2138,54.3711 62.8612,54.5205 Q63.5087,54.6699 64.0731,54.9688 L64.0731,57.6914 Q63.4423,57.1104 62.8488,56.8406 Q62.2553,56.5708 61.6244,56.5708 Q60.2797,56.5708 59.5949,57.6375 Q58.9101,58.7041 58.9101,60.8042 Q58.9101,62.896 59.5949,63.9626 Q60.2797,65.0293 61.6244,65.0293 Q62.2553,65.0293 62.8488,64.7595 Q63.4423,64.4897 64.0731,63.9087 Z " fill="#000000"/><text fill="#000000" font-family="sans-serif" font-size="14" lengthAdjust="spacing" textLength="62" x="81.4" y="65.7793">Producer</text><line style="stroke:#181818;stroke-width:0.5;" x1="21.5" x2="171.5" y1="76.4883" y2="76.4883"/><line style="stroke:#181818;stroke-width:0.5;" x1="21.5" x2="171.5" y1="84.4883" y2="84.4883"/><ellipse cx="31.5" cy="98.2324" fill="#84BE84" rx="3" ry="3" style="stroke:#038048;stroke-width:1.0;"/><text fill="#000000" font-family="sans-serif" font-size="14" lengthAdjust="spacing" textLength="126" x="40.5" y="102.0234">produceMessage()</text><ellipse cx="31.5" cy="114.7207" fill="#84BE84" rx="3" ry="3" style="stroke:#038048;stroke-width:1.0;"/><text fill="#000000" font-family="sans-serif" font-size="14" lengthAdjust="spacing" textLength="106" x="40.5" y="118.5117">sendToQueue()</text></g><!--class Queue--><g id="elem_Queue"><rect codeLine="12" fill="#F1F1F1" height="97.4648" id="Queue" rx="2.5" ry="2.5" style="stroke:#181818;stroke-width:0.5;" width="156" x="230.5" y="215.4683"/><ellipse cx="281.75" cy="231.4683" fill="#ADD1B2" rx="11" ry="11" style="stroke:#181818;stroke-width:1.0;"/><path d="M284.2231,237.6113 Q283.6421,237.9102 283.0029,238.0596 Q282.3638,238.209 281.6582,238.209 Q279.1514,238.209 277.8315,236.5571 Q276.5117,234.9053 276.5117,231.7842 Q276.5117,228.6548 277.8315,227.0029 Q279.1514,225.3511 281.6582,225.3511 Q282.3638,225.3511 283.0112,225.5005 Q283.6587,225.6499 284.2231,225.9488 L284.2231,228.6714 Q283.5923,228.0904 282.9988,227.8206 Q282.4053,227.5508 281.7744,227.5508 Q280.4297,227.5508 279.7449,228.6175 Q279.0601,229.6841 279.0601,231.7842 Q279.0601,233.876 279.7449,234.9426 Q280.4297,236.0093 281.7744,236.0093 Q282.4053,236.0093 282.9988,235.7395 Q283.5923,235.4697 284.2231,234.8887 Z " fill="#000000"/><text fill="#000000" font-family="sans-serif" font-size="14" lengthAdjust="spacing" textLength="45" x="302.25" y="236.7593">Queue</text><line style="stroke:#181818;stroke-width:0.5;" x1="231.5" x2="385.5" y1="247.4683" y2="247.4683"/><line style="stroke:#181818;stroke-width:0.5;" x1="231.5" x2="385.5" y1="255.4683" y2="255.4683"/><ellipse cx="241.5" cy="269.2124" fill="#84BE84" rx="3" ry="3" style="stroke:#038048;stroke-width:1.0;"/><text fill="#000000" font-family="sans-serif" font-size="14" lengthAdjust="spacing" textLength="130" x="250.5" y="273.0034">enqueue(message)</text><ellipse cx="241.5" cy="285.7007" fill="#84BE84" rx="3" ry="3" style="stroke:#038048;stroke-width:1.0;"/><text fill="#000000" font-family="sans-serif" font-size="14" lengthAdjust="spacing" textLength="70" x="250.5" y="289.4917">dequeue()</text><ellipse cx="241.5" cy="302.189" fill="#84BE84" rx="3" ry="3" style="stroke:#038048;stroke-width:1.0;"/><text fill="#000000" font-family="sans-serif" font-size="14" lengthAdjust="spacing" textLength="37" x="250.5" y="305.98">size()</text></g><!--class Consumer--><g id="elem_Consumer"><rect codeLine="18" fill="#F1F1F1" height="80.9766" id="Consumer" rx="2.5" ry="2.5" style="stroke:#181818;stroke-width:0.5;" width="148" x="234.5" y="402.9283"/><ellipse cx="269.75" cy="418.9283" fill="#ADD1B2" rx="11" ry="11" style="stroke:#181818;stroke-width:1.0;"/><path d="M272.2231,425.0713 Q271.6421,425.3702 271.0029,425.5196 Q270.3638,425.669 269.6582,425.669 Q267.1514,425.669 265.8315,424.0171 Q264.5117,422.3653 264.5117,419.2442 Q264.5117,416.1148 265.8315,414.4629 Q267.1514,412.8111 269.6582,412.8111 Q270.3638,412.8111 271.0112,412.9605 Q271.6587,413.1099 272.2231,413.4088 L272.2231,416.1314 Q271.5923,415.5504 270.9988,415.2806 Q270.4053,415.0108 269.7744,415.0108 Q268.4297,415.0108 267.7449,416.0775 Q267.0601,417.1441 267.0601,419.2442 Q267.0601,421.336 267.7449,422.4026 Q268.4297,423.4693 269.7744,423.4693 Q270.4053,423.4693 270.9988,423.1995 Q271.5923,422.9297 272.2231,422.3487 Z " fill="#000000"/><text fill="#000000" font-family="sans-serif" font-size="14" lengthAdjust="spacing" textLength="71" x="288.25" y="424.2193">Consumer</text><line style="stroke:#181818;stroke-width:0.5;" x1="235.5" x2="381.5" y1="434.9283" y2="434.9283"/><line style="stroke:#181818;stroke-width:0.5;" x1="235.5" x2="381.5" y1="442.9283" y2="442.9283"/><ellipse cx="245.5" cy="456.6724" fill="#84BE84" rx="3" ry="3" style="stroke:#038048;stroke-width:1.0;"/><text fill="#000000" font-family="sans-serif" font-size="14" lengthAdjust="spacing" textLength="117" x="254.5" y="460.4634">pullFromQueue()</text><ellipse cx="245.5" cy="473.1607" fill="#84BE84" rx="3" ry="3" style="stroke:#038048;stroke-width:1.0;"/><text fill="#000000" font-family="sans-serif" font-size="14" lengthAdjust="spacing" textLength="122" x="254.5" y="476.9517">processMessage()</text></g><g id="elem_GMN7"><path d="M207,57.0083 L207,80.9783 L172.68,84.9783 L207,88.9783 L207,112.9399 A0,0 0 0 0 207,112.9399 L384,112.9399 A0,0 0 0 0 384,112.9399 L384,67.0083 L374,57.0083 L207,57.0083 A0,0 0 0 0 207,57.0083 " fill="#FEFFDD" style="stroke:#181818;stroke-width:0.5;"/><path d="M374,57.0083 L374,67.0083 L384,67.0083 L374,57.0083 " fill="#FEFFDD" style="stroke:#181818;stroke-width:0.5;"/><text fill="#000000" font-family="sans-serif" font-size="13" lengthAdjust="spacing" textLength="57" x="216" y="74.5766">Produces</text><text fill="#000000" font-family="sans-serif" font-size="13" lengthAdjust="spacing" textLength="4" x="273" y="74.5766">&#160;</text><text fill="#000000" font-family="sans-serif" font-size="13" lengthAdjust="spacing" textLength="62" x="277" y="74.5766">messages</text><text fill="#000000" font-family="sans-serif" font-size="13" lengthAdjust="spacing" textLength="4" x="339" y="74.5766">&#160;</text><text fill="#000000" font-family="sans-serif" font-size="13" lengthAdjust="spacing" textLength="23" x="343" y="74.5766">and</text><text fill="#000000" font-family="sans-serif" font-size="13" lengthAdjust="spacing" textLength="37" x="213" y="89.8872">sends</text><text fill="#000000" font-family="sans-serif" font-size="13" lengthAdjust="spacing" textLength="4" x="250" y="89.8872">&#160;</text><text fill="#000000" font-family="sans-serif" font-size="13" lengthAdjust="spacing" textLength="32" x="254" y="89.8872">them</text><text fill="#000000" font-family="sans-serif" font-size="13" lengthAdjust="spacing" textLength="4" x="286" y="89.8872">&#160;</text><text fill="#000000" font-family="sans-serif" font-size="13" lengthAdjust="spacing" textLength="13" x="290" y="89.8872">to</text><text fill="#000000" font-family="sans-serif" font-size="13" lengthAdjust="spacing" textLength="4" x="303" y="89.8872">&#160;</text><text fill="#000000" font-family="sans-serif" font-size="13" lengthAdjust="spacing" textLength="20" x="307" y="89.8872">the</text><text fill="#000000" font-family="sans-serif" font-size="13" lengthAdjust="spacing" textLength="4" x="327" y="89.8872">&#160;</text><text fill="#000000" font-family="sans-serif" font-size="13" lengthAdjust="spacing" textLength="38" x="331" y="89.8872">queue</text><text fill="#000000" font-family="sans-serif" font-size="13" lengthAdjust="spacing" textLength="18" x="222.5" y="105.1977">for</text><text fill="#000000" font-family="sans-serif" font-size="13" lengthAdjust="spacing" textLength="4" x="240.5" y="105.1977">&#160;</text><text fill="#000000" font-family="sans-serif" font-size="13" lengthAdjust="spacing" textLength="28" x="244.5" y="105.1977">later</text><text fill="#000000" font-family="sans-serif" font-size="13" lengthAdjust="spacing" textLength="4" x="272.5" y="105.1977">&#160;</text><text fill="#000000" font-family="sans-serif" font-size="13" lengthAdjust="spacing" textLength="83" x="276.5" y="105.1977">consumption</text></g><g id="elem_GMN10"><path d="M419.5,57.0083 L419.5,112.9399 A0,0 0 0 0 419.5,112.9399 L483.84,112.9399 L365.98,215.1483 L491.84,112.9399 L621.5,112.9399 A0,0 0 0 0 621.5,112.9399 L621.5,67.0083 L611.5,57.0083 L419.5,57.0083 A0,0 0 0 0 419.5,57.0083 " fill="#FEFFDD" style="stroke:#181818;stroke-width:0.5;"/><path d="M611.5,57.0083 L611.5,67.0083 L621.5,67.0083 L611.5,57.0083 " fill="#FEFFDD" style="stroke:#181818;stroke-width:0.5;"/><text fill="#000000" font-family="sans-serif" font-size="13" lengthAdjust="spacing" textLength="28" x="425.5" y="74.5766">FIFO</text><text fill="#000000" font-family="sans-serif" font-size="13" lengthAdjust="spacing" textLength="4" x="453.5" y="74.5766">&#160;</text><text fill="#000000" font-family="sans-serif" font-size="13" lengthAdjust="spacing" textLength="40" x="457.5" y="74.5766">Queue</text><text fill="#000000" font-family="sans-serif" font-size="13" lengthAdjust="spacing" textLength="4" x="497.5" y="74.5766">&#160;</text><text fill="#000000" font-family="sans-serif" font-size="13" lengthAdjust="spacing" textLength="39" x="501.5" y="74.5766">stores</text><text fill="#000000" font-family="sans-serif" font-size="13" lengthAdjust="spacing" textLength="4" x="540.5" y="74.5766">&#160;</text><text fill="#000000" font-family="sans-serif" font-size="13" lengthAdjust="spacing" textLength="62" x="544.5" y="74.5766">messages</text><text fill="#000000" font-family="sans-serif" font-size="13" lengthAdjust="spacing" textLength="29" x="434.5" y="89.8872">until</text><text fill="#000000" font-family="sans-serif" font-size="13" lengthAdjust="spacing" textLength="4" x="463.5" y="89.8872">&#160;</text><text fill="#000000" font-family="sans-serif" font-size="13" lengthAdjust="spacing" textLength="69" x="467.5" y="89.8872">consumers</text><text fill="#000000" font-family="sans-serif" font-size="13" lengthAdjust="spacing" textLength="4" x="536.5" y="89.8872">&#160;</text><text fill="#000000" font-family="sans-serif" font-size="13" lengthAdjust="spacing" textLength="19" x="540.5" y="89.8872">are</text><text fill="#000000" font-family="sans-serif" font-size="13" lengthAdjust="spacing" textLength="4" x="559.5" y="89.8872">&#160;</text><text fill="#000000" font-family="sans-serif" font-size="13" lengthAdjust="spacing" textLength="34" x="563.5" y="89.8872">ready</text><text fill="#000000" font-family="sans-serif" font-size="13" lengthAdjust="spacing" textLength="13" x="465" y="105.1977">to</text><text fill="#000000" font-family="sans-serif" font-size="13" lengthAdjust="spacing" textLength="4" x="478" y="105.1977">&#160;</text><text fill="#000000" font-family="sans-serif" font-size="13" lengthAdjust="spacing" textLength="49" x="482" y="105.1977">process</text><text fill="#000000" font-family="sans-serif" font-size="13" lengthAdjust="spacing" textLength="4" x="531" y="105.1977">&#160;</text><text fill="#000000" font-family="sans-serif" font-size="13" lengthAdjust="spacing" textLength="32" x="535" y="105.1977">them</text></g><g id="elem_GMN13"><path d="M6,415.4583 L6,471.3899 A0,0 0 0 0 6,471.3899 L199,471.3899 A0,0 0 0 0 199,471.3899 L199,447.4183 L234.39,443.4183 L199,439.4183 L199,425.4583 L189,415.4583 L6,415.4583 A0,0 0 0 0 6,415.4583 " fill="#FEFFDD" style="stroke:#181818;stroke-width:0.5;"/><path d="M189,415.4583 L189,425.4583 L199,425.4583 L189,415.4583 " fill="#FEFFDD" style="stroke:#181818;stroke-width:0.5;"/><text fill="#000000" font-family="sans-serif" font-size="13" lengthAdjust="spacing" textLength="30" x="12" y="433.0266">Pulls</text><text fill="#000000" font-family="sans-serif" font-size="13" lengthAdjust="spacing" textLength="4" x="42" y="433.0266">&#160;</text><text fill="#000000" font-family="sans-serif" font-size="13" lengthAdjust="spacing" textLength="62" x="46" y="433.0266">messages</text><text fill="#000000" font-family="sans-serif" font-size="13" lengthAdjust="spacing" textLength="4" x="108" y="433.0266">&#160;</text><text fill="#000000" font-family="sans-serif" font-size="13" lengthAdjust="spacing" textLength="30" x="112" y="433.0266">from</text><text fill="#000000" font-family="sans-serif" font-size="13" lengthAdjust="spacing" textLength="4" x="142" y="433.0266">&#160;</text><text fill="#000000" font-family="sans-serif" font-size="13" lengthAdjust="spacing" textLength="38" x="146" y="433.0266">queue</text><text fill="#000000" font-family="sans-serif" font-size="13" lengthAdjust="spacing" textLength="12" x="37" y="448.3372">at</text><text fill="#000000" font-family="sans-serif" font-size="13" lengthAdjust="spacing" textLength="4" x="49" y="448.3372">&#160;</text><text fill="#000000" font-family="sans-serif" font-size="13" lengthAdjust="spacing" textLength="16" x="53" y="448.3372">its</text><text fill="#000000" font-family="sans-serif" font-size="13" lengthAdjust="spacing" textLength="4" x="69" y="448.3372">&#160;</text><text fill="#000000" font-family="sans-serif" font-size="13" lengthAdjust="spacing" textLength="26" x="73" y="448.3372">own</text><text fill="#000000" font-family="sans-serif" font-size="13" lengthAdjust="spacing" textLength="4" x="99" y="448.3372">&#160;</text><text fill="#000000" font-family="sans-serif" font-size="13" lengthAdjust="spacing" textLength="29" x="103" y="448.3372">pace</text><text fill="#000000" font-family="sans-serif" font-size="13" lengthAdjust="spacing" textLength="4" x="132" y="448.3372">&#160;</text><text fill="#000000" font-family="sans-serif" font-size="13" lengthAdjust="spacing" textLength="23" x="136" y="448.3372">and</text><text fill="#000000" font-family="sans-serif" font-size="13" lengthAdjust="spacing" textLength="63" x="48.5" y="463.6477">processes</text><text fill="#000000" font-family="sans-serif" font-size="13" lengthAdjust="spacing" textLength="4" x="111.5" y="463.6477">&#160;</text><text fill="#000000" font-family="sans-serif" font-size="13" lengthAdjust="spacing" textLength="32" x="115.5" y="463.6477">them</text></g><!--link Producer to Queue--><g id="link_Producer_Queue"><path codeLine="23" d="M144.08,125.7483 C175.7,152.1783 212.7969,183.1997 246.2869,211.1997 " fill="none" id="Producer-to-Queue" style="stroke:#666666;stroke-width:1.0;"/><polygon fill="#666666" points="250.89,215.0483,246.551,206.2067,247.0541,211.8412,241.4196,212.3442,250.89,215.0483" style="stroke:#666666;stroke-width:1.0;"/><text fill="#666666" font-family="sans-serif" font-size="12" lengthAdjust="spacing" textLength="28" x="218.69" y="168.0698">Send</text><text fill="#666666" font-family="sans-serif" font-size="12" lengthAdjust="spacing" textLength="4" x="246.69" y="168.0698">&#160;</text><text fill="#666666" font-family="sans-serif" font-size="12" lengthAdjust="spacing" textLength="50" x="250.69" y="168.0698">Message</text><text fill="#666666" font-family="sans-serif" font-size="12" lengthAdjust="spacing" textLength="87" x="216.19" y="182.2027">[Asynchronous]</text></g><!--link Queue to Consumer--><g id="link_Queue_Consumer"><path codeLine="24" d="M308.5,313.1583 C308.5,341.1383 308.5,370.0383 308.5,396.5083 " fill="none" id="Queue-to-Consumer" style="stroke:#666666;stroke-width:1.0;"/><polygon fill="#666666" points="308.5,402.5083,312.5,393.5083,308.5,397.5083,304.5,393.5083,308.5,402.5083" style="stroke:#666666;stroke-width:1.0;"/><text fill="#666666" font-family="sans-serif" font-size="12" lengthAdjust="spacing" textLength="20" x="311" y="355.5298">Pull</text><text fill="#666666" font-family="sans-serif" font-size="12" lengthAdjust="spacing" textLength="4" x="331" y="355.5298">&#160;</text><text fill="#666666" font-family="sans-serif" font-size="12" lengthAdjust="spacing" textLength="50" x="335" y="355.5298">Message</text><text fill="#666666" font-family="sans-serif" font-size="12" lengthAdjust="spacing" textLength="20" x="309.5" y="369.6627">[On</text><text fill="#666666" font-family="sans-serif" font-size="12" lengthAdjust="spacing" textLength="4" x="329.5" y="369.6627">&#160;</text><text fill="#666666" font-family="sans-serif" font-size="12" lengthAdjust="spacing" textLength="53" x="333.5" y="369.6627">Demand]</text></g><!--SRC=[PP51Rzim38Nl-XLiJns6n9UUUXXGPCqme5sJhJjjmw3AT2n0fboHGj0M- - -ZRSqnkfDbYX_VUzIP9nToZT2Az7nLLSaUrmSlRNxCZCb54YHPkzXLVR0akGihbZhunsfpkTeDfUztjrLdMJ1fwVT62Ui9qxhNNcF4Iq3OfLXdXmcEEXhs6RFMh2X3nfpLs2W1Nsys3zTVFjtUW0kMsPXJOUPV3S1xwAVVEsIs1xnuDnOPgNw8usoj_5dYa-348ZsDBTq4JsoDJuKR9_cN_qPeBixToK4EOPjYjrzWwihfq9Ch7J0RNwq-51jNSFvDhKBf-qa_hlcPN9iYnSo_pitKDW2pg38xLLmmzmGViRDKAs0e2aBoXrOWDlEor5GvCfIq34feVTWLWxJOWSJX2sD-lMbYWc3rOS2DuhtuI6RmEuWKAOdz8BGlpFRpzhw4Oubf8QUNcSI7CWoJ6aXg5Mtzh7UgNPOsUdah4x0P0_rRmn18jx18q-WJpDQjW1U6U2JehSCIjGZWMuc_]--></g></svg>