<?xml version="1.0" encoding="us-ascii" standalone="no"?><svg xmlns="http://www.w3.org/2000/svg" xmlns:xlink="http://www.w3.org/1999/xlink" contentStyleType="text/css" height="607px" preserveAspectRatio="none" style="width:626px;height:607px;background:#FFFFFF;" version="1.1" viewBox="0 0 626 607" width="626px" zoomAndPan="magnify"><defs/><g><text fill="#000000" font-family="sans-serif" font-size="14" font-weight="bold" lengthAdjust="spacing" textLength="203" x="204.5" y="23.5352">Multiple Consumers Pattern</text><!--class Producer--><g id="elem_Producer"><rect codeLine="7" fill="#F1F1F1" height="80.9766" id="Producer" rx="2.5" ry="2.5" style="stroke:#181818;stroke-width:0.5;" width="152" x="7" y="44.4883"/><ellipse cx="48.1" cy="60.4883" fill="#ADD1B2" rx="11" ry="11" style="stroke:#181818;stroke-width:1.0;"/><path d="M50.5731,66.6313 Q49.9921,66.9302 49.3529,67.0796 Q48.7138,67.229 48.0082,67.229 Q45.5014,67.229 44.1815,65.5771 Q42.8617,63.9253 42.8617,60.8042 Q42.8617,57.6748 44.1815,56.0229 Q45.5014,54.3711 48.0082,54.3711 Q48.7138,54.3711 49.3612,54.5205 Q50.0087,54.6699 50.5731,54.9688 L50.5731,57.6914 Q49.9423,57.1104 49.3488,56.8406 Q48.7553,56.5708 48.1244,56.5708 Q46.7797,56.5708 46.0949,57.6375 Q45.4101,58.7041 45.4101,60.8042 Q45.4101,62.896 46.0949,63.9626 Q46.7797,65.0293 48.1244,65.0293 Q48.7553,65.0293 49.3488,64.7595 Q49.9423,64.4897 50.5731,63.9087 Z " fill="#000000"/><text fill="#000000" font-family="sans-serif" font-size="14" lengthAdjust="spacing" textLength="62" x="67.9" y="65.7793">Producer</text><line style="stroke:#181818;stroke-width:0.5;" x1="8" x2="158" y1="76.4883" y2="76.4883"/><line style="stroke:#181818;stroke-width:0.5;" x1="8" x2="158" y1="84.4883" y2="84.4883"/><ellipse cx="18" cy="98.2324" fill="#84BE84" rx="3" ry="3" style="stroke:#038048;stroke-width:1.0;"/><text fill="#000000" font-family="sans-serif" font-size="14" lengthAdjust="spacing" textLength="126" x="27" y="102.0234">produceMessage()</text><ellipse cx="18" cy="114.7207" fill="#84BE84" rx="3" ry="3" style="stroke:#038048;stroke-width:1.0;"/><text fill="#000000" font-family="sans-serif" font-size="14" lengthAdjust="spacing" textLength="106" x="27" y="118.5117">sendToQueue()</text></g><!--class Queue--><g id="elem_Queue"><rect codeLine="12" fill="#F1F1F1" height="97.4648" id="Queue" rx="2.5" ry="2.5" style="stroke:#181818;stroke-width:0.5;" width="156" x="222" y="215.4683"/><ellipse cx="273.25" cy="231.4683" fill="#ADD1B2" rx="11" ry="11" style="stroke:#181818;stroke-width:1.0;"/><path d="M275.7231,237.6113 Q275.1421,237.9102 274.5029,238.0596 Q273.8638,238.209 273.1582,238.209 Q270.6514,238.209 269.3315,236.5571 Q268.0117,234.9053 268.0117,231.7842 Q268.0117,228.6548 269.3315,227.0029 Q270.6514,225.3511 273.1582,225.3511 Q273.8638,225.3511 274.5112,225.5005 Q275.1587,225.6499 275.7231,225.9488 L275.7231,228.6714 Q275.0923,228.0904 274.4988,227.8206 Q273.9053,227.5508 273.2744,227.5508 Q271.9297,227.5508 271.2449,228.6175 Q270.5601,229.6841 270.5601,231.7842 Q270.5601,233.876 271.2449,234.9426 Q271.9297,236.0093 273.2744,236.0093 Q273.9053,236.0093 274.4988,235.7395 Q275.0923,235.4697 275.7231,234.8887 Z " fill="#000000"/><text fill="#000000" font-family="sans-serif" font-size="14" lengthAdjust="spacing" textLength="45" x="293.75" y="236.7593">Queue</text><line style="stroke:#181818;stroke-width:0.5;" x1="223" x2="377" y1="247.4683" y2="247.4683"/><line style="stroke:#181818;stroke-width:0.5;" x1="223" x2="377" y1="255.4683" y2="255.4683"/><ellipse cx="233" cy="269.2124" fill="#84BE84" rx="3" ry="3" style="stroke:#038048;stroke-width:1.0;"/><text fill="#000000" font-family="sans-serif" font-size="14" lengthAdjust="spacing" textLength="130" x="242" y="273.0034">enqueue(message)</text><ellipse cx="233" cy="285.7007" fill="#84BE84" rx="3" ry="3" style="stroke:#038048;stroke-width:1.0;"/><text fill="#000000" font-family="sans-serif" font-size="14" lengthAdjust="spacing" textLength="70" x="242" y="289.4917">dequeue()</text><ellipse cx="233" cy="302.189" fill="#84BE84" rx="3" ry="3" style="stroke:#038048;stroke-width:1.0;"/><text fill="#000000" font-family="sans-serif" font-size="14" lengthAdjust="spacing" textLength="37" x="242" y="305.98">size()</text></g><!--class ConsumerA--><g id="elem_ConsumerA"><rect codeLine="18" fill="#F1F1F1" height="80.9766" id="ConsumerA" rx="2.5" ry="2.5" style="stroke:#181818;stroke-width:0.5;" width="148" x="135" y="402.9283"/><ellipse cx="163.95" cy="418.9283" fill="#ADD1B2" rx="11" ry="11" style="stroke:#181818;stroke-width:1.0;"/><path d="M166.4231,425.0713 Q165.8421,425.3702 165.2029,425.5196 Q164.5638,425.669 163.8582,425.669 Q161.3514,425.669 160.0315,424.0171 Q158.7117,422.3653 158.7117,419.2442 Q158.7117,416.1148 160.0315,414.4629 Q161.3514,412.8111 163.8582,412.8111 Q164.5638,412.8111 165.2112,412.9605 Q165.8587,413.1099 166.4231,413.4088 L166.4231,416.1314 Q165.7923,415.5504 165.1988,415.2806 Q164.6053,415.0108 163.9744,415.0108 Q162.6297,415.0108 161.9449,416.0775 Q161.2601,417.1441 161.2601,419.2442 Q161.2601,421.336 161.9449,422.4026 Q162.6297,423.4693 163.9744,423.4693 Q164.6053,423.4693 165.1988,423.1995 Q165.7923,422.9297 166.4231,422.3487 Z " fill="#000000"/><text fill="#000000" font-family="sans-serif" font-size="14" lengthAdjust="spacing" textLength="71" x="181.05" y="424.2193">Consumer</text><text fill="#000000" font-family="sans-serif" font-size="14" lengthAdjust="spacing" textLength="4" x="252.05" y="424.2193">&#160;</text><text fill="#000000" font-family="sans-serif" font-size="14" lengthAdjust="spacing" textLength="10" x="256.05" y="424.2193">A</text><line style="stroke:#181818;stroke-width:0.5;" x1="136" x2="282" y1="434.9283" y2="434.9283"/><line style="stroke:#181818;stroke-width:0.5;" x1="136" x2="282" y1="442.9283" y2="442.9283"/><ellipse cx="146" cy="456.6724" fill="#84BE84" rx="3" ry="3" style="stroke:#038048;stroke-width:1.0;"/><text fill="#000000" font-family="sans-serif" font-size="14" lengthAdjust="spacing" textLength="117" x="155" y="460.4634">pullFromQueue()</text><ellipse cx="146" cy="473.1607" fill="#84BE84" rx="3" ry="3" style="stroke:#038048;stroke-width:1.0;"/><text fill="#000000" font-family="sans-serif" font-size="14" lengthAdjust="spacing" textLength="122" x="155" y="476.9517">processMessage()</text></g><!--class ConsumerB--><g id="elem_ConsumerB"><rect codeLine="23" fill="#F1F1F1" height="80.9766" id="ConsumerB" rx="2.5" ry="2.5" style="stroke:#181818;stroke-width:0.5;" width="148" x="325" y="402.9283"/><ellipse cx="354.85" cy="418.9283" fill="#ADD1B2" rx="11" ry="11" style="stroke:#181818;stroke-width:1.0;"/><path d="M357.3231,425.0713 Q356.7421,425.3702 356.1029,425.5196 Q355.4638,425.669 354.7582,425.669 Q352.2514,425.669 350.9315,424.0171 Q349.6117,422.3653 349.6117,419.2442 Q349.6117,416.1148 350.9315,414.4629 Q352.2514,412.8111 354.7582,412.8111 Q355.4638,412.8111 356.1112,412.9605 Q356.7587,413.1099 357.3231,413.4088 L357.3231,416.1314 Q356.6923,415.5504 356.0988,415.2806 Q355.5053,415.0108 354.8744,415.0108 Q353.5297,415.0108 352.8449,416.0775 Q352.1601,417.1441 352.1601,419.2442 Q352.1601,421.336 352.8449,422.4026 Q353.5297,423.4693 354.8744,423.4693 Q355.5053,423.4693 356.0988,423.1995 Q356.6923,422.9297 357.3231,422.3487 Z " fill="#000000"/><text fill="#000000" font-family="sans-serif" font-size="14" lengthAdjust="spacing" textLength="71" x="372.15" y="424.2193">Consumer</text><text fill="#000000" font-family="sans-serif" font-size="14" lengthAdjust="spacing" textLength="4" x="443.15" y="424.2193">&#160;</text><text fill="#000000" font-family="sans-serif" font-size="14" lengthAdjust="spacing" textLength="8" x="447.15" y="424.2193">B</text><line style="stroke:#181818;stroke-width:0.5;" x1="326" x2="472" y1="434.9283" y2="434.9283"/><line style="stroke:#181818;stroke-width:0.5;" x1="326" x2="472" y1="442.9283" y2="442.9283"/><ellipse cx="336" cy="456.6724" fill="#84BE84" rx="3" ry="3" style="stroke:#038048;stroke-width:1.0;"/><text fill="#000000" font-family="sans-serif" font-size="14" lengthAdjust="spacing" textLength="117" x="345" y="460.4634">pullFromQueue()</text><ellipse cx="336" cy="473.1607" fill="#84BE84" rx="3" ry="3" style="stroke:#038048;stroke-width:1.0;"/><text fill="#000000" font-family="sans-serif" font-size="14" lengthAdjust="spacing" textLength="122" x="345" y="476.9517">processMessage()</text></g><g id="elem_GMN9"><path d="M194,64.6683 L194,80.9783 L159.47,84.9783 L194,88.9783 L194,105.2894 A0,0 0 0 0 194,105.2894 L382,105.2894 A0,0 0 0 0 382,105.2894 L382,74.6683 L372,64.6683 L194,64.6683 A0,0 0 0 0 194,64.6683 " fill="#FEFFDD" style="stroke:#181818;stroke-width:0.5;"/><path d="M372,64.6683 L372,74.6683 L382,74.6683 L372,64.6683 " fill="#FEFFDD" style="stroke:#181818;stroke-width:0.5;"/><text fill="#000000" font-family="sans-serif" font-size="13" lengthAdjust="spacing" textLength="38" x="214" y="82.2366">Single</text><text fill="#000000" font-family="sans-serif" font-size="13" lengthAdjust="spacing" textLength="4" x="252" y="82.2366">&#160;</text><text fill="#000000" font-family="sans-serif" font-size="13" lengthAdjust="spacing" textLength="56" x="256" y="82.2366">producer</text><text fill="#000000" font-family="sans-serif" font-size="13" lengthAdjust="spacing" textLength="4" x="312" y="82.2366">&#160;</text><text fill="#000000" font-family="sans-serif" font-size="13" lengthAdjust="spacing" textLength="37" x="316" y="82.2366">sends</text><text fill="#000000" font-family="sans-serif" font-size="13" lengthAdjust="spacing" textLength="62" x="200" y="97.5472">messages</text><text fill="#000000" font-family="sans-serif" font-size="13" lengthAdjust="spacing" textLength="4" x="262" y="97.5472">&#160;</text><text fill="#000000" font-family="sans-serif" font-size="13" lengthAdjust="spacing" textLength="13" x="266" y="97.5472">to</text><text fill="#000000" font-family="sans-serif" font-size="13" lengthAdjust="spacing" textLength="4" x="279" y="97.5472">&#160;</text><text fill="#000000" font-family="sans-serif" font-size="13" lengthAdjust="spacing" textLength="42" x="283" y="97.5472">shared</text><text fill="#000000" font-family="sans-serif" font-size="13" lengthAdjust="spacing" textLength="4" x="325" y="97.5472">&#160;</text><text fill="#000000" font-family="sans-serif" font-size="13" lengthAdjust="spacing" textLength="38" x="329" y="97.5472">queue</text></g><g id="elem_GMN12"><path d="M417,57.0083 L417,112.9399 A0,0 0 0 0 417,112.9399 L480.42,112.9399 L359.11,215.1483 L488.42,112.9399 L619,112.9399 A0,0 0 0 0 619,112.9399 L619,67.0083 L609,57.0083 L417,57.0083 A0,0 0 0 0 417,57.0083 " fill="#FEFFDD" style="stroke:#181818;stroke-width:0.5;"/><path d="M609,57.0083 L609,67.0083 L619,67.0083 L609,57.0083 " fill="#FEFFDD" style="stroke:#181818;stroke-width:0.5;"/><text fill="#000000" font-family="sans-serif" font-size="13" lengthAdjust="spacing" textLength="40" x="424.5" y="74.5766">Queue</text><text fill="#000000" font-family="sans-serif" font-size="13" lengthAdjust="spacing" textLength="4" x="464.5" y="74.5766">&#160;</text><text fill="#000000" font-family="sans-serif" font-size="13" lengthAdjust="spacing" textLength="68" x="468.5" y="74.5766">distributes</text><text fill="#000000" font-family="sans-serif" font-size="13" lengthAdjust="spacing" textLength="4" x="536.5" y="74.5766">&#160;</text><text fill="#000000" font-family="sans-serif" font-size="13" lengthAdjust="spacing" textLength="62" x="540.5" y="74.5766">messages</text><text fill="#000000" font-family="sans-serif" font-size="13" lengthAdjust="spacing" textLength="52" x="423" y="89.8872">between</text><text fill="#000000" font-family="sans-serif" font-size="13" lengthAdjust="spacing" textLength="4" x="475" y="89.8872">&#160;</text><text fill="#000000" font-family="sans-serif" font-size="13" lengthAdjust="spacing" textLength="52" x="479" y="89.8872">multiple</text><text fill="#000000" font-family="sans-serif" font-size="13" lengthAdjust="spacing" textLength="4" x="531" y="89.8872">&#160;</text><text fill="#000000" font-family="sans-serif" font-size="13" lengthAdjust="spacing" textLength="69" x="535" y="89.8872">consumers</text><text fill="#000000" font-family="sans-serif" font-size="13" lengthAdjust="spacing" textLength="31" x="463.5" y="105.1977">(load</text><text fill="#000000" font-family="sans-serif" font-size="13" lengthAdjust="spacing" textLength="4" x="494.5" y="105.1977">&#160;</text><text fill="#000000" font-family="sans-serif" font-size="13" lengthAdjust="spacing" textLength="65" x="498.5" y="105.1977">balancing)</text></g><g id="elem_GMN15"><path d="M123.5,544.9083 L123.5,600.8399 A0,0 0 0 0 123.5,600.8399 L286.5,600.8399 A0,0 0 0 0 286.5,600.8399 L286.5,554.9083 L276.5,544.9083 L209.86,544.9083 L207.75,484.3983 L201.86,544.9083 L123.5,544.9083 A0,0 0 0 0 123.5,544.9083 " fill="#FEFFDD" style="stroke:#181818;stroke-width:0.5;"/><path d="M276.5,544.9083 L276.5,554.9083 L286.5,554.9083 L276.5,544.9083 " fill="#FEFFDD" style="stroke:#181818;stroke-width:0.5;"/><text fill="#000000" font-family="sans-serif" font-size="13" lengthAdjust="spacing" textLength="64" x="129.5" y="562.4766">Consumer</text><text fill="#000000" font-family="sans-serif" font-size="13" lengthAdjust="spacing" textLength="4" x="193.5" y="562.4766">&#160;</text><text fill="#000000" font-family="sans-serif" font-size="13" lengthAdjust="spacing" textLength="9" x="197.5" y="562.4766">A</text><text fill="#000000" font-family="sans-serif" font-size="13" lengthAdjust="spacing" textLength="4" x="206.5" y="562.4766">&#160;</text><text fill="#000000" font-family="sans-serif" font-size="13" lengthAdjust="spacing" textLength="61" x="210.5" y="562.4766">competes</text><text fill="#000000" font-family="sans-serif" font-size="13" lengthAdjust="spacing" textLength="18" x="143" y="577.7872">for</text><text fill="#000000" font-family="sans-serif" font-size="13" lengthAdjust="spacing" textLength="4" x="161" y="577.7872">&#160;</text><text fill="#000000" font-family="sans-serif" font-size="13" lengthAdjust="spacing" textLength="62" x="165" y="577.7872">messages</text><text fill="#000000" font-family="sans-serif" font-size="13" lengthAdjust="spacing" textLength="4" x="227" y="577.7872">&#160;</text><text fill="#000000" font-family="sans-serif" font-size="13" lengthAdjust="spacing" textLength="27" x="231" y="577.7872">with</text><text fill="#000000" font-family="sans-serif" font-size="13" lengthAdjust="spacing" textLength="33" x="147.5" y="593.0977">other</text><text fill="#000000" font-family="sans-serif" font-size="13" lengthAdjust="spacing" textLength="4" x="180.5" y="593.0977">&#160;</text><text fill="#000000" font-family="sans-serif" font-size="13" lengthAdjust="spacing" textLength="69" x="184.5" y="593.0977">consumers</text></g><g id="elem_GMN18"><path d="M321.5,544.9083 L321.5,600.8399 A0,0 0 0 0 321.5,600.8399 L482.5,600.8399 A0,0 0 0 0 482.5,600.8399 L482.5,554.9083 L472.5,544.9083 L405.36,544.9083 L399.94,484.3983 L397.36,544.9083 L321.5,544.9083 A0,0 0 0 0 321.5,544.9083 " fill="#FEFFDD" style="stroke:#181818;stroke-width:0.5;"/><path d="M472.5,544.9083 L472.5,554.9083 L482.5,554.9083 L472.5,544.9083 " fill="#FEFFDD" style="stroke:#181818;stroke-width:0.5;"/><text fill="#000000" font-family="sans-serif" font-size="13" lengthAdjust="spacing" textLength="64" x="327.5" y="562.4766">Consumer</text><text fill="#000000" font-family="sans-serif" font-size="13" lengthAdjust="spacing" textLength="4" x="391.5" y="562.4766">&#160;</text><text fill="#000000" font-family="sans-serif" font-size="13" lengthAdjust="spacing" textLength="7" x="395.5" y="562.4766">B</text><text fill="#000000" font-family="sans-serif" font-size="13" lengthAdjust="spacing" textLength="4" x="402.5" y="562.4766">&#160;</text><text fill="#000000" font-family="sans-serif" font-size="13" lengthAdjust="spacing" textLength="61" x="406.5" y="562.4766">competes</text><text fill="#000000" font-family="sans-serif" font-size="13" lengthAdjust="spacing" textLength="18" x="340" y="577.7872">for</text><text fill="#000000" font-family="sans-serif" font-size="13" lengthAdjust="spacing" textLength="4" x="358" y="577.7872">&#160;</text><text fill="#000000" font-family="sans-serif" font-size="13" lengthAdjust="spacing" textLength="62" x="362" y="577.7872">messages</text><text fill="#000000" font-family="sans-serif" font-size="13" lengthAdjust="spacing" textLength="4" x="424" y="577.7872">&#160;</text><text fill="#000000" font-family="sans-serif" font-size="13" lengthAdjust="spacing" textLength="27" x="428" y="577.7872">with</text><text fill="#000000" font-family="sans-serif" font-size="13" lengthAdjust="spacing" textLength="33" x="344.5" y="593.0977">other</text><text fill="#000000" font-family="sans-serif" font-size="13" lengthAdjust="spacing" textLength="4" x="377.5" y="593.0977">&#160;</text><text fill="#000000" font-family="sans-serif" font-size="13" lengthAdjust="spacing" textLength="69" x="381.5" y="593.0977">consumers</text></g><!--link Producer to Queue--><g id="link_Producer_Queue"><path codeLine="28" d="M131.7,125.7483 C164.06,152.1783 202.1026,183.2434 236.3926,211.2434 " fill="none" id="Producer-to-Queue" style="stroke:#666666;stroke-width:1.0;"/><polygon fill="#666666" points="241.04,215.0383,236.5988,206.2476,237.1671,211.8758,231.5389,212.4442,241.04,215.0383" style="stroke:#666666;stroke-width:1.0;"/><text fill="#666666" font-family="sans-serif" font-size="12" lengthAdjust="spacing" textLength="28" x="205.49" y="168.0698">Send</text><text fill="#666666" font-family="sans-serif" font-size="12" lengthAdjust="spacing" textLength="4" x="233.49" y="168.0698">&#160;</text><text fill="#666666" font-family="sans-serif" font-size="12" lengthAdjust="spacing" textLength="56" x="237.49" y="168.0698">Messages</text><text fill="#666666" font-family="sans-serif" font-size="12" lengthAdjust="spacing" textLength="87" x="205.99" y="182.2027">[Asynchronous]</text></g><!--link Queue to ConsumerA--><g id="link_Queue_ConsumerA"><path codeLine="29" d="M236.75,313.2183 C228.51,322.1983 221.16,332.1783 216,342.9283 C207.24,361.1983 204.9628,377.5486 205.1428,396.4386 " fill="none" id="Queue-to-ConsumerA" style="stroke:#666666;stroke-width:1.0;"/><polygon fill="#666666" points="205.2,402.4383,209.1141,393.4006,205.1524,397.4385,201.1144,393.4768,205.2,402.4383" style="stroke:#666666;stroke-width:1.0;"/><text fill="#666666" font-family="sans-serif" font-size="12" lengthAdjust="spacing" textLength="20" x="246" y="355.5298">Pull</text><text fill="#666666" font-family="sans-serif" font-size="12" lengthAdjust="spacing" textLength="4" x="266" y="355.5298">&#160;</text><text fill="#666666" font-family="sans-serif" font-size="12" lengthAdjust="spacing" textLength="50" x="270" y="355.5298">Message</text><text fill="#666666" font-family="sans-serif" font-size="12" lengthAdjust="spacing" textLength="66" x="217" y="369.6627">[Competing</text><text fill="#666666" font-family="sans-serif" font-size="12" lengthAdjust="spacing" textLength="4" x="283" y="369.6627">&#160;</text><text fill="#666666" font-family="sans-serif" font-size="12" lengthAdjust="spacing" textLength="62" x="287" y="369.6627">Consumer]</text></g><!--link Queue to ConsumerB--><g id="link_Queue_ConsumerB"><path codeLine="30" d="M335.39,313.2483 C341.9,322.8783 348.41,333.0683 354,342.9283 C364.85,362.0583 372.7447,378.7642 380.7147,397.3442 " fill="none" id="Queue-to-ConsumerB" style="stroke:#666666;stroke-width:1.0;"/><polygon fill="#666666" points="383.08,402.8583,383.2081,393.0103,381.1089,398.2632,375.856,396.164,383.08,402.8583" style="stroke:#666666;stroke-width:1.0;"/><text fill="#666666" font-family="sans-serif" font-size="12" lengthAdjust="spacing" textLength="20" x="399.19" y="355.5298">Pull</text><text fill="#666666" font-family="sans-serif" font-size="12" lengthAdjust="spacing" textLength="4" x="419.19" y="355.5298">&#160;</text><text fill="#666666" font-family="sans-serif" font-size="12" lengthAdjust="spacing" textLength="50" x="423.19" y="355.5298">Message</text><text fill="#666666" font-family="sans-serif" font-size="12" lengthAdjust="spacing" textLength="66" x="370.19" y="369.6627">[Competing</text><text fill="#666666" font-family="sans-serif" font-size="12" lengthAdjust="spacing" textLength="4" x="436.19" y="369.6627">&#160;</text><text fill="#666666" font-family="sans-serif" font-size="12" lengthAdjust="spacing" textLength="62" x="440.19" y="369.6627">Consumer]</text></g><!--SRC=[dPDDRnCn48Rl_XNJd5gXP2yzzO2KZGgNfae_E052NkyaQybhRprZHO3uxyn-Xq95uPPzFSyxyzgJC-kDIoL2nTpGLPP5VLmTB5UfI8JH1C_eUML2dJLEUqwrMnANpXRPvdAvQwKFsvkiriGOHVgo4K9RZt7LIArIRDaXR9DZsyWFEQPKOoJOQHR4AtLMubu0kB_UFAvltzzSWt6QIAbPsCLG9eCHlYk0Dz3qdriaqWSyl-X4Gby-Xhk4gLL-dEATEB3edxgIkeTxjiIdWUkSxBVVB1RZuB1UWAOfnteSAJdtBeRwxiH7nZJIPHxp1SVy5yVy7nsdkraktmv9hs3n8BS1GnrzyX_NzDMRAWOV4drUgBwk9UOWGksavqW9j0brWspzOQhw8vg_5bK-C4AqXueXxATNbMWFKYdRqOnPsiSaqOTN8k00LEc89NGlfTfuhTlWoQ5f7RlP1EjdB2rnj4LYuKSZEIoGZuWUwd4dpRYJSdZkWYwXqBBOHcQwUDwe2CoXRdjD5oVKl1nYrWRl6kr3d0CSvJybMk1AokQEVxNFJ-tp_xR_2G00]--></g></svg>