<?xml version="1.0" encoding="us-ascii" standalone="no"?><svg xmlns="http://www.w3.org/2000/svg" xmlns:xlink="http://www.w3.org/1999/xlink" contentStyleType="text/css" height="607px" preserveAspectRatio="none" style="width:610px;height:607px;background:#FFFFFF;" version="1.1" viewBox="0 0 610 607" width="610px" zoomAndPan="magnify"><defs/><g><text fill="#000000" font-family="sans-serif" font-size="14" font-weight="bold" lengthAdjust="spacing" textLength="200" x="198.25" y="23.5352">Pub/Sub with Topic Pattern</text><!--class Publisher--><g id="elem_Publisher"><rect codeLine="7" fill="#F1F1F1" height="80.9766" id="Publisher" rx="2.5" ry="2.5" style="stroke:#181818;stroke-width:0.5;" width="146" x="7" y="44.4883"/><ellipse cx="44.5" cy="60.4883" fill="#ADD1B2" rx="11" ry="11" style="stroke:#181818;stroke-width:1.0;"/><path d="M46.9731,66.6313 Q46.3921,66.9302 45.7529,67.0796 Q45.1138,67.229 44.4082,67.229 Q41.9014,67.229 40.5815,65.5771 Q39.2617,63.9253 39.2617,60.8042 Q39.2617,57.6748 40.5815,56.0229 Q41.9014,54.3711 44.4082,54.3711 Q45.1138,54.3711 45.7612,54.5205 Q46.4087,54.6699 46.9731,54.9688 L46.9731,57.6914 Q46.3423,57.1104 45.7488,56.8406 Q45.1553,56.5708 44.5244,56.5708 Q43.1797,56.5708 42.4949,57.6375 Q41.8101,58.7041 41.8101,60.8042 Q41.8101,62.896 42.4949,63.9626 Q43.1797,65.0293 44.5244,65.0293 Q45.1553,65.0293 45.7488,64.7595 Q46.3423,64.4897 46.9731,63.9087 Z " fill="#000000"/><text fill="#000000" font-family="sans-serif" font-size="14" lengthAdjust="spacing" textLength="64" x="63.5" y="65.7793">Publisher</text><line style="stroke:#181818;stroke-width:0.5;" x1="8" x2="152" y1="76.4883" y2="76.4883"/><line style="stroke:#181818;stroke-width:0.5;" x1="8" x2="152" y1="84.4883" y2="84.4883"/><ellipse cx="18" cy="98.2324" fill="#84BE84" rx="3" ry="3" style="stroke:#038048;stroke-width:1.0;"/><text fill="#000000" font-family="sans-serif" font-size="14" lengthAdjust="spacing" textLength="120" x="27" y="102.0234">publishMessage()</text><ellipse cx="18" cy="114.7207" fill="#84BE84" rx="3" ry="3" style="stroke:#038048;stroke-width:1.0;"/><text fill="#000000" font-family="sans-serif" font-size="14" lengthAdjust="spacing" textLength="99" x="27" y="118.5117">sendToTopic()</text></g><!--class Topic--><g id="elem_Topic"><rect codeLine="12" fill="#F1F1F1" height="97.4648" id="Topic" rx="2.5" ry="2.5" style="stroke:#181818;stroke-width:0.5;" width="174" x="206" y="215.4683"/><ellipse cx="269.75" cy="231.4683" fill="#ADD1B2" rx="11" ry="11" style="stroke:#181818;stroke-width:1.0;"/><path d="M272.2231,237.6113 Q271.6421,237.9102 271.0029,238.0596 Q270.3638,238.209 269.6582,238.209 Q267.1514,238.209 265.8315,236.5571 Q264.5117,234.9053 264.5117,231.7842 Q264.5117,228.6548 265.8315,227.0029 Q267.1514,225.3511 269.6582,225.3511 Q270.3638,225.3511 271.0112,225.5005 Q271.6587,225.6499 272.2231,225.9488 L272.2231,228.6714 Q271.5923,228.0904 270.9988,227.8206 Q270.4053,227.5508 269.7744,227.5508 Q268.4297,227.5508 267.7449,228.6175 Q267.0601,229.6841 267.0601,231.7842 Q267.0601,233.876 267.7449,234.9426 Q268.4297,236.0093 269.7744,236.0093 Q270.4053,236.0093 270.9988,235.7395 Q271.5923,235.4697 272.2231,234.8887 Z " fill="#000000"/><text fill="#000000" font-family="sans-serif" font-size="14" lengthAdjust="spacing" textLength="38" x="290.25" y="236.7593">Topic</text><line style="stroke:#181818;stroke-width:0.5;" x1="207" x2="379" y1="247.4683" y2="247.4683"/><line style="stroke:#181818;stroke-width:0.5;" x1="207" x2="379" y1="255.4683" y2="255.4683"/><ellipse cx="217" cy="269.2124" fill="#84BE84" rx="3" ry="3" style="stroke:#038048;stroke-width:1.0;"/><text fill="#000000" font-family="sans-serif" font-size="14" lengthAdjust="spacing" textLength="121" x="226" y="273.0034">publish(message)</text><ellipse cx="217" cy="285.7007" fill="#84BE84" rx="3" ry="3" style="stroke:#038048;stroke-width:1.0;"/><text fill="#000000" font-family="sans-serif" font-size="14" lengthAdjust="spacing" textLength="148" x="226" y="289.4917">subscribe(subscriber)</text><ellipse cx="217" cy="302.189" fill="#84BE84" rx="3" ry="3" style="stroke:#038048;stroke-width:1.0;"/><text fill="#000000" font-family="sans-serif" font-size="14" lengthAdjust="spacing" textLength="128" x="226" y="305.98">notify(subscribers)</text></g><!--class SubscriberA--><g id="elem_SubscriberA"><rect codeLine="18" fill="#F1F1F1" height="80.9766" id="SubscriberA" rx="2.5" ry="2.5" style="stroke:#181818;stroke-width:0.5;" width="148" x="36" y="402.9283"/><ellipse cx="64.05" cy="418.9283" fill="#ADD1B2" rx="11" ry="11" style="stroke:#181818;stroke-width:1.0;"/><path d="M66.5231,425.0713 Q65.9421,425.3702 65.3029,425.5196 Q64.6638,425.669 63.9582,425.669 Q61.4514,425.669 60.1315,424.0171 Q58.8117,422.3653 58.8117,419.2442 Q58.8117,416.1148 60.1315,414.4629 Q61.4514,412.8111 63.9582,412.8111 Q64.6638,412.8111 65.3112,412.9605 Q65.9587,413.1099 66.5231,413.4088 L66.5231,416.1314 Q65.8923,415.5504 65.2988,415.2806 Q64.7053,415.0108 64.0744,415.0108 Q62.7297,415.0108 62.0449,416.0775 Q61.3601,417.1441 61.3601,419.2442 Q61.3601,421.336 62.0449,422.4026 Q62.7297,423.4693 64.0744,423.4693 Q64.7053,423.4693 65.2988,423.1995 Q65.8923,422.9297 66.5231,422.3487 Z " fill="#000000"/><text fill="#000000" font-family="sans-serif" font-size="14" lengthAdjust="spacing" textLength="73" x="80.95" y="424.2193">Subscriber</text><text fill="#000000" font-family="sans-serif" font-size="14" lengthAdjust="spacing" textLength="4" x="153.95" y="424.2193">&#160;</text><text fill="#000000" font-family="sans-serif" font-size="14" lengthAdjust="spacing" textLength="10" x="157.95" y="424.2193">A</text><line style="stroke:#181818;stroke-width:0.5;" x1="37" x2="183" y1="434.9283" y2="434.9283"/><line style="stroke:#181818;stroke-width:0.5;" x1="37" x2="183" y1="442.9283" y2="442.9283"/><ellipse cx="47" cy="456.6724" fill="#84BE84" rx="3" ry="3" style="stroke:#038048;stroke-width:1.0;"/><text fill="#000000" font-family="sans-serif" font-size="14" lengthAdjust="spacing" textLength="87" x="56" y="460.4634">onMessage()</text><ellipse cx="47" cy="473.1607" fill="#84BE84" rx="3" ry="3" style="stroke:#038048;stroke-width:1.0;"/><text fill="#000000" font-family="sans-serif" font-size="14" lengthAdjust="spacing" textLength="122" x="56" y="476.9517">processMessage()</text></g><!--class SubscriberB--><g id="elem_SubscriberB"><rect codeLine="23" fill="#F1F1F1" height="80.9766" id="SubscriberB" rx="2.5" ry="2.5" style="stroke:#181818;stroke-width:0.5;" width="148" x="219" y="402.9283"/><ellipse cx="247.95" cy="418.9283" fill="#ADD1B2" rx="11" ry="11" style="stroke:#181818;stroke-width:1.0;"/><path d="M250.4231,425.0713 Q249.8421,425.3702 249.2029,425.5196 Q248.5638,425.669 247.8582,425.669 Q245.3514,425.669 244.0315,424.0171 Q242.7117,422.3653 242.7117,419.2442 Q242.7117,416.1148 244.0315,414.4629 Q245.3514,412.8111 247.8582,412.8111 Q248.5638,412.8111 249.2112,412.9605 Q249.8587,413.1099 250.4231,413.4088 L250.4231,416.1314 Q249.7923,415.5504 249.1988,415.2806 Q248.6053,415.0108 247.9744,415.0108 Q246.6297,415.0108 245.9449,416.0775 Q245.2601,417.1441 245.2601,419.2442 Q245.2601,421.336 245.9449,422.4026 Q246.6297,423.4693 247.9744,423.4693 Q248.6053,423.4693 249.1988,423.1995 Q249.7923,422.9297 250.4231,422.3487 Z " fill="#000000"/><text fill="#000000" font-family="sans-serif" font-size="14" lengthAdjust="spacing" textLength="73" x="265.05" y="424.2193">Subscriber</text><text fill="#000000" font-family="sans-serif" font-size="14" lengthAdjust="spacing" textLength="4" x="338.05" y="424.2193">&#160;</text><text fill="#000000" font-family="sans-serif" font-size="14" lengthAdjust="spacing" textLength="8" x="342.05" y="424.2193">B</text><line style="stroke:#181818;stroke-width:0.5;" x1="220" x2="366" y1="434.9283" y2="434.9283"/><line style="stroke:#181818;stroke-width:0.5;" x1="220" x2="366" y1="442.9283" y2="442.9283"/><ellipse cx="230" cy="456.6724" fill="#84BE84" rx="3" ry="3" style="stroke:#038048;stroke-width:1.0;"/><text fill="#000000" font-family="sans-serif" font-size="14" lengthAdjust="spacing" textLength="87" x="239" y="460.4634">onMessage()</text><ellipse cx="230" cy="473.1607" fill="#84BE84" rx="3" ry="3" style="stroke:#038048;stroke-width:1.0;"/><text fill="#000000" font-family="sans-serif" font-size="14" lengthAdjust="spacing" textLength="122" x="239" y="476.9517">processMessage()</text></g><!--class SubscriberC--><g id="elem_SubscriberC"><rect codeLine="28" fill="#F1F1F1" height="80.9766" id="SubscriberC" rx="2.5" ry="2.5" style="stroke:#181818;stroke-width:0.5;" width="148" x="402" y="402.9283"/><ellipse cx="430.05" cy="418.9283" fill="#ADD1B2" rx="11" ry="11" style="stroke:#181818;stroke-width:1.0;"/><path d="M432.5231,425.0713 Q431.9421,425.3702 431.3029,425.5196 Q430.6638,425.669 429.9582,425.669 Q427.4514,425.669 426.1315,424.0171 Q424.8117,422.3653 424.8117,419.2442 Q424.8117,416.1148 426.1315,414.4629 Q427.4514,412.8111 429.9582,412.8111 Q430.6638,412.8111 431.3112,412.9605 Q431.9587,413.1099 432.5231,413.4088 L432.5231,416.1314 Q431.8923,415.5504 431.2988,415.2806 Q430.7053,415.0108 430.0744,415.0108 Q428.7297,415.0108 428.0449,416.0775 Q427.3601,417.1441 427.3601,419.2442 Q427.3601,421.336 428.0449,422.4026 Q428.7297,423.4693 430.0744,423.4693 Q430.7053,423.4693 431.2988,423.1995 Q431.8923,422.9297 432.5231,422.3487 Z " fill="#000000"/><text fill="#000000" font-family="sans-serif" font-size="14" lengthAdjust="spacing" textLength="73" x="446.95" y="424.2193">Subscriber</text><text fill="#000000" font-family="sans-serif" font-size="14" lengthAdjust="spacing" textLength="4" x="519.95" y="424.2193">&#160;</text><text fill="#000000" font-family="sans-serif" font-size="14" lengthAdjust="spacing" textLength="10" x="523.95" y="424.2193">C</text><line style="stroke:#181818;stroke-width:0.5;" x1="403" x2="549" y1="434.9283" y2="434.9283"/><line style="stroke:#181818;stroke-width:0.5;" x1="403" x2="549" y1="442.9283" y2="442.9283"/><ellipse cx="413" cy="456.6724" fill="#84BE84" rx="3" ry="3" style="stroke:#038048;stroke-width:1.0;"/><text fill="#000000" font-family="sans-serif" font-size="14" lengthAdjust="spacing" textLength="87" x="422" y="460.4634">onMessage()</text><ellipse cx="413" cy="473.1607" fill="#84BE84" rx="3" ry="3" style="stroke:#038048;stroke-width:1.0;"/><text fill="#000000" font-family="sans-serif" font-size="14" lengthAdjust="spacing" textLength="122" x="422" y="476.9517">processMessage()</text></g><g id="elem_GMN11"><path d="M188,57.0083 L188,80.9783 L153.41,84.9783 L188,88.9783 L188,112.9399 A0,0 0 0 0 188,112.9399 L374,112.9399 A0,0 0 0 0 374,112.9399 L374,67.0083 L364,57.0083 L188,57.0083 A0,0 0 0 0 188,57.0083 " fill="#FEFFDD" style="stroke:#181818;stroke-width:0.5;"/><path d="M364,57.0083 L364,67.0083 L374,67.0083 L364,57.0083 " fill="#FEFFDD" style="stroke:#181818;stroke-width:0.5;"/><text fill="#000000" font-family="sans-serif" font-size="13" lengthAdjust="spacing" textLength="58" x="194" y="74.5766">Publisher</text><text fill="#000000" font-family="sans-serif" font-size="13" lengthAdjust="spacing" textLength="4" x="252" y="74.5766">&#160;</text><text fill="#000000" font-family="sans-serif" font-size="13" lengthAdjust="spacing" textLength="37" x="256" y="74.5766">sends</text><text fill="#000000" font-family="sans-serif" font-size="13" lengthAdjust="spacing" textLength="4" x="293" y="74.5766">&#160;</text><text fill="#000000" font-family="sans-serif" font-size="13" lengthAdjust="spacing" textLength="62" x="297" y="74.5766">messages</text><text fill="#000000" font-family="sans-serif" font-size="13" lengthAdjust="spacing" textLength="13" x="197" y="89.8872">to</text><text fill="#000000" font-family="sans-serif" font-size="13" lengthAdjust="spacing" textLength="4" x="210" y="89.8872">&#160;</text><text fill="#000000" font-family="sans-serif" font-size="13" lengthAdjust="spacing" textLength="32" x="214" y="89.8872">topic</text><text fill="#000000" font-family="sans-serif" font-size="13" lengthAdjust="spacing" textLength="4" x="246" y="89.8872">&#160;</text><text fill="#000000" font-family="sans-serif" font-size="13" lengthAdjust="spacing" textLength="48" x="250" y="89.8872">without</text><text fill="#000000" font-family="sans-serif" font-size="13" lengthAdjust="spacing" textLength="4" x="298" y="89.8872">&#160;</text><text fill="#000000" font-family="sans-serif" font-size="13" lengthAdjust="spacing" textLength="54" x="302" y="89.8872">knowing</text><text fill="#000000" font-family="sans-serif" font-size="13" lengthAdjust="spacing" textLength="36" x="220" y="105.1977">about</text><text fill="#000000" font-family="sans-serif" font-size="13" lengthAdjust="spacing" textLength="4" x="256" y="105.1977">&#160;</text><text fill="#000000" font-family="sans-serif" font-size="13" lengthAdjust="spacing" textLength="73" x="260" y="105.1977">subscribers</text></g><g id="elem_GMN14"><path d="M408.5,57.0083 L408.5,112.9399 A0,0 0 0 0 408.5,112.9399 L469.19,112.9399 L350.76,215.1483 L477.19,112.9399 L603.5,112.9399 A0,0 0 0 0 603.5,112.9399 L603.5,67.0083 L593.5,57.0083 L408.5,57.0083 A0,0 0 0 0 408.5,57.0083 " fill="#FEFFDD" style="stroke:#181818;stroke-width:0.5;"/><path d="M593.5,57.0083 L593.5,67.0083 L603.5,67.0083 L593.5,57.0083 " fill="#FEFFDD" style="stroke:#181818;stroke-width:0.5;"/><text fill="#000000" font-family="sans-serif" font-size="13" lengthAdjust="spacing" textLength="35" x="414.5" y="74.5766">Topic</text><text fill="#000000" font-family="sans-serif" font-size="13" lengthAdjust="spacing" textLength="4" x="449.5" y="74.5766">&#160;</text><text fill="#000000" font-family="sans-serif" font-size="13" lengthAdjust="spacing" textLength="69" x="453.5" y="74.5766">broadcasts</text><text fill="#000000" font-family="sans-serif" font-size="13" lengthAdjust="spacing" textLength="4" x="522.5" y="74.5766">&#160;</text><text fill="#000000" font-family="sans-serif" font-size="13" lengthAdjust="spacing" textLength="62" x="526.5" y="74.5766">messages</text><text fill="#000000" font-family="sans-serif" font-size="13" lengthAdjust="spacing" textLength="13" x="452" y="89.8872">to</text><text fill="#000000" font-family="sans-serif" font-size="13" lengthAdjust="spacing" textLength="4" x="465" y="89.8872">&#160;</text><text fill="#000000" font-family="sans-serif" font-size="13" lengthAdjust="spacing" textLength="15" x="469" y="89.8872">all</text><text fill="#000000" font-family="sans-serif" font-size="13" lengthAdjust="spacing" textLength="4" x="484" y="89.8872">&#160;</text><text fill="#000000" font-family="sans-serif" font-size="13" lengthAdjust="spacing" textLength="63" x="488" y="89.8872">registered</text><text fill="#000000" font-family="sans-serif" font-size="13" lengthAdjust="spacing" textLength="73" x="415" y="105.1977">subscribers</text><text fill="#000000" font-family="sans-serif" font-size="13" lengthAdjust="spacing" textLength="4" x="488" y="105.1977">&#160;</text><text fill="#000000" font-family="sans-serif" font-size="13" lengthAdjust="spacing" textLength="96" x="492" y="105.1977">simultaneously</text></g><g id="elem_GMN17"><path d="M22.5,544.9083 L22.5,600.8399 A0,0 0 0 0 22.5,600.8399 L197.5,600.8399 A0,0 0 0 0 197.5,600.8399 L197.5,554.9083 L187.5,544.9083 L114,544.9083 L110,484.3983 L106,544.9083 L22.5,544.9083 A0,0 0 0 0 22.5,544.9083 " fill="#FEFFDD" style="stroke:#181818;stroke-width:0.5;"/><path d="M187.5,544.9083 L187.5,554.9083 L197.5,554.9083 L187.5,544.9083 " fill="#FEFFDD" style="stroke:#181818;stroke-width:0.5;"/><text fill="#000000" font-family="sans-serif" font-size="13" lengthAdjust="spacing" textLength="29" x="28.5" y="562.4766">Each</text><text fill="#000000" font-family="sans-serif" font-size="13" lengthAdjust="spacing" textLength="4" x="57.5" y="562.4766">&#160;</text><text fill="#000000" font-family="sans-serif" font-size="13" lengthAdjust="spacing" textLength="66" x="61.5" y="562.4766">subscriber</text><text fill="#000000" font-family="sans-serif" font-size="13" lengthAdjust="spacing" textLength="4" x="127.5" y="562.4766">&#160;</text><text fill="#000000" font-family="sans-serif" font-size="13" lengthAdjust="spacing" textLength="51" x="131.5" y="562.4766">receives</text><text fill="#000000" font-family="sans-serif" font-size="13" lengthAdjust="spacing" textLength="7" x="28.5" y="577.7872">a</text><text fill="#000000" font-family="sans-serif" font-size="13" lengthAdjust="spacing" textLength="4" x="35.5" y="577.7872">&#160;</text><text fill="#000000" font-family="sans-serif" font-size="13" lengthAdjust="spacing" textLength="30" x="39.5" y="577.7872">copy</text><text fill="#000000" font-family="sans-serif" font-size="13" lengthAdjust="spacing" textLength="4" x="69.5" y="577.7872">&#160;</text><text fill="#000000" font-family="sans-serif" font-size="13" lengthAdjust="spacing" textLength="13" x="73.5" y="577.7872">of</text><text fill="#000000" font-family="sans-serif" font-size="13" lengthAdjust="spacing" textLength="4" x="86.5" y="577.7872">&#160;</text><text fill="#000000" font-family="sans-serif" font-size="13" lengthAdjust="spacing" textLength="33" x="90.5" y="577.7872">every</text><text fill="#000000" font-family="sans-serif" font-size="13" lengthAdjust="spacing" textLength="4" x="123.5" y="577.7872">&#160;</text><text fill="#000000" font-family="sans-serif" font-size="13" lengthAdjust="spacing" textLength="55" x="127.5" y="577.7872">message</text><text fill="#000000" font-family="sans-serif" font-size="13" lengthAdjust="spacing" textLength="62" x="36" y="593.0977">published</text><text fill="#000000" font-family="sans-serif" font-size="13" lengthAdjust="spacing" textLength="4" x="98" y="593.0977">&#160;</text><text fill="#000000" font-family="sans-serif" font-size="13" lengthAdjust="spacing" textLength="13" x="102" y="593.0977">to</text><text fill="#000000" font-family="sans-serif" font-size="13" lengthAdjust="spacing" textLength="4" x="115" y="593.0977">&#160;</text><text fill="#000000" font-family="sans-serif" font-size="13" lengthAdjust="spacing" textLength="20" x="119" y="593.0977">the</text><text fill="#000000" font-family="sans-serif" font-size="13" lengthAdjust="spacing" textLength="4" x="139" y="593.0977">&#160;</text><text fill="#000000" font-family="sans-serif" font-size="13" lengthAdjust="spacing" textLength="32" x="143" y="593.0977">topic</text></g><!--link Publisher to Topic--><g id="link_Publisher_Topic"><path codeLine="33" d="M127.8,125.7483 C159.57,152.1783 196.8579,183.2005 230.5079,211.2005 " fill="none" id="Publisher-to-Topic" style="stroke:#666666;stroke-width:1.0;"/><polygon fill="#666666" points="235.12,215.0383,230.7603,206.2069,231.2766,211.8402,225.6433,212.3564,235.12,215.0383" style="stroke:#666666;stroke-width:1.0;"/><text fill="#666666" font-family="sans-serif" font-size="12" lengthAdjust="spacing" textLength="41" x="200.25" y="168.0698">Publish</text><text fill="#666666" font-family="sans-serif" font-size="12" lengthAdjust="spacing" textLength="4" x="241.25" y="168.0698">&#160;</text><text fill="#666666" font-family="sans-serif" font-size="12" lengthAdjust="spacing" textLength="50" x="245.25" y="168.0698">Message</text><text fill="#666666" font-family="sans-serif" font-size="12" lengthAdjust="spacing" textLength="65" x="215.25" y="182.2027">[Broadcast]</text></g><!--link Topic to SubscriberA--><g id="link_Topic_SubscriberA"><path codeLine="34" d="M227.76,313.3283 C216.16,322.7483 204.46,332.8383 194,342.9283 C174.97,361.2983 159.5581,378.9891 144.3381,397.8491 " fill="none" id="Topic-to-SubscriberA" style="stroke:#666666;stroke-width:1.0;"/><polygon fill="#666666" points="140.57,402.5183,149.3349,398.0265,143.7101,398.6273,143.1093,393.0024,140.57,402.5183" style="stroke:#666666;stroke-width:1.0;"/><text fill="#666666" font-family="sans-serif" font-size="12" lengthAdjust="spacing" textLength="33" x="223" y="355.5298">Notify</text><text fill="#666666" font-family="sans-serif" font-size="12" lengthAdjust="spacing" textLength="31" x="195" y="369.6627">[Push</text><text fill="#666666" font-family="sans-serif" font-size="12" lengthAdjust="spacing" textLength="4" x="226" y="369.6627">&#160;</text><text fill="#666666" font-family="sans-serif" font-size="12" lengthAdjust="spacing" textLength="54" x="230" y="369.6627">Message]</text></g><!--link Topic to SubscriberB--><g id="link_Topic_SubscriberB"><path codeLine="35" d="M293,313.1583 C293,341.1383 293,370.0283 293,396.5083 " fill="none" id="Topic-to-SubscriberB" style="stroke:#666666;stroke-width:1.0;"/><polygon fill="#666666" points="293,402.5083,297,393.5083,293,397.5083,289,393.5083,293,402.5083" style="stroke:#666666;stroke-width:1.0;"/><text fill="#666666" font-family="sans-serif" font-size="12" lengthAdjust="spacing" textLength="33" x="322" y="355.5298">Notify</text><text fill="#666666" font-family="sans-serif" font-size="12" lengthAdjust="spacing" textLength="31" x="294" y="369.6627">[Push</text><text fill="#666666" font-family="sans-serif" font-size="12" lengthAdjust="spacing" textLength="4" x="325" y="369.6627">&#160;</text><text fill="#666666" font-family="sans-serif" font-size="12" lengthAdjust="spacing" textLength="54" x="329" y="369.6627">Message]</text></g><!--link Topic to SubscriberC--><g id="link_Topic_SubscriberC"><path codeLine="36" d="M358.24,313.3283 C369.84,322.7483 381.54,332.8383 392,342.9283 C411.03,361.2983 426.4419,378.9891 441.6619,397.8491 " fill="none" id="Topic-to-SubscriberC" style="stroke:#666666;stroke-width:1.0;"/><polygon fill="#666666" points="445.43,402.5183,442.8907,393.0024,442.2899,398.6273,436.6651,398.0265,445.43,402.5183" style="stroke:#666666;stroke-width:1.0;"/><text fill="#666666" font-family="sans-serif" font-size="12" lengthAdjust="spacing" textLength="33" x="448.13" y="355.5298">Notify</text><text fill="#666666" font-family="sans-serif" font-size="12" lengthAdjust="spacing" textLength="31" x="420.13" y="369.6627">[Push</text><text fill="#666666" font-family="sans-serif" font-size="12" lengthAdjust="spacing" textLength="4" x="451.13" y="369.6627">&#160;</text><text fill="#666666" font-family="sans-serif" font-size="12" lengthAdjust="spacing" textLength="54" x="455.13" y="369.6627">Message]</text></g><!--SRC=[fPD1Q-Cm48Nl-XNJdB8iYIzxwc4XCM4lRGbjUkekYonFR55PCjAe8IpzxntPRkqQMYWBESHlvdjF6eylj5KcbWWrKHikiypBqxhILCSY1lJAMK9BQ-MQh3NIKcpCAb1fT97bFrRx9DrVNsMD38IUfRyv4r9RzEkMUuKWJGPX7uliBXPmOcSuk5Ohs4jYn0fnKUAH0RZTvOVDpQ-h7IWZGn1Y51WtEjJeuPy0-0vj_toD8SWAbzywCQ0j3wupP-LvolU9xzXbqyC36ukWl2vm-VRFznNhI1_F4pdCl1TtRoNOB40668NDaEdi-wEstYaMHl53n-tCSVlVZldCCV-2u_WULgkVmrGlOJ78CFJ-jWzRxsIfU2d-B4JVbe3fO1YxwKRBtViumXy0swy2-MU0uBUAu7LL4xZZk5vyyV6AQPy236iIk4IEVoafRR6B18_MdRIjk2IBz3nP4i5msXqSiXXCITr9kRy_SV4wfNcCD0OyLZfzL5YoDd66e9jeI5fqCPZpFAXmHAv9MPDfiyDEgdfYm_OAzLCNA46vzfmGV49_VZqBLuPl1SlkxZNsznyZNm00]--></g></svg>