<?xml version="1.0" encoding="us-ascii" standalone="no"?><svg xmlns="http://www.w3.org/2000/svg" xmlns:xlink="http://www.w3.org/1999/xlink" contentStyleType="text/css" height="795px" preserveAspectRatio="none" style="width:558px;height:795px;background:#FFFFFF;" version="1.1" viewBox="0 0 558 795" width="558px" zoomAndPan="magnify"><defs/><g><text fill="#000000" font-family="sans-serif" font-size="14" font-weight="bold" lengthAdjust="spacing" textLength="245" x="149.75" y="23.5352">Load Balanced Consumers Pattern</text><!--class Producer--><g id="elem_Producer"><rect codeLine="7" fill="#F1F1F1" height="80.9766" id="Producer" rx="2.5" ry="2.5" style="stroke:#181818;stroke-width:0.5;" width="152" x="116.5" y="44.4883"/><ellipse cx="157.6" cy="60.4883" fill="#ADD1B2" rx="11" ry="11" style="stroke:#181818;stroke-width:1.0;"/><path d="M160.0731,66.6313 Q159.4921,66.9302 158.8529,67.0796 Q158.2138,67.229 157.5082,67.229 Q155.0014,67.229 153.6815,65.5771 Q152.3617,63.9253 152.3617,60.8042 Q152.3617,57.6748 153.6815,56.0229 Q155.0014,54.3711 157.5082,54.3711 Q158.2138,54.3711 158.8612,54.5205 Q159.5087,54.6699 160.0731,54.9688 L160.0731,57.6914 Q159.4423,57.1104 158.8488,56.8406 Q158.2553,56.5708 157.6244,56.5708 Q156.2797,56.5708 155.5949,57.6375 Q154.9101,58.7041 154.9101,60.8042 Q154.9101,62.896 155.5949,63.9626 Q156.2797,65.0293 157.6244,65.0293 Q158.2553,65.0293 158.8488,64.7595 Q159.4423,64.4897 160.0731,63.9087 Z " fill="#000000"/><text fill="#000000" font-family="sans-serif" font-size="14" lengthAdjust="spacing" textLength="62" x="177.4" y="65.7793">Producer</text><line style="stroke:#181818;stroke-width:0.5;" x1="117.5" x2="267.5" y1="76.4883" y2="76.4883"/><line style="stroke:#181818;stroke-width:0.5;" x1="117.5" x2="267.5" y1="84.4883" y2="84.4883"/><ellipse cx="127.5" cy="98.2324" fill="#84BE84" rx="3" ry="3" style="stroke:#038048;stroke-width:1.0;"/><text fill="#000000" font-family="sans-serif" font-size="14" lengthAdjust="spacing" textLength="126" x="136.5" y="102.0234">produceMessage()</text><ellipse cx="127.5" cy="114.7207" fill="#84BE84" rx="3" ry="3" style="stroke:#038048;stroke-width:1.0;"/><text fill="#000000" font-family="sans-serif" font-size="14" lengthAdjust="spacing" textLength="106" x="136.5" y="118.5117">sendToQueue()</text></g><!--class Queue--><g id="elem_Queue"><rect codeLine="12" fill="#F1F1F1" height="97.4648" id="Queue" rx="2.5" ry="2.5" style="stroke:#181818;stroke-width:0.5;" width="156" x="114.5" y="215.4583"/><ellipse cx="165.75" cy="231.4583" fill="#ADD1B2" rx="11" ry="11" style="stroke:#181818;stroke-width:1.0;"/><path d="M168.2231,237.6013 Q167.6421,237.9002 167.0029,238.0496 Q166.3638,238.199 165.6582,238.199 Q163.1514,238.199 161.8315,236.5471 Q160.5117,234.8953 160.5117,231.7742 Q160.5117,228.6448 161.8315,226.9929 Q163.1514,225.3411 165.6582,225.3411 Q166.3638,225.3411 167.0112,225.4905 Q167.6587,225.6399 168.2231,225.9387 L168.2231,228.6614 Q167.5923,228.0804 166.9988,227.8106 Q166.4053,227.5408 165.7744,227.5408 Q164.4297,227.5408 163.7449,228.6075 Q163.0601,229.6741 163.0601,231.7742 Q163.0601,233.866 163.7449,234.9326 Q164.4297,235.9993 165.7744,235.9993 Q166.4053,235.9993 166.9988,235.7295 Q167.5923,235.4597 168.2231,234.8787 Z " fill="#000000"/><text fill="#000000" font-family="sans-serif" font-size="14" lengthAdjust="spacing" textLength="45" x="186.25" y="236.7493">Queue</text><line style="stroke:#181818;stroke-width:0.5;" x1="115.5" x2="269.5" y1="247.4583" y2="247.4583"/><line style="stroke:#181818;stroke-width:0.5;" x1="115.5" x2="269.5" y1="255.4583" y2="255.4583"/><ellipse cx="125.5" cy="269.2024" fill="#84BE84" rx="3" ry="3" style="stroke:#038048;stroke-width:1.0;"/><text fill="#000000" font-family="sans-serif" font-size="14" lengthAdjust="spacing" textLength="130" x="134.5" y="272.9934">enqueue(message)</text><ellipse cx="125.5" cy="285.6907" fill="#84BE84" rx="3" ry="3" style="stroke:#038048;stroke-width:1.0;"/><text fill="#000000" font-family="sans-serif" font-size="14" lengthAdjust="spacing" textLength="70" x="134.5" y="289.4817">dequeue()</text><ellipse cx="125.5" cy="302.179" fill="#84BE84" rx="3" ry="3" style="stroke:#038048;stroke-width:1.0;"/><text fill="#000000" font-family="sans-serif" font-size="14" lengthAdjust="spacing" textLength="92" x="134.5" y="305.97">loadBalance()</text></g><!--class LoadBalancer--><g id="elem_LoadBalancer"><rect codeLine="18" fill="#F1F1F1" height="97.4648" id="LoadBalancer" rx="2.5" ry="2.5" style="stroke:#181818;stroke-width:0.5;" width="161" x="214" y="402.9283"/><ellipse cx="244.3" cy="418.9283" fill="#ADD1B2" rx="11" ry="11" style="stroke:#181818;stroke-width:1.0;"/><path d="M246.7731,425.0713 Q246.1921,425.3702 245.5529,425.5196 Q244.9138,425.669 244.2082,425.669 Q241.7014,425.669 240.3815,424.0171 Q239.0617,422.3653 239.0617,419.2442 Q239.0617,416.1148 240.3815,414.4629 Q241.7014,412.8111 244.2082,412.8111 Q244.9138,412.8111 245.5612,412.9605 Q246.2087,413.1099 246.7731,413.4087 L246.7731,416.1314 Q246.1423,415.5504 245.5488,415.2806 Q244.9553,415.0108 244.3244,415.0108 Q242.9797,415.0108 242.2949,416.0775 Q241.6101,417.1441 241.6101,419.2442 Q241.6101,421.336 242.2949,422.4026 Q242.9797,423.4693 244.3244,423.4693 Q244.9553,423.4693 245.5488,423.1995 Q246.1423,422.9297 246.7731,422.3487 Z " fill="#000000"/><text fill="#000000" font-family="sans-serif" font-size="14" lengthAdjust="spacing" textLength="33" x="261.7" y="424.2193">Load</text><text fill="#000000" font-family="sans-serif" font-size="14" lengthAdjust="spacing" textLength="4" x="294.7" y="424.2193">&#160;</text><text fill="#000000" font-family="sans-serif" font-size="14" lengthAdjust="spacing" textLength="58" x="298.7" y="424.2193">Balancer</text><line style="stroke:#181818;stroke-width:0.5;" x1="215" x2="374" y1="434.9283" y2="434.9283"/><line style="stroke:#181818;stroke-width:0.5;" x1="215" x2="374" y1="442.9283" y2="442.9283"/><ellipse cx="225" cy="456.6724" fill="#84BE84" rx="3" ry="3" style="stroke:#038048;stroke-width:1.0;"/><text fill="#000000" font-family="sans-serif" font-size="14" lengthAdjust="spacing" textLength="135" x="234" y="460.4634">distributeMessage()</text><ellipse cx="225" cy="473.1607" fill="#84BE84" rx="3" ry="3" style="stroke:#038048;stroke-width:1.0;"/><text fill="#000000" font-family="sans-serif" font-size="14" lengthAdjust="spacing" textLength="120" x="234" y="476.9517">selectConsumer()</text><ellipse cx="225" cy="489.649" fill="#84BE84" rx="3" ry="3" style="stroke:#038048;stroke-width:1.0;"/><text fill="#000000" font-family="sans-serif" font-size="14" lengthAdjust="spacing" textLength="95" x="234" y="493.44">healthCheck()</text></g><!--class Consumer1--><g id="elem_Consumer1"><rect codeLine="24" fill="#F1F1F1" height="80.9766" id="Consumer1" rx="2.5" ry="2.5" style="stroke:#181818;stroke-width:0.5;" width="148" x="37.5" y="590.3883"/><ellipse cx="66.9" cy="606.3883" fill="#ADD1B2" rx="11" ry="11" style="stroke:#181818;stroke-width:1.0;"/><path d="M69.3731,612.5313 Q68.7921,612.8302 68.1529,612.9796 Q67.5138,613.129 66.8082,613.129 Q64.3014,613.129 62.9815,611.4771 Q61.6617,609.8253 61.6617,606.7042 Q61.6617,603.5748 62.9815,601.9229 Q64.3014,600.2711 66.8082,600.2711 Q67.5138,600.2711 68.1612,600.4205 Q68.8087,600.5699 69.3731,600.8688 L69.3731,603.5914 Q68.7423,603.0104 68.1488,602.7406 Q67.5553,602.4708 66.9244,602.4708 Q65.5797,602.4708 64.8949,603.5375 Q64.2101,604.6041 64.2101,606.7042 Q64.2101,608.796 64.8949,609.8626 Q65.5797,610.9293 66.9244,610.9293 Q67.5553,610.9293 68.1488,610.6595 Q68.7423,610.3897 69.3731,609.8087 Z " fill="#000000"/><text fill="#000000" font-family="sans-serif" font-size="14" lengthAdjust="spacing" textLength="71" x="84.1" y="611.6793">Consumer</text><text fill="#000000" font-family="sans-serif" font-size="14" lengthAdjust="spacing" textLength="4" x="155.1" y="611.6793">&#160;</text><text fill="#000000" font-family="sans-serif" font-size="14" lengthAdjust="spacing" textLength="9" x="159.1" y="611.6793">1</text><line style="stroke:#181818;stroke-width:0.5;" x1="38.5" x2="184.5" y1="622.3883" y2="622.3883"/><line style="stroke:#181818;stroke-width:0.5;" x1="38.5" x2="184.5" y1="630.3883" y2="630.3883"/><ellipse cx="48.5" cy="644.1324" fill="#84BE84" rx="3" ry="3" style="stroke:#038048;stroke-width:1.0;"/><text fill="#000000" font-family="sans-serif" font-size="14" lengthAdjust="spacing" textLength="122" x="57.5" y="647.9234">processMessage()</text><ellipse cx="48.5" cy="660.6207" fill="#84BE84" rx="3" ry="3" style="stroke:#038048;stroke-width:1.0;"/><text fill="#000000" font-family="sans-serif" font-size="14" lengthAdjust="spacing" textLength="97" x="57.5" y="664.4117">reportHealth()</text></g><!--class Consumer2--><g id="elem_Consumer2"><rect codeLine="29" fill="#F1F1F1" height="80.9766" id="Consumer2" rx="2.5" ry="2.5" style="stroke:#181818;stroke-width:0.5;" width="148" x="220.5" y="590.3883"/><ellipse cx="249.9" cy="606.3883" fill="#ADD1B2" rx="11" ry="11" style="stroke:#181818;stroke-width:1.0;"/><path d="M252.3731,612.5313 Q251.7921,612.8302 251.1529,612.9796 Q250.5138,613.129 249.8082,613.129 Q247.3014,613.129 245.9815,611.4771 Q244.6617,609.8253 244.6617,606.7042 Q244.6617,603.5748 245.9815,601.9229 Q247.3014,600.2711 249.8082,600.2711 Q250.5138,600.2711 251.1612,600.4205 Q251.8087,600.5699 252.3731,600.8688 L252.3731,603.5914 Q251.7423,603.0104 251.1488,602.7406 Q250.5553,602.4708 249.9244,602.4708 Q248.5797,602.4708 247.8949,603.5375 Q247.2101,604.6041 247.2101,606.7042 Q247.2101,608.796 247.8949,609.8626 Q248.5797,610.9293 249.9244,610.9293 Q250.5553,610.9293 251.1488,610.6595 Q251.7423,610.3897 252.3731,609.8087 Z " fill="#000000"/><text fill="#000000" font-family="sans-serif" font-size="14" lengthAdjust="spacing" textLength="71" x="267.1" y="611.6793">Consumer</text><text fill="#000000" font-family="sans-serif" font-size="14" lengthAdjust="spacing" textLength="4" x="338.1" y="611.6793">&#160;</text><text fill="#000000" font-family="sans-serif" font-size="14" lengthAdjust="spacing" textLength="9" x="342.1" y="611.6793">2</text><line style="stroke:#181818;stroke-width:0.5;" x1="221.5" x2="367.5" y1="622.3883" y2="622.3883"/><line style="stroke:#181818;stroke-width:0.5;" x1="221.5" x2="367.5" y1="630.3883" y2="630.3883"/><ellipse cx="231.5" cy="644.1324" fill="#84BE84" rx="3" ry="3" style="stroke:#038048;stroke-width:1.0;"/><text fill="#000000" font-family="sans-serif" font-size="14" lengthAdjust="spacing" textLength="122" x="240.5" y="647.9234">processMessage()</text><ellipse cx="231.5" cy="660.6207" fill="#84BE84" rx="3" ry="3" style="stroke:#038048;stroke-width:1.0;"/><text fill="#000000" font-family="sans-serif" font-size="14" lengthAdjust="spacing" textLength="97" x="240.5" y="664.4117">reportHealth()</text></g><!--class Consumer3--><g id="elem_Consumer3"><rect codeLine="34" fill="#F1F1F1" height="80.9766" id="Consumer3" rx="2.5" ry="2.5" style="stroke:#181818;stroke-width:0.5;" width="148" x="403.5" y="590.3883"/><ellipse cx="432.9" cy="606.3883" fill="#ADD1B2" rx="11" ry="11" style="stroke:#181818;stroke-width:1.0;"/><path d="M435.3731,612.5313 Q434.7921,612.8302 434.1529,612.9796 Q433.5138,613.129 432.8082,613.129 Q430.3014,613.129 428.9815,611.4771 Q427.6617,609.8253 427.6617,606.7042 Q427.6617,603.5748 428.9815,601.9229 Q430.3014,600.2711 432.8082,600.2711 Q433.5138,600.2711 434.1612,600.4205 Q434.8087,600.5699 435.3731,600.8688 L435.3731,603.5914 Q434.7423,603.0104 434.1488,602.7406 Q433.5553,602.4708 432.9244,602.4708 Q431.5797,602.4708 430.8949,603.5375 Q430.2101,604.6041 430.2101,606.7042 Q430.2101,608.796 430.8949,609.8626 Q431.5797,610.9293 432.9244,610.9293 Q433.5553,610.9293 434.1488,610.6595 Q434.7423,610.3897 435.3731,609.8087 Z " fill="#000000"/><text fill="#000000" font-family="sans-serif" font-size="14" lengthAdjust="spacing" textLength="71" x="450.1" y="611.6793">Consumer</text><text fill="#000000" font-family="sans-serif" font-size="14" lengthAdjust="spacing" textLength="4" x="521.1" y="611.6793">&#160;</text><text fill="#000000" font-family="sans-serif" font-size="14" lengthAdjust="spacing" textLength="9" x="525.1" y="611.6793">3</text><line style="stroke:#181818;stroke-width:0.5;" x1="404.5" x2="550.5" y1="622.3883" y2="622.3883"/><line style="stroke:#181818;stroke-width:0.5;" x1="404.5" x2="550.5" y1="630.3883" y2="630.3883"/><ellipse cx="414.5" cy="644.1324" fill="#84BE84" rx="3" ry="3" style="stroke:#038048;stroke-width:1.0;"/><text fill="#000000" font-family="sans-serif" font-size="14" lengthAdjust="spacing" textLength="122" x="423.5" y="647.9234">processMessage()</text><ellipse cx="414.5" cy="660.6207" fill="#84BE84" rx="3" ry="3" style="stroke:#038048;stroke-width:1.0;"/><text fill="#000000" font-family="sans-serif" font-size="14" lengthAdjust="spacing" textLength="97" x="423.5" y="664.4117">reportHealth()</text></g><g id="elem_GMN13"><path d="M304,64.6583 L304,80.9683 L268.74,84.9683 L304,88.9683 L304,105.2794 A0,0 0 0 0 304,105.2794 L503,105.2794 A0,0 0 0 0 503,105.2794 L503,74.6583 L493,64.6583 L304,64.6583 A0,0 0 0 0 304,64.6583 " fill="#FEFFDD" style="stroke:#181818;stroke-width:0.5;"/><path d="M493,64.6583 L493,74.6583 L503,74.6583 L493,64.6583 " fill="#FEFFDD" style="stroke:#181818;stroke-width:0.5;"/><text fill="#000000" font-family="sans-serif" font-size="13" lengthAdjust="spacing" textLength="55" x="310" y="82.2266">Producer</text><text fill="#000000" font-family="sans-serif" font-size="13" lengthAdjust="spacing" textLength="4" x="365" y="82.2266">&#160;</text><text fill="#000000" font-family="sans-serif" font-size="13" lengthAdjust="spacing" textLength="37" x="369" y="82.2266">sends</text><text fill="#000000" font-family="sans-serif" font-size="13" lengthAdjust="spacing" textLength="4" x="406" y="82.2266">&#160;</text><text fill="#000000" font-family="sans-serif" font-size="13" lengthAdjust="spacing" textLength="28" x="410" y="82.2266">high</text><text fill="#000000" font-family="sans-serif" font-size="13" lengthAdjust="spacing" textLength="4" x="438" y="82.2266">&#160;</text><text fill="#000000" font-family="sans-serif" font-size="13" lengthAdjust="spacing" textLength="46" x="442" y="82.2266">volume</text><text fill="#000000" font-family="sans-serif" font-size="13" lengthAdjust="spacing" textLength="13" x="330" y="97.5372">of</text><text fill="#000000" font-family="sans-serif" font-size="13" lengthAdjust="spacing" textLength="4" x="343" y="97.5372">&#160;</text><text fill="#000000" font-family="sans-serif" font-size="13" lengthAdjust="spacing" textLength="62" x="347" y="97.5372">messages</text><text fill="#000000" font-family="sans-serif" font-size="13" lengthAdjust="spacing" textLength="4" x="409" y="97.5372">&#160;</text><text fill="#000000" font-family="sans-serif" font-size="13" lengthAdjust="spacing" textLength="13" x="413" y="97.5372">to</text><text fill="#000000" font-family="sans-serif" font-size="13" lengthAdjust="spacing" textLength="4" x="426" y="97.5372">&#160;</text><text fill="#000000" font-family="sans-serif" font-size="13" lengthAdjust="spacing" textLength="38" x="430" y="97.5372">queue</text></g><g id="elem_GMN16"><path d="M305.5,236.2283 L305.5,292.1599 L485.5,292.1599 L485.5,246.2283 L475.5,236.2283 L305.5,236.2283 " fill="#FEFFDD" style="stroke:#181818;stroke-width:0.5;"/><path d="M475.5,236.2283 L475.5,246.2283 L485.5,246.2283 L475.5,236.2283 " fill="#FEFFDD" style="stroke:#181818;stroke-width:1.0;"/><text fill="#000000" font-family="sans-serif" font-size="13" lengthAdjust="spacing" textLength="30" x="311.5" y="253.7966">Load</text><text fill="#000000" font-family="sans-serif" font-size="13" lengthAdjust="spacing" textLength="4" x="341.5" y="253.7966">&#160;</text><text fill="#000000" font-family="sans-serif" font-size="13" lengthAdjust="spacing" textLength="53" x="345.5" y="253.7966">balancer</text><text fill="#000000" font-family="sans-serif" font-size="13" lengthAdjust="spacing" textLength="4" x="398.5" y="253.7966">&#160;</text><text fill="#000000" font-family="sans-serif" font-size="13" lengthAdjust="spacing" textLength="68" x="402.5" y="253.7966">distributes</text><text fill="#000000" font-family="sans-serif" font-size="13" lengthAdjust="spacing" textLength="62" x="315.5" y="269.1072">messages</text><text fill="#000000" font-family="sans-serif" font-size="13" lengthAdjust="spacing" textLength="4" x="377.5" y="269.1072">&#160;</text><text fill="#000000" font-family="sans-serif" font-size="13" lengthAdjust="spacing" textLength="40" x="381.5" y="269.1072">evenly</text><text fill="#000000" font-family="sans-serif" font-size="13" lengthAdjust="spacing" textLength="4" x="421.5" y="269.1072">&#160;</text><text fill="#000000" font-family="sans-serif" font-size="13" lengthAdjust="spacing" textLength="41" x="425.5" y="269.1072">across</text><text fill="#000000" font-family="sans-serif" font-size="13" lengthAdjust="spacing" textLength="46" x="331.5" y="284.4177">healthy</text><text fill="#000000" font-family="sans-serif" font-size="13" lengthAdjust="spacing" textLength="4" x="377.5" y="284.4177">&#160;</text><text fill="#000000" font-family="sans-serif" font-size="13" lengthAdjust="spacing" textLength="69" x="381.5" y="284.4177">consumers</text></g><g id="elem_GMN19"><path d="M6,732.3683 L6,788.2999 A0,0 0 0 0 6,788.2999 L217,788.2999 A0,0 0 0 0 217,788.2999 L217,742.3683 L207,732.3683 L115.5,732.3683 L111.5,671.8583 L107.5,732.3683 L6,732.3683 A0,0 0 0 0 6,732.3683 " fill="#FEFFDD" style="stroke:#181818;stroke-width:0.5;"/><path d="M207,732.3683 L207,742.3683 L217,742.3683 L207,732.3683 " fill="#FEFFDD" style="stroke:#181818;stroke-width:0.5;"/><text fill="#000000" font-family="sans-serif" font-size="13" lengthAdjust="spacing" textLength="71" x="12" y="749.9366">Consumers</text><text fill="#000000" font-family="sans-serif" font-size="13" lengthAdjust="spacing" textLength="4" x="83" y="749.9366">&#160;</text><text fill="#000000" font-family="sans-serif" font-size="13" lengthAdjust="spacing" textLength="49" x="87" y="749.9366">process</text><text fill="#000000" font-family="sans-serif" font-size="13" lengthAdjust="spacing" textLength="4" x="136" y="749.9366">&#160;</text><text fill="#000000" font-family="sans-serif" font-size="13" lengthAdjust="spacing" textLength="62" x="140" y="749.9366">messages</text><text fill="#000000" font-family="sans-serif" font-size="13" lengthAdjust="spacing" textLength="12" x="44.5" y="765.2472">in</text><text fill="#000000" font-family="sans-serif" font-size="13" lengthAdjust="spacing" textLength="4" x="56.5" y="765.2472">&#160;</text><text fill="#000000" font-family="sans-serif" font-size="13" lengthAdjust="spacing" textLength="46" x="60.5" y="765.2472">parallel</text><text fill="#000000" font-family="sans-serif" font-size="13" lengthAdjust="spacing" textLength="4" x="106.5" y="765.2472">&#160;</text><text fill="#000000" font-family="sans-serif" font-size="13" lengthAdjust="spacing" textLength="18" x="110.5" y="765.2472">for</text><text fill="#000000" font-family="sans-serif" font-size="13" lengthAdjust="spacing" textLength="4" x="128.5" y="765.2472">&#160;</text><text fill="#000000" font-family="sans-serif" font-size="13" lengthAdjust="spacing" textLength="37" x="132.5" y="765.2472">better</text><text fill="#000000" font-family="sans-serif" font-size="13" lengthAdjust="spacing" textLength="71" x="24" y="780.5577">throughput</text><text fill="#000000" font-family="sans-serif" font-size="13" lengthAdjust="spacing" textLength="4" x="95" y="780.5577">&#160;</text><text fill="#000000" font-family="sans-serif" font-size="13" lengthAdjust="spacing" textLength="23" x="99" y="780.5577">and</text><text fill="#000000" font-family="sans-serif" font-size="13" lengthAdjust="spacing" textLength="4" x="122" y="780.5577">&#160;</text><text fill="#000000" font-family="sans-serif" font-size="13" lengthAdjust="spacing" textLength="64" x="126" y="780.5577">scalability</text></g><!--link Producer to Queue--><g id="link_Producer_Queue"><path codeLine="39" d="M192.5,125.7483 C192.5,152.1783 192.5,181.0383 192.5,209.0383 " fill="none" id="Producer-to-Queue" style="stroke:#666666;stroke-width:1.0;"/><polygon fill="#666666" points="192.5,215.0383,196.5,206.0383,192.5,210.0383,188.5,206.0383,192.5,215.0383" style="stroke:#666666;stroke-width:1.0;"/><text fill="#666666" font-family="sans-serif" font-size="12" lengthAdjust="spacing" textLength="28" x="193.5" y="168.0598">Send</text><text fill="#666666" font-family="sans-serif" font-size="12" lengthAdjust="spacing" textLength="4" x="221.5" y="168.0598">&#160;</text><text fill="#666666" font-family="sans-serif" font-size="12" lengthAdjust="spacing" textLength="56" x="225.5" y="168.0598">Messages</text><text fill="#666666" font-family="sans-serif" font-size="12" lengthAdjust="spacing" textLength="30" x="197" y="182.1927">[High</text><text fill="#666666" font-family="sans-serif" font-size="12" lengthAdjust="spacing" textLength="4" x="227" y="182.1927">&#160;</text><text fill="#666666" font-family="sans-serif" font-size="12" lengthAdjust="spacing" textLength="47" x="231" y="182.1927">Volume]</text></g><!--link Queue to LoadBalancer--><g id="link_Queue_LoadBalancer"><path codeLine="40" d="M204.28,313.2483 C210.08,332.4983 218.09,354.4583 228.5,372.9283 C234.24,383.1083 237.6592,388.5072 245.1392,397.8872 " fill="none" id="Queue-to-LoadBalancer" style="stroke:#666666;stroke-width:1.0;"/><polygon fill="#666666" points="248.88,402.5783,246.3961,393.0478,245.7626,398.6691,240.1414,398.0356,248.88,402.5783" style="stroke:#666666;stroke-width:1.0;"/><text fill="#666666" font-family="sans-serif" font-size="12" lengthAdjust="spacing" textLength="47" x="229.5" y="355.5298">Forward</text><text fill="#666666" font-family="sans-serif" font-size="12" lengthAdjust="spacing" textLength="4" x="276.5" y="355.5298">&#160;</text><text fill="#666666" font-family="sans-serif" font-size="12" lengthAdjust="spacing" textLength="56" x="280.5" y="355.5298">Messages</text><text fill="#666666" font-family="sans-serif" font-size="12" lengthAdjust="spacing" textLength="74" x="246" y="369.6627">[Distribution]</text></g><!--link LoadBalancer to Consumer1--><g id="link_LoadBalancer_Consumer1"><path codeLine="41" d="M230.98,500.7983 C219.52,510.2483 207.91,520.3583 197.5,530.3883 C178.26,548.9283 162.4822,566.6815 146.8522,585.5115 " fill="none" id="LoadBalancer-to-Consumer1" style="stroke:#666666;stroke-width:1.0;"/><polygon fill="#666666" points="143.02,590.1283,151.8461,585.7579,146.2135,586.281,145.6904,580.6484,143.02,590.1283" style="stroke:#666666;stroke-width:1.0;"/><text fill="#666666" font-family="sans-serif" font-size="12" lengthAdjust="spacing" textLength="33" x="198.5" y="542.9898">Route</text><text fill="#666666" font-family="sans-serif" font-size="12" lengthAdjust="spacing" textLength="4" x="231.5" y="542.9898">&#160;</text><text fill="#666666" font-family="sans-serif" font-size="12" lengthAdjust="spacing" textLength="50" x="235.5" y="542.9898">Message</text><text fill="#666666" font-family="sans-serif" font-size="12" lengthAdjust="spacing" textLength="41" x="201" y="557.1227">[Round</text><text fill="#666666" font-family="sans-serif" font-size="12" lengthAdjust="spacing" textLength="4" x="242" y="557.1227">&#160;</text><text fill="#666666" font-family="sans-serif" font-size="12" lengthAdjust="spacing" textLength="37" x="246" y="557.1227">Robin]</text></g><!--link LoadBalancer to Consumer2--><g id="link_LoadBalancer_Consumer2"><path codeLine="42" d="M294.5,500.6183 C294.5,528.5983 294.5,557.4883 294.5,583.9683 " fill="none" id="LoadBalancer-to-Consumer2" style="stroke:#666666;stroke-width:1.0;"/><polygon fill="#666666" points="294.5,589.9683,298.5,580.9683,294.5,584.9683,290.5,580.9683,294.5,589.9683" style="stroke:#666666;stroke-width:1.0;"/><text fill="#666666" font-family="sans-serif" font-size="12" lengthAdjust="spacing" textLength="33" x="295.5" y="542.9898">Route</text><text fill="#666666" font-family="sans-serif" font-size="12" lengthAdjust="spacing" textLength="4" x="328.5" y="542.9898">&#160;</text><text fill="#666666" font-family="sans-serif" font-size="12" lengthAdjust="spacing" textLength="50" x="332.5" y="542.9898">Message</text><text fill="#666666" font-family="sans-serif" font-size="12" lengthAdjust="spacing" textLength="41" x="298" y="557.1227">[Round</text><text fill="#666666" font-family="sans-serif" font-size="12" lengthAdjust="spacing" textLength="4" x="339" y="557.1227">&#160;</text><text fill="#666666" font-family="sans-serif" font-size="12" lengthAdjust="spacing" textLength="37" x="343" y="557.1227">Robin]</text></g><!--link LoadBalancer to Consumer3--><g id="link_LoadBalancer_Consumer3"><path codeLine="43" d="M358.02,500.7983 C369.48,510.2483 381.09,520.3583 391.5,530.3883 C410.74,548.9283 426.5178,566.6815 442.1478,585.5115 " fill="none" id="LoadBalancer-to-Consumer3" style="stroke:#666666;stroke-width:1.0;"/><polygon fill="#666666" points="445.98,590.1283,443.3096,580.6484,442.7865,586.281,437.1539,585.7579,445.98,590.1283" style="stroke:#666666;stroke-width:1.0;"/><text fill="#666666" font-family="sans-serif" font-size="12" lengthAdjust="spacing" textLength="33" x="420.06" y="542.9898">Route</text><text fill="#666666" font-family="sans-serif" font-size="12" lengthAdjust="spacing" textLength="4" x="453.06" y="542.9898">&#160;</text><text fill="#666666" font-family="sans-serif" font-size="12" lengthAdjust="spacing" textLength="50" x="457.06" y="542.9898">Message</text><text fill="#666666" font-family="sans-serif" font-size="12" lengthAdjust="spacing" textLength="41" x="422.56" y="557.1227">[Round</text><text fill="#666666" font-family="sans-serif" font-size="12" lengthAdjust="spacing" textLength="4" x="463.56" y="557.1227">&#160;</text><text fill="#666666" font-family="sans-serif" font-size="12" lengthAdjust="spacing" textLength="37" x="467.56" y="557.1227">Robin]</text></g><!--link GMN16 to LoadBalancer--><g id="link_GMN16_LoadBalancer"><path d="M384.23,292.2983 C374.73,314.4183 360.33,346.2583 345.5,372.9283 C340.01,382.7983 333.71,393.0883 327.45,402.8183 " fill="none" id="GMN16-LoadBalancer" style="stroke:#666666;stroke-width:1.0;stroke-dasharray:7.0,7.0;"/></g><!--SRC=[fPHDRnCn48Rl_XNJd40eYPfmwW6fX48FAGgXSA48URsJh8NNtjhZLX7YltUydzbMW52F7i_plhCpuptHLfcO8nH4LJYRpxsyd-qr5J6B0Rrobj3IJBboNXbfAPPc6YWtEfklNaytAVJbQZqlPI3q7FgnOa9gYtvMSQuGfCaWh9tCuQtaT8KvS4w89Ve06qdCMI5ESjmn1TkBrVNvnm_h2r16XY344DXubqU57du9W5TGDSSh347kySNBEXZGvjVkKyIO8h-FyJhOicXlwvIoWHisnzkMIoV35RS5FrQQ77-Ddu0CzVTrWTOZru6ypY8zAT6Wegu5RR10QQXO5QX-Fd7hKk6qjkgEfqCV51kCJJnMpjDbhVfdmSL8SF5ymUL8SFb_WlryfzCtxRJEOFAP9mej6cxijqkzB-2hCspmVIAQj0IC9i3SU-VlfH-Xxxg9Q6UP7H59OkWiyrl7a-jeXldCXMnTfl_ABfx1Bl_D2klurdCF2DokVnBSqRvxwGa4A5ARxkesyIMdjgiUW1pKUovIOvDSAqgkIdd7rJ5PhthMLJliTE2xNXBlq9e3IELTI1VDDXz0TU_yiLVcY5oPxFgUCpRy5jgDwHtuKbkef9V6e86Tyv1X-dFm1HNUnNrHHGB9Ba5niPascWw3wmC0]--></g></svg>