<?xml version="1.0" encoding="us-ascii" standalone="no"?><svg xmlns="http://www.w3.org/2000/svg" xmlns:xlink="http://www.w3.org/1999/xlink" contentStyleType="text/css" height="882px" preserveAspectRatio="none" style="width:614px;height:882px;background:#FFFFFF;" version="1.1" viewBox="0 0 614 882" width="614px" zoomAndPan="magnify"><defs/><g><text fill="#000000" font-family="sans-serif" font-size="14" font-weight="bold" lengthAdjust="spacing" textLength="237" x="181.5" y="23.5352">Dead Letter Queue (DLQ) Pattern</text><!--class Producer--><g id="elem_Producer"><rect codeLine="7" fill="#F1F1F1" height="80.9766" id="Producer" rx="2.5" ry="2.5" style="stroke:#181818;stroke-width:0.5;" width="152" x="7" y="44.4883"/><ellipse cx="48.1" cy="60.4883" fill="#ADD1B2" rx="11" ry="11" style="stroke:#181818;stroke-width:1.0;"/><path d="M50.5731,66.6313 Q49.9921,66.9302 49.3529,67.0796 Q48.7138,67.229 48.0082,67.229 Q45.5014,67.229 44.1815,65.5771 Q42.8617,63.9253 42.8617,60.8042 Q42.8617,57.6748 44.1815,56.0229 Q45.5014,54.3711 48.0082,54.3711 Q48.7138,54.3711 49.3612,54.5205 Q50.0087,54.6699 50.5731,54.9688 L50.5731,57.6914 Q49.9423,57.1104 49.3488,56.8406 Q48.7553,56.5708 48.1244,56.5708 Q46.7797,56.5708 46.0949,57.6375 Q45.4101,58.7041 45.4101,60.8042 Q45.4101,62.896 46.0949,63.9626 Q46.7797,65.0293 48.1244,65.0293 Q48.7553,65.0293 49.3488,64.7595 Q49.9423,64.4897 50.5731,63.9087 Z " fill="#000000"/><text fill="#000000" font-family="sans-serif" font-size="14" lengthAdjust="spacing" textLength="62" x="67.9" y="65.7793">Producer</text><line style="stroke:#181818;stroke-width:0.5;" x1="8" x2="158" y1="76.4883" y2="76.4883"/><line style="stroke:#181818;stroke-width:0.5;" x1="8" x2="158" y1="84.4883" y2="84.4883"/><ellipse cx="18" cy="98.2324" fill="#84BE84" rx="3" ry="3" style="stroke:#038048;stroke-width:1.0;"/><text fill="#000000" font-family="sans-serif" font-size="14" lengthAdjust="spacing" textLength="126" x="27" y="102.0234">produceMessage()</text><ellipse cx="18" cy="114.7207" fill="#84BE84" rx="3" ry="3" style="stroke:#038048;stroke-width:1.0;"/><text fill="#000000" font-family="sans-serif" font-size="14" lengthAdjust="spacing" textLength="106" x="27" y="118.5117">sendToQueue()</text></g><!--class MainQueue--><g id="elem_MainQueue"><rect codeLine="12" fill="#F1F1F1" height="97.4648" id="MainQueue" rx="2.5" ry="2.5" style="stroke:#181818;stroke-width:0.5;" width="156" x="297" y="215.4683"/><ellipse cx="330.9" cy="231.4683" fill="#ADD1B2" rx="11" ry="11" style="stroke:#181818;stroke-width:1.0;"/><path d="M333.3731,237.6113 Q332.7921,237.9102 332.1529,238.0596 Q331.5138,238.209 330.8082,238.209 Q328.3014,238.209 326.9815,236.5571 Q325.6617,234.9053 325.6617,231.7842 Q325.6617,228.6548 326.9815,227.0029 Q328.3014,225.3511 330.8082,225.3511 Q331.5138,225.3511 332.1612,225.5005 Q332.8087,225.6499 333.3731,225.9488 L333.3731,228.6714 Q332.7423,228.0904 332.1488,227.8206 Q331.5553,227.5508 330.9244,227.5508 Q329.5797,227.5508 328.8949,228.6175 Q328.2101,229.6841 328.2101,231.7842 Q328.2101,233.876 328.8949,234.9426 Q329.5797,236.0093 330.9244,236.0093 Q331.5553,236.0093 332.1488,235.7395 Q332.7423,235.4697 333.3731,234.8887 Z " fill="#000000"/><text fill="#000000" font-family="sans-serif" font-size="14" lengthAdjust="spacing" textLength="33" x="349.1" y="236.7593">Main</text><text fill="#000000" font-family="sans-serif" font-size="14" lengthAdjust="spacing" textLength="4" x="382.1" y="236.7593">&#160;</text><text fill="#000000" font-family="sans-serif" font-size="14" lengthAdjust="spacing" textLength="45" x="386.1" y="236.7593">Queue</text><line style="stroke:#181818;stroke-width:0.5;" x1="298" x2="452" y1="247.4683" y2="247.4683"/><line style="stroke:#181818;stroke-width:0.5;" x1="298" x2="452" y1="255.4683" y2="255.4683"/><ellipse cx="308" cy="269.2124" fill="#84BE84" rx="3" ry="3" style="stroke:#038048;stroke-width:1.0;"/><text fill="#000000" font-family="sans-serif" font-size="14" lengthAdjust="spacing" textLength="130" x="317" y="273.0034">enqueue(message)</text><ellipse cx="308" cy="285.7007" fill="#84BE84" rx="3" ry="3" style="stroke:#038048;stroke-width:1.0;"/><text fill="#000000" font-family="sans-serif" font-size="14" lengthAdjust="spacing" textLength="70" x="317" y="289.4917">dequeue()</text><ellipse cx="308" cy="302.189" fill="#84BE84" rx="3" ry="3" style="stroke:#038048;stroke-width:1.0;"/><text fill="#000000" font-family="sans-serif" font-size="14" lengthAdjust="spacing" textLength="84" x="317" y="305.98">retryCount()</text></g><!--class Consumer--><g id="elem_Consumer"><rect codeLine="18" fill="#F1F1F1" height="97.4648" id="Consumer" rx="2.5" ry="2.5" style="stroke:#181818;stroke-width:0.5;" width="148" x="301" y="402.9383"/><ellipse cx="336.25" cy="418.9383" fill="#ADD1B2" rx="11" ry="11" style="stroke:#181818;stroke-width:1.0;"/><path d="M338.7231,425.0813 Q338.1421,425.3802 337.5029,425.5296 Q336.8638,425.679 336.1582,425.679 Q333.6514,425.679 332.3315,424.0271 Q331.0117,422.3753 331.0117,419.2542 Q331.0117,416.1248 332.3315,414.4729 Q333.6514,412.8211 336.1582,412.8211 Q336.8638,412.8211 337.5112,412.9705 Q338.1587,413.1199 338.7231,413.4188 L338.7231,416.1414 Q338.0923,415.5604 337.4988,415.2906 Q336.9053,415.0208 336.2744,415.0208 Q334.9297,415.0208 334.2449,416.0875 Q333.5601,417.1541 333.5601,419.2542 Q333.5601,421.346 334.2449,422.4126 Q334.9297,423.4793 336.2744,423.4793 Q336.9053,423.4793 337.4988,423.2095 Q338.0923,422.9397 338.7231,422.3587 Z " fill="#000000"/><text fill="#000000" font-family="sans-serif" font-size="14" lengthAdjust="spacing" textLength="71" x="354.75" y="424.2293">Consumer</text><line style="stroke:#181818;stroke-width:0.5;" x1="302" x2="448" y1="434.9383" y2="434.9383"/><line style="stroke:#181818;stroke-width:0.5;" x1="302" x2="448" y1="442.9383" y2="442.9383"/><ellipse cx="312" cy="456.6824" fill="#84BE84" rx="3" ry="3" style="stroke:#038048;stroke-width:1.0;"/><text fill="#000000" font-family="sans-serif" font-size="14" lengthAdjust="spacing" textLength="117" x="321" y="460.4734">pullFromQueue()</text><ellipse cx="312" cy="473.1707" fill="#84BE84" rx="3" ry="3" style="stroke:#038048;stroke-width:1.0;"/><text fill="#000000" font-family="sans-serif" font-size="14" lengthAdjust="spacing" textLength="122" x="321" y="476.9617">processMessage()</text><ellipse cx="312" cy="489.659" fill="#84BE84" rx="3" ry="3" style="stroke:#038048;stroke-width:1.0;"/><text fill="#000000" font-family="sans-serif" font-size="14" lengthAdjust="spacing" textLength="104" x="321" y="493.45">handleFailure()</text></g><!--class DLQ--><g id="elem_DLQ"><rect codeLine="24" fill="#F1F1F1" height="97.4648" id="DLQ" rx="2.5" ry="2.5" style="stroke:#181818;stroke-width:0.5;" width="172" x="289" y="590.3983"/><ellipse cx="309.85" cy="606.3983" fill="#ADD1B2" rx="11" ry="11" style="stroke:#181818;stroke-width:1.0;"/><path d="M312.3231,612.5413 Q311.7421,612.8402 311.1029,612.9896 Q310.4638,613.139 309.7582,613.139 Q307.2514,613.139 305.9315,611.4871 Q304.6117,609.8353 304.6117,606.7142 Q304.6117,603.5848 305.9315,601.9329 Q307.2514,600.2811 309.7582,600.2811 Q310.4638,600.2811 311.1112,600.4305 Q311.7587,600.5799 312.3231,600.8788 L312.3231,603.6014 Q311.6923,603.0204 311.0988,602.7506 Q310.5053,602.4808 309.8744,602.4808 Q308.5297,602.4808 307.8449,603.5475 Q307.1601,604.6141 307.1601,606.7142 Q307.1601,608.806 307.8449,609.8726 Q308.5297,610.9393 309.8744,610.9393 Q310.5053,610.9393 311.0988,610.6695 Q311.6923,610.3997 312.3231,609.8187 Z " fill="#000000"/><text fill="#000000" font-family="sans-serif" font-size="14" lengthAdjust="spacing" textLength="35" x="325.15" y="611.6893">Dead</text><text fill="#000000" font-family="sans-serif" font-size="14" lengthAdjust="spacing" textLength="4" x="360.15" y="611.6893">&#160;</text><text fill="#000000" font-family="sans-serif" font-size="14" lengthAdjust="spacing" textLength="39" x="364.15" y="611.6893">Letter</text><text fill="#000000" font-family="sans-serif" font-size="14" lengthAdjust="spacing" textLength="4" x="403.15" y="611.6893">&#160;</text><text fill="#000000" font-family="sans-serif" font-size="14" lengthAdjust="spacing" textLength="45" x="407.15" y="611.6893">Queue</text><line style="stroke:#181818;stroke-width:0.5;" x1="290" x2="460" y1="622.3983" y2="622.3983"/><line style="stroke:#181818;stroke-width:0.5;" x1="290" x2="460" y1="630.3983" y2="630.3983"/><ellipse cx="300" cy="644.1424" fill="#84BE84" rx="3" ry="3" style="stroke:#038048;stroke-width:1.0;"/><text fill="#000000" font-family="sans-serif" font-size="14" lengthAdjust="spacing" textLength="146" x="309" y="647.9334">storeFailed(message)</text><ellipse cx="300" cy="660.6307" fill="#84BE84" rx="3" ry="3" style="stroke:#038048;stroke-width:1.0;"/><text fill="#000000" font-family="sans-serif" font-size="14" lengthAdjust="spacing" textLength="139" x="309" y="664.4217">getFailedMessages()</text><ellipse cx="300" cy="677.119" fill="#84BE84" rx="3" ry="3" style="stroke:#038048;stroke-width:1.0;"/><text fill="#000000" font-family="sans-serif" font-size="14" lengthAdjust="spacing" textLength="62" x="309" y="680.91">analyze()</text></g><!--class DLQMonitor--><g id="elem_DLQMonitor"><rect codeLine="30" fill="#F1F1F1" height="97.4648" id="DLQMonitor" rx="2.5" ry="2.5" style="stroke:#181818;stroke-width:0.5;" width="169" x="184.5" y="777.8683"/><ellipse cx="222.45" cy="793.8683" fill="#ADD1B2" rx="11" ry="11" style="stroke:#181818;stroke-width:1.0;"/><path d="M224.9231,800.0113 Q224.3421,800.3102 223.7029,800.4596 Q223.0638,800.609 222.3582,800.609 Q219.8514,800.609 218.5315,798.9571 Q217.2117,797.3053 217.2117,794.1842 Q217.2117,791.0548 218.5315,789.4029 Q219.8514,787.7511 222.3582,787.7511 Q223.0638,787.7511 223.7112,787.9005 Q224.3587,788.0499 224.9231,788.3488 L224.9231,791.0714 Q224.2923,790.4904 223.6988,790.2206 Q223.1053,789.9508 222.4744,789.9508 Q221.1297,789.9508 220.4449,791.0175 Q219.7601,792.0841 219.7601,794.1842 Q219.7601,796.276 220.4449,797.3426 Q221.1297,798.4093 222.4744,798.4093 Q223.1053,798.4093 223.6988,798.1395 Q224.2923,797.8697 224.9231,797.2887 Z " fill="#000000"/><text fill="#000000" font-family="sans-serif" font-size="14" lengthAdjust="spacing" textLength="28" x="241.55" y="799.1593">DLQ</text><text fill="#000000" font-family="sans-serif" font-size="14" lengthAdjust="spacing" textLength="4" x="269.55" y="799.1593">&#160;</text><text fill="#000000" font-family="sans-serif" font-size="14" lengthAdjust="spacing" textLength="54" x="273.55" y="799.1593">Monitor</text><line style="stroke:#181818;stroke-width:0.5;" x1="185.5" x2="352.5" y1="809.8683" y2="809.8683"/><line style="stroke:#181818;stroke-width:0.5;" x1="185.5" x2="352.5" y1="817.8683" y2="817.8683"/><ellipse cx="195.5" cy="831.6124" fill="#84BE84" rx="3" ry="3" style="stroke:#038048;stroke-width:1.0;"/><text fill="#000000" font-family="sans-serif" font-size="14" lengthAdjust="spacing" textLength="93" x="204.5" y="835.4034">monitorDLQ()</text><ellipse cx="195.5" cy="848.1007" fill="#84BE84" rx="3" ry="3" style="stroke:#038048;stroke-width:1.0;"/><text fill="#000000" font-family="sans-serif" font-size="14" lengthAdjust="spacing" textLength="115" x="204.5" y="851.8917">alertOnFailures()</text><ellipse cx="195.5" cy="864.589" fill="#84BE84" rx="3" ry="3" style="stroke:#038048;stroke-width:1.0;"/><text fill="#000000" font-family="sans-serif" font-size="14" lengthAdjust="spacing" textLength="143" x="204.5" y="868.38">reprocessMessages()</text></g><g id="elem_GMN12"><path d="M194,64.6683 L194,80.9783 L159.12,84.9783 L194,88.9783 L194,105.2894 A0,0 0 0 0 194,105.2894 L378,105.2894 A0,0 0 0 0 378,105.2894 L378,74.6683 L368,64.6683 L194,64.6683 A0,0 0 0 0 194,64.6683 " fill="#FEFFDD" style="stroke:#181818;stroke-width:0.5;"/><path d="M368,64.6683 L368,74.6683 L378,74.6683 L368,64.6683 " fill="#FEFFDD" style="stroke:#181818;stroke-width:0.5;"/><text fill="#000000" font-family="sans-serif" font-size="13" lengthAdjust="spacing" textLength="55" x="200.5" y="82.2366">Producer</text><text fill="#000000" font-family="sans-serif" font-size="13" lengthAdjust="spacing" textLength="4" x="255.5" y="82.2366">&#160;</text><text fill="#000000" font-family="sans-serif" font-size="13" lengthAdjust="spacing" textLength="37" x="259.5" y="82.2366">sends</text><text fill="#000000" font-family="sans-serif" font-size="13" lengthAdjust="spacing" textLength="4" x="296.5" y="82.2366">&#160;</text><text fill="#000000" font-family="sans-serif" font-size="13" lengthAdjust="spacing" textLength="62" x="300.5" y="82.2366">messages</text><text fill="#000000" font-family="sans-serif" font-size="13" lengthAdjust="spacing" textLength="13" x="200" y="97.5472">to</text><text fill="#000000" font-family="sans-serif" font-size="13" lengthAdjust="spacing" textLength="4" x="213" y="97.5472">&#160;</text><text fill="#000000" font-family="sans-serif" font-size="13" lengthAdjust="spacing" textLength="31" x="217" y="97.5472">main</text><text fill="#000000" font-family="sans-serif" font-size="13" lengthAdjust="spacing" textLength="4" x="248" y="97.5472">&#160;</text><text fill="#000000" font-family="sans-serif" font-size="13" lengthAdjust="spacing" textLength="69" x="252" y="97.5472">processing</text><text fill="#000000" font-family="sans-serif" font-size="13" lengthAdjust="spacing" textLength="4" x="321" y="97.5472">&#160;</text><text fill="#000000" font-family="sans-serif" font-size="13" lengthAdjust="spacing" textLength="38" x="325" y="97.5472">queue</text></g><g id="elem_GMN15"><path d="M413,57.0183 L413,112.9499 A0,0 0 0 0 413,112.9499 L485.2,112.9499 L411.61,215.1483 L493.2,112.9499 L607,112.9499 A0,0 0 0 0 607,112.9499 L607,67.0183 L597,57.0183 L413,57.0183 A0,0 0 0 0 413,57.0183 " fill="#FEFFDD" style="stroke:#181818;stroke-width:0.5;"/><path d="M597,57.0183 L597,67.0183 L607,67.0183 L597,57.0183 " fill="#FEFFDD" style="stroke:#181818;stroke-width:0.5;"/><text fill="#000000" font-family="sans-serif" font-size="13" lengthAdjust="spacing" textLength="30" x="419" y="74.5866">Main</text><text fill="#000000" font-family="sans-serif" font-size="13" lengthAdjust="spacing" textLength="4" x="449" y="74.5866">&#160;</text><text fill="#000000" font-family="sans-serif" font-size="13" lengthAdjust="spacing" textLength="38" x="453" y="74.5866">queue</text><text fill="#000000" font-family="sans-serif" font-size="13" lengthAdjust="spacing" textLength="4" x="491" y="74.5866">&#160;</text><text fill="#000000" font-family="sans-serif" font-size="13" lengthAdjust="spacing" textLength="49" x="495" y="74.5866">handles</text><text fill="#000000" font-family="sans-serif" font-size="13" lengthAdjust="spacing" textLength="4" x="544" y="74.5866">&#160;</text><text fill="#000000" font-family="sans-serif" font-size="13" lengthAdjust="spacing" textLength="44" x="548" y="74.5866">normal</text><text fill="#000000" font-family="sans-serif" font-size="13" lengthAdjust="spacing" textLength="55" x="430.5" y="89.8972">message</text><text fill="#000000" font-family="sans-serif" font-size="13" lengthAdjust="spacing" textLength="4" x="485.5" y="89.8972">&#160;</text><text fill="#000000" font-family="sans-serif" font-size="13" lengthAdjust="spacing" textLength="27" x="489.5" y="89.8972">flow</text><text fill="#000000" font-family="sans-serif" font-size="13" lengthAdjust="spacing" textLength="4" x="516.5" y="89.8972">&#160;</text><text fill="#000000" font-family="sans-serif" font-size="13" lengthAdjust="spacing" textLength="27" x="520.5" y="89.8972">with</text><text fill="#000000" font-family="sans-serif" font-size="13" lengthAdjust="spacing" textLength="4" x="547.5" y="89.8972">&#160;</text><text fill="#000000" font-family="sans-serif" font-size="13" lengthAdjust="spacing" textLength="29" x="551.5" y="89.8972">retry</text><text fill="#000000" font-family="sans-serif" font-size="13" lengthAdjust="spacing" textLength="72" x="433" y="105.2077">mechanism</text><text fill="#000000" font-family="sans-serif" font-size="13" lengthAdjust="spacing" textLength="4" x="505" y="105.2077">&#160;</text><text fill="#000000" font-family="sans-serif" font-size="13" lengthAdjust="spacing" textLength="18" x="509" y="105.2077">for</text><text fill="#000000" font-family="sans-serif" font-size="13" lengthAdjust="spacing" textLength="4" x="527" y="105.2077">&#160;</text><text fill="#000000" font-family="sans-serif" font-size="13" lengthAdjust="spacing" textLength="47" x="531" y="105.2077">failures</text></g><g id="elem_GMN18"><path d="M48,423.6983 L48,479.6299 A0,0 0 0 0 48,479.6299 L266,479.6299 A0,0 0 0 0 266,479.6299 L266,455.6683 L300.78,451.6683 L266,447.6683 L266,433.6983 L256,423.6983 L48,423.6983 A0,0 0 0 0 48,423.6983 " fill="#FEFFDD" style="stroke:#181818;stroke-width:0.5;"/><path d="M256,423.6983 L256,433.6983 L266,433.6983 L256,423.6983 " fill="#FEFFDD" style="stroke:#181818;stroke-width:0.5;"/><text fill="#000000" font-family="sans-serif" font-size="13" lengthAdjust="spacing" textLength="64" x="54" y="441.2666">Consumer</text><text fill="#000000" font-family="sans-serif" font-size="13" lengthAdjust="spacing" textLength="4" x="118" y="441.2666">&#160;</text><text fill="#000000" font-family="sans-serif" font-size="13" lengthAdjust="spacing" textLength="63" x="122" y="441.2666">processes</text><text fill="#000000" font-family="sans-serif" font-size="13" lengthAdjust="spacing" textLength="4" x="185" y="441.2666">&#160;</text><text fill="#000000" font-family="sans-serif" font-size="13" lengthAdjust="spacing" textLength="62" x="189" y="441.2666">messages</text><text fill="#000000" font-family="sans-serif" font-size="13" lengthAdjust="spacing" textLength="23" x="60" y="456.5772">and</text><text fill="#000000" font-family="sans-serif" font-size="13" lengthAdjust="spacing" textLength="4" x="83" y="456.5772">&#160;</text><text fill="#000000" font-family="sans-serif" font-size="13" lengthAdjust="spacing" textLength="37" x="87" y="456.5772">sends</text><text fill="#000000" font-family="sans-serif" font-size="13" lengthAdjust="spacing" textLength="4" x="124" y="456.5772">&#160;</text><text fill="#000000" font-family="sans-serif" font-size="13" lengthAdjust="spacing" textLength="35" x="128" y="456.5772">failed</text><text fill="#000000" font-family="sans-serif" font-size="13" lengthAdjust="spacing" textLength="4" x="163" y="456.5772">&#160;</text><text fill="#000000" font-family="sans-serif" font-size="13" lengthAdjust="spacing" textLength="30" x="167" y="456.5772">ones</text><text fill="#000000" font-family="sans-serif" font-size="13" lengthAdjust="spacing" textLength="4" x="197" y="456.5772">&#160;</text><text fill="#000000" font-family="sans-serif" font-size="13" lengthAdjust="spacing" textLength="13" x="201" y="456.5772">to</text><text fill="#000000" font-family="sans-serif" font-size="13" lengthAdjust="spacing" textLength="4" x="214" y="456.5772">&#160;</text><text fill="#000000" font-family="sans-serif" font-size="13" lengthAdjust="spacing" textLength="27" x="218" y="456.5772">DLQ</text><text fill="#000000" font-family="sans-serif" font-size="13" lengthAdjust="spacing" textLength="29" x="79" y="471.8877">after</text><text fill="#000000" font-family="sans-serif" font-size="13" lengthAdjust="spacing" textLength="4" x="108" y="471.8877">&#160;</text><text fill="#000000" font-family="sans-serif" font-size="13" lengthAdjust="spacing" textLength="70" x="112" y="471.8877">exhausting</text><text fill="#000000" font-family="sans-serif" font-size="13" lengthAdjust="spacing" textLength="4" x="182" y="471.8877">&#160;</text><text fill="#000000" font-family="sans-serif" font-size="13" lengthAdjust="spacing" textLength="40" x="186" y="471.8877">retries</text></g><g id="elem_GMN21"><path d="M388,798.6283 L388,854.5599 L574,854.5599 L574,808.6283 L564,798.6283 L388,798.6283 " fill="#FEFFDD" style="stroke:#181818;stroke-width:0.5;"/><path d="M564,798.6283 L564,808.6283 L574,808.6283 L564,798.6283 " fill="#FEFFDD" style="stroke:#181818;stroke-width:1.0;"/><text fill="#000000" font-family="sans-serif" font-size="13" lengthAdjust="spacing" textLength="27" x="394" y="816.1966">DLQ</text><text fill="#000000" font-family="sans-serif" font-size="13" lengthAdjust="spacing" textLength="4" x="421" y="816.1966">&#160;</text><text fill="#000000" font-family="sans-serif" font-size="13" lengthAdjust="spacing" textLength="39" x="425" y="816.1966">stores</text><text fill="#000000" font-family="sans-serif" font-size="13" lengthAdjust="spacing" textLength="4" x="464" y="816.1966">&#160;</text><text fill="#000000" font-family="sans-serif" font-size="13" lengthAdjust="spacing" textLength="62" x="468" y="816.1966">messages</text><text fill="#000000" font-family="sans-serif" font-size="13" lengthAdjust="spacing" textLength="4" x="530" y="816.1966">&#160;</text><text fill="#000000" font-family="sans-serif" font-size="13" lengthAdjust="spacing" textLength="25" x="534" y="816.1966">that</text><text fill="#000000" font-family="sans-serif" font-size="13" lengthAdjust="spacing" textLength="51" x="407.5" y="831.5072">couldn't</text><text fill="#000000" font-family="sans-serif" font-size="13" lengthAdjust="spacing" textLength="4" x="458.5" y="831.5072">&#160;</text><text fill="#000000" font-family="sans-serif" font-size="13" lengthAdjust="spacing" textLength="15" x="462.5" y="831.5072">be</text><text fill="#000000" font-family="sans-serif" font-size="13" lengthAdjust="spacing" textLength="4" x="477.5" y="831.5072">&#160;</text><text fill="#000000" font-family="sans-serif" font-size="13" lengthAdjust="spacing" textLength="64" x="481.5" y="831.5072">processed</text><text fill="#000000" font-family="sans-serif" font-size="13" lengthAdjust="spacing" textLength="18" x="424" y="846.8177">for</text><text fill="#000000" font-family="sans-serif" font-size="13" lengthAdjust="spacing" textLength="4" x="442" y="846.8177">&#160;</text><text fill="#000000" font-family="sans-serif" font-size="13" lengthAdjust="spacing" textLength="28" x="446" y="846.8177">later</text><text fill="#000000" font-family="sans-serif" font-size="13" lengthAdjust="spacing" textLength="4" x="474" y="846.8177">&#160;</text><text fill="#000000" font-family="sans-serif" font-size="13" lengthAdjust="spacing" textLength="51" x="478" y="846.8177">analysis</text></g><!--link Producer to MainQueue--><g id="link_Producer_MainQueue"><path codeLine="36" d="M148.53,125.7483 C192.42,152.3883 245.2809,184.475 291.5909,212.585 " fill="none" id="Producer-to-MainQueue" style="stroke:#666666;stroke-width:1.0;"/><polygon fill="#666666" points="296.72,215.6983,291.102,207.6089,292.4458,213.1038,286.9509,214.4477,296.72,215.6983" style="stroke:#666666;stroke-width:1.0;"/><text fill="#666666" font-family="sans-serif" font-size="12" lengthAdjust="spacing" textLength="28" x="247.48" y="168.0698">Send</text><text fill="#666666" font-family="sans-serif" font-size="12" lengthAdjust="spacing" textLength="4" x="275.48" y="168.0698">&#160;</text><text fill="#666666" font-family="sans-serif" font-size="12" lengthAdjust="spacing" textLength="56" x="279.48" y="168.0698">Messages</text><text fill="#666666" font-family="sans-serif" font-size="12" lengthAdjust="spacing" textLength="46" x="251.98" y="182.2027">[Normal</text><text fill="#666666" font-family="sans-serif" font-size="12" lengthAdjust="spacing" textLength="4" x="297.98" y="182.2027">&#160;</text><text fill="#666666" font-family="sans-serif" font-size="12" lengthAdjust="spacing" textLength="29" x="301.98" y="182.2027">Flow]</text></g><!--link MainQueue to Consumer--><g id="link_MainQueue_Consumer"><path codeLine="37" d="M329.58,313.2783 C323.19,322.5083 317.59,332.5583 314,342.9383 C306.91,363.4483 311.5306,379.5905 323.8206,397.6205 " fill="none" id="MainQueue-to-Consumer" style="stroke:#666666;stroke-width:1.0;"/><polygon fill="#666666" points="327.2,402.5783,325.436,392.8887,324.3838,398.4468,318.8257,397.3946,327.2,402.5783" style="stroke:#666666;stroke-width:1.0;"/><text fill="#666666" font-family="sans-serif" font-size="12" lengthAdjust="spacing" textLength="20" x="315" y="355.5398">Pull</text><text fill="#666666" font-family="sans-serif" font-size="12" lengthAdjust="spacing" textLength="4" x="335" y="355.5398">&#160;</text><text fill="#666666" font-family="sans-serif" font-size="12" lengthAdjust="spacing" textLength="50" x="339" y="355.5398">Message</text><text fill="#666666" font-family="sans-serif" font-size="12" lengthAdjust="spacing" textLength="69" x="317.5" y="369.6727">[Processing]</text></g><!--link Consumer to MainQueue--><g id="link_Consumer_MainQueue"><path codeLine="38" d="M389.64,402.5683 C393.67,383.9983 396.36,362.5483 394,342.9383 C392.84,333.2783 392.2286,328.9371 390.0086,319.2371 " fill="none" id="Consumer-to-MainQueue" style="stroke:#666666;stroke-width:1.0;"/><polygon fill="#666666" points="388.67,313.3883,386.7787,323.0538,389.7855,318.2623,394.5771,321.2691,388.67,313.3883" style="stroke:#666666;stroke-width:1.0;"/><text fill="#666666" font-family="sans-serif" font-size="12" lengthAdjust="spacing" textLength="24" x="401.88" y="355.5398">ACK</text><text fill="#666666" font-family="sans-serif" font-size="12" lengthAdjust="spacing" textLength="4" x="425.88" y="355.5398">&#160;</text><text fill="#666666" font-family="sans-serif" font-size="12" lengthAdjust="spacing" textLength="44" x="429.88" y="355.5398">Success</text><text fill="#666666" font-family="sans-serif" font-size="12" lengthAdjust="spacing" textLength="84" x="395.88" y="369.6727">[Acknowledge]</text></g><!--link Consumer to DLQ--><g id="link_Consumer_DLQ"><path codeLine="39" d="M375,500.4283 C375,528.0083 375,556.5983 375,584.2083 " fill="none" id="Consumer-to-DLQ" style="stroke:#666666;stroke-width:1.0;"/><polygon fill="#666666" points="375,590.2083,379,581.2083,375,585.2083,371,581.2083,375,590.2083" style="stroke:#666666;stroke-width:1.0;"/><text fill="#666666" font-family="sans-serif" font-size="12" lengthAdjust="spacing" textLength="33" x="380.5" y="542.9998">NACK</text><text fill="#666666" font-family="sans-serif" font-size="12" lengthAdjust="spacing" textLength="4" x="413.5" y="542.9998">&#160;</text><text fill="#666666" font-family="sans-serif" font-size="12" lengthAdjust="spacing" textLength="34" x="417.5" y="542.9998">Failed</text><text fill="#666666" font-family="sans-serif" font-size="12" lengthAdjust="spacing" textLength="32" x="376" y="557.1327">[After</text><text fill="#666666" font-family="sans-serif" font-size="12" lengthAdjust="spacing" textLength="4" x="408" y="557.1327">&#160;</text><text fill="#666666" font-family="sans-serif" font-size="12" lengthAdjust="spacing" textLength="44" x="412" y="557.1327">Retries]</text></g><!--link DLQ to DLQMonitor--><g id="link_DLQ_DLQMonitor"><path codeLine="40" d="M347.7,687.8883 C331.94,715.4783 315.1472,744.8591 299.3672,772.4691 " fill="none" id="DLQ-to-DLQMonitor" style="stroke:#666666;stroke-width:1.0;"/><polygon fill="#666666" points="296.39,777.6783,304.3287,771.8493,298.871,773.3373,297.383,767.8796,296.39,777.6783" style="stroke:#666666;stroke-width:1.0;"/><text fill="#666666" font-family="sans-serif" font-size="12" lengthAdjust="spacing" textLength="43" x="358.85" y="730.4698">Monitor</text><text fill="#666666" font-family="sans-serif" font-size="12" lengthAdjust="spacing" textLength="38" x="329.35" y="744.6027">[Failed</text><text fill="#666666" font-family="sans-serif" font-size="12" lengthAdjust="spacing" textLength="4" x="367.35" y="744.6027">&#160;</text><text fill="#666666" font-family="sans-serif" font-size="12" lengthAdjust="spacing" textLength="60" x="371.35" y="744.6027">Messages]</text></g><!--link DLQ to GMN21--><g id="link_DLQ_GMN21"><path d="M419.23,688.0483 C426.75,697.5283 434.04,707.6983 440,717.8683 C455.08,743.5883 466.49,775.8683 473.4,798.3483 " fill="none" id="DLQ-GMN21" style="stroke:#666666;stroke-width:1.0;stroke-dasharray:7.0,7.0;"/></g><!--SRC=[RLCxRzim4DxrAovUcg2mlNJAK21muWwrNJj9fxGeQEaa4QL8Xpp2JOl-znuVab_TnEFtkFjukfAwLBv2Q8bsxdOwjM8_QIIrVkiTsj9eGasJqdJJdHAQVAV6ZYebjzFPX_4wbBuk5zDEE4BBfHypPWYfqKvsZ2qAagGGxb5Ki41Y46myUeJh-yNc1jOYb7HHN5LOCmiU7sRFTwjFYmSebN2kA0w5jJMLBrdWJm7m7dRfk4JdH8FNDx7eK5VF9ZfmvUynVRJajfBv28I3S4oj93tKhv7M9S6aL-5hrWedYsJVPiPhEXVdgPtl3hrvfURMT9iZClTRilHflwtGbSAvaChRouulKekDSt3Pnf6naOpLQTiDKYfdDvVjX1RgxVT_Z5XoQRHalTuY7xDJbqvSxvKKMlgYS-Tk2EXqIfUSXfSRZpyUvNuBeoT-B-Z1t_JBojXEA9Whi_y-AWxGG1moPjwQ0-vvJ5idLwaRPWsu2xUxsMTuycM0Ckck_AdDdaDgy9mLyc3yAX1Ia05VXtTuv1sGw9WHG1dSXyMS_CduH1ocOqQX3I5OsRG4fXuMcgCR4WeBx20_fkCRCj25nTqD8q9SoI8a5_IoAfbTq1pcPMfS-0ZEU-QO4FBbk-m0DISDU_xVqtB7cvBHqdLGyqHrVk1pEuLrdA6FZOb3WhbLF9c36yZ3rIaNend0qt5yuJg6YxzQuHs58MtA-TntQuXC5vmJBpn2_0qEPa2j8BugZLULVaUmnQ6bYkjXB2M2NVmTd3mo-GS0]--></g></svg>