<?xml version="1.0" encoding="us-ascii" standalone="no"?><svg xmlns="http://www.w3.org/2000/svg" xmlns:xlink="http://www.w3.org/1999/xlink" contentStyleType="text/css" height="748px" preserveAspectRatio="none" style="width:665px;height:748px;background:#FFFFFF;" version="1.1" viewBox="0 0 665 748" width="665px" zoomAndPan="magnify"><defs/><g><text fill="#000000" font-family="sans-serif" font-size="14" font-weight="bold" lengthAdjust="spacing" textLength="115" x="268.25" y="23.5352">Fan-out Pattern</text><!--class Producer--><g id="elem_Producer"><rect codeLine="7" fill="#F1F1F1" height="80.9766" id="Producer" rx="2.5" ry="2.5" style="stroke:#181818;stroke-width:0.5;" width="152" x="22.5" y="44.4883"/><ellipse cx="63.6" cy="60.4883" fill="#ADD1B2" rx="11" ry="11" style="stroke:#181818;stroke-width:1.0;"/><path d="M66.0731,66.6313 Q65.4921,66.9302 64.8529,67.0796 Q64.2138,67.229 63.5082,67.229 Q61.0014,67.229 59.6815,65.5771 Q58.3617,63.9253 58.3617,60.8042 Q58.3617,57.6748 59.6815,56.0229 Q61.0014,54.3711 63.5082,54.3711 Q64.2138,54.3711 64.8612,54.5205 Q65.5087,54.6699 66.0731,54.9688 L66.0731,57.6914 Q65.4423,57.1104 64.8488,56.8406 Q64.2553,56.5708 63.6244,56.5708 Q62.2797,56.5708 61.5949,57.6375 Q60.9101,58.7041 60.9101,60.8042 Q60.9101,62.896 61.5949,63.9626 Q62.2797,65.0293 63.6244,65.0293 Q64.2553,65.0293 64.8488,64.7595 Q65.4423,64.4897 66.0731,63.9087 Z " fill="#000000"/><text fill="#000000" font-family="sans-serif" font-size="14" lengthAdjust="spacing" textLength="62" x="83.4" y="65.7793">Producer</text><line style="stroke:#181818;stroke-width:0.5;" x1="23.5" x2="173.5" y1="76.4883" y2="76.4883"/><line style="stroke:#181818;stroke-width:0.5;" x1="23.5" x2="173.5" y1="84.4883" y2="84.4883"/><ellipse cx="33.5" cy="98.2324" fill="#84BE84" rx="3" ry="3" style="stroke:#038048;stroke-width:1.0;"/><text fill="#000000" font-family="sans-serif" font-size="14" lengthAdjust="spacing" textLength="126" x="42.5" y="102.0234">produceMessage()</text><ellipse cx="33.5" cy="114.7207" fill="#84BE84" rx="3" ry="3" style="stroke:#038048;stroke-width:1.0;"/><text fill="#000000" font-family="sans-serif" font-size="14" lengthAdjust="spacing" textLength="117" x="42.5" y="118.5117">publishToTopic()</text></g><!--class Topic--><g id="elem_Topic"><rect codeLine="12" fill="#F1F1F1" height="97.4648" id="Topic" rx="2.5" ry="2.5" style="stroke:#181818;stroke-width:0.5;" width="147" x="240" y="215.4683"/><ellipse cx="290.25" cy="231.4683" fill="#ADD1B2" rx="11" ry="11" style="stroke:#181818;stroke-width:1.0;"/><path d="M292.7231,237.6113 Q292.1421,237.9102 291.5029,238.0596 Q290.8638,238.209 290.1582,238.209 Q287.6514,238.209 286.3315,236.5571 Q285.0117,234.9053 285.0117,231.7842 Q285.0117,228.6548 286.3315,227.0029 Q287.6514,225.3511 290.1582,225.3511 Q290.8638,225.3511 291.5112,225.5005 Q292.1587,225.6499 292.7231,225.9488 L292.7231,228.6714 Q292.0923,228.0904 291.4988,227.8206 Q290.9053,227.5508 290.2744,227.5508 Q288.9297,227.5508 288.2449,228.6175 Q287.5601,229.6841 287.5601,231.7842 Q287.5601,233.876 288.2449,234.9426 Q288.9297,236.0093 290.2744,236.0093 Q290.9053,236.0093 291.4988,235.7395 Q292.0923,235.4697 292.7231,234.8887 Z " fill="#000000"/><text fill="#000000" font-family="sans-serif" font-size="14" lengthAdjust="spacing" textLength="38" x="310.75" y="236.7593">Topic</text><line style="stroke:#181818;stroke-width:0.5;" x1="241" x2="386" y1="247.4683" y2="247.4683"/><line style="stroke:#181818;stroke-width:0.5;" x1="241" x2="386" y1="255.4683" y2="255.4683"/><ellipse cx="251" cy="269.2124" fill="#84BE84" rx="3" ry="3" style="stroke:#038048;stroke-width:1.0;"/><text fill="#000000" font-family="sans-serif" font-size="14" lengthAdjust="spacing" textLength="121" x="260" y="273.0034">publish(message)</text><ellipse cx="251" cy="285.7007" fill="#84BE84" rx="3" ry="3" style="stroke:#038048;stroke-width:1.0;"/><text fill="#000000" font-family="sans-serif" font-size="14" lengthAdjust="spacing" textLength="57" x="260" y="289.4917">fanOut()</text><ellipse cx="251" cy="302.189" fill="#84BE84" rx="3" ry="3" style="stroke:#038048;stroke-width:1.0;"/><text fill="#000000" font-family="sans-serif" font-size="14" lengthAdjust="spacing" textLength="117" x="260" y="305.98">routeToQueues()</text></g><!--class QueueA--><g id="elem_QueueA"><rect codeLine="18" fill="#F1F1F1" height="80.9766" id="QueueA" rx="2.5" ry="2.5" style="stroke:#181818;stroke-width:0.5;" width="156" x="37.5" y="402.9283"/><ellipse cx="81.75" cy="418.9283" fill="#ADD1B2" rx="11" ry="11" style="stroke:#181818;stroke-width:1.0;"/><path d="M84.2231,425.0713 Q83.6421,425.3702 83.0029,425.5196 Q82.3638,425.669 81.6582,425.669 Q79.1514,425.669 77.8315,424.0171 Q76.5117,422.3653 76.5117,419.2442 Q76.5117,416.1148 77.8315,414.4629 Q79.1514,412.8111 81.6582,412.8111 Q82.3638,412.8111 83.0112,412.9605 Q83.6587,413.1099 84.2231,413.4088 L84.2231,416.1314 Q83.5923,415.5504 82.9988,415.2806 Q82.4053,415.0108 81.7744,415.0108 Q80.4297,415.0108 79.7449,416.0775 Q79.0601,417.1441 79.0601,419.2442 Q79.0601,421.336 79.7449,422.4026 Q80.4297,423.4693 81.7744,423.4693 Q82.4053,423.4693 82.9988,423.1995 Q83.5923,422.9297 84.2231,422.3487 Z " fill="#000000"/><text fill="#000000" font-family="sans-serif" font-size="14" lengthAdjust="spacing" textLength="45" x="102.25" y="424.2193">Queue</text><text fill="#000000" font-family="sans-serif" font-size="14" lengthAdjust="spacing" textLength="4" x="147.25" y="424.2193">&#160;</text><text fill="#000000" font-family="sans-serif" font-size="14" lengthAdjust="spacing" textLength="10" x="151.25" y="424.2193">A</text><line style="stroke:#181818;stroke-width:0.5;" x1="38.5" x2="192.5" y1="434.9283" y2="434.9283"/><line style="stroke:#181818;stroke-width:0.5;" x1="38.5" x2="192.5" y1="442.9283" y2="442.9283"/><ellipse cx="48.5" cy="456.6724" fill="#84BE84" rx="3" ry="3" style="stroke:#038048;stroke-width:1.0;"/><text fill="#000000" font-family="sans-serif" font-size="14" lengthAdjust="spacing" textLength="130" x="57.5" y="460.4634">enqueue(message)</text><ellipse cx="48.5" cy="473.1607" fill="#84BE84" rx="3" ry="3" style="stroke:#038048;stroke-width:1.0;"/><text fill="#000000" font-family="sans-serif" font-size="14" lengthAdjust="spacing" textLength="70" x="57.5" y="476.9517">dequeue()</text></g><!--class QueueB--><g id="elem_QueueB"><rect codeLine="23" fill="#F1F1F1" height="80.9766" id="QueueB" rx="2.5" ry="2.5" style="stroke:#181818;stroke-width:0.5;" width="156" x="235.5" y="402.9283"/><ellipse cx="280.75" cy="418.9283" fill="#ADD1B2" rx="11" ry="11" style="stroke:#181818;stroke-width:1.0;"/><path d="M283.2231,425.0713 Q282.6421,425.3702 282.0029,425.5196 Q281.3638,425.669 280.6582,425.669 Q278.1514,425.669 276.8315,424.0171 Q275.5117,422.3653 275.5117,419.2442 Q275.5117,416.1148 276.8315,414.4629 Q278.1514,412.8111 280.6582,412.8111 Q281.3638,412.8111 282.0112,412.9605 Q282.6587,413.1099 283.2231,413.4088 L283.2231,416.1314 Q282.5923,415.5504 281.9988,415.2806 Q281.4053,415.0108 280.7744,415.0108 Q279.4297,415.0108 278.7449,416.0775 Q278.0601,417.1441 278.0601,419.2442 Q278.0601,421.336 278.7449,422.4026 Q279.4297,423.4693 280.7744,423.4693 Q281.4053,423.4693 281.9988,423.1995 Q282.5923,422.9297 283.2231,422.3487 Z " fill="#000000"/><text fill="#000000" font-family="sans-serif" font-size="14" lengthAdjust="spacing" textLength="45" x="301.25" y="424.2193">Queue</text><text fill="#000000" font-family="sans-serif" font-size="14" lengthAdjust="spacing" textLength="4" x="346.25" y="424.2193">&#160;</text><text fill="#000000" font-family="sans-serif" font-size="14" lengthAdjust="spacing" textLength="8" x="350.25" y="424.2193">B</text><line style="stroke:#181818;stroke-width:0.5;" x1="236.5" x2="390.5" y1="434.9283" y2="434.9283"/><line style="stroke:#181818;stroke-width:0.5;" x1="236.5" x2="390.5" y1="442.9283" y2="442.9283"/><ellipse cx="246.5" cy="456.6724" fill="#84BE84" rx="3" ry="3" style="stroke:#038048;stroke-width:1.0;"/><text fill="#000000" font-family="sans-serif" font-size="14" lengthAdjust="spacing" textLength="130" x="255.5" y="460.4634">enqueue(message)</text><ellipse cx="246.5" cy="473.1607" fill="#84BE84" rx="3" ry="3" style="stroke:#038048;stroke-width:1.0;"/><text fill="#000000" font-family="sans-serif" font-size="14" lengthAdjust="spacing" textLength="70" x="255.5" y="476.9517">dequeue()</text></g><!--class QueueC--><g id="elem_QueueC"><rect codeLine="28" fill="#F1F1F1" height="80.9766" id="QueueC" rx="2.5" ry="2.5" style="stroke:#181818;stroke-width:0.5;" width="156" x="451.5" y="402.9283"/><ellipse cx="495.75" cy="418.9283" fill="#ADD1B2" rx="11" ry="11" style="stroke:#181818;stroke-width:1.0;"/><path d="M498.2231,425.0713 Q497.6421,425.3702 497.0029,425.5196 Q496.3638,425.669 495.6582,425.669 Q493.1514,425.669 491.8315,424.0171 Q490.5117,422.3653 490.5117,419.2442 Q490.5117,416.1148 491.8315,414.4629 Q493.1514,412.8111 495.6582,412.8111 Q496.3638,412.8111 497.0112,412.9605 Q497.6587,413.1099 498.2231,413.4088 L498.2231,416.1314 Q497.5923,415.5504 496.9988,415.2806 Q496.4053,415.0108 495.7744,415.0108 Q494.4297,415.0108 493.7449,416.0775 Q493.0601,417.1441 493.0601,419.2442 Q493.0601,421.336 493.7449,422.4026 Q494.4297,423.4693 495.7744,423.4693 Q496.4053,423.4693 496.9988,423.1995 Q497.5923,422.9297 498.2231,422.3487 Z " fill="#000000"/><text fill="#000000" font-family="sans-serif" font-size="14" lengthAdjust="spacing" textLength="45" x="516.25" y="424.2193">Queue</text><text fill="#000000" font-family="sans-serif" font-size="14" lengthAdjust="spacing" textLength="4" x="561.25" y="424.2193">&#160;</text><text fill="#000000" font-family="sans-serif" font-size="14" lengthAdjust="spacing" textLength="10" x="565.25" y="424.2193">C</text><line style="stroke:#181818;stroke-width:0.5;" x1="452.5" x2="606.5" y1="434.9283" y2="434.9283"/><line style="stroke:#181818;stroke-width:0.5;" x1="452.5" x2="606.5" y1="442.9283" y2="442.9283"/><ellipse cx="462.5" cy="456.6724" fill="#84BE84" rx="3" ry="3" style="stroke:#038048;stroke-width:1.0;"/><text fill="#000000" font-family="sans-serif" font-size="14" lengthAdjust="spacing" textLength="130" x="471.5" y="460.4634">enqueue(message)</text><ellipse cx="462.5" cy="473.1607" fill="#84BE84" rx="3" ry="3" style="stroke:#038048;stroke-width:1.0;"/><text fill="#000000" font-family="sans-serif" font-size="14" lengthAdjust="spacing" textLength="70" x="471.5" y="476.9517">dequeue()</text></g><!--class ConsumerA--><g id="elem_ConsumerA"><rect codeLine="33" fill="#F1F1F1" height="64.4883" id="ConsumerA" rx="2.5" ry="2.5" style="stroke:#181818;stroke-width:0.5;" width="173" x="7" y="559.9083"/><ellipse cx="47.2" cy="575.9083" fill="#ADD1B2" rx="11" ry="11" style="stroke:#181818;stroke-width:1.0;"/><path d="M49.6731,582.0513 Q49.0921,582.3502 48.4529,582.4996 Q47.8138,582.649 47.1082,582.649 Q44.6014,582.649 43.2815,580.9971 Q41.9617,579.3453 41.9617,576.2242 Q41.9617,573.0948 43.2815,571.4429 Q44.6014,569.7911 47.1082,569.7911 Q47.8138,569.7911 48.4612,569.9405 Q49.1087,570.0899 49.6731,570.3888 L49.6731,573.1114 Q49.0423,572.5304 48.4488,572.2606 Q47.8553,571.9908 47.2244,571.9908 Q45.8797,571.9908 45.1949,573.0575 Q44.5101,574.1241 44.5101,576.2242 Q44.5101,578.316 45.1949,579.3826 Q45.8797,580.4493 47.2244,580.4493 Q47.8553,580.4493 48.4488,580.1795 Q49.0423,579.9097 49.6731,579.3287 Z " fill="#000000"/><text fill="#000000" font-family="sans-serif" font-size="14" lengthAdjust="spacing" textLength="71" x="66.8" y="581.1993">Consumer</text><text fill="#000000" font-family="sans-serif" font-size="14" lengthAdjust="spacing" textLength="4" x="137.8" y="581.1993">&#160;</text><text fill="#000000" font-family="sans-serif" font-size="14" lengthAdjust="spacing" textLength="10" x="141.8" y="581.1993">A</text><line style="stroke:#181818;stroke-width:0.5;" x1="8" x2="179" y1="591.9083" y2="591.9083"/><line style="stroke:#181818;stroke-width:0.5;" x1="8" x2="179" y1="599.9083" y2="599.9083"/><ellipse cx="18" cy="613.6524" fill="#84BE84" rx="3" ry="3" style="stroke:#038048;stroke-width:1.0;"/><text fill="#000000" font-family="sans-serif" font-size="14" lengthAdjust="spacing" textLength="147" x="27" y="617.4434">processOrderEvents()</text></g><!--class ConsumerB--><g id="elem_ConsumerB"><rect codeLine="37" fill="#F1F1F1" height="64.4883" id="ConsumerB" rx="2.5" ry="2.5" style="stroke:#181818;stroke-width:0.5;" width="197" x="215" y="559.9083"/><ellipse cx="267.75" cy="575.9083" fill="#ADD1B2" rx="11" ry="11" style="stroke:#181818;stroke-width:1.0;"/><path d="M270.2231,582.0513 Q269.6421,582.3502 269.0029,582.4996 Q268.3638,582.649 267.6582,582.649 Q265.1514,582.649 263.8315,580.9971 Q262.5117,579.3453 262.5117,576.2242 Q262.5117,573.0948 263.8315,571.4429 Q265.1514,569.7911 267.6582,569.7911 Q268.3638,569.7911 269.0112,569.9405 Q269.6587,570.0899 270.2231,570.3888 L270.2231,573.1114 Q269.5923,572.5304 268.9988,572.2606 Q268.4053,571.9908 267.7744,571.9908 Q266.4297,571.9908 265.7449,573.0575 Q265.0601,574.1241 265.0601,576.2242 Q265.0601,578.316 265.7449,579.3826 Q266.4297,580.4493 267.7744,580.4493 Q268.4053,580.4493 268.9988,580.1795 Q269.5923,579.9097 270.2231,579.3287 Z " fill="#000000"/><text fill="#000000" font-family="sans-serif" font-size="14" lengthAdjust="spacing" textLength="71" x="288.25" y="581.1993">Consumer</text><text fill="#000000" font-family="sans-serif" font-size="14" lengthAdjust="spacing" textLength="4" x="359.25" y="581.1993">&#160;</text><text fill="#000000" font-family="sans-serif" font-size="14" lengthAdjust="spacing" textLength="8" x="363.25" y="581.1993">B</text><line style="stroke:#181818;stroke-width:0.5;" x1="216" x2="411" y1="591.9083" y2="591.9083"/><line style="stroke:#181818;stroke-width:0.5;" x1="216" x2="411" y1="599.9083" y2="599.9083"/><ellipse cx="226" cy="613.6524" fill="#84BE84" rx="3" ry="3" style="stroke:#038048;stroke-width:1.0;"/><text fill="#000000" font-family="sans-serif" font-size="14" lengthAdjust="spacing" textLength="171" x="235" y="617.4434">processInventoryEvents()</text></g><!--class ConsumerC--><g id="elem_ConsumerC"><rect codeLine="41" fill="#F1F1F1" height="64.4883" id="ConsumerC" rx="2.5" ry="2.5" style="stroke:#181818;stroke-width:0.5;" width="212" x="446.5" y="559.9083"/><ellipse cx="505.75" cy="575.9083" fill="#ADD1B2" rx="11" ry="11" style="stroke:#181818;stroke-width:1.0;"/><path d="M508.2231,582.0513 Q507.6421,582.3502 507.0029,582.4996 Q506.3638,582.649 505.6582,582.649 Q503.1514,582.649 501.8315,580.9971 Q500.5117,579.3453 500.5117,576.2242 Q500.5117,573.0948 501.8315,571.4429 Q503.1514,569.7911 505.6582,569.7911 Q506.3638,569.7911 507.0112,569.9405 Q507.6587,570.0899 508.2231,570.3888 L508.2231,573.1114 Q507.5923,572.5304 506.9988,572.2606 Q506.4053,571.9908 505.7744,571.9908 Q504.4297,571.9908 503.7449,573.0575 Q503.0601,574.1241 503.0601,576.2242 Q503.0601,578.316 503.7449,579.3826 Q504.4297,580.4493 505.7744,580.4493 Q506.4053,580.4493 506.9988,580.1795 Q507.5923,579.9097 508.2231,579.3287 Z " fill="#000000"/><text fill="#000000" font-family="sans-serif" font-size="14" lengthAdjust="spacing" textLength="71" x="526.25" y="581.1993">Consumer</text><text fill="#000000" font-family="sans-serif" font-size="14" lengthAdjust="spacing" textLength="4" x="597.25" y="581.1993">&#160;</text><text fill="#000000" font-family="sans-serif" font-size="14" lengthAdjust="spacing" textLength="10" x="601.25" y="581.1993">C</text><line style="stroke:#181818;stroke-width:0.5;" x1="447.5" x2="657.5" y1="591.9083" y2="591.9083"/><line style="stroke:#181818;stroke-width:0.5;" x1="447.5" x2="657.5" y1="599.9083" y2="599.9083"/><ellipse cx="457.5" cy="613.6524" fill="#84BE84" rx="3" ry="3" style="stroke:#038048;stroke-width:1.0;"/><text fill="#000000" font-family="sans-serif" font-size="14" lengthAdjust="spacing" textLength="186" x="466.5" y="617.4434">processNotificationEvents()</text></g><g id="elem_GMN17"><path d="M209,57.0083 L209,80.9783 L174.63,84.9783 L209,88.9783 L209,112.9399 A0,0 0 0 0 209,112.9399 L394,112.9399 A0,0 0 0 0 394,112.9399 L394,67.0083 L384,57.0083 L209,57.0083 A0,0 0 0 0 209,57.0083 " fill="#FEFFDD" style="stroke:#181818;stroke-width:0.5;"/><path d="M384,57.0083 L384,67.0083 L394,67.0083 L384,57.0083 " fill="#FEFFDD" style="stroke:#181818;stroke-width:0.5;"/><text fill="#000000" font-family="sans-serif" font-size="13" lengthAdjust="spacing" textLength="55" x="223.5" y="74.5766">Producer</text><text fill="#000000" font-family="sans-serif" font-size="13" lengthAdjust="spacing" textLength="4" x="278.5" y="74.5766">&#160;</text><text fill="#000000" font-family="sans-serif" font-size="13" lengthAdjust="spacing" textLength="61" x="282.5" y="74.5766">publishes</text><text fill="#000000" font-family="sans-serif" font-size="13" lengthAdjust="spacing" textLength="4" x="343.5" y="74.5766">&#160;</text><text fill="#000000" font-family="sans-serif" font-size="13" lengthAdjust="spacing" textLength="23" x="347.5" y="74.5766">one</text><text fill="#000000" font-family="sans-serif" font-size="13" lengthAdjust="spacing" textLength="55" x="232" y="89.8872">message</text><text fill="#000000" font-family="sans-serif" font-size="13" lengthAdjust="spacing" textLength="4" x="287" y="89.8872">&#160;</text><text fill="#000000" font-family="sans-serif" font-size="13" lengthAdjust="spacing" textLength="13" x="291" y="89.8872">to</text><text fill="#000000" font-family="sans-serif" font-size="13" lengthAdjust="spacing" textLength="4" x="304" y="89.8872">&#160;</text><text fill="#000000" font-family="sans-serif" font-size="13" lengthAdjust="spacing" textLength="32" x="308" y="89.8872">topic</text><text fill="#000000" font-family="sans-serif" font-size="13" lengthAdjust="spacing" textLength="4" x="340" y="89.8872">&#160;</text><text fill="#000000" font-family="sans-serif" font-size="13" lengthAdjust="spacing" textLength="18" x="344" y="89.8872">for</text><text fill="#000000" font-family="sans-serif" font-size="13" lengthAdjust="spacing" textLength="52" x="215" y="105.1977">multiple</text><text fill="#000000" font-family="sans-serif" font-size="13" lengthAdjust="spacing" textLength="4" x="267" y="105.1977">&#160;</text><text fill="#000000" font-family="sans-serif" font-size="13" lengthAdjust="spacing" textLength="69" x="271" y="105.1977">processing</text><text fill="#000000" font-family="sans-serif" font-size="13" lengthAdjust="spacing" textLength="4" x="340" y="105.1977">&#160;</text><text fill="#000000" font-family="sans-serif" font-size="13" lengthAdjust="spacing" textLength="35" x="344" y="105.1977">paths</text></g><g id="elem_GMN20"><path d="M429,57.0083 L429,112.9399 A0,0 0 0 0 429,112.9399 L491.38,112.9399 L371.8,215.1483 L499.38,112.9399 L628,112.9399 A0,0 0 0 0 628,112.9399 L628,67.0083 L618,57.0083 L429,57.0083 A0,0 0 0 0 429,57.0083 " fill="#FEFFDD" style="stroke:#181818;stroke-width:0.5;"/><path d="M618,57.0083 L618,67.0083 L628,67.0083 L618,57.0083 " fill="#FEFFDD" style="stroke:#181818;stroke-width:0.5;"/><text fill="#000000" font-family="sans-serif" font-size="13" lengthAdjust="spacing" textLength="35" x="445.5" y="74.5766">Topic</text><text fill="#000000" font-family="sans-serif" font-size="13" lengthAdjust="spacing" textLength="4" x="480.5" y="74.5766">&#160;</text><text fill="#000000" font-family="sans-serif" font-size="13" lengthAdjust="spacing" textLength="27" x="484.5" y="74.5766">fans</text><text fill="#000000" font-family="sans-serif" font-size="13" lengthAdjust="spacing" textLength="4" x="511.5" y="74.5766">&#160;</text><text fill="#000000" font-family="sans-serif" font-size="13" lengthAdjust="spacing" textLength="21" x="515.5" y="74.5766">out</text><text fill="#000000" font-family="sans-serif" font-size="13" lengthAdjust="spacing" textLength="4" x="536.5" y="74.5766">&#160;</text><text fill="#000000" font-family="sans-serif" font-size="13" lengthAdjust="spacing" textLength="62" x="540.5" y="74.5766">messages</text><text fill="#000000" font-family="sans-serif" font-size="13" lengthAdjust="spacing" textLength="13" x="454" y="89.8872">to</text><text fill="#000000" font-family="sans-serif" font-size="13" lengthAdjust="spacing" textLength="4" x="467" y="89.8872">&#160;</text><text fill="#000000" font-family="sans-serif" font-size="13" lengthAdjust="spacing" textLength="52" x="471" y="89.8872">multiple</text><text fill="#000000" font-family="sans-serif" font-size="13" lengthAdjust="spacing" textLength="4" x="523" y="89.8872">&#160;</text><text fill="#000000" font-family="sans-serif" font-size="13" lengthAdjust="spacing" textLength="45" x="527" y="89.8872">queues</text><text fill="#000000" font-family="sans-serif" font-size="13" lengthAdjust="spacing" textLength="4" x="572" y="89.8872">&#160;</text><text fill="#000000" font-family="sans-serif" font-size="13" lengthAdjust="spacing" textLength="18" x="576" y="89.8872">for</text><text fill="#000000" font-family="sans-serif" font-size="13" lengthAdjust="spacing" textLength="54" x="435" y="105.1977">different</text><text fill="#000000" font-family="sans-serif" font-size="13" lengthAdjust="spacing" textLength="4" x="489" y="105.1977">&#160;</text><text fill="#000000" font-family="sans-serif" font-size="13" lengthAdjust="spacing" textLength="56" x="493" y="105.1977">business</text><text fill="#000000" font-family="sans-serif" font-size="13" lengthAdjust="spacing" textLength="4" x="549" y="105.1977">&#160;</text><text fill="#000000" font-family="sans-serif" font-size="13" lengthAdjust="spacing" textLength="60" x="553" y="105.1977">functions</text></g><g id="elem_GMN23"><path d="M9,685.3983 L9,741.3299 A0,0 0 0 0 9,741.3299 L178,741.3299 A0,0 0 0 0 178,741.3299 L178,695.3983 L168,685.3983 L97.5,685.3983 L93.5,624.7883 L89.5,685.3983 L9,685.3983 A0,0 0 0 0 9,685.3983 " fill="#FEFFDD" style="stroke:#181818;stroke-width:0.5;"/><path d="M168,685.3983 L168,695.3983 L178,695.3983 L168,685.3983 " fill="#FEFFDD" style="stroke:#181818;stroke-width:0.5;"/><text fill="#000000" font-family="sans-serif" font-size="13" lengthAdjust="spacing" textLength="29" x="15" y="702.9666">Each</text><text fill="#000000" font-family="sans-serif" font-size="13" lengthAdjust="spacing" textLength="4" x="44" y="702.9666">&#160;</text><text fill="#000000" font-family="sans-serif" font-size="13" lengthAdjust="spacing" textLength="62" x="48" y="702.9666">consumer</text><text fill="#000000" font-family="sans-serif" font-size="13" lengthAdjust="spacing" textLength="4" x="110" y="702.9666">&#160;</text><text fill="#000000" font-family="sans-serif" font-size="13" lengthAdjust="spacing" textLength="49" x="114" y="702.9666">handles</text><text fill="#000000" font-family="sans-serif" font-size="13" lengthAdjust="spacing" textLength="49" x="17" y="718.2772">specific</text><text fill="#000000" font-family="sans-serif" font-size="13" lengthAdjust="spacing" textLength="4" x="66" y="718.2772">&#160;</text><text fill="#000000" font-family="sans-serif" font-size="13" lengthAdjust="spacing" textLength="56" x="70" y="718.2772">business</text><text fill="#000000" font-family="sans-serif" font-size="13" lengthAdjust="spacing" textLength="4" x="126" y="718.2772">&#160;</text><text fill="#000000" font-family="sans-serif" font-size="13" lengthAdjust="spacing" textLength="31" x="130" y="718.2772">logic</text><text fill="#000000" font-family="sans-serif" font-size="13" lengthAdjust="spacing" textLength="89" x="44.5" y="733.5877">independently</text></g><!--link Producer to Topic--><g id="link_Producer_Topic"><path codeLine="45" d="M146.75,125.7483 C178.82,152.1783 216.4801,183.232 250.4501,211.232 " fill="none" id="Producer-to-Topic" style="stroke:#666666;stroke-width:1.0;"/><polygon fill="#666666" points="255.08,215.0483,250.6793,206.2373,251.2217,211.8681,245.5909,212.4105,255.08,215.0483" style="stroke:#666666;stroke-width:1.0;"/><text fill="#666666" font-family="sans-serif" font-size="12" lengthAdjust="spacing" textLength="41" x="219.87" y="168.0698">Publish</text><text fill="#666666" font-family="sans-serif" font-size="12" lengthAdjust="spacing" textLength="4" x="260.87" y="168.0698">&#160;</text><text fill="#666666" font-family="sans-serif" font-size="12" lengthAdjust="spacing" textLength="50" x="264.87" y="168.0698">Message</text><text fill="#666666" font-family="sans-serif" font-size="12" lengthAdjust="spacing" textLength="37" x="225.87" y="182.2027">[Single</text><text fill="#666666" font-family="sans-serif" font-size="12" lengthAdjust="spacing" textLength="4" x="262.87" y="182.2027">&#160;</text><text fill="#666666" font-family="sans-serif" font-size="12" lengthAdjust="spacing" textLength="42" x="266.87" y="182.2027">Source]</text></g><!--link Topic to QueueA--><g id="link_Topic_QueueA"><path codeLine="46" d="M239.52,309.4483 C224.65,319.6683 209.59,331.0483 196.5,342.9283 C176.87,360.7483 161.6154,378.7174 147.0254,397.9574 " fill="none" id="Topic-to-QueueA" style="stroke:#666666;stroke-width:1.0;"/><polygon fill="#666666" points="143.4,402.7383,152.0253,397.9839,146.4212,398.7542,145.6509,393.1501,143.4,402.7383" style="stroke:#666666;stroke-width:1.0;"/><text fill="#666666" font-family="sans-serif" font-size="12" lengthAdjust="spacing" textLength="45" x="228.5" y="355.5298">Fan-out</text><text fill="#666666" font-family="sans-serif" font-size="12" lengthAdjust="spacing" textLength="38" x="197.5" y="369.6627">[Order</text><text fill="#666666" font-family="sans-serif" font-size="12" lengthAdjust="spacing" textLength="4" x="235.5" y="369.6627">&#160;</text><text fill="#666666" font-family="sans-serif" font-size="12" lengthAdjust="spacing" textLength="65" x="239.5" y="369.6627">Processing]</text></g><!--link Topic to QueueB--><g id="link_Topic_QueueB"><path codeLine="47" d="M313.5,313.1583 C313.5,341.1383 313.5,370.0383 313.5,396.5083 " fill="none" id="Topic-to-QueueB" style="stroke:#666666;stroke-width:1.0;"/><polygon fill="#666666" points="313.5,402.5083,317.5,393.5083,313.5,397.5083,309.5,393.5083,313.5,402.5083" style="stroke:#666666;stroke-width:1.0;"/><text fill="#666666" font-family="sans-serif" font-size="12" lengthAdjust="spacing" textLength="45" x="345" y="355.5298">Fan-out</text><text fill="#666666" font-family="sans-serif" font-size="12" lengthAdjust="spacing" textLength="56" x="314.5" y="369.6627">[Inventory</text><text fill="#666666" font-family="sans-serif" font-size="12" lengthAdjust="spacing" textLength="4" x="370.5" y="369.6627">&#160;</text><text fill="#666666" font-family="sans-serif" font-size="12" lengthAdjust="spacing" textLength="46" x="374.5" y="369.6627">Update]</text></g><!--link Topic to QueueC--><g id="link_Topic_QueueC"><path codeLine="48" d="M387.44,311.6383 C401.76,321.4883 416.38,332.1783 429.5,342.9283 C451.85,361.2483 470.6788,379.4957 488.9788,398.5057 " fill="none" id="Topic-to-QueueC" style="stroke:#666666;stroke-width:1.0;"/><polygon fill="#666666" points="493.14,402.8283,489.78,393.5703,489.6724,399.2261,484.0165,399.1185,493.14,402.8283" style="stroke:#666666;stroke-width:1.0;"/><text fill="#666666" font-family="sans-serif" font-size="12" lengthAdjust="spacing" textLength="45" x="478.86" y="355.5298">Fan-out</text><text fill="#666666" font-family="sans-serif" font-size="12" lengthAdjust="spacing" textLength="78" x="462.36" y="369.6627">[Notifications]</text></g><!--link QueueA to ConsumerA--><g id="link_QueueA_ConsumerA"><path codeLine="49" d="M109.55,484.1283 C105.98,507.8883 102.411,531.7348 99.091,553.8448 " fill="none" id="QueueA-to-ConsumerA" style="stroke:#666666;stroke-width:1.0;"/><polygon fill="#666666" points="98.2,559.7783,103.4921,551.472,98.9425,554.8337,95.5808,550.2841,98.2,559.7783" style="stroke:#666666;stroke-width:1.0;"/><text fill="#666666" font-family="sans-serif" font-size="12" lengthAdjust="spacing" textLength="20" x="105.5" y="526.5098">Pull</text><text fill="#666666" font-family="sans-serif" font-size="12" lengthAdjust="spacing" textLength="4" x="125.5" y="526.5098">&#160;</text><text fill="#666666" font-family="sans-serif" font-size="12" lengthAdjust="spacing" textLength="50" x="129.5" y="526.5098">Message</text></g><!--link QueueB to ConsumerB--><g id="link_QueueB_ConsumerB"><path codeLine="50" d="M313.5,484.1283 C313.5,507.8883 313.5,531.6683 313.5,553.7783 " fill="none" id="QueueB-to-ConsumerB" style="stroke:#666666;stroke-width:1.0;"/><polygon fill="#666666" points="313.5,559.7783,317.5,550.7783,313.5,554.7783,309.5,550.7783,313.5,559.7783" style="stroke:#666666;stroke-width:1.0;"/><text fill="#666666" font-family="sans-serif" font-size="12" lengthAdjust="spacing" textLength="20" x="314.5" y="526.5098">Pull</text><text fill="#666666" font-family="sans-serif" font-size="12" lengthAdjust="spacing" textLength="4" x="334.5" y="526.5098">&#160;</text><text fill="#666666" font-family="sans-serif" font-size="12" lengthAdjust="spacing" textLength="50" x="338.5" y="526.5098">Message</text></g><!--link QueueC to ConsumerC--><g id="link_QueueC_ConsumerC"><path codeLine="51" d="M535.72,484.1283 C539.45,507.8883 543.1923,531.7404 546.6523,553.8504 " fill="none" id="QueueC-to-ConsumerC" style="stroke:#666666;stroke-width:1.0;"/><polygon fill="#666666" points="547.58,559.7783,550.1404,550.2681,546.807,554.8384,542.2366,551.5049,547.58,559.7783" style="stroke:#666666;stroke-width:1.0;"/><text fill="#666666" font-family="sans-serif" font-size="12" lengthAdjust="spacing" textLength="20" x="543.38" y="526.5098">Pull</text><text fill="#666666" font-family="sans-serif" font-size="12" lengthAdjust="spacing" textLength="4" x="563.38" y="526.5098">&#160;</text><text fill="#666666" font-family="sans-serif" font-size="12" lengthAdjust="spacing" textLength="50" x="567.38" y="526.5098">Message</text></g><!--SRC=[dPHDZzCm48Rl-HMpFIr2tLuuxG6fYGf2se_2Ta-0a6jF6akE7UmnQ8NuxumJDsdsGqWhzT2Ct_SPptZiCssbYGgX8Uh2vMhbnU-BWwOcxcD0Bvqbj7GXNRlgZB0KMxCCf8pUhwftosqAtLzVhLeH23s7VbJi4DgYl-XOMnIaoI1y47Rf8i5M4EjiKPmfh5a5NpRLRdtpyMe3qeWGYc8ARBrJKQA7FmN0M-Y6psiCGHpm_CqGZ7kZGxDpEzTfoS6_fuG-UBGFolDsy0_sMjZRI9dbUOEuSvyZHWoFKOi-3Ei5Y03z_tK6e_sPFkTWXKFmUKevKShNKwg9Khs6mYSLOilz7OewVgwdVal6t7g5VlEBXo2yJ2XdX79E-6IJs_c7_r6g6QMQKsuSwLfBGThPKz0u9Slb-tpWbx3O3gSDULg-sQztsXvu4EzSz1A_Buf1capvDDcLfvJLVTLf0bDgTZurb7F3M2JSTqhGCncgkU6qdi3gl8iadqwYhyIOOnbPLSvKvGkgQgQgdgeAwmZ1wqD3uEhnkd7JnvxcIuC1d4LUo7C5vFYNggjTqhVHaEwukztOCEW4DQ50go2boSdOb5BrdM7Vq26-XCpdno7J0wzmWX7QJs_8gPIkQ_JSQk3tYH-Gm0lHohwBZxFj7P5hKyAneqpO2Dc0FCvS8wmoVShGeKmdCe6DE_JRr5PXnspEQXwc9Fy0]--></g></svg>