<?xml version="1.0" encoding="us-ascii" standalone="no"?><svg xmlns="http://www.w3.org/2000/svg" xmlns:xlink="http://www.w3.org/1999/xlink" contentStyleType="text/css" height="795px" preserveAspectRatio="none" style="width:595px;height:795px;background:#FFFFFF;" version="1.1" viewBox="0 0 595 795" width="595px" zoomAndPan="magnify"><defs/><g><text fill="#000000" font-family="sans-serif" font-size="14" font-weight="bold" lengthAdjust="spacing" textLength="164" x="208.75" y="23.5352">Request-Reply Pattern</text><!--class RequestProducer--><g id="elem_RequestProducer"><rect codeLine="7" fill="#F1F1F1" height="97.4648" id="RequestProducer" rx="2.5" ry="2.5" style="stroke:#181818;stroke-width:0.5;" width="153" x="7" y="44.4883"/><ellipse cx="22" cy="60.4883" fill="#ADD1B2" rx="11" ry="11" style="stroke:#181818;stroke-width:1.0;"/><path d="M24.4731,66.6313 Q23.8921,66.9302 23.2529,67.0796 Q22.6138,67.229 21.9082,67.229 Q19.4014,67.229 18.0815,65.5771 Q16.7617,63.9253 16.7617,60.8042 Q16.7617,57.6748 18.0815,56.0229 Q19.4014,54.3711 21.9082,54.3711 Q22.6138,54.3711 23.2612,54.5205 Q23.9087,54.6699 24.4731,54.9688 L24.4731,57.6914 Q23.8423,57.1104 23.2488,56.8406 Q22.6553,56.5708 22.0244,56.5708 Q20.6797,56.5708 19.9949,57.6375 Q19.3101,58.7041 19.3101,60.8042 Q19.3101,62.896 19.9949,63.9626 Q20.6797,65.0293 22.0244,65.0293 Q22.6553,65.0293 23.2488,64.7595 Q23.8423,64.4897 24.4731,63.9087 Z " fill="#000000"/><text fill="#000000" font-family="sans-serif" font-size="14" lengthAdjust="spacing" textLength="55" x="36" y="65.7793">Request</text><text fill="#000000" font-family="sans-serif" font-size="14" lengthAdjust="spacing" textLength="4" x="91" y="65.7793">&#160;</text><text fill="#000000" font-family="sans-serif" font-size="14" lengthAdjust="spacing" textLength="62" x="95" y="65.7793">Producer</text><line style="stroke:#181818;stroke-width:0.5;" x1="8" x2="159" y1="76.4883" y2="76.4883"/><line style="stroke:#181818;stroke-width:0.5;" x1="8" x2="159" y1="84.4883" y2="84.4883"/><ellipse cx="18" cy="98.2324" fill="#84BE84" rx="3" ry="3" style="stroke:#038048;stroke-width:1.0;"/><text fill="#000000" font-family="sans-serif" font-size="14" lengthAdjust="spacing" textLength="98" x="27" y="102.0234">sendRequest()</text><ellipse cx="18" cy="114.7207" fill="#84BE84" rx="3" ry="3" style="stroke:#038048;stroke-width:1.0;"/><text fill="#000000" font-family="sans-serif" font-size="14" lengthAdjust="spacing" textLength="98" x="27" y="118.5117">waitForReply()</text><ellipse cx="18" cy="131.209" fill="#84BE84" rx="3" ry="3" style="stroke:#038048;stroke-width:1.0;"/><text fill="#000000" font-family="sans-serif" font-size="14" lengthAdjust="spacing" textLength="98" x="27" y="135">correlationId()</text></g><!--class RequestQueue--><g id="elem_RequestQueue"><rect codeLine="13" fill="#F1F1F1" height="80.9766" id="RequestQueue" rx="2.5" ry="2.5" style="stroke:#181818;stroke-width:0.5;" width="148" x="387.5" y="231.9483"/><ellipse cx="407.9" cy="247.9483" fill="#ADD1B2" rx="11" ry="11" style="stroke:#181818;stroke-width:1.0;"/><path d="M410.3731,254.0913 Q409.7921,254.3902 409.1529,254.5396 Q408.5138,254.689 407.8082,254.689 Q405.3014,254.689 403.9815,253.0371 Q402.6617,251.3853 402.6617,248.2642 Q402.6617,245.1348 403.9815,243.4829 Q405.3014,241.8311 407.8082,241.8311 Q408.5138,241.8311 409.1612,241.9805 Q409.8087,242.1299 410.3731,242.4287 L410.3731,245.1514 Q409.7423,244.5704 409.1488,244.3006 Q408.5553,244.0308 407.9244,244.0308 Q406.5797,244.0308 405.8949,245.0975 Q405.2101,246.1641 405.2101,248.2642 Q405.2101,250.356 405.8949,251.4226 Q406.5797,252.4893 407.9244,252.4893 Q408.5553,252.4893 409.1488,252.2195 Q409.7423,251.9497 410.3731,251.3687 Z " fill="#000000"/><text fill="#000000" font-family="sans-serif" font-size="14" lengthAdjust="spacing" textLength="55" x="423.1" y="253.2393">Request</text><text fill="#000000" font-family="sans-serif" font-size="14" lengthAdjust="spacing" textLength="4" x="478.1" y="253.2393">&#160;</text><text fill="#000000" font-family="sans-serif" font-size="14" lengthAdjust="spacing" textLength="45" x="482.1" y="253.2393">Queue</text><line style="stroke:#181818;stroke-width:0.5;" x1="388.5" x2="534.5" y1="263.9483" y2="263.9483"/><line style="stroke:#181818;stroke-width:0.5;" x1="388.5" x2="534.5" y1="271.9483" y2="271.9483"/><ellipse cx="398.5" cy="285.6924" fill="#84BE84" rx="3" ry="3" style="stroke:#038048;stroke-width:1.0;"/><text fill="#000000" font-family="sans-serif" font-size="14" lengthAdjust="spacing" textLength="122" x="407.5" y="289.4834">enqueue(request)</text><ellipse cx="398.5" cy="302.1807" fill="#84BE84" rx="3" ry="3" style="stroke:#038048;stroke-width:1.0;"/><text fill="#000000" font-family="sans-serif" font-size="14" lengthAdjust="spacing" textLength="70" x="407.5" y="305.9717">dequeue()</text></g><!--class RequestConsumer--><g id="elem_RequestConsumer"><rect codeLine="18" fill="#F1F1F1" height="97.4648" id="RequestConsumer" rx="2.5" ry="2.5" style="stroke:#181818;stroke-width:0.5;" width="175" x="374" y="402.9283"/><ellipse cx="394.85" cy="418.9283" fill="#ADD1B2" rx="11" ry="11" style="stroke:#181818;stroke-width:1.0;"/><path d="M397.3231,425.0713 Q396.7421,425.3702 396.1029,425.5196 Q395.4638,425.669 394.7582,425.669 Q392.2514,425.669 390.9315,424.0171 Q389.6117,422.3653 389.6117,419.2442 Q389.6117,416.1148 390.9315,414.4629 Q392.2514,412.8111 394.7582,412.8111 Q395.4638,412.8111 396.1112,412.9605 Q396.7587,413.1099 397.3231,413.4087 L397.3231,416.1314 Q396.6923,415.5504 396.0988,415.2806 Q395.5053,415.0108 394.8744,415.0108 Q393.5297,415.0108 392.8449,416.0775 Q392.1601,417.1441 392.1601,419.2442 Q392.1601,421.336 392.8449,422.4026 Q393.5297,423.4693 394.8744,423.4693 Q395.5053,423.4693 396.0988,423.1995 Q396.6923,422.9297 397.3231,422.3487 Z " fill="#000000"/><text fill="#000000" font-family="sans-serif" font-size="14" lengthAdjust="spacing" textLength="55" x="410.15" y="424.2193">Request</text><text fill="#000000" font-family="sans-serif" font-size="14" lengthAdjust="spacing" textLength="4" x="465.15" y="424.2193">&#160;</text><text fill="#000000" font-family="sans-serif" font-size="14" lengthAdjust="spacing" textLength="71" x="469.15" y="424.2193">Consumer</text><line style="stroke:#181818;stroke-width:0.5;" x1="375" x2="548" y1="434.9283" y2="434.9283"/><line style="stroke:#181818;stroke-width:0.5;" x1="375" x2="548" y1="442.9283" y2="442.9283"/><ellipse cx="385" cy="456.6724" fill="#84BE84" rx="3" ry="3" style="stroke:#038048;stroke-width:1.0;"/><text fill="#000000" font-family="sans-serif" font-size="14" lengthAdjust="spacing" textLength="118" x="394" y="460.4634">processRequest()</text><ellipse cx="385" cy="473.1607" fill="#84BE84" rx="3" ry="3" style="stroke:#038048;stroke-width:1.0;"/><text fill="#000000" font-family="sans-serif" font-size="14" lengthAdjust="spacing" textLength="80" x="394" y="476.9517">sendReply()</text><ellipse cx="385" cy="489.649" fill="#84BE84" rx="3" ry="3" style="stroke:#038048;stroke-width:1.0;"/><text fill="#000000" font-family="sans-serif" font-size="14" lengthAdjust="spacing" textLength="149" x="394" y="493.44">extractCorrelationId()</text></g><!--class ReplyQueue--><g id="elem_ReplyQueue"><rect codeLine="24" fill="#F1F1F1" height="80.9766" id="ReplyQueue" rx="2.5" ry="2.5" style="stroke:#181818;stroke-width:0.5;" width="130" x="47.5" y="590.3883"/><ellipse cx="67.9" cy="606.3883" fill="#ADD1B2" rx="11" ry="11" style="stroke:#181818;stroke-width:1.0;"/><path d="M70.3731,612.5313 Q69.7921,612.8302 69.1529,612.9796 Q68.5138,613.129 67.8082,613.129 Q65.3014,613.129 63.9815,611.4771 Q62.6617,609.8253 62.6617,606.7042 Q62.6617,603.5748 63.9815,601.9229 Q65.3014,600.2711 67.8082,600.2711 Q68.5138,600.2711 69.1612,600.4205 Q69.8087,600.5699 70.3731,600.8688 L70.3731,603.5914 Q69.7423,603.0104 69.1488,602.7406 Q68.5553,602.4708 67.9244,602.4708 Q66.5797,602.4708 65.8949,603.5375 Q65.2101,604.6041 65.2101,606.7042 Q65.2101,608.796 65.8949,609.8626 Q66.5797,610.9293 67.9244,610.9293 Q68.5553,610.9293 69.1488,610.6595 Q69.7423,610.3897 70.3731,609.8087 Z " fill="#000000"/><text fill="#000000" font-family="sans-serif" font-size="14" lengthAdjust="spacing" textLength="37" x="83.1" y="611.6793">Reply</text><text fill="#000000" font-family="sans-serif" font-size="14" lengthAdjust="spacing" textLength="4" x="120.1" y="611.6793">&#160;</text><text fill="#000000" font-family="sans-serif" font-size="14" lengthAdjust="spacing" textLength="45" x="124.1" y="611.6793">Queue</text><line style="stroke:#181818;stroke-width:0.5;" x1="48.5" x2="176.5" y1="622.3883" y2="622.3883"/><line style="stroke:#181818;stroke-width:0.5;" x1="48.5" x2="176.5" y1="630.3883" y2="630.3883"/><ellipse cx="58.5" cy="644.1324" fill="#84BE84" rx="3" ry="3" style="stroke:#038048;stroke-width:1.0;"/><text fill="#000000" font-family="sans-serif" font-size="14" lengthAdjust="spacing" textLength="104" x="67.5" y="647.9234">enqueue(reply)</text><ellipse cx="58.5" cy="660.6207" fill="#84BE84" rx="3" ry="3" style="stroke:#038048;stroke-width:1.0;"/><text fill="#000000" font-family="sans-serif" font-size="14" lengthAdjust="spacing" textLength="70" x="67.5" y="664.4117">dequeue()</text></g><g id="elem_GMN10"><path d="M195,65.2483 L195,89.2183 L160.15,93.2183 L195,97.2183 L195,121.1799 A0,0 0 0 0 195,121.1799 L394,121.1799 A0,0 0 0 0 394,121.1799 L394,75.2483 L384,65.2483 L195,65.2483 A0,0 0 0 0 195,65.2483 " fill="#FEFFDD" style="stroke:#181818;stroke-width:0.5;"/><path d="M384,65.2483 L384,75.2483 L394,75.2483 L384,65.2483 " fill="#FEFFDD" style="stroke:#181818;stroke-width:0.5;"/><text fill="#000000" font-family="sans-serif" font-size="13" lengthAdjust="spacing" textLength="55" x="201" y="82.8166">Producer</text><text fill="#000000" font-family="sans-serif" font-size="13" lengthAdjust="spacing" textLength="4" x="256" y="82.8166">&#160;</text><text fill="#000000" font-family="sans-serif" font-size="13" lengthAdjust="spacing" textLength="37" x="260" y="82.8166">sends</text><text fill="#000000" font-family="sans-serif" font-size="13" lengthAdjust="spacing" textLength="4" x="297" y="82.8166">&#160;</text><text fill="#000000" font-family="sans-serif" font-size="13" lengthAdjust="spacing" textLength="47" x="301" y="82.8166">request</text><text fill="#000000" font-family="sans-serif" font-size="13" lengthAdjust="spacing" textLength="4" x="348" y="82.8166">&#160;</text><text fill="#000000" font-family="sans-serif" font-size="13" lengthAdjust="spacing" textLength="27" x="352" y="82.8166">with</text><text fill="#000000" font-family="sans-serif" font-size="13" lengthAdjust="spacing" textLength="43" x="210" y="98.1272">unique</text><text fill="#000000" font-family="sans-serif" font-size="13" lengthAdjust="spacing" textLength="4" x="253" y="98.1272">&#160;</text><text fill="#000000" font-family="sans-serif" font-size="13" lengthAdjust="spacing" textLength="68" x="257" y="98.1272">correlation</text><text fill="#000000" font-family="sans-serif" font-size="13" lengthAdjust="spacing" textLength="4" x="325" y="98.1272">&#160;</text><text fill="#000000" font-family="sans-serif" font-size="13" lengthAdjust="spacing" textLength="14" x="329" y="98.1272">ID</text><text fill="#000000" font-family="sans-serif" font-size="13" lengthAdjust="spacing" textLength="4" x="343" y="98.1272">&#160;</text><text fill="#000000" font-family="sans-serif" font-size="13" lengthAdjust="spacing" textLength="23" x="347" y="98.1272">and</text><text fill="#000000" font-family="sans-serif" font-size="13" lengthAdjust="spacing" textLength="33" x="213.5" y="113.4377">waits</text><text fill="#000000" font-family="sans-serif" font-size="13" lengthAdjust="spacing" textLength="4" x="246.5" y="113.4377">&#160;</text><text fill="#000000" font-family="sans-serif" font-size="13" lengthAdjust="spacing" textLength="18" x="250.5" y="113.4377">for</text><text fill="#000000" font-family="sans-serif" font-size="13" lengthAdjust="spacing" textLength="4" x="268.5" y="113.4377">&#160;</text><text fill="#000000" font-family="sans-serif" font-size="13" lengthAdjust="spacing" textLength="59" x="272.5" y="113.4377">matching</text><text fill="#000000" font-family="sans-serif" font-size="13" lengthAdjust="spacing" textLength="4" x="331.5" y="113.4377">&#160;</text><text fill="#000000" font-family="sans-serif" font-size="13" lengthAdjust="spacing" textLength="31" x="335.5" y="113.4377">reply</text></g><g id="elem_GMN13"><path d="M428.5,65.2483 L428.5,121.1799 A0,0 0 0 0 428.5,121.1799 L497.26,121.1799 L472.07,231.5983 L505.26,121.1799 L588.5,121.1799 A0,0 0 0 0 588.5,121.1799 L588.5,75.2483 L578.5,65.2483 L428.5,65.2483 A0,0 0 0 0 428.5,65.2483 " fill="#FEFFDD" style="stroke:#181818;stroke-width:0.5;"/><path d="M578.5,65.2483 L578.5,75.2483 L588.5,75.2483 L578.5,65.2483 " fill="#FEFFDD" style="stroke:#181818;stroke-width:0.5;"/><text fill="#000000" font-family="sans-serif" font-size="13" lengthAdjust="spacing" textLength="50" x="438.5" y="82.8166">Request</text><text fill="#000000" font-family="sans-serif" font-size="13" lengthAdjust="spacing" textLength="4" x="488.5" y="82.8166">&#160;</text><text fill="#000000" font-family="sans-serif" font-size="13" lengthAdjust="spacing" textLength="38" x="492.5" y="82.8166">queue</text><text fill="#000000" font-family="sans-serif" font-size="13" lengthAdjust="spacing" textLength="4" x="530.5" y="82.8166">&#160;</text><text fill="#000000" font-family="sans-serif" font-size="13" lengthAdjust="spacing" textLength="35" x="534.5" y="82.8166">holds</text><text fill="#000000" font-family="sans-serif" font-size="13" lengthAdjust="spacing" textLength="59" x="434.5" y="98.1272">incoming</text><text fill="#000000" font-family="sans-serif" font-size="13" lengthAdjust="spacing" textLength="4" x="493.5" y="98.1272">&#160;</text><text fill="#000000" font-family="sans-serif" font-size="13" lengthAdjust="spacing" textLength="54" x="497.5" y="98.1272">requests</text><text fill="#000000" font-family="sans-serif" font-size="13" lengthAdjust="spacing" textLength="4" x="551.5" y="98.1272">&#160;</text><text fill="#000000" font-family="sans-serif" font-size="13" lengthAdjust="spacing" textLength="18" x="555.5" y="98.1272">for</text><text fill="#000000" font-family="sans-serif" font-size="13" lengthAdjust="spacing" textLength="69" x="469.5" y="113.4377">processing</text></g><g id="elem_GMN16"><path d="M136,423.6883 L136,479.6199 A0,0 0 0 0 136,479.6199 L339,479.6199 A0,0 0 0 0 339,479.6199 L339,455.6583 L373.77,451.6583 L339,447.6583 L339,433.6883 L329,423.6883 L136,423.6883 A0,0 0 0 0 136,423.6883 " fill="#FEFFDD" style="stroke:#181818;stroke-width:0.5;"/><path d="M329,423.6883 L329,433.6883 L339,433.6883 L329,423.6883 " fill="#FEFFDD" style="stroke:#181818;stroke-width:0.5;"/><text fill="#000000" font-family="sans-serif" font-size="13" lengthAdjust="spacing" textLength="64" x="142" y="441.2566">Consumer</text><text fill="#000000" font-family="sans-serif" font-size="13" lengthAdjust="spacing" textLength="4" x="206" y="441.2566">&#160;</text><text fill="#000000" font-family="sans-serif" font-size="13" lengthAdjust="spacing" textLength="63" x="210" y="441.2566">processes</text><text fill="#000000" font-family="sans-serif" font-size="13" lengthAdjust="spacing" textLength="4" x="273" y="441.2566">&#160;</text><text fill="#000000" font-family="sans-serif" font-size="13" lengthAdjust="spacing" textLength="47" x="277" y="441.2566">request</text><text fill="#000000" font-family="sans-serif" font-size="13" lengthAdjust="spacing" textLength="23" x="151" y="456.5672">and</text><text fill="#000000" font-family="sans-serif" font-size="13" lengthAdjust="spacing" textLength="4" x="174" y="456.5672">&#160;</text><text fill="#000000" font-family="sans-serif" font-size="13" lengthAdjust="spacing" textLength="37" x="178" y="456.5672">sends</text><text fill="#000000" font-family="sans-serif" font-size="13" lengthAdjust="spacing" textLength="4" x="215" y="456.5672">&#160;</text><text fill="#000000" font-family="sans-serif" font-size="13" lengthAdjust="spacing" textLength="31" x="219" y="456.5672">reply</text><text fill="#000000" font-family="sans-serif" font-size="13" lengthAdjust="spacing" textLength="4" x="250" y="456.5672">&#160;</text><text fill="#000000" font-family="sans-serif" font-size="13" lengthAdjust="spacing" textLength="30" x="254" y="456.5672">back</text><text fill="#000000" font-family="sans-serif" font-size="13" lengthAdjust="spacing" textLength="4" x="284" y="456.5672">&#160;</text><text fill="#000000" font-family="sans-serif" font-size="13" lengthAdjust="spacing" textLength="27" x="288" y="456.5672">with</text><text fill="#000000" font-family="sans-serif" font-size="13" lengthAdjust="spacing" textLength="33" x="171.5" y="471.8777">same</text><text fill="#000000" font-family="sans-serif" font-size="13" lengthAdjust="spacing" textLength="4" x="204.5" y="471.8777">&#160;</text><text fill="#000000" font-family="sans-serif" font-size="13" lengthAdjust="spacing" textLength="68" x="208.5" y="471.8777">correlation</text><text fill="#000000" font-family="sans-serif" font-size="13" lengthAdjust="spacing" textLength="4" x="276.5" y="471.8777">&#160;</text><text fill="#000000" font-family="sans-serif" font-size="13" lengthAdjust="spacing" textLength="14" x="280.5" y="471.8777">ID</text></g><g id="elem_GMN19"><path d="M32.5,732.3683 L32.5,788.2999 A0,0 0 0 0 32.5,788.2999 L192.5,788.2999 A0,0 0 0 0 192.5,788.2999 L192.5,742.3683 L182.5,732.3683 L116.5,732.3683 L112.5,671.8583 L108.5,732.3683 L32.5,732.3683 A0,0 0 0 0 32.5,732.3683 " fill="#FEFFDD" style="stroke:#181818;stroke-width:0.5;"/><path d="M182.5,732.3683 L182.5,742.3683 L192.5,742.3683 L182.5,732.3683 " fill="#FEFFDD" style="stroke:#181818;stroke-width:0.5;"/><text fill="#000000" font-family="sans-serif" font-size="13" lengthAdjust="spacing" textLength="34" x="43.5" y="749.9366">Reply</text><text fill="#000000" font-family="sans-serif" font-size="13" lengthAdjust="spacing" textLength="4" x="77.5" y="749.9366">&#160;</text><text fill="#000000" font-family="sans-serif" font-size="13" lengthAdjust="spacing" textLength="38" x="81.5" y="749.9366">queue</text><text fill="#000000" font-family="sans-serif" font-size="13" lengthAdjust="spacing" textLength="4" x="119.5" y="749.9366">&#160;</text><text fill="#000000" font-family="sans-serif" font-size="13" lengthAdjust="spacing" textLength="49" x="123.5" y="749.9366">delivers</text><text fill="#000000" font-family="sans-serif" font-size="13" lengthAdjust="spacing" textLength="64" x="38.5" y="765.2472">responses</text><text fill="#000000" font-family="sans-serif" font-size="13" lengthAdjust="spacing" textLength="4" x="102.5" y="765.2472">&#160;</text><text fill="#000000" font-family="sans-serif" font-size="13" lengthAdjust="spacing" textLength="30" x="106.5" y="765.2472">back</text><text fill="#000000" font-family="sans-serif" font-size="13" lengthAdjust="spacing" textLength="4" x="136.5" y="765.2472">&#160;</text><text fill="#000000" font-family="sans-serif" font-size="13" lengthAdjust="spacing" textLength="13" x="140.5" y="765.2472">to</text><text fill="#000000" font-family="sans-serif" font-size="13" lengthAdjust="spacing" textLength="4" x="153.5" y="765.2472">&#160;</text><text fill="#000000" font-family="sans-serif" font-size="13" lengthAdjust="spacing" textLength="20" x="157.5" y="765.2472">the</text><text fill="#000000" font-family="sans-serif" font-size="13" lengthAdjust="spacing" textLength="48" x="52" y="780.5577">original</text><text fill="#000000" font-family="sans-serif" font-size="13" lengthAdjust="spacing" textLength="4" x="100" y="780.5577">&#160;</text><text fill="#000000" font-family="sans-serif" font-size="13" lengthAdjust="spacing" textLength="60" x="104" y="780.5577">requestor</text></g><!--link RequestProducer to RequestQueue--><g id="link_RequestProducer_RequestQueue"><path codeLine="29" d="M160.32,133.5583 C166.12,136.4283 171.89,139.2483 177.5,141.9483 C248.17,175.9883 324.2411,210.4826 381.7711,236.1626 " fill="none" id="RequestProducer-to-RequestQueue" style="stroke:#666666;stroke-width:1.0;"/><polygon fill="#666666" points="387.25,238.6083,380.662,231.2872,382.6842,236.5702,377.4012,238.5924,387.25,238.6083" style="stroke:#666666;stroke-width:1.0;"/><text fill="#666666" font-family="sans-serif" font-size="12" lengthAdjust="spacing" textLength="28" x="317.61" y="184.5498">Send</text><text fill="#666666" font-family="sans-serif" font-size="12" lengthAdjust="spacing" textLength="4" x="345.61" y="184.5498">&#160;</text><text fill="#666666" font-family="sans-serif" font-size="12" lengthAdjust="spacing" textLength="47" x="349.61" y="184.5498">Request</text><text fill="#666666" font-family="sans-serif" font-size="12" lengthAdjust="spacing" textLength="27" x="302.61" y="198.6827">[with</text><text fill="#666666" font-family="sans-serif" font-size="12" lengthAdjust="spacing" textLength="4" x="329.61" y="198.6827">&#160;</text><text fill="#666666" font-family="sans-serif" font-size="12" lengthAdjust="spacing" textLength="78" x="333.61" y="198.6827">CorrelationId]</text></g><!--link RequestQueue to RequestConsumer--><g id="link_RequestQueue_RequestConsumer"><path codeLine="30" d="M461.5,313.2083 C461.5,339.6383 461.5,368.4983 461.5,396.4983 " fill="none" id="RequestQueue-to-RequestConsumer" style="stroke:#666666;stroke-width:1.0;"/><polygon fill="#666666" points="461.5,402.4983,465.5,393.4983,461.5,397.4983,457.5,393.4983,461.5,402.4983" style="stroke:#666666;stroke-width:1.0;"/><text fill="#666666" font-family="sans-serif" font-size="12" lengthAdjust="spacing" textLength="20" x="462.5" y="355.5298">Pull</text><text fill="#666666" font-family="sans-serif" font-size="12" lengthAdjust="spacing" textLength="4" x="482.5" y="355.5298">&#160;</text><text fill="#666666" font-family="sans-serif" font-size="12" lengthAdjust="spacing" textLength="47" x="486.5" y="355.5298">Request</text><text fill="#666666" font-family="sans-serif" font-size="12" lengthAdjust="spacing" textLength="52" x="472" y="369.6627">[Process]</text></g><!--link RequestConsumer to ReplyQueue--><g id="link_RequestConsumer_ReplyQueue"><path codeLine="31" d="M373.88,497.1483 C313.01,528.0583 238.5398,565.8818 183.1998,593.9818 " fill="none" id="RequestConsumer-to-ReplyQueue" style="stroke:#666666;stroke-width:1.0;"/><polygon fill="#666666" points="177.85,596.6983,187.6857,596.1901,182.3082,594.4345,184.0638,589.057,177.85,596.6983" style="stroke:#666666;stroke-width:1.0;"/><text fill="#666666" font-family="sans-serif" font-size="12" lengthAdjust="spacing" textLength="28" x="331.4" y="542.9898">Send</text><text fill="#666666" font-family="sans-serif" font-size="12" lengthAdjust="spacing" textLength="4" x="359.4" y="542.9898">&#160;</text><text fill="#666666" font-family="sans-serif" font-size="12" lengthAdjust="spacing" textLength="32" x="363.4" y="542.9898">Reply</text><text fill="#666666" font-family="sans-serif" font-size="12" lengthAdjust="spacing" textLength="27" x="308.9" y="557.1227">[with</text><text fill="#666666" font-family="sans-serif" font-size="12" lengthAdjust="spacing" textLength="4" x="335.9" y="557.1227">&#160;</text><text fill="#666666" font-family="sans-serif" font-size="12" lengthAdjust="spacing" textLength="78" x="339.9" y="557.1227">CorrelationId]</text></g><!--link ReplyQueue to RequestProducer--><g id="link_ReplyQueue_RequestProducer"><path codeLine="32" d="M110.34,589.9483 C105.1,493.2383 92.0845,252.7295 86.4245,148.2195 " fill="none" id="ReplyQueue-to-RequestProducer" style="stroke:#666666;stroke-width:1.0;"/><polygon fill="#666666" points="86.1,142.2283,82.5926,151.4314,86.3704,147.221,90.5809,150.9988,86.1,142.2283" style="stroke:#666666;stroke-width:1.0;"/><text fill="#666666" font-family="sans-serif" font-size="12" lengthAdjust="spacing" textLength="44" x="119.33" y="355.5298">Receive</text><text fill="#666666" font-family="sans-serif" font-size="12" lengthAdjust="spacing" textLength="4" x="163.33" y="355.5298">&#160;</text><text fill="#666666" font-family="sans-serif" font-size="12" lengthAdjust="spacing" textLength="32" x="167.33" y="355.5298">Reply</text><text fill="#666666" font-family="sans-serif" font-size="12" lengthAdjust="spacing" textLength="38" x="99.33" y="369.6627">[Match</text><text fill="#666666" font-family="sans-serif" font-size="12" lengthAdjust="spacing" textLength="4" x="137.33" y="369.6627">&#160;</text><text fill="#666666" font-family="sans-serif" font-size="12" lengthAdjust="spacing" textLength="78" x="141.33" y="369.6627">CorrelationId]</text></g><!--SRC=[VLDDZzCm4BtdLypsj0YbkN3g0GcLNRJIBWe5Je2GwqmR2yVEscCAGlntnlbmaz3Tez_Cl3TlPdobZDIXGgY9Mhyf2YTEwwEYEko3HoUj8JIqbhOfMYqCXKRddYgjziNsLLv6wFF3VT48J-WO-hxb2g4CkdNBkLb6YZJ23Xy3UiftsEhVK0hYR9DbLnKUE1TsDzjFRzw_kxy1gONtMNO6LaCfbCvMGQ9RWV0ZtuZ1dmpW9NWqrH2vVj4X9w7erhfETe2aTGwr86NDNSNOtujg7m86d4frmA23vZ6-hbqVwdahxC6d67amFZJp_aTiu6sTbUZzt49lwjm__Y8d99S-RoFEUMg2tvSjSE2IWSM0y_prV18RM7tapaRmg_bougk1MLlVLjciPaAId3DF6RIUy9Jz5Cx5ARUlJqxEBJ3qT0CfVoAVV6tYh2IgdvXe7WJ9_taoOmd1gMDDO0zB7XvWeemByp3S1iIcE1gCulVq-E3kBGXJSImUgOU3TT14QMMEqAqbY-QYx21Ejfr8TvwuUholRdbGMrrvHlbRswPdwi8TF-F3YN5aoQxnC7Ks3frhqlo7OapkECWMakDuStiXVuoclMYMbfUgUqjacrvtN5HdAdBrbYhKl1uNNJdqBJV33NGoP87gc6vvBye8FVR5LfFEFm00]--></g></svg>