<?xml version="1.0" encoding="us-ascii" standalone="no"?><svg xmlns="http://www.w3.org/2000/svg" xmlns:xlink="http://www.w3.org/1999/xlink" contentStyleType="text/css" height="709px" preserveAspectRatio="none" style="width:630px;height:709px;background:#FFFFFF;" version="1.1" viewBox="0 0 630 709" width="630px" zoomAndPan="magnify"><defs/><g><text fill="#000000" font-family="sans-serif" font-size="14" font-weight="bold" lengthAdjust="spacing" textLength="193" x="211.75" y="23.5352">Multiple Producers Pattern</text><!--class ProducerA--><g id="elem_ProducerA"><rect codeLine="7" fill="#F1F1F1" height="80.9766" id="ProducerA" rx="2.5" ry="2.5" style="stroke:#181818;stroke-width:0.5;" width="177" x="7" y="160.4183"/><ellipse cx="53.25" cy="176.4183" fill="#ADD1B2" rx="11" ry="11" style="stroke:#181818;stroke-width:1.0;"/><path d="M55.7231,182.5613 Q55.1421,182.8602 54.5029,183.0096 Q53.8638,183.159 53.1582,183.159 Q50.6514,183.159 49.3315,181.5071 Q48.0117,179.8553 48.0117,176.7342 Q48.0117,173.6048 49.3315,171.9529 Q50.6514,170.3011 53.1582,170.3011 Q53.8638,170.3011 54.5112,170.4505 Q55.1587,170.5999 55.7231,170.8987 L55.7231,173.6214 Q55.0923,173.0404 54.4988,172.7706 Q53.9053,172.5008 53.2744,172.5008 Q51.9297,172.5008 51.2449,173.5675 Q50.5601,174.6341 50.5601,176.7342 Q50.5601,178.826 51.2449,179.8926 Q51.9297,180.9593 53.2744,180.9593 Q53.9053,180.9593 54.4988,180.6895 Q55.0923,180.4197 55.7231,179.8387 Z " fill="#000000"/><text fill="#000000" font-family="sans-serif" font-size="14" lengthAdjust="spacing" textLength="62" x="73.75" y="181.7093">Producer</text><text fill="#000000" font-family="sans-serif" font-size="14" lengthAdjust="spacing" textLength="4" x="135.75" y="181.7093">&#160;</text><text fill="#000000" font-family="sans-serif" font-size="14" lengthAdjust="spacing" textLength="10" x="139.75" y="181.7093">A</text><line style="stroke:#181818;stroke-width:0.5;" x1="8" x2="183" y1="192.4183" y2="192.4183"/><line style="stroke:#181818;stroke-width:0.5;" x1="8" x2="183" y1="200.4183" y2="200.4183"/><ellipse cx="18" cy="214.1624" fill="#84BE84" rx="3" ry="3" style="stroke:#038048;stroke-width:1.0;"/><text fill="#000000" font-family="sans-serif" font-size="14" lengthAdjust="spacing" textLength="151" x="27" y="217.9534">produceOrderEvents()</text><ellipse cx="18" cy="230.6507" fill="#84BE84" rx="3" ry="3" style="stroke:#038048;stroke-width:1.0;"/><text fill="#000000" font-family="sans-serif" font-size="14" lengthAdjust="spacing" textLength="106" x="27" y="234.4417">sendToQueue()</text></g><!--class ProducerB--><g id="elem_ProducerB"><rect codeLine="12" fill="#F1F1F1" height="80.9766" id="ProducerB" rx="2.5" ry="2.5" style="stroke:#181818;stroke-width:0.5;" width="201" x="219" y="160.4183"/><ellipse cx="278.25" cy="176.4183" fill="#ADD1B2" rx="11" ry="11" style="stroke:#181818;stroke-width:1.0;"/><path d="M280.7231,182.5613 Q280.1421,182.8602 279.5029,183.0096 Q278.8638,183.159 278.1582,183.159 Q275.6514,183.159 274.3315,181.5071 Q273.0117,179.8553 273.0117,176.7342 Q273.0117,173.6048 274.3315,171.9529 Q275.6514,170.3011 278.1582,170.3011 Q278.8638,170.3011 279.5112,170.4505 Q280.1587,170.5999 280.7231,170.8987 L280.7231,173.6214 Q280.0923,173.0404 279.4988,172.7706 Q278.9053,172.5008 278.2744,172.5008 Q276.9297,172.5008 276.2449,173.5675 Q275.5601,174.6341 275.5601,176.7342 Q275.5601,178.826 276.2449,179.8926 Q276.9297,180.9593 278.2744,180.9593 Q278.9053,180.9593 279.4988,180.6895 Q280.0923,180.4197 280.7231,179.8387 Z " fill="#000000"/><text fill="#000000" font-family="sans-serif" font-size="14" lengthAdjust="spacing" textLength="62" x="298.75" y="181.7093">Producer</text><text fill="#000000" font-family="sans-serif" font-size="14" lengthAdjust="spacing" textLength="4" x="360.75" y="181.7093">&#160;</text><text fill="#000000" font-family="sans-serif" font-size="14" lengthAdjust="spacing" textLength="8" x="364.75" y="181.7093">B</text><line style="stroke:#181818;stroke-width:0.5;" x1="220" x2="419" y1="192.4183" y2="192.4183"/><line style="stroke:#181818;stroke-width:0.5;" x1="220" x2="419" y1="200.4183" y2="200.4183"/><ellipse cx="230" cy="214.1624" fill="#84BE84" rx="3" ry="3" style="stroke:#038048;stroke-width:1.0;"/><text fill="#000000" font-family="sans-serif" font-size="14" lengthAdjust="spacing" textLength="175" x="239" y="217.9534">produceInventoryEvents()</text><ellipse cx="230" cy="230.6507" fill="#84BE84" rx="3" ry="3" style="stroke:#038048;stroke-width:1.0;"/><text fill="#000000" font-family="sans-serif" font-size="14" lengthAdjust="spacing" textLength="106" x="239" y="234.4417">sendToQueue()</text></g><!--class ProducerC--><g id="elem_ProducerC"><rect codeLine="17" fill="#F1F1F1" height="80.9766" id="ProducerC" rx="2.5" ry="2.5" style="stroke:#181818;stroke-width:0.5;" width="168" x="455.5" y="160.4183"/><ellipse cx="497.5" cy="176.4183" fill="#ADD1B2" rx="11" ry="11" style="stroke:#181818;stroke-width:1.0;"/><path d="M499.9731,182.5613 Q499.3921,182.8602 498.7529,183.0096 Q498.1138,183.159 497.4082,183.159 Q494.9014,183.159 493.5815,181.5071 Q492.2617,179.8553 492.2617,176.7342 Q492.2617,173.6048 493.5815,171.9529 Q494.9014,170.3011 497.4082,170.3011 Q498.1138,170.3011 498.7612,170.4505 Q499.4087,170.5999 499.9731,170.8987 L499.9731,173.6214 Q499.3423,173.0404 498.7488,172.7706 Q498.1553,172.5008 497.5244,172.5008 Q496.1797,172.5008 495.4949,173.5675 Q494.8101,174.6341 494.8101,176.7342 Q494.8101,178.826 495.4949,179.8926 Q496.1797,180.9593 497.5244,180.9593 Q498.1553,180.9593 498.7488,180.6895 Q499.3423,180.4197 499.9731,179.8387 Z " fill="#000000"/><text fill="#000000" font-family="sans-serif" font-size="14" lengthAdjust="spacing" textLength="62" x="517.5" y="181.7093">Producer</text><text fill="#000000" font-family="sans-serif" font-size="14" lengthAdjust="spacing" textLength="4" x="579.5" y="181.7093">&#160;</text><text fill="#000000" font-family="sans-serif" font-size="14" lengthAdjust="spacing" textLength="10" x="583.5" y="181.7093">C</text><line style="stroke:#181818;stroke-width:0.5;" x1="456.5" x2="622.5" y1="192.4183" y2="192.4183"/><line style="stroke:#181818;stroke-width:0.5;" x1="456.5" x2="622.5" y1="200.4183" y2="200.4183"/><ellipse cx="466.5" cy="214.1624" fill="#84BE84" rx="3" ry="3" style="stroke:#038048;stroke-width:1.0;"/><text fill="#000000" font-family="sans-serif" font-size="14" lengthAdjust="spacing" textLength="142" x="475.5" y="217.9534">produceUserEvents()</text><ellipse cx="466.5" cy="230.6507" fill="#84BE84" rx="3" ry="3" style="stroke:#038048;stroke-width:1.0;"/><text fill="#000000" font-family="sans-serif" font-size="14" lengthAdjust="spacing" textLength="106" x="475.5" y="234.4417">sendToQueue()</text></g><!--class CommonQueue--><g id="elem_CommonQueue"><rect codeLine="22" fill="#F1F1F1" height="97.4648" id="CommonQueue" rx="2.5" ry="2.5" style="stroke:#181818;stroke-width:0.5;" width="170" x="234.5" y="331.3983"/><ellipse cx="261.2" cy="347.3983" fill="#ADD1B2" rx="11" ry="11" style="stroke:#181818;stroke-width:1.0;"/><path d="M263.6731,353.5413 Q263.0921,353.8402 262.4529,353.9896 Q261.8138,354.139 261.1082,354.139 Q258.6014,354.139 257.2815,352.4871 Q255.9617,350.8353 255.9617,347.7142 Q255.9617,344.5848 257.2815,342.9329 Q258.6014,341.2811 261.1082,341.2811 Q261.8138,341.2811 262.4612,341.4305 Q263.1087,341.5799 263.6731,341.8787 L263.6731,344.6014 Q263.0423,344.0204 262.4488,343.7506 Q261.8553,343.4808 261.2244,343.4808 Q259.8797,343.4808 259.1949,344.5475 Q258.5101,345.6141 258.5101,347.7142 Q258.5101,349.806 259.1949,350.8726 Q259.8797,351.9393 261.2244,351.9393 Q261.8553,351.9393 262.4488,351.6695 Q263.0423,351.3997 263.6731,350.8187 Z " fill="#000000"/><text fill="#000000" font-family="sans-serif" font-size="14" lengthAdjust="spacing" textLength="63" x="277.8" y="352.6893">Common</text><text fill="#000000" font-family="sans-serif" font-size="14" lengthAdjust="spacing" textLength="4" x="340.8" y="352.6893">&#160;</text><text fill="#000000" font-family="sans-serif" font-size="14" lengthAdjust="spacing" textLength="45" x="344.8" y="352.6893">Queue</text><line style="stroke:#181818;stroke-width:0.5;" x1="235.5" x2="403.5" y1="363.3983" y2="363.3983"/><line style="stroke:#181818;stroke-width:0.5;" x1="235.5" x2="403.5" y1="371.3983" y2="371.3983"/><ellipse cx="245.5" cy="385.1424" fill="#84BE84" rx="3" ry="3" style="stroke:#038048;stroke-width:1.0;"/><text fill="#000000" font-family="sans-serif" font-size="14" lengthAdjust="spacing" textLength="130" x="254.5" y="388.9334">enqueue(message)</text><ellipse cx="245.5" cy="401.6307" fill="#84BE84" rx="3" ry="3" style="stroke:#038048;stroke-width:1.0;"/><text fill="#000000" font-family="sans-serif" font-size="14" lengthAdjust="spacing" textLength="70" x="254.5" y="405.4217">dequeue()</text><ellipse cx="245.5" cy="418.119" fill="#84BE84" rx="3" ry="3" style="stroke:#038048;stroke-width:1.0;"/><text fill="#000000" font-family="sans-serif" font-size="14" lengthAdjust="spacing" textLength="144" x="254.5" y="421.91">handleConcurrency()</text></g><!--class Consumer1--><g id="elem_Consumer1"><rect codeLine="28" fill="#F1F1F1" height="80.9766" id="Consumer1" rx="2.5" ry="2.5" style="stroke:#181818;stroke-width:0.5;" width="148" x="62.5" y="504.8583"/><ellipse cx="91.9" cy="520.8583" fill="#ADD1B2" rx="11" ry="11" style="stroke:#181818;stroke-width:1.0;"/><path d="M94.3731,527.0013 Q93.7921,527.3002 93.1529,527.4496 Q92.5138,527.599 91.8082,527.599 Q89.3014,527.599 87.9815,525.9471 Q86.6617,524.2953 86.6617,521.1742 Q86.6617,518.0448 87.9815,516.3929 Q89.3014,514.7411 91.8082,514.7411 Q92.5138,514.7411 93.1612,514.8905 Q93.8087,515.0399 94.3731,515.3388 L94.3731,518.0614 Q93.7423,517.4804 93.1488,517.2106 Q92.5553,516.9408 91.9244,516.9408 Q90.5797,516.9408 89.8949,518.0075 Q89.2101,519.0741 89.2101,521.1742 Q89.2101,523.266 89.8949,524.3326 Q90.5797,525.3993 91.9244,525.3993 Q92.5553,525.3993 93.1488,525.1295 Q93.7423,524.8597 94.3731,524.2787 Z " fill="#000000"/><text fill="#000000" font-family="sans-serif" font-size="14" lengthAdjust="spacing" textLength="71" x="109.1" y="526.1493">Consumer</text><text fill="#000000" font-family="sans-serif" font-size="14" lengthAdjust="spacing" textLength="4" x="180.1" y="526.1493">&#160;</text><text fill="#000000" font-family="sans-serif" font-size="14" lengthAdjust="spacing" textLength="9" x="184.1" y="526.1493">1</text><line style="stroke:#181818;stroke-width:0.5;" x1="63.5" x2="209.5" y1="536.8583" y2="536.8583"/><line style="stroke:#181818;stroke-width:0.5;" x1="63.5" x2="209.5" y1="544.8583" y2="544.8583"/><ellipse cx="73.5" cy="558.6024" fill="#84BE84" rx="3" ry="3" style="stroke:#038048;stroke-width:1.0;"/><text fill="#000000" font-family="sans-serif" font-size="14" lengthAdjust="spacing" textLength="117" x="82.5" y="562.3934">pullFromQueue()</text><ellipse cx="73.5" cy="575.0907" fill="#84BE84" rx="3" ry="3" style="stroke:#038048;stroke-width:1.0;"/><text fill="#000000" font-family="sans-serif" font-size="14" lengthAdjust="spacing" textLength="122" x="82.5" y="578.8817">processMessage()</text></g><!--class Consumer2--><g id="elem_Consumer2"><rect codeLine="33" fill="#F1F1F1" height="80.9766" id="Consumer2" rx="2.5" ry="2.5" style="stroke:#181818;stroke-width:0.5;" width="148" x="245.5" y="504.8583"/><ellipse cx="274.9" cy="520.8583" fill="#ADD1B2" rx="11" ry="11" style="stroke:#181818;stroke-width:1.0;"/><path d="M277.3731,527.0013 Q276.7921,527.3002 276.1529,527.4496 Q275.5138,527.599 274.8082,527.599 Q272.3014,527.599 270.9815,525.9471 Q269.6617,524.2953 269.6617,521.1742 Q269.6617,518.0448 270.9815,516.3929 Q272.3014,514.7411 274.8082,514.7411 Q275.5138,514.7411 276.1612,514.8905 Q276.8087,515.0399 277.3731,515.3388 L277.3731,518.0614 Q276.7423,517.4804 276.1488,517.2106 Q275.5553,516.9408 274.9244,516.9408 Q273.5797,516.9408 272.8949,518.0075 Q272.2101,519.0741 272.2101,521.1742 Q272.2101,523.266 272.8949,524.3326 Q273.5797,525.3993 274.9244,525.3993 Q275.5553,525.3993 276.1488,525.1295 Q276.7423,524.8597 277.3731,524.2787 Z " fill="#000000"/><text fill="#000000" font-family="sans-serif" font-size="14" lengthAdjust="spacing" textLength="71" x="292.1" y="526.1493">Consumer</text><text fill="#000000" font-family="sans-serif" font-size="14" lengthAdjust="spacing" textLength="4" x="363.1" y="526.1493">&#160;</text><text fill="#000000" font-family="sans-serif" font-size="14" lengthAdjust="spacing" textLength="9" x="367.1" y="526.1493">2</text><line style="stroke:#181818;stroke-width:0.5;" x1="246.5" x2="392.5" y1="536.8583" y2="536.8583"/><line style="stroke:#181818;stroke-width:0.5;" x1="246.5" x2="392.5" y1="544.8583" y2="544.8583"/><ellipse cx="256.5" cy="558.6024" fill="#84BE84" rx="3" ry="3" style="stroke:#038048;stroke-width:1.0;"/><text fill="#000000" font-family="sans-serif" font-size="14" lengthAdjust="spacing" textLength="117" x="265.5" y="562.3934">pullFromQueue()</text><ellipse cx="256.5" cy="575.0907" fill="#84BE84" rx="3" ry="3" style="stroke:#038048;stroke-width:1.0;"/><text fill="#000000" font-family="sans-serif" font-size="14" lengthAdjust="spacing" textLength="122" x="265.5" y="578.8817">processMessage()</text></g><!--class Consumer3--><g id="elem_Consumer3"><rect codeLine="38" fill="#F1F1F1" height="80.9766" id="Consumer3" rx="2.5" ry="2.5" style="stroke:#181818;stroke-width:0.5;" width="148" x="428.5" y="504.8583"/><ellipse cx="457.9" cy="520.8583" fill="#ADD1B2" rx="11" ry="11" style="stroke:#181818;stroke-width:1.0;"/><path d="M460.3731,527.0013 Q459.7921,527.3002 459.1529,527.4496 Q458.5138,527.599 457.8082,527.599 Q455.3014,527.599 453.9815,525.9471 Q452.6617,524.2953 452.6617,521.1742 Q452.6617,518.0448 453.9815,516.3929 Q455.3014,514.7411 457.8082,514.7411 Q458.5138,514.7411 459.1612,514.8905 Q459.8087,515.0399 460.3731,515.3388 L460.3731,518.0614 Q459.7423,517.4804 459.1488,517.2106 Q458.5553,516.9408 457.9244,516.9408 Q456.5797,516.9408 455.8949,518.0075 Q455.2101,519.0741 455.2101,521.1742 Q455.2101,523.266 455.8949,524.3326 Q456.5797,525.3993 457.9244,525.3993 Q458.5553,525.3993 459.1488,525.1295 Q459.7423,524.8597 460.3731,524.2787 Z " fill="#000000"/><text fill="#000000" font-family="sans-serif" font-size="14" lengthAdjust="spacing" textLength="71" x="475.1" y="526.1493">Consumer</text><text fill="#000000" font-family="sans-serif" font-size="14" lengthAdjust="spacing" textLength="4" x="546.1" y="526.1493">&#160;</text><text fill="#000000" font-family="sans-serif" font-size="14" lengthAdjust="spacing" textLength="9" x="550.1" y="526.1493">3</text><line style="stroke:#181818;stroke-width:0.5;" x1="429.5" x2="575.5" y1="536.8583" y2="536.8583"/><line style="stroke:#181818;stroke-width:0.5;" x1="429.5" x2="575.5" y1="544.8583" y2="544.8583"/><ellipse cx="439.5" cy="558.6024" fill="#84BE84" rx="3" ry="3" style="stroke:#038048;stroke-width:1.0;"/><text fill="#000000" font-family="sans-serif" font-size="14" lengthAdjust="spacing" textLength="117" x="448.5" y="562.3934">pullFromQueue()</text><ellipse cx="439.5" cy="575.0907" fill="#84BE84" rx="3" ry="3" style="stroke:#038048;stroke-width:1.0;"/><text fill="#000000" font-family="sans-serif" font-size="14" lengthAdjust="spacing" textLength="122" x="448.5" y="578.8817">processMessage()</text></g><g id="elem_GMN15"><path d="M8,43.4883 L8,99.4199 A0,0 0 0 0 8,99.4199 L91.5,99.4199 L95.5,160.0283 L99.5,99.4199 L183,99.4199 A0,0 0 0 0 183,99.4199 L183,53.4883 L173,43.4883 L8,43.4883 A0,0 0 0 0 8,43.4883 " fill="#FEFFDD" style="stroke:#181818;stroke-width:0.5;"/><path d="M173,43.4883 L173,53.4883 L183,53.4883 L173,43.4883 " fill="#FEFFDD" style="stroke:#181818;stroke-width:0.5;"/><text fill="#000000" font-family="sans-serif" font-size="13" lengthAdjust="spacing" textLength="51" x="15" y="61.0566">Multiple</text><text fill="#000000" font-family="sans-serif" font-size="13" lengthAdjust="spacing" textLength="4" x="66" y="61.0566">&#160;</text><text fill="#000000" font-family="sans-serif" font-size="13" lengthAdjust="spacing" textLength="63" x="70" y="61.0566">producers</text><text fill="#000000" font-family="sans-serif" font-size="13" lengthAdjust="spacing" textLength="4" x="133" y="61.0566">&#160;</text><text fill="#000000" font-family="sans-serif" font-size="13" lengthAdjust="spacing" textLength="30" x="137" y="61.0566">send</text><text fill="#000000" font-family="sans-serif" font-size="13" lengthAdjust="spacing" textLength="54" x="14" y="76.3672">different</text><text fill="#000000" font-family="sans-serif" font-size="13" lengthAdjust="spacing" textLength="4" x="68" y="76.3672">&#160;</text><text fill="#000000" font-family="sans-serif" font-size="13" lengthAdjust="spacing" textLength="34" x="72" y="76.3672">types</text><text fill="#000000" font-family="sans-serif" font-size="13" lengthAdjust="spacing" textLength="4" x="106" y="76.3672">&#160;</text><text fill="#000000" font-family="sans-serif" font-size="13" lengthAdjust="spacing" textLength="13" x="110" y="76.3672">of</text><text fill="#000000" font-family="sans-serif" font-size="13" lengthAdjust="spacing" textLength="4" x="123" y="76.3672">&#160;</text><text fill="#000000" font-family="sans-serif" font-size="13" lengthAdjust="spacing" textLength="41" x="127" y="76.3672">events</text><text fill="#000000" font-family="sans-serif" font-size="13" lengthAdjust="spacing" textLength="13" x="33" y="91.6777">to</text><text fill="#000000" font-family="sans-serif" font-size="13" lengthAdjust="spacing" textLength="4" x="46" y="91.6777">&#160;</text><text fill="#000000" font-family="sans-serif" font-size="13" lengthAdjust="spacing" textLength="20" x="50" y="91.6777">the</text><text fill="#000000" font-family="sans-serif" font-size="13" lengthAdjust="spacing" textLength="4" x="70" y="91.6777">&#160;</text><text fill="#000000" font-family="sans-serif" font-size="13" lengthAdjust="spacing" textLength="33" x="74" y="91.6777">same</text><text fill="#000000" font-family="sans-serif" font-size="13" lengthAdjust="spacing" textLength="4" x="107" y="91.6777">&#160;</text><text fill="#000000" font-family="sans-serif" font-size="13" lengthAdjust="spacing" textLength="38" x="111" y="91.6777">queue</text></g><g id="elem_GMN18"><path d="M440,352.1583 L440,376.1283 L404.81,380.1283 L440,384.1283 L440,408.0899 A0,0 0 0 0 440,408.0899 L613,408.0899 A0,0 0 0 0 613,408.0899 L613,362.1583 L603,352.1583 L440,352.1583 A0,0 0 0 0 440,352.1583 " fill="#FEFFDD" style="stroke:#181818;stroke-width:0.5;"/><path d="M603,352.1583 L603,362.1583 L613,362.1583 L603,352.1583 " fill="#FEFFDD" style="stroke:#181818;stroke-width:0.5;"/><text fill="#000000" font-family="sans-serif" font-size="13" lengthAdjust="spacing" textLength="57" x="446" y="369.7266">Common</text><text fill="#000000" font-family="sans-serif" font-size="13" lengthAdjust="spacing" textLength="4" x="503" y="369.7266">&#160;</text><text fill="#000000" font-family="sans-serif" font-size="13" lengthAdjust="spacing" textLength="38" x="507" y="369.7266">queue</text><text fill="#000000" font-family="sans-serif" font-size="13" lengthAdjust="spacing" textLength="4" x="545" y="369.7266">&#160;</text><text fill="#000000" font-family="sans-serif" font-size="13" lengthAdjust="spacing" textLength="49" x="549" y="369.7266">handles</text><text fill="#000000" font-family="sans-serif" font-size="13" lengthAdjust="spacing" textLength="62" x="446" y="385.0372">messages</text><text fill="#000000" font-family="sans-serif" font-size="13" lengthAdjust="spacing" textLength="4" x="508" y="385.0372">&#160;</text><text fill="#000000" font-family="sans-serif" font-size="13" lengthAdjust="spacing" textLength="30" x="512" y="385.0372">from</text><text fill="#000000" font-family="sans-serif" font-size="13" lengthAdjust="spacing" textLength="4" x="542" y="385.0372">&#160;</text><text fill="#000000" font-family="sans-serif" font-size="13" lengthAdjust="spacing" textLength="52" x="546" y="385.0372">multiple</text><text fill="#000000" font-family="sans-serif" font-size="13" lengthAdjust="spacing" textLength="49" x="456" y="400.3477">sources</text><text fill="#000000" font-family="sans-serif" font-size="13" lengthAdjust="spacing" textLength="4" x="505" y="400.3477">&#160;</text><text fill="#000000" font-family="sans-serif" font-size="13" lengthAdjust="spacing" textLength="79" x="509" y="400.3477">concurrently</text></g><g id="elem_GMN21"><path d="M42.5,646.8383 L42.5,702.7699 A0,0 0 0 0 42.5,702.7699 L230.5,702.7699 A0,0 0 0 0 230.5,702.7699 L230.5,656.8383 L220.5,646.8383 L140.5,646.8383 L136.5,586.3283 L132.5,646.8383 L42.5,646.8383 A0,0 0 0 0 42.5,646.8383 " fill="#FEFFDD" style="stroke:#181818;stroke-width:0.5;"/><path d="M220.5,646.8383 L220.5,656.8383 L230.5,656.8383 L220.5,646.8383 " fill="#FEFFDD" style="stroke:#181818;stroke-width:0.5;"/><text fill="#000000" font-family="sans-serif" font-size="13" lengthAdjust="spacing" textLength="71" x="48.5" y="664.4066">Consumers</text><text fill="#000000" font-family="sans-serif" font-size="13" lengthAdjust="spacing" textLength="4" x="119.5" y="664.4066">&#160;</text><text fill="#000000" font-family="sans-serif" font-size="13" lengthAdjust="spacing" textLength="49" x="123.5" y="664.4066">process</text><text fill="#000000" font-family="sans-serif" font-size="13" lengthAdjust="spacing" textLength="4" x="172.5" y="664.4066">&#160;</text><text fill="#000000" font-family="sans-serif" font-size="13" lengthAdjust="spacing" textLength="39" x="176.5" y="664.4066">mixed</text><text fill="#000000" font-family="sans-serif" font-size="13" lengthAdjust="spacing" textLength="55" x="68.5" y="679.7172">message</text><text fill="#000000" font-family="sans-serif" font-size="13" lengthAdjust="spacing" textLength="4" x="123.5" y="679.7172">&#160;</text><text fill="#000000" font-family="sans-serif" font-size="13" lengthAdjust="spacing" textLength="34" x="127.5" y="679.7172">types</text><text fill="#000000" font-family="sans-serif" font-size="13" lengthAdjust="spacing" textLength="4" x="161.5" y="679.7172">&#160;</text><text fill="#000000" font-family="sans-serif" font-size="13" lengthAdjust="spacing" textLength="30" x="165.5" y="679.7172">from</text><text fill="#000000" font-family="sans-serif" font-size="13" lengthAdjust="spacing" textLength="54" x="71.5" y="695.0277">different</text><text fill="#000000" font-family="sans-serif" font-size="13" lengthAdjust="spacing" textLength="4" x="125.5" y="695.0277">&#160;</text><text fill="#000000" font-family="sans-serif" font-size="13" lengthAdjust="spacing" textLength="63" x="129.5" y="695.0277">producers</text></g><!--link ProducerA to CommonQueue--><g id="link_ProducerA_CommonQueue"><path codeLine="43" d="M135.27,241.7983 C154.84,260.6583 179.2,283.0183 202.5,301.3983 C215.23,311.4383 224.2945,318.1255 238.0645,327.5255 " fill="none" id="ProducerA-to-CommonQueue" style="stroke:#666666;stroke-width:1.0;"/><polygon fill="#666666" points="243.02,330.9083,237.842,322.5304,238.8905,328.0893,233.3316,329.1377,243.02,330.9083" style="stroke:#666666;stroke-width:1.0;"/><text fill="#666666" font-family="sans-serif" font-size="12" lengthAdjust="spacing" textLength="28" x="203.5" y="283.9998">Send</text><text fill="#666666" font-family="sans-serif" font-size="12" lengthAdjust="spacing" textLength="4" x="231.5" y="283.9998">&#160;</text><text fill="#666666" font-family="sans-serif" font-size="12" lengthAdjust="spacing" textLength="34" x="235.5" y="283.9998">Order</text><text fill="#666666" font-family="sans-serif" font-size="12" lengthAdjust="spacing" textLength="4" x="269.5" y="283.9998">&#160;</text><text fill="#666666" font-family="sans-serif" font-size="12" lengthAdjust="spacing" textLength="37" x="273.5" y="283.9998">Events</text><text fill="#666666" font-family="sans-serif" font-size="12" lengthAdjust="spacing" textLength="71" x="221.5" y="298.1327">[Concurrent]</text></g><!--link ProducerB to CommonQueue--><g id="link_ProducerB_CommonQueue"><path codeLine="44" d="M319.5,241.6783 C319.5,268.1083 319.5,296.9683 319.5,324.9683 " fill="none" id="ProducerB-to-CommonQueue" style="stroke:#666666;stroke-width:1.0;"/><polygon fill="#666666" points="319.5,330.9683,323.5,321.9683,319.5,325.9683,315.5,321.9683,319.5,330.9683" style="stroke:#666666;stroke-width:1.0;"/><text fill="#666666" font-family="sans-serif" font-size="12" lengthAdjust="spacing" textLength="28" x="320.5" y="283.9998">Send</text><text fill="#666666" font-family="sans-serif" font-size="12" lengthAdjust="spacing" textLength="4" x="348.5" y="283.9998">&#160;</text><text fill="#666666" font-family="sans-serif" font-size="12" lengthAdjust="spacing" textLength="52" x="352.5" y="283.9998">Inventory</text><text fill="#666666" font-family="sans-serif" font-size="12" lengthAdjust="spacing" textLength="4" x="404.5" y="283.9998">&#160;</text><text fill="#666666" font-family="sans-serif" font-size="12" lengthAdjust="spacing" textLength="37" x="408.5" y="283.9998">Events</text><text fill="#666666" font-family="sans-serif" font-size="12" lengthAdjust="spacing" textLength="71" x="347.5" y="298.1327">[Concurrent]</text></g><!--link ProducerC to CommonQueue--><g id="link_ProducerC_CommonQueue"><path codeLine="45" d="M510.78,241.5583 C495.46,261.0283 475.47,283.9783 454.5,301.3983 C439.42,313.9183 427.195,322.5013 410.045,332.7913 " fill="none" id="ProducerC-to-CommonQueue" style="stroke:#666666;stroke-width:1.0;"/><polygon fill="#666666" points="404.9,335.8783,414.6754,334.6778,409.1875,333.3058,410.5595,327.8178,404.9,335.8783" style="stroke:#666666;stroke-width:1.0;"/><text fill="#666666" font-family="sans-serif" font-size="12" lengthAdjust="spacing" textLength="28" x="486.44" y="283.9998">Send</text><text fill="#666666" font-family="sans-serif" font-size="12" lengthAdjust="spacing" textLength="4" x="514.44" y="283.9998">&#160;</text><text fill="#666666" font-family="sans-serif" font-size="12" lengthAdjust="spacing" textLength="26" x="518.44" y="283.9998">User</text><text fill="#666666" font-family="sans-serif" font-size="12" lengthAdjust="spacing" textLength="4" x="544.44" y="283.9998">&#160;</text><text fill="#666666" font-family="sans-serif" font-size="12" lengthAdjust="spacing" textLength="37" x="548.44" y="283.9998">Events</text><text fill="#666666" font-family="sans-serif" font-size="12" lengthAdjust="spacing" textLength="71" x="500.44" y="298.1327">[Concurrent]</text></g><!--link CommonQueue to Consumer1--><g id="link_CommonQueue_Consumer1"><path codeLine="46" d="M234.2,424.7583 C218.7,434.7683 203.39,446.2383 190.5,458.8583 C177.08,471.9983 168.4576,483.9023 159.4676,499.3523 " fill="none" id="CommonQueue-to-Consumer1" style="stroke:#666666;stroke-width:1.0;"/><polygon fill="#666666" points="156.45,504.5383,164.4337,498.7711,158.9647,500.2167,157.5191,494.7476,156.45,504.5383" style="stroke:#666666;stroke-width:1.0;"/><text fill="#666666" font-family="sans-serif" font-size="12" lengthAdjust="spacing" textLength="20" x="191.5" y="471.4598">Pull</text><text fill="#666666" font-family="sans-serif" font-size="12" lengthAdjust="spacing" textLength="4" x="211.5" y="471.4598">&#160;</text><text fill="#666666" font-family="sans-serif" font-size="12" lengthAdjust="spacing" textLength="35" x="215.5" y="471.4598">Mixed</text><text fill="#666666" font-family="sans-serif" font-size="12" lengthAdjust="spacing" textLength="4" x="250.5" y="471.4598">&#160;</text><text fill="#666666" font-family="sans-serif" font-size="12" lengthAdjust="spacing" textLength="56" x="254.5" y="471.4598">Messages</text></g><!--link CommonQueue to Consumer2--><g id="link_CommonQueue_Consumer2"><path codeLine="47" d="M319.5,429.2183 C319.5,453.1983 319.5,475.8483 319.5,498.5683 " fill="none" id="CommonQueue-to-Consumer2" style="stroke:#666666;stroke-width:1.0;"/><polygon fill="#666666" points="319.5,504.5683,323.5,495.5683,319.5,499.5683,315.5,495.5683,319.5,504.5683" style="stroke:#666666;stroke-width:1.0;"/><text fill="#666666" font-family="sans-serif" font-size="12" lengthAdjust="spacing" textLength="20" x="320.5" y="471.4598">Pull</text><text fill="#666666" font-family="sans-serif" font-size="12" lengthAdjust="spacing" textLength="4" x="340.5" y="471.4598">&#160;</text><text fill="#666666" font-family="sans-serif" font-size="12" lengthAdjust="spacing" textLength="35" x="344.5" y="471.4598">Mixed</text><text fill="#666666" font-family="sans-serif" font-size="12" lengthAdjust="spacing" textLength="4" x="379.5" y="471.4598">&#160;</text><text fill="#666666" font-family="sans-serif" font-size="12" lengthAdjust="spacing" textLength="56" x="383.5" y="471.4598">Messages</text></g><!--link CommonQueue to Consumer3--><g id="link_CommonQueue_Consumer3"><path codeLine="48" d="M404.8,424.7583 C420.3,434.7683 435.61,446.2383 448.5,458.8583 C461.92,471.9983 470.5424,483.9023 479.5324,499.3523 " fill="none" id="CommonQueue-to-Consumer3" style="stroke:#666666;stroke-width:1.0;"/><polygon fill="#666666" points="482.55,504.5383,481.4809,494.7476,480.0353,500.2167,474.5663,498.7711,482.55,504.5383" style="stroke:#666666;stroke-width:1.0;"/><text fill="#666666" font-family="sans-serif" font-size="12" lengthAdjust="spacing" textLength="20" x="462.35" y="471.4598">Pull</text><text fill="#666666" font-family="sans-serif" font-size="12" lengthAdjust="spacing" textLength="4" x="482.35" y="471.4598">&#160;</text><text fill="#666666" font-family="sans-serif" font-size="12" lengthAdjust="spacing" textLength="35" x="486.35" y="471.4598">Mixed</text><text fill="#666666" font-family="sans-serif" font-size="12" lengthAdjust="spacing" textLength="4" x="521.35" y="471.4598">&#160;</text><text fill="#666666" font-family="sans-serif" font-size="12" lengthAdjust="spacing" textLength="56" x="525.35" y="471.4598">Messages</text></g><!--SRC=[hPDFRzD04CNl_XJJd40eiPfmwg5IQWM4r40AxGagvDZZnDB-SNTdWGZntPbTR-ougeKYSVFk-ltUpEpRYreLmfK8UwB6NgMfoN_ETZNjtTPPD8LMX8fcXPPf8t95JegffLBKspHxEztuhOVrRIfpIsXuwtl6YhnMQ6OD_viaL9D0M3j1TSCV6wDBLw2niCc99If9BagiM02VLzdzykFxsnKK8hSsIVgDoL46omdajgCiuNS2y0QQTlt9b6XMFxXW- -frEB2eodjzvz0Xx_nvcNapODuCcH-KvsbpE9-R3RZPaFjWpoWrqr9g1U4mGDkDi8vOL4z1Aj7QV8SjiyIdoFEhVQvAWNn1XJC6LN5umKTP9xdqo-ZIBY-FfJiXtXajxqwWt4x1bklMTfmu7n3d_u6u610NPnBx24sdruDvNi7a2zy5X3H1UqVVrDTkRlGuIVgmZAcxtFo3a8qIV496nAU_j_BZHR5umnE0TVqBIuWTst75_6p5ObIHA4q8f1lGLVz4-GQwrzzqhz-ddK_AkghGDmLqQD1w8OQE-Omqq1x1vX8Xn3ZnK_4UqSdKkprvoKcfh8kF9KXYvZqkFWmB5QS3P2o93wnsXkC1HJTXSNXkjTL4h0fUSTJ1gVssnuI1z2FfpM9Ntd7GR3U7tkSl]--></g></svg>